<!-- Generator: Adobe Illustrator 21.0.0, SVG Export Plug-In  -->
<svg version="1.1"
	 xmlns="http://www.w3.org/2000/svg" xmlns:xlink="http://www.w3.org/1999/xlink" xmlns:a="http://ns.adobe.com/AdobeSVGViewerExtensions/3.0/"
	 x="0px" y="0px" width="547.457px" height="341px" viewBox="0 0 547.457 341" style="enable-background:new 0 0 547.457 341;"
	 xml:space="preserve">
<style type="text/css">
	.st0{fill:none;stroke:#000000;stroke-miterlimit:10;}
	.st1{fill:none;}
</style>
<defs>
</defs>
<g>
	<path d="M53.698,71.258c-0.941,0-1.685,0.314-2.229,0.941s-0.817,1.484-0.817,2.574c0,1.121,0.263,1.988,0.788,2.6
		s1.274,0.916,2.247,0.916c0.598,0,1.279-0.107,2.045-0.322v0.873c-0.594,0.223-1.326,0.334-2.197,0.334
		c-1.262,0-2.235-0.383-2.921-1.148s-1.028-1.854-1.028-3.264c0-0.883,0.165-1.656,0.495-2.32s0.807-1.176,1.43-1.535
		s1.356-0.539,2.2-0.539c0.898,0,1.684,0.164,2.355,0.492l-0.422,0.855C54.995,71.41,54.347,71.258,53.698,71.258z"/>
	<path d="M63.049,79.057v-4.154c0-0.523-0.119-0.914-0.357-1.172s-0.611-0.387-1.119-0.387c-0.676,0-1.169,0.184-1.479,0.551
		s-0.466,0.969-0.466,1.805v3.357h-0.973v-9.117h0.973v2.76c0,0.332-0.016,0.607-0.047,0.826h0.059
		c0.191-0.309,0.464-0.551,0.817-0.729s0.757-0.268,1.21-0.268c0.785,0,1.374,0.188,1.767,0.561s0.589,0.965,0.589,1.777v4.189
		H63.049z"/>
	<path d="M72.763,75.84c0,1.047-0.264,1.865-0.791,2.453s-1.256,0.881-2.186,0.881c-0.574,0-1.084-0.135-1.529-0.404
		s-0.789-0.656-1.031-1.16s-0.363-1.094-0.363-1.77c0-1.047,0.262-1.861,0.785-2.445s1.25-0.877,2.18-0.877
		c0.898,0,1.612,0.299,2.142,0.896S72.763,74.82,72.763,75.84z M67.87,75.84c0,0.82,0.164,1.445,0.492,1.875
		s0.811,0.645,1.447,0.645s1.12-0.213,1.45-0.641s0.495-1.055,0.495-1.879c0-0.816-0.165-1.436-0.495-1.859
		s-0.817-0.637-1.462-0.637c-0.637,0-1.117,0.209-1.441,0.627S67.87,75.012,67.87,75.84z"/>
	<path d="M81.21,75.84c0,1.047-0.264,1.865-0.791,2.453s-1.256,0.881-2.186,0.881c-0.574,0-1.084-0.135-1.529-0.404
		s-0.789-0.656-1.031-1.16s-0.363-1.094-0.363-1.77c0-1.047,0.262-1.861,0.785-2.445s1.25-0.877,2.18-0.877
		c0.898,0,1.612,0.299,2.142,0.896S81.21,74.82,81.21,75.84z M76.317,75.84c0,0.82,0.164,1.445,0.492,1.875s0.811,0.645,1.447,0.645
		s1.12-0.213,1.45-0.641s0.495-1.055,0.495-1.879c0-0.816-0.165-1.436-0.495-1.859s-0.817-0.637-1.462-0.637
		c-0.637,0-1.117,0.209-1.441,0.627S76.317,75.012,76.317,75.84z"/>
	<path d="M88.258,77.305c0,0.598-0.223,1.059-0.668,1.383s-1.07,0.486-1.875,0.486c-0.852,0-1.516-0.135-1.992-0.404v-0.902
		c0.309,0.156,0.64,0.279,0.993,0.369s0.694,0.135,1.022,0.135c0.508,0,0.898-0.08,1.172-0.242s0.41-0.41,0.41-0.742
		c0-0.25-0.108-0.463-0.325-0.641s-0.64-0.389-1.269-0.631c-0.598-0.223-1.022-0.416-1.274-0.582s-0.439-0.355-0.562-0.566
		s-0.185-0.463-0.185-0.756c0-0.523,0.213-0.936,0.639-1.238s1.01-0.455,1.752-0.455c0.691,0,1.367,0.141,2.027,0.422l-0.346,0.791
		c-0.645-0.266-1.229-0.398-1.752-0.398c-0.461,0-0.809,0.072-1.043,0.217s-0.352,0.344-0.352,0.598
		c0,0.172,0.044,0.318,0.132,0.439s0.229,0.236,0.425,0.346s0.57,0.268,1.125,0.475c0.762,0.277,1.276,0.557,1.544,0.838
		S88.258,76.879,88.258,77.305z"/>
	<path d="M93.753,79.174c-0.949,0-1.698-0.289-2.247-0.867s-0.823-1.381-0.823-2.408c0-1.035,0.255-1.857,0.765-2.467
		s1.194-0.914,2.054-0.914c0.805,0,1.441,0.266,1.91,0.795s0.703,1.227,0.703,2.094v0.615H91.69c0.02,0.754,0.21,1.326,0.571,1.717
		s0.87,0.586,1.526,0.586c0.691,0,1.375-0.145,2.051-0.434v0.867c-0.344,0.148-0.669,0.256-0.976,0.32S94.187,79.174,93.753,79.174z
		 M93.489,73.332c-0.516,0-0.927,0.168-1.233,0.504s-0.487,0.801-0.542,1.395h3.357c0-0.613-0.137-1.082-0.41-1.408
		S93.997,73.332,93.489,73.332z"/>
	<path d="M107.239,79.057l-0.193-0.914h-0.047c-0.32,0.402-0.64,0.676-0.958,0.818s-0.716,0.213-1.192,0.213
		c-0.637,0-1.136-0.164-1.497-0.492s-0.542-0.795-0.542-1.4c0-1.297,1.037-1.977,3.111-2.039l1.09-0.035v-0.398
		c0-0.504-0.108-0.875-0.325-1.115s-0.563-0.361-1.04-0.361c-0.535,0-1.141,0.164-1.816,0.492l-0.299-0.744
		c0.316-0.172,0.663-0.307,1.04-0.404s0.755-0.146,1.134-0.146c0.766,0,1.333,0.17,1.702,0.51s0.554,0.885,0.554,1.635v4.383
		H107.239z M105.042,78.371c0.605,0,1.081-0.166,1.427-0.498s0.519-0.797,0.519-1.395v-0.58l-0.973,0.041
		c-0.773,0.027-1.331,0.148-1.673,0.361s-0.513,0.543-0.513,0.992c0,0.352,0.106,0.619,0.319,0.803S104.659,78.371,105.042,78.371z"
		/>
	<path d="M115.558,79.057v-4.154c0-0.523-0.119-0.914-0.357-1.172s-0.611-0.387-1.119-0.387c-0.672,0-1.164,0.182-1.477,0.545
		s-0.469,0.963-0.469,1.799v3.369h-0.973v-6.422h0.791l0.158,0.879h0.047c0.199-0.316,0.479-0.561,0.838-0.734
		s0.76-0.262,1.201-0.262c0.773,0,1.355,0.188,1.746,0.561s0.586,0.969,0.586,1.789v4.189H115.558z"/>
	<path d="M118.709,72.635h1.043l1.406,3.662c0.309,0.836,0.5,1.439,0.574,1.811h0.047c0.051-0.199,0.157-0.539,0.319-1.021
		s0.692-1.967,1.591-4.451h1.043l-2.76,7.312c-0.273,0.723-0.593,1.236-0.958,1.539s-0.813,0.453-1.345,0.453
		c-0.297,0-0.59-0.033-0.879-0.1v-0.779c0.215,0.047,0.455,0.07,0.721,0.07c0.668,0,1.145-0.375,1.43-1.125l0.357-0.914
		L118.709,72.635z"/>
	<path d="M131.211,70.895c0-0.223,0.055-0.385,0.164-0.488s0.246-0.156,0.41-0.156c0.156,0,0.291,0.053,0.404,0.158
		s0.17,0.268,0.17,0.486s-0.057,0.383-0.17,0.49s-0.248,0.16-0.404,0.16c-0.164,0-0.301-0.053-0.41-0.16
		S131.211,71.113,131.211,70.895z M132.266,79.057h-0.973v-6.422h0.973V79.057z"/>
	<path d="M137.603,78.371c0.172,0,0.338-0.012,0.498-0.037s0.287-0.053,0.381-0.08v0.744c-0.105,0.051-0.261,0.094-0.466,0.127
		s-0.39,0.049-0.554,0.049c-1.242,0-1.863-0.654-1.863-1.963v-3.82h-0.92v-0.469l0.92-0.404l0.41-1.371h0.562v1.488h1.863v0.756
		h-1.863v3.779c0,0.387,0.092,0.684,0.275,0.891S137.282,78.371,137.603,78.371z"/>
	<path d="M143.677,79.174c-0.949,0-1.698-0.289-2.247-0.867s-0.823-1.381-0.823-2.408c0-1.035,0.255-1.857,0.765-2.467
		s1.194-0.914,2.054-0.914c0.805,0,1.441,0.266,1.91,0.795s0.703,1.227,0.703,2.094v0.615h-4.424c0.02,0.754,0.21,1.326,0.571,1.717
		s0.87,0.586,1.526,0.586c0.691,0,1.375-0.145,2.051-0.434v0.867c-0.344,0.148-0.669,0.256-0.976,0.32S144.11,79.174,143.677,79.174
		z M143.413,73.332c-0.516,0-0.927,0.168-1.233,0.504s-0.487,0.801-0.542,1.395h3.357c0-0.613-0.137-1.082-0.41-1.408
		S143.921,73.332,143.413,73.332z"/>
	<path d="M157.082,79.057v-4.178c0-0.512-0.109-0.895-0.328-1.15s-0.559-0.385-1.02-0.385c-0.605,0-1.053,0.174-1.342,0.521
		s-0.434,0.883-0.434,1.605v3.586h-0.973v-4.178c0-0.512-0.109-0.895-0.328-1.15s-0.561-0.385-1.025-0.385
		c-0.609,0-1.056,0.184-1.339,0.549s-0.425,0.963-0.425,1.795v3.369h-0.973v-6.422h0.791l0.158,0.879h0.047
		c0.184-0.312,0.442-0.557,0.776-0.732s0.708-0.264,1.122-0.264c1.004,0,1.66,0.363,1.969,1.09h0.047
		c0.191-0.336,0.469-0.602,0.832-0.797s0.777-0.293,1.242-0.293c0.727,0,1.271,0.188,1.632,0.561s0.542,0.969,0.542,1.789v4.189
		H157.082z"/>
	<path d="M171.119,75.84c0,1.047-0.264,1.865-0.791,2.453s-1.256,0.881-2.186,0.881c-0.574,0-1.084-0.135-1.529-0.404
		s-0.789-0.656-1.031-1.16s-0.363-1.094-0.363-1.77c0-1.047,0.262-1.861,0.785-2.445s1.25-0.877,2.18-0.877
		c0.898,0,1.612,0.299,2.142,0.896S171.119,74.82,171.119,75.84z M166.227,75.84c0,0.82,0.164,1.445,0.492,1.875
		s0.811,0.645,1.447,0.645s1.12-0.213,1.45-0.641s0.495-1.055,0.495-1.879c0-0.816-0.165-1.436-0.495-1.859
		s-0.817-0.637-1.462-0.637c-0.637,0-1.117,0.209-1.441,0.627S166.227,75.012,166.227,75.84z"/>
	<path d="M178.419,79.057v-4.154c0-0.523-0.119-0.914-0.357-1.172s-0.611-0.387-1.119-0.387c-0.672,0-1.164,0.182-1.477,0.545
		s-0.469,0.963-0.469,1.799v3.369h-0.973v-6.422h0.791l0.158,0.879h0.047c0.199-0.316,0.479-0.561,0.838-0.734
		s0.76-0.262,1.201-0.262c0.773,0,1.355,0.188,1.746,0.561s0.586,0.969,0.586,1.789v4.189H178.419z"/>
	<path d="M188.98,78.371c0.172,0,0.338-0.012,0.498-0.037s0.287-0.053,0.381-0.08v0.744c-0.105,0.051-0.261,0.094-0.466,0.127
		s-0.39,0.049-0.554,0.049c-1.242,0-1.863-0.654-1.863-1.963v-3.82h-0.92v-0.469l0.92-0.404l0.41-1.371h0.562v1.488h1.863v0.756
		h-1.863v3.779c0,0.387,0.092,0.684,0.275,0.891S188.66,78.371,188.98,78.371z"/>
	<path d="M196.737,79.057v-4.154c0-0.523-0.119-0.914-0.357-1.172s-0.611-0.387-1.119-0.387c-0.676,0-1.169,0.184-1.479,0.551
		s-0.466,0.969-0.466,1.805v3.357h-0.973v-9.117h0.973v2.76c0,0.332-0.016,0.607-0.047,0.826h0.059
		c0.191-0.309,0.464-0.551,0.817-0.729s0.757-0.268,1.21-0.268c0.785,0,1.374,0.188,1.767,0.561s0.589,0.965,0.589,1.777v4.189
		H196.737z"/>
	<path d="M203.621,79.174c-0.949,0-1.698-0.289-2.247-0.867s-0.823-1.381-0.823-2.408c0-1.035,0.255-1.857,0.765-2.467
		s1.194-0.914,2.054-0.914c0.805,0,1.441,0.266,1.91,0.795s0.703,1.227,0.703,2.094v0.615h-4.424c0.02,0.754,0.21,1.326,0.571,1.717
		s0.87,0.586,1.526,0.586c0.691,0,1.375-0.145,2.051-0.434v0.867c-0.344,0.148-0.669,0.256-0.976,0.32
		S204.055,79.174,203.621,79.174z M203.357,73.332c-0.516,0-0.927,0.168-1.233,0.504s-0.487,0.801-0.542,1.395h3.357
		c0-0.613-0.137-1.082-0.41-1.408S203.865,73.332,203.357,73.332z"/>
	<path d="M221.343,79.057v-4.178c0-0.512-0.109-0.895-0.328-1.15s-0.559-0.385-1.02-0.385c-0.605,0-1.053,0.174-1.342,0.521
		s-0.434,0.883-0.434,1.605v3.586h-0.973v-4.178c0-0.512-0.109-0.895-0.328-1.15s-0.561-0.385-1.025-0.385
		c-0.609,0-1.056,0.184-1.339,0.549s-0.425,0.963-0.425,1.795v3.369h-0.973v-6.422h0.791l0.158,0.879h0.047
		c0.184-0.312,0.442-0.557,0.776-0.732s0.708-0.264,1.122-0.264c1.004,0,1.66,0.363,1.969,1.09h0.047
		c0.191-0.336,0.469-0.602,0.832-0.797s0.777-0.293,1.242-0.293c0.727,0,1.271,0.188,1.632,0.561s0.542,0.969,0.542,1.789v4.189
		H221.343z"/>
	<path d="M228.232,79.174c-0.949,0-1.698-0.289-2.247-0.867s-0.823-1.381-0.823-2.408c0-1.035,0.255-1.857,0.765-2.467
		s1.194-0.914,2.054-0.914c0.805,0,1.441,0.266,1.91,0.795s0.703,1.227,0.703,2.094v0.615h-4.424c0.02,0.754,0.21,1.326,0.571,1.717
		s0.87,0.586,1.526,0.586c0.691,0,1.375-0.145,2.051-0.434v0.867c-0.344,0.148-0.669,0.256-0.976,0.32
		S228.666,79.174,228.232,79.174z M227.969,73.332c-0.516,0-0.927,0.168-1.233,0.504s-0.487,0.801-0.542,1.395h3.357
		c0-0.613-0.137-1.082-0.41-1.408S228.477,73.332,227.969,73.332z"/>
	<path d="M237.847,79.057v-4.154c0-0.523-0.119-0.914-0.357-1.172s-0.611-0.387-1.119-0.387c-0.672,0-1.164,0.182-1.477,0.545
		s-0.469,0.963-0.469,1.799v3.369h-0.973v-6.422h0.791l0.158,0.879h0.047c0.199-0.316,0.479-0.561,0.838-0.734
		s0.76-0.262,1.201-0.262c0.773,0,1.355,0.188,1.746,0.561s0.586,0.969,0.586,1.789v4.189H237.847z"/>
	<path d="M242.932,72.635v4.166c0,0.523,0.119,0.914,0.357,1.172s0.611,0.387,1.119,0.387c0.672,0,1.163-0.184,1.474-0.551
		s0.466-0.967,0.466-1.799v-3.375h0.973v6.422h-0.803l-0.141-0.861h-0.053c-0.199,0.316-0.476,0.559-0.829,0.727
		s-0.757,0.252-1.21,0.252c-0.781,0-1.366-0.186-1.755-0.557s-0.583-0.965-0.583-1.781v-4.201H242.932z"/>
	<path d="M258.849,79.057l-0.193-0.914h-0.047c-0.32,0.402-0.64,0.676-0.958,0.818s-0.716,0.213-1.192,0.213
		c-0.637,0-1.136-0.164-1.497-0.492s-0.542-0.795-0.542-1.4c0-1.297,1.037-1.977,3.111-2.039l1.09-0.035v-0.398
		c0-0.504-0.108-0.875-0.325-1.115s-0.563-0.361-1.04-0.361c-0.535,0-1.141,0.164-1.816,0.492l-0.299-0.744
		c0.316-0.172,0.663-0.307,1.04-0.404s0.755-0.146,1.134-0.146c0.766,0,1.333,0.17,1.702,0.51s0.554,0.885,0.554,1.635v4.383
		H258.849z M256.651,78.371c0.605,0,1.081-0.166,1.427-0.498s0.519-0.797,0.519-1.395v-0.58l-0.973,0.041
		c-0.773,0.027-1.331,0.148-1.673,0.361s-0.513,0.543-0.513,0.992c0,0.352,0.106,0.619,0.319,0.803S256.269,78.371,256.651,78.371z"
		/>
	<path d="M267.168,79.057v-4.154c0-0.523-0.119-0.914-0.357-1.172s-0.611-0.387-1.119-0.387c-0.672,0-1.164,0.182-1.477,0.545
		s-0.469,0.963-0.469,1.799v3.369h-0.973v-6.422h0.791l0.158,0.879h0.047c0.199-0.316,0.479-0.561,0.838-0.734
		s0.76-0.262,1.201-0.262c0.773,0,1.355,0.188,1.746,0.561s0.586,0.969,0.586,1.789v4.189H267.168z"/>
	<path d="M275.71,78.195h-0.053c-0.449,0.652-1.121,0.979-2.016,0.979c-0.84,0-1.493-0.287-1.96-0.861s-0.7-1.391-0.7-2.449
		s0.234-1.881,0.703-2.467s1.121-0.879,1.957-0.879c0.871,0,1.539,0.316,2.004,0.949h0.076l-0.041-0.463l-0.023-0.451v-2.613h0.973
		v9.117h-0.791L275.71,78.195z M273.765,78.359c0.664,0,1.146-0.18,1.444-0.541s0.448-0.945,0.448-1.75v-0.205
		c0-0.91-0.151-1.559-0.454-1.947s-0.786-0.584-1.45-0.584c-0.57,0-1.007,0.223-1.31,0.666s-0.454,1.068-0.454,1.877
		c0,0.82,0.15,1.439,0.451,1.857S273.183,78.359,273.765,78.359z"/>
	<path d="M287.198,79.174c-0.418,0-0.8-0.076-1.146-0.23s-0.636-0.393-0.87-0.713h-0.07c0.047,0.375,0.07,0.73,0.07,1.066v2.643
		h-0.973v-9.305h0.791l0.135,0.879h0.047c0.25-0.352,0.541-0.605,0.873-0.762s0.713-0.234,1.143-0.234
		c0.852,0,1.509,0.291,1.972,0.873s0.694,1.398,0.694,2.449c0,1.055-0.235,1.875-0.706,2.459S288.034,79.174,287.198,79.174z
		 M287.058,73.344c-0.656,0-1.131,0.182-1.424,0.545s-0.443,0.941-0.451,1.734v0.217c0,0.902,0.15,1.549,0.451,1.938
		s0.783,0.582,1.447,0.582c0.555,0,0.989-0.225,1.304-0.674s0.472-1.068,0.472-1.857c0-0.801-0.157-1.414-0.472-1.842
		S287.628,73.344,287.058,73.344z"/>
	<path d="M292.681,70.895c0-0.223,0.055-0.385,0.164-0.488s0.246-0.156,0.41-0.156c0.156,0,0.291,0.053,0.404,0.158
		s0.17,0.268,0.17,0.486s-0.057,0.383-0.17,0.49s-0.248,0.16-0.404,0.16c-0.164,0-0.301-0.053-0.41-0.16
		S292.681,71.113,292.681,70.895z M293.735,79.057h-0.973v-6.422h0.973V79.057z"/>
	<path d="M299.564,79.174c-0.93,0-1.649-0.285-2.159-0.857s-0.765-1.383-0.765-2.43c0-1.074,0.259-1.904,0.776-2.49
		s1.255-0.879,2.212-0.879c0.309,0,0.617,0.033,0.926,0.1s0.551,0.145,0.727,0.234l-0.299,0.826
		c-0.215-0.086-0.449-0.156-0.703-0.213s-0.479-0.086-0.674-0.086c-1.305,0-1.957,0.832-1.957,2.496
		c0,0.789,0.159,1.395,0.478,1.816s0.79,0.633,1.415,0.633c0.535,0,1.084-0.115,1.646-0.346v0.861
		C300.758,79.062,300.217,79.174,299.564,79.174z"/>
	<path d="M304.872,75.77c0.168-0.238,0.424-0.551,0.768-0.938l2.074-2.197h1.154l-2.602,2.736l2.783,3.686h-1.178l-2.268-3.035
		l-0.732,0.633v2.402h-0.961v-9.117h0.961v4.834c0,0.215-0.016,0.547-0.047,0.996H304.872z"/>
	<path d="M314.708,72.635h1.043l1.406,3.662c0.309,0.836,0.5,1.439,0.574,1.811h0.047c0.051-0.199,0.157-0.539,0.319-1.021
		s0.692-1.967,1.591-4.451h1.043l-2.76,7.312c-0.273,0.723-0.593,1.236-0.958,1.539s-0.813,0.453-1.345,0.453
		c-0.297,0-0.59-0.033-0.879-0.1v-0.779c0.215,0.047,0.455,0.07,0.721,0.07c0.668,0,1.145-0.375,1.43-1.125l0.357-0.914
		L314.708,72.635z"/>
	<path d="M328.517,75.84c0,1.047-0.264,1.865-0.791,2.453s-1.256,0.881-2.186,0.881c-0.574,0-1.084-0.135-1.529-0.404
		s-0.789-0.656-1.031-1.16s-0.363-1.094-0.363-1.77c0-1.047,0.262-1.861,0.785-2.445s1.25-0.877,2.18-0.877
		c0.898,0,1.612,0.299,2.142,0.896S328.517,74.82,328.517,75.84z M323.624,75.84c0,0.82,0.164,1.445,0.492,1.875
		s0.811,0.645,1.447,0.645s1.12-0.213,1.45-0.641s0.495-1.055,0.495-1.879c0-0.816-0.165-1.436-0.495-1.859
		s-0.817-0.637-1.462-0.637c-0.637,0-1.117,0.209-1.441,0.627S323.624,75.012,323.624,75.84z"/>
	<path d="M332.336,72.635v4.166c0,0.523,0.119,0.914,0.357,1.172s0.611,0.387,1.119,0.387c0.672,0,1.163-0.184,1.474-0.551
		s0.466-0.967,0.466-1.799v-3.375h0.973v6.422h-0.803l-0.141-0.861h-0.053c-0.199,0.316-0.476,0.559-0.829,0.727
		s-0.757,0.252-1.21,0.252c-0.781,0-1.366-0.186-1.755-0.557s-0.583-0.965-0.583-1.781v-4.201H332.336z"/>
	<path d="M342.917,72.518c0.285,0,0.541,0.023,0.768,0.07l-0.135,0.902c-0.266-0.059-0.5-0.088-0.703-0.088
		c-0.52,0-0.964,0.211-1.333,0.633s-0.554,0.947-0.554,1.576v3.445h-0.973v-6.422h0.803l0.111,1.189h0.047
		c0.238-0.418,0.525-0.74,0.861-0.967S342.515,72.518,342.917,72.518z"/>
	<path d="M351.376,79.057h-0.973v-9.117h0.973V79.057z"/>
	<path d="M360.181,75.84c0,1.047-0.264,1.865-0.791,2.453s-1.256,0.881-2.186,0.881c-0.574,0-1.084-0.135-1.529-0.404
		s-0.789-0.656-1.031-1.16s-0.363-1.094-0.363-1.77c0-1.047,0.262-1.861,0.785-2.445s1.25-0.877,2.18-0.877
		c0.898,0,1.612,0.299,2.142,0.896S360.181,74.82,360.181,75.84z M355.288,75.84c0,0.82,0.164,1.445,0.492,1.875
		s0.811,0.645,1.447,0.645s1.12-0.213,1.45-0.641s0.495-1.055,0.495-1.879c0-0.816-0.165-1.436-0.495-1.859
		s-0.817-0.637-1.462-0.637c-0.637,0-1.117,0.209-1.441,0.627S355.288,75.012,355.288,75.84z"/>
	<path d="M365.652,79.174c-0.93,0-1.649-0.285-2.159-0.857s-0.765-1.383-0.765-2.43c0-1.074,0.259-1.904,0.776-2.49
		s1.255-0.879,2.212-0.879c0.309,0,0.617,0.033,0.926,0.1s0.551,0.145,0.727,0.234l-0.299,0.826
		c-0.215-0.086-0.449-0.156-0.703-0.213s-0.479-0.086-0.674-0.086c-1.305,0-1.957,0.832-1.957,2.496
		c0,0.789,0.159,1.395,0.478,1.816s0.79,0.633,1.415,0.633c0.535,0,1.084-0.115,1.646-0.346v0.861
		C366.846,79.062,366.305,79.174,365.652,79.174z"/>
	<path d="M373.948,79.057l-0.193-0.914h-0.047c-0.32,0.402-0.64,0.676-0.958,0.818s-0.716,0.213-1.192,0.213
		c-0.637,0-1.136-0.164-1.497-0.492s-0.542-0.795-0.542-1.4c0-1.297,1.037-1.977,3.111-2.039l1.09-0.035v-0.398
		c0-0.504-0.108-0.875-0.325-1.115s-0.563-0.361-1.04-0.361c-0.535,0-1.141,0.164-1.816,0.492l-0.299-0.744
		c0.316-0.172,0.663-0.307,1.04-0.404s0.755-0.146,1.134-0.146c0.766,0,1.333,0.17,1.702,0.51s0.554,0.885,0.554,1.635v4.383
		H373.948z M371.751,78.371c0.605,0,1.081-0.166,1.427-0.498s0.519-0.797,0.519-1.395v-0.58l-0.973,0.041
		c-0.773,0.027-1.331,0.148-1.673,0.361s-0.513,0.543-0.513,0.992c0,0.352,0.106,0.619,0.319,0.803S371.368,78.371,371.751,78.371z"
		/>
	<path d="M379.947,78.371c0.172,0,0.338-0.012,0.498-0.037s0.287-0.053,0.381-0.08v0.744c-0.105,0.051-0.261,0.094-0.466,0.127
		s-0.39,0.049-0.554,0.049c-1.242,0-1.863-0.654-1.863-1.963v-3.82h-0.92v-0.469l0.92-0.404l0.41-1.371h0.562v1.488h1.863v0.756
		h-1.863v3.779c0,0.387,0.092,0.684,0.275,0.891S379.627,78.371,379.947,78.371z"/>
	<path d="M383.228,70.895c0-0.223,0.055-0.385,0.164-0.488s0.246-0.156,0.41-0.156c0.156,0,0.291,0.053,0.404,0.158
		s0.17,0.268,0.17,0.486s-0.057,0.383-0.17,0.49s-0.248,0.16-0.404,0.16c-0.164,0-0.301-0.053-0.41-0.16
		S383.228,71.113,383.228,70.895z M384.282,79.057h-0.973v-6.422h0.973V79.057z"/>
	<path d="M393.087,75.84c0,1.047-0.264,1.865-0.791,2.453s-1.256,0.881-2.186,0.881c-0.574,0-1.084-0.135-1.529-0.404
		s-0.789-0.656-1.031-1.16s-0.363-1.094-0.363-1.77c0-1.047,0.262-1.861,0.785-2.445s1.25-0.877,2.18-0.877
		c0.898,0,1.612,0.299,2.142,0.896S393.087,74.82,393.087,75.84z M388.194,75.84c0,0.82,0.164,1.445,0.492,1.875
		s0.811,0.645,1.447,0.645s1.12-0.213,1.45-0.641s0.495-1.055,0.495-1.879c0-0.816-0.165-1.436-0.495-1.859
		s-0.817-0.637-1.462-0.637c-0.637,0-1.117,0.209-1.441,0.627S388.194,75.012,388.194,75.84z"/>
	<path d="M400.387,79.057v-4.154c0-0.523-0.119-0.914-0.357-1.172s-0.611-0.387-1.119-0.387c-0.672,0-1.164,0.182-1.477,0.545
		s-0.469,0.963-0.469,1.799v3.369h-0.973v-6.422h0.791l0.158,0.879h0.047c0.199-0.316,0.479-0.561,0.838-0.734
		s0.76-0.262,1.201-0.262c0.773,0,1.355,0.188,1.746,0.561s0.586,0.969,0.586,1.789v4.189H400.387z"/>
	<path d="M404.417,78.436c0-0.262,0.06-0.459,0.179-0.594s0.29-0.203,0.513-0.203c0.227,0,0.403,0.068,0.53,0.203
		s0.19,0.332,0.19,0.594c0,0.254-0.064,0.449-0.193,0.586s-0.305,0.205-0.527,0.205c-0.199,0-0.364-0.061-0.495-0.184
		S404.417,78.717,404.417,78.436z"/>
</g>
<g>
	<path d="M53.698,190.592c-0.941,0-1.685,0.313-2.229,0.94s-0.817,1.485-0.817,2.575c0,1.121,0.263,1.987,0.788,2.599
		s1.274,0.917,2.247,0.917c0.598,0,1.279-0.107,2.045-0.322v0.873c-0.594,0.223-1.326,0.334-2.197,0.334
		c-1.262,0-2.235-0.383-2.921-1.148s-1.028-1.854-1.028-3.264c0-0.883,0.165-1.656,0.495-2.32s0.807-1.176,1.43-1.535
		s1.356-0.539,2.2-0.539c0.898,0,1.684,0.164,2.355,0.492l-0.422,0.855C54.995,190.744,54.347,190.592,53.698,190.592z"/>
	<path d="M63.049,198.391v-4.154c0-0.523-0.119-0.914-0.357-1.172s-0.611-0.387-1.119-0.387c-0.676,0-1.169,0.184-1.479,0.551
		s-0.466,0.969-0.466,1.805v3.357h-0.973v-9.117h0.973v2.76c0,0.332-0.016,0.607-0.047,0.826h0.059
		c0.191-0.309,0.464-0.552,0.817-0.729s0.757-0.267,1.21-0.267c0.785,0,1.374,0.187,1.767,0.56s0.589,0.966,0.589,1.778v4.189
		H63.049z"/>
	<path d="M72.763,195.174c0,1.047-0.264,1.864-0.791,2.452s-1.256,0.882-2.186,0.882c-0.574,0-1.084-0.135-1.529-0.404
		s-0.789-0.656-1.031-1.16s-0.363-1.094-0.363-1.77c0-1.047,0.262-1.862,0.785-2.446s1.25-0.876,2.18-0.876
		c0.898,0,1.612,0.299,2.142,0.896S72.763,194.154,72.763,195.174z M67.87,195.174c0,0.82,0.164,1.445,0.492,1.875
		s0.811,0.645,1.447,0.645s1.12-0.214,1.45-0.642s0.495-1.054,0.495-1.878c0-0.816-0.165-1.437-0.495-1.86s-0.817-0.636-1.462-0.636
		c-0.637,0-1.117,0.209-1.441,0.627S67.87,194.346,67.87,195.174z"/>
	<path d="M81.21,195.174c0,1.047-0.264,1.864-0.791,2.452s-1.256,0.882-2.186,0.882c-0.574,0-1.084-0.135-1.529-0.404
		s-0.789-0.656-1.031-1.16s-0.363-1.094-0.363-1.77c0-1.047,0.262-1.862,0.785-2.446s1.25-0.876,2.18-0.876
		c0.898,0,1.612,0.299,2.142,0.896S81.21,194.154,81.21,195.174z M76.317,195.174c0,0.82,0.164,1.445,0.492,1.875
		s0.811,0.645,1.447,0.645s1.12-0.214,1.45-0.642s0.495-1.054,0.495-1.878c0-0.816-0.165-1.437-0.495-1.86s-0.817-0.636-1.462-0.636
		c-0.637,0-1.117,0.209-1.441,0.627S76.317,194.346,76.317,195.174z"/>
	<path d="M88.258,196.639c0,0.598-0.223,1.059-0.668,1.383s-1.07,0.486-1.875,0.486c-0.852,0-1.516-0.135-1.992-0.404v-0.902
		c0.309,0.156,0.64,0.279,0.993,0.369s0.694,0.135,1.022,0.135c0.508,0,0.898-0.081,1.172-0.243s0.41-0.409,0.41-0.741
		c0-0.25-0.108-0.464-0.325-0.642s-0.64-0.388-1.269-0.63c-0.598-0.223-1.022-0.417-1.274-0.583s-0.439-0.354-0.562-0.565
		s-0.185-0.463-0.185-0.756c0-0.523,0.213-0.937,0.639-1.239s1.01-0.454,1.752-0.454c0.691,0,1.367,0.141,2.027,0.422l-0.346,0.791
		c-0.645-0.266-1.229-0.398-1.752-0.398c-0.461,0-0.809,0.072-1.043,0.217s-0.352,0.344-0.352,0.598
		c0,0.172,0.044,0.318,0.132,0.439s0.229,0.236,0.425,0.346s0.57,0.268,1.125,0.475c0.762,0.277,1.276,0.557,1.544,0.838
		S88.258,196.213,88.258,196.639z"/>
	<path d="M93.753,198.508c-0.949,0-1.698-0.289-2.247-0.867s-0.823-1.381-0.823-2.408c0-1.035,0.255-1.857,0.765-2.467
		s1.194-0.914,2.054-0.914c0.805,0,1.441,0.265,1.91,0.794s0.703,1.228,0.703,2.095v0.615H91.69c0.02,0.754,0.21,1.326,0.571,1.717
		s0.87,0.586,1.526,0.586c0.691,0,1.375-0.145,2.051-0.434v0.867c-0.344,0.148-0.669,0.255-0.976,0.319
		S94.187,198.508,93.753,198.508z M93.489,192.666c-0.516,0-0.927,0.168-1.233,0.504s-0.487,0.801-0.542,1.395h3.357
		c0-0.613-0.137-1.083-0.41-1.409S93.997,192.666,93.489,192.666z"/>
	<path d="M104.263,198.391h-0.973v-9.117h0.973V198.391z"/>
	<path d="M113.067,195.174c0,1.047-0.264,1.864-0.791,2.452s-1.256,0.882-2.186,0.882c-0.574,0-1.084-0.135-1.529-0.404
		s-0.789-0.656-1.031-1.16s-0.363-1.094-0.363-1.77c0-1.047,0.262-1.862,0.785-2.446s1.25-0.876,2.18-0.876
		c0.898,0,1.612,0.299,2.142,0.896S113.067,194.154,113.067,195.174z M108.175,195.174c0,0.82,0.164,1.445,0.492,1.875
		s0.811,0.645,1.447,0.645s1.12-0.214,1.45-0.642s0.495-1.054,0.495-1.878c0-0.816-0.165-1.437-0.495-1.86s-0.817-0.636-1.462-0.636
		c-0.637,0-1.117,0.209-1.441,0.627S108.175,194.346,108.175,195.174z"/>
	<path d="M118.539,198.508c-0.93,0-1.649-0.286-2.159-0.858s-0.765-1.382-0.765-2.429c0-1.074,0.259-1.904,0.776-2.49
		s1.255-0.879,2.212-0.879c0.309,0,0.617,0.033,0.926,0.1s0.551,0.145,0.727,0.234l-0.299,0.826
		c-0.215-0.086-0.449-0.157-0.703-0.214s-0.479-0.085-0.674-0.085c-1.305,0-1.957,0.832-1.957,2.496
		c0,0.789,0.159,1.395,0.478,1.816s0.79,0.633,1.415,0.633c0.535,0,1.084-0.115,1.646-0.346v0.861
		C119.732,198.396,119.191,198.508,118.539,198.508z"/>
	<path d="M126.835,198.391l-0.193-0.914h-0.047c-0.32,0.402-0.64,0.675-0.958,0.817s-0.716,0.214-1.192,0.214
		c-0.637,0-1.136-0.164-1.497-0.492s-0.542-0.795-0.542-1.4c0-1.297,1.037-1.977,3.111-2.039l1.09-0.035v-0.398
		c0-0.504-0.108-0.876-0.325-1.116s-0.563-0.36-1.04-0.36c-0.535,0-1.141,0.164-1.816,0.492l-0.299-0.744
		c0.316-0.172,0.663-0.307,1.04-0.404s0.755-0.146,1.134-0.146c0.766,0,1.333,0.17,1.702,0.51s0.554,0.885,0.554,1.635v4.383
		H126.835z M124.638,197.705c0.605,0,1.081-0.166,1.427-0.498s0.519-0.797,0.519-1.395v-0.58l-0.973,0.041
		c-0.773,0.027-1.331,0.147-1.673,0.36s-0.513,0.544-0.513,0.993c0,0.352,0.106,0.619,0.319,0.803S124.255,197.705,124.638,197.705z
		"/>
	<path d="M132.834,197.705c0.172,0,0.338-0.013,0.498-0.038s0.287-0.052,0.381-0.079v0.744c-0.105,0.051-0.261,0.093-0.466,0.126
		s-0.39,0.05-0.554,0.05c-1.242,0-1.863-0.654-1.863-1.963v-3.82h-0.92v-0.469l0.92-0.404l0.41-1.371h0.562v1.488h1.863v0.756
		h-1.863v3.779c0,0.387,0.092,0.684,0.275,0.891S132.514,197.705,132.834,197.705z"/>
	<path d="M136.114,190.229c0-0.223,0.055-0.386,0.164-0.489s0.246-0.155,0.41-0.155c0.156,0,0.291,0.053,0.404,0.158
		s0.17,0.268,0.17,0.486s-0.057,0.382-0.17,0.489s-0.248,0.161-0.404,0.161c-0.164,0-0.301-0.054-0.41-0.161
		S136.114,190.447,136.114,190.229z M137.169,198.391h-0.973v-6.422h0.973V198.391z"/>
	<path d="M145.974,195.174c0,1.047-0.264,1.864-0.791,2.452s-1.256,0.882-2.186,0.882c-0.574,0-1.084-0.135-1.529-0.404
		s-0.789-0.656-1.031-1.16s-0.363-1.094-0.363-1.77c0-1.047,0.262-1.862,0.785-2.446s1.25-0.876,2.18-0.876
		c0.898,0,1.612,0.299,2.142,0.896S145.974,194.154,145.974,195.174z M141.081,195.174c0,0.82,0.164,1.445,0.492,1.875
		s0.811,0.645,1.447,0.645s1.12-0.214,1.45-0.642s0.495-1.054,0.495-1.878c0-0.816-0.165-1.437-0.495-1.86s-0.817-0.636-1.462-0.636
		c-0.637,0-1.117,0.209-1.441,0.627S141.081,194.346,141.081,195.174z"/>
	<path d="M153.273,198.391v-4.154c0-0.523-0.119-0.914-0.357-1.172s-0.611-0.387-1.119-0.387c-0.672,0-1.164,0.182-1.477,0.545
		s-0.469,0.963-0.469,1.799v3.369h-0.973v-6.422h0.791l0.158,0.879h0.047c0.199-0.316,0.479-0.562,0.838-0.735
		s0.76-0.261,1.201-0.261c0.773,0,1.355,0.187,1.746,0.56s0.586,0.97,0.586,1.79v4.189H153.273z"/>
	<path d="M165.711,198.391l-0.193-0.914h-0.047c-0.32,0.402-0.64,0.675-0.958,0.817s-0.716,0.214-1.192,0.214
		c-0.637,0-1.136-0.164-1.497-0.492s-0.542-0.795-0.542-1.4c0-1.297,1.037-1.977,3.111-2.039l1.09-0.035v-0.398
		c0-0.504-0.108-0.876-0.325-1.116s-0.563-0.36-1.04-0.36c-0.535,0-1.141,0.164-1.816,0.492l-0.299-0.744
		c0.316-0.172,0.663-0.307,1.04-0.404s0.755-0.146,1.134-0.146c0.766,0,1.333,0.17,1.702,0.51s0.554,0.885,0.554,1.635v4.383
		H165.711z M163.514,197.705c0.605,0,1.081-0.166,1.427-0.498s0.519-0.797,0.519-1.395v-0.58l-0.973,0.041
		c-0.773,0.027-1.331,0.147-1.673,0.36s-0.513,0.544-0.513,0.993c0,0.352,0.106,0.619,0.319,0.803S163.131,197.705,163.514,197.705z
		"/>
	<path d="M174.03,198.391v-4.154c0-0.523-0.119-0.914-0.357-1.172s-0.611-0.387-1.119-0.387c-0.672,0-1.164,0.182-1.477,0.545
		s-0.469,0.963-0.469,1.799v3.369h-0.973v-6.422h0.791l0.158,0.879h0.047c0.199-0.316,0.479-0.562,0.838-0.735
		s0.76-0.261,1.201-0.261c0.773,0,1.355,0.187,1.746,0.56s0.586,0.97,0.586,1.79v4.189H174.03z"/>
	<path d="M182.571,197.529h-0.053c-0.449,0.652-1.121,0.979-2.016,0.979c-0.84,0-1.493-0.287-1.96-0.861s-0.7-1.391-0.7-2.449
		s0.234-1.881,0.703-2.467s1.121-0.879,1.957-0.879c0.871,0,1.539,0.316,2.004,0.949h0.076l-0.041-0.463l-0.023-0.451v-2.613h0.973
		v9.117H182.7L182.571,197.529z M180.626,197.693c0.664,0,1.146-0.181,1.444-0.542s0.448-0.944,0.448-1.749v-0.205
		c0-0.91-0.151-1.56-0.454-1.948s-0.786-0.583-1.45-0.583c-0.57,0-1.007,0.222-1.31,0.665s-0.454,1.069-0.454,1.878
		c0,0.82,0.15,1.439,0.451,1.857S180.044,197.693,180.626,197.693z"/>
	<path d="M196.614,195.174c0,1.047-0.264,1.864-0.791,2.452s-1.256,0.882-2.186,0.882c-0.574,0-1.084-0.135-1.529-0.404
		s-0.789-0.656-1.031-1.16s-0.363-1.094-0.363-1.77c0-1.047,0.262-1.862,0.785-2.446s1.25-0.876,2.18-0.876
		c0.898,0,1.612,0.299,2.142,0.896S196.614,194.154,196.614,195.174z M191.722,195.174c0,0.82,0.164,1.445,0.492,1.875
		s0.811,0.645,1.447,0.645s1.12-0.214,1.45-0.642s0.495-1.054,0.495-1.878c0-0.816-0.165-1.437-0.495-1.86s-0.817-0.636-1.462-0.636
		c-0.637,0-1.117,0.209-1.441,0.627S191.722,194.346,191.722,195.174z"/>
	<path d="M202.449,191.852c0.285,0,0.541,0.023,0.768,0.07l-0.135,0.902c-0.266-0.059-0.5-0.088-0.703-0.088
		c-0.52,0-0.964,0.211-1.333,0.633s-0.554,0.947-0.554,1.576v3.445h-0.973v-6.422h0.803l0.111,1.189h0.047
		c0.238-0.418,0.525-0.74,0.861-0.967S202.047,191.852,202.449,191.852z"/>
	<path d="M209.989,197.529h-0.053c-0.449,0.652-1.121,0.979-2.016,0.979c-0.84,0-1.493-0.287-1.96-0.861s-0.7-1.391-0.7-2.449
		s0.234-1.881,0.703-2.467s1.121-0.879,1.957-0.879c0.871,0,1.539,0.316,2.004,0.949h0.076l-0.041-0.463l-0.023-0.451v-2.613h0.973
		v9.117h-0.791L209.989,197.529z M208.044,197.693c0.664,0,1.146-0.181,1.444-0.542s0.448-0.944,0.448-1.749v-0.205
		c0-0.91-0.151-1.56-0.454-1.948s-0.786-0.583-1.45-0.583c-0.57,0-1.007,0.222-1.31,0.665s-0.454,1.069-0.454,1.878
		c0,0.82,0.15,1.439,0.451,1.857S207.462,197.693,208.044,197.693z"/>
	<path d="M216.884,198.508c-0.949,0-1.698-0.289-2.247-0.867s-0.823-1.381-0.823-2.408c0-1.035,0.255-1.857,0.765-2.467
		s1.194-0.914,2.054-0.914c0.805,0,1.441,0.265,1.91,0.794s0.703,1.228,0.703,2.095v0.615h-4.424c0.02,0.754,0.21,1.326,0.571,1.717
		s0.87,0.586,1.526,0.586c0.691,0,1.375-0.145,2.051-0.434v0.867c-0.344,0.148-0.669,0.255-0.976,0.319
		S217.317,198.508,216.884,198.508z M216.62,192.666c-0.516,0-0.927,0.168-1.233,0.504s-0.487,0.801-0.542,1.395h3.357
		c0-0.613-0.137-1.083-0.41-1.409S217.128,192.666,216.62,192.666z"/>
	<path d="M225.033,191.852c0.285,0,0.541,0.023,0.768,0.07l-0.135,0.902c-0.266-0.059-0.5-0.088-0.703-0.088
		c-0.52,0-0.964,0.211-1.333,0.633s-0.554,0.947-0.554,1.576v3.445h-0.973v-6.422h0.803l0.111,1.189h0.047
		c0.238-0.418,0.525-0.74,0.861-0.967S224.631,191.852,225.033,191.852z"/>
	<path d="M233.926,198.391l-2.438-6.422h1.043l1.383,3.809c0.312,0.891,0.496,1.469,0.551,1.734h0.047
		c0.043-0.207,0.179-0.636,0.407-1.286s0.741-2.069,1.538-4.257h1.043l-2.438,6.422H233.926z"/>
	<path d="M239.649,190.229c0-0.223,0.055-0.386,0.164-0.489s0.246-0.155,0.41-0.155c0.156,0,0.291,0.053,0.404,0.158
		s0.17,0.268,0.17,0.486s-0.057,0.382-0.17,0.489s-0.248,0.161-0.404,0.161c-0.164,0-0.301-0.054-0.41-0.161
		S239.649,190.447,239.649,190.229z M240.704,198.391h-0.973v-6.422h0.973V198.391z"/>
	<path d="M247.915,198.391l-0.193-0.914h-0.047c-0.32,0.402-0.64,0.675-0.958,0.817s-0.716,0.214-1.192,0.214
		c-0.637,0-1.136-0.164-1.497-0.492s-0.542-0.795-0.542-1.4c0-1.297,1.037-1.977,3.111-2.039l1.09-0.035v-0.398
		c0-0.504-0.108-0.876-0.325-1.116s-0.563-0.36-1.04-0.36c-0.535,0-1.141,0.164-1.816,0.492l-0.299-0.744
		c0.316-0.172,0.663-0.307,1.04-0.404s0.755-0.146,1.134-0.146c0.766,0,1.333,0.17,1.702,0.51s0.554,0.885,0.554,1.635v4.383
		H247.915z M245.718,197.705c0.605,0,1.081-0.166,1.427-0.498s0.519-0.797,0.519-1.395v-0.58l-0.973,0.041
		c-0.773,0.027-1.331,0.147-1.673,0.36s-0.513,0.544-0.513,0.993c0,0.352,0.106,0.619,0.319,0.803S245.335,197.705,245.718,197.705z
		"/>
	<path d="M259.146,198.508c-0.418,0-0.8-0.077-1.146-0.231s-0.636-0.392-0.87-0.712h-0.07c0.047,0.375,0.07,0.73,0.07,1.066v2.643
		h-0.973v-9.305h0.791l0.135,0.879h0.047c0.25-0.352,0.541-0.605,0.873-0.762s0.713-0.234,1.143-0.234
		c0.852,0,1.509,0.291,1.972,0.873s0.694,1.398,0.694,2.449c0,1.055-0.235,1.874-0.706,2.458S259.981,198.508,259.146,198.508z
		 M259.005,192.678c-0.656,0-1.131,0.182-1.424,0.545s-0.443,0.941-0.451,1.734v0.217c0,0.902,0.15,1.548,0.451,1.937
		s0.783,0.583,1.447,0.583c0.555,0,0.989-0.225,1.304-0.674s0.472-1.068,0.472-1.857c0-0.801-0.157-1.415-0.472-1.843
		S259.575,192.678,259.005,192.678z"/>
	<path d="M269.105,198.391v-4.154c0-0.523-0.119-0.914-0.357-1.172s-0.611-0.387-1.119-0.387c-0.676,0-1.169,0.184-1.479,0.551
		s-0.466,0.969-0.466,1.805v3.357h-0.973v-9.117h0.973v2.76c0,0.332-0.016,0.607-0.047,0.826h0.059
		c0.191-0.309,0.464-0.552,0.817-0.729s0.757-0.267,1.21-0.267c0.785,0,1.374,0.187,1.767,0.56s0.589,0.966,0.589,1.778v4.189
		H269.105z"/>
	<path d="M278.819,195.174c0,1.047-0.264,1.864-0.791,2.452s-1.256,0.882-2.186,0.882c-0.574,0-1.084-0.135-1.529-0.404
		s-0.789-0.656-1.031-1.16s-0.363-1.094-0.363-1.77c0-1.047,0.262-1.862,0.785-2.446s1.25-0.876,2.18-0.876
		c0.898,0,1.612,0.299,2.142,0.896S278.819,194.154,278.819,195.174z M273.927,195.174c0,0.82,0.164,1.445,0.492,1.875
		s0.811,0.645,1.447,0.645s1.12-0.214,1.45-0.642s0.495-1.054,0.495-1.878c0-0.816-0.165-1.437-0.495-1.86s-0.817-0.636-1.462-0.636
		c-0.637,0-1.117,0.209-1.441,0.627S273.927,194.346,273.927,195.174z"/>
	<path d="M286.118,198.391v-4.154c0-0.523-0.119-0.914-0.357-1.172s-0.611-0.387-1.119-0.387c-0.672,0-1.164,0.182-1.477,0.545
		s-0.469,0.963-0.469,1.799v3.369h-0.973v-6.422h0.791l0.158,0.879h0.047c0.199-0.316,0.479-0.562,0.838-0.735
		s0.76-0.261,1.201-0.261c0.773,0,1.355,0.187,1.746,0.56s0.586,0.97,0.586,1.79v4.189H286.118z"/>
	<path d="M293.002,198.508c-0.949,0-1.698-0.289-2.247-0.867s-0.823-1.381-0.823-2.408c0-1.035,0.255-1.857,0.765-2.467
		s1.194-0.914,2.054-0.914c0.805,0,1.441,0.265,1.91,0.794s0.703,1.228,0.703,2.095v0.615h-4.424c0.02,0.754,0.21,1.326,0.571,1.717
		s0.87,0.586,1.526,0.586c0.691,0,1.375-0.145,2.051-0.434v0.867c-0.344,0.148-0.669,0.255-0.976,0.319
		S293.436,198.508,293.002,198.508z M292.738,192.666c-0.516,0-0.927,0.168-1.233,0.504s-0.487,0.801-0.542,1.395h3.357
		c0-0.613-0.137-1.083-0.41-1.409S293.246,192.666,292.738,192.666z"/>
	<path d="M305.105,198.508c-0.93,0-1.649-0.286-2.159-0.858s-0.765-1.382-0.765-2.429c0-1.074,0.259-1.904,0.776-2.49
		s1.255-0.879,2.212-0.879c0.309,0,0.617,0.033,0.926,0.1s0.551,0.145,0.727,0.234l-0.299,0.826
		c-0.215-0.086-0.449-0.157-0.703-0.214s-0.479-0.085-0.674-0.085c-1.305,0-1.957,0.832-1.957,2.496
		c0,0.789,0.159,1.395,0.478,1.816s0.79,0.633,1.415,0.633c0.535,0,1.084-0.115,1.646-0.346v0.861
		C306.299,198.396,305.758,198.508,305.105,198.508z"/>
	<path d="M313.401,198.391l-0.193-0.914h-0.047c-0.32,0.402-0.64,0.675-0.958,0.817s-0.716,0.214-1.192,0.214
		c-0.637,0-1.136-0.164-1.497-0.492s-0.542-0.795-0.542-1.4c0-1.297,1.037-1.977,3.111-2.039l1.09-0.035v-0.398
		c0-0.504-0.108-0.876-0.325-1.116s-0.563-0.36-1.04-0.36c-0.535,0-1.141,0.164-1.816,0.492l-0.299-0.744
		c0.316-0.172,0.663-0.307,1.04-0.404s0.755-0.146,1.134-0.146c0.766,0,1.333,0.17,1.702,0.51s0.554,0.885,0.554,1.635v4.383
		H313.401z M311.204,197.705c0.605,0,1.081-0.166,1.427-0.498s0.519-0.797,0.519-1.395v-0.58l-0.973,0.041
		c-0.773,0.027-1.331,0.147-1.673,0.36s-0.513,0.544-0.513,0.993c0,0.352,0.106,0.619,0.319,0.803S310.821,197.705,311.204,197.705z
		"/>
	<path d="M318.298,198.391h-0.973v-9.117h0.973V198.391z"/>
	<path d="M322.533,198.391h-0.973v-9.117h0.973V198.391z"/>
	<path d="M325.655,197.77c0-0.262,0.06-0.46,0.179-0.595s0.29-0.202,0.513-0.202c0.227,0,0.403,0.067,0.53,0.202
		s0.19,0.333,0.19,0.595c0,0.254-0.064,0.449-0.193,0.586s-0.305,0.205-0.527,0.205c-0.199,0-0.364-0.062-0.495-0.185
		S325.655,198.051,325.655,197.77z"/>
	<path d="M340.038,198.391l-1.066-2.725h-3.434l-1.055,2.725h-1.008l3.387-8.602h0.838l3.369,8.602H340.038z M338.661,194.77
		l-0.996-2.654c-0.129-0.336-0.262-0.748-0.398-1.236c-0.086,0.375-0.209,0.787-0.369,1.236l-1.008,2.654H338.661z"/>
	<path d="M346.229,191.852c0.285,0,0.541,0.023,0.768,0.07l-0.135,0.902c-0.266-0.059-0.5-0.088-0.703-0.088
		c-0.52,0-0.964,0.211-1.333,0.633s-0.554,0.947-0.554,1.576v3.445H343.3v-6.422h0.803l0.111,1.189h0.047
		c0.238-0.418,0.525-0.74,0.861-0.967S345.827,191.852,346.229,191.852z"/>
	<path d="M352.328,191.852c0.285,0,0.541,0.023,0.768,0.07l-0.135,0.902c-0.266-0.059-0.5-0.088-0.703-0.088
		c-0.52,0-0.964,0.211-1.333,0.633s-0.554,0.947-0.554,1.576v3.445h-0.973v-6.422h0.803l0.111,1.189h0.047
		c0.238-0.418,0.525-0.74,0.861-0.967S351.926,191.852,352.328,191.852z"/>
	<path d="M359.446,198.391l-0.193-0.914h-0.047c-0.32,0.402-0.64,0.675-0.958,0.817s-0.716,0.214-1.192,0.214
		c-0.637,0-1.136-0.164-1.497-0.492s-0.542-0.795-0.542-1.4c0-1.297,1.037-1.977,3.111-2.039l1.09-0.035v-0.398
		c0-0.504-0.108-0.876-0.325-1.116s-0.563-0.36-1.04-0.36c-0.535,0-1.141,0.164-1.816,0.492l-0.299-0.744
		c0.316-0.172,0.663-0.307,1.04-0.404s0.755-0.146,1.134-0.146c0.766,0,1.333,0.17,1.702,0.51s0.554,0.885,0.554,1.635v4.383
		H359.446z M357.249,197.705c0.605,0,1.081-0.166,1.427-0.498s0.519-0.797,0.519-1.395v-0.58l-0.973,0.041
		c-0.773,0.027-1.331,0.147-1.673,0.36s-0.513,0.544-0.513,0.993c0,0.352,0.106,0.619,0.319,0.803S356.866,197.705,357.249,197.705z
		"/>
	<path d="M367.766,198.391v-4.154c0-0.523-0.119-0.914-0.357-1.172s-0.611-0.387-1.119-0.387c-0.672,0-1.164,0.182-1.477,0.545
		s-0.469,0.963-0.469,1.799v3.369h-0.973v-6.422h0.791l0.158,0.879h0.047c0.199-0.316,0.479-0.562,0.838-0.735
		s0.76-0.261,1.201-0.261c0.773,0,1.355,0.187,1.746,0.56s0.586,0.97,0.586,1.79v4.189H367.766z"/>
	<path d="M377.192,191.969v0.615l-1.189,0.141c0.109,0.137,0.207,0.315,0.293,0.536s0.129,0.47,0.129,0.747
		c0,0.629-0.215,1.131-0.645,1.506s-1.02,0.562-1.77,0.562c-0.191,0-0.371-0.016-0.539-0.047c-0.414,0.219-0.621,0.494-0.621,0.826
		c0,0.176,0.072,0.306,0.217,0.39s0.393,0.126,0.744,0.126h1.137c0.695,0,1.229,0.146,1.603,0.439s0.56,0.719,0.56,1.277
		c0,0.711-0.285,1.253-0.855,1.626s-1.402,0.56-2.496,0.56c-0.84,0-1.487-0.156-1.942-0.469s-0.683-0.754-0.683-1.324
		c0-0.391,0.125-0.729,0.375-1.014s0.602-0.479,1.055-0.58c-0.164-0.074-0.302-0.189-0.413-0.346s-0.167-0.338-0.167-0.545
		c0-0.234,0.062-0.439,0.188-0.615s0.322-0.346,0.592-0.51c-0.332-0.137-0.603-0.369-0.812-0.697s-0.313-0.703-0.313-1.125
		c0-0.703,0.211-1.245,0.633-1.626s1.02-0.571,1.793-0.571c0.336,0,0.639,0.039,0.908,0.117H377.192z M372.071,199.469
		c0,0.348,0.146,0.611,0.439,0.791s0.713,0.27,1.26,0.27c0.816,0,1.421-0.122,1.813-0.366s0.589-0.575,0.589-0.993
		c0-0.348-0.107-0.589-0.322-0.724s-0.619-0.202-1.213-0.202h-1.166c-0.441,0-0.785,0.105-1.031,0.316
		S372.071,199.074,372.071,199.469z M372.599,194.025c0,0.449,0.127,0.789,0.381,1.02s0.607,0.346,1.061,0.346
		c0.949,0,1.424-0.461,1.424-1.383c0-0.965-0.48-1.447-1.441-1.447c-0.457,0-0.809,0.123-1.055,0.369
		S372.599,193.541,372.599,194.025z"/>
	<path d="M382.423,198.508c-0.949,0-1.698-0.289-2.247-0.867s-0.823-1.381-0.823-2.408c0-1.035,0.255-1.857,0.765-2.467
		s1.194-0.914,2.054-0.914c0.805,0,1.441,0.265,1.91,0.794s0.703,1.228,0.703,2.095v0.615h-4.424c0.02,0.754,0.21,1.326,0.571,1.717
		s0.87,0.586,1.526,0.586c0.691,0,1.375-0.145,2.051-0.434v0.867c-0.344,0.148-0.669,0.255-0.976,0.319
		S382.856,198.508,382.423,198.508z M382.159,192.666c-0.516,0-0.927,0.168-1.233,0.504s-0.487,0.801-0.542,1.395h3.357
		c0-0.613-0.137-1.083-0.41-1.409S382.667,192.666,382.159,192.666z"/>
	<path d="M395.909,198.391l-0.193-0.914h-0.047c-0.32,0.402-0.64,0.675-0.958,0.817s-0.716,0.214-1.192,0.214
		c-0.637,0-1.136-0.164-1.497-0.492s-0.542-0.795-0.542-1.4c0-1.297,1.037-1.977,3.111-2.039l1.09-0.035v-0.398
		c0-0.504-0.108-0.876-0.325-1.116s-0.563-0.36-1.04-0.36c-0.535,0-1.141,0.164-1.816,0.492l-0.299-0.744
		c0.316-0.172,0.663-0.307,1.04-0.404s0.755-0.146,1.134-0.146c0.766,0,1.333,0.17,1.702,0.51s0.554,0.885,0.554,1.635v4.383
		H395.909z M393.712,197.705c0.605,0,1.081-0.166,1.427-0.498s0.519-0.797,0.519-1.395v-0.58l-0.973,0.041
		c-0.773,0.027-1.331,0.147-1.673,0.36s-0.513,0.544-0.513,0.993c0,0.352,0.106,0.619,0.319,0.803S393.329,197.705,393.712,197.705z
		"/>
	<path d="M407.14,198.508c-0.418,0-0.8-0.077-1.146-0.231s-0.636-0.392-0.87-0.712h-0.07c0.047,0.375,0.07,0.73,0.07,1.066v2.643
		h-0.973v-9.305h0.791l0.135,0.879h0.047c0.25-0.352,0.541-0.605,0.873-0.762s0.713-0.234,1.143-0.234
		c0.852,0,1.509,0.291,1.972,0.873s0.694,1.398,0.694,2.449c0,1.055-0.235,1.874-0.706,2.458S407.976,198.508,407.14,198.508z
		 M406.999,192.678c-0.656,0-1.131,0.182-1.424,0.545s-0.443,0.941-0.451,1.734v0.217c0,0.902,0.15,1.548,0.451,1.937
		s0.783,0.583,1.447,0.583c0.555,0,0.989-0.225,1.304-0.674s0.472-1.068,0.472-1.857c0-0.801-0.157-1.415-0.472-1.843
		S407.569,192.678,406.999,192.678z"/>
	<path d="M412.622,190.229c0-0.223,0.055-0.386,0.164-0.489s0.246-0.155,0.41-0.155c0.156,0,0.291,0.053,0.404,0.158
		s0.17,0.268,0.17,0.486s-0.057,0.382-0.17,0.489s-0.248,0.161-0.404,0.161c-0.164,0-0.301-0.054-0.41-0.161
		S412.622,190.447,412.622,190.229z M413.677,198.391h-0.973v-6.422h0.973V198.391z"/>
	<path d="M419.506,198.508c-0.93,0-1.649-0.286-2.159-0.858s-0.765-1.382-0.765-2.429c0-1.074,0.259-1.904,0.776-2.49
		s1.255-0.879,2.212-0.879c0.309,0,0.617,0.033,0.926,0.1s0.551,0.145,0.727,0.234l-0.299,0.826
		c-0.215-0.086-0.449-0.157-0.703-0.214s-0.479-0.085-0.674-0.085c-1.305,0-1.957,0.832-1.957,2.496
		c0,0.789,0.159,1.395,0.478,1.816s0.79,0.633,1.415,0.633c0.535,0,1.084-0.115,1.646-0.346v0.861
		C420.699,198.396,420.158,198.508,419.506,198.508z"/>
	<path d="M424.813,195.104c0.168-0.238,0.424-0.551,0.768-0.938l2.074-2.197h1.154l-2.602,2.736l2.783,3.686h-1.178l-2.268-3.035
		l-0.732,0.633v2.402h-0.961v-9.117h0.961v4.834c0,0.215-0.016,0.547-0.047,0.996H424.813z"/>
	<path d="M436.583,191.969v4.166c0,0.523,0.119,0.914,0.357,1.172s0.611,0.387,1.119,0.387c0.672,0,1.163-0.184,1.474-0.551
		s0.466-0.967,0.466-1.799v-3.375h0.973v6.422h-0.803l-0.141-0.861h-0.053c-0.199,0.316-0.476,0.559-0.829,0.727
		s-0.757,0.252-1.21,0.252c-0.781,0-1.366-0.186-1.755-0.557s-0.583-0.965-0.583-1.781v-4.201H436.583z"/>
	<path d="M447.222,198.508c-0.418,0-0.8-0.077-1.146-0.231s-0.636-0.392-0.87-0.712h-0.07c0.047,0.375,0.07,0.73,0.07,1.066v2.643
		h-0.973v-9.305h0.791l0.135,0.879h0.047c0.25-0.352,0.541-0.605,0.873-0.762s0.713-0.234,1.143-0.234
		c0.852,0,1.509,0.291,1.972,0.873s0.694,1.398,0.694,2.449c0,1.055-0.235,1.874-0.706,2.458S448.058,198.508,447.222,198.508z
		 M447.081,192.678c-0.656,0-1.131,0.182-1.424,0.545s-0.443,0.941-0.451,1.734v0.217c0,0.902,0.15,1.548,0.451,1.937
		s0.783,0.583,1.447,0.583c0.555,0,0.989-0.225,1.304-0.674s0.472-1.068,0.472-1.857c0-0.801-0.157-1.415-0.472-1.843
		S447.651,192.678,447.081,192.678z"/>
	<path d="M459.179,197.705c0.172,0,0.338-0.013,0.498-0.038s0.287-0.052,0.381-0.079v0.744c-0.105,0.051-0.261,0.093-0.466,0.126
		s-0.39,0.05-0.554,0.05c-1.242,0-1.863-0.654-1.863-1.963v-3.82h-0.92v-0.469l0.92-0.404l0.41-1.371h0.562v1.488h1.863v0.756
		h-1.863v3.779c0,0.387,0.092,0.684,0.275,0.891S458.858,197.705,459.179,197.705z"/>
	<path d="M462.459,190.229c0-0.223,0.055-0.386,0.164-0.489s0.246-0.155,0.41-0.155c0.156,0,0.291,0.053,0.404,0.158
		s0.17,0.268,0.17,0.486s-0.057,0.382-0.17,0.489s-0.248,0.161-0.404,0.161c-0.164,0-0.301-0.054-0.41-0.161
		S462.459,190.447,462.459,190.229z M463.514,198.391h-0.973v-6.422h0.973V198.391z"/>
	<path d="M474.962,198.391v-4.178c0-0.512-0.109-0.896-0.328-1.151s-0.559-0.384-1.02-0.384c-0.605,0-1.053,0.174-1.342,0.521
		s-0.434,0.883-0.434,1.605v3.586h-0.973v-4.178c0-0.512-0.109-0.896-0.328-1.151s-0.561-0.384-1.025-0.384
		c-0.609,0-1.056,0.183-1.339,0.548s-0.425,0.964-0.425,1.796v3.369h-0.973v-6.422h0.791l0.158,0.879h0.047
		c0.184-0.312,0.442-0.557,0.776-0.732s0.708-0.264,1.122-0.264c1.004,0,1.66,0.363,1.969,1.09h0.047
		c0.191-0.336,0.469-0.602,0.832-0.797s0.777-0.293,1.242-0.293c0.727,0,1.271,0.187,1.632,0.56s0.542,0.97,0.542,1.79v4.189
		H474.962z"/>
	<path d="M481.851,198.508c-0.949,0-1.698-0.289-2.247-0.867s-0.823-1.381-0.823-2.408c0-1.035,0.255-1.857,0.765-2.467
		s1.194-0.914,2.054-0.914c0.805,0,1.441,0.265,1.91,0.794s0.703,1.228,0.703,2.095v0.615h-4.424c0.02,0.754,0.21,1.326,0.571,1.717
		s0.87,0.586,1.526,0.586c0.691,0,1.375-0.145,2.051-0.434v0.867c-0.344,0.148-0.669,0.255-0.976,0.319
		S482.284,198.508,481.851,198.508z M481.587,192.666c-0.516,0-0.927,0.168-1.233,0.504s-0.487,0.801-0.542,1.395h3.357
		c0-0.613-0.137-1.083-0.41-1.409S482.095,192.666,481.587,192.666z"/>
	<path d="M486.93,197.77c0-0.262,0.06-0.46,0.179-0.595s0.29-0.202,0.513-0.202c0.227,0,0.403,0.067,0.53,0.202
		s0.19,0.333,0.19,0.595c0,0.254-0.064,0.449-0.193,0.586s-0.305,0.205-0.527,0.205c-0.199,0-0.364-0.062-0.495-0.185
		S486.93,198.051,486.93,197.77z"/>
</g>
<g>
	<path d="M53.798,316.568h2.912v4.166c-0.453,0.145-0.914,0.254-1.383,0.328s-1.012,0.111-1.629,0.111
		c-1.297,0-2.307-0.385-3.029-1.156s-1.084-1.854-1.084-3.244c0-0.891,0.179-1.67,0.536-2.34s0.872-1.182,1.544-1.535
		s1.459-0.531,2.361-0.531c0.914,0,1.766,0.168,2.555,0.504l-0.387,0.879c-0.773-0.328-1.518-0.492-2.232-0.492
		c-1.043,0-1.857,0.311-2.443,0.932s-0.879,1.482-0.879,2.584c0,1.156,0.282,2.033,0.847,2.631s1.394,0.896,2.487,0.896
		c0.594,0,1.174-0.068,1.74-0.205v-2.637h-1.916V316.568z"/>
	<path d="M65.363,317.84c0,1.047-0.264,1.865-0.791,2.453s-1.256,0.881-2.186,0.881c-0.574,0-1.084-0.135-1.529-0.404
		s-0.789-0.656-1.031-1.16s-0.363-1.094-0.363-1.77c0-1.047,0.262-1.861,0.785-2.445s1.25-0.877,2.18-0.877
		c0.898,0,1.612,0.299,2.142,0.896S65.363,316.82,65.363,317.84z M60.471,317.84c0,0.82,0.164,1.445,0.492,1.875
		s0.811,0.645,1.447,0.645s1.12-0.213,1.45-0.641s0.495-1.055,0.495-1.879c0-0.816-0.165-1.436-0.495-1.859
		s-0.817-0.637-1.462-0.637c-0.637,0-1.117,0.209-1.441,0.627S60.471,317.012,60.471,317.84z"/>
	<path d="M74.659,320.371c0.172,0,0.338-0.012,0.498-0.037s0.287-0.053,0.381-0.08v0.744c-0.105,0.051-0.261,0.094-0.466,0.127
		s-0.39,0.049-0.554,0.049c-1.242,0-1.863-0.654-1.863-1.963v-3.82h-0.92v-0.469l0.92-0.404l0.41-1.371h0.562v1.488h1.863v0.756
		h-1.863v3.779c0,0.387,0.092,0.684,0.275,0.891S74.339,320.371,74.659,320.371z"/>
	<path d="M83.564,317.84c0,1.047-0.264,1.865-0.791,2.453s-1.256,0.881-2.186,0.881c-0.574,0-1.084-0.135-1.529-0.404
		s-0.789-0.656-1.031-1.16s-0.363-1.094-0.363-1.77c0-1.047,0.262-1.861,0.785-2.445s1.25-0.877,2.18-0.877
		c0.898,0,1.612,0.299,2.142,0.896S83.564,316.82,83.564,317.84z M78.672,317.84c0,0.82,0.164,1.445,0.492,1.875
		s0.811,0.645,1.447,0.645s1.12-0.213,1.45-0.641s0.495-1.055,0.495-1.879c0-0.816-0.165-1.436-0.495-1.859
		s-0.817-0.637-1.462-0.637c-0.637,0-1.117,0.209-1.441,0.627S78.672,317.012,78.672,317.84z"/>
	<path d="M89.768,314.635h1.043l1.406,3.662c0.309,0.836,0.5,1.439,0.574,1.811h0.047c0.051-0.199,0.157-0.539,0.319-1.021
		s0.692-1.967,1.591-4.451h1.043l-2.76,7.312c-0.273,0.723-0.593,1.236-0.958,1.539s-0.813,0.453-1.345,0.453
		c-0.297,0-0.59-0.033-0.879-0.1v-0.779c0.215,0.047,0.455,0.07,0.721,0.07c0.668,0,1.145-0.375,1.43-1.125l0.357-0.914
		L89.768,314.635z"/>
	<path d="M103.577,317.84c0,1.047-0.264,1.865-0.791,2.453s-1.256,0.881-2.186,0.881c-0.574,0-1.084-0.135-1.529-0.404
		s-0.789-0.656-1.031-1.16s-0.363-1.094-0.363-1.77c0-1.047,0.262-1.861,0.785-2.445s1.25-0.877,2.18-0.877
		c0.898,0,1.612,0.299,2.142,0.896S103.577,316.82,103.577,317.84z M98.685,317.84c0,0.82,0.164,1.445,0.492,1.875
		s0.811,0.645,1.447,0.645s1.12-0.213,1.45-0.641s0.495-1.055,0.495-1.879c0-0.816-0.165-1.436-0.495-1.859
		s-0.817-0.637-1.462-0.637c-0.637,0-1.117,0.209-1.441,0.627S98.685,317.012,98.685,317.84z"/>
	<path d="M107.396,314.635v4.166c0,0.523,0.119,0.914,0.357,1.172s0.611,0.387,1.119,0.387c0.672,0,1.163-0.184,1.474-0.551
		s0.466-0.967,0.466-1.799v-3.375h0.973v6.422h-0.803l-0.141-0.861h-0.053c-0.199,0.316-0.476,0.559-0.829,0.727
		s-0.757,0.252-1.21,0.252c-0.781,0-1.366-0.186-1.755-0.557s-0.583-0.965-0.583-1.781v-4.201H107.396z"/>
	<path d="M117.977,314.518c0.285,0,0.541,0.023,0.768,0.07l-0.135,0.902c-0.266-0.059-0.5-0.088-0.703-0.088
		c-0.52,0-0.964,0.211-1.333,0.633s-0.554,0.947-0.554,1.576v3.445h-0.973v-6.422h0.803l0.111,1.189h0.047
		c0.238-0.418,0.525-0.74,0.861-0.967S117.574,314.518,117.977,314.518z"/>
	<path d="M128.029,321.174c-0.93,0-1.649-0.285-2.159-0.857s-0.765-1.383-0.765-2.43c0-1.074,0.259-1.904,0.776-2.49
		s1.255-0.879,2.212-0.879c0.309,0,0.617,0.033,0.926,0.1s0.551,0.145,0.727,0.234l-0.299,0.826
		c-0.215-0.086-0.449-0.156-0.703-0.213s-0.479-0.086-0.674-0.086c-1.305,0-1.957,0.832-1.957,2.496
		c0,0.789,0.159,1.395,0.478,1.816s0.79,0.633,1.415,0.633c0.535,0,1.084-0.115,1.646-0.346v0.861
		C129.223,321.062,128.682,321.174,128.029,321.174z"/>
	<path d="M136.771,321.057v-4.154c0-0.523-0.119-0.914-0.357-1.172s-0.611-0.387-1.119-0.387c-0.676,0-1.169,0.184-1.479,0.551
		s-0.466,0.969-0.466,1.805v3.357h-0.973v-9.117h0.973v2.76c0,0.332-0.016,0.607-0.047,0.826h0.059
		c0.191-0.309,0.464-0.551,0.817-0.729s0.757-0.268,1.21-0.268c0.785,0,1.374,0.188,1.767,0.561s0.589,0.965,0.589,1.777v4.189
		H136.771z"/>
	<path d="M146.483,317.84c0,1.047-0.264,1.865-0.791,2.453s-1.256,0.881-2.186,0.881c-0.574,0-1.084-0.135-1.529-0.404
		s-0.789-0.656-1.031-1.16s-0.363-1.094-0.363-1.77c0-1.047,0.262-1.861,0.785-2.445s1.25-0.877,2.18-0.877
		c0.898,0,1.612,0.299,2.142,0.896S146.483,316.82,146.483,317.84z M141.591,317.84c0,0.82,0.164,1.445,0.492,1.875
		s0.811,0.645,1.447,0.645s1.12-0.213,1.45-0.641s0.495-1.055,0.495-1.879c0-0.816-0.165-1.436-0.495-1.859
		s-0.817-0.637-1.462-0.637c-0.637,0-1.117,0.209-1.441,0.627S141.591,317.012,141.591,317.84z"/>
	<path d="M154.932,317.84c0,1.047-0.264,1.865-0.791,2.453s-1.256,0.881-2.186,0.881c-0.574,0-1.084-0.135-1.529-0.404
		s-0.789-0.656-1.031-1.16s-0.363-1.094-0.363-1.77c0-1.047,0.262-1.861,0.785-2.445s1.25-0.877,2.18-0.877
		c0.898,0,1.612,0.299,2.142,0.896S154.932,316.82,154.932,317.84z M150.039,317.84c0,0.82,0.164,1.445,0.492,1.875
		s0.811,0.645,1.447,0.645s1.12-0.213,1.45-0.641s0.495-1.055,0.495-1.879c0-0.816-0.165-1.436-0.495-1.859
		s-0.817-0.637-1.462-0.637c-0.637,0-1.117,0.209-1.441,0.627S150.039,317.012,150.039,317.84z"/>
	<path d="M161.979,319.305c0,0.598-0.223,1.059-0.668,1.383s-1.07,0.486-1.875,0.486c-0.852,0-1.516-0.135-1.992-0.404v-0.902
		c0.309,0.156,0.64,0.279,0.993,0.369s0.694,0.135,1.022,0.135c0.508,0,0.898-0.08,1.172-0.242s0.41-0.41,0.41-0.742
		c0-0.25-0.108-0.463-0.325-0.641s-0.64-0.389-1.269-0.631c-0.598-0.223-1.022-0.416-1.274-0.582s-0.439-0.355-0.562-0.566
		s-0.185-0.463-0.185-0.756c0-0.523,0.213-0.936,0.639-1.238s1.01-0.455,1.752-0.455c0.691,0,1.367,0.141,2.027,0.422l-0.346,0.791
		c-0.645-0.266-1.229-0.398-1.752-0.398c-0.461,0-0.809,0.072-1.043,0.217s-0.352,0.344-0.352,0.598
		c0,0.172,0.044,0.318,0.132,0.439s0.229,0.236,0.425,0.346s0.57,0.268,1.125,0.475c0.762,0.277,1.276,0.557,1.544,0.838
		S161.979,318.879,161.979,319.305z"/>
	<path d="M167.475,321.174c-0.949,0-1.698-0.289-2.247-0.867s-0.823-1.381-0.823-2.408c0-1.035,0.255-1.857,0.765-2.467
		s1.194-0.914,2.054-0.914c0.805,0,1.441,0.266,1.91,0.795s0.703,1.227,0.703,2.094v0.615h-4.424c0.02,0.754,0.21,1.326,0.571,1.717
		s0.87,0.586,1.526,0.586c0.691,0,1.375-0.145,2.051-0.434v0.867c-0.344,0.148-0.669,0.256-0.976,0.32
		S167.908,321.174,167.475,321.174z M167.211,315.332c-0.516,0-0.927,0.168-1.233,0.504s-0.487,0.801-0.542,1.395h3.357
		c0-0.613-0.137-1.082-0.41-1.408S167.719,315.332,167.211,315.332z"/>
	<path d="M177.089,321.057v-4.154c0-0.523-0.119-0.914-0.357-1.172s-0.611-0.387-1.119-0.387c-0.672,0-1.164,0.182-1.477,0.545
		s-0.469,0.963-0.469,1.799v3.369h-0.973v-6.422h0.791l0.158,0.879h0.047c0.199-0.316,0.479-0.561,0.838-0.734
		s0.76-0.262,1.201-0.262c0.773,0,1.355,0.188,1.746,0.561s0.586,0.969,0.586,1.789v4.189H177.089z"/>
	<path d="M186.549,321.057h-0.973v-9.117h0.973V321.057z"/>
	<path d="M195.354,317.84c0,1.047-0.264,1.865-0.791,2.453s-1.256,0.881-2.186,0.881c-0.574,0-1.084-0.135-1.529-0.404
		s-0.789-0.656-1.031-1.16s-0.363-1.094-0.363-1.77c0-1.047,0.262-1.861,0.785-2.445s1.25-0.877,2.18-0.877
		c0.898,0,1.612,0.299,2.142,0.896S195.354,316.82,195.354,317.84z M190.462,317.84c0,0.82,0.164,1.445,0.492,1.875
		s0.811,0.645,1.447,0.645s1.12-0.213,1.45-0.641s0.495-1.055,0.495-1.879c0-0.816-0.165-1.436-0.495-1.859
		s-0.817-0.637-1.462-0.637c-0.637,0-1.117,0.209-1.441,0.627S190.462,317.012,190.462,317.84z"/>
	<path d="M200.826,321.174c-0.93,0-1.649-0.285-2.159-0.857s-0.765-1.383-0.765-2.43c0-1.074,0.259-1.904,0.776-2.49
		s1.255-0.879,2.212-0.879c0.309,0,0.617,0.033,0.926,0.1s0.551,0.145,0.727,0.234l-0.299,0.826
		c-0.215-0.086-0.449-0.156-0.703-0.213s-0.479-0.086-0.674-0.086c-1.305,0-1.957,0.832-1.957,2.496
		c0,0.789,0.159,1.395,0.478,1.816s0.79,0.633,1.415,0.633c0.535,0,1.084-0.115,1.646-0.346v0.861
		C202.02,321.062,201.479,321.174,200.826,321.174z"/>
	<path d="M209.122,321.057l-0.193-0.914h-0.047c-0.32,0.402-0.64,0.676-0.958,0.818s-0.716,0.213-1.192,0.213
		c-0.637,0-1.136-0.164-1.497-0.492s-0.542-0.795-0.542-1.4c0-1.297,1.037-1.977,3.111-2.039l1.09-0.035v-0.398
		c0-0.504-0.108-0.875-0.325-1.115s-0.563-0.361-1.04-0.361c-0.535,0-1.141,0.164-1.816,0.492l-0.299-0.744
		c0.316-0.172,0.663-0.307,1.04-0.404s0.755-0.146,1.134-0.146c0.766,0,1.333,0.17,1.702,0.51s0.554,0.885,0.554,1.635v4.383
		H209.122z M206.925,320.371c0.605,0,1.081-0.166,1.427-0.498s0.519-0.797,0.519-1.395v-0.58l-0.973,0.041
		c-0.773,0.027-1.331,0.148-1.673,0.361s-0.513,0.543-0.513,0.992c0,0.352,0.106,0.619,0.319,0.803S206.542,320.371,206.925,320.371
		z"/>
	<path d="M215.12,320.371c0.172,0,0.338-0.012,0.498-0.037s0.287-0.053,0.381-0.08v0.744c-0.105,0.051-0.261,0.094-0.466,0.127
		s-0.39,0.049-0.554,0.049c-1.242,0-1.863-0.654-1.863-1.963v-3.82h-0.92v-0.469l0.92-0.404l0.41-1.371h0.562v1.488h1.863v0.756
		h-1.863v3.779c0,0.387,0.092,0.684,0.275,0.891S214.8,320.371,215.12,320.371z"/>
	<path d="M218.4,312.895c0-0.223,0.055-0.385,0.164-0.488s0.246-0.156,0.41-0.156c0.156,0,0.291,0.053,0.404,0.158
		s0.17,0.268,0.17,0.486s-0.057,0.383-0.17,0.49s-0.248,0.16-0.404,0.16c-0.164,0-0.301-0.053-0.41-0.16
		S218.4,313.113,218.4,312.895z M219.455,321.057h-0.973v-6.422h0.973V321.057z"/>
	<path d="M228.261,317.84c0,1.047-0.264,1.865-0.791,2.453s-1.256,0.881-2.186,0.881c-0.574,0-1.084-0.135-1.529-0.404
		s-0.789-0.656-1.031-1.16s-0.363-1.094-0.363-1.77c0-1.047,0.262-1.861,0.785-2.445s1.25-0.877,2.18-0.877
		c0.898,0,1.612,0.299,2.142,0.896S228.261,316.82,228.261,317.84z M223.368,317.84c0,0.82,0.164,1.445,0.492,1.875
		s0.811,0.645,1.447,0.645s1.12-0.213,1.45-0.641s0.495-1.055,0.495-1.879c0-0.816-0.165-1.436-0.495-1.859
		s-0.817-0.637-1.462-0.637c-0.637,0-1.117,0.209-1.441,0.627S223.368,317.012,223.368,317.84z"/>
	<path d="M235.561,321.057v-4.154c0-0.523-0.119-0.914-0.357-1.172s-0.611-0.387-1.119-0.387c-0.672,0-1.164,0.182-1.477,0.545
		s-0.469,0.963-0.469,1.799v3.369h-0.973v-6.422h0.791l0.158,0.879h0.047c0.199-0.316,0.479-0.561,0.838-0.734
		s0.76-0.262,1.201-0.262c0.773,0,1.355,0.188,1.746,0.561s0.586,0.969,0.586,1.789v4.189H235.561z"/>
	<path d="M247.997,321.057l-0.193-0.914h-0.047c-0.32,0.402-0.64,0.676-0.958,0.818s-0.716,0.213-1.192,0.213
		c-0.637,0-1.136-0.164-1.497-0.492s-0.542-0.795-0.542-1.4c0-1.297,1.037-1.977,3.111-2.039l1.09-0.035v-0.398
		c0-0.504-0.108-0.875-0.325-1.115s-0.563-0.361-1.04-0.361c-0.535,0-1.141,0.164-1.816,0.492l-0.299-0.744
		c0.316-0.172,0.663-0.307,1.04-0.404s0.755-0.146,1.134-0.146c0.766,0,1.333,0.17,1.702,0.51s0.554,0.885,0.554,1.635v4.383
		H247.997z M245.8,320.371c0.605,0,1.081-0.166,1.427-0.498s0.519-0.797,0.519-1.395v-0.58l-0.973,0.041
		c-0.773,0.027-1.331,0.148-1.673,0.361s-0.513,0.543-0.513,0.992c0,0.352,0.106,0.619,0.319,0.803S245.417,320.371,245.8,320.371z"
		/>
	<path d="M256.316,321.057v-4.154c0-0.523-0.119-0.914-0.357-1.172s-0.611-0.387-1.119-0.387c-0.672,0-1.164,0.182-1.477,0.545
		s-0.469,0.963-0.469,1.799v3.369h-0.973v-6.422h0.791l0.158,0.879h0.047c0.199-0.316,0.479-0.561,0.838-0.734
		s0.76-0.262,1.201-0.262c0.773,0,1.355,0.188,1.746,0.561s0.586,0.969,0.586,1.789v4.189H256.316z"/>
	<path d="M264.858,320.195h-0.053c-0.449,0.652-1.121,0.979-2.016,0.979c-0.84,0-1.493-0.287-1.96-0.861s-0.7-1.391-0.7-2.449
		s0.234-1.881,0.703-2.467s1.121-0.879,1.957-0.879c0.871,0,1.539,0.316,2.004,0.949h0.076l-0.041-0.463l-0.023-0.451v-2.613h0.973
		v9.117h-0.791L264.858,320.195z M262.913,320.359c0.664,0,1.146-0.18,1.444-0.541s0.448-0.945,0.448-1.75v-0.205
		c0-0.91-0.151-1.559-0.454-1.947s-0.786-0.584-1.45-0.584c-0.57,0-1.007,0.223-1.31,0.666s-0.454,1.068-0.454,1.877
		c0,0.82,0.15,1.439,0.451,1.857S262.331,320.359,262.913,320.359z"/>
	<path d="M276.347,321.174c-0.418,0-0.8-0.076-1.146-0.23s-0.636-0.393-0.87-0.713h-0.07c0.047,0.375,0.07,0.73,0.07,1.066v2.643
		h-0.973v-9.305h0.791l0.135,0.879h0.047c0.25-0.352,0.541-0.605,0.873-0.762s0.713-0.234,1.143-0.234
		c0.852,0,1.509,0.291,1.972,0.873s0.694,1.398,0.694,2.449c0,1.055-0.235,1.875-0.706,2.459S277.183,321.174,276.347,321.174z
		 M276.206,315.344c-0.656,0-1.131,0.182-1.424,0.545s-0.443,0.941-0.451,1.734v0.217c0,0.902,0.15,1.549,0.451,1.938
		s0.783,0.582,1.447,0.582c0.555,0,0.989-0.225,1.304-0.674s0.472-1.068,0.472-1.857c0-0.801-0.157-1.414-0.472-1.842
		S276.776,315.344,276.206,315.344z"/>
	<path d="M281.829,312.895c0-0.223,0.055-0.385,0.164-0.488s0.246-0.156,0.41-0.156c0.156,0,0.291,0.053,0.404,0.158
		s0.17,0.268,0.17,0.486s-0.057,0.383-0.17,0.49s-0.248,0.16-0.404,0.16c-0.164,0-0.301-0.053-0.41-0.16
		S281.829,313.113,281.829,312.895z M282.884,321.057h-0.973v-6.422h0.973V321.057z"/>
	<path d="M288.713,321.174c-0.93,0-1.649-0.285-2.159-0.857s-0.765-1.383-0.765-2.43c0-1.074,0.259-1.904,0.776-2.49
		s1.255-0.879,2.212-0.879c0.309,0,0.617,0.033,0.926,0.1s0.551,0.145,0.727,0.234l-0.299,0.826
		c-0.215-0.086-0.449-0.156-0.703-0.213s-0.479-0.086-0.674-0.086c-1.305,0-1.957,0.832-1.957,2.496
		c0,0.789,0.159,1.395,0.478,1.816s0.79,0.633,1.415,0.633c0.535,0,1.084-0.115,1.646-0.346v0.861
		C289.906,321.062,289.365,321.174,288.713,321.174z"/>
	<path d="M294.021,317.77c0.168-0.238,0.424-0.551,0.768-0.938l2.074-2.197h1.154l-2.602,2.736l2.783,3.686h-1.178l-2.268-3.035
		l-0.732,0.633v2.402h-0.961v-9.117h0.961v4.834c0,0.215-0.016,0.547-0.047,0.996H294.021z"/>
	<path d="M305.79,314.635v4.166c0,0.523,0.119,0.914,0.357,1.172s0.611,0.387,1.119,0.387c0.672,0,1.163-0.184,1.474-0.551
		s0.466-0.967,0.466-1.799v-3.375h0.973v6.422h-0.803l-0.141-0.861h-0.053c-0.199,0.316-0.476,0.559-0.829,0.727
		s-0.757,0.252-1.21,0.252c-0.781,0-1.366-0.186-1.755-0.557s-0.583-0.965-0.583-1.781v-4.201H305.79z"/>
	<path d="M316.429,321.174c-0.418,0-0.8-0.076-1.146-0.23s-0.636-0.393-0.87-0.713h-0.07c0.047,0.375,0.07,0.73,0.07,1.066v2.643
		h-0.973v-9.305h0.791l0.135,0.879h0.047c0.25-0.352,0.541-0.605,0.873-0.762s0.713-0.234,1.143-0.234
		c0.852,0,1.509,0.291,1.972,0.873s0.694,1.398,0.694,2.449c0,1.055-0.235,1.875-0.706,2.459S317.265,321.174,316.429,321.174z
		 M316.288,315.344c-0.656,0-1.131,0.182-1.424,0.545s-0.443,0.941-0.451,1.734v0.217c0,0.902,0.15,1.549,0.451,1.938
		s0.783,0.582,1.447,0.582c0.555,0,0.989-0.225,1.304-0.674s0.472-1.068,0.472-1.857c0-0.801-0.157-1.414-0.472-1.842
		S316.858,315.344,316.288,315.344z"/>
	<path d="M325.292,314.635h1.043l1.406,3.662c0.309,0.836,0.5,1.439,0.574,1.811h0.047c0.051-0.199,0.157-0.539,0.319-1.021
		s0.692-1.967,1.591-4.451h1.043l-2.76,7.312c-0.273,0.723-0.593,1.236-0.958,1.539s-0.813,0.453-1.345,0.453
		c-0.297,0-0.59-0.033-0.879-0.1v-0.779c0.215,0.047,0.455,0.07,0.721,0.07c0.668,0,1.145-0.375,1.43-1.125l0.357-0.914
		L325.292,314.635z"/>
	<path d="M339.102,317.84c0,1.047-0.264,1.865-0.791,2.453s-1.256,0.881-2.186,0.881c-0.574,0-1.084-0.135-1.529-0.404
		s-0.789-0.656-1.031-1.16s-0.363-1.094-0.363-1.77c0-1.047,0.262-1.861,0.785-2.445s1.25-0.877,2.18-0.877
		c0.898,0,1.612,0.299,2.142,0.896S339.102,316.82,339.102,317.84z M334.209,317.84c0,0.82,0.164,1.445,0.492,1.875
		s0.811,0.645,1.447,0.645s1.12-0.213,1.45-0.641s0.495-1.055,0.495-1.879c0-0.816-0.165-1.436-0.495-1.859
		s-0.817-0.637-1.462-0.637c-0.637,0-1.117,0.209-1.441,0.627S334.209,317.012,334.209,317.84z"/>
	<path d="M342.921,314.635v4.166c0,0.523,0.119,0.914,0.357,1.172s0.611,0.387,1.119,0.387c0.672,0,1.163-0.184,1.474-0.551
		s0.466-0.967,0.466-1.799v-3.375h0.973v6.422h-0.803l-0.141-0.861h-0.053c-0.199,0.316-0.476,0.559-0.829,0.727
		s-0.757,0.252-1.21,0.252c-0.781,0-1.366-0.186-1.755-0.557s-0.583-0.965-0.583-1.781v-4.201H342.921z"/>
	<path d="M353.501,314.518c0.285,0,0.541,0.023,0.768,0.07l-0.135,0.902c-0.266-0.059-0.5-0.088-0.703-0.088
		c-0.52,0-0.964,0.211-1.333,0.633s-0.554,0.947-0.554,1.576v3.445h-0.973v-6.422h0.803l0.111,1.189h0.047
		c0.238-0.418,0.525-0.74,0.861-0.967S353.099,314.518,353.501,314.518z"/>
	<path d="M366.53,317.84c0,1.047-0.264,1.865-0.791,2.453s-1.256,0.881-2.186,0.881c-0.574,0-1.084-0.135-1.529-0.404
		s-0.789-0.656-1.031-1.16s-0.363-1.094-0.363-1.77c0-1.047,0.262-1.861,0.785-2.445s1.25-0.877,2.18-0.877
		c0.898,0,1.612,0.299,2.142,0.896S366.53,316.82,366.53,317.84z M361.638,317.84c0,0.82,0.164,1.445,0.492,1.875
		s0.811,0.645,1.447,0.645s1.12-0.213,1.45-0.641s0.495-1.055,0.495-1.879c0-0.816-0.165-1.436-0.495-1.859
		s-0.817-0.637-1.462-0.637c-0.637,0-1.117,0.209-1.441,0.627S361.638,317.012,361.638,317.84z"/>
	<path d="M372.365,314.518c0.285,0,0.541,0.023,0.768,0.07l-0.135,0.902c-0.266-0.059-0.5-0.088-0.703-0.088
		c-0.52,0-0.964,0.211-1.333,0.633s-0.554,0.947-0.554,1.576v3.445h-0.973v-6.422h0.803l0.111,1.189h0.047
		c0.238-0.418,0.525-0.74,0.861-0.967S371.963,314.518,372.365,314.518z"/>
	<path d="M379.905,320.195h-0.053c-0.449,0.652-1.121,0.979-2.016,0.979c-0.84,0-1.493-0.287-1.96-0.861s-0.7-1.391-0.7-2.449
		s0.234-1.881,0.703-2.467s1.121-0.879,1.957-0.879c0.871,0,1.539,0.316,2.004,0.949h0.076l-0.041-0.463l-0.023-0.451v-2.613h0.973
		v9.117h-0.791L379.905,320.195z M377.96,320.359c0.664,0,1.146-0.18,1.444-0.541s0.448-0.945,0.448-1.75v-0.205
		c0-0.91-0.151-1.559-0.454-1.947s-0.786-0.584-1.45-0.584c-0.57,0-1.007,0.223-1.31,0.666s-0.454,1.068-0.454,1.877
		c0,0.82,0.15,1.439,0.451,1.857S377.378,320.359,377.96,320.359z"/>
	<path d="M386.8,321.174c-0.949,0-1.698-0.289-2.247-0.867s-0.823-1.381-0.823-2.408c0-1.035,0.255-1.857,0.765-2.467
		s1.194-0.914,2.054-0.914c0.805,0,1.441,0.266,1.91,0.795s0.703,1.227,0.703,2.094v0.615h-4.424c0.02,0.754,0.21,1.326,0.571,1.717
		s0.87,0.586,1.526,0.586c0.691,0,1.375-0.145,2.051-0.434v0.867c-0.344,0.148-0.669,0.256-0.976,0.32
		S387.233,321.174,386.8,321.174z M386.536,315.332c-0.516,0-0.927,0.168-1.233,0.504s-0.487,0.801-0.542,1.395h3.357
		c0-0.613-0.137-1.082-0.41-1.408S387.044,315.332,386.536,315.332z"/>
	<path d="M394.949,314.518c0.285,0,0.541,0.023,0.768,0.07l-0.135,0.902c-0.266-0.059-0.5-0.088-0.703-0.088
		c-0.52,0-0.964,0.211-1.333,0.633s-0.554,0.947-0.554,1.576v3.445h-0.973v-6.422h0.803l0.111,1.189h0.047
		c0.238-0.418,0.525-0.74,0.861-0.967S394.547,314.518,394.949,314.518z"/>
	<path d="M397.978,320.436c0-0.262,0.06-0.459,0.179-0.594s0.29-0.203,0.513-0.203c0.227,0,0.403,0.068,0.53,0.203
		s0.19,0.332,0.19,0.594c0,0.254-0.064,0.449-0.193,0.586s-0.305,0.205-0.527,0.205c-0.199,0-0.364-0.061-0.495-0.184
		S397.978,320.717,397.978,320.436z"/>
</g>
<g>
	<path d="M66.662,30.522c0,2.484-0.844,4.389-2.531,5.713s-4.078,1.986-7.172,1.986h-3.973v10.617h-1.793V23.14h6.293
		C63.604,23.14,66.662,25.601,66.662,30.522z M52.986,36.675h3.533c2.895,0,4.986-0.478,6.275-1.433s1.934-2.505,1.934-4.649
		c0-1.98-0.609-3.448-1.828-4.403s-3.105-1.433-5.66-1.433h-4.254V36.675z"/>
	<path d="M71.566,24.423c0-1.125,0.369-1.688,1.107-1.688c0.363,0,0.647,0.146,0.853,0.439s0.308,0.709,0.308,1.248
		c0,0.527-0.103,0.943-0.308,1.248s-0.489,0.457-0.853,0.457C71.936,26.128,71.566,25.56,71.566,24.423z M73.553,48.839h-1.74
		V29.731h1.74V48.839z"/>
	<path d="M87.58,49.19c-2.73,0-4.869-0.861-6.416-2.584s-2.32-4.125-2.32-7.207c0-3.164,0.803-5.628,2.408-7.392
		s3.803-2.646,6.592-2.646c1.652,0,3.234,0.287,4.746,0.861l-0.475,1.547c-1.652-0.551-3.088-0.826-4.307-0.826
		c-2.344,0-4.119,0.724-5.326,2.171s-1.811,3.53-1.811,6.249c0,2.578,0.604,4.597,1.811,6.056s2.895,2.188,5.062,2.188
		c1.734,0,3.346-0.311,4.834-0.932v1.617C91.16,48.892,89.561,49.19,87.58,49.19z"/>
	<path d="M98.76,40.454l9.756-10.723h2.109l-7.523,8.156l8.174,10.951h-2.092l-7.26-9.65l-3.129,2.848v6.803h-1.74V21.487h1.74
		v13.711l-0.123,5.256H98.76z"/>
	<path d="M135.428,48.839l-0.439-3.023h-0.141c-0.961,1.23-1.948,2.101-2.962,2.61s-2.212,0.765-3.595,0.765
		c-1.875,0-3.334-0.48-4.377-1.441s-1.564-2.291-1.564-3.99c0-1.863,0.776-3.311,2.329-4.342s3.8-1.576,6.741-1.635l3.639-0.105
		v-1.266c0-1.816-0.369-3.188-1.107-4.113s-1.928-1.389-3.568-1.389c-1.77,0-3.604,0.492-5.502,1.477l-0.65-1.512
		c2.098-0.984,4.172-1.477,6.223-1.477c2.098,0,3.665,0.545,4.702,1.635s1.556,2.789,1.556,5.098v12.709H135.428z M128.396,47.608
		c2.039,0,3.647-0.583,4.825-1.749s1.767-2.786,1.767-4.86v-1.881l-3.34,0.141c-2.684,0.129-4.597,0.548-5.739,1.257
		s-1.714,1.813-1.714,3.313c0,1.195,0.366,2.124,1.099,2.786S127.061,47.608,128.396,47.608z"/>
	<path d="M156.223,48.839V36.446c0-1.922-0.404-3.319-1.213-4.192s-2.062-1.31-3.762-1.31c-2.285,0-3.958,0.577-5.019,1.731
		s-1.591,3.026-1.591,5.616v10.547h-1.74V29.731h1.477l0.334,2.619h0.105c1.242-1.992,3.451-2.988,6.627-2.988
		c4.336,0,6.504,2.326,6.504,6.979v12.498H156.223z"/>
	<path d="M171.129,29.362c1.383,0,2.578,0.252,3.586,0.756s1.91,1.365,2.707,2.584h0.105c-0.07-1.477-0.105-2.924-0.105-4.342
		v-6.873h1.723v27.352h-1.143l-0.439-2.918h-0.141c-1.453,2.18-3.539,3.27-6.258,3.27c-2.637,0-4.652-0.82-6.047-2.461
		s-2.092-4.031-2.092-7.172c0-3.305,0.691-5.83,2.074-7.576S168.492,29.362,171.129,29.362z M171.129,30.944
		c-2.086,0-3.653,0.732-4.702,2.197s-1.573,3.592-1.573,6.381c0,5.414,2.104,8.121,6.311,8.121c2.156,0,3.738-0.627,4.746-1.881
		s1.512-3.322,1.512-6.205v-0.299c0-2.953-0.495-5.077-1.485-6.372S173.344,30.944,171.129,30.944z"/>
	<path d="M202.541,49.19c-2.73,0-4.869-0.861-6.416-2.584s-2.32-4.125-2.32-7.207c0-3.164,0.803-5.628,2.408-7.392
		s3.803-2.646,6.592-2.646c1.652,0,3.234,0.287,4.746,0.861l-0.475,1.547c-1.652-0.551-3.088-0.826-4.307-0.826
		c-2.344,0-4.119,0.724-5.326,2.171s-1.811,3.53-1.811,6.249c0,2.578,0.604,4.597,1.811,6.056s2.895,2.188,5.062,2.188
		c1.734,0,3.346-0.311,4.834-0.932v1.617C206.121,48.892,204.521,49.19,202.541,49.19z"/>
	<path d="M225.34,48.839V36.446c0-1.922-0.404-3.319-1.213-4.192s-2.062-1.31-3.762-1.31c-2.285,0-3.958,0.577-5.019,1.731
		s-1.591,3.026-1.591,5.616v10.547h-1.74V21.487h1.74v8.701l-0.088,2.443h0.123c0.715-1.148,1.617-1.98,2.707-2.496
		s2.443-0.773,4.061-0.773c4.336,0,6.504,2.326,6.504,6.979v12.498H225.34z"/>
	<path d="M249.053,39.259c0,3.117-0.756,5.552-2.268,7.304s-3.598,2.628-6.258,2.628c-1.676,0-3.152-0.404-4.43-1.213
		s-2.256-1.969-2.936-3.48s-1.02-3.258-1.02-5.238c0-3.117,0.756-5.546,2.268-7.286s3.586-2.61,6.223-2.61
		c2.625,0,4.685,0.882,6.179,2.646S249.053,36.188,249.053,39.259z M233.971,39.259c0,2.625,0.577,4.673,1.731,6.144
		s2.786,2.206,4.896,2.206s3.741-0.735,4.896-2.206s1.731-3.519,1.731-6.144c0-2.637-0.583-4.682-1.749-6.135
		s-2.804-2.18-4.913-2.18s-3.735,0.724-4.878,2.171S233.971,36.61,233.971,39.259z"/>
	<path d="M270.146,39.259c0,3.117-0.756,5.552-2.268,7.304s-3.598,2.628-6.258,2.628c-1.676,0-3.152-0.404-4.43-1.213
		s-2.256-1.969-2.936-3.48s-1.02-3.258-1.02-5.238c0-3.117,0.756-5.546,2.268-7.286s3.586-2.61,6.223-2.61
		c2.625,0,4.685,0.882,6.179,2.646S270.146,36.188,270.146,39.259z M255.064,39.259c0,2.625,0.577,4.673,1.731,6.144
		s2.786,2.206,4.896,2.206s3.741-0.735,4.896-2.206s1.731-3.519,1.731-6.144c0-2.637-0.583-4.682-1.749-6.135
		s-2.804-2.18-4.913-2.18s-3.735,0.724-4.878,2.171S255.064,36.61,255.064,39.259z"/>
	<path d="M287.285,43.864c0,1.711-0.65,3.026-1.951,3.946s-3.146,1.38-5.537,1.38c-2.555,0-4.582-0.393-6.082-1.178v-1.881
		c1.922,0.961,3.949,1.441,6.082,1.441c1.887,0,3.319-0.313,4.298-0.94s1.468-1.462,1.468-2.505c0-0.961-0.39-1.77-1.169-2.426
		s-2.06-1.301-3.841-1.934c-1.91-0.691-3.252-1.286-4.025-1.784s-1.356-1.061-1.749-1.688s-0.589-1.392-0.589-2.294
		c0-1.43,0.601-2.561,1.802-3.393s2.88-1.248,5.036-1.248c2.062,0,4.02,0.387,5.871,1.16l-0.65,1.582
		c-1.875-0.773-3.615-1.16-5.221-1.16c-1.559,0-2.795,0.258-3.709,0.773s-1.371,1.23-1.371,2.145c0,0.996,0.354,1.793,1.063,2.391
		s2.095,1.266,4.157,2.004c1.723,0.621,2.977,1.181,3.762,1.679s1.374,1.063,1.767,1.696S287.285,43.009,287.285,43.864z"/>
	<path d="M299.924,49.19c-2.777,0-4.942-0.855-6.495-2.566s-2.329-4.107-2.329-7.189c0-3.047,0.75-5.487,2.25-7.321
		s3.521-2.751,6.064-2.751c2.25,0,4.025,0.785,5.326,2.355s1.951,3.703,1.951,6.398v1.406h-13.764
		c0.023,2.625,0.636,4.629,1.837,6.012s2.921,2.074,5.159,2.074c1.09,0,2.048-0.076,2.874-0.229s1.872-0.48,3.138-0.984v1.582
		c-1.078,0.469-2.074,0.788-2.988,0.958S301.025,49.19,299.924,49.19z M299.414,30.909c-1.84,0-3.316,0.606-4.43,1.819
		s-1.764,2.962-1.951,5.247h11.812c0-2.215-0.48-3.946-1.441-5.194S301.113,30.909,299.414,30.909z"/>
	<path d="M318.117,29.731h1.793l4.043,10.723c1.23,3.293,2.01,5.514,2.338,6.662h0.105c0.492-1.512,1.295-3.768,2.408-6.768
		l4.043-10.617h1.793l-8.561,22.201c-0.691,1.805-1.271,3.023-1.74,3.656s-1.017,1.107-1.644,1.424s-1.386,0.475-2.276,0.475
		c-0.668,0-1.412-0.123-2.232-0.369v-1.512c0.68,0.188,1.412,0.281,2.197,0.281c0.598,0,1.125-0.141,1.582-0.422
		s0.87-0.718,1.239-1.31s0.797-1.529,1.283-2.812s0.8-2.118,0.94-2.505L318.117,29.731z"/>
	<path d="M353.643,39.259c0,3.117-0.756,5.552-2.268,7.304s-3.598,2.628-6.258,2.628c-1.676,0-3.152-0.404-4.43-1.213
		s-2.256-1.969-2.936-3.48s-1.02-3.258-1.02-5.238c0-3.117,0.756-5.546,2.268-7.286s3.586-2.61,6.223-2.61
		c2.625,0,4.685,0.882,6.179,2.646S353.643,36.188,353.643,39.259z M338.561,39.259c0,2.625,0.577,4.673,1.731,6.144
		s2.786,2.206,4.896,2.206s3.741-0.735,4.896-2.206s1.731-3.519,1.731-6.144c0-2.637-0.583-4.682-1.749-6.135
		s-2.804-2.18-4.913-2.18s-3.735,0.724-4.878,2.171S338.561,36.61,338.561,39.259z"/>
	<path d="M360.445,29.731v12.375c0,1.922,0.404,3.319,1.213,4.192s2.062,1.31,3.762,1.31c2.273,0,3.946-0.574,5.019-1.723
		s1.608-3.018,1.608-5.607V29.731h1.723v19.107h-1.477l-0.316-2.637h-0.105c-1.242,1.992-3.451,2.988-6.627,2.988
		c-4.348,0-6.521-2.326-6.521-6.979v-12.48H360.445z"/>
	<path d="M387.691,29.362c0.809,0,1.676,0.082,2.602,0.246l-0.334,1.67c-0.797-0.199-1.623-0.299-2.479-0.299
		c-1.629,0-2.965,0.691-4.008,2.074s-1.564,3.129-1.564,5.238v10.547h-1.74V29.731h1.477l0.176,3.445h0.123
		c0.785-1.406,1.623-2.394,2.514-2.962S386.426,29.362,387.691,29.362z"/>
	<path d="M403.283,24.423c0-1.125,0.369-1.688,1.107-1.688c0.363,0,0.647,0.146,0.853,0.439s0.308,0.709,0.308,1.248
		c0,0.527-0.103,0.943-0.308,1.248s-0.489,0.457-0.853,0.457C403.652,26.128,403.283,25.56,403.283,24.423z M405.27,48.839h-1.74
		V29.731h1.74V48.839z"/>
	<path d="M416.713,47.644c1.102,0,2.062-0.094,2.883-0.281v1.406c-0.844,0.281-1.816,0.422-2.918,0.422
		c-1.688,0-2.933-0.451-3.735-1.354s-1.204-2.32-1.204-4.254v-12.34h-2.83v-1.02l2.83-0.791l0.879-4.324h0.896v4.623h5.607v1.512
		h-5.607v12.094c0,1.465,0.258,2.549,0.773,3.252S415.611,47.644,416.713,47.644z"/>
	<path d="M431.443,49.19c-2.777,0-4.942-0.855-6.495-2.566s-2.329-4.107-2.329-7.189c0-3.047,0.75-5.487,2.25-7.321
		s3.521-2.751,6.064-2.751c2.25,0,4.025,0.785,5.326,2.355s1.951,3.703,1.951,6.398v1.406h-13.764
		c0.023,2.625,0.636,4.629,1.837,6.012s2.921,2.074,5.159,2.074c1.09,0,2.048-0.076,2.874-0.229s1.872-0.48,3.138-0.984v1.582
		c-1.078,0.469-2.074,0.788-2.988,0.958S432.545,49.19,431.443,49.19z M430.934,30.909c-1.84,0-3.316,0.606-4.43,1.819
		s-1.764,2.962-1.951,5.247h11.812c0-2.215-0.48-3.946-1.441-5.194S432.633,30.909,430.934,30.909z"/>
	<path d="M467.355,48.839V36.306c0-1.863-0.363-3.223-1.09-4.078s-1.84-1.283-3.34-1.283c-1.957,0-3.404,0.539-4.342,1.617
		s-1.406,2.771-1.406,5.08v11.197h-1.775V35.778c0-3.223-1.477-4.834-4.43-4.834c-2.004,0-3.463,0.583-4.377,1.749
		s-1.371,3.032-1.371,5.599v10.547h-1.74V29.731h1.441l0.369,2.619h0.105c0.527-0.949,1.277-1.685,2.25-2.206
		s2.045-0.782,3.217-0.782c3.012,0,4.945,1.131,5.801,3.393h0.07c0.621-1.09,1.456-1.928,2.505-2.514s2.241-0.879,3.577-0.879
		c2.086,0,3.65,0.557,4.693,1.67s1.564,2.883,1.564,5.309v12.498H467.355z"/>
</g>
<g>
	<path d="M65.379,161.545c0,2.145-0.788,3.844-2.364,5.098s-3.671,1.881-6.284,1.881c-3.141,0-5.549-0.346-7.225-1.037v-1.793
		c1.852,0.785,4.213,1.178,7.084,1.178c2.109,0,3.782-0.483,5.019-1.45s1.854-2.235,1.854-3.806c0-0.973-0.205-1.778-0.615-2.417
		s-1.078-1.222-2.004-1.749s-2.285-1.096-4.078-1.705c-2.625-0.902-4.438-1.878-5.44-2.927s-1.503-2.446-1.503-4.192
		c0-1.922,0.753-3.489,2.259-4.702s3.442-1.819,5.81-1.819c2.414,0,4.682,0.457,6.803,1.371l-0.65,1.547
		c-2.133-0.891-4.172-1.336-6.117-1.336c-1.898,0-3.41,0.439-4.535,1.318s-1.688,2.074-1.688,3.586c0,0.949,0.173,1.729,0.519,2.338
		s0.911,1.157,1.696,1.644s2.133,1.069,4.043,1.749c2.004,0.691,3.51,1.362,4.518,2.013s1.743,1.389,2.206,2.215
		S65.379,160.373,65.379,161.545z"/>
	<path d="M78,168.523c-2.73,0-4.869-0.861-6.416-2.584s-2.32-4.125-2.32-7.207c0-3.164,0.803-5.628,2.408-7.392
		s3.803-2.646,6.592-2.646c1.652,0,3.234,0.287,4.746,0.861l-0.475,1.547c-1.652-0.551-3.088-0.826-4.307-0.826
		c-2.344,0-4.119,0.724-5.326,2.171s-1.811,3.53-1.811,6.249c0,2.578,0.604,4.597,1.811,6.056s2.895,2.188,5.062,2.188
		c1.734,0,3.346-0.311,4.834-0.932v1.617C81.58,168.225,79.98,168.523,78,168.523z"/>
	<path d="M94.998,148.695c0.809,0,1.676,0.082,2.602,0.246l-0.334,1.67c-0.797-0.199-1.623-0.299-2.479-0.299
		c-1.629,0-2.965,0.691-4.008,2.074s-1.564,3.129-1.564,5.238v10.547h-1.74v-19.107h1.477l0.176,3.445h0.123
		c0.785-1.406,1.623-2.394,2.514-2.962S93.732,148.695,94.998,148.695z"/>
	<path d="M117.287,158.592c0,3.117-0.756,5.552-2.268,7.304s-3.598,2.628-6.258,2.628c-1.676,0-3.152-0.404-4.43-1.213
		s-2.256-1.969-2.936-3.48s-1.02-3.258-1.02-5.238c0-3.117,0.756-5.546,2.268-7.286s3.586-2.61,6.223-2.61
		c2.625,0,4.685,0.882,6.179,2.646S117.287,155.521,117.287,158.592z M102.205,158.592c0,2.625,0.577,4.673,1.731,6.144
		s2.786,2.206,4.896,2.206s3.741-0.735,4.896-2.206s1.731-3.519,1.731-6.144c0-2.637-0.583-4.682-1.749-6.135
		s-2.804-2.18-4.913-2.18s-3.735,0.724-4.878,2.171S102.205,155.943,102.205,158.592z"/>
	<path d="M124.318,168.172h-1.74V140.82h1.74V168.172z"/>
	<path d="M132.457,168.172h-1.74V140.82h1.74V168.172z"/>
	<path d="M155.203,148.695c1.383,0,2.578,0.252,3.586,0.756s1.91,1.365,2.707,2.584h0.105c-0.07-1.477-0.105-2.924-0.105-4.342
		v-6.873h1.723v27.352h-1.143l-0.439-2.918h-0.141c-1.453,2.18-3.539,3.27-6.258,3.27c-2.637,0-4.652-0.82-6.047-2.461
		s-2.092-4.031-2.092-7.172c0-3.305,0.691-5.83,2.074-7.576S152.566,148.695,155.203,148.695z M155.203,150.277
		c-2.086,0-3.653,0.732-4.702,2.197s-1.573,3.592-1.573,6.381c0,5.414,2.104,8.121,6.311,8.121c2.156,0,3.738-0.627,4.746-1.881
		s1.512-3.322,1.512-6.205v-0.299c0-2.953-0.495-5.077-1.485-6.372S157.418,150.277,155.203,150.277z"/>
	<path d="M185.438,158.592c0,3.117-0.756,5.552-2.268,7.304s-3.598,2.628-6.258,2.628c-1.676,0-3.152-0.404-4.43-1.213
		s-2.256-1.969-2.936-3.48s-1.02-3.258-1.02-5.238c0-3.117,0.756-5.546,2.268-7.286s3.586-2.61,6.223-2.61
		c2.625,0,4.685,0.882,6.179,2.646S185.438,155.521,185.438,158.592z M170.355,158.592c0,2.625,0.577,4.673,1.731,6.144
		s2.786,2.206,4.896,2.206s3.741-0.735,4.896-2.206s1.731-3.519,1.731-6.144c0-2.637-0.583-4.682-1.749-6.135
		s-2.804-2.18-4.913-2.18s-3.735,0.724-4.878,2.171S170.355,155.943,170.355,158.592z"/>
	<path d="M206.004,168.172l-4.184-12.779c-0.27-0.867-0.615-2.139-1.037-3.814h-0.105l-0.369,1.301l-0.791,2.549l-4.254,12.744
		h-1.723l-5.467-19.107h1.863l3.059,11.074c0.715,2.742,1.184,4.758,1.406,6.047h0.105c0.691-2.742,1.195-4.564,1.512-5.467
		l3.938-11.654h1.582l3.744,11.619c0.844,2.754,1.359,4.576,1.547,5.467h0.105c0.094-0.762,0.562-2.801,1.406-6.117l2.918-10.969
		h1.758l-5.186,19.107H206.004z"/>
	<path d="M230.086,168.172v-12.393c0-1.922-0.404-3.319-1.213-4.192s-2.062-1.31-3.762-1.31c-2.285,0-3.958,0.577-5.019,1.731
		s-1.591,3.026-1.591,5.616v10.547h-1.74v-19.107h1.477l0.334,2.619h0.105c1.242-1.992,3.451-2.988,6.627-2.988
		c4.336,0,6.504,2.326,6.504,6.979v12.498H230.086z"/>
	<path d="M252.393,166.977c1.102,0,2.062-0.094,2.883-0.281v1.406c-0.844,0.281-1.816,0.422-2.918,0.422
		c-1.688,0-2.933-0.451-3.735-1.354s-1.204-2.32-1.204-4.254v-12.34h-2.83v-1.02l2.83-0.791l0.879-4.324h0.896v4.623h5.607v1.512
		h-5.607v12.094c0,1.465,0.258,2.549,0.773,3.252S251.291,166.977,252.393,166.977z"/>
	<path d="M275.209,158.592c0,3.117-0.756,5.552-2.268,7.304s-3.598,2.628-6.258,2.628c-1.676,0-3.152-0.404-4.43-1.213
		s-2.256-1.969-2.936-3.48s-1.02-3.258-1.02-5.238c0-3.117,0.756-5.546,2.268-7.286s3.586-2.61,6.223-2.61
		c2.625,0,4.685,0.882,6.179,2.646S275.209,155.521,275.209,158.592z M260.127,158.592c0,2.625,0.577,4.673,1.731,6.144
		s2.786,2.206,4.896,2.206s3.741-0.735,4.896-2.206s1.731-3.519,1.731-6.144c0-2.637-0.583-4.682-1.749-6.135
		s-2.804-2.18-4.913-2.18s-3.735,0.724-4.878,2.171S260.127,155.943,260.127,158.592z"/>
	<path d="M294.896,166.977c1.102,0,2.062-0.094,2.883-0.281v1.406c-0.844,0.281-1.816,0.422-2.918,0.422
		c-1.688,0-2.933-0.451-3.735-1.354s-1.204-2.32-1.204-4.254v-12.34h-2.83v-1.02l2.83-0.791l0.879-4.324h0.896v4.623h5.607v1.512
		h-5.607v12.094c0,1.465,0.258,2.549,0.773,3.252S293.795,166.977,294.896,166.977z"/>
	<path d="M315.234,168.172v-12.393c0-1.922-0.404-3.319-1.213-4.192s-2.062-1.31-3.762-1.31c-2.285,0-3.958,0.577-5.019,1.731
		s-1.591,3.026-1.591,5.616v10.547h-1.74V140.82h1.74v8.701l-0.088,2.443h0.123c0.715-1.148,1.617-1.98,2.707-2.496
		s2.443-0.773,4.061-0.773c4.336,0,6.504,2.326,6.504,6.979v12.498H315.234z"/>
	<path d="M330.861,168.523c-2.777,0-4.942-0.855-6.495-2.566s-2.329-4.107-2.329-7.189c0-3.047,0.75-5.487,2.25-7.321
		s3.521-2.751,6.064-2.751c2.25,0,4.025,0.785,5.326,2.355s1.951,3.703,1.951,6.398v1.406h-13.764
		c0.023,2.625,0.636,4.629,1.837,6.012s2.921,2.074,5.159,2.074c1.09,0,2.048-0.076,2.874-0.229s1.872-0.48,3.138-0.984v1.582
		c-1.078,0.469-2.074,0.788-2.988,0.958S331.963,168.523,330.861,168.523z M330.352,150.242c-1.84,0-3.316,0.606-4.43,1.819
		s-1.764,2.962-1.951,5.247h11.812c0-2.215-0.48-3.946-1.441-5.194S332.051,150.242,330.352,150.242z"/>
	<path d="M360.322,148.695c2.672,0,4.685,0.841,6.038,2.522s2.03,4.14,2.03,7.374c0,3.176-0.712,5.625-2.136,7.348
		s-3.425,2.584-6.003,2.584c-1.359,0-2.584-0.281-3.674-0.844s-1.951-1.359-2.584-2.391h-0.158l-0.492,2.883h-1.09V140.82h1.74
		v6.873c0,1.031-0.023,1.98-0.07,2.848l-0.053,1.494h0.123c0.727-1.148,1.603-1.992,2.628-2.531S358.881,148.695,360.322,148.695z
		 M360.287,150.277c-2.25,0-3.861,0.645-4.834,1.934s-1.459,3.416-1.459,6.381v0.299c0,2.883,0.507,4.951,1.521,6.205
		s2.593,1.881,4.737,1.881c2.086,0,3.656-0.729,4.711-2.188s1.582-3.536,1.582-6.231
		C366.545,153.037,364.459,150.277,360.287,150.277z"/>
	<path d="M389.484,158.592c0,3.117-0.756,5.552-2.268,7.304s-3.598,2.628-6.258,2.628c-1.676,0-3.152-0.404-4.43-1.213
		s-2.256-1.969-2.936-3.48s-1.02-3.258-1.02-5.238c0-3.117,0.756-5.546,2.268-7.286s3.586-2.61,6.223-2.61
		c2.625,0,4.685,0.882,6.179,2.646S389.484,155.521,389.484,158.592z M374.402,158.592c0,2.625,0.577,4.673,1.731,6.144
		s2.786,2.206,4.896,2.206s3.741-0.735,4.896-2.206s1.731-3.519,1.731-6.144c0-2.637-0.583-4.682-1.749-6.135
		s-2.804-2.18-4.913-2.18s-3.735,0.724-4.878,2.171S374.402,155.943,374.402,158.592z"/>
	<path d="M399.82,166.977c1.102,0,2.062-0.094,2.883-0.281v1.406c-0.844,0.281-1.816,0.422-2.918,0.422
		c-1.688,0-2.933-0.451-3.735-1.354s-1.204-2.32-1.204-4.254v-12.34h-2.83v-1.02l2.83-0.791l0.879-4.324h0.896v4.623h5.607v1.512
		h-5.607v12.094c0,1.465,0.258,2.549,0.773,3.252S398.719,166.977,399.82,166.977z"/>
	<path d="M411.879,166.977c1.102,0,2.062-0.094,2.883-0.281v1.406c-0.844,0.281-1.816,0.422-2.918,0.422
		c-1.688,0-2.933-0.451-3.735-1.354s-1.204-2.32-1.204-4.254v-12.34h-2.83v-1.02l2.83-0.791l0.879-4.324h0.896v4.623h5.607v1.512
		h-5.607v12.094c0,1.465,0.258,2.549,0.773,3.252S410.777,166.977,411.879,166.977z"/>
	<path d="M434.695,158.592c0,3.117-0.756,5.552-2.268,7.304s-3.598,2.628-6.258,2.628c-1.676,0-3.152-0.404-4.43-1.213
		s-2.256-1.969-2.936-3.48s-1.02-3.258-1.02-5.238c0-3.117,0.756-5.546,2.268-7.286s3.586-2.61,6.223-2.61
		c2.625,0,4.685,0.882,6.179,2.646S434.695,155.521,434.695,158.592z M419.613,158.592c0,2.625,0.577,4.673,1.731,6.144
		s2.786,2.206,4.896,2.206s3.741-0.735,4.896-2.206s1.731-3.519,1.731-6.144c0-2.637-0.583-4.682-1.749-6.135
		s-2.804-2.18-4.913-2.18s-3.735,0.724-4.878,2.171S419.613,155.943,419.613,158.592z"/>
	<path d="M463.857,168.172v-12.533c0-1.863-0.363-3.223-1.09-4.078s-1.84-1.283-3.34-1.283c-1.957,0-3.404,0.539-4.342,1.617
		s-1.406,2.771-1.406,5.08v11.197h-1.775v-13.061c0-3.223-1.477-4.834-4.43-4.834c-2.004,0-3.463,0.583-4.377,1.749
		s-1.371,3.032-1.371,5.599v10.547h-1.74v-19.107h1.441l0.369,2.619h0.105c0.527-0.949,1.277-1.685,2.25-2.206
		s2.045-0.782,3.217-0.782c3.012,0,4.945,1.131,5.801,3.393h0.07c0.621-1.09,1.456-1.928,2.505-2.514s2.241-0.879,3.577-0.879
		c2.086,0,3.65,0.557,4.693,1.67s1.564,2.883,1.564,5.309v12.498H463.857z"/>
</g>
<g>
	<path d="M61.301,277.884h9.475v11.725c-2.484,1.055-5.279,1.582-8.385,1.582c-4.055,0-7.163-1.146-9.325-3.437
		s-3.243-5.534-3.243-9.729c0-2.613,0.536-4.931,1.608-6.952s2.607-3.583,4.605-4.685s4.292-1.652,6.882-1.652
		c2.801,0,5.314,0.516,7.541,1.547l-0.721,1.617c-2.227-1.031-4.535-1.547-6.926-1.547c-3.387,0-6.073,1.046-8.06,3.138
		s-2.979,4.913-2.979,8.464c0,3.867,0.943,6.776,2.83,8.728s4.658,2.927,8.314,2.927c2.367,0,4.377-0.334,6.029-1.002v-9.035h-7.646
		V277.884z"/>
	<path d="M92.59,281.259c0,3.117-0.756,5.552-2.268,7.304s-3.598,2.628-6.258,2.628c-1.676,0-3.152-0.404-4.43-1.213
		s-2.256-1.969-2.936-3.48s-1.02-3.258-1.02-5.238c0-3.117,0.756-5.546,2.268-7.286s3.586-2.61,6.223-2.61
		c2.625,0,4.685,0.882,6.179,2.646S92.59,278.188,92.59,281.259z M77.508,281.259c0,2.625,0.577,4.673,1.731,6.144
		s2.786,2.206,4.896,2.206s3.741-0.735,4.896-2.206s1.731-3.519,1.731-6.144c0-2.637-0.583-4.682-1.749-6.135
		s-2.804-2.18-4.913-2.18s-3.735,0.724-4.878,2.171S77.508,278.61,77.508,281.259z"/>
	<path d="M112.277,289.644c1.102,0,2.062-0.094,2.883-0.281v1.406c-0.844,0.281-1.816,0.422-2.918,0.422
		c-1.688,0-2.933-0.451-3.735-1.354s-1.204-2.32-1.204-4.254v-12.34h-2.83v-1.02l2.83-0.791l0.879-4.324h0.896v4.623h5.607v1.512
		h-5.607v12.094c0,1.465,0.258,2.549,0.773,3.252S111.176,289.644,112.277,289.644z"/>
	<path d="M135.094,281.259c0,3.117-0.756,5.552-2.268,7.304s-3.598,2.628-6.258,2.628c-1.676,0-3.152-0.404-4.43-1.213
		s-2.256-1.969-2.936-3.48s-1.02-3.258-1.02-5.238c0-3.117,0.756-5.546,2.268-7.286s3.586-2.61,6.223-2.61
		c2.625,0,4.685,0.882,6.179,2.646S135.094,278.188,135.094,281.259z M120.012,281.259c0,2.625,0.577,4.673,1.731,6.144
		s2.786,2.206,4.896,2.206s3.741-0.735,4.896-2.206s1.731-3.519,1.731-6.144c0-2.637-0.583-4.682-1.749-6.135
		s-2.804-2.18-4.913-2.18s-3.735,0.724-4.878,2.171S120.012,278.61,120.012,281.259z"/>
	<path d="M151.477,290.839h-1.74v-27.352h1.74V290.839z"/>
	<path d="M173.678,281.259c0,3.117-0.756,5.552-2.268,7.304s-3.598,2.628-6.258,2.628c-1.676,0-3.152-0.404-4.43-1.213
		s-2.256-1.969-2.936-3.48s-1.02-3.258-1.02-5.238c0-3.117,0.756-5.546,2.268-7.286s3.586-2.61,6.223-2.61
		c2.625,0,4.685,0.882,6.179,2.646S173.678,278.188,173.678,281.259z M158.596,281.259c0,2.625,0.577,4.673,1.731,6.144
		s2.786,2.206,4.896,2.206s3.741-0.735,4.896-2.206s1.731-3.519,1.731-6.144c0-2.637-0.583-4.682-1.749-6.135
		s-2.804-2.18-4.913-2.18s-3.735,0.724-4.878,2.171S158.596,278.61,158.596,281.259z"/>
	<path d="M186.598,291.19c-2.73,0-4.869-0.861-6.416-2.584s-2.32-4.125-2.32-7.207c0-3.164,0.803-5.628,2.408-7.392
		s3.803-2.646,6.592-2.646c1.652,0,3.234,0.287,4.746,0.861l-0.475,1.547c-1.652-0.551-3.088-0.826-4.307-0.826
		c-2.344,0-4.119,0.724-5.326,2.171s-1.811,3.53-1.811,6.249c0,2.578,0.604,4.597,1.811,6.056s2.895,2.188,5.062,2.188
		c1.734,0,3.346-0.311,4.834-0.932v1.617C190.178,290.892,188.578,291.19,186.598,291.19z"/>
	<path d="M207.674,290.839l-0.439-3.023h-0.141c-0.961,1.23-1.948,2.101-2.962,2.61s-2.212,0.765-3.595,0.765
		c-1.875,0-3.334-0.48-4.377-1.441s-1.564-2.291-1.564-3.99c0-1.863,0.776-3.311,2.329-4.342s3.8-1.576,6.741-1.635l3.639-0.105
		v-1.266c0-1.816-0.369-3.188-1.107-4.113s-1.928-1.389-3.568-1.389c-1.77,0-3.604,0.492-5.502,1.477l-0.65-1.512
		c2.098-0.984,4.172-1.477,6.223-1.477c2.098,0,3.665,0.545,4.702,1.635s1.556,2.789,1.556,5.098v12.709H207.674z M200.643,289.608
		c2.039,0,3.647-0.583,4.825-1.749s1.767-2.786,1.767-4.86v-1.881l-3.34,0.141c-2.684,0.129-4.597,0.548-5.739,1.257
		s-1.714,1.813-1.714,3.313c0,1.195,0.366,2.124,1.099,2.786S199.307,289.608,200.643,289.608z"/>
	<path d="M220.189,289.644c1.102,0,2.062-0.094,2.883-0.281v1.406c-0.844,0.281-1.816,0.422-2.918,0.422
		c-1.688,0-2.933-0.451-3.735-1.354s-1.204-2.32-1.204-4.254v-12.34h-2.83v-1.02l2.83-0.791l0.879-4.324h0.896v4.623h5.607v1.512
		h-5.607v12.094c0,1.465,0.258,2.549,0.773,3.252S219.088,289.644,220.189,289.644z"/>
	<path d="M226.957,266.423c0-1.125,0.369-1.688,1.107-1.688c0.363,0,0.647,0.146,0.853,0.439s0.308,0.709,0.308,1.248
		c0,0.527-0.103,0.943-0.308,1.248s-0.489,0.457-0.853,0.457C227.326,268.128,226.957,267.56,226.957,266.423z M228.943,290.839
		h-1.74v-19.107h1.74V290.839z"/>
	<path d="M251.145,281.259c0,3.117-0.756,5.552-2.268,7.304s-3.598,2.628-6.258,2.628c-1.676,0-3.152-0.404-4.43-1.213
		s-2.256-1.969-2.936-3.48s-1.02-3.258-1.02-5.238c0-3.117,0.756-5.546,2.268-7.286s3.586-2.61,6.223-2.61
		c2.625,0,4.685,0.882,6.179,2.646S251.145,278.188,251.145,281.259z M236.062,281.259c0,2.625,0.577,4.673,1.731,6.144
		s2.786,2.206,4.896,2.206s3.741-0.735,4.896-2.206s1.731-3.519,1.731-6.144c0-2.637-0.583-4.682-1.749-6.135
		s-2.804-2.18-4.913-2.18s-3.735,0.724-4.878,2.171S236.062,278.61,236.062,281.259z"/>
	<path d="M269.76,290.839v-12.393c0-1.922-0.404-3.319-1.213-4.192s-2.062-1.31-3.762-1.31c-2.285,0-3.958,0.577-5.019,1.731
		s-1.591,3.026-1.591,5.616v10.547h-1.74v-19.107h1.477l0.334,2.619h0.105c1.242-1.992,3.451-2.988,6.627-2.988
		c4.336,0,6.504,2.326,6.504,6.979v12.498H269.76z"/>
	<path d="M285.984,284.317c0-1.617,0.431-2.994,1.292-4.131s2.47-2.338,4.825-3.604l-1.318-1.441
		c-0.773-0.832-1.348-1.646-1.723-2.443s-0.562-1.629-0.562-2.496c0-1.676,0.56-3.006,1.679-3.99s2.622-1.477,4.509-1.477
		c1.816,0,3.255,0.475,4.315,1.424s1.591,2.262,1.591,3.938c0,1.23-0.41,2.358-1.23,3.384s-2.303,2.165-4.447,3.419l7.945,8.033
		c0.715-0.844,1.324-1.764,1.828-2.76s0.943-2.174,1.318-3.533h1.688c-0.738,2.883-1.963,5.379-3.674,7.488l4.676,4.711h-2.373
		l-3.393-3.463c-1.078,1.055-2.039,1.825-2.883,2.312s-1.767,0.858-2.769,1.116s-2.142,0.387-3.419,0.387
		c-2.449,0-4.374-0.604-5.774-1.811S285.984,286.485,285.984,284.317z M293.982,289.608c1.5,0,2.874-0.255,4.122-0.765
		s2.476-1.368,3.683-2.575l-8.49-8.525c-1.594,0.844-2.745,1.562-3.454,2.153s-1.225,1.233-1.547,1.925s-0.483,1.5-0.483,2.426
		c0,1.676,0.545,2.988,1.635,3.938S292.049,289.608,293.982,289.608z M290.379,270.167c0,0.926,0.234,1.781,0.703,2.566
		s1.359,1.805,2.672,3.059c1.863-0.996,3.158-1.928,3.885-2.795s1.09-1.857,1.09-2.971c0-1.102-0.363-1.995-1.09-2.681
		s-1.711-1.028-2.953-1.028c-1.336,0-2.388,0.34-3.155,1.02S290.379,268.96,290.379,270.167z"/>
	<path d="M330.211,291.19c-2.941,0-5.086-1.102-6.434-3.305h-0.123l0.053,1.477c0.047,0.867,0.07,1.816,0.07,2.848v7.277h-1.74
		v-27.756h1.477l0.334,2.725h0.105c1.312-2.062,3.41-3.094,6.293-3.094c2.578,0,4.544,0.847,5.897,2.54s2.03,4.157,2.03,7.392
		c0,3.141-0.712,5.575-2.136,7.304S332.672,291.19,330.211,291.19z M330.176,289.644c1.957,0,3.472-0.727,4.544-2.18
		s1.608-3.486,1.608-6.1c0-5.613-2.027-8.42-6.082-8.42c-2.227,0-3.861,0.612-4.904,1.837s-1.564,3.22-1.564,5.985v0.562
		c0,2.988,0.501,5.121,1.503,6.398S327.914,289.644,330.176,289.644z"/>
	<path d="M343.219,266.423c0-1.125,0.369-1.688,1.107-1.688c0.363,0,0.647,0.146,0.853,0.439s0.308,0.709,0.308,1.248
		c0,0.527-0.103,0.943-0.308,1.248s-0.489,0.457-0.853,0.457C343.588,268.128,343.219,267.56,343.219,266.423z M345.205,290.839
		h-1.74v-19.107h1.74V290.839z"/>
	<path d="M359.232,291.19c-2.73,0-4.869-0.861-6.416-2.584s-2.32-4.125-2.32-7.207c0-3.164,0.803-5.628,2.408-7.392
		s3.803-2.646,6.592-2.646c1.652,0,3.234,0.287,4.746,0.861l-0.475,1.547c-1.652-0.551-3.088-0.826-4.307-0.826
		c-2.344,0-4.119,0.724-5.326,2.171s-1.811,3.53-1.811,6.249c0,2.578,0.604,4.597,1.811,6.056s2.895,2.188,5.062,2.188
		c1.734,0,3.346-0.311,4.834-0.932v1.617C362.812,290.892,361.213,291.19,359.232,291.19z"/>
	<path d="M370.412,282.454l9.756-10.723h2.109l-7.523,8.156l8.174,10.951h-2.092l-7.26-9.65l-3.129,2.848v6.803h-1.74v-27.352h1.74
		v13.711l-0.123,5.256H370.412z"/>
	<path d="M396.99,271.731v12.375c0,1.922,0.404,3.319,1.213,4.192s2.062,1.31,3.762,1.31c2.273,0,3.946-0.574,5.019-1.723
		s1.608-3.018,1.608-5.607v-10.547h1.723v19.107h-1.477l-0.316-2.637h-0.105c-1.242,1.992-3.451,2.988-6.627,2.988
		c-4.348,0-6.521-2.326-6.521-6.979v-12.48H396.99z"/>
	<path d="M424.887,291.19c-2.941,0-5.086-1.102-6.434-3.305h-0.123l0.053,1.477c0.047,0.867,0.07,1.816,0.07,2.848v7.277h-1.74
		v-27.756h1.477l0.334,2.725h0.105c1.312-2.062,3.41-3.094,6.293-3.094c2.578,0,4.544,0.847,5.897,2.54s2.03,4.157,2.03,7.392
		c0,3.141-0.712,5.575-2.136,7.304S427.348,291.19,424.887,291.19z M424.852,289.644c1.957,0,3.472-0.727,4.544-2.18
		s1.608-3.486,1.608-6.1c0-5.613-2.027-8.42-6.082-8.42c-2.227,0-3.861,0.612-4.904,1.837s-1.564,3.22-1.564,5.985v0.562
		c0,2.988,0.501,5.121,1.503,6.398S422.59,289.644,424.852,289.644z"/>
	<path d="M463.295,281.259c0,3.117-0.756,5.552-2.268,7.304s-3.598,2.628-6.258,2.628c-1.676,0-3.152-0.404-4.43-1.213
		s-2.256-1.969-2.936-3.48s-1.02-3.258-1.02-5.238c0-3.117,0.756-5.546,2.268-7.286s3.586-2.61,6.223-2.61
		c2.625,0,4.685,0.882,6.179,2.646S463.295,278.188,463.295,281.259z M448.213,281.259c0,2.625,0.577,4.673,1.731,6.144
		s2.786,2.206,4.896,2.206s3.741-0.735,4.896-2.206s1.731-3.519,1.731-6.144c0-2.637-0.583-4.682-1.749-6.135
		s-2.804-2.18-4.913-2.18s-3.735,0.724-4.878,2.171S448.213,278.61,448.213,281.259z"/>
	<path d="M476.109,271.362c0.809,0,1.676,0.082,2.602,0.246l-0.334,1.67c-0.797-0.199-1.623-0.299-2.479-0.299
		c-1.629,0-2.965,0.691-4.008,2.074s-1.564,3.129-1.564,5.238v10.547h-1.74v-19.107h1.477l0.176,3.445h0.123
		c0.785-1.406,1.623-2.394,2.514-2.962S474.844,271.362,476.109,271.362z"/>
	<path d="M489.592,271.362c1.383,0,2.578,0.252,3.586,0.756s1.91,1.365,2.707,2.584h0.105c-0.07-1.477-0.105-2.924-0.105-4.342
		v-6.873h1.723v27.352h-1.143l-0.439-2.918h-0.141c-1.453,2.18-3.539,3.27-6.258,3.27c-2.637,0-4.652-0.82-6.047-2.461
		s-2.092-4.031-2.092-7.172c0-3.305,0.691-5.83,2.074-7.576S486.955,271.362,489.592,271.362z M489.592,272.944
		c-2.086,0-3.653,0.732-4.702,2.197s-1.573,3.592-1.573,6.381c0,5.414,2.104,8.121,6.311,8.121c2.156,0,3.738-0.627,4.746-1.881
		s1.512-3.322,1.512-6.205v-0.299c0-2.953-0.495-5.077-1.485-6.372S491.807,272.944,489.592,272.944z"/>
	<path d="M511.74,291.19c-2.777,0-4.942-0.855-6.495-2.566s-2.329-4.107-2.329-7.189c0-3.047,0.75-5.487,2.25-7.321
		s3.521-2.751,6.064-2.751c2.25,0,4.025,0.785,5.326,2.355s1.951,3.703,1.951,6.398v1.406h-13.764
		c0.023,2.625,0.636,4.629,1.837,6.012s2.921,2.074,5.159,2.074c1.09,0,2.048-0.076,2.874-0.229s1.872-0.48,3.138-0.984v1.582
		c-1.078,0.469-2.074,0.788-2.988,0.958S512.842,291.19,511.74,291.19z M511.23,272.909c-1.84,0-3.316,0.606-4.43,1.819
		s-1.764,2.962-1.951,5.247h11.812c0-2.215-0.48-3.946-1.441-5.194S512.93,272.909,511.23,272.909z"/>
	<path d="M531.305,271.362c0.809,0,1.676,0.082,2.602,0.246l-0.334,1.67c-0.797-0.199-1.623-0.299-2.479-0.299
		c-1.629,0-2.965,0.691-4.008,2.074s-1.564,3.129-1.564,5.238v10.547h-1.74v-19.107h1.477l0.176,3.445h0.123
		c0.785-1.406,1.623-2.394,2.514-2.962S530.039,271.362,531.305,271.362z"/>
	<path d="M537.475,289.468c0-1.148,0.469-1.723,1.406-1.723c0.961,0,1.441,0.574,1.441,1.723s-0.48,1.723-1.441,1.723
		C537.943,291.19,537.475,290.616,537.475,289.468z M539.443,284.212h-1.072l-0.51-19.072h2.092L539.443,284.212z"/>
</g>
<g>
	<path d="M22.047,44.556h-1.148v-12.48c0-1.133,0.047-2.309,0.141-3.527c-0.117,0.117-0.238,0.23-0.363,0.34
		s-1.332,1.059-3.621,2.848l-0.668-0.832l4.652-3.48h1.008V44.556z"/>
	<circle class="st0" cx="20.217" cy="35.989" r="14.34"/>
</g>
<g>
	<path d="M25.579,164.171H14.856v-1.031l4.559-4.758c1.281-1.328,2.18-2.344,2.695-3.047s0.895-1.375,1.137-2.016
		s0.363-1.312,0.363-2.016c0-1.023-0.336-1.855-1.008-2.496s-1.543-0.961-2.613-0.961c-1.43,0-2.797,0.52-4.102,1.559l-0.633-0.809
		c1.43-1.203,3.016-1.805,4.758-1.805c1.492,0,2.666,0.398,3.521,1.195s1.283,1.895,1.283,3.293c0,1.133-0.287,2.229-0.861,3.287
		s-1.623,2.365-3.146,3.92l-4.395,4.512v0.047h9.164V164.171z"/>
	<circle class="st0" cx="20.217" cy="156.482" r="14.34"/>
</g>
<g>
	<path d="M25.139,276.959c0,1.062-0.334,1.957-1.002,2.684s-1.564,1.191-2.689,1.395v0.07c1.375,0.172,2.422,0.609,3.141,1.312
		s1.078,1.648,1.078,2.836c0,1.602-0.545,2.842-1.635,3.721s-2.658,1.318-4.705,1.318c-1.742,0-3.262-0.324-4.559-0.973v-1.16
		c0.656,0.344,1.393,0.613,2.209,0.809s1.584,0.293,2.303,0.293c1.727,0,3.023-0.35,3.891-1.049s1.301-1.686,1.301-2.959
		c0-1.133-0.443-2.004-1.33-2.613s-2.189-0.914-3.908-0.914h-1.852v-1.125h1.875c1.422,0,2.549-0.338,3.381-1.014
		s1.248-1.592,1.248-2.748c0-0.953-0.338-1.717-1.014-2.291s-1.561-0.861-2.654-0.861c-0.852,0-1.629,0.119-2.332,0.357
		s-1.492,0.646-2.367,1.225l-0.574-0.785c0.664-0.555,1.465-0.994,2.402-1.318s1.887-0.486,2.848-0.486
		c1.578,0,2.797,0.373,3.656,1.119S25.139,275.6,25.139,276.959z"/>
	<circle class="st0" cx="20.217" cy="281.101" r="14.34"/>
</g>
<g>
	<g>
		<line class="st0" x1="20.217" y1="71.206" x2="20.217" y2="114.09"/>
		<g>
			<polygon points="15.231,112.631 20.217,121.266 25.204,112.631 			"/>
		</g>
	</g>
</g>
<g>
	<g>
		<line class="st0" x1="20.217" y1="198.561" x2="20.217" y2="241.445"/>
		<g>
			<polygon points="15.231,239.986 20.217,248.621 25.204,239.986 			"/>
		</g>
	</g>
</g>
<rect class="st1" width="547.457" height="341"/>
</svg>