<!-- Generator: Adobe Illustrator 21.0.0, SVG Export Plug-In  -->
<svg version="1.1"
	 xmlns="http://www.w3.org/2000/svg" xmlns:xlink="http://www.w3.org/1999/xlink" xmlns:a="http://ns.adobe.com/AdobeSVGViewerExtensions/3.0/"
	 x="0px" y="0px" width="809.023px" height="77.996px" viewBox="0 0 809.023 77.996"
	 style="enable-background:new 0 0 809.023 77.996;" xml:space="preserve">
<defs>
</defs>
<g>
	<g>
		<path d="M548.259,45.236h-2.414v-4.93h-4.523v4.93H538.9V33.814h2.422v4.477h4.523v-4.477h2.414V45.236z"/>
	</g>
	<g>
		<path d="M560.492,40.853c0,1.422-0.375,2.534-1.125,3.336s-1.794,1.203-3.133,1.203c-0.839,0-1.578-0.184-2.219-0.551
			s-1.133-0.895-1.477-1.582s-0.516-1.489-0.516-2.406c0-1.427,0.372-2.536,1.117-3.328s1.792-1.188,3.141-1.188
			c0.839,0,1.578,0.183,2.219,0.547s1.133,0.888,1.477,1.57S560.492,39.936,560.492,40.853z M554.453,40.853
			c0,0.864,0.142,1.519,0.426,1.961s0.746,0.664,1.387,0.664c0.636,0,1.093-0.22,1.371-0.66s0.418-1.095,0.418-1.965
			c0-0.864-0.141-1.513-0.422-1.945s-0.742-0.648-1.383-0.648c-0.636,0-1.094,0.215-1.375,0.645S554.453,39.983,554.453,40.853z"/>
	</g>
	<g>
		<path d="M571.241,45.236l-0.672-3.055l-0.906-3.859h-0.055l-1.594,6.914h-2.562l-2.484-8.734h2.375l1.008,3.867
			c0.161,0.692,0.325,1.648,0.492,2.867h0.047c0.021-0.396,0.112-1.023,0.273-1.883l0.125-0.664l1.078-4.188h2.625l1.023,4.188
			c0.021,0.114,0.054,0.284,0.098,0.508s0.087,0.462,0.129,0.715s0.079,0.5,0.113,0.742s0.054,0.437,0.059,0.582h0.047
			c0.047-0.375,0.13-0.89,0.25-1.543s0.206-1.095,0.258-1.324l1.047-3.867h2.336l-2.516,8.734H571.241z"/>
	</g>
	<g>
		<path d="M588.793,43.494c0.417,0,0.917-0.091,1.5-0.273v1.773c-0.594,0.266-1.323,0.398-2.188,0.398
			c-0.953,0-1.647-0.241-2.082-0.723s-0.652-1.204-0.652-2.168V38.29h-1.141v-1.008l1.312-0.797l0.688-1.844h1.523v1.859h2.445
			v1.789h-2.445v4.211c0,0.339,0.095,0.589,0.285,0.75S588.48,43.494,588.793,43.494z"/>
	</g>
	<g>
		<path d="M601.595,40.853c0,1.422-0.375,2.534-1.125,3.336s-1.794,1.203-3.133,1.203c-0.839,0-1.578-0.184-2.219-0.551
			s-1.133-0.895-1.477-1.582s-0.516-1.489-0.516-2.406c0-1.427,0.372-2.536,1.117-3.328s1.792-1.188,3.141-1.188
			c0.839,0,1.578,0.183,2.219,0.547s1.133,0.888,1.477,1.57S601.595,39.936,601.595,40.853z M595.556,40.853
			c0,0.864,0.142,1.519,0.426,1.961s0.746,0.664,1.387,0.664c0.636,0,1.093-0.22,1.371-0.66s0.418-1.095,0.418-1.965
			c0-0.864-0.141-1.513-0.422-1.945s-0.742-0.648-1.383-0.648c-0.636,0-1.094,0.215-1.375,0.645S595.556,39.983,595.556,40.853z"/>
	</g>
	<g>
		<path d="M618.858,40.853c0,1.422-0.375,2.534-1.125,3.336s-1.794,1.203-3.133,1.203c-0.839,0-1.578-0.184-2.219-0.551
			s-1.133-0.895-1.477-1.582s-0.516-1.489-0.516-2.406c0-1.427,0.372-2.536,1.117-3.328s1.792-1.188,3.141-1.188
			c0.839,0,1.578,0.183,2.219,0.547s1.133,0.888,1.477,1.57S618.858,39.936,618.858,40.853z M612.819,40.853
			c0,0.864,0.142,1.519,0.426,1.961s0.746,0.664,1.387,0.664c0.636,0,1.093-0.22,1.371-0.66s0.418-1.095,0.418-1.965
			c0-0.864-0.141-1.513-0.422-1.945s-0.742-0.648-1.383-0.648c-0.636,0-1.094,0.215-1.375,0.645S612.819,39.983,612.819,40.853z"/>
	</g>
	<g>
		<path d="M627.301,36.337c0.323,0,0.591,0.023,0.805,0.07l-0.18,2.234c-0.192-0.052-0.427-0.078-0.703-0.078
			c-0.761,0-1.353,0.195-1.777,0.586s-0.637,0.938-0.637,1.641v4.445h-2.383v-8.734h1.805l0.352,1.469h0.117
			c0.271-0.489,0.637-0.884,1.098-1.184S626.759,36.337,627.301,36.337z"/>
	</g>
	<g>
		<path d="M634.058,45.392c-1.026,0-1.832-0.398-2.418-1.195s-0.879-1.901-0.879-3.312c0-1.433,0.298-2.548,0.895-3.348
			s1.418-1.199,2.465-1.199c1.099,0,1.938,0.427,2.516,1.281h0.078c-0.12-0.651-0.18-1.231-0.18-1.742v-2.797h2.391v12.156h-1.828
			l-0.461-1.133h-0.102C635.993,44.962,635.168,45.392,634.058,45.392z M634.894,43.494c0.609,0,1.056-0.177,1.34-0.531
			s0.438-0.956,0.465-1.805V40.9c0-0.938-0.145-1.609-0.434-2.016s-0.759-0.609-1.41-0.609c-0.531,0-0.944,0.226-1.238,0.676
			s-0.441,1.105-0.441,1.965s0.148,1.504,0.445,1.934S634.342,43.494,634.894,43.494z"/>
	</g>
	<g>
		<path d="M646.97,45.392c-1.406,0-2.505-0.388-3.297-1.164s-1.188-1.875-1.188-3.297c0-1.464,0.366-2.595,1.098-3.395
			s1.743-1.199,3.035-1.199c1.234,0,2.195,0.352,2.883,1.055s1.031,1.675,1.031,2.914v1.156H644.9
			c0.026,0.677,0.227,1.206,0.602,1.586s0.901,0.57,1.578,0.57c0.526,0,1.023-0.055,1.492-0.164s0.958-0.284,1.469-0.523v1.844
			c-0.417,0.208-0.862,0.363-1.336,0.465S647.653,45.392,646.97,45.392z M646.634,38.033c-0.505,0-0.901,0.16-1.188,0.48
			s-0.45,0.774-0.492,1.363h3.344c-0.011-0.589-0.164-1.043-0.461-1.363S647.139,38.033,646.634,38.033z"/>
	</g>
	<g>
		<path d="M658.945,36.337c0.323,0,0.591,0.023,0.805,0.07l-0.18,2.234c-0.192-0.052-0.427-0.078-0.703-0.078
			c-0.761,0-1.353,0.195-1.777,0.586s-0.637,0.938-0.637,1.641v4.445h-2.383v-8.734h1.805l0.352,1.469h0.117
			c0.271-0.489,0.637-0.884,1.098-1.184S658.403,36.337,658.945,36.337z"/>
	</g>
	<g>
		<path d="M676.629,40.853c0,1.422-0.375,2.534-1.125,3.336s-1.794,1.203-3.133,1.203c-0.839,0-1.578-0.184-2.219-0.551
			s-1.133-0.895-1.477-1.582s-0.516-1.489-0.516-2.406c0-1.427,0.372-2.536,1.117-3.328s1.792-1.188,3.141-1.188
			c0.839,0,1.578,0.183,2.219,0.547s1.133,0.888,1.477,1.57S676.629,39.936,676.629,40.853z M670.59,40.853
			c0,0.864,0.142,1.519,0.426,1.961s0.746,0.664,1.387,0.664c0.636,0,1.093-0.22,1.371-0.66s0.418-1.095,0.418-1.965
			c0-0.864-0.141-1.513-0.422-1.945s-0.742-0.648-1.383-0.648c-0.636,0-1.094,0.215-1.375,0.645S670.59,39.983,670.59,40.853z"/>
	</g>
	<g>
		<path d="M682.277,45.236l-3.328-8.734h2.492l1.688,4.977c0.188,0.63,0.305,1.227,0.352,1.789h0.047
			c0.026-0.5,0.144-1.097,0.352-1.789l1.68-4.977h2.492l-3.328,8.734H682.277z"/>
	</g>
	<g>
		<path d="M694.853,45.392c-1.406,0-2.505-0.388-3.297-1.164s-1.188-1.875-1.188-3.297c0-1.464,0.366-2.595,1.098-3.395
			s1.743-1.199,3.035-1.199c1.234,0,2.195,0.352,2.883,1.055s1.031,1.675,1.031,2.914v1.156h-5.633
			c0.026,0.677,0.227,1.206,0.602,1.586s0.901,0.57,1.578,0.57c0.526,0,1.023-0.055,1.492-0.164s0.958-0.284,1.469-0.523v1.844
			c-0.417,0.208-0.862,0.363-1.336,0.465S695.536,45.392,694.853,45.392z M694.517,38.033c-0.505,0-0.901,0.16-1.188,0.48
			s-0.45,0.774-0.492,1.363h3.344c-0.011-0.589-0.164-1.043-0.461-1.363S695.022,38.033,694.517,38.033z"/>
	</g>
	<g>
		<path d="M706.828,36.337c0.323,0,0.591,0.023,0.805,0.07l-0.18,2.234c-0.192-0.052-0.427-0.078-0.703-0.078
			c-0.761,0-1.353,0.195-1.777,0.586s-0.637,0.938-0.637,1.641v4.445h-2.383v-8.734h1.805l0.352,1.469h0.117
			c0.271-0.489,0.637-0.884,1.098-1.184S706.286,36.337,706.828,36.337z"/>
	</g>
	<g>
		<path d="M720.254,43.494c0.417,0,0.917-0.091,1.5-0.273v1.773c-0.594,0.266-1.323,0.398-2.188,0.398
			c-0.953,0-1.647-0.241-2.082-0.723s-0.652-1.204-0.652-2.168V38.29h-1.141v-1.008l1.312-0.797l0.688-1.844h1.523v1.859h2.445
			v1.789h-2.445v4.211c0,0.339,0.095,0.589,0.285,0.75S719.942,43.494,720.254,43.494z"/>
	</g>
	<g>
		<path d="M733.183,45.236H730.8v-5.102c0-1.261-0.469-1.891-1.406-1.891c-0.667,0-1.148,0.227-1.445,0.68s-0.445,1.188-0.445,2.203
			v4.109h-2.383V33.079h2.383v2.477c0,0.192-0.019,0.646-0.055,1.359l-0.055,0.703h0.125c0.531-0.854,1.375-1.281,2.531-1.281
			c1.026,0,1.805,0.276,2.336,0.828s0.797,1.344,0.797,2.375V45.236z"/>
	</g>
	<g>
		<path d="M741.189,45.392c-1.406,0-2.505-0.388-3.297-1.164s-1.188-1.875-1.188-3.297c0-1.464,0.366-2.595,1.098-3.395
			s1.743-1.199,3.035-1.199c1.234,0,2.195,0.352,2.883,1.055s1.031,1.675,1.031,2.914v1.156h-5.633
			c0.026,0.677,0.227,1.206,0.602,1.586s0.901,0.57,1.578,0.57c0.526,0,1.023-0.055,1.492-0.164s0.958-0.284,1.469-0.523v1.844
			c-0.417,0.208-0.862,0.363-1.336,0.465S741.872,45.392,741.189,45.392z M740.853,38.033c-0.505,0-0.901,0.16-1.188,0.48
			s-0.45,0.774-0.492,1.363h3.344c-0.011-0.589-0.164-1.043-0.461-1.363S741.358,38.033,740.853,38.033z"/>
	</g>
	<g>
		<path d="M758.842,45.392c-1.026,0-1.831-0.372-2.414-1.117h-0.125c0.083,0.729,0.125,1.151,0.125,1.266v3.539h-2.383V36.501h1.938
			l0.336,1.133h0.109c0.558-0.864,1.383-1.297,2.477-1.297c1.031,0,1.839,0.398,2.422,1.195s0.875,1.903,0.875,3.32
			c0,0.933-0.137,1.742-0.41,2.43s-0.663,1.211-1.168,1.57S759.525,45.392,758.842,45.392z M758.139,38.244
			c-0.589,0-1.019,0.181-1.289,0.543s-0.411,0.96-0.422,1.793v0.258c0,0.938,0.14,1.609,0.418,2.016s0.72,0.609,1.324,0.609
			c1.067,0,1.602-0.88,1.602-2.641c0-0.859-0.132-1.504-0.395-1.934S758.702,38.244,758.139,38.244z"/>
	</g>
	<g>
		<path d="M773.833,45.236h-2.383v-5.102c0-1.261-0.469-1.891-1.406-1.891c-0.667,0-1.148,0.227-1.445,0.68
			s-0.445,1.188-0.445,2.203v4.109h-2.383V33.079h2.383v2.477c0,0.192-0.019,0.646-0.055,1.359l-0.055,0.703h0.125
			c0.531-0.854,1.375-1.281,2.531-1.281c1.026,0,1.805,0.276,2.336,0.828s0.797,1.344,0.797,2.375V45.236z"/>
	</g>
	<g>
		<path d="M785.824,40.853c0,1.422-0.375,2.534-1.125,3.336s-1.794,1.203-3.133,1.203c-0.839,0-1.578-0.184-2.219-0.551
			s-1.133-0.895-1.477-1.582s-0.516-1.489-0.516-2.406c0-1.427,0.372-2.536,1.117-3.328s1.792-1.188,3.141-1.188
			c0.839,0,1.578,0.183,2.219,0.547s1.133,0.888,1.477,1.57S785.824,39.936,785.824,40.853z M779.785,40.853
			c0,0.864,0.142,1.519,0.426,1.961s0.746,0.664,1.387,0.664c0.636,0,1.093-0.22,1.371-0.66s0.418-1.095,0.418-1.965
			c0-0.864-0.141-1.513-0.422-1.945s-0.742-0.648-1.383-0.648c-0.636,0-1.094,0.215-1.375,0.645S779.785,39.983,779.785,40.853z"/>
	</g>
	<g>
		<path d="M797.455,45.236h-2.383v-5.102c0-0.63-0.112-1.103-0.336-1.418s-0.581-0.473-1.07-0.473c-0.667,0-1.148,0.223-1.445,0.668
			s-0.445,1.184-0.445,2.215v4.109h-2.383v-8.734h1.82l0.32,1.117h0.133c0.266-0.422,0.632-0.741,1.098-0.957
			s0.996-0.324,1.59-0.324c1.016,0,1.786,0.274,2.312,0.824s0.789,1.343,0.789,2.379V45.236z"/>
	</g>
	<g>
		<path d="M805.461,45.392c-1.406,0-2.505-0.388-3.297-1.164s-1.188-1.875-1.188-3.297c0-1.464,0.366-2.595,1.098-3.395
			s1.743-1.199,3.035-1.199c1.234,0,2.195,0.352,2.883,1.055s1.031,1.675,1.031,2.914v1.156h-5.633
			c0.026,0.677,0.227,1.206,0.602,1.586s0.901,0.57,1.578,0.57c0.526,0,1.023-0.055,1.492-0.164s0.958-0.284,1.469-0.523v1.844
			c-0.417,0.208-0.862,0.363-1.336,0.465S806.143,45.392,805.461,45.392z M805.125,38.033c-0.505,0-0.901,0.16-1.188,0.48
			s-0.45,0.774-0.492,1.363h3.344c-0.011-0.589-0.164-1.043-0.461-1.363S805.629,38.033,805.125,38.033z"/>
	</g>
</g>
<g>
	<path d="M12.059,28.823c-2.051,0-3.639,0.771-4.764,2.312s-1.688,3.688-1.688,6.442c0,5.73,2.15,8.596,6.451,8.596
		c1.805,0,3.99-0.451,6.557-1.354v4.57c-2.109,0.879-4.465,1.318-7.066,1.318c-3.738,0-6.598-1.134-8.578-3.401S0,41.784,0,37.542
		c0-2.672,0.486-5.013,1.459-7.022s2.37-3.551,4.192-4.623s3.958-1.608,6.407-1.608c2.496,0,5.004,0.604,7.523,1.811l-1.758,4.43
		c-0.961-0.457-1.928-0.855-2.9-1.195S12.996,28.823,12.059,28.823z"/>
	<path d="M41.52,40.495c0,3.199-0.844,5.701-2.531,7.506s-4.037,2.707-7.049,2.707c-1.887,0-3.551-0.413-4.992-1.239
		s-2.549-2.013-3.322-3.56s-1.16-3.352-1.16-5.414c0-3.211,0.838-5.707,2.514-7.488s4.031-2.672,7.066-2.672
		c1.887,0,3.551,0.41,4.992,1.23s2.549,1.998,3.322,3.533S41.52,38.433,41.52,40.495z M27.932,40.495
		c0,1.945,0.319,3.416,0.958,4.412s1.679,1.494,3.12,1.494c1.43,0,2.458-0.495,3.085-1.485s0.94-2.464,0.94-4.421
		c0-1.945-0.316-3.404-0.949-4.377s-1.67-1.459-3.111-1.459c-1.43,0-2.461,0.483-3.094,1.45S27.932,38.538,27.932,40.495z"/>
	<path d="M64.09,50.356h-5.361V38.878c0-1.418-0.252-2.481-0.756-3.19s-1.307-1.063-2.408-1.063c-1.5,0-2.584,0.501-3.252,1.503
		s-1.002,2.663-1.002,4.983v9.246h-5.361V30.704h4.096l0.721,2.514h0.299c0.598-0.949,1.421-1.667,2.47-2.153
		s2.241-0.729,3.577-0.729c2.285,0,4.02,0.618,5.203,1.854s1.775,3.021,1.775,5.353V50.356z"/>
	<path d="M77.889,46.437c0.938,0,2.062-0.205,3.375-0.615v3.99c-1.336,0.598-2.977,0.896-4.922,0.896
		c-2.145,0-3.706-0.542-4.685-1.626s-1.468-2.71-1.468-4.878v-9.475h-2.566v-2.268l2.953-1.793l1.547-4.148h3.428v4.184h5.502v4.025
		h-5.502v9.475c0,0.762,0.214,1.324,0.642,1.688S77.186,46.437,77.889,46.437z"/>
	<path d="M97.717,50.356l-1.037-2.672h-0.141c-0.902,1.137-1.831,1.925-2.786,2.364s-2.2,0.659-3.735,0.659
		c-1.887,0-3.372-0.539-4.456-1.617s-1.626-2.613-1.626-4.605c0-2.086,0.729-3.624,2.188-4.614s3.659-1.538,6.601-1.644l3.41-0.105
		v-0.861c0-1.992-1.02-2.988-3.059-2.988c-1.57,0-3.416,0.475-5.537,1.424l-1.775-3.621c2.262-1.184,4.77-1.775,7.523-1.775
		c2.637,0,4.658,0.574,6.064,1.723s2.109,2.895,2.109,5.238v13.096H97.717z M96.135,41.251l-2.074,0.07
		c-1.559,0.047-2.719,0.328-3.48,0.844s-1.143,1.301-1.143,2.355c0,1.512,0.867,2.268,2.602,2.268c1.242,0,2.235-0.357,2.979-1.072
		s1.116-1.664,1.116-2.848V41.251z"/>
	<path d="M114.961,50.708c-6.117,0-9.176-3.357-9.176-10.072c0-3.34,0.832-5.892,2.496-7.655s4.049-2.646,7.154-2.646
		c2.273,0,4.312,0.445,6.117,1.336l-1.582,4.148c-0.844-0.34-1.629-0.618-2.355-0.835s-1.453-0.325-2.18-0.325
		c-2.789,0-4.184,1.98-4.184,5.941c0,3.844,1.395,5.766,4.184,5.766c1.031,0,1.986-0.138,2.865-0.413s1.758-0.706,2.637-1.292v4.588
		c-0.867,0.551-1.743,0.932-2.628,1.143S116.309,50.708,114.961,50.708z"/>
	<path d="M133.77,46.437c0.938,0,2.062-0.205,3.375-0.615v3.99c-1.336,0.598-2.977,0.896-4.922,0.896
		c-2.145,0-3.706-0.542-4.685-1.626s-1.468-2.71-1.468-4.878v-9.475h-2.566v-2.268l2.953-1.793l1.547-4.148h3.428v4.184h5.502v4.025
		h-5.502v9.475c0,0.762,0.214,1.324,0.642,1.688S133.066,46.437,133.77,46.437z"/>
	<path d="M150.891,50.356V24.657h5.449v21.199h10.424v4.5H150.891z"/>
	<path d="M188.666,40.495c0,3.199-0.844,5.701-2.531,7.506s-4.037,2.707-7.049,2.707c-1.887,0-3.551-0.413-4.992-1.239
		s-2.549-2.013-3.322-3.56s-1.16-3.352-1.16-5.414c0-3.211,0.838-5.707,2.514-7.488s4.031-2.672,7.066-2.672
		c1.887,0,3.551,0.41,4.992,1.23s2.549,1.998,3.322,3.533S188.666,38.433,188.666,40.495z M175.078,40.495
		c0,1.945,0.319,3.416,0.958,4.412s1.679,1.494,3.12,1.494c1.43,0,2.458-0.495,3.085-1.485s0.94-2.464,0.94-4.421
		c0-1.945-0.316-3.404-0.949-4.377s-1.67-1.459-3.111-1.459c-1.43,0-2.461,0.483-3.094,1.45S175.078,38.538,175.078,40.495z"/>
	<path d="M201.076,50.708c-6.117,0-9.176-3.357-9.176-10.072c0-3.34,0.832-5.892,2.496-7.655s4.049-2.646,7.154-2.646
		c2.273,0,4.312,0.445,6.117,1.336l-1.582,4.148c-0.844-0.34-1.629-0.618-2.355-0.835s-1.453-0.325-2.18-0.325
		c-2.789,0-4.184,1.98-4.184,5.941c0,3.844,1.395,5.766,4.184,5.766c1.031,0,1.986-0.138,2.865-0.413s1.758-0.706,2.637-1.292v4.588
		c-0.867,0.551-1.743,0.932-2.628,1.143S202.424,50.708,201.076,50.708z"/>
	<path d="M224.086,50.356l-1.037-2.672h-0.141c-0.902,1.137-1.831,1.925-2.786,2.364s-2.2,0.659-3.735,0.659
		c-1.887,0-3.372-0.539-4.456-1.617s-1.626-2.613-1.626-4.605c0-2.086,0.729-3.624,2.188-4.614s3.659-1.538,6.601-1.644l3.41-0.105
		v-0.861c0-1.992-1.02-2.988-3.059-2.988c-1.57,0-3.416,0.475-5.537,1.424l-1.775-3.621c2.262-1.184,4.77-1.775,7.523-1.775
		c2.637,0,4.658,0.574,6.064,1.723s2.109,2.895,2.109,5.238v13.096H224.086z M222.504,41.251l-2.074,0.07
		c-1.559,0.047-2.719,0.328-3.48,0.844s-1.143,1.301-1.143,2.355c0,1.512,0.867,2.268,2.602,2.268c1.242,0,2.235-0.357,2.979-1.072
		s1.116-1.664,1.116-2.848V41.251z"/>
	<path d="M241.629,46.437c0.938,0,2.062-0.205,3.375-0.615v3.99c-1.336,0.598-2.977,0.896-4.922,0.896
		c-2.145,0-3.706-0.542-4.685-1.626s-1.468-2.71-1.468-4.878v-9.475h-2.566v-2.268l2.953-1.793l1.547-4.148h3.428v4.184h5.502v4.025
		h-5.502v9.475c0,0.762,0.214,1.324,0.642,1.688S240.926,46.437,241.629,46.437z"/>
	<path d="M248.748,25.624c0-1.746,0.973-2.619,2.918-2.619s2.918,0.873,2.918,2.619c0,0.832-0.243,1.479-0.729,1.942
		s-1.216,0.694-2.188,0.694C249.721,28.261,248.748,27.382,248.748,25.624z M254.338,50.356h-5.361V30.704h5.361V50.356z"/>
	<path d="M277.822,40.495c0,3.199-0.844,5.701-2.531,7.506s-4.037,2.707-7.049,2.707c-1.887,0-3.551-0.413-4.992-1.239
		s-2.549-2.013-3.322-3.56s-1.16-3.352-1.16-5.414c0-3.211,0.838-5.707,2.514-7.488s4.031-2.672,7.066-2.672
		c1.887,0,3.551,0.41,4.992,1.23s2.549,1.998,3.322,3.533S277.822,38.433,277.822,40.495z M264.234,40.495
		c0,1.945,0.319,3.416,0.958,4.412s1.679,1.494,3.12,1.494c1.43,0,2.458-0.495,3.085-1.485s0.94-2.464,0.94-4.421
		c0-1.945-0.316-3.404-0.949-4.377s-1.67-1.459-3.111-1.459c-1.43,0-2.461,0.483-3.094,1.45S264.234,38.538,264.234,40.495z"/>
	<path d="M300.393,50.356h-5.361V38.878c0-1.418-0.252-2.481-0.756-3.19s-1.307-1.063-2.408-1.063c-1.5,0-2.584,0.501-3.252,1.503
		s-1.002,2.663-1.002,4.983v9.246h-5.361V30.704h4.096l0.721,2.514h0.299c0.598-0.949,1.421-1.667,2.47-2.153
		s2.241-0.729,3.577-0.729c2.285,0,4.02,0.618,5.203,1.854s1.775,3.021,1.775,5.353V50.356z"/>
	<path d="M327.744,50.356l-1.037-2.672h-0.141c-0.902,1.137-1.831,1.925-2.786,2.364s-2.2,0.659-3.735,0.659
		c-1.887,0-3.372-0.539-4.456-1.617s-1.626-2.613-1.626-4.605c0-2.086,0.729-3.624,2.188-4.614s3.659-1.538,6.601-1.644l3.41-0.105
		v-0.861c0-1.992-1.02-2.988-3.059-2.988c-1.57,0-3.416,0.475-5.537,1.424l-1.775-3.621c2.262-1.184,4.77-1.775,7.523-1.775
		c2.637,0,4.658,0.574,6.064,1.723s2.109,2.895,2.109,5.238v13.096H327.744z M326.162,41.251l-2.074,0.07
		c-1.559,0.047-2.719,0.328-3.48,0.844s-1.143,1.301-1.143,2.355c0,1.512,0.867,2.268,2.602,2.268c1.242,0,2.235-0.357,2.979-1.072
		s1.116-1.664,1.116-2.848V41.251z"/>
	<path d="M355.148,50.356h-5.361V38.878c0-1.418-0.252-2.481-0.756-3.19s-1.307-1.063-2.408-1.063c-1.5,0-2.584,0.501-3.252,1.503
		s-1.002,2.663-1.002,4.983v9.246h-5.361V30.704h4.096l0.721,2.514h0.299c0.598-0.949,1.421-1.667,2.47-2.153
		s2.241-0.729,3.577-0.729c2.285,0,4.02,0.618,5.203,1.854s1.775,3.021,1.775,5.353V50.356z"/>
	<path d="M366.891,50.708c-2.309,0-4.122-0.896-5.44-2.689s-1.978-4.277-1.978-7.453c0-3.223,0.671-5.733,2.013-7.532
		s3.19-2.698,5.546-2.698c2.473,0,4.359,0.961,5.66,2.883h0.176c-0.27-1.465-0.404-2.771-0.404-3.92v-6.293h5.379v27.352h-4.113
		l-1.037-2.549h-0.229C371.244,49.741,369.387,50.708,366.891,50.708z M368.771,46.437c1.371,0,2.376-0.398,3.015-1.195
		s0.987-2.15,1.046-4.061v-0.58c0-2.109-0.325-3.621-0.976-4.535s-1.708-1.371-3.173-1.371c-1.195,0-2.124,0.507-2.786,1.521
		s-0.993,2.487-0.993,4.421s0.334,3.384,1.002,4.351S367.529,46.437,368.771,46.437z"/>
	<path d="M410.66,40.495c0,3.199-0.844,5.701-2.531,7.506s-4.037,2.707-7.049,2.707c-1.887,0-3.551-0.413-4.992-1.239
		s-2.549-2.013-3.322-3.56s-1.16-3.352-1.16-5.414c0-3.211,0.838-5.707,2.514-7.488s4.031-2.672,7.066-2.672
		c1.887,0,3.551,0.41,4.992,1.23s2.549,1.998,3.322,3.533S410.66,38.433,410.66,40.495z M397.072,40.495
		c0,1.945,0.319,3.416,0.958,4.412s1.679,1.494,3.12,1.494c1.43,0,2.458-0.495,3.085-1.485s0.94-2.464,0.94-4.421
		c0-1.945-0.316-3.404-0.949-4.377s-1.67-1.459-3.111-1.459c-1.43,0-2.461,0.483-3.094,1.45S397.072,38.538,397.072,40.495z"/>
	<path d="M426.059,30.335c0.727,0,1.33,0.053,1.811,0.158l-0.404,5.027c-0.434-0.117-0.961-0.176-1.582-0.176
		c-1.711,0-3.044,0.439-3.999,1.318s-1.433,2.109-1.433,3.691v10.002h-5.361V30.704h4.061l0.791,3.305h0.264
		c0.609-1.102,1.433-1.989,2.47-2.663S424.84,30.335,426.059,30.335z"/>
	<path d="M437.66,50.708c-2.309,0-4.122-0.896-5.44-2.689s-1.978-4.277-1.978-7.453c0-3.223,0.671-5.733,2.013-7.532
		s3.19-2.698,5.546-2.698c2.473,0,4.359,0.961,5.66,2.883h0.176c-0.27-1.465-0.404-2.771-0.404-3.92v-6.293h5.379v27.352h-4.113
		l-1.037-2.549h-0.229C442.014,49.741,440.156,50.708,437.66,50.708z M439.541,46.437c1.371,0,2.376-0.398,3.015-1.195
		s0.987-2.15,1.046-4.061v-0.58c0-2.109-0.325-3.621-0.976-4.535s-1.708-1.371-3.173-1.371c-1.195,0-2.124,0.507-2.786,1.521
		s-0.993,2.487-0.993,4.421s0.334,3.384,1.002,4.351S438.299,46.437,439.541,46.437z"/>
	<path d="M463.113,50.708c-3.164,0-5.637-0.873-7.418-2.619s-2.672-4.219-2.672-7.418c0-3.293,0.823-5.839,2.47-7.638
		s3.923-2.698,6.829-2.698c2.777,0,4.939,0.791,6.486,2.373s2.32,3.768,2.32,6.557v2.602h-12.674
		c0.059,1.523,0.51,2.713,1.354,3.568s2.027,1.283,3.551,1.283c1.184,0,2.303-0.123,3.357-0.369s2.156-0.639,3.305-1.178v4.148
		c-0.938,0.469-1.939,0.817-3.006,1.046S464.648,50.708,463.113,50.708z M462.357,34.149c-1.137,0-2.027,0.36-2.672,1.081
		s-1.014,1.743-1.107,3.067h7.523c-0.023-1.324-0.369-2.347-1.037-3.067S463.494,34.149,462.357,34.149z"/>
	<path d="M486.457,30.335c0.727,0,1.33,0.053,1.811,0.158l-0.404,5.027c-0.434-0.117-0.961-0.176-1.582-0.176
		c-1.711,0-3.044,0.439-3.999,1.318s-1.433,2.109-1.433,3.691v10.002h-5.361V30.704h4.061l0.791,3.305h0.264
		c0.609-1.102,1.433-1.989,2.47-2.663S485.238,30.335,486.457,30.335z"/>
</g>
<g>
	<rect x="515.381" width="1" height="77.996"/>
</g>
</svg>