<!-- Generator: Adobe Illustrator 21.0.0, SVG Export Plug-In  -->
<svg version="1.1"
	 xmlns="http://www.w3.org/2000/svg" xmlns:xlink="http://www.w3.org/1999/xlink" xmlns:a="http://ns.adobe.com/AdobeSVGViewerExtensions/3.0/"
	 x="0px" y="0px" width="248.057px" height="116px" viewBox="0 0 248.057 116" style="enable-background:new 0 0 248.057 116;"
	 xml:space="preserve">
<style type="text/css">
	.st0{fill:#B9C83E;}
	.st1{fill:#FFFFFF;}
</style>
<defs>
</defs>
<g>
	<path class="st0" d="M37.1,74.639c0,1.43-0.525,2.562-1.576,3.398s-2.447,1.254-4.189,1.254c-2.094,0-3.699-0.23-4.816-0.691
		v-1.195c1.234,0.523,2.809,0.785,4.723,0.785c1.406,0,2.521-0.322,3.346-0.967s1.236-1.49,1.236-2.537
		c0-0.648-0.137-1.186-0.41-1.611s-0.719-0.814-1.336-1.166s-1.523-0.73-2.719-1.137c-1.75-0.602-2.959-1.252-3.627-1.951
		s-1.002-1.631-1.002-2.795c0-1.281,0.502-2.326,1.506-3.135s2.295-1.213,3.873-1.213c1.609,0,3.121,0.305,4.535,0.914l-0.434,1.031
		c-1.422-0.594-2.781-0.891-4.078-0.891c-1.266,0-2.273,0.293-3.023,0.879s-1.125,1.383-1.125,2.391
		c0,0.633,0.115,1.152,0.346,1.559s0.607,0.771,1.131,1.096s1.422,0.713,2.695,1.166c1.336,0.461,2.34,0.908,3.012,1.342
		s1.162,0.926,1.471,1.477S37.1,73.857,37.1,74.639z"/>
	<path class="st0" d="M46.773,79.291c-1.852,0-3.295-0.57-4.33-1.711s-1.553-2.738-1.553-4.793c0-2.031,0.5-3.658,1.5-4.881
		s2.348-1.834,4.043-1.834c1.5,0,2.684,0.523,3.551,1.57s1.301,2.469,1.301,4.266v0.938h-9.176c0.016,1.75,0.424,3.086,1.225,4.008
		s1.947,1.383,3.439,1.383c0.727,0,1.365-0.051,1.916-0.152s1.248-0.32,2.092-0.656v1.055c-0.719,0.312-1.383,0.525-1.992,0.639
		S47.507,79.291,46.773,79.291z M46.433,67.103c-1.227,0-2.211,0.404-2.953,1.213s-1.176,1.975-1.301,3.498h7.875
		c0-1.477-0.32-2.631-0.961-3.463S47.566,67.103,46.433,67.103z"/>
	<path class="st0" d="M61.145,79.291c-1.852,0-3.295-0.57-4.33-1.711s-1.553-2.738-1.553-4.793c0-2.031,0.5-3.658,1.5-4.881
		s2.348-1.834,4.043-1.834c1.5,0,2.684,0.523,3.551,1.57s1.301,2.469,1.301,4.266v0.938h-9.176c0.016,1.75,0.424,3.086,1.225,4.008
		s1.947,1.383,3.439,1.383c0.727,0,1.365-0.051,1.916-0.152s1.248-0.32,2.092-0.656v1.055c-0.719,0.312-1.383,0.525-1.992,0.639
		S61.879,79.291,61.145,79.291z M60.805,67.103c-1.227,0-2.211,0.404-2.953,1.213s-1.176,1.975-1.301,3.498h7.875
		c0-1.477-0.32-2.631-0.961-3.463S61.938,67.103,60.805,67.103z"/>
	<path class="st0" d="M92.501,70.467c0,2.719-0.68,4.869-2.039,6.451s-3.234,2.373-5.625,2.373c-2.383,0-4.254-0.791-5.613-2.373
		s-2.039-3.74-2.039-6.475c0-2.727,0.686-4.873,2.057-6.439s3.244-2.35,5.619-2.35c2.391,0,4.262,0.787,5.613,2.361
		S92.501,67.74,92.501,70.467z M78.486,70.467c0,2.453,0.547,4.35,1.641,5.689s2.664,2.01,4.711,2.01
		c2.062,0,3.639-0.664,4.729-1.992s1.635-3.23,1.635-5.707c0-2.469-0.545-4.361-1.635-5.678s-2.658-1.975-4.705-1.975
		c-2.039,0-3.611,0.664-4.717,1.992S78.486,68.021,78.486,70.467z"/>
	<path class="st0" d="M98.354,66.318v8.25c0,1.281,0.27,2.213,0.809,2.795s1.375,0.873,2.508,0.873c1.516,0,2.631-0.383,3.346-1.148
		s1.072-2.012,1.072-3.738v-7.031h1.148v12.738h-0.984l-0.211-1.758h-0.07c-0.828,1.328-2.301,1.992-4.418,1.992
		c-2.898,0-4.348-1.551-4.348-4.652v-8.32H98.354z"/>
	<path class="st0" d="M117.718,66.072c0.539,0,1.117,0.055,1.734,0.164l-0.223,1.113c-0.531-0.133-1.082-0.199-1.652-0.199
		c-1.086,0-1.977,0.461-2.672,1.383s-1.043,2.086-1.043,3.492v7.031h-1.16V66.318h0.984l0.117,2.297h0.082
		c0.523-0.938,1.082-1.596,1.676-1.975S116.875,66.072,117.718,66.072z"/>
	<path class="st0" d="M138.504,79.057l-6.387-15.82h-0.094c0.062,0.969,0.094,1.961,0.094,2.977v12.844h-1.148V61.924h1.852
		l6.07,15.07h0.07l6.07-15.07h1.805v17.133h-1.207V66.072c0-0.906,0.047-1.844,0.141-2.812h-0.094l-6.41,15.797H138.504z"/>
	<path class="st0" d="M157.728,79.291c-1.852,0-3.295-0.57-4.33-1.711s-1.553-2.738-1.553-4.793c0-2.031,0.5-3.658,1.5-4.881
		s2.348-1.834,4.043-1.834c1.5,0,2.684,0.523,3.551,1.57s1.301,2.469,1.301,4.266v0.938h-9.176c0.016,1.75,0.424,3.086,1.225,4.008
		s1.947,1.383,3.439,1.383c0.727,0,1.365-0.051,1.916-0.152s1.248-0.32,2.092-0.656v1.055c-0.719,0.312-1.383,0.525-1.992,0.639
		S158.462,79.291,157.728,79.291z M157.388,67.103c-1.227,0-2.211,0.404-2.953,1.213s-1.176,1.975-1.301,3.498h7.875
		c0-1.477-0.32-2.631-0.961-3.463S158.521,67.103,157.388,67.103z"/>
	<path class="st0" d="M175.838,79.057v-8.262c0-1.281-0.27-2.213-0.809-2.795s-1.375-0.873-2.508-0.873
		c-1.523,0-2.639,0.385-3.346,1.154s-1.061,2.018-1.061,3.744v7.031h-1.16V66.318h0.984l0.223,1.746h0.07
		c0.828-1.328,2.301-1.992,4.418-1.992c2.891,0,4.336,1.551,4.336,4.652v8.332H175.838z"/>
	<path class="st0" d="M183.32,66.318v8.25c0,1.281,0.27,2.213,0.809,2.795s1.375,0.873,2.508,0.873c1.516,0,2.631-0.383,3.346-1.148
		s1.072-2.012,1.072-3.738v-7.031h1.148v12.738h-0.984l-0.211-1.758h-0.07c-0.828,1.328-2.301,1.992-4.418,1.992
		c-2.898,0-4.348-1.551-4.348-4.652v-8.32H183.32z"/>
	<path class="st0" d="M208.149,72.986l-3.621,4.605l-0.715-0.504l2.977-4.242l-2.977-4.254l0.715-0.504l3.621,4.582V72.986z
		 M212.379,72.986l-3.621,4.605l-0.727-0.504l2.977-4.242l-2.977-4.254l0.727-0.504l3.621,4.582V72.986z"/>
</g>
<g>
	<g>
		<path class="st0" d="M248.057,116H0V15h248.057V116z M1.116,114.853h245.825V16.147H1.116V114.853z"/>
	</g>
</g>
<g>
	<g>
		<rect x="26" class="st0" width="45" height="32"/>
	</g>
</g>
<g>
	<g>
		<path class="st1" d="M46.257,10.47c1.212,0,2.137,0.647,2.775,1.941c0.337,1.034,0.506,1.989,0.506,2.864v0.595
			c0,1.08-0.223,2.172-0.67,3.274c-0.674,1.039-1.527,1.559-2.557,1.559H46.23c-1.121,0-2-0.59-2.639-1.771
			c-0.392-1.003-0.588-2.11-0.588-3.322v-0.075c0-1.285,0.232-2.454,0.697-3.507C44.389,10.989,45.241,10.47,46.257,10.47z
			 M44.343,15.46v0.28c0,1.153,0.205,2.114,0.615,2.885c0.369,0.456,0.786,0.684,1.251,0.684h0.075c1.043,0,1.657-0.836,1.839-2.509
			c0.05-0.278,0.084-0.69,0.103-1.237c0-0.976-0.167-1.902-0.499-2.782c-0.383-0.61-0.864-0.916-1.442-0.916
			c-0.707,0-1.228,0.395-1.565,1.183C44.469,13.881,44.343,14.686,44.343,15.46z"/>
	</g>
	<g>
		<path class="st1" d="M52.377,10.47h0.13c0.433,0.096,0.649,0.312,0.649,0.649v8.907c-0.082,0.451-0.314,0.677-0.697,0.677h-0.048
			c-0.451-0.096-0.677-0.31-0.677-0.643v-7.902c-0.305,0.101-0.54,0.15-0.704,0.15c-0.324,0-0.538-0.217-0.643-0.649v-0.157
			c0-0.364,0.399-0.629,1.196-0.793L52.377,10.47z"/>
	</g>
</g>
</svg>