<!-- Generator: Adobe Illustrator 21.0.0, SVG Export Plug-In  -->
<svg version="1.1"
	 xmlns="http://www.w3.org/2000/svg" xmlns:xlink="http://www.w3.org/1999/xlink" xmlns:a="http://ns.adobe.com/AdobeSVGViewerExtensions/3.0/"
	 x="0px" y="0px" width="444.469px" height="191.176px" viewBox="0 0 444.469 191.176"
	 style="enable-background:new 0 0 444.469 191.176;" xml:space="preserve">
<style type="text/css">
	.st0{fill:#B9C83E;}
</style>
<defs>
</defs>
<g>
	<path d="M33.871,119.595h-0.984l-1.729-5.736c-0.082-0.254-0.174-0.574-0.275-0.961s-0.154-0.619-0.158-0.697
		c-0.086,0.516-0.223,1.08-0.41,1.693l-1.676,5.701h-0.984l-2.279-8.566h1.055l1.354,5.291c0.188,0.742,0.324,1.414,0.41,2.016
		c0.105-0.715,0.262-1.414,0.469-2.098l1.535-5.209h1.055l1.611,5.256c0.188,0.605,0.346,1.289,0.475,2.051
		c0.074-0.555,0.215-1.23,0.422-2.027l1.348-5.279h1.055L33.871,119.595z"/>
	<path d="M40.37,119.712c-0.949,0-1.698-0.289-2.247-0.867s-0.823-1.381-0.823-2.408c0-1.035,0.255-1.857,0.765-2.467
		s1.194-0.914,2.054-0.914c0.805,0,1.441,0.265,1.91,0.794s0.703,1.228,0.703,2.095v0.615h-4.424c0.02,0.754,0.21,1.326,0.571,1.717
		s0.87,0.586,1.526,0.586c0.691,0,1.375-0.145,2.051-0.434v0.867c-0.344,0.148-0.669,0.255-0.976,0.319
		S40.804,119.712,40.37,119.712z M40.107,113.87c-0.516,0-0.927,0.168-1.233,0.504s-0.487,0.801-0.542,1.395h3.357
		c0-0.613-0.137-1.083-0.41-1.409S40.614,113.87,40.107,113.87z"/>
	<path d="M53.651,116.378c0,1.047-0.264,1.864-0.791,2.452s-1.256,0.882-2.186,0.882c-0.574,0-1.084-0.135-1.529-0.404
		s-0.789-0.656-1.031-1.16s-0.363-1.094-0.363-1.77c0-1.047,0.262-1.862,0.785-2.446s1.25-0.876,2.18-0.876
		c0.898,0,1.612,0.299,2.142,0.896S53.651,115.358,53.651,116.378z M48.758,116.378c0,0.82,0.164,1.445,0.492,1.875
		s0.811,0.645,1.447,0.645s1.12-0.214,1.45-0.642s0.495-1.054,0.495-1.878c0-0.816-0.165-1.437-0.495-1.86s-0.817-0.636-1.462-0.636
		c-0.637,0-1.117,0.209-1.441,0.627S48.758,115.55,48.758,116.378z"/>
	<path d="M60.05,119.595v-4.154c0-0.523-0.119-0.914-0.357-1.172s-0.611-0.387-1.119-0.387c-0.672,0-1.164,0.182-1.477,0.545
		s-0.469,0.963-0.469,1.799v3.369h-0.973v-6.422h0.791l0.158,0.879h0.047c0.199-0.316,0.479-0.562,0.838-0.735
		s0.76-0.261,1.201-0.261c0.773,0,1.355,0.187,1.746,0.56s0.586,0.97,0.586,1.79v4.189H60.05z"/>
	<path d="M64.293,119.595H63.32v-9.117h0.973V119.595z"/>
	<path d="M65.636,113.173h1.043l1.406,3.662c0.309,0.836,0.5,1.439,0.574,1.811h0.047c0.051-0.199,0.157-0.54,0.319-1.022
		s0.692-1.966,1.591-4.45h1.043l-2.76,7.312c-0.273,0.723-0.593,1.235-0.958,1.538s-0.813,0.454-1.345,0.454
		c-0.297,0-0.59-0.033-0.879-0.1v-0.779c0.215,0.047,0.455,0.07,0.721,0.07c0.668,0,1.145-0.375,1.43-1.125l0.357-0.914
		L65.636,113.173z"/>
	<path d="M77.334,113.173v4.166c0,0.523,0.119,0.914,0.357,1.172s0.611,0.387,1.119,0.387c0.672,0,1.163-0.184,1.474-0.551
		s0.466-0.967,0.466-1.799v-3.375h0.973v6.422H80.92l-0.141-0.861h-0.053c-0.199,0.316-0.476,0.559-0.829,0.727
		s-0.757,0.252-1.21,0.252c-0.781,0-1.366-0.186-1.755-0.557s-0.583-0.965-0.583-1.781v-4.201H77.334z"/>
	<path d="M88.228,117.843c0,0.598-0.223,1.059-0.668,1.383s-1.07,0.486-1.875,0.486c-0.852,0-1.516-0.135-1.992-0.404v-0.902
		c0.309,0.156,0.64,0.279,0.993,0.369s0.694,0.135,1.022,0.135c0.508,0,0.898-0.081,1.172-0.243s0.41-0.409,0.41-0.741
		c0-0.25-0.108-0.464-0.325-0.642s-0.64-0.388-1.269-0.63c-0.598-0.223-1.022-0.417-1.274-0.583s-0.439-0.354-0.562-0.565
		s-0.185-0.463-0.185-0.756c0-0.523,0.213-0.937,0.639-1.239s1.01-0.454,1.752-0.454c0.691,0,1.367,0.141,2.027,0.422l-0.346,0.791
		c-0.645-0.266-1.229-0.398-1.752-0.398c-0.461,0-0.809,0.072-1.043,0.217s-0.352,0.344-0.352,0.598
		c0,0.172,0.044,0.318,0.132,0.439s0.229,0.236,0.425,0.346s0.57,0.268,1.125,0.475c0.762,0.277,1.276,0.557,1.544,0.838
		S88.228,117.417,88.228,117.843z"/>
	<path d="M92.822,119.712c-0.949,0-1.698-0.289-2.247-0.867s-0.823-1.381-0.823-2.408c0-1.035,0.255-1.857,0.765-2.467
		s1.194-0.914,2.054-0.914c0.805,0,1.441,0.265,1.91,0.794s0.703,1.228,0.703,2.095v0.615H90.76c0.02,0.754,0.21,1.326,0.571,1.717
		s0.87,0.586,1.526,0.586c0.691,0,1.375-0.145,2.051-0.434v0.867c-0.344,0.148-0.669,0.255-0.976,0.319
		S93.256,119.712,92.822,119.712z M92.559,113.87c-0.516,0-0.927,0.168-1.233,0.504s-0.487,0.801-0.542,1.395h3.357
		c0-0.613-0.137-1.083-0.41-1.409S93.067,113.87,92.559,113.87z"/>
	<path d="M103.717,119.595h-0.949v-6.105c0-0.508,0.016-0.988,0.047-1.441c-0.082,0.082-0.174,0.168-0.275,0.258
		s-0.566,0.471-1.395,1.143l-0.516-0.668l2.268-1.752h0.82V119.595z"/>
	<path d="M112.953,115.3c0,1.48-0.233,2.586-0.7,3.316s-1.181,1.096-2.142,1.096c-0.922,0-1.623-0.374-2.104-1.122
		s-0.721-1.845-0.721-3.29c0-1.492,0.232-2.6,0.697-3.322s1.174-1.084,2.127-1.084c0.93,0,1.636,0.377,2.118,1.131
		S112.953,113.87,112.953,115.3z M108.272,115.3c0,1.246,0.146,2.153,0.439,2.722s0.76,0.853,1.4,0.853
		c0.648,0,1.118-0.288,1.409-0.864s0.437-1.479,0.437-2.71s-0.146-2.132-0.437-2.704s-0.761-0.858-1.409-0.858
		c-0.641,0-1.107,0.282-1.4,0.847S108.272,114.054,108.272,115.3z"/>
	<path d="M120.114,115.3c0,1.48-0.233,2.586-0.7,3.316s-1.181,1.096-2.142,1.096c-0.922,0-1.623-0.374-2.104-1.122
		s-0.721-1.845-0.721-3.29c0-1.492,0.232-2.6,0.697-3.322s1.174-1.084,2.127-1.084c0.93,0,1.636,0.377,2.118,1.131
		S120.114,113.87,120.114,115.3z M115.433,115.3c0,1.246,0.146,2.153,0.439,2.722s0.76,0.853,1.4,0.853
		c0.648,0,1.118-0.288,1.409-0.864s0.437-1.479,0.437-2.71s-0.146-2.132-0.437-2.704s-0.761-0.858-1.409-0.858
		c-0.641,0-1.107,0.282-1.4,0.847S115.433,114.054,115.433,115.3z"/>
	<path d="M125.113,113.583c0,0.891-0.149,1.563-0.448,2.019s-0.737,0.683-1.315,0.683c-0.547,0-0.972-0.232-1.274-0.697
		s-0.454-1.133-0.454-2.004c0-0.887,0.146-1.555,0.437-2.004s0.722-0.674,1.292-0.674c0.566,0,1.002,0.232,1.307,0.697
		S125.113,112.728,125.113,113.583z M122.43,113.583c0,0.664,0.072,1.162,0.217,1.494s0.379,0.498,0.703,0.498
		c0.641,0,0.961-0.664,0.961-1.992c0-1.32-0.32-1.98-0.961-1.98c-0.324,0-0.559,0.164-0.703,0.492S122.43,112.919,122.43,113.583z
		 M128.764,111.028l-4.752,8.566h-0.861l4.752-8.566H128.764z M130.276,117.017c0,0.887-0.149,1.558-0.448,2.013
		s-0.737,0.683-1.315,0.683c-0.555,0-0.981-0.232-1.28-0.697s-0.448-1.131-0.448-1.998c0-0.887,0.146-1.555,0.437-2.004
		s0.722-0.674,1.292-0.674c0.555,0,0.987,0.229,1.298,0.688S130.276,116.149,130.276,117.017z M127.586,117.017
		c0,0.668,0.072,1.167,0.217,1.497s0.381,0.495,0.709,0.495s0.57-0.163,0.727-0.489s0.234-0.827,0.234-1.503
		c0-0.668-0.078-1.163-0.234-1.485s-0.398-0.483-0.727-0.483s-0.564,0.161-0.709,0.483S127.586,116.349,127.586,117.017z"/>
	<path d="M139.453,111.796c-0.941,0-1.685,0.313-2.229,0.94s-0.817,1.485-0.817,2.575c0,1.121,0.263,1.987,0.788,2.599
		s1.274,0.917,2.247,0.917c0.598,0,1.279-0.107,2.045-0.322v0.873c-0.594,0.223-1.326,0.334-2.197,0.334
		c-1.262,0-2.235-0.383-2.921-1.148s-1.028-1.854-1.028-3.264c0-0.883,0.165-1.656,0.495-2.32s0.807-1.176,1.43-1.535
		s1.356-0.539,2.2-0.539c0.898,0,1.684,0.164,2.355,0.492l-0.422,0.855C140.75,111.948,140.102,111.796,139.453,111.796z"/>
	<path d="M147.459,119.595l-0.193-0.914h-0.047c-0.32,0.402-0.64,0.675-0.958,0.817s-0.716,0.214-1.192,0.214
		c-0.637,0-1.136-0.164-1.497-0.492s-0.542-0.795-0.542-1.4c0-1.297,1.037-1.977,3.111-2.039l1.09-0.035v-0.398
		c0-0.504-0.108-0.876-0.325-1.116s-0.563-0.36-1.04-0.36c-0.535,0-1.141,0.164-1.816,0.492l-0.299-0.744
		c0.316-0.172,0.663-0.307,1.04-0.404s0.755-0.146,1.134-0.146c0.766,0,1.333,0.17,1.702,0.51s0.554,0.885,0.554,1.635v4.383
		H147.459z M145.262,118.909c0.605,0,1.081-0.166,1.427-0.498s0.519-0.797,0.519-1.395v-0.58l-0.973,0.041
		c-0.773,0.027-1.331,0.147-1.673,0.36s-0.513,0.544-0.513,0.993c0,0.352,0.106,0.619,0.319,0.803S144.879,118.909,145.262,118.909z
		"/>
	<path d="M154.878,119.595v-4.154c0-0.523-0.119-0.914-0.357-1.172s-0.611-0.387-1.119-0.387c-0.672,0-1.164,0.182-1.477,0.545
		s-0.469,0.963-0.469,1.799v3.369h-0.973v-6.422h0.791l0.158,0.879h0.047c0.199-0.316,0.479-0.562,0.838-0.735
		s0.76-0.261,1.201-0.261c0.773,0,1.355,0.187,1.746,0.56s0.586,0.97,0.586,1.79v4.189H154.878z"/>
	<path d="M162.098,119.595l-0.193-0.914h-0.047c-0.32,0.402-0.64,0.675-0.958,0.817s-0.716,0.214-1.192,0.214
		c-0.637,0-1.136-0.164-1.497-0.492s-0.542-0.795-0.542-1.4c0-1.297,1.037-1.977,3.111-2.039l1.09-0.035v-0.398
		c0-0.504-0.108-0.876-0.325-1.116s-0.563-0.36-1.04-0.36c-0.535,0-1.141,0.164-1.816,0.492l-0.299-0.744
		c0.316-0.172,0.663-0.307,1.04-0.404s0.755-0.146,1.134-0.146c0.766,0,1.333,0.17,1.702,0.51s0.554,0.885,0.554,1.635v4.383
		H162.098z M159.901,118.909c0.605,0,1.081-0.166,1.427-0.498s0.519-0.797,0.519-1.395v-0.58l-0.973,0.041
		c-0.773,0.027-1.331,0.147-1.673,0.36s-0.513,0.544-0.513,0.993c0,0.352,0.106,0.619,0.319,0.803S159.518,118.909,159.901,118.909z
		"/>
	<path d="M169.493,118.733h-0.053c-0.449,0.652-1.121,0.979-2.016,0.979c-0.84,0-1.493-0.287-1.96-0.861s-0.7-1.391-0.7-2.449
		s0.234-1.881,0.703-2.467s1.121-0.879,1.957-0.879c0.871,0,1.539,0.316,2.004,0.949h0.076l-0.041-0.463l-0.023-0.451v-2.613h0.973
		v9.117h-0.791L169.493,118.733z M167.548,118.897c0.664,0,1.146-0.181,1.444-0.542s0.448-0.944,0.448-1.749v-0.205
		c0-0.91-0.151-1.56-0.454-1.948s-0.786-0.583-1.45-0.583c-0.57,0-1.007,0.222-1.31,0.665s-0.454,1.069-0.454,1.878
		c0,0.82,0.15,1.439,0.451,1.857S166.966,118.897,167.548,118.897z"/>
	<path d="M172.694,111.433c0-0.223,0.055-0.386,0.164-0.489s0.246-0.155,0.41-0.155c0.156,0,0.291,0.053,0.404,0.158
		s0.17,0.268,0.17,0.486s-0.057,0.382-0.17,0.489s-0.248,0.161-0.404,0.161c-0.164,0-0.301-0.054-0.41-0.161
		S172.694,111.651,172.694,111.433z M173.748,119.595h-0.973v-6.422h0.973V119.595z"/>
	<path d="M180.061,119.595l-0.193-0.914h-0.047c-0.32,0.402-0.64,0.675-0.958,0.817s-0.716,0.214-1.192,0.214
		c-0.637,0-1.136-0.164-1.497-0.492s-0.542-0.795-0.542-1.4c0-1.297,1.037-1.977,3.111-2.039l1.09-0.035v-0.398
		c0-0.504-0.108-0.876-0.325-1.116s-0.563-0.36-1.04-0.36c-0.535,0-1.141,0.164-1.816,0.492l-0.299-0.744
		c0.316-0.172,0.663-0.307,1.04-0.404s0.755-0.146,1.134-0.146c0.766,0,1.333,0.17,1.702,0.51s0.554,0.885,0.554,1.635v4.383
		H180.061z M177.863,118.909c0.605,0,1.081-0.166,1.427-0.498s0.519-0.797,0.519-1.395v-0.58l-0.973,0.041
		c-0.773,0.027-1.331,0.147-1.673,0.36s-0.513,0.544-0.513,0.993c0,0.352,0.106,0.619,0.319,0.803S177.481,118.909,177.863,118.909z
		"/>
	<path d="M187.48,119.595v-4.154c0-0.523-0.119-0.914-0.357-1.172s-0.611-0.387-1.119-0.387c-0.672,0-1.164,0.182-1.477,0.545
		s-0.469,0.963-0.469,1.799v3.369h-0.973v-6.422h0.791l0.158,0.879h0.047c0.199-0.316,0.479-0.562,0.838-0.735
		s0.76-0.261,1.201-0.261c0.773,0,1.355,0.187,1.746,0.56s0.586,0.97,0.586,1.79v4.189H187.48z"/>
	<path d="M202.353,119.595v-4.178c0-0.512-0.109-0.896-0.328-1.151s-0.559-0.384-1.02-0.384c-0.605,0-1.053,0.174-1.342,0.521
		s-0.434,0.883-0.434,1.605v3.586h-0.973v-4.178c0-0.512-0.109-0.896-0.328-1.151s-0.561-0.384-1.025-0.384
		c-0.609,0-1.056,0.183-1.339,0.548s-0.425,0.964-0.425,1.796v3.369h-0.973v-6.422h0.791l0.158,0.879h0.047
		c0.184-0.312,0.442-0.557,0.776-0.732s0.708-0.264,1.122-0.264c1.004,0,1.66,0.363,1.969,1.09h0.047
		c0.191-0.336,0.469-0.602,0.832-0.797s0.777-0.293,1.242-0.293c0.727,0,1.271,0.187,1.632,0.56s0.542,0.97,0.542,1.79v4.189
		H202.353z"/>
	<path d="M205.547,111.433c0-0.223,0.055-0.386,0.164-0.489s0.246-0.155,0.41-0.155c0.156,0,0.291,0.053,0.404,0.158
		s0.17,0.268,0.17,0.486s-0.057,0.382-0.17,0.489s-0.248,0.161-0.404,0.161c-0.164,0-0.301-0.054-0.41-0.161
		S205.547,111.651,205.547,111.433z M206.602,119.595h-0.973v-6.422h0.973V119.595z"/>
	<path d="M209.938,119.595h-0.973v-9.117h0.973V119.595z"/>
	<path d="M213.261,116.308c0.168-0.238,0.424-0.551,0.768-0.938l2.074-2.197h1.154l-2.602,2.736l2.783,3.686h-1.178l-2.268-3.035
		l-0.732,0.633v2.402H212.3v-9.117h0.961v4.834c0,0.215-0.016,0.547-0.047,0.996H213.261z"/>
	<path d="M225.21,113.929h-1.635v5.666h-0.973v-5.666h-1.148v-0.439l1.148-0.352v-0.357c0-1.578,0.689-2.367,2.068-2.367
		c0.34,0,0.738,0.068,1.195,0.205l-0.252,0.779c-0.375-0.121-0.695-0.182-0.961-0.182c-0.367,0-0.639,0.122-0.814,0.366
		s-0.264,0.636-0.264,1.175v0.416h1.635V113.929z"/>
	<path d="M232.225,116.378c0,1.047-0.264,1.864-0.791,2.452s-1.256,0.882-2.186,0.882c-0.574,0-1.084-0.135-1.529-0.404
		s-0.789-0.656-1.031-1.16s-0.363-1.094-0.363-1.77c0-1.047,0.262-1.862,0.785-2.446s1.25-0.876,2.18-0.876
		c0.898,0,1.612,0.299,2.142,0.896S232.225,115.358,232.225,116.378z M227.332,116.378c0,0.82,0.164,1.445,0.492,1.875
		s0.811,0.645,1.447,0.645s1.12-0.214,1.45-0.642s0.495-1.054,0.495-1.878c0-0.816-0.165-1.437-0.495-1.86s-0.817-0.636-1.462-0.636
		c-0.637,0-1.117,0.209-1.441,0.627S227.332,115.55,227.332,116.378z"/>
	<path d="M237.16,113.056c0.285,0,0.541,0.023,0.768,0.07l-0.135,0.902c-0.266-0.059-0.5-0.088-0.703-0.088
		c-0.52,0-0.964,0.211-1.333,0.633s-0.554,0.947-0.554,1.576v3.445h-0.973v-6.422h0.803l0.111,1.189h0.047
		c0.238-0.418,0.525-0.74,0.861-0.967S236.758,113.056,237.16,113.056z"/>
	<path d="M246.795,119.595l-0.193-0.914h-0.047c-0.32,0.402-0.64,0.675-0.958,0.817s-0.716,0.214-1.192,0.214
		c-0.637,0-1.136-0.164-1.497-0.492s-0.542-0.795-0.542-1.4c0-1.297,1.037-1.977,3.111-2.039l1.09-0.035v-0.398
		c0-0.504-0.108-0.876-0.325-1.116s-0.563-0.36-1.04-0.36c-0.535,0-1.141,0.164-1.816,0.492l-0.299-0.744
		c0.316-0.172,0.663-0.307,1.04-0.404s0.755-0.146,1.134-0.146c0.766,0,1.333,0.17,1.702,0.51s0.554,0.885,0.554,1.635v4.383
		H246.795z M244.598,118.909c0.605,0,1.081-0.166,1.427-0.498s0.519-0.797,0.519-1.395v-0.58l-0.973,0.041
		c-0.773,0.027-1.331,0.147-1.673,0.36s-0.513,0.544-0.513,0.993c0,0.352,0.106,0.619,0.319,0.803S244.215,118.909,244.598,118.909z
		"/>
	<path d="M250.792,119.595h-0.973v-9.117h0.973V119.595z"/>
	<path d="M254.127,119.595h-0.973v-9.117h0.973V119.595z"/>
	<path d="M265.45,116.378c0,1.047-0.264,1.864-0.791,2.452s-1.256,0.882-2.186,0.882c-0.574,0-1.084-0.135-1.529-0.404
		s-0.789-0.656-1.031-1.16s-0.363-1.094-0.363-1.77c0-1.047,0.262-1.862,0.785-2.446s1.25-0.876,2.18-0.876
		c0.898,0,1.612,0.299,2.142,0.896S265.45,115.358,265.45,116.378z M260.558,116.378c0,0.82,0.164,1.445,0.492,1.875
		s0.811,0.645,1.447,0.645s1.12-0.214,1.45-0.642s0.495-1.054,0.495-1.878c0-0.816-0.165-1.437-0.495-1.86s-0.817-0.636-1.462-0.636
		c-0.637,0-1.117,0.209-1.441,0.627S260.558,115.55,260.558,116.378z"/>
	<path d="M270.35,113.929h-1.635v5.666h-0.973v-5.666h-1.148v-0.439l1.148-0.352v-0.357c0-1.578,0.689-2.367,2.068-2.367
		c0.34,0,0.738,0.068,1.195,0.205l-0.252,0.779c-0.375-0.121-0.695-0.182-0.961-0.182c-0.367,0-0.639,0.122-0.814,0.366
		s-0.264,0.636-0.264,1.175v0.416h1.635V113.929z"/>
	<path d="M280.781,116.378c0,1.047-0.264,1.864-0.791,2.452s-1.256,0.882-2.186,0.882c-0.574,0-1.084-0.135-1.529-0.404
		s-0.789-0.656-1.031-1.16s-0.363-1.094-0.363-1.77c0-1.047,0.262-1.862,0.785-2.446s1.25-0.876,2.18-0.876
		c0.898,0,1.612,0.299,2.142,0.896S280.781,115.358,280.781,116.378z M275.889,116.378c0,0.82,0.164,1.445,0.492,1.875
		s0.811,0.645,1.447,0.645s1.12-0.214,1.45-0.642s0.495-1.054,0.495-1.878c0-0.816-0.165-1.437-0.495-1.86s-0.817-0.636-1.462-0.636
		c-0.637,0-1.117,0.209-1.441,0.627S275.889,115.55,275.889,116.378z"/>
	<path d="M283.701,113.173v4.166c0,0.523,0.119,0.914,0.357,1.172s0.611,0.387,1.119,0.387c0.672,0,1.163-0.184,1.474-0.551
		s0.466-0.967,0.466-1.799v-3.375h0.973v6.422h-0.803l-0.141-0.861h-0.053c-0.199,0.316-0.476,0.559-0.829,0.727
		s-0.757,0.252-1.21,0.252c-0.781,0-1.366-0.186-1.755-0.557s-0.583-0.965-0.583-1.781v-4.201H283.701z"/>
	<path d="M293.382,113.056c0.285,0,0.541,0.023,0.768,0.07l-0.135,0.902c-0.266-0.059-0.5-0.088-0.703-0.088
		c-0.52,0-0.964,0.211-1.333,0.633s-0.554,0.947-0.554,1.576v3.445h-0.973v-6.422h0.803l0.111,1.189h0.047
		c0.238-0.418,0.525-0.74,0.861-0.967S292.98,113.056,293.382,113.056z"/>
	<path d="M29.237,129.067c0.844,0,1.499,0.288,1.966,0.864s0.7,1.392,0.7,2.446s-0.235,1.874-0.706,2.458s-1.124,0.876-1.96,0.876
		c-0.418,0-0.8-0.077-1.146-0.231s-0.636-0.392-0.87-0.712h-0.07l-0.205,0.826h-0.697v-9.117h0.973v2.215
		c0,0.496-0.016,0.941-0.047,1.336h0.047C27.674,129.388,28.346,129.067,29.237,129.067z M29.096,129.882
		c-0.664,0-1.143,0.19-1.436,0.571s-0.439,1.022-0.439,1.925s0.15,1.548,0.451,1.937s0.783,0.583,1.447,0.583
		c0.598,0,1.043-0.218,1.336-0.653s0.439-1.062,0.439-1.878c0-0.836-0.146-1.459-0.439-1.869S29.709,129.882,29.096,129.882z"/>
	<path d="M33.82,127.433c0-0.223,0.055-0.386,0.164-0.489s0.246-0.155,0.41-0.155c0.156,0,0.291,0.053,0.404,0.158
		s0.17,0.268,0.17,0.486s-0.057,0.382-0.17,0.489s-0.248,0.161-0.404,0.161c-0.164,0-0.301-0.054-0.41-0.161
		S33.82,127.651,33.82,127.433z M34.874,135.595h-0.973v-6.422h0.973V135.595z"/>
	<path d="M41.631,135.595v-4.154c0-0.523-0.119-0.914-0.357-1.172s-0.611-0.387-1.119-0.387c-0.672,0-1.164,0.182-1.477,0.545
		s-0.469,0.963-0.469,1.799v3.369h-0.973v-6.422h0.791l0.158,0.879h0.047c0.199-0.316,0.479-0.562,0.838-0.735
		s0.76-0.261,1.201-0.261c0.773,0,1.355,0.187,1.746,0.56s0.586,0.97,0.586,1.79v4.189H41.631z"/>
	<path d="M50.158,129.173v0.615l-1.189,0.141c0.109,0.137,0.207,0.315,0.293,0.536s0.129,0.47,0.129,0.747
		c0,0.629-0.215,1.131-0.645,1.506s-1.02,0.562-1.77,0.562c-0.191,0-0.371-0.016-0.539-0.047c-0.414,0.219-0.621,0.494-0.621,0.826
		c0,0.176,0.072,0.306,0.217,0.39s0.393,0.126,0.744,0.126h1.137c0.695,0,1.229,0.146,1.603,0.439s0.56,0.719,0.56,1.277
		c0,0.711-0.285,1.253-0.855,1.626s-1.402,0.56-2.496,0.56c-0.84,0-1.487-0.156-1.942-0.469s-0.683-0.754-0.683-1.324
		c0-0.391,0.125-0.729,0.375-1.014s0.602-0.479,1.055-0.58c-0.164-0.074-0.302-0.189-0.413-0.346s-0.167-0.338-0.167-0.545
		c0-0.234,0.062-0.439,0.188-0.615s0.322-0.346,0.592-0.51c-0.332-0.137-0.603-0.369-0.812-0.697s-0.313-0.703-0.313-1.125
		c0-0.703,0.211-1.245,0.633-1.626s1.02-0.571,1.793-0.571c0.336,0,0.639,0.039,0.908,0.117H50.158z M45.037,136.673
		c0,0.348,0.146,0.611,0.439,0.791s0.713,0.27,1.26,0.27c0.816,0,1.421-0.122,1.813-0.366s0.589-0.575,0.589-0.993
		c0-0.348-0.107-0.589-0.322-0.724s-0.619-0.202-1.213-0.202h-1.166c-0.441,0-0.785,0.105-1.031,0.316
		S45.037,136.278,45.037,136.673z M45.565,131.229c0,0.449,0.127,0.789,0.381,1.02s0.607,0.346,1.061,0.346
		c0.949,0,1.424-0.461,1.424-1.383c0-0.965-0.48-1.447-1.441-1.447c-0.457,0-0.809,0.123-1.055,0.369S45.565,130.745,45.565,131.229
		z"/>
	<path d="M55.919,133.843c0,0.598-0.223,1.059-0.668,1.383s-1.07,0.486-1.875,0.486c-0.852,0-1.516-0.135-1.992-0.404v-0.902
		c0.309,0.156,0.64,0.279,0.993,0.369s0.694,0.135,1.022,0.135c0.508,0,0.898-0.081,1.172-0.243s0.41-0.409,0.41-0.741
		c0-0.25-0.108-0.464-0.325-0.642s-0.64-0.388-1.269-0.63c-0.598-0.223-1.022-0.417-1.274-0.583s-0.439-0.354-0.562-0.565
		s-0.185-0.463-0.185-0.756c0-0.523,0.213-0.937,0.639-1.239s1.01-0.454,1.752-0.454c0.691,0,1.367,0.141,2.027,0.422l-0.346,0.791
		c-0.645-0.266-1.229-0.398-1.752-0.398c-0.461,0-0.809,0.072-1.043,0.217s-0.352,0.344-0.352,0.598
		c0,0.172,0.044,0.318,0.132,0.439s0.229,0.236,0.425,0.346s0.57,0.268,1.125,0.475c0.762,0.277,1.276,0.557,1.544,0.838
		S55.919,133.417,55.919,133.843z"/>
	<path d="M63.344,132.378c0,1.047-0.264,1.864-0.791,2.452s-1.256,0.882-2.186,0.882c-0.574,0-1.084-0.135-1.529-0.404
		s-0.789-0.656-1.031-1.16s-0.363-1.094-0.363-1.77c0-1.047,0.262-1.862,0.785-2.446s1.25-0.876,2.18-0.876
		c0.898,0,1.612,0.299,2.142,0.896S63.344,131.358,63.344,132.378z M58.451,132.378c0,0.82,0.164,1.445,0.492,1.875
		s0.811,0.645,1.447,0.645s1.12-0.214,1.45-0.642s0.495-1.054,0.495-1.878c0-0.816-0.165-1.437-0.495-1.86s-0.817-0.636-1.462-0.636
		c-0.637,0-1.117,0.209-1.441,0.627S58.451,131.55,58.451,132.378z"/>
	<path d="M70.892,132.378c0,1.047-0.264,1.864-0.791,2.452s-1.256,0.882-2.186,0.882c-0.574,0-1.084-0.135-1.529-0.404
		s-0.789-0.656-1.031-1.16s-0.363-1.094-0.363-1.77c0-1.047,0.262-1.862,0.785-2.446s1.25-0.876,2.18-0.876
		c0.898,0,1.612,0.299,2.142,0.896S70.892,131.358,70.892,132.378z M65.999,132.378c0,0.82,0.164,1.445,0.492,1.875
		s0.811,0.645,1.447,0.645s1.12-0.214,1.45-0.642s0.495-1.054,0.495-1.878c0-0.816-0.165-1.437-0.495-1.86s-0.817-0.636-1.462-0.636
		c-0.637,0-1.117,0.209-1.441,0.627S65.999,131.55,65.999,132.378z"/>
	<path d="M79.303,135.712c-0.418,0-0.8-0.077-1.146-0.231s-0.636-0.392-0.87-0.712h-0.07c0.047,0.375,0.07,0.73,0.07,1.066v2.643
		h-0.973v-9.305h0.791l0.135,0.879h0.047c0.25-0.352,0.541-0.605,0.873-0.762s0.713-0.234,1.143-0.234
		c0.852,0,1.509,0.291,1.972,0.873s0.694,1.398,0.694,2.449c0,1.055-0.235,1.874-0.706,2.458S80.139,135.712,79.303,135.712z
		 M79.162,129.882c-0.656,0-1.131,0.182-1.424,0.545s-0.443,0.941-0.451,1.734v0.217c0,0.902,0.15,1.548,0.451,1.937
		s0.783,0.583,1.447,0.583c0.555,0,0.989-0.225,1.304-0.674s0.472-1.068,0.472-1.857c0-0.801-0.157-1.415-0.472-1.843
		S79.733,129.882,79.162,129.882z"/>
	<path d="M86.898,129.056c0.285,0,0.541,0.023,0.768,0.07l-0.135,0.902c-0.266-0.059-0.5-0.088-0.703-0.088
		c-0.52,0-0.964,0.211-1.333,0.633s-0.554,0.947-0.554,1.576v3.445h-0.973v-6.422h0.803l0.111,1.189h0.047
		c0.238-0.418,0.525-0.74,0.861-0.967S86.495,129.056,86.898,129.056z"/>
	<path d="M94.709,132.378c0,1.047-0.264,1.864-0.791,2.452s-1.256,0.882-2.186,0.882c-0.574,0-1.084-0.135-1.529-0.404
		s-0.789-0.656-1.031-1.16s-0.363-1.094-0.363-1.77c0-1.047,0.262-1.862,0.785-2.446s1.25-0.876,2.18-0.876
		c0.898,0,1.612,0.299,2.142,0.896S94.709,131.358,94.709,132.378z M89.817,132.378c0,0.82,0.164,1.445,0.492,1.875
		s0.811,0.645,1.447,0.645s1.12-0.214,1.45-0.642s0.495-1.054,0.495-1.878c0-0.816-0.165-1.437-0.495-1.86s-0.817-0.636-1.462-0.636
		c-0.637,0-1.117,0.209-1.441,0.627S89.817,131.55,89.817,132.378z"/>
	<path d="M101.085,134.733h-0.053c-0.449,0.652-1.121,0.979-2.016,0.979c-0.84,0-1.493-0.287-1.96-0.861s-0.7-1.391-0.7-2.449
		s0.234-1.881,0.703-2.467s1.121-0.879,1.957-0.879c0.871,0,1.539,0.316,2.004,0.949h0.076l-0.041-0.463l-0.023-0.451v-2.613h0.973
		v9.117h-0.791L101.085,134.733z M99.14,134.897c0.664,0,1.146-0.181,1.444-0.542s0.448-0.944,0.448-1.749v-0.205
		c0-0.91-0.151-1.56-0.454-1.948s-0.786-0.583-1.45-0.583c-0.57,0-1.007,0.222-1.31,0.665s-0.454,1.069-0.454,1.878
		c0,0.82,0.15,1.439,0.451,1.857S98.558,134.897,99.14,134.897z"/>
	<path d="M105.281,129.173v4.166c0,0.523,0.119,0.914,0.357,1.172s0.611,0.387,1.119,0.387c0.672,0,1.163-0.184,1.474-0.551
		s0.466-0.967,0.466-1.799v-3.375h0.973v6.422h-0.803l-0.141-0.861h-0.053c-0.199,0.316-0.476,0.559-0.829,0.727
		s-0.757,0.252-1.21,0.252c-0.781,0-1.366-0.186-1.755-0.557s-0.583-0.965-0.583-1.781v-4.201H105.281z"/>
	<path d="M114.6,135.712c-0.93,0-1.649-0.286-2.159-0.858s-0.765-1.382-0.765-2.429c0-1.074,0.259-1.904,0.776-2.49
		s1.255-0.879,2.212-0.879c0.309,0,0.617,0.033,0.926,0.1s0.551,0.145,0.727,0.234l-0.299,0.826
		c-0.215-0.086-0.449-0.157-0.703-0.214s-0.479-0.085-0.674-0.085c-1.305,0-1.957,0.832-1.957,2.496
		c0,0.789,0.159,1.395,0.478,1.816s0.79,0.633,1.415,0.633c0.535,0,1.084-0.115,1.646-0.346v0.861
		C115.793,135.601,115.252,135.712,114.6,135.712z"/>
	<path d="M120.12,134.909c0.172,0,0.338-0.013,0.498-0.038s0.287-0.052,0.381-0.079v0.744c-0.105,0.051-0.261,0.093-0.466,0.126
		s-0.39,0.05-0.554,0.05c-1.242,0-1.863-0.654-1.863-1.963v-3.82h-0.92v-0.469l0.92-0.404l0.41-1.371h0.562v1.488h1.863v0.756
		h-1.863v3.779c0,0.387,0.092,0.684,0.275,0.891S119.8,134.909,120.12,134.909z"/>
	<path d="M126.725,133.843c0,0.598-0.223,1.059-0.668,1.383s-1.07,0.486-1.875,0.486c-0.852,0-1.516-0.135-1.992-0.404v-0.902
		c0.309,0.156,0.64,0.279,0.993,0.369s0.694,0.135,1.022,0.135c0.508,0,0.898-0.081,1.172-0.243s0.41-0.409,0.41-0.741
		c0-0.25-0.108-0.464-0.325-0.642s-0.64-0.388-1.269-0.63c-0.598-0.223-1.022-0.417-1.274-0.583s-0.439-0.354-0.562-0.565
		s-0.185-0.463-0.185-0.756c0-0.523,0.213-0.937,0.639-1.239s1.01-0.454,1.752-0.454c0.691,0,1.367,0.141,2.027,0.422l-0.346,0.791
		c-0.645-0.266-1.229-0.398-1.752-0.398c-0.461,0-0.809,0.072-1.043,0.217s-0.352,0.344-0.352,0.598
		c0,0.172,0.044,0.318,0.132,0.439s0.229,0.236,0.425,0.346s0.57,0.268,1.125,0.475c0.762,0.277,1.276,0.557,1.544,0.838
		S126.725,133.417,126.725,133.843z"/>
	<path d="M128.466,134.974c0-0.262,0.06-0.46,0.179-0.595s0.29-0.202,0.513-0.202c0.227,0,0.403,0.067,0.53,0.202
		s0.19,0.333,0.19,0.595c0,0.254-0.064,0.449-0.193,0.586s-0.305,0.205-0.527,0.205c-0.199,0-0.364-0.062-0.495-0.185
		S128.466,135.255,128.466,134.974z"/>
	<path d="M138.301,135.595h-0.996v-7.682h-2.713v-0.885h6.422v0.885h-2.713V135.595z"/>
	<path d="M146.851,135.595v-4.154c0-0.523-0.119-0.914-0.357-1.172s-0.611-0.387-1.119-0.387c-0.676,0-1.169,0.184-1.479,0.551
		s-0.466,0.969-0.466,1.805v3.357h-0.973v-9.117h0.973v2.76c0,0.332-0.016,0.607-0.047,0.826h0.059
		c0.191-0.309,0.464-0.552,0.817-0.729s0.757-0.267,1.21-0.267c0.785,0,1.374,0.187,1.767,0.56s0.589,0.966,0.589,1.778v4.189
		H146.851z"/>
	<path d="M150.039,127.433c0-0.223,0.055-0.386,0.164-0.489s0.246-0.155,0.41-0.155c0.156,0,0.291,0.053,0.404,0.158
		s0.17,0.268,0.17,0.486s-0.057,0.382-0.17,0.489s-0.248,0.161-0.404,0.161c-0.164,0-0.301-0.054-0.41-0.161
		S150.039,127.651,150.039,127.433z M151.094,135.595h-0.973v-6.422h0.973V135.595z"/>
	<path d="M157.599,133.843c0,0.598-0.223,1.059-0.668,1.383s-1.07,0.486-1.875,0.486c-0.852,0-1.516-0.135-1.992-0.404v-0.902
		c0.309,0.156,0.64,0.279,0.993,0.369s0.694,0.135,1.022,0.135c0.508,0,0.898-0.081,1.172-0.243s0.41-0.409,0.41-0.741
		c0-0.25-0.108-0.464-0.325-0.642s-0.64-0.388-1.269-0.63c-0.598-0.223-1.022-0.417-1.274-0.583s-0.439-0.354-0.562-0.565
		s-0.185-0.463-0.185-0.756c0-0.523,0.213-0.937,0.639-1.239s1.01-0.454,1.752-0.454c0.691,0,1.367,0.141,2.027,0.422l-0.346,0.791
		c-0.645-0.266-1.229-0.398-1.752-0.398c-0.461,0-0.809,0.072-1.043,0.217s-0.352,0.344-0.352,0.598
		c0,0.172,0.044,0.318,0.132,0.439s0.229,0.236,0.425,0.346s0.57,0.268,1.125,0.475c0.762,0.277,1.276,0.557,1.544,0.838
		S157.599,133.417,157.599,133.843z"/>
	<path d="M168.154,129.173v0.615l-1.189,0.141c0.109,0.137,0.207,0.315,0.293,0.536s0.129,0.47,0.129,0.747
		c0,0.629-0.215,1.131-0.645,1.506s-1.02,0.562-1.77,0.562c-0.191,0-0.371-0.016-0.539-0.047c-0.414,0.219-0.621,0.494-0.621,0.826
		c0,0.176,0.072,0.306,0.217,0.39s0.393,0.126,0.744,0.126h1.137c0.695,0,1.229,0.146,1.603,0.439s0.56,0.719,0.56,1.277
		c0,0.711-0.285,1.253-0.855,1.626s-1.402,0.56-2.496,0.56c-0.84,0-1.487-0.156-1.942-0.469s-0.683-0.754-0.683-1.324
		c0-0.391,0.125-0.729,0.375-1.014s0.602-0.479,1.055-0.58c-0.164-0.074-0.302-0.189-0.413-0.346s-0.167-0.338-0.167-0.545
		c0-0.234,0.062-0.439,0.188-0.615s0.322-0.346,0.592-0.51c-0.332-0.137-0.603-0.369-0.812-0.697s-0.313-0.703-0.313-1.125
		c0-0.703,0.211-1.245,0.633-1.626s1.02-0.571,1.793-0.571c0.336,0,0.639,0.039,0.908,0.117H168.154z M163.033,136.673
		c0,0.348,0.146,0.611,0.439,0.791s0.713,0.27,1.26,0.27c0.816,0,1.421-0.122,1.813-0.366s0.589-0.575,0.589-0.993
		c0-0.348-0.107-0.589-0.322-0.724s-0.619-0.202-1.213-0.202h-1.166c-0.441,0-0.785,0.105-1.031,0.316
		S163.033,136.278,163.033,136.673z M163.561,131.229c0,0.449,0.127,0.789,0.381,1.02s0.607,0.346,1.061,0.346
		c0.949,0,1.424-0.461,1.424-1.383c0-0.965-0.48-1.447-1.441-1.447c-0.457,0-0.809,0.123-1.055,0.369
		S163.561,130.745,163.561,131.229z"/>
	<path d="M169.691,127.433c0-0.223,0.055-0.386,0.164-0.489s0.246-0.155,0.41-0.155c0.156,0,0.291,0.053,0.404,0.158
		s0.17,0.268,0.17,0.486s-0.057,0.382-0.17,0.489s-0.248,0.161-0.404,0.161c-0.164,0-0.301-0.054-0.41-0.161
		S169.691,127.651,169.691,127.433z M170.745,135.595h-0.973v-6.422h0.973V135.595z"/>
	<path d="M174.514,135.595l-2.438-6.422h1.043l1.383,3.809c0.312,0.891,0.496,1.469,0.551,1.734h0.047
		c0.043-0.207,0.179-0.636,0.407-1.286s0.741-2.069,1.538-4.257h1.043l-2.438,6.422H174.514z"/>
	<path d="M182.132,135.712c-0.949,0-1.698-0.289-2.247-0.867s-0.823-1.381-0.823-2.408c0-1.035,0.255-1.857,0.765-2.467
		s1.194-0.914,2.054-0.914c0.805,0,1.441,0.265,1.91,0.794s0.703,1.228,0.703,2.095v0.615h-4.424c0.02,0.754,0.21,1.326,0.571,1.717
		s0.87,0.586,1.526,0.586c0.691,0,1.375-0.145,2.051-0.434v0.867c-0.344,0.148-0.669,0.255-0.976,0.319
		S182.566,135.712,182.132,135.712z M181.868,129.87c-0.516,0-0.927,0.168-1.233,0.504s-0.487,0.801-0.542,1.395h3.357
		c0-0.613-0.137-1.083-0.41-1.409S182.376,129.87,181.868,129.87z"/>
	<path d="M190.594,133.843c0,0.598-0.223,1.059-0.668,1.383s-1.07,0.486-1.875,0.486c-0.852,0-1.516-0.135-1.992-0.404v-0.902
		c0.309,0.156,0.64,0.279,0.993,0.369s0.694,0.135,1.022,0.135c0.508,0,0.898-0.081,1.172-0.243s0.41-0.409,0.41-0.741
		c0-0.25-0.108-0.464-0.325-0.642s-0.64-0.388-1.269-0.63c-0.598-0.223-1.022-0.417-1.274-0.583s-0.439-0.354-0.562-0.565
		s-0.185-0.463-0.185-0.756c0-0.523,0.213-0.937,0.639-1.239s1.01-0.454,1.752-0.454c0.691,0,1.367,0.141,2.027,0.422l-0.346,0.791
		c-0.645-0.266-1.229-0.398-1.752-0.398c-0.461,0-0.809,0.072-1.043,0.217s-0.352,0.344-0.352,0.598
		c0,0.172,0.044,0.318,0.132,0.439s0.229,0.236,0.425,0.346s0.57,0.268,1.125,0.475c0.762,0.277,1.276,0.557,1.544,0.838
		S190.594,133.417,190.594,133.843z"/>
	<path d="M201.437,132.378c0,1.047-0.264,1.864-0.791,2.452s-1.256,0.882-2.186,0.882c-0.574,0-1.084-0.135-1.529-0.404
		s-0.789-0.656-1.031-1.16s-0.363-1.094-0.363-1.77c0-1.047,0.262-1.862,0.785-2.446s1.25-0.876,2.18-0.876
		c0.898,0,1.612,0.299,2.142,0.896S201.437,131.358,201.437,132.378z M196.544,132.378c0,0.82,0.164,1.445,0.492,1.875
		s0.811,0.645,1.447,0.645s1.12-0.214,1.45-0.642s0.495-1.054,0.495-1.878c0-0.816-0.165-1.437-0.495-1.86s-0.817-0.636-1.462-0.636
		c-0.637,0-1.117,0.209-1.441,0.627S196.544,131.55,196.544,132.378z"/>
	<path d="M204.356,129.173v4.166c0,0.523,0.119,0.914,0.357,1.172s0.611,0.387,1.119,0.387c0.672,0,1.163-0.184,1.474-0.551
		s0.466-0.967,0.466-1.799v-3.375h0.973v6.422h-0.803l-0.141-0.861h-0.053c-0.199,0.316-0.476,0.559-0.829,0.727
		s-0.757,0.252-1.21,0.252c-0.781,0-1.366-0.186-1.755-0.557s-0.583-0.965-0.583-1.781v-4.201H204.356z"/>
	<path d="M214.036,129.056c0.285,0,0.541,0.023,0.768,0.07l-0.135,0.902c-0.266-0.059-0.5-0.088-0.703-0.088
		c-0.52,0-0.964,0.211-1.333,0.633s-0.554,0.947-0.554,1.576v3.445h-0.973v-6.422h0.803l0.111,1.189h0.047
		c0.238-0.418,0.525-0.74,0.861-0.967S213.634,129.056,214.036,129.056z"/>
	<path d="M222.711,129.067c0.844,0,1.499,0.288,1.966,0.864s0.7,1.392,0.7,2.446s-0.235,1.874-0.706,2.458s-1.124,0.876-1.96,0.876
		c-0.418,0-0.8-0.077-1.146-0.231s-0.636-0.392-0.87-0.712h-0.07l-0.205,0.826h-0.697v-9.117h0.973v2.215
		c0,0.496-0.016,0.941-0.047,1.336h0.047C221.149,129.388,221.82,129.067,222.711,129.067z M222.57,129.882
		c-0.664,0-1.143,0.19-1.436,0.571s-0.439,1.022-0.439,1.925s0.15,1.548,0.451,1.937s0.783,0.583,1.447,0.583
		c0.598,0,1.043-0.218,1.336-0.653s0.439-1.062,0.439-1.878c0-0.836-0.146-1.459-0.439-1.869S223.184,129.882,222.57,129.882z"/>
	<path d="M227.294,127.433c0-0.223,0.055-0.386,0.164-0.489s0.246-0.155,0.41-0.155c0.156,0,0.291,0.053,0.404,0.158
		s0.17,0.268,0.17,0.486s-0.057,0.382-0.17,0.489s-0.248,0.161-0.404,0.161c-0.164,0-0.301-0.054-0.41-0.161
		S227.294,127.651,227.294,127.433z M228.349,135.595h-0.973v-6.422h0.973V135.595z"/>
	<path d="M235.106,135.595v-4.154c0-0.523-0.119-0.914-0.357-1.172s-0.611-0.387-1.119-0.387c-0.672,0-1.164,0.182-1.477,0.545
		s-0.469,0.963-0.469,1.799v3.369h-0.973v-6.422h0.791l0.158,0.879h0.047c0.199-0.316,0.479-0.562,0.838-0.735
		s0.76-0.261,1.201-0.261c0.773,0,1.355,0.187,1.746,0.56s0.586,0.97,0.586,1.79v4.189H235.106z"/>
	<path d="M243.632,129.173v0.615l-1.189,0.141c0.109,0.137,0.207,0.315,0.293,0.536s0.129,0.47,0.129,0.747
		c0,0.629-0.215,1.131-0.645,1.506s-1.02,0.562-1.77,0.562c-0.191,0-0.371-0.016-0.539-0.047c-0.414,0.219-0.621,0.494-0.621,0.826
		c0,0.176,0.072,0.306,0.217,0.39s0.393,0.126,0.744,0.126h1.137c0.695,0,1.229,0.146,1.603,0.439s0.56,0.719,0.56,1.277
		c0,0.711-0.285,1.253-0.855,1.626s-1.402,0.56-2.496,0.56c-0.84,0-1.487-0.156-1.942-0.469s-0.683-0.754-0.683-1.324
		c0-0.391,0.125-0.729,0.375-1.014s0.602-0.479,1.055-0.58c-0.164-0.074-0.302-0.189-0.413-0.346s-0.167-0.338-0.167-0.545
		c0-0.234,0.062-0.439,0.188-0.615s0.322-0.346,0.592-0.51c-0.332-0.137-0.603-0.369-0.812-0.697s-0.313-0.703-0.313-1.125
		c0-0.703,0.211-1.245,0.633-1.626s1.02-0.571,1.793-0.571c0.336,0,0.639,0.039,0.908,0.117H243.632z M238.511,136.673
		c0,0.348,0.146,0.611,0.439,0.791s0.713,0.27,1.26,0.27c0.816,0,1.421-0.122,1.813-0.366s0.589-0.575,0.589-0.993
		c0-0.348-0.107-0.589-0.322-0.724s-0.619-0.202-1.213-0.202h-1.166c-0.441,0-0.785,0.105-1.031,0.316
		S238.511,136.278,238.511,136.673z M239.038,131.229c0,0.449,0.127,0.789,0.381,1.02s0.607,0.346,1.061,0.346
		c0.949,0,1.424-0.461,1.424-1.383c0-0.965-0.48-1.447-1.441-1.447c-0.457,0-0.809,0.123-1.055,0.369
		S239.038,130.745,239.038,131.229z"/>
	<path d="M249.393,133.843c0,0.598-0.223,1.059-0.668,1.383s-1.07,0.486-1.875,0.486c-0.852,0-1.516-0.135-1.992-0.404v-0.902
		c0.309,0.156,0.64,0.279,0.993,0.369s0.694,0.135,1.022,0.135c0.508,0,0.898-0.081,1.172-0.243s0.41-0.409,0.41-0.741
		c0-0.25-0.108-0.464-0.325-0.642s-0.64-0.388-1.269-0.63c-0.598-0.223-1.022-0.417-1.274-0.583s-0.439-0.354-0.562-0.565
		s-0.185-0.463-0.185-0.756c0-0.523,0.213-0.937,0.639-1.239s1.01-0.454,1.752-0.454c0.691,0,1.367,0.141,2.027,0.422l-0.346,0.791
		c-0.645-0.266-1.229-0.398-1.752-0.398c-0.461,0-0.809,0.072-1.043,0.217s-0.352,0.344-0.352,0.598
		c0,0.172,0.044,0.318,0.132,0.439s0.229,0.236,0.425,0.346s0.57,0.268,1.125,0.475c0.762,0.277,1.276,0.557,1.544,0.838
		S249.393,133.417,249.393,133.843z"/>
	<path d="M256.819,132.378c0,1.047-0.264,1.864-0.791,2.452s-1.256,0.882-2.186,0.882c-0.574,0-1.084-0.135-1.529-0.404
		s-0.789-0.656-1.031-1.16s-0.363-1.094-0.363-1.77c0-1.047,0.262-1.862,0.785-2.446s1.25-0.876,2.18-0.876
		c0.898,0,1.612,0.299,2.142,0.896S256.819,131.358,256.819,132.378z M251.926,132.378c0,0.82,0.164,1.445,0.492,1.875
		s0.811,0.645,1.447,0.645s1.12-0.214,1.45-0.642s0.495-1.054,0.495-1.878c0-0.816-0.165-1.437-0.495-1.86s-0.817-0.636-1.462-0.636
		c-0.637,0-1.117,0.209-1.441,0.627S251.926,131.55,251.926,132.378z"/>
	<path d="M264.366,132.378c0,1.047-0.264,1.864-0.791,2.452s-1.256,0.882-2.186,0.882c-0.574,0-1.084-0.135-1.529-0.404
		s-0.789-0.656-1.031-1.16s-0.363-1.094-0.363-1.77c0-1.047,0.262-1.862,0.785-2.446s1.25-0.876,2.18-0.876
		c0.898,0,1.612,0.299,2.142,0.896S264.366,131.358,264.366,132.378z M259.474,132.378c0,0.82,0.164,1.445,0.492,1.875
		s0.811,0.645,1.447,0.645s1.12-0.214,1.45-0.642s0.495-1.054,0.495-1.878c0-0.816-0.165-1.437-0.495-1.86s-0.817-0.636-1.462-0.636
		c-0.637,0-1.117,0.209-1.441,0.627S259.474,131.55,259.474,132.378z"/>
	<path d="M273.737,135.595l-0.193-0.914h-0.047c-0.32,0.402-0.64,0.675-0.958,0.817s-0.716,0.214-1.192,0.214
		c-0.637,0-1.136-0.164-1.497-0.492s-0.542-0.795-0.542-1.4c0-1.297,1.037-1.977,3.111-2.039l1.09-0.035v-0.398
		c0-0.504-0.108-0.876-0.325-1.116s-0.563-0.36-1.04-0.36c-0.535,0-1.141,0.164-1.816,0.492l-0.299-0.744
		c0.316-0.172,0.663-0.307,1.04-0.404s0.755-0.146,1.134-0.146c0.766,0,1.333,0.17,1.702,0.51s0.554,0.885,0.554,1.635v4.383
		H273.737z M271.54,134.909c0.605,0,1.081-0.166,1.427-0.498s0.519-0.797,0.519-1.395v-0.58l-0.973,0.041
		c-0.773,0.027-1.331,0.147-1.673,0.36s-0.513,0.544-0.513,0.993c0,0.352,0.106,0.619,0.319,0.803S271.157,134.909,271.54,134.909z"
		/>
	<path d="M30.391,149.843c0,0.598-0.223,1.059-0.668,1.383s-1.07,0.486-1.875,0.486c-0.852,0-1.516-0.135-1.992-0.404v-0.902
		c0.309,0.156,0.64,0.279,0.993,0.369s0.694,0.135,1.022,0.135c0.508,0,0.898-0.081,1.172-0.243s0.41-0.409,0.41-0.741
		c0-0.25-0.108-0.464-0.325-0.642s-0.64-0.388-1.269-0.63c-0.598-0.223-1.022-0.417-1.274-0.583s-0.439-0.354-0.562-0.565
		s-0.185-0.463-0.185-0.756c0-0.523,0.213-0.937,0.639-1.239s1.01-0.454,1.752-0.454c0.691,0,1.367,0.141,2.027,0.422l-0.346,0.791
		c-0.645-0.266-1.229-0.398-1.752-0.398c-0.461,0-0.809,0.072-1.043,0.217s-0.352,0.344-0.352,0.598
		c0,0.172,0.044,0.318,0.132,0.439s0.229,0.236,0.425,0.346s0.57,0.268,1.125,0.475c0.762,0.277,1.276,0.557,1.544,0.838
		S30.391,149.417,30.391,149.843z"/>
	<path d="M40.458,151.595v-4.178c0-0.512-0.109-0.896-0.328-1.151s-0.559-0.384-1.02-0.384c-0.605,0-1.053,0.174-1.342,0.521
		s-0.434,0.883-0.434,1.605v3.586h-0.973v-4.178c0-0.512-0.109-0.896-0.328-1.151s-0.561-0.384-1.025-0.384
		c-0.609,0-1.056,0.183-1.339,0.548s-0.425,0.964-0.425,1.796v3.369h-0.973v-6.422h0.791l0.158,0.879h0.047
		c0.184-0.312,0.442-0.557,0.776-0.732s0.708-0.264,1.122-0.264c1.004,0,1.66,0.363,1.969,1.09h0.047
		c0.191-0.336,0.469-0.602,0.832-0.797s0.777-0.293,1.242-0.293c0.727,0,1.271,0.187,1.632,0.56s0.542,0.97,0.542,1.79v4.189H40.458
		z"/>
	<path d="M49.278,148.378c0,1.047-0.264,1.864-0.791,2.452s-1.256,0.882-2.186,0.882c-0.574,0-1.084-0.135-1.529-0.404
		s-0.789-0.656-1.031-1.16s-0.363-1.094-0.363-1.77c0-1.047,0.262-1.862,0.785-2.446s1.25-0.876,2.18-0.876
		c0.898,0,1.612,0.299,2.142,0.896S49.278,147.358,49.278,148.378z M44.385,148.378c0,0.82,0.164,1.445,0.492,1.875
		s0.811,0.645,1.447,0.645s1.12-0.214,1.45-0.642s0.495-1.054,0.495-1.878c0-0.816-0.165-1.437-0.495-1.86s-0.817-0.636-1.462-0.636
		c-0.637,0-1.117,0.209-1.441,0.627S44.385,147.55,44.385,148.378z"/>
	<path d="M56.826,148.378c0,1.047-0.264,1.864-0.791,2.452s-1.256,0.882-2.186,0.882c-0.574,0-1.084-0.135-1.529-0.404
		s-0.789-0.656-1.031-1.16s-0.363-1.094-0.363-1.77c0-1.047,0.262-1.862,0.785-2.446s1.25-0.876,2.18-0.876
		c0.898,0,1.612,0.299,2.142,0.896S56.826,147.358,56.826,148.378z M51.934,148.378c0,0.82,0.164,1.445,0.492,1.875
		s0.811,0.645,1.447,0.645s1.12-0.214,1.45-0.642s0.495-1.054,0.495-1.878c0-0.816-0.165-1.437-0.495-1.86s-0.817-0.636-1.462-0.636
		c-0.637,0-1.117,0.209-1.441,0.627S51.934,147.55,51.934,148.378z"/>
	<path d="M60.905,150.909c0.172,0,0.338-0.013,0.498-0.038s0.287-0.052,0.381-0.079v0.744c-0.105,0.051-0.261,0.093-0.466,0.126
		s-0.39,0.05-0.554,0.05c-1.242,0-1.863-0.654-1.863-1.963v-3.82h-0.92v-0.469l0.92-0.404l0.41-1.371h0.562v1.488h1.863v0.756
		h-1.863v3.779c0,0.387,0.092,0.684,0.275,0.891S60.585,150.909,60.905,150.909z"/>
	<path d="M67.762,151.595v-4.154c0-0.523-0.119-0.914-0.357-1.172s-0.611-0.387-1.119-0.387c-0.676,0-1.169,0.184-1.479,0.551
		s-0.466,0.969-0.466,1.805v3.357h-0.973v-9.117h0.973v2.76c0,0.332-0.016,0.607-0.047,0.826h0.059
		c0.191-0.309,0.464-0.552,0.817-0.729s0.757-0.267,1.21-0.267c0.785,0,1.374,0.187,1.767,0.56s0.589,0.966,0.589,1.778v4.189
		H67.762z"/>
	<path d="M78.399,151.595l-0.193-0.914h-0.047c-0.32,0.402-0.64,0.675-0.958,0.817s-0.716,0.214-1.192,0.214
		c-0.637,0-1.136-0.164-1.497-0.492s-0.542-0.795-0.542-1.4c0-1.297,1.037-1.977,3.111-2.039l1.09-0.035v-0.398
		c0-0.504-0.108-0.876-0.325-1.116s-0.563-0.36-1.04-0.36c-0.535,0-1.141,0.164-1.816,0.492l-0.299-0.744
		c0.316-0.172,0.663-0.307,1.04-0.404s0.755-0.146,1.134-0.146c0.766,0,1.333,0.17,1.702,0.51s0.554,0.885,0.554,1.635v4.383H78.399
		z M76.201,150.909c0.605,0,1.081-0.166,1.427-0.498s0.519-0.797,0.519-1.395v-0.58l-0.973,0.041
		c-0.773,0.027-1.331,0.147-1.673,0.36s-0.513,0.544-0.513,0.993c0,0.352,0.106,0.619,0.319,0.803S75.819,150.909,76.201,150.909z"
		/>
	<path d="M85.819,151.595v-4.154c0-0.523-0.119-0.914-0.357-1.172s-0.611-0.387-1.119-0.387c-0.672,0-1.164,0.182-1.477,0.545
		s-0.469,0.963-0.469,1.799v3.369h-0.973v-6.422h0.791l0.158,0.879h0.047c0.199-0.316,0.479-0.562,0.838-0.735
		s0.76-0.261,1.201-0.261c0.773,0,1.355,0.187,1.746,0.56s0.586,0.97,0.586,1.79v4.189H85.819z"/>
	<path d="M93.46,150.733h-0.053c-0.449,0.652-1.121,0.979-2.016,0.979c-0.84,0-1.493-0.287-1.96-0.861s-0.7-1.391-0.7-2.449
		s0.234-1.881,0.703-2.467s1.121-0.879,1.957-0.879c0.871,0,1.539,0.316,2.004,0.949h0.076l-0.041-0.463l-0.023-0.451v-2.613h0.973
		v9.117h-0.791L93.46,150.733z M91.515,150.897c0.664,0,1.146-0.181,1.444-0.542s0.448-0.944,0.448-1.749v-0.205
		c0-0.91-0.151-1.56-0.454-1.948s-0.786-0.583-1.45-0.583c-0.57,0-1.007,0.222-1.31,0.665s-0.454,1.069-0.454,1.878
		c0,0.82,0.15,1.439,0.451,1.857S90.933,150.897,91.515,150.897z"/>
	<path d="M104.302,149.843c0,0.598-0.223,1.059-0.668,1.383s-1.07,0.486-1.875,0.486c-0.852,0-1.516-0.135-1.992-0.404v-0.902
		c0.309,0.156,0.64,0.279,0.993,0.369s0.694,0.135,1.022,0.135c0.508,0,0.898-0.081,1.172-0.243s0.41-0.409,0.41-0.741
		c0-0.25-0.108-0.464-0.325-0.642s-0.64-0.388-1.269-0.63c-0.598-0.223-1.022-0.417-1.274-0.583s-0.439-0.354-0.562-0.565
		s-0.185-0.463-0.185-0.756c0-0.523,0.213-0.937,0.639-1.239s1.01-0.454,1.752-0.454c0.691,0,1.367,0.141,2.027,0.422l-0.346,0.791
		c-0.645-0.266-1.229-0.398-1.752-0.398c-0.461,0-0.809,0.072-1.043,0.217s-0.352,0.344-0.352,0.598
		c0,0.172,0.044,0.318,0.132,0.439s0.229,0.236,0.425,0.346s0.57,0.268,1.125,0.475c0.762,0.277,1.276,0.557,1.544,0.838
		S104.302,149.417,104.302,149.843z"/>
	<path d="M106.102,143.433c0-0.223,0.055-0.386,0.164-0.489s0.246-0.155,0.41-0.155c0.156,0,0.291,0.053,0.404,0.158
		s0.17,0.268,0.17,0.486s-0.057,0.382-0.17,0.489s-0.248,0.161-0.404,0.161c-0.164,0-0.301-0.054-0.41-0.161
		S106.102,143.651,106.102,143.433z M107.156,151.595h-0.973v-6.422h0.973V151.595z"/>
	<path d="M110.492,151.595h-0.973v-9.117h0.973V151.595z"/>
	<path d="M113.816,148.308c0.168-0.238,0.424-0.551,0.768-0.938l2.074-2.197h1.154l-2.602,2.736l2.783,3.686h-1.178l-2.268-3.035
		l-0.732,0.633v2.402h-0.961v-9.117h0.961v4.834c0,0.215-0.016,0.547-0.047,0.996H113.816z"/>
	<path d="M118.434,145.173h1.043l1.406,3.662c0.309,0.836,0.5,1.439,0.574,1.811h0.047c0.051-0.199,0.157-0.54,0.319-1.022
		s0.692-1.966,1.591-4.45h1.043l-2.76,7.312c-0.273,0.723-0.593,1.235-0.958,1.538s-0.813,0.454-1.345,0.454
		c-0.297,0-0.59-0.033-0.879-0.1v-0.779c0.215,0.047,0.455,0.07,0.721,0.07c0.668,0,1.145-0.375,1.43-1.125l0.357-0.914
		L118.434,145.173z"/>
	<path d="M131.291,150.909c0.172,0,0.338-0.013,0.498-0.038s0.287-0.052,0.381-0.079v0.744c-0.105,0.051-0.261,0.093-0.466,0.126
		s-0.39,0.05-0.554,0.05c-1.242,0-1.863-0.654-1.863-1.963v-3.82h-0.92v-0.469l0.92-0.404l0.41-1.371h0.562v1.488h1.863v0.756
		h-1.863v3.779c0,0.387,0.092,0.684,0.275,0.891S130.971,150.909,131.291,150.909z"/>
	<path d="M136.467,151.712c-0.949,0-1.698-0.289-2.247-0.867s-0.823-1.381-0.823-2.408c0-1.035,0.255-1.857,0.765-2.467
		s1.194-0.914,2.054-0.914c0.805,0,1.441,0.265,1.91,0.794s0.703,1.228,0.703,2.095v0.615h-4.424c0.02,0.754,0.21,1.326,0.571,1.717
		s0.87,0.586,1.526,0.586c0.691,0,1.375-0.145,2.051-0.434v0.867c-0.344,0.148-0.669,0.255-0.976,0.319
		S136.901,151.712,136.467,151.712z M136.203,145.87c-0.516,0-0.927,0.168-1.233,0.504s-0.487,0.801-0.542,1.395h3.357
		c0-0.613-0.137-1.083-0.41-1.409S136.711,145.87,136.203,145.87z"/>
	<path d="M142.333,148.308l-2.232-3.135h1.107l1.693,2.461l1.688-2.461h1.096l-2.232,3.135l2.35,3.287H144.7l-1.799-2.602
		l-1.816,2.602h-1.102L142.333,148.308z"/>
	<path d="M149.447,150.909c0.172,0,0.338-0.013,0.498-0.038s0.287-0.052,0.381-0.079v0.744c-0.105,0.051-0.261,0.093-0.466,0.126
		s-0.39,0.05-0.554,0.05c-1.242,0-1.863-0.654-1.863-1.963v-3.82h-0.92v-0.469l0.92-0.404l0.41-1.371h0.562v1.488h1.863v0.756
		h-1.863v3.779c0,0.387,0.092,0.684,0.275,0.891S149.127,150.909,149.447,150.909z"/>
	<path d="M152.823,145.173v4.166c0,0.523,0.119,0.914,0.357,1.172s0.611,0.387,1.119,0.387c0.672,0,1.163-0.184,1.474-0.551
		s0.466-0.967,0.466-1.799v-3.375h0.973v6.422h-0.803l-0.141-0.861h-0.053c-0.199,0.316-0.476,0.559-0.829,0.727
		s-0.757,0.252-1.21,0.252c-0.781,0-1.366-0.186-1.755-0.557s-0.583-0.965-0.583-1.781v-4.201H152.823z"/>
	<path d="M162.504,145.056c0.285,0,0.541,0.023,0.768,0.07l-0.135,0.902c-0.266-0.059-0.5-0.088-0.703-0.088
		c-0.52,0-0.964,0.211-1.333,0.633s-0.554,0.947-0.554,1.576v3.445h-0.973v-6.422h0.803l0.111,1.189h0.047
		c0.238-0.418,0.525-0.74,0.861-0.967S162.102,145.056,162.504,145.056z"/>
	<path d="M167.487,151.712c-0.949,0-1.698-0.289-2.247-0.867s-0.823-1.381-0.823-2.408c0-1.035,0.255-1.857,0.765-2.467
		s1.194-0.914,2.054-0.914c0.805,0,1.441,0.265,1.91,0.794s0.703,1.228,0.703,2.095v0.615h-4.424c0.02,0.754,0.21,1.326,0.571,1.717
		s0.87,0.586,1.526,0.586c0.691,0,1.375-0.145,2.051-0.434v0.867c-0.344,0.148-0.669,0.255-0.976,0.319
		S167.92,151.712,167.487,151.712z M167.223,145.87c-0.516,0-0.927,0.168-1.233,0.504s-0.487,0.801-0.542,1.395h3.357
		c0-0.613-0.137-1.083-0.41-1.409S167.731,145.87,167.223,145.87z"/>
	<path d="M171.665,150.974c0-0.262,0.06-0.46,0.179-0.595s0.29-0.202,0.513-0.202c0.227,0,0.403,0.067,0.53,0.202
		s0.19,0.333,0.19,0.595c0,0.254-0.064,0.449-0.193,0.586s-0.305,0.205-0.527,0.205c-0.199,0-0.364-0.062-0.495-0.185
		S171.665,151.255,171.665,150.974z"/>
</g>
<g>
	<path d="M28.839,87.017h-1.195V69.884h9.387v1.102h-8.191v7.266h7.734v1.113h-7.734V87.017z"/>
	<path d="M45.613,74.032c0.539,0,1.117,0.055,1.734,0.164l-0.223,1.113c-0.531-0.133-1.082-0.199-1.652-0.199
		c-1.086,0-1.977,0.461-2.672,1.383s-1.043,2.086-1.043,3.492v7.031h-1.16V74.278h0.984l0.117,2.297h0.082
		c0.523-0.938,1.082-1.596,1.676-1.975S44.769,74.032,45.613,74.032z"/>
	<path d="M56.282,87.251c-1.852,0-3.295-0.57-4.33-1.711s-1.553-2.738-1.553-4.793c0-2.031,0.5-3.658,1.5-4.881
		s2.348-1.834,4.043-1.834c1.5,0,2.684,0.523,3.551,1.57s1.301,2.469,1.301,4.266v0.938h-9.176c0.016,1.75,0.424,3.086,1.225,4.008
		s1.947,1.383,3.439,1.383c0.727,0,1.365-0.051,1.916-0.152s1.248-0.32,2.092-0.656v1.055c-0.719,0.312-1.383,0.525-1.992,0.639
		S57.016,87.251,56.282,87.251z M55.942,75.063c-1.227,0-2.211,0.404-2.953,1.213s-1.176,1.975-1.301,3.498h7.875
		c0-1.477-0.32-2.631-0.961-3.463S57.075,75.063,55.942,75.063z"/>
	<path d="M73.407,83.7c0,1.141-0.434,2.018-1.301,2.631s-2.098,0.92-3.691,0.92c-1.703,0-3.055-0.262-4.055-0.785v-1.254
		c1.281,0.641,2.633,0.961,4.055,0.961c1.258,0,2.213-0.209,2.865-0.627s0.979-0.975,0.979-1.67c0-0.641-0.26-1.18-0.779-1.617
		s-1.373-0.867-2.561-1.289c-1.273-0.461-2.168-0.857-2.684-1.189s-0.904-0.707-1.166-1.125s-0.393-0.928-0.393-1.529
		c0-0.953,0.4-1.707,1.201-2.262s1.92-0.832,3.357-0.832c1.375,0,2.68,0.258,3.914,0.773l-0.434,1.055
		c-1.25-0.516-2.41-0.773-3.48-0.773c-1.039,0-1.863,0.172-2.473,0.516s-0.914,0.82-0.914,1.43c0,0.664,0.236,1.195,0.709,1.594
		s1.396,0.844,2.771,1.336c1.148,0.414,1.984,0.787,2.508,1.119s0.916,0.709,1.178,1.131S73.407,83.13,73.407,83.7z"/>
	<path d="M86.771,87.017v-8.262c0-1.281-0.27-2.213-0.809-2.795s-1.375-0.873-2.508-0.873c-1.523,0-2.639,0.385-3.346,1.154
		s-1.061,2.018-1.061,3.744v7.031h-1.16V68.782h1.16v5.801l-0.059,1.629h0.082c0.477-0.766,1.078-1.32,1.805-1.664
		s1.629-0.516,2.707-0.516c2.891,0,4.336,1.551,4.336,4.652v8.332H86.771z"/>
	<path d="M108.508,87.017l-6.387-15.82h-0.094c0.062,0.969,0.094,1.961,0.094,2.977v12.844h-1.148V69.884h1.852l6.07,15.07h0.07
		l6.07-15.07h1.805v17.133h-1.207V74.032c0-0.906,0.047-1.844,0.141-2.812h-0.094l-6.41,15.797H108.508z"/>
	<path d="M122.423,70.739c0-0.75,0.246-1.125,0.738-1.125c0.242,0,0.432,0.098,0.568,0.293s0.205,0.473,0.205,0.832
		c0,0.352-0.068,0.629-0.205,0.832s-0.326,0.305-0.568,0.305C122.669,71.876,122.423,71.497,122.423,70.739z M123.747,87.017h-1.16
		V74.278h1.16V87.017z"/>
	<path d="M130.372,87.017h-1.16V68.782h1.16V87.017z"/>
	<path d="M136.974,81.427l6.504-7.148h1.406l-5.016,5.438l5.449,7.301h-1.395l-4.84-6.434l-2.086,1.898v4.535h-1.16V68.782h1.16
		v9.141l-0.082,3.504H136.974z"/>
	<path d="M161.945,87.017h-1.148v-12.48c0-1.133,0.047-2.309,0.141-3.527c-0.117,0.117-0.238,0.23-0.363,0.34
		s-1.332,1.059-3.621,2.848l-0.668-0.832l4.652-3.48h1.008V87.017z"/>
	<path d="M181.216,78.403c0,3.008-0.459,5.234-1.377,6.68s-2.307,2.168-4.166,2.168c-1.789,0-3.148-0.744-4.078-2.232
		s-1.395-3.693-1.395-6.615c0-2.984,0.451-5.195,1.354-6.633s2.275-2.156,4.119-2.156c1.805,0,3.18,0.744,4.125,2.232
		S181.216,75.521,181.216,78.403z M171.466,78.403c0,2.656,0.348,4.619,1.043,5.889s1.75,1.904,3.164,1.904
		c1.477,0,2.553-0.656,3.229-1.969s1.014-3.254,1.014-5.824c0-2.531-0.338-4.453-1.014-5.766s-1.752-1.969-3.229-1.969
		s-2.547,0.656-3.211,1.969S171.466,75.872,171.466,78.403z"/>
	<path d="M196.114,78.403c0,3.008-0.459,5.234-1.377,6.68s-2.307,2.168-4.166,2.168c-1.789,0-3.148-0.744-4.078-2.232
		s-1.395-3.693-1.395-6.615c0-2.984,0.451-5.195,1.354-6.633s2.275-2.156,4.119-2.156c1.805,0,3.18,0.744,4.125,2.232
		S196.114,75.521,196.114,78.403z M186.364,78.403c0,2.656,0.348,4.619,1.043,5.889s1.75,1.904,3.164,1.904
		c1.477,0,2.553-0.656,3.229-1.969s1.014-3.254,1.014-5.824c0-2.531-0.338-4.453-1.014-5.766s-1.752-1.969-3.229-1.969
		s-2.547,0.656-3.211,1.969S186.364,75.872,186.364,78.403z"/>
	<path d="M206.713,74.993c0,1.766-0.293,3.107-0.879,4.025s-1.43,1.377-2.531,1.377c-1.039,0-1.854-0.471-2.443-1.412
		s-0.885-2.271-0.885-3.99c0-1.742,0.281-3.07,0.844-3.984s1.391-1.371,2.484-1.371c1.086,0,1.926,0.471,2.52,1.412
		S206.713,73.306,206.713,74.993z M201.123,74.993c0,1.453,0.176,2.545,0.527,3.275s0.902,1.096,1.652,1.096
		c1.508,0,2.262-1.457,2.262-4.371c0-1.438-0.193-2.518-0.58-3.24s-0.947-1.084-1.682-1.084c-0.75,0-1.301,0.361-1.652,1.084
		S201.123,73.556,201.123,74.993z M213.65,69.884l-9.504,17.133h-1.125l9.504-17.133H213.65z M216.697,81.884
		c0,1.766-0.289,3.107-0.867,4.025s-1.418,1.377-2.52,1.377c-1.062,0-1.887-0.475-2.473-1.424s-0.879-2.275-0.879-3.979
		c0-1.758,0.287-3.09,0.861-3.996s1.404-1.359,2.49-1.359c1.07,0,1.902,0.469,2.496,1.406S216.697,80.188,216.697,81.884z
		 M211.107,81.884c0,1.445,0.176,2.529,0.527,3.252s0.902,1.084,1.652,1.084c1.508,0,2.262-1.445,2.262-4.336
		c0-2.883-0.754-4.324-2.262-4.324c-0.75,0-1.301,0.357-1.652,1.072S211.107,80.431,211.107,81.884z"/>
	<path d="M236.394,70.716c-2.148,0-3.84,0.688-5.074,2.062s-1.852,3.258-1.852,5.648c0,2.445,0.582,4.344,1.746,5.695
		s2.828,2.027,4.992,2.027c1.438,0,2.758-0.184,3.961-0.551v1.055c-1.133,0.398-2.547,0.598-4.242,0.598
		c-2.406,0-4.301-0.777-5.684-2.332s-2.074-3.727-2.074-6.516c0-1.742,0.33-3.277,0.99-4.605s1.609-2.354,2.848-3.076
		s2.678-1.084,4.318-1.084c1.672,0,3.168,0.312,4.488,0.938l-0.48,1.078C239.082,71.028,237.769,70.716,236.394,70.716z"/>
	<path d="M252.63,87.017l-0.293-2.016h-0.094c-0.641,0.82-1.299,1.4-1.975,1.74s-1.475,0.51-2.396,0.51
		c-1.25,0-2.223-0.32-2.918-0.961s-1.043-1.527-1.043-2.66c0-1.242,0.518-2.207,1.553-2.895s2.533-1.051,4.494-1.09l2.426-0.07
		v-0.844c0-1.211-0.246-2.125-0.738-2.742s-1.285-0.926-2.379-0.926c-1.18,0-2.402,0.328-3.668,0.984l-0.434-1.008
		c1.398-0.656,2.781-0.984,4.148-0.984c1.398,0,2.443,0.363,3.135,1.09s1.037,1.859,1.037,3.398v8.473H252.63z M247.942,86.196
		c1.359,0,2.432-0.389,3.217-1.166s1.178-1.857,1.178-3.24v-1.254l-2.227,0.094c-1.789,0.086-3.064,0.365-3.826,0.838
		s-1.143,1.209-1.143,2.209c0,0.797,0.244,1.416,0.732,1.857S247.051,86.196,247.942,86.196z"/>
	<path d="M267.692,87.017v-8.262c0-1.281-0.27-2.213-0.809-2.795s-1.375-0.873-2.508-0.873c-1.523,0-2.639,0.385-3.346,1.154
		s-1.061,2.018-1.061,3.744v7.031h-1.16V74.278h0.984l0.223,1.746h0.07c0.828-1.328,2.301-1.992,4.418-1.992
		c2.891,0,4.336,1.551,4.336,4.652v8.332H267.692z"/>
	<path d="M281.9,87.017l-0.293-2.016h-0.094c-0.641,0.82-1.299,1.4-1.975,1.74s-1.475,0.51-2.396,0.51
		c-1.25,0-2.223-0.32-2.918-0.961s-1.043-1.527-1.043-2.66c0-1.242,0.518-2.207,1.553-2.895s2.533-1.051,4.494-1.09l2.426-0.07
		v-0.844c0-1.211-0.246-2.125-0.738-2.742s-1.285-0.926-2.379-0.926c-1.18,0-2.402,0.328-3.668,0.984l-0.434-1.008
		c1.398-0.656,2.781-0.984,4.148-0.984c1.398,0,2.443,0.363,3.135,1.09s1.037,1.859,1.037,3.398v8.473H281.9z M277.213,86.196
		c1.359,0,2.432-0.389,3.217-1.166s1.178-1.857,1.178-3.24v-1.254l-2.227,0.094c-1.789,0.086-3.064,0.365-3.826,0.838
		s-1.143,1.209-1.143,2.209c0,0.797,0.244,1.416,0.732,1.857S276.322,86.196,277.213,86.196z"/>
	<path d="M292.745,74.032c0.922,0,1.719,0.168,2.391,0.504s1.273,0.91,1.805,1.723h0.07c-0.047-0.984-0.07-1.949-0.07-2.895v-4.582
		h1.148v18.234h-0.762l-0.293-1.945h-0.094c-0.969,1.453-2.359,2.18-4.172,2.18c-1.758,0-3.102-0.547-4.031-1.641
		s-1.395-2.688-1.395-4.781c0-2.203,0.461-3.887,1.383-5.051S290.987,74.032,292.745,74.032z M292.745,75.087
		c-1.391,0-2.436,0.488-3.135,1.465s-1.049,2.395-1.049,4.254c0,3.609,1.402,5.414,4.207,5.414c1.438,0,2.492-0.418,3.164-1.254
		s1.008-2.215,1.008-4.137V80.63c0-1.969-0.33-3.385-0.99-4.248S294.221,75.087,292.745,75.087z"/>
	<path d="M303.402,70.739c0-0.75,0.246-1.125,0.738-1.125c0.242,0,0.432,0.098,0.568,0.293s0.205,0.473,0.205,0.832
		c0,0.352-0.068,0.629-0.205,0.832s-0.326,0.305-0.568,0.305C303.648,71.876,303.402,71.497,303.402,70.739z M304.726,87.017h-1.16
		V74.278h1.16V87.017z"/>
	<path d="M317.926,87.017l-0.293-2.016h-0.094c-0.641,0.82-1.299,1.4-1.975,1.74s-1.475,0.51-2.396,0.51
		c-1.25,0-2.223-0.32-2.918-0.961s-1.043-1.527-1.043-2.66c0-1.242,0.518-2.207,1.553-2.895s2.533-1.051,4.494-1.09l2.426-0.07
		v-0.844c0-1.211-0.246-2.125-0.738-2.742s-1.285-0.926-2.379-0.926c-1.18,0-2.402,0.328-3.668,0.984l-0.434-1.008
		c1.398-0.656,2.781-0.984,4.148-0.984c1.398,0,2.443,0.363,3.135,1.09s1.037,1.859,1.037,3.398v8.473H317.926z M313.239,86.196
		c1.359,0,2.432-0.389,3.217-1.166s1.178-1.857,1.178-3.24v-1.254l-2.227,0.094c-1.789,0.086-3.064,0.365-3.826,0.838
		s-1.143,1.209-1.143,2.209c0,0.797,0.244,1.416,0.732,1.857S312.348,86.196,313.239,86.196z"/>
	<path d="M332.989,87.017v-8.262c0-1.281-0.27-2.213-0.809-2.795s-1.375-0.873-2.508-0.873c-1.523,0-2.639,0.385-3.346,1.154
		s-1.061,2.018-1.061,3.744v7.031h-1.16V74.278h0.984l0.223,1.746h0.07c0.828-1.328,2.301-1.992,4.418-1.992
		c2.891,0,4.336,1.551,4.336,4.652v8.332H332.989z"/>
	<path d="M362.811,87.017v-8.355c0-1.242-0.242-2.148-0.727-2.719s-1.227-0.855-2.227-0.855c-1.305,0-2.27,0.359-2.895,1.078
		s-0.938,1.848-0.938,3.387v7.465h-1.184V78.31c0-2.148-0.984-3.223-2.953-3.223c-1.336,0-2.309,0.389-2.918,1.166
		s-0.914,2.021-0.914,3.732v7.031h-1.16V74.278h0.961l0.246,1.746h0.07c0.352-0.633,0.852-1.123,1.5-1.471s1.363-0.521,2.145-0.521
		c2.008,0,3.297,0.754,3.867,2.262h0.047c0.414-0.727,0.971-1.285,1.67-1.676s1.494-0.586,2.385-0.586
		c1.391,0,2.434,0.371,3.129,1.113s1.043,1.922,1.043,3.539v8.332H362.811z"/>
	<path d="M369.121,70.739c0-0.75,0.246-1.125,0.738-1.125c0.242,0,0.432,0.098,0.568,0.293s0.205,0.473,0.205,0.832
		c0,0.352-0.068,0.629-0.205,0.832s-0.326,0.305-0.568,0.305C369.367,71.876,369.121,71.497,369.121,70.739z M370.445,87.017h-1.16
		V74.278h1.16V87.017z"/>
	<path d="M377.071,87.017h-1.16V68.782h1.16V87.017z"/>
	<path d="M383.673,81.427l6.504-7.148h1.406l-5.016,5.438l5.449,7.301h-1.395l-4.84-6.434l-2.086,1.898v4.535h-1.16V68.782h1.16
		v9.141l-0.082,3.504H383.673z"/>
</g>
<g>
	<g>
		<path d="M444.469,191.176H0V15h444.469V191.176z M2,189.176h440.469V17H2V189.176z"/>
	</g>
</g>
<g>
	<g>
		<rect x="26" width="45" height="32"/>
	</g>
</g>
<g>
	<g>
		<path class="st0" d="M44.863,10.47c1.212,0,2.137,0.647,2.775,1.941c0.337,1.034,0.506,1.989,0.506,2.864v0.595
			c0,1.08-0.223,2.172-0.67,3.274c-0.674,1.039-1.527,1.559-2.557,1.559h-0.082c-1.121,0-2-0.59-2.639-1.771
			c-0.392-1.003-0.588-2.11-0.588-3.322v-0.075c0-1.285,0.232-2.454,0.697-3.507C42.994,10.989,43.847,10.47,44.863,10.47z
			 M42.949,15.46v0.28c0,1.153,0.205,2.114,0.615,2.885c0.369,0.456,0.786,0.684,1.251,0.684h0.075c1.043,0,1.657-0.836,1.839-2.509
			c0.05-0.278,0.084-0.69,0.103-1.237c0-0.976-0.167-1.902-0.499-2.782c-0.383-0.61-0.864-0.916-1.442-0.916
			c-0.707,0-1.228,0.395-1.565,1.183C43.074,13.881,42.949,14.686,42.949,15.46z"/>
	</g>
	<g>
		<path class="st0" d="M51.871,10.477c0.994,0,1.857,0.442,2.591,1.326c0.387,0.588,0.581,1.196,0.581,1.825
			c0,0.957-0.458,1.866-1.374,2.728l-2.563,2.933h3.397c0.369,0,0.592,0.224,0.67,0.67v0.062c-0.068,0.456-0.301,0.684-0.697,0.684
			h-5.031c-0.447-0.082-0.67-0.314-0.67-0.697v-0.027c0-0.224,0.18-0.504,0.54-0.841l3.992-4.553
			c0.196-0.273,0.294-0.593,0.294-0.957c0-0.779-0.41-1.326-1.23-1.641c-0.127-0.041-0.278-0.062-0.451-0.062h-0.075
			c-0.748,0-1.288,0.401-1.62,1.203c-0.041,0.164-0.071,0.383-0.089,0.656c-0.168,0.342-0.392,0.513-0.67,0.513h-0.068
			c-0.451-0.082-0.677-0.306-0.677-0.67c0-1.103,0.524-2.005,1.572-2.707C50.853,10.625,51.379,10.477,51.871,10.477z"/>
	</g>
</g>
</svg>