<!-- Generator: Adobe Illustrator 21.0.0, SVG Export Plug-In  -->
<svg version="1.1"
	 xmlns="http://www.w3.org/2000/svg" xmlns:xlink="http://www.w3.org/1999/xlink" xmlns:a="http://ns.adobe.com/AdobeSVGViewerExtensions/3.0/"
	 x="0px" y="0px" width="405.513px" height="57.881px" viewBox="0 0 405.513 57.881"
	 style="enable-background:new 0 0 405.513 57.881;" xml:space="preserve">
<defs>
</defs>
<g>
	<path d="M193.082,0h2.388v57.881h-2.388V0z"/>
</g>
<g>
	<path d="M17.033,18.804c0,1.605-0.486,2.971-1.459,4.096s-2.338,1.898-4.096,2.32v0.105c2.074,0.258,3.645,0.888,4.711,1.89
		s1.6,2.353,1.6,4.052c0,2.473-0.896,4.397-2.689,5.774s-4.354,2.065-7.682,2.065c-2.789,0-5.262-0.463-7.418-1.389v-4.623
		c0.996,0.504,2.092,0.914,3.287,1.23S5.666,34.8,6.838,34.8c1.793,0,3.117-0.305,3.973-0.914s1.283-1.588,1.283-2.936
		c0-1.207-0.492-2.062-1.477-2.566s-2.555-0.756-4.711-0.756H3.955v-4.166h1.986c1.992,0,3.449-0.261,4.369-0.782
		s1.379-1.415,1.379-2.681c0-1.945-1.219-2.918-3.656-2.918c-0.844,0-1.701,0.141-2.574,0.422s-1.844,0.768-2.91,1.459l-2.514-3.744
		c2.344-1.688,5.139-2.531,8.385-2.531c2.66,0,4.762,0.539,6.303,1.617S17.033,16.882,17.033,18.804z"/>
	<path d="M53.117,21.071c0,2.766-0.863,4.881-2.592,6.346s-4.188,2.197-7.375,2.197h-2.338v9.141h-5.449V13.056h8.209
		c3.117,0,5.488,0.671,7.111,2.013S53.117,18.411,53.117,21.071z M40.812,25.149h1.793c1.676,0,2.93-0.331,3.762-0.993
		s1.248-1.626,1.248-2.892c0-1.277-0.348-2.221-1.045-2.83s-1.791-0.914-3.279-0.914h-2.479V25.149z"/>
	<path d="M70.316,18.733c0.727,0,1.33,0.053,1.811,0.158l-0.404,5.027c-0.434-0.117-0.961-0.176-1.582-0.176
		c-1.711,0-3.043,0.439-3.998,1.318s-1.434,2.109-1.434,3.691v10.002h-5.361V19.103h4.061l0.791,3.305h0.264
		c0.609-1.102,1.434-1.989,2.471-2.663S69.098,18.733,70.316,18.733z"/>
	<path d="M95.355,28.894c0,3.199-0.844,5.701-2.531,7.506s-4.037,2.707-7.049,2.707c-1.887,0-3.551-0.413-4.992-1.239
		s-2.549-2.013-3.322-3.56s-1.16-3.352-1.16-5.414c0-3.211,0.838-5.707,2.514-7.488s4.031-2.672,7.066-2.672
		c1.887,0,3.551,0.41,4.992,1.23s2.549,1.998,3.322,3.533S95.355,26.831,95.355,28.894z M81.768,28.894
		c0,1.945,0.318,3.416,0.957,4.412s1.68,1.494,3.121,1.494c1.43,0,2.457-0.495,3.084-1.485s0.941-2.464,0.941-4.421
		c0-1.945-0.316-3.404-0.949-4.377s-1.67-1.459-3.111-1.459c-1.43,0-2.461,0.483-3.094,1.45S81.768,26.937,81.768,28.894z"/>
	<path d="M109.564,39.106c-6.117,0-9.176-3.357-9.176-10.072c0-3.34,0.832-5.892,2.496-7.655s4.049-2.646,7.154-2.646
		c2.273,0,4.312,0.445,6.117,1.336l-1.582,4.148c-0.844-0.34-1.629-0.618-2.355-0.835s-1.453-0.325-2.18-0.325
		c-2.789,0-4.184,1.98-4.184,5.941c0,3.844,1.395,5.766,4.184,5.766c1.031,0,1.986-0.138,2.865-0.413s1.758-0.706,2.637-1.292v4.588
		c-0.867,0.551-1.742,0.932-2.627,1.143S110.912,39.106,109.564,39.106z"/>
	<path d="M130.789,39.106c-3.164,0-5.637-0.873-7.418-2.619s-2.672-4.219-2.672-7.418c0-3.293,0.822-5.839,2.469-7.638
		s3.924-2.698,6.83-2.698c2.777,0,4.939,0.791,6.486,2.373s2.32,3.768,2.32,6.557v2.602h-12.674c0.059,1.523,0.51,2.713,1.354,3.568
		s2.027,1.283,3.551,1.283c1.184,0,2.303-0.123,3.357-0.369s2.156-0.639,3.305-1.178v4.148c-0.938,0.469-1.939,0.817-3.006,1.046
		S132.324,39.106,130.789,39.106z M130.033,22.548c-1.137,0-2.027,0.36-2.672,1.081s-1.014,1.743-1.107,3.067h7.523
		c-0.023-1.324-0.369-2.347-1.037-3.067S131.17,22.548,130.033,22.548z"/>
	<path d="M158.674,32.919c0,2.016-0.699,3.551-2.1,4.605s-3.496,1.582-6.285,1.582c-1.43,0-2.648-0.097-3.656-0.29
		s-1.951-0.478-2.83-0.853v-4.43c0.996,0.469,2.119,0.861,3.367,1.178s2.346,0.475,3.295,0.475c1.945,0,2.918-0.562,2.918-1.688
		c0-0.422-0.129-0.765-0.387-1.028s-0.703-0.562-1.336-0.896s-1.477-0.724-2.531-1.169c-1.512-0.633-2.621-1.219-3.33-1.758
		s-1.225-1.157-1.547-1.854s-0.484-1.556-0.484-2.575c0-1.746,0.678-3.097,2.031-4.052s3.271-1.433,5.756-1.433
		c2.367,0,4.67,0.516,6.908,1.547l-1.617,3.867c-0.984-0.422-1.904-0.768-2.76-1.037s-1.729-0.404-2.619-0.404
		c-1.582,0-2.373,0.428-2.373,1.283c0,0.48,0.256,0.896,0.766,1.248s1.625,0.873,3.348,1.564c1.535,0.621,2.66,1.201,3.375,1.74
		s1.242,1.16,1.582,1.863S158.674,31.946,158.674,32.919z"/>
	<path d="M178.369,32.919c0,2.016-0.699,3.551-2.1,4.605s-3.496,1.582-6.285,1.582c-1.43,0-2.648-0.097-3.656-0.29
		s-1.951-0.478-2.83-0.853v-4.43c0.996,0.469,2.119,0.861,3.367,1.178s2.346,0.475,3.295,0.475c1.945,0,2.918-0.562,2.918-1.688
		c0-0.422-0.129-0.765-0.387-1.028s-0.703-0.562-1.336-0.896s-1.477-0.724-2.531-1.169c-1.512-0.633-2.621-1.219-3.33-1.758
		s-1.225-1.157-1.547-1.854s-0.484-1.556-0.484-2.575c0-1.746,0.678-3.097,2.031-4.052s3.271-1.433,5.756-1.433
		c2.367,0,4.67,0.516,6.908,1.547l-1.617,3.867c-0.984-0.422-1.904-0.768-2.76-1.037s-1.729-0.404-2.619-0.404
		c-1.582,0-2.373,0.428-2.373,1.283c0,0.48,0.256,0.896,0.766,1.248s1.625,0.873,3.348,1.564c1.535,0.621,2.66,1.201,3.375,1.74
		s1.242,1.16,1.582,1.863S178.369,31.946,178.369,32.919z"/>
</g>
<g>
	<path d="M219.099,26.126c0,1.828-0.462,3.266-1.387,4.312s-2.21,1.57-3.855,1.57c-1.683,0-2.98-0.515-3.895-1.543
		s-1.371-2.48-1.371-4.355c0-1.859,0.458-3.301,1.375-4.324s2.219-1.535,3.906-1.535c1.641,0,2.922,0.521,3.844,1.562
		S219.099,24.293,219.099,26.126z M209.997,26.126c0,1.547,0.329,2.72,0.988,3.52s1.616,1.199,2.871,1.199
		c1.266,0,2.222-0.398,2.867-1.195s0.969-1.972,0.969-3.523c0-1.536-0.321-2.702-0.965-3.496s-1.595-1.191-2.855-1.191
		c-1.266,0-2.228,0.399-2.887,1.199S209.997,24.6,209.997,26.126z"/>
	<path d="M222.669,23.29v5.555c0,0.698,0.159,1.219,0.477,1.562s0.815,0.516,1.492,0.516c0.896,0,1.551-0.245,1.965-0.734
		s0.621-1.289,0.621-2.398v-4.5h1.297v8.562h-1.07l-0.188-1.148h-0.07c-0.266,0.422-0.634,0.745-1.105,0.969
		s-1.009,0.336-1.613,0.336c-1.042,0-1.821-0.247-2.34-0.742s-0.777-1.286-0.777-2.375V23.29H222.669z"/>
	<path d="M235.177,23.134c0.38,0,0.722,0.031,1.023,0.094l-0.18,1.203c-0.354-0.078-0.667-0.117-0.938-0.117
		c-0.692,0-1.285,0.281-1.777,0.844s-0.738,1.263-0.738,2.102v4.594h-1.297V23.29h1.07l0.148,1.586h0.062
		c0.317-0.558,0.7-0.987,1.148-1.289S234.641,23.134,235.177,23.134z"/>
	<path d="M247.817,31.853v-5.539c0-0.698-0.159-1.219-0.477-1.562s-0.815-0.516-1.492-0.516c-0.901,0-1.559,0.245-1.973,0.734
		s-0.621,1.292-0.621,2.406v4.477h-1.297V19.696h1.297v3.68c0,0.442-0.021,0.81-0.062,1.102h0.078
		c0.255-0.411,0.618-0.735,1.09-0.973s1.009-0.355,1.613-0.355c1.047,0,1.832,0.249,2.355,0.746s0.785,1.288,0.785,2.371v5.586
		H247.817z"/>
	<path d="M251.669,20.97c0-0.297,0.073-0.515,0.219-0.652s0.328-0.207,0.547-0.207c0.208,0,0.388,0.07,0.539,0.211
		s0.227,0.356,0.227,0.648s-0.075,0.509-0.227,0.652s-0.331,0.215-0.539,0.215c-0.219,0-0.401-0.071-0.547-0.215
		S251.669,21.262,251.669,20.97z M253.075,31.853h-1.297V23.29h1.297V31.853z"/>
	<path d="M262.833,23.29v0.82l-1.586,0.188c0.146,0.183,0.276,0.421,0.391,0.715s0.172,0.626,0.172,0.996
		c0,0.839-0.286,1.508-0.859,2.008s-1.359,0.75-2.359,0.75c-0.255,0-0.495-0.021-0.719-0.062c-0.552,0.292-0.828,0.659-0.828,1.102
		c0,0.234,0.097,0.407,0.289,0.52s0.523,0.168,0.992,0.168h1.516c0.927,0,1.64,0.195,2.137,0.586s0.746,0.958,0.746,1.703
		c0,0.948-0.38,1.671-1.141,2.168s-1.87,0.746-3.328,0.746c-1.12,0-1.983-0.208-2.59-0.625s-0.91-1.005-0.91-1.766
		c0-0.521,0.167-0.972,0.5-1.352s0.802-0.638,1.406-0.773c-0.219-0.099-0.402-0.253-0.551-0.461s-0.223-0.45-0.223-0.727
		c0-0.312,0.083-0.586,0.25-0.82s0.43-0.461,0.789-0.68c-0.442-0.183-0.804-0.492-1.082-0.93s-0.418-0.938-0.418-1.5
		c0-0.938,0.281-1.66,0.844-2.168s1.359-0.762,2.391-0.762c0.448,0,0.852,0.052,1.211,0.156H262.833z M256.005,33.29
		c0,0.464,0.195,0.815,0.586,1.055s0.95,0.359,1.68,0.359c1.089,0,1.895-0.163,2.418-0.488s0.785-0.767,0.785-1.324
		c0-0.464-0.144-0.785-0.43-0.965s-0.825-0.27-1.617-0.27h-1.555c-0.589,0-1.047,0.141-1.375,0.422S256.005,32.764,256.005,33.29z
		 M256.708,26.032c0,0.599,0.169,1.052,0.508,1.359s0.81,0.461,1.414,0.461c1.266,0,1.898-0.614,1.898-1.844
		c0-1.286-0.641-1.93-1.922-1.93c-0.609,0-1.078,0.164-1.406,0.492S256.708,25.387,256.708,26.032z"/>
	<path d="M270.45,31.853v-5.539c0-0.698-0.159-1.219-0.477-1.562s-0.815-0.516-1.492-0.516c-0.901,0-1.559,0.245-1.973,0.734
		s-0.621,1.292-0.621,2.406v4.477h-1.297V19.696h1.297v3.68c0,0.442-0.021,0.81-0.062,1.102h0.078
		c0.255-0.411,0.618-0.735,1.09-0.973s1.009-0.355,1.613-0.355c1.047,0,1.832,0.249,2.355,0.746s0.785,1.288,0.785,2.371v5.586
		H270.45z"/>
	<path d="M284.091,29.517c0,0.797-0.297,1.411-0.891,1.844s-1.427,0.648-2.5,0.648c-1.136,0-2.021-0.18-2.656-0.539v-1.203
		c0.411,0.208,0.853,0.372,1.324,0.492s0.926,0.18,1.363,0.18c0.677,0,1.198-0.108,1.562-0.324s0.547-0.546,0.547-0.988
		c0-0.333-0.145-0.618-0.434-0.855s-0.853-0.517-1.691-0.84c-0.797-0.297-1.363-0.556-1.699-0.777s-0.586-0.473-0.75-0.754
		s-0.246-0.617-0.246-1.008c0-0.698,0.284-1.249,0.852-1.652s1.347-0.605,2.336-0.605c0.922,0,1.823,0.188,2.703,0.562l-0.461,1.055
		c-0.859-0.354-1.638-0.531-2.336-0.531c-0.614,0-1.078,0.097-1.391,0.289s-0.469,0.458-0.469,0.797
		c0,0.229,0.059,0.425,0.176,0.586s0.306,0.315,0.566,0.461s0.761,0.356,1.5,0.633c1.016,0.37,1.702,0.742,2.059,1.117
		S284.091,28.949,284.091,29.517z"/>
	<path d="M288.966,30.938c0.229,0,0.45-0.017,0.664-0.051s0.383-0.069,0.508-0.105v0.992c-0.141,0.067-0.348,0.124-0.621,0.168
		s-0.52,0.066-0.738,0.066c-1.656,0-2.484-0.872-2.484-2.617v-5.094h-1.227v-0.625l1.227-0.539l0.547-1.828h0.75v1.984h2.484v1.008
		h-2.484v5.039c0,0.516,0.122,0.911,0.367,1.188S288.539,30.938,288.966,30.938z"/>
	<path d="M297.114,31.853l-0.258-1.219h-0.062c-0.427,0.536-0.853,0.899-1.277,1.09s-0.954,0.285-1.59,0.285
		c-0.849,0-1.515-0.219-1.996-0.656s-0.723-1.06-0.723-1.867c0-1.729,1.383-2.636,4.148-2.719l1.453-0.047v-0.531
		c0-0.672-0.145-1.168-0.434-1.488s-0.751-0.48-1.387-0.48c-0.714,0-1.521,0.219-2.422,0.656l-0.398-0.992
		c0.422-0.229,0.884-0.409,1.387-0.539s1.007-0.195,1.512-0.195c1.021,0,1.777,0.227,2.27,0.68s0.738,1.18,0.738,2.18v5.844H297.114
		z M294.185,30.938c0.808,0,1.441-0.222,1.902-0.664s0.691-1.062,0.691-1.859v-0.773l-1.297,0.055
		c-1.031,0.036-1.774,0.196-2.23,0.48s-0.684,0.726-0.684,1.324c0,0.469,0.142,0.825,0.426,1.07S293.674,30.938,294.185,30.938z"/>
	<path d="M306.606,31.853v-5.539c0-0.698-0.159-1.219-0.477-1.562s-0.815-0.516-1.492-0.516c-0.896,0-1.552,0.242-1.969,0.727
		s-0.625,1.284-0.625,2.398v4.492h-1.297V23.29h1.055l0.211,1.172h0.062c0.266-0.422,0.638-0.749,1.117-0.98
		s1.013-0.348,1.602-0.348c1.031,0,1.808,0.249,2.328,0.746s0.781,1.293,0.781,2.387v5.586H306.606z"/>
	<path d="M316.396,30.704h-0.07c-0.599,0.87-1.495,1.305-2.688,1.305c-1.12,0-1.991-0.383-2.613-1.148s-0.934-1.854-0.934-3.266
		s0.312-2.508,0.938-3.289s1.495-1.172,2.609-1.172c1.161,0,2.052,0.422,2.672,1.266h0.102l-0.055-0.617l-0.031-0.602v-3.484h1.297
		v12.156h-1.055L316.396,30.704z M313.802,30.923c0.886,0,1.527-0.241,1.926-0.723s0.598-1.259,0.598-2.332v-0.273
		c0-1.214-0.202-2.079-0.605-2.598s-1.048-0.777-1.934-0.777c-0.761,0-1.343,0.296-1.746,0.887s-0.605,1.426-0.605,2.504
		c0,1.094,0.2,1.919,0.602,2.477S313.025,30.923,313.802,30.923z"/>
	<path d="M325.638,31.853l-0.258-1.219h-0.062c-0.427,0.536-0.853,0.899-1.277,1.09s-0.954,0.285-1.59,0.285
		c-0.849,0-1.515-0.219-1.996-0.656s-0.723-1.06-0.723-1.867c0-1.729,1.383-2.636,4.148-2.719l1.453-0.047v-0.531
		c0-0.672-0.145-1.168-0.434-1.488s-0.751-0.48-1.387-0.48c-0.714,0-1.521,0.219-2.422,0.656l-0.398-0.992
		c0.422-0.229,0.884-0.409,1.387-0.539s1.007-0.195,1.512-0.195c1.021,0,1.777,0.227,2.27,0.68s0.738,1.18,0.738,2.18v5.844H325.638
		z M322.708,30.938c0.808,0,1.441-0.222,1.902-0.664s0.691-1.062,0.691-1.859v-0.773l-1.297,0.055
		c-1.031,0.036-1.774,0.196-2.23,0.48s-0.684,0.726-0.684,1.324c0,0.469,0.142,0.825,0.426,1.07S322.197,30.938,322.708,30.938z"/>
	<path d="M333.177,23.134c0.38,0,0.722,0.031,1.023,0.094l-0.18,1.203c-0.354-0.078-0.667-0.117-0.938-0.117
		c-0.692,0-1.285,0.281-1.777,0.844s-0.738,1.263-0.738,2.102v4.594h-1.297V23.29h1.07l0.148,1.586h0.062
		c0.317-0.558,0.7-0.987,1.148-1.289S332.641,23.134,333.177,23.134z"/>
	<path d="M341.63,30.704h-0.07c-0.599,0.87-1.495,1.305-2.688,1.305c-1.12,0-1.991-0.383-2.613-1.148s-0.934-1.854-0.934-3.266
		s0.312-2.508,0.938-3.289s1.495-1.172,2.609-1.172c1.161,0,2.052,0.422,2.672,1.266h0.102l-0.055-0.617l-0.031-0.602v-3.484h1.297
		v12.156h-1.055L341.63,30.704z M339.036,30.923c0.886,0,1.527-0.241,1.926-0.723s0.598-1.259,0.598-2.332v-0.273
		c0-1.214-0.202-2.079-0.605-2.598s-1.048-0.777-1.934-0.777c-0.761,0-1.343,0.296-1.746,0.887s-0.605,1.426-0.605,2.504
		c0,1.094,0.2,1.919,0.602,2.477S338.26,30.923,339.036,30.923z"/>
	<path d="M353.747,32.009c-0.558,0-1.066-0.103-1.527-0.309s-0.848-0.522-1.16-0.949h-0.094c0.062,0.5,0.094,0.974,0.094,1.422
		v3.523h-1.297V23.29h1.055l0.18,1.172h0.062c0.333-0.469,0.722-0.808,1.164-1.016s0.95-0.312,1.523-0.312
		c1.136,0,2.012,0.388,2.629,1.164s0.926,1.864,0.926,3.266c0,1.406-0.313,2.499-0.941,3.277S354.861,32.009,353.747,32.009z
		 M353.56,24.235c-0.875,0-1.508,0.242-1.898,0.727s-0.591,1.255-0.602,2.312v0.289c0,1.203,0.2,2.063,0.602,2.582
		s1.044,0.777,1.93,0.777c0.739,0,1.319-0.3,1.738-0.898s0.629-1.425,0.629-2.477c0-1.067-0.21-1.887-0.629-2.457
		S354.32,24.235,353.56,24.235z"/>
	<path d="M363.474,23.134c0.38,0,0.722,0.031,1.023,0.094l-0.18,1.203c-0.354-0.078-0.667-0.117-0.938-0.117
		c-0.692,0-1.285,0.281-1.777,0.844s-0.738,1.263-0.738,2.102v4.594h-1.297V23.29h1.07l0.148,1.586h0.062
		c0.317-0.558,0.7-0.987,1.148-1.289S362.938,23.134,363.474,23.134z"/>
	<path d="M373.489,27.563c0,1.396-0.352,2.485-1.055,3.27s-1.675,1.176-2.914,1.176c-0.766,0-1.445-0.18-2.039-0.539
		s-1.052-0.875-1.375-1.547s-0.484-1.458-0.484-2.359c0-1.396,0.349-2.483,1.047-3.262s1.667-1.168,2.906-1.168
		c1.198,0,2.149,0.398,2.855,1.195S373.489,26.204,373.489,27.563z M366.966,27.563c0,1.094,0.219,1.927,0.656,2.5
		s1.081,0.859,1.93,0.859s1.493-0.285,1.934-0.855s0.66-1.405,0.66-2.504c0-1.089-0.22-1.915-0.66-2.48s-1.09-0.848-1.949-0.848
		c-0.849,0-1.489,0.278-1.922,0.836S366.966,26.459,366.966,27.563z"/>
	<path d="M379.185,32.009c-1.239,0-2.199-0.382-2.879-1.145s-1.02-1.843-1.02-3.238c0-1.433,0.345-2.539,1.035-3.32
		s1.673-1.172,2.949-1.172c0.411,0,0.823,0.044,1.234,0.133s0.734,0.192,0.969,0.312l-0.398,1.102
		c-0.286-0.114-0.599-0.21-0.938-0.285s-0.638-0.113-0.898-0.113c-1.739,0-2.609,1.109-2.609,3.328c0,1.052,0.212,1.859,0.637,2.422
		s1.054,0.844,1.887,0.844c0.714,0,1.445-0.153,2.195-0.461v1.148C380.775,31.86,380.055,32.009,379.185,32.009z"/>
	<path d="M386.997,32.009c-1.266,0-2.265-0.386-2.996-1.156s-1.098-1.841-1.098-3.211c0-1.38,0.34-2.477,1.02-3.289
		s1.593-1.219,2.738-1.219c1.073,0,1.922,0.353,2.547,1.059s0.938,1.637,0.938,2.793v0.82h-5.898
		c0.026,1.005,0.28,1.769,0.762,2.289s1.16,0.781,2.035,0.781c0.922,0,1.833-0.192,2.734-0.578v1.156
		c-0.458,0.198-0.892,0.34-1.301,0.426S387.575,32.009,386.997,32.009z M386.646,24.22c-0.688,0-1.235,0.224-1.645,0.672
		s-0.649,1.067-0.723,1.859h4.477c0-0.817-0.183-1.444-0.547-1.879S387.322,24.22,386.646,24.22z"/>
	<path d="M397.88,29.517c0,0.797-0.297,1.411-0.891,1.844s-1.427,0.648-2.5,0.648c-1.136,0-2.021-0.18-2.656-0.539v-1.203
		c0.411,0.208,0.853,0.372,1.324,0.492s0.926,0.18,1.363,0.18c0.677,0,1.198-0.108,1.562-0.324s0.547-0.546,0.547-0.988
		c0-0.333-0.145-0.618-0.434-0.855s-0.853-0.517-1.691-0.84c-0.797-0.297-1.363-0.556-1.699-0.777s-0.586-0.473-0.75-0.754
		s-0.246-0.617-0.246-1.008c0-0.698,0.284-1.249,0.852-1.652s1.347-0.605,2.336-0.605c0.922,0,1.823,0.188,2.703,0.562l-0.461,1.055
		c-0.859-0.354-1.638-0.531-2.336-0.531c-0.614,0-1.078,0.097-1.391,0.289s-0.469,0.458-0.469,0.797
		c0,0.229,0.059,0.425,0.176,0.586s0.306,0.315,0.566,0.461s0.761,0.356,1.5,0.633c1.016,0.37,1.702,0.742,2.059,1.117
		S397.88,28.949,397.88,29.517z"/>
	<path d="M405.513,29.517c0,0.797-0.297,1.411-0.891,1.844s-1.427,0.648-2.5,0.648c-1.136,0-2.021-0.18-2.656-0.539v-1.203
		c0.411,0.208,0.853,0.372,1.324,0.492s0.926,0.18,1.363,0.18c0.677,0,1.198-0.108,1.562-0.324s0.547-0.546,0.547-0.988
		c0-0.333-0.145-0.618-0.434-0.855s-0.853-0.517-1.691-0.84c-0.797-0.297-1.363-0.556-1.699-0.777s-0.586-0.473-0.75-0.754
		s-0.246-0.617-0.246-1.008c0-0.698,0.284-1.249,0.852-1.652s1.347-0.605,2.336-0.605c0.922,0,1.823,0.188,2.703,0.562l-0.461,1.055
		c-0.859-0.354-1.638-0.531-2.336-0.531c-0.614,0-1.078,0.097-1.391,0.289s-0.469,0.458-0.469,0.797
		c0,0.229,0.059,0.425,0.176,0.586s0.306,0.315,0.566,0.461s0.761,0.356,1.5,0.633c1.016,0.37,1.702,0.742,2.059,1.117
		S405.513,28.949,405.513,29.517z"/>
</g>
</svg>