<!-- Generator: Adobe Illustrator 21.0.0, SVG Export Plug-In  -->
<svg version="1.1"
	 xmlns="http://www.w3.org/2000/svg" xmlns:xlink="http://www.w3.org/1999/xlink" xmlns:a="http://ns.adobe.com/AdobeSVGViewerExtensions/3.0/"
	 x="0px" y="0px" width="444.469px" height="191.176px" viewBox="0 0 444.469 191.176"
	 style="enable-background:new 0 0 444.469 191.176;" xml:space="preserve">
<style type="text/css">
	.st0{fill:#B9C83E;}
</style>
<defs>
</defs>
<g>
	<path d="M30.633,81.471h-1.195V64.338h9.387v1.102h-8.191v7.266h7.734v1.113h-7.734V81.471z"/>
	<path d="M47.408,68.486c0.539,0,1.117,0.055,1.734,0.164l-0.223,1.113c-0.531-0.133-1.082-0.199-1.652-0.199
		c-1.086,0-1.977,0.461-2.672,1.383s-1.043,2.086-1.043,3.492v7.031h-1.16V68.732h0.984l0.117,2.297h0.082
		c0.523-0.938,1.082-1.596,1.676-1.975S46.564,68.486,47.408,68.486z"/>
	<path d="M58.077,81.705c-1.852,0-3.295-0.57-4.33-1.711s-1.553-2.738-1.553-4.793c0-2.031,0.5-3.658,1.5-4.881
		s2.348-1.834,4.043-1.834c1.5,0,2.684,0.523,3.551,1.57s1.301,2.469,1.301,4.266v0.938h-9.176c0.016,1.75,0.424,3.086,1.225,4.008
		s1.947,1.383,3.439,1.383c0.727,0,1.365-0.051,1.916-0.152s1.248-0.32,2.092-0.656v1.055c-0.719,0.312-1.383,0.525-1.992,0.639
		S58.811,81.705,58.077,81.705z M57.737,69.518c-1.227,0-2.211,0.404-2.953,1.213s-1.176,1.975-1.301,3.498h7.875
		c0-1.477-0.32-2.631-0.961-3.463S58.869,69.518,57.737,69.518z"/>
	<path d="M75.202,78.154c0,1.141-0.434,2.018-1.301,2.631s-2.098,0.92-3.691,0.92c-1.703,0-3.055-0.262-4.055-0.785v-1.254
		c1.281,0.641,2.633,0.961,4.055,0.961c1.258,0,2.213-0.209,2.865-0.627s0.979-0.975,0.979-1.67c0-0.641-0.26-1.18-0.779-1.617
		s-1.373-0.867-2.561-1.289c-1.273-0.461-2.168-0.857-2.684-1.189s-0.904-0.707-1.166-1.125s-0.393-0.928-0.393-1.529
		c0-0.953,0.4-1.707,1.201-2.262s1.92-0.832,3.357-0.832c1.375,0,2.68,0.258,3.914,0.773l-0.434,1.055
		c-1.25-0.516-2.41-0.773-3.48-0.773c-1.039,0-1.863,0.172-2.473,0.516s-0.914,0.82-0.914,1.43c0,0.664,0.236,1.195,0.709,1.594
		s1.396,0.844,2.771,1.336c1.148,0.414,1.984,0.787,2.508,1.119s0.916,0.709,1.178,1.131S75.202,77.584,75.202,78.154z"/>
	<path d="M88.566,81.471v-8.262c0-1.281-0.27-2.213-0.809-2.795s-1.375-0.873-2.508-0.873c-1.523,0-2.639,0.385-3.346,1.154
		s-1.061,2.018-1.061,3.744v7.031h-1.16V63.236h1.16v5.801l-0.059,1.629h0.082c0.477-0.766,1.078-1.32,1.805-1.664
		s1.629-0.516,2.707-0.516c2.891,0,4.336,1.551,4.336,4.652v8.332H88.566z"/>
	<path d="M103.962,81.471h-1.195V64.338h9.387v1.102h-8.191v7.266h7.734v1.113h-7.734V81.471z"/>
	<path d="M120.737,68.486c0.539,0,1.117,0.055,1.734,0.164l-0.223,1.113c-0.531-0.133-1.082-0.199-1.652-0.199
		c-1.086,0-1.977,0.461-2.672,1.383s-1.043,2.086-1.043,3.492v7.031h-1.16V68.732h0.984l0.117,2.297h0.082
		c0.523-0.938,1.082-1.596,1.676-1.975S119.893,68.486,120.737,68.486z"/>
	<path d="M127.268,68.732v8.25c0,1.281,0.27,2.213,0.809,2.795c0.539,0.582,1.375,0.873,2.508,0.873
		c1.516,0,2.631-0.383,3.346-1.148s1.072-2.012,1.072-3.738v-7.031h1.148v12.738h-0.984l-0.211-1.758h-0.07
		c-0.828,1.328-2.301,1.992-4.418,1.992c-2.898,0-4.348-1.551-4.348-4.652v-8.32H127.268z"/>
	<path d="M141.452,65.193c0-0.75,0.246-1.125,0.738-1.125c0.242,0,0.432,0.098,0.568,0.293s0.205,0.473,0.205,0.832
		c0,0.352-0.068,0.629-0.205,0.832s-0.326,0.305-0.568,0.305C141.699,66.33,141.452,65.951,141.452,65.193z M142.777,81.471h-1.16
		V68.732h1.16V81.471z"/>
	<path d="M151.606,80.674c0.734,0,1.375-0.062,1.922-0.188v0.938c-0.562,0.188-1.211,0.281-1.945,0.281
		c-1.125,0-1.955-0.301-2.49-0.902s-0.803-1.547-0.803-2.836V69.74h-1.887v-0.68l1.887-0.527l0.586-2.883h0.598v3.082h3.738v1.008
		h-3.738v8.062c0,0.977,0.172,1.699,0.516,2.168S150.871,80.674,151.606,80.674z"/>
	<path d="M165.38,78.154c0,1.141-0.434,2.018-1.301,2.631s-2.098,0.92-3.691,0.92c-1.703,0-3.055-0.262-4.055-0.785v-1.254
		c1.281,0.641,2.633,0.961,4.055,0.961c1.258,0,2.213-0.209,2.865-0.627s0.979-0.975,0.979-1.67c0-0.641-0.26-1.18-0.779-1.617
		s-1.373-0.867-2.561-1.289c-1.273-0.461-2.168-0.857-2.684-1.189s-0.904-0.707-1.166-1.125s-0.393-0.928-0.393-1.529
		c0-0.953,0.4-1.707,1.201-2.262s1.92-0.832,3.357-0.832c1.375,0,2.68,0.258,3.914,0.773l-0.434,1.055
		c-1.25-0.516-2.41-0.773-3.48-0.773c-1.039,0-1.863,0.172-2.473,0.516s-0.914,0.82-0.914,1.43c0,0.664,0.236,1.195,0.709,1.594
		s1.396,0.844,2.771,1.336c1.148,0.414,1.984,0.787,2.508,1.119s0.916,0.709,1.178,1.131S165.38,77.584,165.38,78.154z"/>
	<path d="M178.455,81.471h-1.16V63.236h1.16V81.471z"/>
	<path d="M194.456,75.084c0,2.078-0.504,3.701-1.512,4.869s-2.398,1.752-4.172,1.752c-1.117,0-2.102-0.27-2.953-0.809
		s-1.504-1.312-1.957-2.32s-0.68-2.172-0.68-3.492c0-2.078,0.504-3.697,1.512-4.857s2.391-1.74,4.148-1.74
		c1.75,0,3.123,0.588,4.119,1.764S194.456,73.037,194.456,75.084z M184.402,75.084c0,1.75,0.385,3.115,1.154,4.096
		s1.857,1.471,3.264,1.471s2.494-0.49,3.264-1.471s1.154-2.346,1.154-4.096c0-1.758-0.389-3.121-1.166-4.09
		s-1.869-1.453-3.275-1.453s-2.49,0.482-3.252,1.447S184.402,73.318,184.402,75.084z"/>
	<path d="M204.27,81.705c-1.82,0-3.246-0.574-4.277-1.723s-1.547-2.75-1.547-4.805c0-2.109,0.535-3.752,1.605-4.928
		s2.535-1.764,4.395-1.764c1.102,0,2.156,0.191,3.164,0.574l-0.316,1.031c-1.102-0.367-2.059-0.551-2.871-0.551
		c-1.562,0-2.746,0.482-3.551,1.447s-1.207,2.354-1.207,4.166c0,1.719,0.402,3.064,1.207,4.037s1.93,1.459,3.375,1.459
		c1.156,0,2.23-0.207,3.223-0.621v1.078C206.657,81.506,205.59,81.705,204.27,81.705z"/>
	<path d="M219.521,81.471l-0.293-2.016h-0.094c-0.641,0.82-1.299,1.4-1.975,1.74s-1.475,0.51-2.396,0.51
		c-1.25,0-2.223-0.32-2.918-0.961s-1.043-1.527-1.043-2.66c0-1.242,0.518-2.207,1.553-2.895s2.533-1.051,4.494-1.09l2.426-0.07
		v-0.844c0-1.211-0.246-2.125-0.738-2.742s-1.285-0.926-2.379-0.926c-1.18,0-2.402,0.328-3.668,0.984l-0.434-1.008
		c1.398-0.656,2.781-0.984,4.148-0.984c1.398,0,2.443,0.363,3.135,1.09s1.037,1.859,1.037,3.398v8.473H219.521z M214.833,80.65
		c1.359,0,2.432-0.389,3.217-1.166s1.178-1.857,1.178-3.24V74.99l-2.227,0.094c-1.789,0.086-3.064,0.365-3.826,0.838
		s-1.143,1.209-1.143,2.209c0,0.797,0.244,1.416,0.732,1.857S213.943,80.65,214.833,80.65z"/>
	<path d="M226.862,81.471h-1.16V63.236h1.16V81.471z"/>
	<path d="M244.952,72.518h5.086v0.961h-5.086v5.062h-0.961v-5.062h-5.062v-0.961h5.062v-5.086h0.961V72.518z"/>
	<path d="M261.931,65.193c0-0.75,0.246-1.125,0.738-1.125c0.242,0,0.432,0.098,0.568,0.293s0.205,0.473,0.205,0.832
		c0,0.352-0.068,0.629-0.205,0.832s-0.326,0.305-0.568,0.305C262.177,66.33,261.931,65.951,261.931,65.193z M263.255,81.471h-1.16
		V68.732h1.16V81.471z"/>
	<path d="M277.604,81.471v-8.262c0-1.281-0.27-2.213-0.809-2.795s-1.375-0.873-2.508-0.873c-1.523,0-2.639,0.385-3.346,1.154
		s-1.061,2.018-1.061,3.744v7.031h-1.16V68.732h0.984l0.223,1.746h0.07c0.828-1.328,2.301-1.992,4.418-1.992
		c2.891,0,4.336,1.551,4.336,4.652v8.332H277.604z"/>
	<path d="M287.44,80.674c0.734,0,1.375-0.062,1.922-0.188v0.938c-0.562,0.188-1.211,0.281-1.945,0.281
		c-1.125,0-1.955-0.301-2.49-0.902s-0.803-1.547-0.803-2.836V69.74h-1.887v-0.68l1.887-0.527l0.586-2.883h0.598v3.082h3.738v1.008
		h-3.738v8.062c0,0.977,0.172,1.699,0.516,2.168S286.705,80.674,287.44,80.674z"/>
	<path d="M298.46,81.705c-1.852,0-3.295-0.57-4.33-1.711s-1.553-2.738-1.553-4.793c0-2.031,0.5-3.658,1.5-4.881
		s2.348-1.834,4.043-1.834c1.5,0,2.684,0.523,3.551,1.57s1.301,2.469,1.301,4.266v0.938h-9.176c0.016,1.75,0.424,3.086,1.225,4.008
		s1.947,1.383,3.439,1.383c0.727,0,1.365-0.051,1.916-0.152s1.248-0.32,2.092-0.656v1.055c-0.719,0.312-1.383,0.525-1.992,0.639
		S299.195,81.705,298.46,81.705z M298.12,69.518c-1.227,0-2.211,0.404-2.953,1.213s-1.176,1.975-1.301,3.498h7.875
		c0-1.477-0.32-2.631-0.961-3.463S299.253,69.518,298.12,69.518z"/>
	<path d="M312.703,68.486c0.539,0,1.117,0.055,1.734,0.164l-0.223,1.113c-0.531-0.133-1.082-0.199-1.652-0.199
		c-1.086,0-1.977,0.461-2.672,1.383s-1.043,2.086-1.043,3.492v7.031h-1.16V68.732h0.984l0.117,2.297h0.082
		c0.523-0.938,1.082-1.596,1.676-1.975S311.86,68.486,312.703,68.486z"/>
	<path d="M327.111,81.471v-8.262c0-1.281-0.27-2.213-0.809-2.795s-1.375-0.873-2.508-0.873c-1.523,0-2.639,0.385-3.346,1.154
		s-1.061,2.018-1.061,3.744v7.031h-1.16V68.732h0.984l0.223,1.746h0.07c0.828-1.328,2.301-1.992,4.418-1.992
		c2.891,0,4.336,1.551,4.336,4.652v8.332H327.111z"/>
	<path d="M341.319,81.471l-0.293-2.016h-0.094c-0.641,0.82-1.299,1.4-1.975,1.74s-1.475,0.51-2.396,0.51
		c-1.25,0-2.223-0.32-2.918-0.961s-1.043-1.527-1.043-2.66c0-1.242,0.518-2.207,1.553-2.895s2.533-1.051,4.494-1.09l2.426-0.07
		v-0.844c0-1.211-0.246-2.125-0.738-2.742s-1.285-0.926-2.379-0.926c-1.18,0-2.402,0.328-3.668,0.984l-0.434-1.008
		c1.398-0.656,2.781-0.984,4.148-0.984c1.398,0,2.443,0.363,3.135,1.09s1.037,1.859,1.037,3.398v8.473H341.319z M336.631,80.65
		c1.359,0,2.432-0.389,3.217-1.166s1.178-1.857,1.178-3.24V74.99l-2.227,0.094c-1.789,0.086-3.064,0.365-3.826,0.838
		s-1.143,1.209-1.143,2.209c0,0.797,0.244,1.416,0.732,1.857S335.741,80.65,336.631,80.65z"/>
	<path d="M350.862,80.674c0.734,0,1.375-0.062,1.922-0.188v0.938c-0.562,0.188-1.211,0.281-1.945,0.281
		c-1.125,0-1.955-0.301-2.49-0.902s-0.803-1.547-0.803-2.836V69.74h-1.887v-0.68l1.887-0.527l0.586-2.883h0.598v3.082h3.738v1.008
		h-3.738v8.062c0,0.977,0.172,1.699,0.516,2.168S350.127,80.674,350.862,80.674z"/>
	<path d="M356.574,65.193c0-0.75,0.246-1.125,0.738-1.125c0.242,0,0.432,0.098,0.568,0.293s0.205,0.473,0.205,0.832
		c0,0.352-0.068,0.629-0.205,0.832s-0.326,0.305-0.568,0.305C356.82,66.33,356.574,65.951,356.574,65.193z M357.898,81.471h-1.16
		V68.732h1.16V81.471z"/>
	<path d="M373.899,75.084c0,2.078-0.504,3.701-1.512,4.869s-2.398,1.752-4.172,1.752c-1.117,0-2.102-0.27-2.953-0.809
		s-1.504-1.312-1.957-2.32s-0.68-2.172-0.68-3.492c0-2.078,0.504-3.697,1.512-4.857s2.391-1.74,4.148-1.74
		c1.75,0,3.123,0.588,4.119,1.764S373.899,73.037,373.899,75.084z M363.844,75.084c0,1.75,0.385,3.115,1.154,4.096
		s1.857,1.471,3.264,1.471s2.494-0.49,3.264-1.471s1.154-2.346,1.154-4.096c0-1.758-0.389-3.121-1.166-4.09
		s-1.869-1.453-3.275-1.453s-2.49,0.482-3.252,1.447S363.844,73.318,363.844,75.084z"/>
	<path d="M387.509,81.471v-8.262c0-1.281-0.27-2.213-0.809-2.795s-1.375-0.873-2.508-0.873c-1.523,0-2.639,0.385-3.346,1.154
		s-1.061,2.018-1.061,3.744v7.031h-1.16V68.732h0.984l0.223,1.746h0.07c0.828-1.328,2.301-1.992,4.418-1.992
		c2.891,0,4.336,1.551,4.336,4.652v8.332H387.509z"/>
	<path d="M401.717,81.471l-0.293-2.016h-0.094c-0.641,0.82-1.299,1.4-1.975,1.74s-1.475,0.51-2.396,0.51
		c-1.25,0-2.223-0.32-2.918-0.961s-1.043-1.527-1.043-2.66c0-1.242,0.518-2.207,1.553-2.895s2.533-1.051,4.494-1.09l2.426-0.07
		v-0.844c0-1.211-0.246-2.125-0.738-2.742s-1.285-0.926-2.379-0.926c-1.18,0-2.402,0.328-3.668,0.984l-0.434-1.008
		c1.398-0.656,2.781-0.984,4.148-0.984c1.398,0,2.443,0.363,3.135,1.09s1.037,1.859,1.037,3.398v8.473H401.717z M397.03,80.65
		c1.359,0,2.432-0.389,3.217-1.166s1.178-1.857,1.178-3.24V74.99l-2.227,0.094c-1.789,0.086-3.064,0.365-3.826,0.838
		s-1.143,1.209-1.143,2.209c0,0.797,0.244,1.416,0.732,1.857S396.139,80.65,397.03,80.65z"/>
	<path d="M409.057,81.471h-1.16V63.236h1.16V81.471z"/>
</g>
<g>
	<path d="M33.871,111.635h-0.984l-1.729-5.736c-0.082-0.254-0.174-0.574-0.275-0.961s-0.154-0.619-0.158-0.697
		c-0.086,0.516-0.223,1.08-0.41,1.693l-1.676,5.701h-0.984l-2.279-8.566h1.055l1.354,5.291c0.188,0.742,0.324,1.414,0.41,2.016
		c0.105-0.715,0.262-1.414,0.469-2.098l1.535-5.209h1.055l1.611,5.256c0.188,0.605,0.346,1.289,0.475,2.051
		c0.074-0.555,0.215-1.23,0.422-2.027l1.348-5.279h1.055L33.871,111.635z"/>
	<path d="M40.37,111.752c-0.949,0-1.698-0.289-2.247-0.867s-0.823-1.381-0.823-2.408c0-1.035,0.255-1.857,0.765-2.467
		s1.194-0.914,2.054-0.914c0.805,0,1.441,0.265,1.91,0.794s0.703,1.228,0.703,2.095v0.615h-4.424c0.02,0.754,0.21,1.326,0.571,1.717
		s0.87,0.586,1.526,0.586c0.691,0,1.375-0.145,2.051-0.434v0.867c-0.344,0.148-0.669,0.255-0.976,0.319
		S40.804,111.752,40.37,111.752z M40.107,105.91c-0.516,0-0.927,0.168-1.233,0.504s-0.487,0.801-0.542,1.395h3.357
		c0-0.613-0.137-1.083-0.41-1.409S40.614,105.91,40.107,105.91z"/>
	<path d="M53.363,105.213v0.615l-1.189,0.141c0.109,0.137,0.207,0.315,0.293,0.536s0.129,0.47,0.129,0.747
		c0,0.629-0.215,1.131-0.645,1.506s-1.02,0.562-1.77,0.562c-0.191,0-0.371-0.016-0.539-0.047c-0.414,0.219-0.621,0.494-0.621,0.826
		c0,0.176,0.072,0.306,0.217,0.39s0.393,0.126,0.744,0.126h1.137c0.695,0,1.229,0.146,1.603,0.439s0.56,0.719,0.56,1.277
		c0,0.711-0.285,1.253-0.855,1.626s-1.402,0.56-2.496,0.56c-0.84,0-1.487-0.156-1.942-0.469s-0.683-0.754-0.683-1.324
		c0-0.391,0.125-0.729,0.375-1.014s0.602-0.479,1.055-0.58c-0.164-0.074-0.302-0.189-0.413-0.346s-0.167-0.338-0.167-0.545
		c0-0.234,0.062-0.439,0.188-0.615s0.322-0.346,0.592-0.51c-0.332-0.137-0.603-0.369-0.812-0.697s-0.313-0.703-0.313-1.125
		c0-0.703,0.211-1.245,0.633-1.626s1.02-0.571,1.793-0.571c0.336,0,0.639,0.039,0.908,0.117H53.363z M48.242,112.713
		c0,0.348,0.146,0.611,0.439,0.791s0.713,0.27,1.26,0.27c0.816,0,1.421-0.122,1.813-0.366s0.589-0.575,0.589-0.993
		c0-0.348-0.107-0.589-0.322-0.724s-0.619-0.202-1.213-0.202h-1.166c-0.441,0-0.785,0.105-1.031,0.316
		S48.242,112.318,48.242,112.713z M48.77,107.27c0,0.449,0.127,0.789,0.381,1.02s0.607,0.346,1.061,0.346
		c0.949,0,1.424-0.461,1.424-1.383c0-0.965-0.48-1.447-1.441-1.447c-0.457,0-0.809,0.123-1.055,0.369S48.77,106.785,48.77,107.27z"
		/>
	<path d="M57.695,111.752c-0.949,0-1.698-0.289-2.247-0.867s-0.823-1.381-0.823-2.408c0-1.035,0.255-1.857,0.765-2.467
		s1.194-0.914,2.054-0.914c0.805,0,1.441,0.265,1.91,0.794s0.703,1.228,0.703,2.095v0.615h-4.424c0.02,0.754,0.21,1.326,0.571,1.717
		s0.87,0.586,1.526,0.586c0.691,0,1.375-0.145,2.051-0.434v0.867c-0.344,0.148-0.669,0.255-0.976,0.319
		S58.128,111.752,57.695,111.752z M57.431,105.91c-0.516,0-0.927,0.168-1.233,0.504s-0.487,0.801-0.542,1.395h3.357
		c0-0.613-0.137-1.083-0.41-1.409S57.939,105.91,57.431,105.91z"/>
	<path d="M64.088,110.949c0.172,0,0.338-0.013,0.498-0.038s0.287-0.052,0.381-0.079v0.744c-0.105,0.051-0.261,0.093-0.466,0.126
		s-0.39,0.05-0.554,0.05c-1.242,0-1.863-0.654-1.863-1.963v-3.82h-0.92V105.5l0.92-0.404l0.41-1.371h0.562v1.488h1.863v0.756h-1.863
		v3.779c0,0.387,0.092,0.684,0.275,0.891S63.768,110.949,64.088,110.949z"/>
	<path d="M75.51,108.418c0,1.047-0.264,1.864-0.791,2.452s-1.256,0.882-2.186,0.882c-0.574,0-1.084-0.135-1.529-0.404
		s-0.789-0.656-1.031-1.16s-0.363-1.094-0.363-1.77c0-1.047,0.262-1.862,0.785-2.446s1.25-0.876,2.18-0.876
		c0.898,0,1.612,0.299,2.142,0.896S75.51,107.398,75.51,108.418z M70.617,108.418c0,0.82,0.164,1.445,0.492,1.875
		s0.811,0.645,1.447,0.645s1.12-0.214,1.45-0.642s0.495-1.054,0.495-1.878c0-0.816-0.165-1.437-0.495-1.86s-0.817-0.636-1.462-0.636
		c-0.637,0-1.117,0.209-1.441,0.627S70.617,107.59,70.617,108.418z"/>
	<path d="M78.43,105.213v4.166c0,0.523,0.119,0.914,0.357,1.172s0.611,0.387,1.119,0.387c0.672,0,1.163-0.184,1.474-0.551
		s0.466-0.967,0.466-1.799v-3.375h0.973v6.422h-0.803l-0.141-0.861h-0.053c-0.199,0.316-0.476,0.559-0.829,0.727
		s-0.757,0.252-1.21,0.252c-0.781,0-1.366-0.186-1.755-0.557s-0.583-0.965-0.583-1.781v-4.201H78.43z"/>
	<path d="M88.111,105.096c0.285,0,0.541,0.023,0.768,0.07l-0.135,0.902c-0.266-0.059-0.5-0.088-0.703-0.088
		c-0.52,0-0.964,0.211-1.333,0.633s-0.554,0.947-0.554,1.576v3.445h-0.973v-6.422h0.803l0.111,1.189h0.047
		c0.238-0.418,0.525-0.74,0.861-0.967S87.708,105.096,88.111,105.096z"/>
	<path d="M96.691,105.969h-1.635v5.666h-0.973v-5.666h-1.148v-0.439l1.148-0.352v-0.357c0-1.578,0.689-2.367,2.068-2.367
		c0.34,0,0.738,0.068,1.195,0.205l-0.252,0.779c-0.375-0.121-0.695-0.182-0.961-0.182c-0.367,0-0.639,0.122-0.814,0.366
		s-0.264,0.636-0.264,1.175v0.416h1.635V105.969z"/>
	<path d="M101.092,105.096c0.285,0,0.541,0.023,0.768,0.07l-0.135,0.902c-0.266-0.059-0.5-0.088-0.703-0.088
		c-0.52,0-0.964,0.211-1.333,0.633s-0.554,0.947-0.554,1.576v3.445h-0.973v-6.422h0.803l0.111,1.189h0.047
		c0.238-0.418,0.525-0.74,0.861-0.967S100.69,105.096,101.092,105.096z"/>
	<path d="M106.074,111.752c-0.949,0-1.698-0.289-2.247-0.867s-0.823-1.381-0.823-2.408c0-1.035,0.255-1.857,0.765-2.467
		s1.194-0.914,2.054-0.914c0.805,0,1.441,0.265,1.91,0.794s0.703,1.228,0.703,2.095v0.615h-4.424c0.02,0.754,0.21,1.326,0.571,1.717
		s0.87,0.586,1.526,0.586c0.691,0,1.375-0.145,2.051-0.434v0.867c-0.344,0.148-0.669,0.255-0.976,0.319
		S106.508,111.752,106.074,111.752z M105.811,105.91c-0.516,0-0.927,0.168-1.233,0.504s-0.487,0.801-0.542,1.395h3.357
		c0-0.613-0.137-1.083-0.41-1.409S106.319,105.91,105.811,105.91z"/>
	<path d="M114.536,109.883c0,0.598-0.223,1.059-0.668,1.383s-1.07,0.486-1.875,0.486c-0.852,0-1.516-0.135-1.992-0.404v-0.902
		c0.309,0.156,0.64,0.279,0.993,0.369s0.694,0.135,1.022,0.135c0.508,0,0.898-0.081,1.172-0.243s0.41-0.409,0.41-0.741
		c0-0.25-0.108-0.464-0.325-0.642s-0.64-0.388-1.269-0.63c-0.598-0.223-1.022-0.417-1.274-0.583s-0.439-0.354-0.562-0.565
		s-0.185-0.463-0.185-0.756c0-0.523,0.213-0.937,0.639-1.239s1.01-0.454,1.752-0.454c0.691,0,1.367,0.141,2.027,0.422l-0.346,0.791
		c-0.645-0.266-1.229-0.398-1.752-0.398c-0.461,0-0.809,0.072-1.043,0.217s-0.352,0.344-0.352,0.598
		c0,0.172,0.044,0.318,0.132,0.439s0.229,0.236,0.425,0.346s0.57,0.268,1.125,0.475c0.762,0.277,1.276,0.557,1.544,0.838
		S114.536,109.457,114.536,109.883z"/>
	<path d="M120.813,111.635v-4.154c0-0.523-0.119-0.914-0.357-1.172s-0.611-0.387-1.119-0.387c-0.676,0-1.169,0.184-1.479,0.551
		s-0.466,0.969-0.466,1.805v3.357h-0.973v-9.117h0.973v2.76c0,0.332-0.016,0.607-0.047,0.826h0.059
		c0.191-0.309,0.464-0.552,0.817-0.729s0.757-0.267,1.21-0.267c0.785,0,1.374,0.187,1.767,0.56s0.589,0.966,0.589,1.778v4.189
		H120.813z"/>
	<path d="M130.395,105.969h-1.635v5.666h-0.973v-5.666h-1.148v-0.439l1.148-0.352v-0.357c0-1.578,0.689-2.367,2.068-2.367
		c0.34,0,0.738,0.068,1.195,0.205l-0.252,0.779c-0.375-0.121-0.695-0.182-0.961-0.182c-0.367,0-0.639,0.122-0.814,0.366
		s-0.264,0.636-0.264,1.175v0.416h1.635V105.969z"/>
	<path d="M134.797,105.096c0.285,0,0.541,0.023,0.768,0.07l-0.135,0.902c-0.266-0.059-0.5-0.088-0.703-0.088
		c-0.52,0-0.964,0.211-1.333,0.633s-0.554,0.947-0.554,1.576v3.445h-0.973v-6.422h0.803l0.111,1.189h0.047
		c0.238-0.418,0.525-0.74,0.861-0.967S134.395,105.096,134.797,105.096z"/>
	<path d="M137.98,105.213v4.166c0,0.523,0.119,0.914,0.357,1.172s0.611,0.387,1.119,0.387c0.672,0,1.163-0.184,1.474-0.551
		s0.466-0.967,0.466-1.799v-3.375h0.973v6.422h-0.803l-0.141-0.861h-0.053c-0.199,0.316-0.476,0.559-0.829,0.727
		s-0.757,0.252-1.21,0.252c-0.781,0-1.366-0.186-1.755-0.557s-0.583-0.965-0.583-1.781v-4.201H137.98z"/>
	<path d="M144.649,103.473c0-0.223,0.055-0.386,0.164-0.489s0.246-0.155,0.41-0.155c0.156,0,0.291,0.053,0.404,0.158
		s0.17,0.268,0.17,0.486s-0.057,0.382-0.17,0.489s-0.248,0.161-0.404,0.161c-0.164,0-0.301-0.054-0.41-0.161
		S144.649,103.691,144.649,103.473z M145.703,111.635h-0.973v-6.422h0.973V111.635z"/>
	<path d="M150.14,110.949c0.172,0,0.338-0.013,0.498-0.038s0.287-0.052,0.381-0.079v0.744c-0.105,0.051-0.261,0.093-0.466,0.126
		s-0.39,0.05-0.554,0.05c-1.242,0-1.863-0.654-1.863-1.963v-3.82h-0.92V105.5l0.92-0.404l0.41-1.371h0.562v1.488h1.863v0.756h-1.863
		v3.779c0,0.387,0.092,0.684,0.275,0.891S149.82,110.949,150.14,110.949z"/>
	<path d="M160.162,109.883c0,0.598-0.223,1.059-0.668,1.383s-1.07,0.486-1.875,0.486c-0.852,0-1.516-0.135-1.992-0.404v-0.902
		c0.309,0.156,0.64,0.279,0.993,0.369s0.694,0.135,1.022,0.135c0.508,0,0.898-0.081,1.172-0.243s0.41-0.409,0.41-0.741
		c0-0.25-0.108-0.464-0.325-0.642s-0.64-0.388-1.269-0.63c-0.598-0.223-1.022-0.417-1.274-0.583s-0.439-0.354-0.562-0.565
		s-0.185-0.463-0.185-0.756c0-0.523,0.213-0.937,0.639-1.239s1.01-0.454,1.752-0.454c0.691,0,1.367,0.141,2.027,0.422l-0.346,0.791
		c-0.645-0.266-1.229-0.398-1.752-0.398c-0.461,0-0.809,0.072-1.043,0.217s-0.352,0.344-0.352,0.598
		c0,0.172,0.044,0.318,0.132,0.439s0.229,0.236,0.425,0.346s0.57,0.268,1.125,0.475c0.762,0.277,1.276,0.557,1.544,0.838
		S160.162,109.457,160.162,109.883z"/>
	<path d="M162.958,105.213v4.166c0,0.523,0.119,0.914,0.357,1.172s0.611,0.387,1.119,0.387c0.672,0,1.163-0.184,1.474-0.551
		s0.466-0.967,0.466-1.799v-3.375h0.973v6.422h-0.803l-0.141-0.861h-0.053c-0.199,0.316-0.476,0.559-0.829,0.727
		s-0.757,0.252-1.21,0.252c-0.781,0-1.366-0.186-1.755-0.557s-0.583-0.965-0.583-1.781v-4.201H162.958z"/>
	<path d="M172.697,111.752c-0.418,0-0.8-0.077-1.146-0.231s-0.636-0.392-0.87-0.712h-0.07c0.047,0.375,0.07,0.73,0.07,1.066v2.643
		h-0.973v-9.305h0.791l0.135,0.879h0.047c0.25-0.352,0.541-0.605,0.873-0.762s0.713-0.234,1.143-0.234
		c0.852,0,1.509,0.291,1.972,0.873s0.694,1.398,0.694,2.449c0,1.055-0.235,1.874-0.706,2.458S173.533,111.752,172.697,111.752z
		 M172.557,105.922c-0.656,0-1.131,0.182-1.424,0.545s-0.443,0.941-0.451,1.734v0.217c0,0.902,0.15,1.548,0.451,1.937
		s0.783,0.583,1.447,0.583c0.555,0,0.989-0.225,1.304-0.674s0.472-1.068,0.472-1.857c0-0.801-0.157-1.415-0.472-1.843
		S173.127,105.922,172.557,105.922z"/>
	<path d="M180.351,111.752c-0.418,0-0.8-0.077-1.146-0.231s-0.636-0.392-0.87-0.712h-0.07c0.047,0.375,0.07,0.73,0.07,1.066v2.643
		h-0.973v-9.305h0.791l0.135,0.879h0.047c0.25-0.352,0.541-0.605,0.873-0.762s0.713-0.234,1.143-0.234
		c0.852,0,1.509,0.291,1.972,0.873s0.694,1.398,0.694,2.449c0,1.055-0.235,1.874-0.706,2.458S181.187,111.752,180.351,111.752z
		 M180.21,105.922c-0.656,0-1.131,0.182-1.424,0.545s-0.443,0.941-0.451,1.734v0.217c0,0.902,0.15,1.548,0.451,1.937
		s0.783,0.583,1.447,0.583c0.555,0,0.989-0.225,1.304-0.674s0.472-1.068,0.472-1.857c0-0.801-0.157-1.415-0.472-1.843
		S180.78,105.922,180.21,105.922z"/>
	<path d="M185.988,111.635h-0.973v-9.117h0.973V111.635z"/>
	<path d="M188.27,103.473c0-0.223,0.055-0.386,0.164-0.489s0.246-0.155,0.41-0.155c0.156,0,0.291,0.053,0.404,0.158
		s0.17,0.268,0.17,0.486s-0.057,0.382-0.17,0.489s-0.248,0.161-0.404,0.161c-0.164,0-0.301-0.054-0.41-0.161
		S188.27,103.691,188.27,103.473z M189.324,111.635h-0.973v-6.422h0.973V111.635z"/>
	<path d="M194.4,111.752c-0.949,0-1.698-0.289-2.247-0.867s-0.823-1.381-0.823-2.408c0-1.035,0.255-1.857,0.765-2.467
		s1.194-0.914,2.054-0.914c0.805,0,1.441,0.265,1.91,0.794s0.703,1.228,0.703,2.095v0.615h-4.424c0.02,0.754,0.21,1.326,0.571,1.717
		s0.87,0.586,1.526,0.586c0.691,0,1.375-0.145,2.051-0.434v0.867c-0.344,0.148-0.669,0.255-0.976,0.319
		S194.833,111.752,194.4,111.752z M194.136,105.91c-0.516,0-0.927,0.168-1.233,0.504s-0.487,0.801-0.542,1.395h3.357
		c0-0.613-0.137-1.083-0.41-1.409S194.644,105.91,194.136,105.91z"/>
	<path d="M202.862,109.883c0,0.598-0.223,1.059-0.668,1.383s-1.07,0.486-1.875,0.486c-0.852,0-1.516-0.135-1.992-0.404v-0.902
		c0.309,0.156,0.64,0.279,0.993,0.369s0.694,0.135,1.022,0.135c0.508,0,0.898-0.081,1.172-0.243s0.41-0.409,0.41-0.741
		c0-0.25-0.108-0.464-0.325-0.642s-0.64-0.388-1.269-0.63c-0.598-0.223-1.022-0.417-1.274-0.583s-0.439-0.354-0.562-0.565
		s-0.185-0.463-0.185-0.756c0-0.523,0.213-0.937,0.639-1.239s1.01-0.454,1.752-0.454c0.691,0,1.367,0.141,2.027,0.422l-0.346,0.791
		c-0.645-0.266-1.229-0.398-1.752-0.398c-0.461,0-0.809,0.072-1.043,0.217s-0.352,0.344-0.352,0.598
		c0,0.172,0.044,0.318,0.132,0.439s0.229,0.236,0.425,0.346s0.57,0.268,1.125,0.475c0.762,0.277,1.276,0.557,1.544,0.838
		S202.862,109.457,202.862,109.883z"/>
	<path d="M211.055,105.969h-1.635v5.666h-0.973v-5.666h-1.148v-0.439l1.148-0.352v-0.357c0-1.578,0.689-2.367,2.068-2.367
		c0.34,0,0.738,0.068,1.195,0.205l-0.252,0.779c-0.375-0.121-0.695-0.182-0.961-0.182c-0.367,0-0.639,0.122-0.814,0.366
		s-0.264,0.636-0.264,1.175v0.416h1.635V105.969z"/>
	<path d="M215.457,105.096c0.285,0,0.541,0.023,0.768,0.07l-0.135,0.902c-0.266-0.059-0.5-0.088-0.703-0.088
		c-0.52,0-0.964,0.211-1.333,0.633s-0.554,0.947-0.554,1.576v3.445h-0.973v-6.422h0.803l0.111,1.189h0.047
		c0.238-0.418,0.525-0.74,0.861-0.967S215.055,105.096,215.457,105.096z"/>
	<path d="M223.269,108.418c0,1.047-0.264,1.864-0.791,2.452s-1.256,0.882-2.186,0.882c-0.574,0-1.084-0.135-1.529-0.404
		s-0.789-0.656-1.031-1.16s-0.363-1.094-0.363-1.77c0-1.047,0.262-1.862,0.785-2.446s1.25-0.876,2.18-0.876
		c0.898,0,1.612,0.299,2.142,0.896S223.269,107.398,223.269,108.418z M218.376,108.418c0,0.82,0.164,1.445,0.492,1.875
		s0.811,0.645,1.447,0.645s1.12-0.214,1.45-0.642s0.495-1.054,0.495-1.878c0-0.816-0.165-1.437-0.495-1.86s-0.817-0.636-1.462-0.636
		c-0.637,0-1.117,0.209-1.441,0.627S218.376,107.59,218.376,108.418z"/>
	<path d="M233.459,111.635v-4.178c0-0.512-0.109-0.896-0.328-1.151s-0.559-0.384-1.02-0.384c-0.605,0-1.053,0.174-1.342,0.521
		s-0.434,0.883-0.434,1.605v3.586h-0.973v-4.178c0-0.512-0.109-0.896-0.328-1.151s-0.561-0.384-1.025-0.384
		c-0.609,0-1.056,0.183-1.339,0.548s-0.425,0.964-0.425,1.796v3.369h-0.973v-6.422h0.791l0.158,0.879h0.047
		c0.184-0.312,0.442-0.557,0.776-0.732s0.708-0.264,1.122-0.264c1.004,0,1.66,0.363,1.969,1.09h0.047
		c0.191-0.336,0.469-0.602,0.832-0.797s0.777-0.293,1.242-0.293c0.727,0,1.271,0.187,1.632,0.56s0.542,0.97,0.542,1.79v4.189
		H233.459z"/>
	<path d="M241.125,111.635h-0.973v-9.117h0.973V111.635z"/>
	<path d="M249.031,108.418c0,1.047-0.264,1.864-0.791,2.452s-1.256,0.882-2.186,0.882c-0.574,0-1.084-0.135-1.529-0.404
		s-0.789-0.656-1.031-1.16s-0.363-1.094-0.363-1.77c0-1.047,0.262-1.862,0.785-2.446s1.25-0.876,2.18-0.876
		c0.898,0,1.612,0.299,2.142,0.896S249.031,107.398,249.031,108.418z M244.139,108.418c0,0.82,0.164,1.445,0.492,1.875
		s0.811,0.645,1.447,0.645s1.12-0.214,1.45-0.642s0.495-1.054,0.495-1.878c0-0.816-0.165-1.437-0.495-1.86s-0.817-0.636-1.462-0.636
		c-0.637,0-1.117,0.209-1.441,0.627S244.139,107.59,244.139,108.418z"/>
	<path d="M253.603,111.752c-0.93,0-1.649-0.286-2.159-0.858s-0.765-1.382-0.765-2.429c0-1.074,0.259-1.904,0.776-2.49
		s1.255-0.879,2.212-0.879c0.309,0,0.617,0.033,0.926,0.1s0.551,0.145,0.727,0.234l-0.299,0.826
		c-0.215-0.086-0.449-0.157-0.703-0.214s-0.479-0.085-0.674-0.085c-1.305,0-1.957,0.832-1.957,2.496
		c0,0.789,0.159,1.395,0.478,1.816s0.79,0.633,1.415,0.633c0.535,0,1.084-0.115,1.646-0.346v0.861
		C254.796,111.641,254.255,111.752,253.603,111.752z"/>
	<path d="M260.998,111.635l-0.193-0.914h-0.047c-0.32,0.402-0.64,0.675-0.958,0.817s-0.716,0.214-1.192,0.214
		c-0.637,0-1.136-0.164-1.497-0.492s-0.542-0.795-0.542-1.4c0-1.297,1.037-1.977,3.111-2.039l1.09-0.035v-0.398
		c0-0.504-0.108-0.876-0.325-1.116s-0.563-0.36-1.04-0.36c-0.535,0-1.141,0.164-1.816,0.492l-0.299-0.744
		c0.316-0.172,0.663-0.307,1.04-0.404s0.755-0.146,1.134-0.146c0.766,0,1.333,0.17,1.702,0.51s0.554,0.885,0.554,1.635v4.383
		H260.998z M258.801,110.949c0.605,0,1.081-0.166,1.427-0.498s0.519-0.797,0.519-1.395v-0.58l-0.973,0.041
		c-0.773,0.027-1.331,0.147-1.673,0.36s-0.513,0.544-0.513,0.993c0,0.352,0.106,0.619,0.319,0.803S258.418,110.949,258.801,110.949z
		"/>
	<path d="M264.995,111.635h-0.973v-9.117h0.973V111.635z"/>
	<path d="M273.67,105.969h-1.635v5.666h-0.973v-5.666h-1.148v-0.439l1.148-0.352v-0.357c0-1.578,0.689-2.367,2.068-2.367
		c0.34,0,0.738,0.068,1.195,0.205l-0.252,0.779c-0.375-0.121-0.695-0.182-0.961-0.182c-0.367,0-0.639,0.122-0.814,0.366
		s-0.264,0.636-0.264,1.175v0.416h1.635V105.969z"/>
	<path d="M279.091,111.635l-0.193-0.914h-0.047c-0.32,0.402-0.64,0.675-0.958,0.817s-0.716,0.214-1.192,0.214
		c-0.637,0-1.136-0.164-1.497-0.492s-0.542-0.795-0.542-1.4c0-1.297,1.037-1.977,3.111-2.039l1.09-0.035v-0.398
		c0-0.504-0.108-0.876-0.325-1.116s-0.563-0.36-1.04-0.36c-0.535,0-1.141,0.164-1.816,0.492l-0.299-0.744
		c0.316-0.172,0.663-0.307,1.04-0.404s0.755-0.146,1.134-0.146c0.766,0,1.333,0.17,1.702,0.51s0.554,0.885,0.554,1.635v4.383
		H279.091z M276.894,110.949c0.605,0,1.081-0.166,1.427-0.498s0.519-0.797,0.519-1.395v-0.58l-0.973,0.041
		c-0.773,0.027-1.331,0.147-1.673,0.36s-0.513,0.544-0.513,0.993c0,0.352,0.106,0.619,0.319,0.803S276.511,110.949,276.894,110.949z
		"/>
	<path d="M285.045,105.096c0.285,0,0.541,0.023,0.768,0.07l-0.135,0.902c-0.266-0.059-0.5-0.088-0.703-0.088
		c-0.52,0-0.964,0.211-1.333,0.633s-0.554,0.947-0.554,1.576v3.445h-0.973v-6.422h0.803l0.111,1.189h0.047
		c0.238-0.418,0.525-0.74,0.861-0.967S284.643,105.096,285.045,105.096z"/>
	<path d="M295.499,111.635v-4.178c0-0.512-0.109-0.896-0.328-1.151s-0.559-0.384-1.02-0.384c-0.605,0-1.053,0.174-1.342,0.521
		s-0.434,0.883-0.434,1.605v3.586h-0.973v-4.178c0-0.512-0.109-0.896-0.328-1.151s-0.561-0.384-1.025-0.384
		c-0.609,0-1.056,0.183-1.339,0.548s-0.425,0.964-0.425,1.796v3.369h-0.973v-6.422h0.791l0.158,0.879h0.047
		c0.184-0.312,0.442-0.557,0.776-0.732s0.708-0.264,1.122-0.264c1.004,0,1.66,0.363,1.969,1.09h0.047
		c0.191-0.336,0.469-0.602,0.832-0.797s0.777-0.293,1.242-0.293c0.727,0,1.271,0.187,1.632,0.56s0.542,0.97,0.542,1.79v4.189
		H295.499z"/>
	<path d="M301.488,111.752c-0.949,0-1.698-0.289-2.247-0.867s-0.823-1.381-0.823-2.408c0-1.035,0.255-1.857,0.765-2.467
		s1.194-0.914,2.054-0.914c0.805,0,1.441,0.265,1.91,0.794s0.703,1.228,0.703,2.095v0.615h-4.424c0.02,0.754,0.21,1.326,0.571,1.717
		s0.87,0.586,1.526,0.586c0.691,0,1.375-0.145,2.051-0.434v0.867c-0.344,0.148-0.669,0.255-0.976,0.319
		S301.922,111.752,301.488,111.752z M301.225,105.91c-0.516,0-0.927,0.168-1.233,0.504s-0.487,0.801-0.542,1.395h3.357
		c0-0.613-0.137-1.083-0.41-1.409S301.733,105.91,301.225,105.91z"/>
	<path d="M308.738,105.096c0.285,0,0.541,0.023,0.768,0.07l-0.135,0.902c-0.266-0.059-0.5-0.088-0.703-0.088
		c-0.52,0-0.964,0.211-1.333,0.633s-0.554,0.947-0.554,1.576v3.445h-0.973v-6.422h0.803l0.111,1.189h0.047
		c0.238-0.418,0.525-0.74,0.861-0.967S308.336,105.096,308.738,105.096z"/>
	<path d="M315.15,109.883c0,0.598-0.223,1.059-0.668,1.383s-1.07,0.486-1.875,0.486c-0.852,0-1.516-0.135-1.992-0.404v-0.902
		c0.309,0.156,0.64,0.279,0.993,0.369s0.694,0.135,1.022,0.135c0.508,0,0.898-0.081,1.172-0.243s0.41-0.409,0.41-0.741
		c0-0.25-0.108-0.464-0.325-0.642s-0.64-0.388-1.269-0.63c-0.598-0.223-1.022-0.417-1.274-0.583s-0.439-0.354-0.562-0.565
		s-0.185-0.463-0.185-0.756c0-0.523,0.213-0.937,0.639-1.239s1.01-0.454,1.752-0.454c0.691,0,1.367,0.141,2.027,0.422l-0.346,0.791
		c-0.645-0.266-1.229-0.398-1.752-0.398c-0.461,0-0.809,0.072-1.043,0.217s-0.352,0.344-0.352,0.598
		c0,0.172,0.044,0.318,0.132,0.439s0.229,0.236,0.425,0.346s0.57,0.268,1.125,0.475c0.762,0.277,1.276,0.557,1.544,0.838
		S315.15,109.457,315.15,109.883z"/>
	<path d="M26.166,119.473c0-0.223,0.055-0.386,0.164-0.489s0.246-0.155,0.41-0.155c0.156,0,0.291,0.053,0.404,0.158
		s0.17,0.268,0.17,0.486s-0.057,0.382-0.17,0.489s-0.248,0.161-0.404,0.161c-0.164,0-0.301-0.054-0.41-0.161
		S26.166,119.691,26.166,119.473z M27.221,127.635h-0.973v-6.422h0.973V127.635z"/>
	<path d="M33.978,127.635v-4.154c0-0.523-0.119-0.914-0.357-1.172s-0.611-0.387-1.119-0.387c-0.672,0-1.164,0.182-1.477,0.545
		s-0.469,0.963-0.469,1.799v3.369h-0.973v-6.422h0.791l0.158,0.879h0.047c0.199-0.316,0.479-0.562,0.838-0.735
		s0.76-0.261,1.201-0.261c0.773,0,1.355,0.187,1.746,0.56s0.586,0.97,0.586,1.79v4.189H33.978z"/>
	<path d="M44.809,125.883c0,0.598-0.223,1.059-0.668,1.383s-1.07,0.486-1.875,0.486c-0.852,0-1.516-0.135-1.992-0.404v-0.902
		c0.309,0.156,0.64,0.279,0.993,0.369s0.694,0.135,1.022,0.135c0.508,0,0.898-0.081,1.172-0.243s0.41-0.409,0.41-0.741
		c0-0.25-0.108-0.464-0.325-0.642s-0.64-0.388-1.269-0.63c-0.598-0.223-1.022-0.417-1.274-0.583s-0.439-0.354-0.562-0.565
		s-0.185-0.463-0.185-0.756c0-0.523,0.213-0.937,0.639-1.239s1.01-0.454,1.752-0.454c0.691,0,1.367,0.141,2.027,0.422l-0.346,0.791
		c-0.645-0.266-1.229-0.398-1.752-0.398c-0.461,0-0.809,0.072-1.043,0.217s-0.352,0.344-0.352,0.598
		c0,0.172,0.044,0.318,0.132,0.439s0.229,0.236,0.425,0.346s0.57,0.268,1.125,0.475c0.762,0.277,1.276,0.557,1.544,0.838
		S44.809,125.457,44.809,125.883z"/>
	<path d="M49.403,127.752c-0.949,0-1.698-0.289-2.247-0.867s-0.823-1.381-0.823-2.408c0-1.035,0.255-1.857,0.765-2.467
		s1.194-0.914,2.054-0.914c0.805,0,1.441,0.265,1.91,0.794s0.703,1.228,0.703,2.095v0.615h-4.424c0.02,0.754,0.21,1.326,0.571,1.717
		s0.87,0.586,1.526,0.586c0.691,0,1.375-0.145,2.051-0.434v0.867c-0.344,0.148-0.669,0.255-0.976,0.319
		S49.837,127.752,49.403,127.752z M49.14,121.91c-0.516,0-0.927,0.168-1.233,0.504s-0.487,0.801-0.542,1.395h3.357
		c0-0.613-0.137-1.083-0.41-1.409S49.648,121.91,49.14,121.91z"/>
	<path d="M57.672,127.635l-0.193-0.914h-0.047c-0.32,0.402-0.64,0.675-0.958,0.817s-0.716,0.214-1.192,0.214
		c-0.637,0-1.136-0.164-1.497-0.492s-0.542-0.795-0.542-1.4c0-1.297,1.037-1.977,3.111-2.039l1.09-0.035v-0.398
		c0-0.504-0.108-0.876-0.325-1.116s-0.563-0.36-1.04-0.36c-0.535,0-1.141,0.164-1.816,0.492l-0.299-0.744
		c0.316-0.172,0.663-0.307,1.04-0.404s0.755-0.146,1.134-0.146c0.766,0,1.333,0.17,1.702,0.51s0.554,0.885,0.554,1.635v4.383H57.672
		z M55.475,126.949c0.605,0,1.081-0.166,1.427-0.498s0.519-0.797,0.519-1.395v-0.58l-0.973,0.041
		c-0.773,0.027-1.331,0.147-1.673,0.36s-0.513,0.544-0.513,0.993c0,0.352,0.106,0.619,0.319,0.803S55.092,126.949,55.475,126.949z"
		/>
	<path d="M64.839,125.883c0,0.598-0.223,1.059-0.668,1.383c-0.445,0.324-1.07,0.486-1.875,0.486c-0.852,0-1.516-0.135-1.992-0.404
		v-0.902c0.309,0.156,0.64,0.279,0.993,0.369s0.694,0.135,1.022,0.135c0.508,0,0.898-0.081,1.172-0.243s0.41-0.409,0.41-0.741
		c0-0.25-0.108-0.464-0.325-0.642s-0.64-0.388-1.269-0.63c-0.598-0.223-1.022-0.417-1.274-0.583s-0.439-0.354-0.562-0.565
		s-0.185-0.463-0.185-0.756c0-0.523,0.213-0.937,0.639-1.239s1.01-0.454,1.752-0.454c0.691,0,1.367,0.141,2.027,0.422l-0.346,0.791
		c-0.645-0.266-1.229-0.398-1.752-0.398c-0.461,0-0.809,0.072-1.043,0.217s-0.352,0.344-0.352,0.598
		c0,0.172,0.044,0.318,0.132,0.439s0.229,0.236,0.425,0.346s0.57,0.268,1.125,0.475c0.762,0.277,1.276,0.557,1.544,0.838
		S64.839,125.457,64.839,125.883z"/>
	<path d="M72.264,124.418c0,1.047-0.264,1.864-0.791,2.452s-1.256,0.882-2.186,0.882c-0.574,0-1.084-0.135-1.529-0.404
		s-0.789-0.656-1.031-1.16s-0.363-1.094-0.363-1.77c0-1.047,0.262-1.862,0.785-2.446s1.25-0.876,2.18-0.876
		c0.898,0,1.612,0.299,2.142,0.896S72.264,123.398,72.264,124.418z M67.371,124.418c0,0.82,0.164,1.445,0.492,1.875
		s0.811,0.645,1.447,0.645s1.12-0.214,1.45-0.642s0.495-1.054,0.495-1.878c0-0.816-0.165-1.437-0.495-1.86s-0.817-0.636-1.462-0.636
		c-0.637,0-1.117,0.209-1.441,0.627S67.371,123.59,67.371,124.418z"/>
	<path d="M78.664,127.635v-4.154c0-0.523-0.119-0.914-0.357-1.172s-0.611-0.387-1.119-0.387c-0.672,0-1.164,0.182-1.477,0.545
		s-0.469,0.963-0.469,1.799v3.369H74.27v-6.422h0.791l0.158,0.879h0.047c0.199-0.316,0.479-0.562,0.838-0.735
		s0.76-0.261,1.201-0.261c0.773,0,1.355,0.187,1.746,0.56s0.586,0.97,0.586,1.79v4.189H78.664z"/>
	<path d="M89.301,127.635l-0.193-0.914h-0.047c-0.32,0.402-0.64,0.675-0.958,0.817s-0.716,0.214-1.192,0.214
		c-0.637,0-1.136-0.164-1.497-0.492s-0.542-0.795-0.542-1.4c0-1.297,1.037-1.977,3.111-2.039l1.09-0.035v-0.398
		c0-0.504-0.108-0.876-0.325-1.116s-0.563-0.36-1.04-0.36c-0.535,0-1.141,0.164-1.816,0.492l-0.299-0.744
		c0.316-0.172,0.663-0.307,1.04-0.404s0.755-0.146,1.134-0.146c0.766,0,1.333,0.17,1.702,0.51s0.554,0.885,0.554,1.635v4.383H89.301
		z M87.104,126.949c0.605,0,1.081-0.166,1.427-0.498s0.519-0.797,0.519-1.395v-0.58l-0.973,0.041
		c-0.773,0.027-1.331,0.147-1.673,0.36s-0.513,0.544-0.513,0.993c0,0.352,0.106,0.619,0.319,0.803S86.721,126.949,87.104,126.949z"
		/>
	<path d="M96.72,127.635v-4.154c0-0.523-0.119-0.914-0.357-1.172s-0.611-0.387-1.119-0.387c-0.672,0-1.164,0.182-1.477,0.545
		s-0.469,0.963-0.469,1.799v3.369h-0.973v-6.422h0.791l0.158,0.879h0.047c0.199-0.316,0.479-0.562,0.838-0.735
		s0.76-0.261,1.201-0.261c0.773,0,1.355,0.187,1.746,0.56s0.586,0.97,0.586,1.79v4.189H96.72z"/>
	<path d="M104.362,126.773h-0.053c-0.449,0.652-1.121,0.979-2.016,0.979c-0.84,0-1.493-0.287-1.96-0.861s-0.7-1.391-0.7-2.449
		s0.234-1.881,0.703-2.467s1.121-0.879,1.957-0.879c0.871,0,1.539,0.316,2.004,0.949h0.076l-0.041-0.463l-0.023-0.451v-2.613h0.973
		v9.117h-0.791L104.362,126.773z M102.416,126.938c0.664,0,1.146-0.181,1.444-0.542s0.448-0.944,0.448-1.749v-0.205
		c0-0.91-0.151-1.56-0.454-1.948s-0.786-0.583-1.45-0.583c-0.57,0-1.007,0.222-1.31,0.665s-0.454,1.069-0.454,1.878
		c0,0.82,0.15,1.439,0.451,1.857S101.834,126.938,102.416,126.938z"/>
	<path d="M110.98,119.473c0-0.223,0.055-0.386,0.164-0.489s0.246-0.155,0.41-0.155c0.156,0,0.291,0.053,0.404,0.158
		s0.17,0.268,0.17,0.486s-0.057,0.382-0.17,0.489s-0.248,0.161-0.404,0.161c-0.164,0-0.301-0.054-0.41-0.161
		S110.98,119.691,110.98,119.473z M112.034,127.635h-0.973v-6.422h0.973V127.635z"/>
	<path d="M118.791,127.635v-4.154c0-0.523-0.119-0.914-0.357-1.172s-0.611-0.387-1.119-0.387c-0.672,0-1.164,0.182-1.477,0.545
		s-0.469,0.963-0.469,1.799v3.369h-0.973v-6.422h0.791l0.158,0.879h0.047c0.199-0.316,0.479-0.562,0.838-0.735
		s0.76-0.261,1.201-0.261c0.773,0,1.355,0.187,1.746,0.56s0.586,0.97,0.586,1.79v4.189H118.791z"/>
	<path d="M124.136,126.949c0.172,0,0.338-0.013,0.498-0.038s0.287-0.052,0.381-0.079v0.744c-0.105,0.051-0.261,0.093-0.466,0.126
		s-0.39,0.05-0.554,0.05c-1.242,0-1.863-0.654-1.863-1.963v-3.82h-0.92V121.5l0.92-0.404l0.41-1.371h0.562v1.488h1.863v0.756h-1.863
		v3.779c0,0.387,0.092,0.684,0.275,0.891S123.816,126.949,124.136,126.949z"/>
	<path d="M129.311,127.752c-0.949,0-1.698-0.289-2.247-0.867s-0.823-1.381-0.823-2.408c0-1.035,0.255-1.857,0.765-2.467
		s1.194-0.914,2.054-0.914c0.805,0,1.441,0.265,1.91,0.794s0.703,1.228,0.703,2.095v0.615h-4.424c0.02,0.754,0.21,1.326,0.571,1.717
		s0.87,0.586,1.526,0.586c0.691,0,1.375-0.145,2.051-0.434v0.867c-0.344,0.148-0.669,0.255-0.976,0.319
		S129.744,127.752,129.311,127.752z M129.047,121.91c-0.516,0-0.927,0.168-1.233,0.504s-0.487,0.801-0.542,1.395h3.357
		c0-0.613-0.137-1.083-0.41-1.409S129.555,121.91,129.047,121.91z"/>
	<path d="M136.561,121.096c0.285,0,0.541,0.023,0.768,0.07l-0.135,0.902c-0.266-0.059-0.5-0.088-0.703-0.088
		c-0.52,0-0.964,0.211-1.333,0.633s-0.554,0.947-0.554,1.576v3.445h-0.973v-6.422h0.803l0.111,1.189h0.047
		c0.238-0.418,0.525-0.74,0.861-0.967S136.158,121.096,136.561,121.096z"/>
	<path d="M143.224,127.635v-4.154c0-0.523-0.119-0.914-0.357-1.172s-0.611-0.387-1.119-0.387c-0.672,0-1.164,0.182-1.477,0.545
		s-0.469,0.963-0.469,1.799v3.369h-0.973v-6.422h0.791l0.158,0.879h0.047c0.199-0.316,0.479-0.562,0.838-0.735
		s0.76-0.261,1.201-0.261c0.773,0,1.355,0.187,1.746,0.56s0.586,0.97,0.586,1.79v4.189H143.224z"/>
	<path d="M150.444,127.635l-0.193-0.914h-0.047c-0.32,0.402-0.64,0.675-0.958,0.817s-0.716,0.214-1.192,0.214
		c-0.637,0-1.136-0.164-1.497-0.492s-0.542-0.795-0.542-1.4c0-1.297,1.037-1.977,3.111-2.039l1.09-0.035v-0.398
		c0-0.504-0.108-0.876-0.325-1.116s-0.563-0.36-1.04-0.36c-0.535,0-1.141,0.164-1.816,0.492l-0.299-0.744
		c0.316-0.172,0.663-0.307,1.04-0.404s0.755-0.146,1.134-0.146c0.766,0,1.333,0.17,1.702,0.51s0.554,0.885,0.554,1.635v4.383
		H150.444z M148.246,126.949c0.605,0,1.081-0.166,1.427-0.498s0.519-0.797,0.519-1.395v-0.58l-0.973,0.041
		c-0.773,0.027-1.331,0.147-1.673,0.36s-0.513,0.544-0.513,0.993c0,0.352,0.106,0.619,0.319,0.803S147.863,126.949,148.246,126.949z
		"/>
	<path d="M155.542,126.949c0.172,0,0.338-0.013,0.498-0.038s0.287-0.052,0.381-0.079v0.744c-0.105,0.051-0.261,0.093-0.466,0.126
		s-0.39,0.05-0.554,0.05c-1.242,0-1.863-0.654-1.863-1.963v-3.82h-0.92V121.5l0.92-0.404l0.41-1.371h0.562v1.488h1.863v0.756h-1.863
		v3.779c0,0.387,0.092,0.684,0.275,0.891S155.222,126.949,155.542,126.949z"/>
	<path d="M157.922,119.473c0-0.223,0.055-0.386,0.164-0.489s0.246-0.155,0.41-0.155c0.156,0,0.291,0.053,0.404,0.158
		s0.17,0.268,0.17,0.486s-0.057,0.382-0.17,0.489s-0.248,0.161-0.404,0.161c-0.164,0-0.301-0.054-0.41-0.161
		S157.922,119.691,157.922,119.473z M158.977,127.635h-0.973v-6.422h0.973V127.635z"/>
	<path d="M166.883,124.418c0,1.047-0.264,1.864-0.791,2.452s-1.256,0.882-2.186,0.882c-0.574,0-1.084-0.135-1.529-0.404
		s-0.789-0.656-1.031-1.16s-0.363-1.094-0.363-1.77c0-1.047,0.262-1.862,0.785-2.446s1.25-0.876,2.18-0.876
		c0.898,0,1.612,0.299,2.142,0.896S166.883,123.398,166.883,124.418z M161.99,124.418c0,0.82,0.164,1.445,0.492,1.875
		s0.811,0.645,1.447,0.645s1.12-0.214,1.45-0.642s0.495-1.054,0.495-1.878c0-0.816-0.165-1.437-0.495-1.86s-0.817-0.636-1.462-0.636
		c-0.637,0-1.117,0.209-1.441,0.627S161.99,123.59,161.99,124.418z"/>
	<path d="M173.282,127.635v-4.154c0-0.523-0.119-0.914-0.357-1.172s-0.611-0.387-1.119-0.387c-0.672,0-1.164,0.182-1.477,0.545
		s-0.469,0.963-0.469,1.799v3.369h-0.973v-6.422h0.791l0.158,0.879h0.047c0.199-0.316,0.479-0.562,0.838-0.735
		s0.76-0.261,1.201-0.261c0.773,0,1.355,0.187,1.746,0.56s0.586,0.97,0.586,1.79v4.189H173.282z"/>
	<path d="M180.502,127.635l-0.193-0.914h-0.047c-0.32,0.402-0.64,0.675-0.958,0.817s-0.716,0.214-1.192,0.214
		c-0.637,0-1.136-0.164-1.497-0.492s-0.542-0.795-0.542-1.4c0-1.297,1.037-1.977,3.111-2.039l1.09-0.035v-0.398
		c0-0.504-0.108-0.876-0.325-1.116s-0.563-0.36-1.04-0.36c-0.535,0-1.141,0.164-1.816,0.492l-0.299-0.744
		c0.316-0.172,0.663-0.307,1.04-0.404s0.755-0.146,1.134-0.146c0.766,0,1.333,0.17,1.702,0.51s0.554,0.885,0.554,1.635v4.383
		H180.502z M178.305,126.949c0.605,0,1.081-0.166,1.427-0.498s0.519-0.797,0.519-1.395v-0.58l-0.973,0.041
		c-0.773,0.027-1.331,0.147-1.673,0.36s-0.513,0.544-0.513,0.993c0,0.352,0.106,0.619,0.319,0.803S177.922,126.949,178.305,126.949z
		"/>
	<path d="M184.499,127.635h-0.973v-9.117h0.973V127.635z"/>
	<path d="M194.422,125.883c0,0.598-0.223,1.059-0.668,1.383s-1.07,0.486-1.875,0.486c-0.852,0-1.516-0.135-1.992-0.404v-0.902
		c0.309,0.156,0.64,0.279,0.993,0.369s0.694,0.135,1.022,0.135c0.508,0,0.898-0.081,1.172-0.243s0.41-0.409,0.41-0.741
		c0-0.25-0.108-0.464-0.325-0.642s-0.64-0.388-1.269-0.63c-0.598-0.223-1.022-0.417-1.274-0.583s-0.439-0.354-0.562-0.565
		s-0.185-0.463-0.185-0.756c0-0.523,0.213-0.937,0.639-1.239s1.01-0.454,1.752-0.454c0.691,0,1.367,0.141,2.027,0.422l-0.346,0.791
		c-0.645-0.266-1.229-0.398-1.752-0.398c-0.461,0-0.809,0.072-1.043,0.217s-0.352,0.344-0.352,0.598
		c0,0.172,0.044,0.318,0.132,0.439s0.229,0.236,0.425,0.346s0.57,0.268,1.125,0.475c0.762,0.277,1.276,0.557,1.544,0.838
		S194.422,125.457,194.422,125.883z"/>
	<path d="M197.218,121.213v4.166c0,0.523,0.119,0.914,0.357,1.172s0.611,0.387,1.119,0.387c0.672,0,1.163-0.184,1.474-0.551
		s0.466-0.967,0.466-1.799v-3.375h0.973v6.422h-0.803l-0.141-0.861h-0.053c-0.199,0.316-0.476,0.559-0.829,0.727
		s-0.757,0.252-1.21,0.252c-0.781,0-1.366-0.186-1.755-0.557s-0.583-0.965-0.583-1.781v-4.201H197.218z"/>
	<path d="M206.957,127.752c-0.418,0-0.8-0.077-1.146-0.231s-0.636-0.392-0.87-0.712h-0.07c0.047,0.375,0.07,0.73,0.07,1.066v2.643
		h-0.973v-9.305h0.791l0.135,0.879h0.047c0.25-0.352,0.541-0.605,0.873-0.762s0.713-0.234,1.143-0.234
		c0.852,0,1.509,0.291,1.972,0.873s0.694,1.398,0.694,2.449c0,1.055-0.235,1.874-0.706,2.458S207.793,127.752,206.957,127.752z
		 M206.817,121.922c-0.656,0-1.131,0.182-1.424,0.545s-0.443,0.941-0.451,1.734v0.217c0,0.902,0.15,1.548,0.451,1.937
		s0.783,0.583,1.447,0.583c0.555,0,0.989-0.225,1.304-0.674s0.472-1.068,0.472-1.857c0-0.801-0.157-1.415-0.472-1.843
		S207.387,121.922,206.817,121.922z"/>
	<path d="M214.611,127.752c-0.418,0-0.8-0.077-1.146-0.231s-0.636-0.392-0.87-0.712h-0.07c0.047,0.375,0.07,0.73,0.07,1.066v2.643
		h-0.973v-9.305h0.791l0.135,0.879h0.047c0.25-0.352,0.541-0.605,0.873-0.762s0.713-0.234,1.143-0.234
		c0.852,0,1.509,0.291,1.972,0.873s0.694,1.398,0.694,2.449c0,1.055-0.235,1.874-0.706,2.458S215.446,127.752,214.611,127.752z
		 M214.47,121.922c-0.656,0-1.131,0.182-1.424,0.545s-0.443,0.941-0.451,1.734v0.217c0,0.902,0.15,1.548,0.451,1.937
		s0.783,0.583,1.447,0.583c0.555,0,0.989-0.225,1.304-0.674s0.472-1.068,0.472-1.857c0-0.801-0.157-1.415-0.472-1.843
		S215.04,121.922,214.47,121.922z"/>
	<path d="M220.248,127.635h-0.973v-9.117h0.973V127.635z"/>
	<path d="M222.529,119.473c0-0.223,0.055-0.386,0.164-0.489s0.246-0.155,0.41-0.155c0.156,0,0.291,0.053,0.404,0.158
		s0.17,0.268,0.17,0.486s-0.057,0.382-0.17,0.489s-0.248,0.161-0.404,0.161c-0.164,0-0.301-0.054-0.41-0.161
		S222.529,119.691,222.529,119.473z M223.584,127.635h-0.973v-6.422h0.973V127.635z"/>
	<path d="M228.659,127.752c-0.949,0-1.698-0.289-2.247-0.867s-0.823-1.381-0.823-2.408c0-1.035,0.255-1.857,0.765-2.467
		s1.194-0.914,2.054-0.914c0.805,0,1.441,0.265,1.91,0.794s0.703,1.228,0.703,2.095v0.615h-4.424c0.02,0.754,0.21,1.326,0.571,1.717
		s0.87,0.586,1.526,0.586c0.691,0,1.375-0.145,2.051-0.434v0.867c-0.344,0.148-0.669,0.255-0.976,0.319
		S229.093,127.752,228.659,127.752z M228.396,121.91c-0.516,0-0.927,0.168-1.233,0.504s-0.487,0.801-0.542,1.395h3.357
		c0-0.613-0.137-1.083-0.41-1.409S228.904,121.91,228.396,121.91z"/>
	<path d="M235.908,121.096c0.285,0,0.541,0.023,0.768,0.07l-0.135,0.902c-0.266-0.059-0.5-0.088-0.703-0.088
		c-0.52,0-0.964,0.211-1.333,0.633s-0.554,0.947-0.554,1.576v3.445h-0.973v-6.422h0.803l0.111,1.189h0.047
		c0.238-0.418,0.525-0.74,0.861-0.967S235.506,121.096,235.908,121.096z"/>
	<path d="M242.32,125.883c0,0.598-0.223,1.059-0.668,1.383s-1.07,0.486-1.875,0.486c-0.852,0-1.516-0.135-1.992-0.404v-0.902
		c0.309,0.156,0.64,0.279,0.993,0.369s0.694,0.135,1.022,0.135c0.508,0,0.898-0.081,1.172-0.243s0.41-0.409,0.41-0.741
		c0-0.25-0.108-0.464-0.325-0.642s-0.64-0.388-1.269-0.63c-0.598-0.223-1.022-0.417-1.274-0.583s-0.439-0.354-0.562-0.565
		s-0.185-0.463-0.185-0.756c0-0.523,0.213-0.937,0.639-1.239s1.01-0.454,1.752-0.454c0.691,0,1.367,0.141,2.027,0.422l-0.346,0.791
		c-0.645-0.266-1.229-0.398-1.752-0.398c-0.461,0-0.809,0.072-1.043,0.217s-0.352,0.344-0.352,0.598
		c0,0.172,0.044,0.318,0.132,0.439s0.229,0.236,0.425,0.346s0.57,0.268,1.125,0.475c0.762,0.277,1.276,0.557,1.544,0.838
		S242.32,125.457,242.32,125.883z"/>
	<path d="M253.162,124.418c0,1.047-0.264,1.864-0.791,2.452s-1.256,0.882-2.186,0.882c-0.574,0-1.084-0.135-1.529-0.404
		s-0.789-0.656-1.031-1.16s-0.363-1.094-0.363-1.77c0-1.047,0.262-1.862,0.785-2.446s1.25-0.876,2.18-0.876
		c0.898,0,1.612,0.299,2.142,0.896S253.162,123.398,253.162,124.418z M248.27,124.418c0,0.82,0.164,1.445,0.492,1.875
		s0.811,0.645,1.447,0.645s1.12-0.214,1.45-0.642s0.495-1.054,0.495-1.878c0-0.816-0.165-1.437-0.495-1.86s-0.817-0.636-1.462-0.636
		c-0.637,0-1.117,0.209-1.441,0.627S248.27,123.59,248.27,124.418z"/>
	<path d="M256.081,121.213v4.166c0,0.523,0.119,0.914,0.357,1.172s0.611,0.387,1.119,0.387c0.672,0,1.163-0.184,1.474-0.551
		s0.466-0.967,0.466-1.799v-3.375h0.973v6.422h-0.803l-0.141-0.861h-0.053c-0.199,0.316-0.476,0.559-0.829,0.727
		s-0.757,0.252-1.21,0.252c-0.781,0-1.366-0.186-1.755-0.557s-0.583-0.965-0.583-1.781v-4.201H256.081z"/>
	<path d="M264.906,126.949c0.172,0,0.338-0.013,0.498-0.038s0.287-0.052,0.381-0.079v0.744c-0.105,0.051-0.261,0.093-0.466,0.126
		s-0.39,0.05-0.554,0.05c-1.242,0-1.863-0.654-1.863-1.963v-3.82h-0.92V121.5l0.92-0.404l0.41-1.371h0.562v1.488h1.863v0.756h-1.863
		v3.779c0,0.387,0.092,0.684,0.275,0.891S264.586,126.949,264.906,126.949z"/>
	<path d="M276.029,127.635l-1.178-3.768c-0.074-0.23-0.213-0.754-0.416-1.57h-0.047c-0.156,0.684-0.293,1.211-0.41,1.582
		l-1.213,3.756h-1.125l-1.752-6.422h1.02c0.414,1.613,0.729,2.842,0.946,3.686s0.341,1.412,0.372,1.705h0.047
		c0.043-0.223,0.112-0.511,0.208-0.864s0.179-0.634,0.249-0.841l1.178-3.686h1.055l1.148,3.686c0.219,0.672,0.367,1.236,0.445,1.693
		h0.047c0.016-0.141,0.058-0.357,0.126-0.65s0.476-1.869,1.222-4.729h1.008l-1.775,6.422H276.029z"/>
	<path d="M284.815,127.635v-4.154c0-0.523-0.119-0.914-0.357-1.172s-0.611-0.387-1.119-0.387c-0.676,0-1.169,0.184-1.479,0.551
		s-0.466,0.969-0.466,1.805v3.357h-0.973v-9.117h0.973v2.76c0,0.332-0.016,0.607-0.047,0.826h0.059
		c0.191-0.309,0.464-0.552,0.817-0.729s0.757-0.267,1.21-0.267c0.785,0,1.374,0.187,1.767,0.56s0.589,0.966,0.589,1.778v4.189
		H284.815z"/>
	<path d="M290.798,127.752c-0.949,0-1.698-0.289-2.247-0.867s-0.823-1.381-0.823-2.408c0-1.035,0.255-1.857,0.765-2.467
		s1.194-0.914,2.054-0.914c0.805,0,1.441,0.265,1.91,0.794s0.703,1.228,0.703,2.095v0.615h-4.424c0.02,0.754,0.21,1.326,0.571,1.717
		s0.87,0.586,1.526,0.586c0.691,0,1.375-0.145,2.051-0.434v0.867c-0.344,0.148-0.669,0.255-0.976,0.319
		S291.232,127.752,290.798,127.752z M290.534,121.91c-0.516,0-0.927,0.168-1.233,0.504s-0.487,0.801-0.542,1.395h3.357
		c0-0.613-0.137-1.083-0.41-1.409S291.042,121.91,290.534,121.91z"/>
	<path d="M299.512,127.635v-4.154c0-0.523-0.119-0.914-0.357-1.172s-0.611-0.387-1.119-0.387c-0.672,0-1.164,0.182-1.477,0.545
		s-0.469,0.963-0.469,1.799v3.369h-0.973v-6.422h0.791l0.158,0.879h0.047c0.199-0.316,0.479-0.562,0.838-0.735
		s0.76-0.261,1.201-0.261c0.773,0,1.355,0.187,1.746,0.56s0.586,0.97,0.586,1.79v4.189H299.512z"/>
	<path d="M31.791,140.418c0,1.047-0.264,1.864-0.791,2.452s-1.256,0.882-2.186,0.882c-0.574,0-1.084-0.135-1.529-0.404
		s-0.789-0.656-1.031-1.16s-0.363-1.094-0.363-1.77c0-1.047,0.262-1.862,0.785-2.446s1.25-0.876,2.18-0.876
		c0.898,0,1.612,0.299,2.142,0.896S31.791,139.398,31.791,140.418z M26.899,140.418c0,0.82,0.164,1.445,0.492,1.875
		s0.811,0.645,1.447,0.645s1.12-0.214,1.45-0.642s0.495-1.054,0.495-1.878c0-0.816-0.165-1.437-0.495-1.86s-0.817-0.636-1.462-0.636
		c-0.637,0-1.117,0.209-1.441,0.627S26.899,139.59,26.899,140.418z"/>
	<path d="M34.71,137.213v4.166c0,0.523,0.119,0.914,0.357,1.172s0.611,0.387,1.119,0.387c0.672,0,1.163-0.184,1.474-0.551
		s0.466-0.967,0.466-1.799v-3.375h0.973v6.422h-0.803l-0.141-0.861h-0.053c-0.199,0.316-0.476,0.559-0.829,0.727
		s-0.757,0.252-1.21,0.252c-0.781,0-1.366-0.186-1.755-0.557s-0.583-0.965-0.583-1.781v-4.201H34.71z"/>
	<path d="M43.535,142.949c0.172,0,0.338-0.013,0.498-0.038s0.287-0.052,0.381-0.079v0.744c-0.105,0.051-0.261,0.093-0.466,0.126
		s-0.39,0.05-0.554,0.05c-1.242,0-1.863-0.654-1.863-1.963v-3.82h-0.92V137.5l0.92-0.404l0.41-1.371h0.562v1.488h1.863v0.756h-1.863
		v3.779c0,0.387,0.092,0.684,0.275,0.891S43.215,142.949,43.535,142.949z"/>
	<path d="M54.958,140.418c0,1.047-0.264,1.864-0.791,2.452s-1.256,0.882-2.186,0.882c-0.574,0-1.084-0.135-1.529-0.404
		s-0.789-0.656-1.031-1.16s-0.363-1.094-0.363-1.77c0-1.047,0.262-1.862,0.785-2.446s1.25-0.876,2.18-0.876
		c0.898,0,1.612,0.299,2.142,0.896S54.958,139.398,54.958,140.418z M50.066,140.418c0,0.82,0.164,1.445,0.492,1.875
		s0.811,0.645,1.447,0.645s1.12-0.214,1.45-0.642s0.495-1.054,0.495-1.878c0-0.816-0.165-1.437-0.495-1.86s-0.817-0.636-1.462-0.636
		c-0.637,0-1.117,0.209-1.441,0.627S50.066,139.59,50.066,140.418z"/>
	<path d="M59.858,137.969h-1.635v5.666H57.25v-5.666h-1.148v-0.439l1.148-0.352v-0.357c0-1.578,0.689-2.367,2.068-2.367
		c0.34,0,0.738,0.068,1.195,0.205l-0.252,0.779c-0.375-0.121-0.695-0.182-0.961-0.182c-0.367,0-0.639,0.122-0.814,0.366
		s-0.264,0.636-0.264,1.175v0.416h1.635V137.969z"/>
	<path d="M68.889,141.883c0,0.598-0.223,1.059-0.668,1.383s-1.07,0.486-1.875,0.486c-0.852,0-1.516-0.135-1.992-0.404v-0.902
		c0.309,0.156,0.64,0.279,0.993,0.369s0.694,0.135,1.022,0.135c0.508,0,0.898-0.081,1.172-0.243s0.41-0.409,0.41-0.741
		c0-0.25-0.108-0.464-0.325-0.642s-0.64-0.388-1.269-0.63c-0.598-0.223-1.022-0.417-1.274-0.583s-0.439-0.354-0.562-0.565
		s-0.185-0.463-0.185-0.756c0-0.523,0.213-0.937,0.639-1.239s1.01-0.454,1.752-0.454c0.691,0,1.367,0.141,2.027,0.422l-0.346,0.791
		c-0.645-0.266-1.229-0.398-1.752-0.398c-0.461,0-0.809,0.072-1.043,0.217s-0.352,0.344-0.352,0.598
		c0,0.172,0.044,0.318,0.132,0.439s0.229,0.236,0.425,0.346s0.57,0.268,1.125,0.475c0.762,0.277,1.276,0.557,1.544,0.838
		S68.889,141.457,68.889,141.883z"/>
	<path d="M73.485,143.752c-0.949,0-1.698-0.289-2.247-0.867s-0.823-1.381-0.823-2.408c0-1.035,0.255-1.857,0.765-2.467
		s1.194-0.914,2.054-0.914c0.805,0,1.441,0.265,1.91,0.794s0.703,1.228,0.703,2.095v0.615h-4.424c0.02,0.754,0.21,1.326,0.571,1.717
		s0.87,0.586,1.526,0.586c0.691,0,1.375-0.145,2.051-0.434v0.867c-0.344,0.148-0.669,0.255-0.976,0.319
		S73.918,143.752,73.485,143.752z M73.221,137.91c-0.516,0-0.927,0.168-1.233,0.504s-0.487,0.801-0.542,1.395h3.357
		c0-0.613-0.137-1.083-0.41-1.409S73.729,137.91,73.221,137.91z"/>
	<path d="M81.753,143.635l-0.193-0.914h-0.047c-0.32,0.402-0.64,0.675-0.958,0.817s-0.716,0.214-1.192,0.214
		c-0.637,0-1.136-0.164-1.497-0.492s-0.542-0.795-0.542-1.4c0-1.297,1.037-1.977,3.111-2.039l1.09-0.035v-0.398
		c0-0.504-0.108-0.876-0.325-1.116s-0.563-0.36-1.04-0.36c-0.535,0-1.141,0.164-1.816,0.492l-0.299-0.744
		c0.316-0.172,0.663-0.307,1.04-0.404s0.755-0.146,1.134-0.146c0.766,0,1.333,0.17,1.702,0.51s0.554,0.885,0.554,1.635v4.383H81.753
		z M79.556,142.949c0.605,0,1.081-0.166,1.427-0.498s0.519-0.797,0.519-1.395v-0.58l-0.973,0.041
		c-0.773,0.027-1.331,0.147-1.673,0.36s-0.513,0.544-0.513,0.993c0,0.352,0.106,0.619,0.319,0.803S79.173,142.949,79.556,142.949z"
		/>
	<path d="M88.92,141.883c0,0.598-0.223,1.059-0.668,1.383s-1.07,0.486-1.875,0.486c-0.852,0-1.516-0.135-1.992-0.404v-0.902
		c0.309,0.156,0.64,0.279,0.993,0.369s0.694,0.135,1.022,0.135c0.508,0,0.898-0.081,1.172-0.243s0.41-0.409,0.41-0.741
		c0-0.25-0.108-0.464-0.325-0.642s-0.64-0.388-1.269-0.63c-0.598-0.223-1.022-0.417-1.274-0.583s-0.439-0.354-0.562-0.565
		s-0.185-0.463-0.185-0.756c0-0.523,0.213-0.937,0.639-1.239s1.01-0.454,1.752-0.454c0.691,0,1.367,0.141,2.027,0.422l-0.346,0.791
		c-0.645-0.266-1.229-0.398-1.752-0.398c-0.461,0-0.809,0.072-1.043,0.217s-0.352,0.344-0.352,0.598
		c0,0.172,0.044,0.318,0.132,0.439s0.229,0.236,0.425,0.346s0.57,0.268,1.125,0.475c0.762,0.277,1.276,0.557,1.544,0.838
		S88.92,141.457,88.92,141.883z"/>
	<path d="M96.345,140.418c0,1.047-0.264,1.864-0.791,2.452s-1.256,0.882-2.186,0.882c-0.574,0-1.084-0.135-1.529-0.404
		s-0.789-0.656-1.031-1.16s-0.363-1.094-0.363-1.77c0-1.047,0.262-1.862,0.785-2.446s1.25-0.876,2.18-0.876
		c0.898,0,1.612,0.299,2.142,0.896S96.345,139.398,96.345,140.418z M91.452,140.418c0,0.82,0.164,1.445,0.492,1.875
		s0.811,0.645,1.447,0.645s1.12-0.214,1.45-0.642s0.495-1.054,0.495-1.878c0-0.816-0.165-1.437-0.495-1.86s-0.817-0.636-1.462-0.636
		c-0.637,0-1.117,0.209-1.441,0.627S91.452,139.59,91.452,140.418z"/>
	<path d="M102.744,143.635v-4.154c0-0.523-0.119-0.914-0.357-1.172s-0.611-0.387-1.119-0.387c-0.672,0-1.164,0.182-1.477,0.545
		s-0.469,0.963-0.469,1.799v3.369H98.35v-6.422h0.791l0.158,0.879h0.047c0.199-0.316,0.479-0.562,0.838-0.735
		s0.76-0.261,1.201-0.261c0.773,0,1.355,0.187,1.746,0.56s0.586,0.97,0.586,1.79v4.189H102.744z"/>
	<path d="M105.875,143.014c0-0.262,0.06-0.46,0.179-0.595s0.29-0.202,0.513-0.202c0.227,0,0.403,0.067,0.53,0.202
		s0.19,0.333,0.19,0.595c0,0.254-0.064,0.449-0.193,0.586s-0.305,0.205-0.527,0.205c-0.199,0-0.364-0.062-0.495-0.185
		S105.875,143.295,105.875,143.014z"/>
</g>
<g>
	<g>
		<path d="M444.469,191.176H0V15h444.469V191.176z M2,189.176h440.469V17H2V189.176z"/>
	</g>
</g>
<g>
	<g>
		<rect x="26" width="45" height="32"/>
	</g>
</g>
<g>
	<g>
		<path class="st0" d="M46.257,10.47c1.212,0,2.137,0.647,2.775,1.941c0.337,1.034,0.506,1.989,0.506,2.864v0.595
			c0,1.08-0.223,2.172-0.67,3.274c-0.674,1.039-1.527,1.559-2.557,1.559H46.23c-1.121,0-2-0.59-2.639-1.771
			c-0.392-1.003-0.588-2.11-0.588-3.322v-0.075c0-1.285,0.232-2.454,0.697-3.507C44.389,10.989,45.241,10.47,46.257,10.47z
			 M44.343,15.46v0.28c0,1.153,0.205,2.114,0.615,2.885c0.369,0.456,0.786,0.684,1.251,0.684h0.075c1.043,0,1.657-0.836,1.839-2.509
			c0.05-0.278,0.084-0.69,0.103-1.237c0-0.976-0.167-1.902-0.499-2.782c-0.383-0.61-0.864-0.916-1.442-0.916
			c-0.707,0-1.228,0.395-1.565,1.183C44.469,13.881,44.343,14.686,44.343,15.46z"/>
	</g>
	<g>
		<path class="st0" d="M52.377,10.47h0.13c0.433,0.096,0.649,0.312,0.649,0.649v8.907c-0.082,0.451-0.314,0.677-0.697,0.677h-0.048
			c-0.451-0.096-0.677-0.31-0.677-0.643v-7.902c-0.305,0.101-0.54,0.15-0.704,0.15c-0.324,0-0.538-0.217-0.643-0.649v-0.157
			c0-0.364,0.399-0.629,1.196-0.793L52.377,10.47z"/>
	</g>
</g>
</svg>