<!-- Generator: Adobe Illustrator 21.0.0, SVG Export Plug-In  -->
<svg version="1.1"
	 xmlns="http://www.w3.org/2000/svg" xmlns:xlink="http://www.w3.org/1999/xlink" xmlns:a="http://ns.adobe.com/AdobeSVGViewerExtensions/3.0/"
	 x="0px" y="0px" width="362.859px" height="12.064px" viewBox="0 0 362.859 12.064"
	 style="enable-background:new 0 0 362.859 12.064;" xml:space="preserve">
<defs>
</defs>
<g>
	<path d="M4.113,1.383c-0.941,0-1.685,0.313-2.229,0.94S1.066,3.809,1.066,4.898c0,1.121,0.263,1.987,0.788,2.599
		s1.274,0.917,2.247,0.917c0.598,0,1.279-0.107,2.045-0.322v0.873C5.553,9.188,4.82,9.299,3.949,9.299
		c-1.262,0-2.235-0.383-2.921-1.148S0,6.297,0,4.887c0-0.883,0.165-1.656,0.495-2.32s0.807-1.176,1.43-1.535s1.356-0.539,2.2-0.539
		c0.898,0,1.684,0.164,2.355,0.492L6.059,1.84C5.41,1.535,4.762,1.383,4.113,1.383z"/>
	<path d="M13.019,9.182l-0.193-0.914h-0.047c-0.32,0.402-0.64,0.675-0.958,0.817s-0.716,0.214-1.192,0.214
		c-0.637,0-1.136-0.164-1.497-0.492s-0.542-0.795-0.542-1.4c0-1.297,1.037-1.977,3.111-2.039l1.09-0.035V4.934
		c0-0.504-0.108-0.876-0.325-1.116s-0.563-0.36-1.04-0.36c-0.535,0-1.141,0.164-1.816,0.492L9.31,3.205
		c0.316-0.172,0.663-0.307,1.04-0.404s0.755-0.146,1.134-0.146c0.766,0,1.333,0.17,1.702,0.51s0.554,0.885,0.554,1.635v4.383H13.019
		z M10.821,8.496c0.605,0,1.081-0.166,1.427-0.498s0.519-0.797,0.519-1.395v-0.58l-0.973,0.041c-0.773,0.027-1.331,0.147-1.673,0.36
		S9.608,6.969,9.608,7.418c0,0.352,0.106,0.619,0.319,0.803S10.438,8.496,10.821,8.496z"/>
	<path d="M17.916,9.182h-0.973V0.064h0.973V9.182z"/>
	<path d="M22.15,9.182h-0.973V0.064h0.973V9.182z"/>
	<path d="M33.68,9.182l-0.193-0.914h-0.047c-0.32,0.402-0.64,0.675-0.958,0.817s-0.716,0.214-1.192,0.214
		c-0.637,0-1.136-0.164-1.497-0.492s-0.542-0.795-0.542-1.4c0-1.297,1.037-1.977,3.111-2.039l1.09-0.035V4.934
		c0-0.504-0.108-0.876-0.325-1.116s-0.563-0.36-1.04-0.36c-0.535,0-1.141,0.164-1.816,0.492l-0.299-0.744
		c0.316-0.172,0.663-0.307,1.04-0.404s0.755-0.146,1.134-0.146c0.766,0,1.333,0.17,1.702,0.51S34.4,4.049,34.4,4.799v4.383H33.68z
		 M31.482,8.496c0.605,0,1.081-0.166,1.427-0.498s0.519-0.797,0.519-1.395v-0.58l-0.973,0.041c-0.773,0.027-1.331,0.147-1.673,0.36
		S30.27,6.969,30.27,7.418c0,0.352,0.106,0.619,0.319,0.803S31.1,8.496,31.482,8.496z"/>
	<path d="M41.999,9.182V5.027c0-0.523-0.119-0.914-0.357-1.172s-0.611-0.387-1.119-0.387c-0.672,0-1.164,0.182-1.477,0.545
		s-0.469,0.963-0.469,1.799v3.369h-0.973V2.76h0.791l0.158,0.879h0.047c0.199-0.316,0.479-0.562,0.838-0.735s0.76-0.261,1.201-0.261
		c0.773,0,1.355,0.187,1.746,0.56s0.586,0.97,0.586,1.79v4.189H41.999z"/>
	<path d="M45.15,2.76h1.043L47.6,6.422c0.309,0.836,0.5,1.439,0.574,1.811h0.047c0.051-0.199,0.157-0.54,0.319-1.022
		s0.692-1.966,1.591-4.45h1.043l-2.76,7.312c-0.273,0.723-0.593,1.235-0.958,1.538s-0.813,0.454-1.345,0.454
		c-0.297,0-0.59-0.033-0.879-0.1v-0.779c0.215,0.047,0.455,0.07,0.721,0.07c0.668,0,1.145-0.375,1.43-1.125l0.357-0.914L45.15,2.76z
		"/>
	<path d="M63.276,5.965c0,1.047-0.264,1.864-0.791,2.452S61.229,9.299,60.3,9.299c-0.574,0-1.084-0.135-1.529-0.404
		s-0.789-0.656-1.031-1.16s-0.363-1.094-0.363-1.77c0-1.047,0.262-1.862,0.785-2.446s1.25-0.876,2.18-0.876
		c0.898,0,1.612,0.299,2.142,0.896S63.276,4.945,63.276,5.965z M58.384,5.965c0,0.82,0.164,1.445,0.492,1.875
		s0.811,0.645,1.447,0.645s1.12-0.214,1.45-0.642s0.495-1.054,0.495-1.878c0-0.816-0.165-1.437-0.495-1.86s-0.817-0.636-1.462-0.636
		c-0.637,0-1.117,0.209-1.441,0.627S58.384,5.137,58.384,5.965z"/>
	<path d="M69.076,3.516h-1.635v5.666h-0.973V3.516H65.32V3.076l1.148-0.352V2.367C66.469,0.789,67.158,0,68.537,0
		c0.34,0,0.738,0.068,1.195,0.205L69.48,0.984c-0.375-0.121-0.695-0.182-0.961-0.182c-0.367,0-0.639,0.122-0.814,0.366
		s-0.264,0.636-0.264,1.175V2.76h1.635V3.516z"/>
	<path d="M81.309,5.965c0,1.047-0.264,1.864-0.791,2.452s-1.256,0.882-2.186,0.882c-0.574,0-1.084-0.135-1.529-0.404
		s-0.789-0.656-1.031-1.16s-0.363-1.094-0.363-1.77c0-1.047,0.262-1.862,0.785-2.446s1.25-0.876,2.18-0.876
		c0.898,0,1.612,0.299,2.142,0.896S81.309,4.945,81.309,5.965z M76.416,5.965c0,0.82,0.164,1.445,0.492,1.875
		s0.811,0.645,1.447,0.645s1.12-0.214,1.45-0.642s0.495-1.054,0.495-1.878c0-0.816-0.165-1.437-0.495-1.86s-0.817-0.636-1.462-0.636
		c-0.637,0-1.117,0.209-1.441,0.627S76.416,5.137,76.416,5.965z"/>
	<path d="M85.127,2.76v4.166c0,0.523,0.119,0.914,0.357,1.172s0.611,0.387,1.119,0.387c0.672,0,1.163-0.184,1.474-0.551
		s0.466-0.967,0.466-1.799V2.76h0.973v6.422h-0.803L88.572,8.32H88.52c-0.199,0.316-0.476,0.559-0.829,0.727
		s-0.757,0.252-1.21,0.252c-0.781,0-1.366-0.186-1.755-0.557s-0.583-0.965-0.583-1.781V2.76H85.127z"/>
	<path d="M95.708,2.643c0.285,0,0.541,0.023,0.768,0.07l-0.135,0.902c-0.266-0.059-0.5-0.088-0.703-0.088
		c-0.52,0-0.964,0.211-1.333,0.633s-0.554,0.947-0.554,1.576v3.445h-0.973V2.76h0.803l0.111,1.189h0.047
		c0.238-0.418,0.525-0.74,0.861-0.967S95.306,2.643,95.708,2.643z"/>
	<path d="M104.167,9.182h-0.973V0.064h0.973V9.182z"/>
	<path d="M112.973,5.965c0,1.047-0.264,1.864-0.791,2.452s-1.256,0.882-2.186,0.882c-0.574,0-1.084-0.135-1.529-0.404
		s-0.789-0.656-1.031-1.16s-0.363-1.094-0.363-1.77c0-1.047,0.262-1.862,0.785-2.446s1.25-0.876,2.18-0.876
		c0.898,0,1.612,0.299,2.142,0.896S112.973,4.945,112.973,5.965z M108.08,5.965c0,0.82,0.164,1.445,0.492,1.875
		s0.811,0.645,1.447,0.645s1.12-0.214,1.45-0.642s0.495-1.054,0.495-1.878c0-0.816-0.165-1.437-0.495-1.86s-0.817-0.636-1.462-0.636
		c-0.637,0-1.117,0.209-1.441,0.627S108.08,5.137,108.08,5.965z"/>
	<path d="M118.443,9.299c-0.93,0-1.649-0.286-2.159-0.858s-0.765-1.382-0.765-2.429c0-1.074,0.259-1.904,0.776-2.49
		s1.255-0.879,2.212-0.879c0.309,0,0.617,0.033,0.926,0.1s0.551,0.145,0.727,0.234l-0.299,0.826
		c-0.215-0.086-0.449-0.157-0.703-0.214s-0.479-0.085-0.674-0.085c-1.305,0-1.957,0.832-1.957,2.496
		c0,0.789,0.159,1.395,0.478,1.816s0.79,0.633,1.415,0.633c0.535,0,1.084-0.115,1.646-0.346v0.861
		C119.637,9.188,119.096,9.299,118.443,9.299z"/>
	<path d="M126.739,9.182l-0.193-0.914h-0.047c-0.32,0.402-0.64,0.675-0.958,0.817s-0.716,0.214-1.192,0.214
		c-0.637,0-1.136-0.164-1.497-0.492s-0.542-0.795-0.542-1.4c0-1.297,1.037-1.977,3.111-2.039l1.09-0.035V4.934
		c0-0.504-0.108-0.876-0.325-1.116s-0.563-0.36-1.04-0.36c-0.535,0-1.141,0.164-1.816,0.492l-0.299-0.744
		c0.316-0.172,0.663-0.307,1.04-0.404s0.755-0.146,1.134-0.146c0.766,0,1.333,0.17,1.702,0.51s0.554,0.885,0.554,1.635v4.383
		H126.739z M124.542,8.496c0.605,0,1.081-0.166,1.427-0.498s0.519-0.797,0.519-1.395v-0.58l-0.973,0.041
		c-0.773,0.027-1.331,0.147-1.673,0.36s-0.513,0.544-0.513,0.993c0,0.352,0.106,0.619,0.319,0.803S124.159,8.496,124.542,8.496z"/>
	<path d="M132.738,8.496c0.172,0,0.338-0.013,0.498-0.038s0.287-0.052,0.381-0.079v0.744c-0.105,0.051-0.261,0.093-0.466,0.126
		s-0.39,0.05-0.554,0.05c-1.242,0-1.863-0.654-1.863-1.963v-3.82h-0.92V3.047l0.92-0.404l0.41-1.371h0.562V2.76h1.863v0.756h-1.863
		v3.779c0,0.387,0.092,0.684,0.275,0.891S132.418,8.496,132.738,8.496z"/>
	<path d="M136.019,1.02c0-0.223,0.055-0.386,0.164-0.489s0.246-0.155,0.41-0.155c0.156,0,0.291,0.053,0.404,0.158
		s0.17,0.268,0.17,0.486s-0.057,0.382-0.17,0.489s-0.248,0.161-0.404,0.161c-0.164,0-0.301-0.054-0.41-0.161
		S136.019,1.238,136.019,1.02z M137.073,9.182h-0.973V2.76h0.973V9.182z"/>
	<path d="M145.879,5.965c0,1.047-0.264,1.864-0.791,2.452s-1.256,0.882-2.186,0.882c-0.574,0-1.084-0.135-1.529-0.404
		s-0.789-0.656-1.031-1.16s-0.363-1.094-0.363-1.77c0-1.047,0.262-1.862,0.785-2.446s1.25-0.876,2.18-0.876
		c0.898,0,1.612,0.299,2.142,0.896S145.879,4.945,145.879,5.965z M140.986,5.965c0,0.82,0.164,1.445,0.492,1.875
		s0.811,0.645,1.447,0.645s1.12-0.214,1.45-0.642s0.495-1.054,0.495-1.878c0-0.816-0.165-1.437-0.495-1.86s-0.817-0.636-1.462-0.636
		c-0.637,0-1.117,0.209-1.441,0.627S140.986,5.137,140.986,5.965z"/>
	<path d="M153.178,9.182V5.027c0-0.523-0.119-0.914-0.357-1.172s-0.611-0.387-1.119-0.387c-0.672,0-1.164,0.182-1.477,0.545
		s-0.469,0.963-0.469,1.799v3.369h-0.973V2.76h0.791l0.158,0.879h0.047c0.199-0.316,0.479-0.562,0.838-0.735s0.76-0.261,1.201-0.261
		c0.773,0,1.355,0.187,1.746,0.56s0.586,0.97,0.586,1.79v4.189H153.178z"/>
	<path d="M161.491,7.43c0,0.598-0.223,1.059-0.668,1.383s-1.07,0.486-1.875,0.486c-0.852,0-1.516-0.135-1.992-0.404V7.992
		c0.309,0.156,0.64,0.279,0.993,0.369s0.694,0.135,1.022,0.135c0.508,0,0.898-0.081,1.172-0.243s0.41-0.409,0.41-0.741
		c0-0.25-0.108-0.464-0.325-0.642s-0.64-0.388-1.269-0.63c-0.598-0.223-1.022-0.417-1.274-0.583s-0.439-0.354-0.562-0.565
		s-0.185-0.463-0.185-0.756c0-0.523,0.213-0.937,0.639-1.239s1.01-0.454,1.752-0.454c0.691,0,1.367,0.141,2.027,0.422l-0.346,0.791
		c-0.645-0.266-1.229-0.398-1.752-0.398c-0.461,0-0.809,0.072-1.043,0.217s-0.352,0.344-0.352,0.598
		c0,0.172,0.044,0.318,0.132,0.439s0.229,0.236,0.425,0.346s0.57,0.268,1.125,0.475c0.762,0.277,1.276,0.557,1.544,0.838
		S161.491,7.004,161.491,7.43z"/>
	<path d="M170.665,8.496c0.172,0,0.338-0.013,0.498-0.038s0.287-0.052,0.381-0.079v0.744c-0.105,0.051-0.261,0.093-0.466,0.126
		s-0.39,0.05-0.554,0.05c-1.242,0-1.863-0.654-1.863-1.963v-3.82h-0.92V3.047l0.92-0.404l0.41-1.371h0.562V2.76h1.863v0.756h-1.863
		v3.779c0,0.387,0.092,0.684,0.275,0.891S170.345,8.496,170.665,8.496z"/>
	<path d="M179.57,5.965c0,1.047-0.264,1.864-0.791,2.452s-1.256,0.882-2.186,0.882c-0.574,0-1.084-0.135-1.529-0.404
		s-0.789-0.656-1.031-1.16s-0.363-1.094-0.363-1.77c0-1.047,0.262-1.862,0.785-2.446s1.25-0.876,2.18-0.876
		c0.898,0,1.612,0.299,2.142,0.896S179.57,4.945,179.57,5.965z M174.678,5.965c0,0.82,0.164,1.445,0.492,1.875
		s0.811,0.645,1.447,0.645s1.12-0.214,1.45-0.642s0.495-1.054,0.495-1.878c0-0.816-0.165-1.437-0.495-1.86s-0.817-0.636-1.462-0.636
		c-0.637,0-1.117,0.209-1.441,0.627S174.678,5.137,174.678,5.965z"/>
	<path d="M189.78,9.299c-0.418,0-0.8-0.077-1.146-0.231s-0.636-0.392-0.87-0.712h-0.07c0.047,0.375,0.07,0.73,0.07,1.066v2.643
		h-0.973V2.76h0.791l0.135,0.879h0.047c0.25-0.352,0.541-0.605,0.873-0.762s0.713-0.234,1.143-0.234
		c0.852,0,1.509,0.291,1.972,0.873s0.694,1.398,0.694,2.449c0,1.055-0.235,1.874-0.706,2.458S190.616,9.299,189.78,9.299z
		 M189.64,3.469c-0.656,0-1.131,0.182-1.424,0.545s-0.443,0.941-0.451,1.734v0.217c0,0.902,0.15,1.548,0.451,1.937
		s0.783,0.583,1.447,0.583c0.555,0,0.989-0.225,1.304-0.674s0.472-1.068,0.472-1.857c0-0.801-0.157-1.415-0.472-1.843
		S190.21,3.469,189.64,3.469z"/>
	<path d="M196.318,9.182h-0.973V0.064h0.973V9.182z"/>
	<path d="M203.53,9.182l-0.193-0.914h-0.047c-0.32,0.402-0.64,0.675-0.958,0.817s-0.716,0.214-1.192,0.214
		c-0.637,0-1.136-0.164-1.497-0.492s-0.542-0.795-0.542-1.4c0-1.297,1.037-1.977,3.111-2.039l1.09-0.035V4.934
		c0-0.504-0.108-0.876-0.325-1.116s-0.563-0.36-1.04-0.36c-0.535,0-1.141,0.164-1.816,0.492l-0.299-0.744
		c0.316-0.172,0.663-0.307,1.04-0.404s0.755-0.146,1.134-0.146c0.766,0,1.333,0.17,1.702,0.51s0.554,0.885,0.554,1.635v4.383H203.53
		z M201.333,8.496c0.605,0,1.081-0.166,1.427-0.498s0.519-0.797,0.519-1.395v-0.58l-0.973,0.041
		c-0.773,0.027-1.331,0.147-1.673,0.36s-0.513,0.544-0.513,0.993c0,0.352,0.106,0.619,0.319,0.803S200.95,8.496,201.333,8.496z"/>
	<path d="M210.021,9.299c-0.93,0-1.649-0.286-2.159-0.858s-0.765-1.382-0.765-2.429c0-1.074,0.259-1.904,0.776-2.49
		s1.255-0.879,2.212-0.879c0.309,0,0.617,0.033,0.926,0.1s0.551,0.145,0.727,0.234l-0.299,0.826
		c-0.215-0.086-0.449-0.157-0.703-0.214s-0.479-0.085-0.674-0.085c-1.305,0-1.957,0.832-1.957,2.496
		c0,0.789,0.159,1.395,0.478,1.816s0.79,0.633,1.415,0.633c0.535,0,1.084-0.115,1.646-0.346v0.861
		C211.215,9.188,210.674,9.299,210.021,9.299z"/>
	<path d="M217.08,9.299c-0.949,0-1.698-0.289-2.247-0.867s-0.823-1.381-0.823-2.408c0-1.035,0.255-1.857,0.765-2.467
		s1.194-0.914,2.054-0.914c0.805,0,1.441,0.265,1.91,0.794s0.703,1.228,0.703,2.095v0.615h-4.424c0.02,0.754,0.21,1.326,0.571,1.717
		s0.87,0.586,1.526,0.586c0.691,0,1.375-0.145,2.051-0.434v0.867c-0.344,0.148-0.669,0.255-0.976,0.319S217.514,9.299,217.08,9.299z
		 M216.816,3.457c-0.516,0-0.927,0.168-1.233,0.504s-0.487,0.801-0.542,1.395h3.357c0-0.613-0.137-1.083-0.41-1.409
		S217.324,3.457,216.816,3.457z"/>
	<path d="M230.566,9.182l-0.193-0.914h-0.047c-0.32,0.402-0.64,0.675-0.958,0.817s-0.716,0.214-1.192,0.214
		c-0.637,0-1.136-0.164-1.497-0.492s-0.542-0.795-0.542-1.4c0-1.297,1.037-1.977,3.111-2.039l1.09-0.035V4.934
		c0-0.504-0.108-0.876-0.325-1.116s-0.563-0.36-1.04-0.36c-0.535,0-1.141,0.164-1.816,0.492l-0.299-0.744
		c0.316-0.172,0.663-0.307,1.04-0.404s0.755-0.146,1.134-0.146c0.766,0,1.333,0.17,1.702,0.51s0.554,0.885,0.554,1.635v4.383
		H230.566z M228.369,8.496c0.605,0,1.081-0.166,1.427-0.498s0.519-0.797,0.519-1.395v-0.58l-0.973,0.041
		c-0.773,0.027-1.331,0.147-1.673,0.36s-0.513,0.544-0.513,0.993c0,0.352,0.106,0.619,0.319,0.803S227.986,8.496,228.369,8.496z"/>
	<path d="M238.886,9.182V5.027c0-0.523-0.119-0.914-0.357-1.172s-0.611-0.387-1.119-0.387c-0.672,0-1.164,0.182-1.477,0.545
		s-0.469,0.963-0.469,1.799v3.369h-0.973V2.76h0.791l0.158,0.879h0.047c0.199-0.316,0.479-0.562,0.838-0.735s0.76-0.261,1.201-0.261
		c0.773,0,1.355,0.187,1.746,0.56s0.586,0.97,0.586,1.79v4.189H238.886z"/>
	<path d="M252.916,5.965c0,1.047-0.264,1.864-0.791,2.452s-1.256,0.882-2.186,0.882c-0.574,0-1.084-0.135-1.529-0.404
		s-0.789-0.656-1.031-1.16s-0.363-1.094-0.363-1.77c0-1.047,0.262-1.862,0.785-2.446s1.25-0.876,2.18-0.876
		c0.898,0,1.612,0.299,2.142,0.896S252.916,4.945,252.916,5.965z M248.023,5.965c0,0.82,0.164,1.445,0.492,1.875
		s0.811,0.645,1.447,0.645s1.12-0.214,1.45-0.642s0.495-1.054,0.495-1.878c0-0.816-0.165-1.437-0.495-1.86s-0.817-0.636-1.462-0.636
		c-0.637,0-1.117,0.209-1.441,0.627S248.023,5.137,248.023,5.965z"/>
	<path d="M258.751,2.643c0.285,0,0.541,0.023,0.768,0.07l-0.135,0.902c-0.266-0.059-0.5-0.088-0.703-0.088
		c-0.52,0-0.964,0.211-1.333,0.633s-0.554,0.947-0.554,1.576v3.445h-0.973V2.76h0.803l0.111,1.189h0.047
		c0.238-0.418,0.525-0.74,0.861-0.967S258.349,2.643,258.751,2.643z"/>
	<path d="M266.291,8.32h-0.053c-0.449,0.652-1.121,0.979-2.016,0.979c-0.84,0-1.493-0.287-1.96-0.861s-0.7-1.391-0.7-2.449
		s0.234-1.881,0.703-2.467s1.121-0.879,1.957-0.879c0.871,0,1.539,0.316,2.004,0.949h0.076l-0.041-0.463l-0.023-0.451V0.064h0.973
		v9.117h-0.791L266.291,8.32z M264.346,8.484c0.664,0,1.146-0.181,1.444-0.542s0.448-0.944,0.448-1.749V5.988
		c0-0.91-0.151-1.56-0.454-1.948s-0.786-0.583-1.45-0.583c-0.57,0-1.007,0.222-1.31,0.665S262.57,5.191,262.57,6
		c0,0.82,0.15,1.439,0.451,1.857S263.764,8.484,264.346,8.484z"/>
	<path d="M273.187,9.299c-0.949,0-1.698-0.289-2.247-0.867s-0.823-1.381-0.823-2.408c0-1.035,0.255-1.857,0.765-2.467
		s1.194-0.914,2.054-0.914c0.805,0,1.441,0.265,1.91,0.794s0.703,1.228,0.703,2.095v0.615h-4.424c0.02,0.754,0.21,1.326,0.571,1.717
		s0.87,0.586,1.526,0.586c0.691,0,1.375-0.145,2.051-0.434v0.867c-0.344,0.148-0.669,0.255-0.976,0.319S273.62,9.299,273.187,9.299z
		 M272.923,3.457c-0.516,0-0.927,0.168-1.233,0.504s-0.487,0.801-0.542,1.395h3.357c0-0.613-0.137-1.083-0.41-1.409
		S273.431,3.457,272.923,3.457z"/>
	<path d="M281.336,2.643c0.285,0,0.541,0.023,0.768,0.07l-0.135,0.902c-0.266-0.059-0.5-0.088-0.703-0.088
		c-0.52,0-0.964,0.211-1.333,0.633s-0.554,0.947-0.554,1.576v3.445h-0.973V2.76h0.803l0.111,1.189h0.047
		c0.238-0.418,0.525-0.74,0.861-0.967S280.934,2.643,281.336,2.643z"/>
	<path d="M291.716,3.516h-1.635v5.666h-0.973V3.516h-1.148V3.076l1.148-0.352V2.367c0-1.578,0.689-2.367,2.068-2.367
		c0.34,0,0.738,0.068,1.195,0.205l-0.252,0.779c-0.375-0.121-0.695-0.182-0.961-0.182c-0.367,0-0.639,0.122-0.814,0.366
		s-0.264,0.636-0.264,1.175V2.76h1.635V3.516z"/>
	<path d="M299.631,5.965c0,1.047-0.264,1.864-0.791,2.452s-1.256,0.882-2.186,0.882c-0.574,0-1.084-0.135-1.529-0.404
		s-0.789-0.656-1.031-1.16s-0.363-1.094-0.363-1.77c0-1.047,0.262-1.862,0.785-2.446s1.25-0.876,2.18-0.876
		c0.898,0,1.612,0.299,2.142,0.896S299.631,4.945,299.631,5.965z M294.738,5.965c0,0.82,0.164,1.445,0.492,1.875
		s0.811,0.645,1.447,0.645s1.12-0.214,1.45-0.642s0.495-1.054,0.495-1.878c0-0.816-0.165-1.437-0.495-1.86s-0.817-0.636-1.462-0.636
		c-0.637,0-1.117,0.209-1.441,0.627S294.738,5.137,294.738,5.965z"/>
	<path d="M305.466,2.643c0.285,0,0.541,0.023,0.768,0.07l-0.135,0.902c-0.266-0.059-0.5-0.088-0.703-0.088
		c-0.52,0-0.964,0.211-1.333,0.633s-0.554,0.947-0.554,1.576v3.445h-0.973V2.76h0.803l0.111,1.189h0.047
		c0.238-0.418,0.525-0.74,0.861-0.967S305.063,2.643,305.466,2.643z"/>
	<path d="M315.939,9.299c-0.418,0-0.8-0.077-1.146-0.231s-0.636-0.392-0.87-0.712h-0.07c0.047,0.375,0.07,0.73,0.07,1.066v2.643
		h-0.973V2.76h0.791l0.135,0.879h0.047c0.25-0.352,0.541-0.605,0.873-0.762s0.713-0.234,1.143-0.234
		c0.852,0,1.509,0.291,1.972,0.873s0.694,1.398,0.694,2.449c0,1.055-0.235,1.874-0.706,2.458S316.775,9.299,315.939,9.299z
		 M315.799,3.469c-0.656,0-1.131,0.182-1.424,0.545s-0.443,0.941-0.451,1.734v0.217c0,0.902,0.15,1.548,0.451,1.937
		s0.783,0.583,1.447,0.583c0.555,0,0.989-0.225,1.304-0.674s0.472-1.068,0.472-1.857c0-0.801-0.157-1.415-0.472-1.843
		S316.369,3.469,315.799,3.469z"/>
	<path d="M321.423,1.02c0-0.223,0.055-0.386,0.164-0.489s0.246-0.155,0.41-0.155c0.156,0,0.291,0.053,0.404,0.158
		s0.17,0.268,0.17,0.486s-0.057,0.382-0.17,0.489s-0.248,0.161-0.404,0.161c-0.164,0-0.301-0.054-0.41-0.161
		S321.423,1.238,321.423,1.02z M322.478,9.182h-0.973V2.76h0.973V9.182z"/>
	<path d="M328.307,9.299c-0.93,0-1.649-0.286-2.159-0.858s-0.765-1.382-0.765-2.429c0-1.074,0.259-1.904,0.776-2.49
		s1.255-0.879,2.212-0.879c0.309,0,0.617,0.033,0.926,0.1s0.551,0.145,0.727,0.234l-0.299,0.826
		c-0.215-0.086-0.449-0.157-0.703-0.214s-0.479-0.085-0.674-0.085c-1.305,0-1.957,0.832-1.957,2.496
		c0,0.789,0.159,1.395,0.478,1.816s0.79,0.633,1.415,0.633c0.535,0,1.084-0.115,1.646-0.346v0.861
		C329.5,9.188,328.959,9.299,328.307,9.299z"/>
	<path d="M333.614,5.895c0.168-0.238,0.424-0.551,0.768-0.938l2.074-2.197h1.154l-2.602,2.736l2.783,3.686h-1.178l-2.268-3.035
		l-0.732,0.633v2.402h-0.961V0.064h0.961v4.834c0,0.215-0.016,0.547-0.047,0.996H333.614z"/>
	<path d="M345.383,2.76v4.166c0,0.523,0.119,0.914,0.357,1.172s0.611,0.387,1.119,0.387c0.672,0,1.163-0.184,1.474-0.551
		s0.466-0.967,0.466-1.799V2.76h0.973v6.422h-0.803l-0.141-0.861h-0.053c-0.199,0.316-0.476,0.559-0.829,0.727
		s-0.757,0.252-1.21,0.252c-0.781,0-1.366-0.186-1.755-0.557s-0.583-0.965-0.583-1.781V2.76H345.383z"/>
	<path d="M356.022,9.299c-0.418,0-0.8-0.077-1.146-0.231s-0.636-0.392-0.87-0.712h-0.07c0.047,0.375,0.07,0.73,0.07,1.066v2.643
		h-0.973V2.76h0.791l0.135,0.879h0.047c0.25-0.352,0.541-0.605,0.873-0.762s0.713-0.234,1.143-0.234
		c0.852,0,1.509,0.291,1.972,0.873s0.694,1.398,0.694,2.449c0,1.055-0.235,1.874-0.706,2.458S356.858,9.299,356.022,9.299z
		 M355.882,3.469c-0.656,0-1.131,0.182-1.424,0.545s-0.443,0.941-0.451,1.734v0.217c0,0.902,0.15,1.548,0.451,1.937
		s0.783,0.583,1.447,0.583c0.555,0,0.989-0.225,1.304-0.674s0.472-1.068,0.472-1.857c0-0.801-0.157-1.415-0.472-1.843
		S356.452,3.469,355.882,3.469z"/>
	<path d="M361.447,8.561c0-0.262,0.06-0.46,0.179-0.595s0.29-0.202,0.513-0.202c0.227,0,0.403,0.067,0.53,0.202
		s0.19,0.333,0.19,0.595c0,0.254-0.064,0.449-0.193,0.586s-0.305,0.205-0.527,0.205c-0.199,0-0.364-0.062-0.495-0.185
		S361.447,8.842,361.447,8.561z"/>
</g>
</svg>