<!-- Generator: Adobe Illustrator 21.0.0, SVG Export Plug-In  -->
<svg version="1.1"
	 xmlns="http://www.w3.org/2000/svg" xmlns:xlink="http://www.w3.org/1999/xlink" xmlns:a="http://ns.adobe.com/AdobeSVGViewerExtensions/3.0/"
	 x="0px" y="0px" width="550.877px" height="57.881px" viewBox="0 0 550.877 57.881"
	 style="enable-background:new 0 0 550.877 57.881;" xml:space="preserve">
<defs>
</defs>
<path d="M270.439,0h2.388v57.881h-2.388V0z"/>
<g>
	<path d="M24.469,25.87c0,4.254-1.055,7.523-3.164,9.809s-5.133,3.428-9.07,3.428s-6.961-1.143-9.07-3.428S0,30.112,0,25.835
		s1.059-7.544,3.174-9.8s5.146-3.384,9.096-3.384s6.971,1.137,9.062,3.41S24.469,21.604,24.469,25.87z M5.713,25.87
		c0,2.871,0.545,5.033,1.635,6.486s2.719,2.18,4.887,2.18c4.348,0,6.521-2.889,6.521-8.666c0-5.789-2.162-8.684-6.486-8.684
		c-2.168,0-3.803,0.729-4.904,2.188S5.713,22.999,5.713,25.87z"/>
	<path d="M45.096,38.755l-0.721-2.514h-0.281c-0.574,0.914-1.389,1.62-2.443,2.118s-2.256,0.747-3.604,0.747
		c-2.309,0-4.049-0.618-5.221-1.854s-1.758-3.015-1.758-5.335V19.103h5.361v11.479c0,1.418,0.252,2.481,0.756,3.19
		s1.307,1.063,2.408,1.063c1.5,0,2.584-0.501,3.252-1.503s1.002-2.663,1.002-4.983v-9.246h5.361v19.652H45.096z"/>
	<path d="M67.602,18.733c0.727,0,1.33,0.053,1.811,0.158l-0.404,5.027c-0.434-0.117-0.961-0.176-1.582-0.176
		c-1.711,0-3.043,0.439-3.998,1.318s-1.434,2.109-1.434,3.691v10.002h-5.361V19.103h4.061l0.791,3.305h0.264
		c0.609-1.102,1.434-1.989,2.471-2.663S66.383,18.733,67.602,18.733z"/>
	<path d="M104.109,21.071c0,2.766-0.865,4.881-2.594,6.346s-4.186,2.197-7.373,2.197h-2.338v9.141h-5.449V13.056h8.209
		c3.117,0,5.486,0.671,7.109,2.013S104.109,18.411,104.109,21.071z M91.805,25.149h1.793c1.676,0,2.93-0.331,3.762-0.993
		s1.248-1.626,1.248-2.892c0-1.277-0.35-2.221-1.047-2.83s-1.789-0.914-3.277-0.914h-2.479V25.149z"/>
	<path d="M121.307,18.733c0.727,0,1.33,0.053,1.811,0.158l-0.404,5.027c-0.434-0.117-0.961-0.176-1.582-0.176
		c-1.711,0-3.043,0.439-3.998,1.318s-1.434,2.109-1.434,3.691v10.002h-5.361V19.103h4.061l0.791,3.305h0.264
		c0.609-1.102,1.434-1.989,2.471-2.663S120.088,18.733,121.307,18.733z"/>
	<path d="M146.346,28.894c0,3.199-0.844,5.701-2.531,7.506s-4.037,2.707-7.049,2.707c-1.887,0-3.551-0.413-4.992-1.239
		s-2.549-2.013-3.322-3.56s-1.16-3.352-1.16-5.414c0-3.211,0.838-5.707,2.514-7.488s4.031-2.672,7.066-2.672
		c1.887,0,3.551,0.41,4.992,1.23s2.549,1.998,3.322,3.533S146.346,26.831,146.346,28.894z M132.758,28.894
		c0,1.945,0.318,3.416,0.957,4.412s1.68,1.494,3.121,1.494c1.43,0,2.457-0.495,3.084-1.485s0.941-2.464,0.941-4.421
		c0-1.945-0.316-3.404-0.949-4.377s-1.67-1.459-3.111-1.459c-1.43,0-2.461,0.483-3.094,1.45S132.758,26.937,132.758,28.894z"/>
	<path d="M158.797,39.106c-2.309,0-4.121-0.896-5.439-2.689s-1.979-4.277-1.979-7.453c0-3.223,0.672-5.733,2.014-7.532
		s3.189-2.698,5.545-2.698c2.473,0,4.359,0.961,5.66,2.883h0.176c-0.27-1.465-0.404-2.771-0.404-3.92v-6.293h5.379v27.352h-4.113
		l-1.037-2.549h-0.229C163.15,38.14,161.293,39.106,158.797,39.106z M160.678,34.835c1.371,0,2.377-0.398,3.016-1.195
		s0.986-2.15,1.045-4.061v-0.58c0-2.109-0.324-3.621-0.975-4.535s-1.709-1.371-3.174-1.371c-1.195,0-2.123,0.507-2.785,1.521
		s-0.994,2.487-0.994,4.421s0.334,3.384,1.002,4.351S159.436,34.835,160.678,34.835z"/>
	<path d="M191.078,38.755l-0.721-2.514h-0.281c-0.574,0.914-1.389,1.62-2.443,2.118s-2.256,0.747-3.604,0.747
		c-2.309,0-4.049-0.618-5.221-1.854s-1.758-3.015-1.758-5.335V19.103h5.361v11.479c0,1.418,0.252,2.481,0.756,3.19
		s1.307,1.063,2.408,1.063c1.5,0,2.584-0.501,3.252-1.503s1.002-2.663,1.002-4.983v-9.246h5.361v19.652H191.078z"/>
	<path d="M210.598,39.106c-6.117,0-9.176-3.357-9.176-10.072c0-3.34,0.832-5.892,2.496-7.655s4.049-2.646,7.154-2.646
		c2.273,0,4.312,0.445,6.117,1.336l-1.582,4.148c-0.844-0.34-1.629-0.618-2.355-0.835s-1.453-0.325-2.18-0.325
		c-2.789,0-4.184,1.98-4.184,5.941c0,3.844,1.395,5.766,4.184,5.766c1.031,0,1.986-0.138,2.865-0.413s1.758-0.706,2.637-1.292v4.588
		c-0.867,0.551-1.744,0.932-2.629,1.143S211.945,39.106,210.598,39.106z"/>
	<path d="M231.205,34.835c0.938,0,2.062-0.205,3.375-0.615v3.99c-1.336,0.598-2.977,0.896-4.922,0.896
		c-2.145,0-3.705-0.542-4.684-1.626s-1.469-2.71-1.469-4.878v-9.475h-2.566V20.86l2.953-1.793l1.547-4.148h3.428v4.184h5.502v4.025
		h-5.502v9.475c0,0.762,0.215,1.324,0.643,1.688S230.502,34.835,231.205,34.835z"/>
	<path d="M254.064,32.919c0,2.016-0.701,3.551-2.102,4.605s-3.494,1.582-6.283,1.582c-1.43,0-2.648-0.097-3.656-0.29
		s-1.951-0.478-2.83-0.853v-4.43c0.996,0.469,2.117,0.861,3.365,1.178s2.348,0.475,3.297,0.475c1.945,0,2.918-0.562,2.918-1.688
		c0-0.422-0.129-0.765-0.387-1.028s-0.703-0.562-1.336-0.896s-1.477-0.724-2.531-1.169c-1.512-0.633-2.623-1.219-3.332-1.758
		s-1.225-1.157-1.547-1.854s-0.482-1.556-0.482-2.575c0-1.746,0.676-3.097,2.029-4.052s3.273-1.433,5.758-1.433
		c2.367,0,4.67,0.516,6.908,1.547l-1.617,3.867c-0.984-0.422-1.904-0.768-2.76-1.037s-1.729-0.404-2.619-0.404
		c-1.582,0-2.373,0.428-2.373,1.283c0,0.48,0.254,0.896,0.764,1.248s1.627,0.873,3.35,1.564c1.535,0.621,2.66,1.201,3.375,1.74
		s1.242,1.16,1.582,1.863S254.064,31.946,254.064,32.919z"/>
</g>
<g>
	<path d="M293.783,24.759c0,1.156-0.395,2.046-1.184,2.668s-1.918,0.934-3.387,0.934h-1.344v4.492h-1.328V21.431h2.961
		C292.356,21.431,293.783,22.54,293.783,24.759z M287.869,27.22h1.195c1.177,0,2.028-0.19,2.555-0.57s0.789-0.989,0.789-1.828
		c0-0.755-0.247-1.317-0.742-1.688s-1.266-0.555-2.312-0.555h-1.484V27.22z"/>
	<path d="M297.275,32.853h-1.297V20.696h1.297V32.853z"/>
	<path d="M303.643,33.009c-1.266,0-2.265-0.386-2.996-1.156s-1.098-1.841-1.098-3.211c0-1.38,0.34-2.477,1.02-3.289
		s1.593-1.219,2.738-1.219c1.073,0,1.922,0.353,2.547,1.059s0.938,1.637,0.938,2.793v0.82h-5.898
		c0.026,1.005,0.28,1.769,0.762,2.289s1.16,0.781,2.035,0.781c0.922,0,1.833-0.192,2.734-0.578v1.156
		c-0.458,0.198-0.892,0.34-1.301,0.426S304.221,33.009,303.643,33.009z M303.291,25.22c-0.688,0-1.235,0.224-1.645,0.672
		s-0.649,1.067-0.723,1.859h4.477c0-0.817-0.183-1.444-0.547-1.879S303.968,25.22,303.291,25.22z"/>
	<path d="M314.268,32.853l-0.258-1.219h-0.062c-0.427,0.536-0.853,0.899-1.277,1.09s-0.954,0.285-1.59,0.285
		c-0.849,0-1.515-0.219-1.996-0.656s-0.723-1.06-0.723-1.867c0-1.729,1.383-2.636,4.148-2.719l1.453-0.047v-0.531
		c0-0.672-0.145-1.168-0.434-1.488s-0.751-0.48-1.387-0.48c-0.714,0-1.521,0.219-2.422,0.656l-0.398-0.992
		c0.422-0.229,0.884-0.409,1.387-0.539s1.007-0.195,1.512-0.195c1.021,0,1.777,0.227,2.27,0.68s0.738,1.18,0.738,2.18v5.844H314.268
		z M311.338,31.938c0.808,0,1.441-0.222,1.902-0.664s0.691-1.062,0.691-1.859v-0.773l-1.297,0.055
		c-1.031,0.036-1.774,0.196-2.23,0.48s-0.684,0.726-0.684,1.324c0,0.469,0.142,0.825,0.426,1.07S310.827,31.938,311.338,31.938z"/>
	<path d="M323.424,30.517c0,0.797-0.297,1.411-0.891,1.844s-1.427,0.648-2.5,0.648c-1.136,0-2.021-0.18-2.656-0.539v-1.203
		c0.411,0.208,0.853,0.372,1.324,0.492s0.926,0.18,1.363,0.18c0.677,0,1.198-0.108,1.562-0.324s0.547-0.546,0.547-0.988
		c0-0.333-0.145-0.618-0.434-0.855s-0.853-0.517-1.691-0.84c-0.797-0.297-1.363-0.556-1.699-0.777s-0.586-0.473-0.75-0.754
		s-0.246-0.617-0.246-1.008c0-0.698,0.284-1.249,0.852-1.652s1.347-0.605,2.336-0.605c0.922,0,1.823,0.188,2.703,0.562l-0.461,1.055
		c-0.859-0.354-1.638-0.531-2.336-0.531c-0.614,0-1.078,0.097-1.391,0.289s-0.469,0.458-0.469,0.797
		c0,0.229,0.059,0.425,0.176,0.586s0.306,0.315,0.566,0.461s0.761,0.356,1.5,0.633c1.016,0.37,1.702,0.742,2.059,1.117
		S323.424,29.949,323.424,30.517z"/>
	<path d="M329.15,33.009c-1.266,0-2.265-0.386-2.996-1.156s-1.098-1.841-1.098-3.211c0-1.38,0.34-2.477,1.02-3.289
		s1.593-1.219,2.738-1.219c1.073,0,1.922,0.353,2.547,1.059s0.938,1.637,0.938,2.793v0.82H326.4c0.026,1.005,0.28,1.769,0.762,2.289
		s1.16,0.781,2.035,0.781c0.922,0,1.833-0.192,2.734-0.578v1.156c-0.458,0.198-0.892,0.34-1.301,0.426S329.729,33.009,329.15,33.009
		z M328.799,25.22c-0.688,0-1.235,0.224-1.645,0.672s-0.649,1.067-0.723,1.859h4.477c0-0.817-0.183-1.444-0.547-1.879
		S329.476,25.22,328.799,25.22z"/>
	<path d="M342.088,33.009c-1.239,0-2.199-0.382-2.879-1.145s-1.02-1.843-1.02-3.238c0-1.433,0.345-2.539,1.035-3.32
		s1.673-1.172,2.949-1.172c0.411,0,0.823,0.044,1.234,0.133s0.734,0.192,0.969,0.312l-0.398,1.102
		c-0.286-0.114-0.599-0.21-0.938-0.285s-0.638-0.113-0.898-0.113c-1.739,0-2.609,1.109-2.609,3.328c0,1.052,0.212,1.859,0.637,2.422
		s1.054,0.844,1.887,0.844c0.714,0,1.445-0.153,2.195-0.461v1.148C343.679,32.86,342.958,33.009,342.088,33.009z"/>
	<path d="M352.143,32.853v-5.539c0-0.698-0.159-1.219-0.477-1.562s-0.815-0.516-1.492-0.516c-0.901,0-1.559,0.245-1.973,0.734
		s-0.621,1.292-0.621,2.406v4.477h-1.297V20.696h1.297v3.68c0,0.442-0.021,0.81-0.062,1.102h0.078
		c0.255-0.411,0.618-0.735,1.09-0.973s1.009-0.355,1.613-0.355c1.047,0,1.832,0.249,2.355,0.746s0.785,1.288,0.785,2.371v5.586
		H352.143z"/>
	<path d="M363.494,28.563c0,1.396-0.352,2.485-1.055,3.27s-1.675,1.176-2.914,1.176c-0.766,0-1.445-0.18-2.039-0.539
		s-1.052-0.875-1.375-1.547s-0.484-1.458-0.484-2.359c0-1.396,0.349-2.483,1.047-3.262s1.667-1.168,2.906-1.168
		c1.198,0,2.149,0.398,2.855,1.195S363.494,27.204,363.494,28.563z M356.971,28.563c0,1.094,0.219,1.927,0.656,2.5
		s1.081,0.859,1.93,0.859s1.493-0.285,1.934-0.855s0.66-1.405,0.66-2.504c0-1.089-0.22-1.915-0.66-2.48s-1.09-0.848-1.949-0.848
		c-0.849,0-1.489,0.278-1.922,0.836S356.971,27.459,356.971,28.563z"/>
	<path d="M373.158,28.563c0,1.396-0.352,2.485-1.055,3.27s-1.675,1.176-2.914,1.176c-0.766,0-1.445-0.18-2.039-0.539
		s-1.052-0.875-1.375-1.547s-0.484-1.458-0.484-2.359c0-1.396,0.349-2.483,1.047-3.262s1.667-1.168,2.906-1.168
		c1.198,0,2.149,0.398,2.855,1.195S373.158,27.204,373.158,28.563z M366.635,28.563c0,1.094,0.219,1.927,0.656,2.5
		s1.081,0.859,1.93,0.859s1.493-0.285,1.934-0.855s0.66-1.405,0.66-2.504c0-1.089-0.22-1.915-0.66-2.48s-1.09-0.848-1.949-0.848
		c-0.849,0-1.489,0.278-1.922,0.836S366.635,27.459,366.635,28.563z"/>
	<path d="M380.955,30.517c0,0.797-0.297,1.411-0.891,1.844s-1.427,0.648-2.5,0.648c-1.136,0-2.021-0.18-2.656-0.539v-1.203
		c0.411,0.208,0.853,0.372,1.324,0.492s0.926,0.18,1.363,0.18c0.677,0,1.198-0.108,1.562-0.324s0.547-0.546,0.547-0.988
		c0-0.333-0.145-0.618-0.434-0.855s-0.853-0.517-1.691-0.84c-0.797-0.297-1.363-0.556-1.699-0.777s-0.586-0.473-0.75-0.754
		s-0.246-0.617-0.246-1.008c0-0.698,0.284-1.249,0.852-1.652s1.347-0.605,2.336-0.605c0.922,0,1.823,0.188,2.703,0.562l-0.461,1.055
		c-0.859-0.354-1.638-0.531-2.336-0.531c-0.614,0-1.078,0.097-1.391,0.289s-0.469,0.458-0.469,0.797
		c0,0.229,0.059,0.425,0.176,0.586s0.306,0.315,0.566,0.461s0.761,0.356,1.5,0.633c1.016,0.37,1.702,0.742,2.059,1.117
		S380.955,29.949,380.955,30.517z"/>
	<path d="M386.682,33.009c-1.266,0-2.265-0.386-2.996-1.156s-1.098-1.841-1.098-3.211c0-1.38,0.34-2.477,1.02-3.289
		s1.593-1.219,2.738-1.219c1.073,0,1.922,0.353,2.547,1.059s0.938,1.637,0.938,2.793v0.82h-5.898
		c0.026,1.005,0.28,1.769,0.762,2.289s1.16,0.781,2.035,0.781c0.922,0,1.833-0.192,2.734-0.578v1.156
		c-0.458,0.198-0.892,0.34-1.301,0.426S387.26,33.009,386.682,33.009z M386.33,25.22c-0.688,0-1.235,0.224-1.645,0.672
		s-0.649,1.067-0.723,1.859h4.477c0-0.817-0.183-1.444-0.547-1.879S387.007,25.22,386.33,25.22z"/>
	<path d="M400.057,25.298h-2.18v7.555h-1.297v-7.555h-1.531v-0.586l1.531-0.469v-0.477c0-2.104,0.919-3.156,2.758-3.156
		c0.453,0,0.984,0.091,1.594,0.273l-0.336,1.039c-0.5-0.161-0.927-0.242-1.281-0.242c-0.489,0-0.852,0.163-1.086,0.488
		s-0.352,0.848-0.352,1.566v0.555h2.18V25.298z"/>
	<path d="M405.525,24.134c0.38,0,0.722,0.031,1.023,0.094l-0.18,1.203c-0.354-0.078-0.667-0.117-0.938-0.117
		c-0.692,0-1.285,0.281-1.777,0.844s-0.738,1.263-0.738,2.102v4.594h-1.297V24.29h1.07l0.148,1.586h0.062
		c0.317-0.558,0.7-0.987,1.148-1.289S404.989,24.134,405.525,24.134z"/>
	<path d="M415.541,28.563c0,1.396-0.352,2.485-1.055,3.27s-1.675,1.176-2.914,1.176c-0.766,0-1.445-0.18-2.039-0.539
		s-1.052-0.875-1.375-1.547s-0.484-1.458-0.484-2.359c0-1.396,0.349-2.483,1.047-3.262s1.667-1.168,2.906-1.168
		c1.198,0,2.149,0.398,2.855,1.195S415.541,27.204,415.541,28.563z M409.018,28.563c0,1.094,0.219,1.927,0.656,2.5
		s1.081,0.859,1.93,0.859s1.493-0.285,1.934-0.855s0.66-1.405,0.66-2.504c0-1.089-0.22-1.915-0.66-2.48s-1.09-0.848-1.949-0.848
		c-0.849,0-1.489,0.278-1.922,0.836S409.018,27.459,409.018,28.563z"/>
	<path d="M428.729,32.853v-5.57c0-0.683-0.146-1.194-0.438-1.535s-0.745-0.512-1.359-0.512c-0.808,0-1.403,0.231-1.789,0.695
		s-0.578,1.177-0.578,2.141v4.781h-1.297v-5.57c0-0.683-0.146-1.194-0.438-1.535s-0.747-0.512-1.367-0.512
		c-0.812,0-1.407,0.243-1.785,0.73s-0.566,1.285-0.566,2.395v4.492h-1.297V24.29h1.055l0.211,1.172h0.062
		c0.245-0.417,0.59-0.742,1.035-0.977s0.944-0.352,1.496-0.352c1.339,0,2.214,0.484,2.625,1.453h0.062
		c0.255-0.448,0.625-0.802,1.109-1.062s1.036-0.391,1.656-0.391c0.969,0,1.694,0.249,2.176,0.746s0.723,1.293,0.723,2.387v5.586
		H428.729z"/>
	<path d="M444.244,28.563c0,1.396-0.352,2.485-1.055,3.27s-1.675,1.176-2.914,1.176c-0.766,0-1.445-0.18-2.039-0.539
		s-1.052-0.875-1.375-1.547s-0.484-1.458-0.484-2.359c0-1.396,0.349-2.483,1.047-3.262s1.667-1.168,2.906-1.168
		c1.198,0,2.149,0.398,2.855,1.195S444.244,27.204,444.244,28.563z M437.721,28.563c0,1.094,0.219,1.927,0.656,2.5
		s1.081,0.859,1.93,0.859s1.493-0.285,1.934-0.855s0.66-1.405,0.66-2.504c0-1.089-0.22-1.915-0.66-2.48s-1.09-0.848-1.949-0.848
		c-0.849,0-1.489,0.278-1.922,0.836S437.721,27.459,437.721,28.563z"/>
	<path d="M447.736,24.29v5.555c0,0.698,0.159,1.219,0.477,1.562s0.815,0.516,1.492,0.516c0.896,0,1.551-0.245,1.965-0.734
		s0.621-1.289,0.621-2.398v-4.5h1.297v8.562h-1.07l-0.188-1.148h-0.07c-0.266,0.422-0.634,0.745-1.105,0.969
		s-1.009,0.336-1.613,0.336c-1.042,0-1.821-0.247-2.34-0.742s-0.777-1.286-0.777-2.375V24.29H447.736z"/>
	<path d="M460.244,24.134c0.38,0,0.722,0.031,1.023,0.094l-0.18,1.203c-0.354-0.078-0.667-0.117-0.938-0.117
		c-0.692,0-1.285,0.281-1.777,0.844s-0.738,1.263-0.738,2.102v4.594h-1.297V24.29h1.07l0.148,1.586h0.062
		c0.317-0.558,0.7-0.987,1.148-1.289S459.708,24.134,460.244,24.134z"/>
	<path d="M468.322,32.853h-1.297V20.696h1.297V32.853z"/>
	<path d="M470.963,21.97c0-0.297,0.073-0.515,0.219-0.652s0.328-0.207,0.547-0.207c0.208,0,0.388,0.07,0.539,0.211
		s0.227,0.356,0.227,0.648s-0.075,0.509-0.227,0.652s-0.331,0.215-0.539,0.215c-0.219,0-0.401-0.071-0.547-0.215
		S470.963,22.262,470.963,21.97z M472.369,32.853h-1.297V24.29h1.297V32.853z"/>
	<path d="M480.643,30.517c0,0.797-0.297,1.411-0.891,1.844s-1.427,0.648-2.5,0.648c-1.136,0-2.021-0.18-2.656-0.539v-1.203
		c0.411,0.208,0.853,0.372,1.324,0.492s0.926,0.18,1.363,0.18c0.677,0,1.198-0.108,1.562-0.324s0.547-0.546,0.547-0.988
		c0-0.333-0.145-0.618-0.434-0.855s-0.853-0.517-1.691-0.84c-0.797-0.297-1.363-0.556-1.699-0.777s-0.586-0.473-0.75-0.754
		s-0.246-0.617-0.246-1.008c0-0.698,0.284-1.249,0.852-1.652s1.347-0.605,2.336-0.605c0.922,0,1.823,0.188,2.703,0.562l-0.461,1.055
		c-0.859-0.354-1.638-0.531-2.336-0.531c-0.614,0-1.078,0.097-1.391,0.289s-0.469,0.458-0.469,0.797
		c0,0.229,0.059,0.425,0.176,0.586s0.306,0.315,0.566,0.461s0.761,0.356,1.5,0.633c1.016,0.37,1.702,0.742,2.059,1.117
		S480.643,29.949,480.643,30.517z"/>
	<path d="M485.518,31.938c0.229,0,0.45-0.017,0.664-0.051s0.383-0.069,0.508-0.105v0.992c-0.141,0.067-0.348,0.124-0.621,0.168
		s-0.52,0.066-0.738,0.066c-1.656,0-2.484-0.872-2.484-2.617v-5.094h-1.227v-0.625l1.227-0.539l0.547-1.828h0.75v1.984h2.484v1.008
		h-2.484v5.039c0,0.516,0.122,0.911,0.367,1.188S485.091,31.938,485.518,31.938z"/>
	<path d="M499.947,28.563c0,1.396-0.352,2.485-1.055,3.27s-1.675,1.176-2.914,1.176c-0.766,0-1.445-0.18-2.039-0.539
		s-1.052-0.875-1.375-1.547s-0.484-1.458-0.484-2.359c0-1.396,0.349-2.483,1.047-3.262s1.667-1.168,2.906-1.168
		c1.198,0,2.149,0.398,2.855,1.195S499.947,27.204,499.947,28.563z M493.424,28.563c0,1.094,0.219,1.927,0.656,2.5
		s1.081,0.859,1.93,0.859s1.493-0.285,1.934-0.855s0.66-1.405,0.66-2.504c0-1.089-0.22-1.915-0.66-2.48s-1.09-0.848-1.949-0.848
		c-0.849,0-1.489,0.278-1.922,0.836S493.424,27.459,493.424,28.563z"/>
	<path d="M506.08,25.298h-2.18v7.555h-1.297v-7.555h-1.531v-0.586l1.531-0.469v-0.477c0-2.104,0.919-3.156,2.758-3.156
		c0.453,0,0.984,0.091,1.594,0.273l-0.336,1.039c-0.5-0.161-0.927-0.242-1.281-0.242c-0.489,0-0.852,0.163-1.086,0.488
		s-0.352,0.848-0.352,1.566v0.555h2.18V25.298z"/>
	<path d="M511.689,21.97c0-0.297,0.073-0.515,0.219-0.652s0.328-0.207,0.547-0.207c0.208,0,0.388,0.07,0.539,0.211
		s0.227,0.356,0.227,0.648s-0.075,0.509-0.227,0.652s-0.331,0.215-0.539,0.215c-0.219,0-0.401-0.071-0.547-0.215
		S511.689,22.262,511.689,21.97z M513.096,32.853h-1.297V24.29h1.297V32.853z"/>
	<path d="M518.611,31.938c0.229,0,0.45-0.017,0.664-0.051s0.383-0.069,0.508-0.105v0.992c-0.141,0.067-0.348,0.124-0.621,0.168
		s-0.52,0.066-0.738,0.066c-1.656,0-2.484-0.872-2.484-2.617v-5.094h-1.227v-0.625l1.227-0.539l0.547-1.828h0.75v1.984h2.484v1.008
		h-2.484v5.039c0,0.516,0.122,0.911,0.367,1.188S518.185,31.938,518.611,31.938z"/>
	<path d="M525.111,33.009c-1.266,0-2.265-0.386-2.996-1.156s-1.098-1.841-1.098-3.211c0-1.38,0.34-2.477,1.02-3.289
		s1.593-1.219,2.738-1.219c1.073,0,1.922,0.353,2.547,1.059s0.938,1.637,0.938,2.793v0.82h-5.898
		c0.026,1.005,0.28,1.769,0.762,2.289s1.16,0.781,2.035,0.781c0.922,0,1.833-0.192,2.734-0.578v1.156
		c-0.458,0.198-0.892,0.34-1.301,0.426S525.689,33.009,525.111,33.009z M524.76,25.22c-0.688,0-1.235,0.224-1.645,0.672
		s-0.649,1.067-0.723,1.859h4.477c0-0.817-0.183-1.444-0.547-1.879S525.437,25.22,524.76,25.22z"/>
	<path d="M541.385,32.853v-5.57c0-0.683-0.146-1.194-0.438-1.535s-0.745-0.512-1.359-0.512c-0.808,0-1.403,0.231-1.789,0.695
		s-0.578,1.177-0.578,2.141v4.781h-1.297v-5.57c0-0.683-0.146-1.194-0.438-1.535s-0.747-0.512-1.367-0.512
		c-0.812,0-1.407,0.243-1.785,0.73s-0.566,1.285-0.566,2.395v4.492h-1.297V24.29h1.055l0.211,1.172h0.062
		c0.245-0.417,0.59-0.742,1.035-0.977s0.944-0.352,1.496-0.352c1.339,0,2.214,0.484,2.625,1.453h0.062
		c0.255-0.448,0.625-0.802,1.109-1.062s1.036-0.391,1.656-0.391c0.969,0,1.694,0.249,2.176,0.746s0.723,1.293,0.723,2.387v5.586
		H541.385z"/>
	<path d="M550.877,30.517c0,0.797-0.297,1.411-0.891,1.844s-1.427,0.648-2.5,0.648c-1.136,0-2.021-0.18-2.656-0.539v-1.203
		c0.411,0.208,0.853,0.372,1.324,0.492s0.926,0.18,1.363,0.18c0.677,0,1.198-0.108,1.562-0.324s0.547-0.546,0.547-0.988
		c0-0.333-0.145-0.618-0.434-0.855s-0.853-0.517-1.691-0.84c-0.797-0.297-1.363-0.556-1.699-0.777s-0.586-0.473-0.75-0.754
		s-0.246-0.617-0.246-1.008c0-0.698,0.284-1.249,0.852-1.652s1.347-0.605,2.336-0.605c0.922,0,1.823,0.188,2.703,0.562l-0.461,1.055
		c-0.859-0.354-1.638-0.531-2.336-0.531c-0.614,0-1.078,0.097-1.391,0.289s-0.469,0.458-0.469,0.797
		c0,0.229,0.059,0.425,0.176,0.586s0.306,0.315,0.566,0.461s0.761,0.356,1.5,0.633c1.016,0.37,1.702,0.742,2.059,1.117
		S550.877,29.949,550.877,30.517z"/>
</g>
</svg>