<!-- Generator: Adobe Illustrator 21.0.0, SVG Export Plug-In  -->
<svg version="1.1"
	 xmlns="http://www.w3.org/2000/svg" xmlns:xlink="http://www.w3.org/1999/xlink" xmlns:a="http://ns.adobe.com/AdobeSVGViewerExtensions/3.0/"
	 x="0px" y="0px" width="312.713px" height="82.15px" viewBox="0 0 312.713 82.15"
	 style="enable-background:new 0 0 312.713 82.15;" xml:space="preserve">
<defs>
</defs>
<g>
	<path d="M2.004,46.418v3.562H1.008v-8.566h2.35c1.051,0,1.827,0.201,2.329,0.604s0.753,1.008,0.753,1.816
		c0,1.133-0.574,1.898-1.723,2.297l2.326,3.85H5.865l-2.074-3.562H2.004z M2.004,45.562h1.365c0.703,0,1.219-0.14,1.547-0.419
		s0.492-0.698,0.492-1.257c0-0.566-0.167-0.975-0.501-1.225s-0.87-0.375-1.608-0.375H2.004V45.562z"/>
	<path d="M11.292,50.098c-0.949,0-1.698-0.289-2.247-0.867s-0.823-1.381-0.823-2.408c0-1.035,0.255-1.857,0.765-2.467
		s1.194-0.914,2.054-0.914c0.805,0,1.441,0.265,1.91,0.794s0.703,1.228,0.703,2.095v0.615H9.229c0.02,0.754,0.21,1.326,0.571,1.717
		s0.87,0.586,1.526,0.586c0.691,0,1.375-0.145,2.051-0.434v0.867c-0.344,0.148-0.669,0.255-0.976,0.319S11.726,50.098,11.292,50.098
		z M11.028,44.256c-0.516,0-0.927,0.168-1.233,0.504s-0.487,0.801-0.542,1.395h3.357c0-0.613-0.137-1.083-0.41-1.409
		S11.536,44.256,11.028,44.256z"/>
	<path d="M19.982,49.119H19.93c-0.449,0.652-1.121,0.979-2.016,0.979c-0.84,0-1.493-0.287-1.96-0.861s-0.7-1.391-0.7-2.449
		s0.234-1.881,0.703-2.467s1.121-0.879,1.957-0.879c0.871,0,1.539,0.316,2.004,0.949h0.076l-0.041-0.463l-0.023-0.451v-2.613h0.973
		v9.117h-0.791L19.982,49.119z M18.037,49.283c0.664,0,1.146-0.181,1.444-0.542s0.448-0.944,0.448-1.749v-0.205
		c0-0.91-0.151-1.56-0.454-1.948s-0.786-0.583-1.45-0.583c-0.57,0-1.007,0.222-1.31,0.665s-0.454,1.069-0.454,1.878
		c0,0.82,0.15,1.439,0.451,1.857S17.455,49.283,18.037,49.283z"/>
	<path d="M26.829,41.414h2.42c1.137,0,1.959,0.17,2.467,0.51s0.762,0.877,0.762,1.611c0,0.508-0.142,0.927-0.425,1.257
		s-0.696,0.544-1.239,0.642v0.059c1.301,0.223,1.951,0.906,1.951,2.051c0,0.766-0.259,1.363-0.776,1.793s-1.241,0.645-2.171,0.645
		h-2.988V41.414z M27.825,45.082h1.641c0.703,0,1.209-0.11,1.518-0.331s0.463-0.593,0.463-1.116c0-0.48-0.172-0.827-0.516-1.04
		s-0.891-0.319-1.641-0.319h-1.465V45.082z M27.825,45.926v3.205h1.787c0.691,0,1.212-0.134,1.562-0.401s0.524-0.687,0.524-1.257
		c0-0.531-0.179-0.922-0.536-1.172s-0.901-0.375-1.632-0.375H27.825z"/>
	<path d="M37.471,50.098c-0.949,0-1.698-0.289-2.247-0.867S34.4,47.85,34.4,46.822c0-1.035,0.255-1.857,0.765-2.467
		s1.194-0.914,2.054-0.914c0.805,0,1.441,0.265,1.91,0.794s0.703,1.228,0.703,2.095v0.615h-4.424c0.02,0.754,0.21,1.326,0.571,1.717
		s0.87,0.586,1.526,0.586c0.691,0,1.375-0.145,2.051-0.434v0.867c-0.344,0.148-0.669,0.255-0.976,0.319S37.904,50.098,37.471,50.098
		z M37.207,44.256c-0.516,0-0.927,0.168-1.233,0.504s-0.487,0.801-0.542,1.395h3.357c0-0.613-0.137-1.083-0.41-1.409
		S37.715,44.256,37.207,44.256z"/>
	<path d="M45.739,49.98l-0.193-0.914h-0.047c-0.32,0.402-0.64,0.675-0.958,0.817s-0.716,0.214-1.192,0.214
		c-0.637,0-1.136-0.164-1.497-0.492s-0.542-0.795-0.542-1.4c0-1.297,1.037-1.977,3.111-2.039l1.09-0.035v-0.398
		c0-0.504-0.108-0.876-0.325-1.116s-0.563-0.36-1.04-0.36c-0.535,0-1.141,0.164-1.816,0.492l-0.299-0.744
		c0.316-0.172,0.663-0.307,1.04-0.404s0.755-0.146,1.134-0.146c0.766,0,1.333,0.17,1.702,0.51s0.554,0.885,0.554,1.635v4.383H45.739
		z M43.542,49.295c0.605,0,1.081-0.166,1.427-0.498s0.519-0.797,0.519-1.395v-0.58l-0.973,0.041
		c-0.773,0.027-1.331,0.147-1.673,0.36s-0.513,0.544-0.513,0.993c0,0.352,0.106,0.619,0.319,0.803S43.159,49.295,43.542,49.295z"/>
	<path d="M53.158,49.98v-4.154c0-0.523-0.119-0.914-0.357-1.172s-0.611-0.387-1.119-0.387c-0.672,0-1.164,0.182-1.477,0.545
		s-0.469,0.963-0.469,1.799v3.369h-0.973v-6.422h0.791l0.158,0.879h0.047c0.199-0.316,0.479-0.562,0.838-0.735
		s0.76-0.261,1.201-0.261c0.773,0,1.355,0.187,1.746,0.56s0.586,0.97,0.586,1.79v4.189H53.158z"/>
	<path d="M60.572,48.229c0,0.598-0.223,1.059-0.668,1.383s-1.07,0.486-1.875,0.486c-0.852,0-1.516-0.135-1.992-0.404v-0.902
		c0.309,0.156,0.64,0.279,0.993,0.369s0.694,0.135,1.022,0.135c0.508,0,0.898-0.081,1.172-0.243s0.41-0.409,0.41-0.741
		c0-0.25-0.108-0.464-0.325-0.642s-0.64-0.388-1.269-0.63c-0.598-0.223-1.022-0.417-1.274-0.583s-0.439-0.354-0.562-0.565
		s-0.185-0.463-0.185-0.756c0-0.523,0.213-0.937,0.639-1.239s1.01-0.454,1.752-0.454c0.691,0,1.367,0.141,2.027,0.422l-0.346,0.791
		c-0.645-0.266-1.229-0.398-1.752-0.398c-0.461,0-0.809,0.072-1.043,0.217s-0.352,0.344-0.352,0.598
		c0,0.172,0.044,0.318,0.132,0.439s0.229,0.236,0.425,0.346s0.57,0.268,1.125,0.475c0.762,0.277,1.276,0.557,1.544,0.838
		S60.572,47.803,60.572,48.229z"/>
	<path d="M69.123,41.414L65.93,49.98h-0.973l3.193-8.566H69.123z"/>
	<path d="M80.328,49.98h-1.172l-3.123-4.154l-0.896,0.797v3.357h-0.996v-8.566h0.996v4.248l3.885-4.248h1.178l-3.445,3.721
		L80.328,49.98z"/>
	<path d="M87.203,46.764c0,1.047-0.264,1.864-0.791,2.452s-1.256,0.882-2.186,0.882c-0.574,0-1.084-0.135-1.529-0.404
		s-0.789-0.656-1.031-1.16s-0.363-1.094-0.363-1.77c0-1.047,0.262-1.862,0.785-2.446s1.25-0.876,2.18-0.876
		c0.898,0,1.612,0.299,2.142,0.896S87.203,45.744,87.203,46.764z M82.311,46.764c0,0.82,0.164,1.445,0.492,1.875
		s0.811,0.645,1.447,0.645s1.12-0.214,1.45-0.642s0.495-1.054,0.495-1.878c0-0.816-0.165-1.437-0.495-1.86s-0.817-0.636-1.462-0.636
		c-0.637,0-1.117,0.209-1.441,0.627S82.311,45.936,82.311,46.764z"/>
	<path d="M92.138,43.441c0.285,0,0.541,0.023,0.768,0.07l-0.135,0.902c-0.266-0.059-0.5-0.088-0.703-0.088
		c-0.52,0-0.964,0.211-1.333,0.633s-0.554,0.947-0.554,1.576v3.445h-0.973v-6.422h0.803l0.111,1.189h0.047
		c0.238-0.418,0.525-0.74,0.861-0.967S91.735,43.441,92.138,43.441z"/>
	<path d="M97.119,50.098c-0.949,0-1.698-0.289-2.247-0.867s-0.823-1.381-0.823-2.408c0-1.035,0.255-1.857,0.765-2.467
		s1.194-0.914,2.054-0.914c0.805,0,1.441,0.265,1.91,0.794s0.703,1.228,0.703,2.095v0.615h-4.424c0.02,0.754,0.21,1.326,0.571,1.717
		s0.87,0.586,1.526,0.586c0.691,0,1.375-0.145,2.051-0.434v0.867c-0.344,0.148-0.669,0.255-0.976,0.319S97.553,50.098,97.119,50.098
		z M96.855,44.256c-0.516,0-0.927,0.168-1.233,0.504s-0.487,0.801-0.542,1.395h3.357c0-0.613-0.137-1.083-0.41-1.409
		S97.363,44.256,96.855,44.256z"/>
	<path d="M105.388,49.98l-0.193-0.914h-0.047c-0.32,0.402-0.64,0.675-0.958,0.817s-0.716,0.214-1.192,0.214
		c-0.637,0-1.136-0.164-1.497-0.492s-0.542-0.795-0.542-1.4c0-1.297,1.037-1.977,3.111-2.039l1.09-0.035v-0.398
		c0-0.504-0.108-0.876-0.325-1.116s-0.563-0.36-1.04-0.36c-0.535,0-1.141,0.164-1.816,0.492l-0.299-0.744
		c0.316-0.172,0.663-0.307,1.04-0.404s0.755-0.146,1.134-0.146c0.766,0,1.333,0.17,1.702,0.51s0.554,0.885,0.554,1.635v4.383
		H105.388z M103.19,49.295c0.605,0,1.081-0.166,1.427-0.498s0.519-0.797,0.519-1.395v-0.58l-0.973,0.041
		c-0.773,0.027-1.331,0.147-1.673,0.36s-0.513,0.544-0.513,0.993c0,0.352,0.106,0.619,0.319,0.803S102.808,49.295,103.19,49.295z"/>
	<path d="M112.807,49.98v-4.154c0-0.523-0.119-0.914-0.357-1.172s-0.611-0.387-1.119-0.387c-0.672,0-1.164,0.182-1.477,0.545
		s-0.469,0.963-0.469,1.799v3.369h-0.973v-6.422h0.791l0.158,0.879h0.047c0.199-0.316,0.479-0.562,0.838-0.735
		s0.76-0.261,1.201-0.261c0.773,0,1.355,0.187,1.746,0.56s0.586,0.97,0.586,1.79v4.189H112.807z"/>
	<path d="M122.278,49.98h-0.996v-7.682h-2.713v-0.885h6.422v0.885h-2.713V49.98z"/>
	<path d="M129.363,43.441c0.285,0,0.541,0.023,0.768,0.07l-0.135,0.902c-0.266-0.059-0.5-0.088-0.703-0.088
		c-0.52,0-0.964,0.211-1.333,0.633s-0.554,0.947-0.554,1.576v3.445h-0.973v-6.422h0.803l0.111,1.189h0.047
		c0.238-0.418,0.525-0.74,0.861-0.967S128.961,43.441,129.363,43.441z"/>
	<path d="M135.581,49.98l-0.193-0.914h-0.047c-0.32,0.402-0.64,0.675-0.958,0.817s-0.716,0.214-1.192,0.214
		c-0.637,0-1.136-0.164-1.497-0.492s-0.542-0.795-0.542-1.4c0-1.297,1.037-1.977,3.111-2.039l1.09-0.035v-0.398
		c0-0.504-0.108-0.876-0.325-1.116s-0.563-0.36-1.04-0.36c-0.535,0-1.141,0.164-1.816,0.492l-0.299-0.744
		c0.316-0.172,0.663-0.307,1.04-0.404s0.755-0.146,1.134-0.146c0.766,0,1.333,0.17,1.702,0.51s0.554,0.885,0.554,1.635v4.383
		H135.581z M133.384,49.295c0.605,0,1.081-0.166,1.427-0.498s0.519-0.797,0.519-1.395v-0.58l-0.973,0.041
		c-0.773,0.027-1.331,0.147-1.673,0.36s-0.513,0.544-0.513,0.993c0,0.352,0.106,0.619,0.319,0.803S133.001,49.295,133.384,49.295z"
		/>
	<path d="M142.977,49.119h-0.053c-0.449,0.652-1.121,0.979-2.016,0.979c-0.84,0-1.493-0.287-1.96-0.861s-0.7-1.391-0.7-2.449
		s0.234-1.881,0.703-2.467s1.121-0.879,1.957-0.879c0.871,0,1.539,0.316,2.004,0.949h0.076l-0.041-0.463l-0.023-0.451v-2.613h0.973
		v9.117h-0.791L142.977,49.119z M141.031,49.283c0.664,0,1.146-0.181,1.444-0.542s0.448-0.944,0.448-1.749v-0.205
		c0-0.91-0.151-1.56-0.454-1.948s-0.786-0.583-1.45-0.583c-0.57,0-1.007,0.222-1.31,0.665s-0.454,1.069-0.454,1.878
		c0,0.82,0.15,1.439,0.451,1.857S140.449,49.283,141.031,49.283z"/>
	<path d="M146.178,41.818c0-0.223,0.055-0.386,0.164-0.489s0.246-0.155,0.41-0.155c0.156,0,0.291,0.053,0.404,0.158
		s0.17,0.268,0.17,0.486s-0.057,0.382-0.17,0.489s-0.248,0.161-0.404,0.161c-0.164,0-0.301-0.054-0.41-0.161
		S146.178,42.037,146.178,41.818z M147.232,49.98h-0.973v-6.422h0.973V49.98z"/>
	<path d="M151.669,49.295c0.172,0,0.338-0.013,0.498-0.038s0.287-0.052,0.381-0.079v0.744c-0.105,0.051-0.261,0.093-0.466,0.126
		s-0.39,0.05-0.554,0.05c-1.242,0-1.863-0.654-1.863-1.963v-3.82h-0.92v-0.469l0.92-0.404l0.41-1.371h0.562v1.488h1.863v0.756
		h-1.863v3.779c0,0.387,0.092,0.684,0.275,0.891S151.349,49.295,151.669,49.295z"/>
	<path d="M154.049,41.818c0-0.223,0.055-0.386,0.164-0.489s0.246-0.155,0.41-0.155c0.156,0,0.291,0.053,0.404,0.158
		s0.17,0.268,0.17,0.486s-0.057,0.382-0.17,0.489s-0.248,0.161-0.404,0.161c-0.164,0-0.301-0.054-0.41-0.161
		S154.049,42.037,154.049,41.818z M155.104,49.98h-0.973v-6.422h0.973V49.98z"/>
	<path d="M163.009,46.764c0,1.047-0.264,1.864-0.791,2.452s-1.256,0.882-2.186,0.882c-0.574,0-1.084-0.135-1.529-0.404
		s-0.789-0.656-1.031-1.16s-0.363-1.094-0.363-1.77c0-1.047,0.262-1.862,0.785-2.446s1.25-0.876,2.18-0.876
		c0.898,0,1.612,0.299,2.142,0.896S163.009,45.744,163.009,46.764z M158.116,46.764c0,0.82,0.164,1.445,0.492,1.875
		s0.811,0.645,1.447,0.645s1.12-0.214,1.45-0.642s0.495-1.054,0.495-1.878c0-0.816-0.165-1.437-0.495-1.86s-0.817-0.636-1.462-0.636
		c-0.637,0-1.117,0.209-1.441,0.627S158.116,45.936,158.116,46.764z"/>
	<path d="M169.408,49.98v-4.154c0-0.523-0.119-0.914-0.357-1.172s-0.611-0.387-1.119-0.387c-0.672,0-1.164,0.182-1.477,0.545
		s-0.469,0.963-0.469,1.799v3.369h-0.973v-6.422h0.791l0.158,0.879h0.047c0.199-0.316,0.479-0.562,0.838-0.735
		s0.76-0.261,1.201-0.261c0.773,0,1.355,0.187,1.746,0.56s0.586,0.97,0.586,1.79v4.189H169.408z"/>
	<path d="M176.629,49.98l-0.193-0.914h-0.047c-0.32,0.402-0.64,0.675-0.958,0.817s-0.716,0.214-1.192,0.214
		c-0.637,0-1.136-0.164-1.497-0.492s-0.542-0.795-0.542-1.4c0-1.297,1.037-1.977,3.111-2.039l1.09-0.035v-0.398
		c0-0.504-0.108-0.876-0.325-1.116s-0.563-0.36-1.04-0.36c-0.535,0-1.141,0.164-1.816,0.492l-0.299-0.744
		c0.316-0.172,0.663-0.307,1.04-0.404s0.755-0.146,1.134-0.146c0.766,0,1.333,0.17,1.702,0.51s0.554,0.885,0.554,1.635v4.383
		H176.629z M174.432,49.295c0.605,0,1.081-0.166,1.427-0.498s0.519-0.797,0.519-1.395v-0.58l-0.973,0.041
		c-0.773,0.027-1.331,0.147-1.673,0.36s-0.513,0.544-0.513,0.993c0,0.352,0.106,0.619,0.319,0.803S174.049,49.295,174.432,49.295z"
		/>
	<path d="M180.626,49.98h-0.973v-9.117h0.973V49.98z"/>
	<path d="M187.548,46.418v3.562h-0.996v-8.566h2.35c1.051,0,1.827,0.201,2.329,0.604s0.753,1.008,0.753,1.816
		c0,1.133-0.574,1.898-1.723,2.297l2.326,3.85h-1.178l-2.074-3.562H187.548z M187.548,45.562h1.365c0.703,0,1.219-0.14,1.547-0.419
		s0.492-0.698,0.492-1.257c0-0.566-0.167-0.975-0.501-1.225s-0.87-0.375-1.608-0.375h-1.295V45.562z"/>
	<path d="M194.041,41.818c0-0.223,0.055-0.386,0.164-0.489s0.246-0.155,0.41-0.155c0.156,0,0.291,0.053,0.404,0.158
		s0.17,0.268,0.17,0.486s-0.057,0.382-0.17,0.489s-0.248,0.161-0.404,0.161c-0.164,0-0.301-0.054-0.41-0.161
		S194.041,42.037,194.041,41.818z M195.096,49.98h-0.973v-6.422h0.973V49.98z"/>
	<path d="M200.025,50.098c-0.93,0-1.649-0.286-2.159-0.858s-0.765-1.382-0.765-2.429c0-1.074,0.259-1.904,0.776-2.49
		s1.255-0.879,2.212-0.879c0.309,0,0.617,0.033,0.926,0.1s0.551,0.145,0.727,0.234l-0.299,0.826
		c-0.215-0.086-0.449-0.157-0.703-0.214s-0.479-0.085-0.674-0.085c-1.305,0-1.957,0.832-1.957,2.496
		c0,0.789,0.159,1.395,0.478,1.816s0.79,0.633,1.415,0.633c0.535,0,1.084-0.115,1.646-0.346v0.861
		C201.219,49.986,200.678,50.098,200.025,50.098z"/>
	<path d="M206.185,50.098c-0.949,0-1.698-0.289-2.247-0.867s-0.823-1.381-0.823-2.408c0-1.035,0.255-1.857,0.765-2.467
		s1.194-0.914,2.054-0.914c0.805,0,1.441,0.265,1.91,0.794s0.703,1.228,0.703,2.095v0.615h-4.424c0.02,0.754,0.21,1.326,0.571,1.717
		s0.87,0.586,1.526,0.586c0.691,0,1.375-0.145,2.051-0.434v0.867c-0.344,0.148-0.669,0.255-0.976,0.319
		S206.618,50.098,206.185,50.098z M205.921,44.256c-0.516,0-0.927,0.168-1.233,0.504s-0.487,0.801-0.542,1.395h3.357
		c0-0.613-0.137-1.083-0.41-1.409S206.429,44.256,205.921,44.256z"/>
	<path d="M217.735,42.182c-0.941,0-1.685,0.313-2.229,0.94s-0.817,1.485-0.817,2.575c0,1.121,0.263,1.987,0.788,2.599
		s1.274,0.917,2.247,0.917c0.598,0,1.279-0.107,2.045-0.322v0.873c-0.594,0.223-1.326,0.334-2.197,0.334
		c-1.262,0-2.235-0.383-2.921-1.148s-1.028-1.854-1.028-3.264c0-0.883,0.165-1.656,0.495-2.32s0.807-1.176,1.43-1.535
		s1.356-0.539,2.2-0.539c0.898,0,1.684,0.164,2.355,0.492l-0.422,0.855C219.032,42.334,218.384,42.182,217.735,42.182z"/>
	<path d="M225.74,49.98l-0.193-0.914H225.5c-0.32,0.402-0.64,0.675-0.958,0.817s-0.716,0.214-1.192,0.214
		c-0.637,0-1.136-0.164-1.497-0.492s-0.542-0.795-0.542-1.4c0-1.297,1.037-1.977,3.111-2.039l1.09-0.035v-0.398
		c0-0.504-0.108-0.876-0.325-1.116s-0.563-0.36-1.04-0.36c-0.535,0-1.141,0.164-1.816,0.492l-0.299-0.744
		c0.316-0.172,0.663-0.307,1.04-0.404s0.755-0.146,1.134-0.146c0.766,0,1.333,0.17,1.702,0.51s0.554,0.885,0.554,1.635v4.383H225.74
		z M223.543,49.295c0.605,0,1.081-0.166,1.427-0.498s0.519-0.797,0.519-1.395v-0.58l-0.973,0.041
		c-0.773,0.027-1.331,0.147-1.673,0.36s-0.513,0.544-0.513,0.993c0,0.352,0.106,0.619,0.319,0.803S223.16,49.295,223.543,49.295z"/>
	<path d="M229.727,46.693c0.168-0.238,0.424-0.551,0.768-0.938l2.074-2.197h1.154l-2.602,2.736l2.783,3.686h-1.178l-2.268-3.035
		l-0.732,0.633v2.402h-0.961v-9.117h0.961v4.834c0,0.215-0.016,0.547-0.047,0.996H229.727z"/>
	<path d="M238.077,50.098c-0.949,0-1.698-0.289-2.247-0.867s-0.823-1.381-0.823-2.408c0-1.035,0.255-1.857,0.765-2.467
		s1.194-0.914,2.054-0.914c0.805,0,1.441,0.265,1.91,0.794s0.703,1.228,0.703,2.095v0.615h-4.424c0.02,0.754,0.21,1.326,0.571,1.717
		s0.87,0.586,1.526,0.586c0.691,0,1.375-0.145,2.051-0.434v0.867c-0.344,0.148-0.669,0.255-0.976,0.319
		S238.511,50.098,238.077,50.098z M237.813,44.256c-0.516,0-0.927,0.168-1.233,0.504s-0.487,0.801-0.542,1.395h3.357
		c0-0.613-0.137-1.083-0.41-1.409S238.321,44.256,237.813,44.256z"/>
	<path d="M246.539,48.229c0,0.598-0.223,1.059-0.668,1.383s-1.07,0.486-1.875,0.486c-0.852,0-1.516-0.135-1.992-0.404v-0.902
		c0.309,0.156,0.64,0.279,0.993,0.369s0.694,0.135,1.022,0.135c0.508,0,0.898-0.081,1.172-0.243s0.41-0.409,0.41-0.741
		c0-0.25-0.108-0.464-0.325-0.642s-0.64-0.388-1.269-0.63c-0.598-0.223-1.022-0.417-1.274-0.583s-0.439-0.354-0.562-0.565
		s-0.185-0.463-0.185-0.756c0-0.523,0.213-0.937,0.639-1.239s1.01-0.454,1.752-0.454c0.691,0,1.367,0.141,2.027,0.422l-0.346,0.791
		c-0.645-0.266-1.229-0.398-1.752-0.398c-0.461,0-0.809,0.072-1.043,0.217s-0.352,0.344-0.352,0.598
		c0,0.172,0.044,0.318,0.132,0.439s0.229,0.236,0.425,0.346s0.57,0.268,1.125,0.475c0.762,0.277,1.276,0.557,1.544,0.838
		S246.539,47.803,246.539,48.229z"/>
	<path d="M255.09,41.414l-3.193,8.566h-0.973l3.193-8.566H255.09z"/>
	<path d="M263.776,42.182c-0.941,0-1.685,0.313-2.229,0.94s-0.817,1.485-0.817,2.575c0,1.121,0.263,1.987,0.788,2.599
		s1.274,0.917,2.247,0.917c0.598,0,1.279-0.107,2.045-0.322v0.873c-0.594,0.223-1.326,0.334-2.197,0.334
		c-1.262,0-2.235-0.383-2.921-1.148s-1.028-1.854-1.028-3.264c0-0.883,0.165-1.656,0.495-2.32s0.807-1.176,1.43-1.535
		s1.356-0.539,2.2-0.539c0.898,0,1.684,0.164,2.355,0.492l-0.422,0.855C265.073,42.334,264.425,42.182,263.776,42.182z"/>
	<path d="M271.781,49.98l-0.193-0.914h-0.047c-0.32,0.402-0.64,0.675-0.958,0.817s-0.716,0.214-1.192,0.214
		c-0.637,0-1.136-0.164-1.497-0.492s-0.542-0.795-0.542-1.4c0-1.297,1.037-1.977,3.111-2.039l1.09-0.035v-0.398
		c0-0.504-0.108-0.876-0.325-1.116s-0.563-0.36-1.04-0.36c-0.535,0-1.141,0.164-1.816,0.492l-0.299-0.744
		c0.316-0.172,0.663-0.307,1.04-0.404s0.755-0.146,1.134-0.146c0.766,0,1.333,0.17,1.702,0.51s0.554,0.885,0.554,1.635v4.383
		H271.781z M269.584,49.295c0.605,0,1.081-0.166,1.427-0.498s0.519-0.797,0.519-1.395v-0.58l-0.973,0.041
		c-0.773,0.027-1.331,0.147-1.673,0.36s-0.513,0.544-0.513,0.993c0,0.352,0.106,0.619,0.319,0.803S269.201,49.295,269.584,49.295z"
		/>
	<path d="M278.948,48.229c0,0.598-0.223,1.059-0.668,1.383s-1.07,0.486-1.875,0.486c-0.852,0-1.516-0.135-1.992-0.404v-0.902
		c0.309,0.156,0.64,0.279,0.993,0.369s0.694,0.135,1.022,0.135c0.508,0,0.898-0.081,1.172-0.243s0.41-0.409,0.41-0.741
		c0-0.25-0.108-0.464-0.325-0.642s-0.64-0.388-1.269-0.63c-0.598-0.223-1.022-0.417-1.274-0.583s-0.439-0.354-0.562-0.565
		s-0.185-0.463-0.185-0.756c0-0.523,0.213-0.937,0.639-1.239s1.01-0.454,1.752-0.454c0.691,0,1.367,0.141,2.027,0.422l-0.346,0.791
		c-0.645-0.266-1.229-0.398-1.752-0.398c-0.461,0-0.809,0.072-1.043,0.217s-0.352,0.344-0.352,0.598
		c0,0.172,0.044,0.318,0.132,0.439s0.229,0.236,0.425,0.346s0.57,0.268,1.125,0.475c0.762,0.277,1.276,0.557,1.544,0.838
		S278.948,47.803,278.948,48.229z"/>
	<path d="M282.904,49.295c0.172,0,0.338-0.013,0.498-0.038s0.287-0.052,0.381-0.079v0.744c-0.105,0.051-0.261,0.093-0.466,0.126
		s-0.39,0.05-0.554,0.05c-1.242,0-1.863-0.654-1.863-1.963v-3.82h-0.92v-0.469l0.92-0.404l0.41-1.371h0.562v1.488h1.863v0.756
		h-1.863v3.779c0,0.387,0.092,0.684,0.275,0.891S282.584,49.295,282.904,49.295z"/>
	<path d="M288.08,50.098c-0.949,0-1.698-0.289-2.247-0.867s-0.823-1.381-0.823-2.408c0-1.035,0.255-1.857,0.765-2.467
		s1.194-0.914,2.054-0.914c0.805,0,1.441,0.265,1.91,0.794s0.703,1.228,0.703,2.095v0.615h-4.424c0.02,0.754,0.21,1.326,0.571,1.717
		s0.87,0.586,1.526,0.586c0.691,0,1.375-0.145,2.051-0.434v0.867c-0.344,0.148-0.669,0.255-0.976,0.319
		S288.514,50.098,288.08,50.098z M287.816,44.256c-0.516,0-0.927,0.168-1.233,0.504s-0.487,0.801-0.542,1.395h3.357
		c0-0.613-0.137-1.083-0.41-1.409S288.324,44.256,287.816,44.256z"/>
	<path d="M293.372,49.98h-0.973v-9.117h0.973V49.98z"/>
	<path d="M296.707,49.98h-0.973v-9.117h0.973V49.98z"/>
	<path d="M303.019,49.98l-0.193-0.914h-0.047c-0.32,0.402-0.64,0.675-0.958,0.817s-0.716,0.214-1.192,0.214
		c-0.637,0-1.136-0.164-1.497-0.492s-0.542-0.795-0.542-1.4c0-1.297,1.037-1.977,3.111-2.039l1.09-0.035v-0.398
		c0-0.504-0.108-0.876-0.325-1.116s-0.563-0.36-1.04-0.36c-0.535,0-1.141,0.164-1.816,0.492l-0.299-0.744
		c0.316-0.172,0.663-0.307,1.04-0.404s0.755-0.146,1.134-0.146c0.766,0,1.333,0.17,1.702,0.51s0.554,0.885,0.554,1.635v4.383
		H303.019z M300.821,49.295c0.605,0,1.081-0.166,1.427-0.498s0.519-0.797,0.519-1.395v-0.58l-0.973,0.041
		c-0.773,0.027-1.331,0.147-1.673,0.36s-0.513,0.544-0.513,0.993c0,0.352,0.106,0.619,0.319,0.803S300.438,49.295,300.821,49.295z"
		/>
	<path d="M312.713,41.414l-3.193,8.566h-0.973l3.193-8.566H312.713z"/>
	<path d="M7.699,65.98H6.562l-4.682-7.189H1.834c0.062,0.844,0.094,1.617,0.094,2.32v4.869h-0.92v-8.566h1.125l4.67,7.16H6.85
		c-0.008-0.105-0.025-0.444-0.053-1.017S6.76,62.576,6.768,62.33v-4.916h0.932V65.98z"/>
	<path d="M14.157,65.98l-0.193-0.914h-0.047c-0.32,0.402-0.64,0.675-0.958,0.817s-0.716,0.214-1.192,0.214
		c-0.637,0-1.136-0.164-1.497-0.492s-0.542-0.795-0.542-1.4c0-1.297,1.037-1.977,3.111-2.039l1.09-0.035v-0.398
		c0-0.504-0.108-0.876-0.325-1.116s-0.563-0.36-1.04-0.36c-0.535,0-1.141,0.164-1.816,0.492l-0.299-0.744
		c0.316-0.172,0.663-0.307,1.04-0.404s0.755-0.146,1.134-0.146c0.766,0,1.333,0.17,1.702,0.51s0.554,0.885,0.554,1.635v4.383H14.157
		z M11.96,65.295c0.605,0,1.081-0.166,1.427-0.498s0.519-0.797,0.519-1.395v-0.58l-0.973,0.041c-0.773,0.027-1.331,0.147-1.673,0.36
		s-0.513,0.544-0.513,0.993c0,0.352,0.106,0.619,0.319,0.803S11.577,65.295,11.96,65.295z"/>
	<path d="M19.256,65.295c0.172,0,0.338-0.013,0.498-0.038s0.287-0.052,0.381-0.079v0.744c-0.105,0.051-0.261,0.093-0.466,0.126
		s-0.39,0.05-0.554,0.05c-1.242,0-1.863-0.654-1.863-1.963v-3.82h-0.92v-0.469l0.92-0.404l0.41-1.371h0.562v1.488h1.863v0.756
		h-1.863v3.779c0,0.387,0.092,0.684,0.275,0.891S18.936,65.295,19.256,65.295z"/>
	<path d="M22.633,59.559v4.166c0,0.523,0.119,0.914,0.357,1.172s0.611,0.387,1.119,0.387c0.672,0,1.163-0.184,1.474-0.551
		s0.466-0.967,0.466-1.799v-3.375h0.973v6.422h-0.803l-0.141-0.861h-0.053c-0.199,0.316-0.476,0.559-0.829,0.727
		s-0.757,0.252-1.21,0.252c-0.781,0-1.366-0.186-1.755-0.557s-0.583-0.965-0.583-1.781v-4.201H22.633z"/>
	<path d="M32.313,59.441c0.285,0,0.541,0.023,0.768,0.07l-0.135,0.902c-0.266-0.059-0.5-0.088-0.703-0.088
		c-0.52,0-0.964,0.211-1.333,0.633s-0.554,0.947-0.554,1.576v3.445h-0.973v-6.422h0.803l0.111,1.189h0.047
		c0.238-0.418,0.525-0.74,0.861-0.967S31.911,59.441,32.313,59.441z"/>
	<path d="M38.531,65.98l-0.193-0.914h-0.047c-0.32,0.402-0.64,0.675-0.958,0.817s-0.716,0.214-1.192,0.214
		c-0.637,0-1.136-0.164-1.497-0.492s-0.542-0.795-0.542-1.4c0-1.297,1.037-1.977,3.111-2.039l1.09-0.035v-0.398
		c0-0.504-0.108-0.876-0.325-1.116s-0.563-0.36-1.04-0.36c-0.535,0-1.141,0.164-1.816,0.492l-0.299-0.744
		c0.316-0.172,0.663-0.307,1.04-0.404s0.755-0.146,1.134-0.146c0.766,0,1.333,0.17,1.702,0.51s0.554,0.885,0.554,1.635v4.383H38.531
		z M36.334,65.295c0.605,0,1.081-0.166,1.427-0.498s0.519-0.797,0.519-1.395v-0.58l-0.973,0.041
		c-0.773,0.027-1.331,0.147-1.673,0.36s-0.513,0.544-0.513,0.993c0,0.352,0.106,0.619,0.319,0.803S35.951,65.295,36.334,65.295z"/>
	<path d="M42.528,65.98h-0.973v-9.117h0.973V65.98z"/>
	<path d="M52.223,61.492h2.912v4.166c-0.453,0.145-0.914,0.254-1.383,0.328s-1.012,0.111-1.629,0.111
		c-1.297,0-2.307-0.386-3.029-1.157s-1.084-1.853-1.084-3.243c0-0.891,0.179-1.671,0.536-2.341s0.872-1.182,1.544-1.535
		s1.459-0.53,2.361-0.53c0.914,0,1.766,0.168,2.555,0.504l-0.387,0.879c-0.773-0.328-1.518-0.492-2.232-0.492
		c-1.043,0-1.857,0.311-2.443,0.932s-0.879,1.482-0.879,2.584c0,1.156,0.282,2.033,0.847,2.631s1.394,0.896,2.487,0.896
		c0.594,0,1.174-0.068,1.74-0.205v-2.637h-1.916V61.492z"/>
	<path d="M60.274,59.441c0.285,0,0.541,0.023,0.768,0.07l-0.135,0.902c-0.266-0.059-0.5-0.088-0.703-0.088
		c-0.52,0-0.964,0.211-1.333,0.633s-0.554,0.947-0.554,1.576v3.445h-0.973v-6.422h0.803l0.111,1.189h0.047
		c0.238-0.418,0.525-0.74,0.861-0.967S59.872,59.441,60.274,59.441z"/>
	<path d="M65.256,66.098c-0.949,0-1.698-0.289-2.247-0.867s-0.823-1.381-0.823-2.408c0-1.035,0.255-1.857,0.765-2.467
		s1.194-0.914,2.054-0.914c0.805,0,1.441,0.265,1.91,0.794s0.703,1.228,0.703,2.095v0.615h-4.424c0.02,0.754,0.21,1.326,0.571,1.717
		s0.87,0.586,1.526,0.586c0.691,0,1.375-0.145,2.051-0.434v0.867c-0.344,0.148-0.669,0.255-0.976,0.319S65.689,66.098,65.256,66.098
		z M64.992,60.256c-0.516,0-0.927,0.168-1.233,0.504s-0.487,0.801-0.542,1.395h3.357c0-0.613-0.137-1.083-0.41-1.409
		S65.5,60.256,64.992,60.256z"/>
	<path d="M72.288,66.098c-0.949,0-1.698-0.289-2.247-0.867s-0.823-1.381-0.823-2.408c0-1.035,0.255-1.857,0.765-2.467
		s1.194-0.914,2.054-0.914c0.805,0,1.441,0.265,1.91,0.794s0.703,1.228,0.703,2.095v0.615h-4.424c0.02,0.754,0.21,1.326,0.571,1.717
		s0.87,0.586,1.526,0.586c0.691,0,1.375-0.145,2.051-0.434v0.867c-0.344,0.148-0.669,0.255-0.976,0.319S72.722,66.098,72.288,66.098
		z M72.024,60.256c-0.516,0-0.927,0.168-1.233,0.504s-0.487,0.801-0.542,1.395h3.357c0-0.613-0.137-1.083-0.41-1.409
		S72.532,60.256,72.024,60.256z"/>
	<path d="M81.002,65.98v-4.154c0-0.523-0.119-0.914-0.357-1.172s-0.611-0.387-1.119-0.387c-0.672,0-1.164,0.182-1.477,0.545
		s-0.469,0.963-0.469,1.799v3.369h-0.973v-6.422h0.791l0.158,0.879h0.047c0.199-0.316,0.479-0.562,0.838-0.735
		s0.76-0.261,1.201-0.261c0.773,0,1.355,0.187,1.746,0.56s0.586,0.97,0.586,1.79v4.189H81.002z"/>
	<path d="M90.474,65.98h-0.996v-7.682h-2.713v-0.885h6.422v0.885h-2.713V65.98z"/>
	<path d="M97.342,66.098c-0.949,0-1.698-0.289-2.247-0.867s-0.823-1.381-0.823-2.408c0-1.035,0.255-1.857,0.765-2.467
		s1.194-0.914,2.054-0.914c0.805,0,1.441,0.265,1.91,0.794s0.703,1.228,0.703,2.095v0.615h-4.424c0.02,0.754,0.21,1.326,0.571,1.717
		s0.87,0.586,1.526,0.586c0.691,0,1.375-0.145,2.051-0.434v0.867c-0.344,0.148-0.669,0.255-0.976,0.319S97.775,66.098,97.342,66.098
		z M97.078,60.256c-0.516,0-0.927,0.168-1.233,0.504s-0.487,0.801-0.542,1.395h3.357c0-0.613-0.137-1.083-0.41-1.409
		S97.586,60.256,97.078,60.256z"/>
	<path d="M105.61,65.98l-0.193-0.914h-0.047c-0.32,0.402-0.64,0.675-0.958,0.817s-0.716,0.214-1.192,0.214
		c-0.637,0-1.136-0.164-1.497-0.492s-0.542-0.795-0.542-1.4c0-1.297,1.037-1.977,3.111-2.039l1.09-0.035v-0.398
		c0-0.504-0.108-0.876-0.325-1.116s-0.563-0.36-1.04-0.36c-0.535,0-1.141,0.164-1.816,0.492l-0.299-0.744
		c0.316-0.172,0.663-0.307,1.04-0.404s0.755-0.146,1.134-0.146c0.766,0,1.333,0.17,1.702,0.51s0.554,0.885,0.554,1.635v4.383H105.61
		z M103.413,65.295c0.605,0,1.081-0.166,1.427-0.498s0.519-0.797,0.519-1.395v-0.58l-0.973,0.041
		c-0.773,0.027-1.331,0.147-1.673,0.36s-0.513,0.544-0.513,0.993c0,0.352,0.106,0.619,0.319,0.803S103.03,65.295,103.413,65.295z"/>
	<path d="M117.631,59.91c0,0.867-0.296,1.534-0.888,2.001s-1.438,0.7-2.54,0.7h-1.008v3.369h-0.996v-8.566h2.221
		C116.561,57.414,117.631,58.246,117.631,59.91z M113.195,61.756h0.896c0.883,0,1.521-0.143,1.916-0.428s0.592-0.742,0.592-1.371
		c0-0.566-0.186-0.988-0.557-1.266s-0.949-0.416-1.734-0.416h-1.113V61.756z"/>
	<path d="M125.12,62.764c0,1.047-0.264,1.864-0.791,2.452s-1.256,0.882-2.186,0.882c-0.574,0-1.084-0.135-1.529-0.404
		s-0.789-0.656-1.031-1.16s-0.363-1.094-0.363-1.77c0-1.047,0.262-1.862,0.785-2.446s1.25-0.876,2.18-0.876
		c0.898,0,1.612,0.299,2.142,0.896S125.12,61.744,125.12,62.764z M120.228,62.764c0,0.82,0.164,1.445,0.492,1.875
		s0.811,0.645,1.447,0.645s1.12-0.214,1.45-0.642s0.495-1.054,0.495-1.878c0-0.816-0.165-1.437-0.495-1.86s-0.817-0.636-1.462-0.636
		c-0.637,0-1.117,0.209-1.441,0.627S120.228,61.936,120.228,62.764z"/>
	<path d="M132.369,65.98l-1.178-3.768c-0.074-0.23-0.213-0.754-0.416-1.57h-0.047c-0.156,0.684-0.293,1.211-0.41,1.582l-1.213,3.756
		h-1.125l-1.752-6.422h1.02c0.414,1.613,0.729,2.842,0.946,3.686s0.341,1.412,0.372,1.705h0.047
		c0.043-0.223,0.112-0.511,0.208-0.864s0.179-0.634,0.249-0.841l1.178-3.686h1.055l1.148,3.686c0.219,0.672,0.367,1.236,0.445,1.693
		h0.047c0.016-0.141,0.058-0.357,0.126-0.65s0.476-1.869,1.222-4.729h1.008l-1.775,6.422H132.369z"/>
	<path d="M139.472,66.098c-0.949,0-1.698-0.289-2.247-0.867s-0.823-1.381-0.823-2.408c0-1.035,0.255-1.857,0.765-2.467
		s1.194-0.914,2.054-0.914c0.805,0,1.441,0.265,1.91,0.794s0.703,1.228,0.703,2.095v0.615h-4.424c0.02,0.754,0.21,1.326,0.571,1.717
		s0.87,0.586,1.526,0.586c0.691,0,1.375-0.145,2.051-0.434v0.867c-0.344,0.148-0.669,0.255-0.976,0.319
		S139.905,66.098,139.472,66.098z M139.208,60.256c-0.516,0-0.927,0.168-1.233,0.504s-0.487,0.801-0.542,1.395h3.357
		c0-0.613-0.137-1.083-0.41-1.409S139.716,60.256,139.208,60.256z"/>
	<path d="M146.721,59.441c0.285,0,0.541,0.023,0.768,0.07l-0.135,0.902c-0.266-0.059-0.5-0.088-0.703-0.088
		c-0.52,0-0.964,0.211-1.333,0.633s-0.554,0.947-0.554,1.576v3.445h-0.973v-6.422h0.803l0.111,1.189h0.047
		c0.238-0.418,0.525-0.74,0.861-0.967S146.318,59.441,146.721,59.441z"/>
	<path d="M155.659,57.414l-3.193,8.566h-0.973l3.193-8.566H155.659z"/>
	<path d="M167.368,65.98h-1.137l-4.682-7.189h-0.047c0.062,0.844,0.094,1.617,0.094,2.32v4.869h-0.92v-8.566h1.125l4.67,7.16h0.047
		c-0.008-0.105-0.025-0.444-0.053-1.017s-0.037-0.981-0.029-1.228v-4.916h0.932V65.98z"/>
	<path d="M170.791,59.559v4.166c0,0.523,0.119,0.914,0.357,1.172s0.611,0.387,1.119,0.387c0.672,0,1.163-0.184,1.474-0.551
		s0.466-0.967,0.466-1.799v-3.375h0.973v6.422h-0.803l-0.141-0.861h-0.053c-0.199,0.316-0.476,0.559-0.829,0.727
		s-0.757,0.252-1.21,0.252c-0.781,0-1.366-0.186-1.755-0.557s-0.583-0.965-0.583-1.781v-4.201H170.791z"/>
	<path d="M179.617,65.295c0.172,0,0.338-0.013,0.498-0.038s0.287-0.052,0.381-0.079v0.744c-0.105,0.051-0.261,0.093-0.466,0.126
		s-0.39,0.05-0.554,0.05c-1.242,0-1.863-0.654-1.863-1.963v-3.82h-0.92v-0.469l0.92-0.404l0.41-1.371h0.562v1.488h1.863v0.756
		h-1.863v3.779c0,0.387,0.092,0.684,0.275,0.891S179.297,65.295,179.617,65.295z"/>
	<path d="M188.279,65.98h-0.996v-7.682h-2.713v-0.885h6.422v0.885h-2.713V65.98z"/>
	<path d="M197.978,62.764c0,1.047-0.264,1.864-0.791,2.452s-1.256,0.882-2.186,0.882c-0.574,0-1.084-0.135-1.529-0.404
		s-0.789-0.656-1.031-1.16s-0.363-1.094-0.363-1.77c0-1.047,0.262-1.862,0.785-2.446s1.25-0.876,2.18-0.876
		c0.898,0,1.612,0.299,2.142,0.896S197.978,61.744,197.978,62.764z M193.085,62.764c0,0.82,0.164,1.445,0.492,1.875
		s0.811,0.645,1.447,0.645s1.12-0.214,1.45-0.642s0.495-1.054,0.495-1.878c0-0.816-0.165-1.437-0.495-1.86s-0.817-0.636-1.462-0.636
		c-0.637,0-1.117,0.209-1.441,0.627S193.085,61.936,193.085,62.764z"/>
	<path d="M202.971,66.098c-0.418,0-0.8-0.077-1.146-0.231s-0.636-0.392-0.87-0.712h-0.07c0.047,0.375,0.07,0.73,0.07,1.066v2.643
		h-0.973v-9.305h0.791l0.135,0.879h0.047c0.25-0.352,0.541-0.605,0.873-0.762s0.713-0.234,1.143-0.234
		c0.852,0,1.509,0.291,1.972,0.873s0.694,1.398,0.694,2.449c0,1.055-0.235,1.874-0.706,2.458S203.807,66.098,202.971,66.098z
		 M202.83,60.268c-0.656,0-1.131,0.182-1.424,0.545s-0.443,0.941-0.451,1.734v0.217c0,0.902,0.15,1.548,0.451,1.937
		s0.783,0.583,1.447,0.583c0.555,0,0.989-0.225,1.304-0.674s0.472-1.068,0.472-1.857c0-0.801-0.157-1.415-0.472-1.843
		S203.4,60.268,202.83,60.268z"/>
	<path d="M210.625,66.098c-0.418,0-0.8-0.077-1.146-0.231s-0.636-0.392-0.87-0.712h-0.07c0.047,0.375,0.07,0.73,0.07,1.066v2.643
		h-0.973v-9.305h0.791l0.135,0.879h0.047c0.25-0.352,0.541-0.605,0.873-0.762s0.713-0.234,1.143-0.234
		c0.852,0,1.509,0.291,1.972,0.873s0.694,1.398,0.694,2.449c0,1.055-0.235,1.874-0.706,2.458S211.461,66.098,210.625,66.098z
		 M210.484,60.268c-0.656,0-1.131,0.182-1.424,0.545s-0.443,0.941-0.451,1.734v0.217c0,0.902,0.15,1.548,0.451,1.937
		s0.783,0.583,1.447,0.583c0.555,0,0.989-0.225,1.304-0.674s0.472-1.068,0.472-1.857c0-0.801-0.157-1.415-0.472-1.843
		S211.055,60.268,210.484,60.268z"/>
	<path d="M215.208,57.818c0-0.223,0.055-0.386,0.164-0.489s0.246-0.155,0.41-0.155c0.156,0,0.291,0.053,0.404,0.158
		s0.17,0.268,0.17,0.486s-0.057,0.382-0.17,0.489s-0.248,0.161-0.404,0.161c-0.164,0-0.301-0.054-0.41-0.161
		S215.208,58.037,215.208,57.818z M216.263,65.98h-0.973v-6.422h0.973V65.98z"/>
	<path d="M223.02,65.98v-4.154c0-0.523-0.119-0.914-0.357-1.172s-0.611-0.387-1.119-0.387c-0.672,0-1.164,0.182-1.477,0.545
		s-0.469,0.963-0.469,1.799v3.369h-0.973v-6.422h0.791l0.158,0.879h0.047c0.199-0.316,0.479-0.562,0.838-0.735
		s0.76-0.261,1.201-0.261c0.773,0,1.355,0.187,1.746,0.56s0.586,0.97,0.586,1.79v4.189H223.02z"/>
	<path d="M231.546,59.559v0.615l-1.189,0.141c0.109,0.137,0.207,0.315,0.293,0.536s0.129,0.47,0.129,0.747
		c0,0.629-0.215,1.131-0.645,1.506s-1.02,0.562-1.77,0.562c-0.191,0-0.371-0.016-0.539-0.047c-0.414,0.219-0.621,0.494-0.621,0.826
		c0,0.176,0.072,0.306,0.217,0.39s0.393,0.126,0.744,0.126h1.137c0.695,0,1.229,0.146,1.603,0.439s0.56,0.719,0.56,1.277
		c0,0.711-0.285,1.253-0.855,1.626s-1.402,0.56-2.496,0.56c-0.84,0-1.487-0.156-1.942-0.469s-0.683-0.754-0.683-1.324
		c0-0.391,0.125-0.729,0.375-1.014s0.602-0.479,1.055-0.58c-0.164-0.074-0.302-0.189-0.413-0.346s-0.167-0.338-0.167-0.545
		c0-0.234,0.062-0.439,0.188-0.615s0.322-0.346,0.592-0.51c-0.332-0.137-0.603-0.369-0.812-0.697s-0.313-0.703-0.313-1.125
		c0-0.703,0.211-1.245,0.633-1.626s1.02-0.571,1.793-0.571c0.336,0,0.639,0.039,0.908,0.117H231.546z M226.425,67.059
		c0,0.348,0.146,0.611,0.439,0.791s0.713,0.27,1.26,0.27c0.816,0,1.421-0.122,1.813-0.366s0.589-0.575,0.589-0.993
		c0-0.348-0.107-0.589-0.322-0.724s-0.619-0.202-1.213-0.202h-1.166c-0.441,0-0.785,0.105-1.031,0.316
		S226.425,66.664,226.425,67.059z M226.952,61.615c0,0.449,0.127,0.789,0.381,1.02s0.607,0.346,1.061,0.346
		c0.949,0,1.424-0.461,1.424-1.383c0-0.965-0.48-1.447-1.441-1.447c-0.457,0-0.809,0.123-1.055,0.369S226.952,61.131,226.952,61.615
		z"/>
	<path d="M239.834,57.414l-3.193,8.566h-0.973l3.193-8.566H239.834z"/>
	<path d="M249.686,63.701c0,0.754-0.273,1.342-0.82,1.764s-1.289,0.633-2.227,0.633c-1.016,0-1.797-0.131-2.344-0.393v-0.961
		c0.352,0.148,0.734,0.266,1.148,0.352s0.824,0.129,1.23,0.129c0.664,0,1.164-0.126,1.5-0.378s0.504-0.603,0.504-1.052
		c0-0.297-0.06-0.54-0.179-0.729s-0.318-0.364-0.598-0.524s-0.704-0.342-1.274-0.545c-0.797-0.285-1.366-0.623-1.708-1.014
		s-0.513-0.9-0.513-1.529c0-0.66,0.248-1.186,0.744-1.576s1.152-0.586,1.969-0.586c0.852,0,1.635,0.156,2.35,0.469l-0.311,0.867
		c-0.707-0.297-1.395-0.445-2.062-0.445c-0.527,0-0.939,0.113-1.236,0.34s-0.445,0.541-0.445,0.943c0,0.297,0.055,0.54,0.164,0.729
		s0.294,0.363,0.554,0.521s0.657,0.333,1.192,0.524c0.898,0.32,1.517,0.664,1.854,1.031S249.686,63.115,249.686,63.701z"/>
	<path d="M251.509,57.818c0-0.223,0.055-0.386,0.164-0.489s0.246-0.155,0.41-0.155c0.156,0,0.291,0.053,0.404,0.158
		s0.17,0.268,0.17,0.486s-0.057,0.382-0.17,0.489s-0.248,0.161-0.404,0.161c-0.164,0-0.301-0.054-0.41-0.161
		S251.509,58.037,251.509,57.818z M252.563,65.98h-0.973v-6.422h0.973V65.98z"/>
	<path d="M255.898,65.98h-0.973v-9.117h0.973V65.98z"/>
	<path d="M259.223,62.693c0.168-0.238,0.424-0.551,0.768-0.938l2.074-2.197h1.154l-2.602,2.736l2.783,3.686h-1.178l-2.268-3.035
		l-0.732,0.633v2.402h-0.961v-9.117h0.961v4.834c0,0.215-0.016,0.547-0.047,0.996H259.223z"/>
	<path d="M263.841,59.559h1.043l1.406,3.662c0.309,0.836,0.5,1.439,0.574,1.811h0.047c0.051-0.199,0.157-0.54,0.319-1.022
		s0.692-1.966,1.591-4.45h1.043l-2.76,7.312c-0.273,0.723-0.593,1.235-0.958,1.538s-0.813,0.454-1.345,0.454
		c-0.297,0-0.59-0.033-0.879-0.1v-0.779c0.215,0.047,0.455,0.07,0.721,0.07c0.668,0,1.145-0.375,1.43-1.125l0.357-0.914
		L263.841,59.559z"/>
	<path d="M279.604,63.701c0,0.754-0.273,1.342-0.82,1.764s-1.289,0.633-2.227,0.633c-1.016,0-1.797-0.131-2.344-0.393v-0.961
		c0.352,0.148,0.734,0.266,1.148,0.352s0.824,0.129,1.23,0.129c0.664,0,1.164-0.126,1.5-0.378s0.504-0.603,0.504-1.052
		c0-0.297-0.06-0.54-0.179-0.729s-0.318-0.364-0.598-0.524s-0.704-0.342-1.274-0.545c-0.797-0.285-1.366-0.623-1.708-1.014
		s-0.513-0.9-0.513-1.529c0-0.66,0.248-1.186,0.744-1.576s1.152-0.586,1.969-0.586c0.852,0,1.635,0.156,2.35,0.469l-0.311,0.867
		c-0.707-0.297-1.395-0.445-2.062-0.445c-0.527,0-0.939,0.113-1.236,0.34s-0.445,0.541-0.445,0.943c0,0.297,0.055,0.54,0.164,0.729
		s0.294,0.363,0.554,0.521s0.657,0.333,1.192,0.524c0.898,0.32,1.517,0.664,1.854,1.031S279.604,63.115,279.604,63.701z"/>
	<path d="M285.904,65.98v-4.154c0-0.523-0.119-0.914-0.357-1.172s-0.611-0.387-1.119-0.387c-0.672,0-1.164,0.182-1.477,0.545
		s-0.469,0.963-0.469,1.799v3.369h-0.973v-6.422h0.791l0.158,0.879h0.047c0.199-0.316,0.479-0.562,0.838-0.735
		s0.76-0.261,1.201-0.261c0.773,0,1.355,0.187,1.746,0.56s0.586,0.97,0.586,1.79v4.189H285.904z"/>
	<path d="M294.719,62.764c0,1.047-0.264,1.864-0.791,2.452s-1.256,0.882-2.186,0.882c-0.574,0-1.084-0.135-1.529-0.404
		s-0.789-0.656-1.031-1.16s-0.363-1.094-0.363-1.77c0-1.047,0.262-1.862,0.785-2.446s1.25-0.876,2.18-0.876
		c0.898,0,1.612,0.299,2.142,0.896S294.719,61.744,294.719,62.764z M289.826,62.764c0,0.82,0.164,1.445,0.492,1.875
		s0.811,0.645,1.447,0.645s1.12-0.214,1.45-0.642s0.495-1.054,0.495-1.878c0-0.816-0.165-1.437-0.495-1.86s-0.817-0.636-1.462-0.636
		c-0.637,0-1.117,0.209-1.441,0.627S289.826,61.936,289.826,62.764z"/>
	<path d="M301.968,65.98l-1.178-3.768c-0.074-0.23-0.213-0.754-0.416-1.57h-0.047c-0.156,0.684-0.293,1.211-0.41,1.582l-1.213,3.756
		h-1.125l-1.752-6.422h1.02c0.414,1.613,0.729,2.842,0.946,3.686s0.341,1.412,0.372,1.705h0.047
		c0.043-0.223,0.112-0.511,0.208-0.864s0.179-0.634,0.249-0.841l1.178-3.686h1.055l1.148,3.686c0.219,0.672,0.367,1.236,0.445,1.693
		h0.047c0.016-0.141,0.058-0.357,0.126-0.65s0.476-1.869,1.222-4.729h1.008l-1.775,6.422H301.968z"/>
	<path d="M305.818,63.209v-0.891h2.877v0.891H305.818z"/>
	<path d="M3.756,76.314H2.121v5.666H1.148v-5.666H0v-0.439l1.148-0.352v-0.357c0-1.578,0.689-2.367,2.068-2.367
		c0.34,0,0.738,0.068,1.195,0.205L4.16,73.783c-0.375-0.121-0.695-0.182-0.961-0.182c-0.367,0-0.639,0.122-0.814,0.366
		s-0.264,0.636-0.264,1.175v0.416h1.635V76.314z M5.9,81.98H4.928v-9.117H5.9V81.98z"/>
	<path d="M12.212,81.98l-0.193-0.914h-0.047c-0.32,0.402-0.64,0.675-0.958,0.817s-0.716,0.214-1.192,0.214
		c-0.637,0-1.136-0.164-1.497-0.492s-0.542-0.795-0.542-1.4c0-1.297,1.037-1.977,3.111-2.039l1.09-0.035v-0.398
		c0-0.504-0.108-0.876-0.325-1.116s-0.563-0.36-1.04-0.36c-0.535,0-1.141,0.164-1.816,0.492l-0.299-0.744
		c0.316-0.172,0.663-0.307,1.04-0.404s0.755-0.146,1.134-0.146c0.766,0,1.333,0.17,1.702,0.51s0.554,0.885,0.554,1.635v4.383H12.212
		z M10.015,81.295c0.605,0,1.081-0.166,1.427-0.498S11.96,80,11.96,79.402v-0.58l-0.973,0.041c-0.773,0.027-1.331,0.147-1.673,0.36
		s-0.513,0.544-0.513,0.993c0,0.352,0.106,0.619,0.319,0.803S9.632,81.295,10.015,81.295z"/>
	<path d="M16.197,78.693c0.168-0.238,0.424-0.551,0.768-0.938l2.074-2.197h1.154l-2.602,2.736l2.783,3.686h-1.178l-2.268-3.035
		l-0.732,0.633v2.402h-0.961v-9.117h0.961v4.834c0,0.215-0.016,0.547-0.047,0.996H16.197z"/>
	<path d="M24.549,82.098c-0.949,0-1.698-0.289-2.247-0.867s-0.823-1.381-0.823-2.408c0-1.035,0.255-1.857,0.765-2.467
		s1.194-0.914,2.054-0.914c0.805,0,1.441,0.265,1.91,0.794s0.703,1.228,0.703,2.095v0.615h-4.424c0.02,0.754,0.21,1.326,0.571,1.717
		s0.87,0.586,1.526,0.586c0.691,0,1.375-0.145,2.051-0.434v0.867c-0.344,0.148-0.669,0.255-0.976,0.319S24.982,82.098,24.549,82.098
		z M24.285,76.256c-0.516,0-0.927,0.168-1.233,0.504s-0.487,0.801-0.542,1.395h3.357c0-0.613-0.137-1.083-0.41-1.409
		S24.793,76.256,24.285,76.256z"/>
	<path d="M37.266,79.701c0,0.754-0.273,1.342-0.82,1.764s-1.289,0.633-2.227,0.633c-1.016,0-1.797-0.131-2.344-0.393v-0.961
		c0.352,0.148,0.734,0.266,1.148,0.352s0.824,0.129,1.23,0.129c0.664,0,1.164-0.126,1.5-0.378s0.504-0.603,0.504-1.052
		c0-0.297-0.06-0.54-0.179-0.729s-0.318-0.364-0.598-0.524s-0.704-0.342-1.274-0.545c-0.797-0.285-1.366-0.623-1.708-1.014
		s-0.513-0.9-0.513-1.529c0-0.66,0.248-1.186,0.744-1.576s1.152-0.586,1.969-0.586c0.852,0,1.635,0.156,2.35,0.469l-0.311,0.867
		c-0.707-0.297-1.395-0.445-2.062-0.445c-0.527,0-0.939,0.113-1.236,0.34s-0.445,0.541-0.445,0.943c0,0.297,0.055,0.54,0.164,0.729
		s0.294,0.363,0.554,0.521s0.657,0.333,1.192,0.524c0.898,0.32,1.517,0.664,1.854,1.031S37.266,79.115,37.266,79.701z"/>
	<path d="M43.565,81.98v-4.154c0-0.523-0.119-0.914-0.357-1.172s-0.611-0.387-1.119-0.387c-0.676,0-1.169,0.184-1.479,0.551
		s-0.466,0.969-0.466,1.805v3.357h-0.973v-9.117h0.973v2.76c0,0.332-0.016,0.607-0.047,0.826h0.059
		c0.191-0.309,0.464-0.552,0.817-0.729s0.757-0.267,1.21-0.267c0.785,0,1.374,0.187,1.767,0.56s0.589,0.966,0.589,1.778v4.189
		H43.565z"/>
	<path d="M50.785,81.98l-0.193-0.914h-0.047c-0.32,0.402-0.64,0.675-0.958,0.817s-0.716,0.214-1.192,0.214
		c-0.637,0-1.136-0.164-1.497-0.492s-0.542-0.795-0.542-1.4c0-1.297,1.037-1.977,3.111-2.039l1.09-0.035v-0.398
		c0-0.504-0.108-0.876-0.325-1.116s-0.563-0.36-1.04-0.36c-0.535,0-1.141,0.164-1.816,0.492l-0.299-0.744
		c0.316-0.172,0.663-0.307,1.04-0.404s0.755-0.146,1.134-0.146c0.766,0,1.333,0.17,1.702,0.51s0.554,0.885,0.554,1.635v4.383H50.785
		z M48.588,81.295c0.605,0,1.081-0.166,1.427-0.498s0.519-0.797,0.519-1.395v-0.58l-0.973,0.041
		c-0.773,0.027-1.331,0.147-1.673,0.36s-0.513,0.544-0.513,0.993c0,0.352,0.106,0.619,0.319,0.803S48.205,81.295,48.588,81.295z"/>
	<path d="M55.217,81.98l-2.438-6.422h1.043l1.383,3.809c0.312,0.891,0.496,1.469,0.551,1.734h0.047
		c0.043-0.207,0.179-0.636,0.407-1.286s0.741-2.069,1.538-4.257h1.043l-2.438,6.422H55.217z"/>
	<path d="M62.835,82.098c-0.949,0-1.698-0.289-2.247-0.867s-0.823-1.381-0.823-2.408c0-1.035,0.255-1.857,0.765-2.467
		s1.194-0.914,2.054-0.914c0.805,0,1.441,0.265,1.91,0.794s0.703,1.228,0.703,2.095v0.615h-4.424c0.02,0.754,0.21,1.326,0.571,1.717
		s0.87,0.586,1.526,0.586c0.691,0,1.375-0.145,2.051-0.434v0.867c-0.344,0.148-0.669,0.255-0.976,0.319S63.269,82.098,62.835,82.098
		z M62.571,76.256c-0.516,0-0.927,0.168-1.233,0.504s-0.487,0.801-0.542,1.395h3.357c0-0.613-0.137-1.083-0.41-1.409
		S63.079,76.256,62.571,76.256z"/>
	<path d="M71.525,81.119h-0.053c-0.449,0.652-1.121,0.979-2.016,0.979c-0.84,0-1.493-0.287-1.96-0.861s-0.7-1.391-0.7-2.449
		s0.234-1.881,0.703-2.467s1.121-0.879,1.957-0.879c0.871,0,1.539,0.316,2.004,0.949h0.076l-0.041-0.463l-0.023-0.451v-2.613h0.973
		v9.117h-0.791L71.525,81.119z M69.58,81.283c0.664,0,1.146-0.181,1.444-0.542s0.448-0.944,0.448-1.749v-0.205
		c0-0.91-0.151-1.56-0.454-1.948s-0.786-0.583-1.45-0.583c-0.57,0-1.007,0.222-1.31,0.665s-0.454,1.069-0.454,1.878
		c0,0.82,0.15,1.439,0.451,1.857S68.998,81.283,69.58,81.283z"/>
	<path d="M78.371,81.98v-8.566h0.996v8.566H78.371z"/>
	<path d="M84.438,82.098c-0.93,0-1.649-0.286-2.159-0.858s-0.765-1.382-0.765-2.429c0-1.074,0.259-1.904,0.776-2.49
		s1.255-0.879,2.212-0.879c0.309,0,0.617,0.033,0.926,0.1s0.551,0.145,0.727,0.234l-0.299,0.826
		c-0.215-0.086-0.449-0.157-0.703-0.214s-0.479-0.085-0.674-0.085c-1.305,0-1.957,0.832-1.957,2.496
		c0,0.789,0.159,1.395,0.478,1.816s0.79,0.633,1.415,0.633c0.535,0,1.084-0.115,1.646-0.346v0.861
		C85.631,81.986,85.09,82.098,84.438,82.098z"/>
	<path d="M90.597,82.098c-0.949,0-1.698-0.289-2.247-0.867s-0.823-1.381-0.823-2.408c0-1.035,0.255-1.857,0.765-2.467
		s1.194-0.914,2.054-0.914c0.805,0,1.441,0.265,1.91,0.794s0.703,1.228,0.703,2.095v0.615h-4.424c0.02,0.754,0.21,1.326,0.571,1.717
		s0.87,0.586,1.526,0.586c0.691,0,1.375-0.145,2.051-0.434v0.867c-0.344,0.148-0.669,0.255-0.976,0.319S91.03,82.098,90.597,82.098z
		 M90.333,76.256c-0.516,0-0.927,0.168-1.233,0.504s-0.487,0.801-0.542,1.395h3.357c0-0.613-0.137-1.083-0.41-1.409
		S90.841,76.256,90.333,76.256z"/>
	<path d="M94.775,81.359c0-0.262,0.06-0.46,0.179-0.595s0.29-0.202,0.513-0.202c0.227,0,0.403,0.067,0.53,0.202
		s0.19,0.333,0.19,0.595c0,0.254-0.064,0.449-0.193,0.586s-0.305,0.205-0.527,0.205c-0.199,0-0.364-0.062-0.495-0.185
		S94.775,81.641,94.775,81.359z"/>
</g>
<g>
	<path d="M8.995,8.766h6.316v7.816c-1.656,0.703-3.52,1.055-5.59,1.055c-2.703,0-4.775-0.764-6.217-2.291s-2.162-3.689-2.162-6.486
		c0-1.742,0.357-3.287,1.072-4.635s1.738-2.389,3.07-3.123S8.346,0,10.073,0c1.867,0,3.543,0.344,5.027,1.031l-0.48,1.078
		c-1.484-0.688-3.023-1.031-4.617-1.031c-2.258,0-4.049,0.697-5.373,2.092S2.643,6.445,2.643,8.812c0,2.578,0.629,4.518,1.887,5.818
		s3.105,1.951,5.543,1.951c1.578,0,2.918-0.223,4.02-0.668V9.891H8.995V8.766z"/>
	<path d="M22.007,9.938v7.465h-1.195V0.27h4.078c2.125,0,3.695,0.393,4.711,1.178s1.523,1.967,1.523,3.545
		c0,1.148-0.303,2.117-0.908,2.906s-1.525,1.355-2.76,1.699l4.652,7.805h-1.43l-4.418-7.465H22.007z M22.007,8.906h3.27
		c1.445,0,2.566-0.322,3.363-0.967s1.195-1.596,1.195-2.854c0-1.305-0.391-2.254-1.172-2.848s-2.055-0.891-3.82-0.891h-2.836V8.906z
		"/>
	<path d="M45.637,17.402h-9.363V0.27h9.363v1.102h-8.168v6.48h7.711v1.102h-7.711v7.348h8.168V17.402z"/>
	<path d="M60.079,17.402h-9.363V0.27h9.363v1.102h-8.168v6.48h7.711v1.102h-7.711v7.348h8.168V17.402z"/>
	<path d="M77.615,17.402h-1.207L66.259,2.191h-0.094c0.094,1.812,0.141,3.18,0.141,4.102v11.109h-1.148V0.27h1.195L76.49,15.457
		h0.07c-0.07-1.406-0.105-2.742-0.105-4.008V0.27h1.16V17.402z"/>
	<path d="M95.566,17.402h-1.207V1.395h-5.566V0.27h12.34v1.125h-5.566V17.402z"/>
	<path d="M114.239,17.402h-9.363V0.27h9.363v1.102h-8.168v6.48h7.711v1.102h-7.711v7.348h8.168V17.402z"/>
	<path d="M127.567,11.355h-6.961l-2.391,6.047h-1.324l6.891-17.203h0.762l6.75,17.203h-1.348L127.567,11.355z M121.04,10.277h6.129
		l-2.332-6.176c-0.195-0.484-0.43-1.156-0.703-2.016c-0.211,0.75-0.441,1.43-0.691,2.039L121.04,10.277z"/>
	<path d="M142.354,0.27h4.699c2.117,0,3.672,0.359,4.664,1.078s1.488,1.805,1.488,3.258c0,0.992-0.303,1.818-0.908,2.479
		s-1.49,1.084-2.654,1.271v0.07c1.367,0.203,2.373,0.635,3.018,1.295s0.967,1.58,0.967,2.76c0,1.578-0.523,2.793-1.57,3.645
		s-2.531,1.277-4.453,1.277h-5.25V0.27z M143.549,7.898h3.773c1.609,0,2.779-0.268,3.51-0.803s1.096-1.373,1.096-2.514
		s-0.412-1.969-1.236-2.484s-2.053-0.773-3.686-0.773h-3.457V7.898z M143.549,8.953v7.395h4.031c3.172,0,4.758-1.289,4.758-3.867
		c0-2.352-1.672-3.527-5.016-3.527H143.549z"/>
	<path d="M158.601,17.402V0.27h1.195v17.133H158.601z"/>
	<path d="M178.305,17.402h-1.207L166.95,2.191h-0.094c0.094,1.812,0.141,3.18,0.141,4.102v11.109h-1.148V0.27h1.195l10.137,15.188
		h0.07c-0.07-1.406-0.105-2.742-0.105-4.008V0.27h1.16V17.402z"/>
	<path d="M191.094,8.766h6.316v7.816c-1.656,0.703-3.52,1.055-5.59,1.055c-2.703,0-4.775-0.764-6.217-2.291
		s-2.162-3.689-2.162-6.486c0-1.742,0.357-3.287,1.072-4.635s1.738-2.389,3.07-3.123S190.446,0,192.172,0
		c1.867,0,3.543,0.344,5.027,1.031l-0.48,1.078c-1.484-0.688-3.023-1.031-4.617-1.031c-2.258,0-4.049,0.697-5.373,2.092
		s-1.986,3.275-1.986,5.643c0,2.578,0.629,4.518,1.887,5.818s3.105,1.951,5.543,1.951c1.578,0,2.918-0.223,4.02-0.668V9.891h-5.098
		V8.766z"/>
	<path d="M212.369,12.984c0,1.43-0.525,2.562-1.576,3.398s-2.447,1.254-4.189,1.254c-2.094,0-3.699-0.23-4.816-0.691V15.75
		c1.234,0.523,2.809,0.785,4.723,0.785c1.406,0,2.521-0.322,3.346-0.967s1.236-1.49,1.236-2.537c0-0.648-0.137-1.186-0.41-1.611
		s-0.719-0.814-1.336-1.166s-1.523-0.73-2.719-1.137c-1.75-0.602-2.959-1.252-3.627-1.951s-1.002-1.631-1.002-2.795
		c0-1.281,0.502-2.326,1.506-3.135s2.295-1.213,3.873-1.213c1.609,0,3.121,0.305,4.535,0.914l-0.434,1.031
		c-1.422-0.594-2.781-0.891-4.078-0.891c-1.266,0-2.273,0.293-3.023,0.879s-1.125,1.383-1.125,2.391
		c0,0.633,0.115,1.152,0.346,1.559s0.607,0.771,1.131,1.096s1.422,0.713,2.695,1.166c1.336,0.461,2.34,0.908,3.012,1.342
		s1.162,0.926,1.471,1.477S212.369,12.203,212.369,12.984z"/>
	<path d="M231.592,8.812c0,2.719-0.68,4.869-2.039,6.451s-3.234,2.373-5.625,2.373c-2.383,0-4.254-0.791-5.613-2.373
		s-2.039-3.74-2.039-6.475c0-2.727,0.686-4.873,2.057-6.439S221.577,0,223.952,0c2.391,0,4.262,0.787,5.613,2.361
		S231.592,6.086,231.592,8.812z M217.577,8.812c0,2.453,0.547,4.35,1.641,5.689s2.664,2.01,4.711,2.01
		c2.062,0,3.639-0.664,4.729-1.992s1.635-3.23,1.635-5.707c0-2.469-0.545-4.361-1.635-5.678s-2.658-1.975-4.705-1.975
		c-2.039,0-3.611,0.664-4.717,1.992S217.577,6.367,217.577,8.812z"/>
	<path d="M251.132,8.812c0,2.719-0.68,4.869-2.039,6.451s-3.234,2.373-5.625,2.373c-2.383,0-4.254-0.791-5.613-2.373
		s-2.039-3.74-2.039-6.475c0-2.727,0.686-4.873,2.057-6.439S241.117,0,243.492,0c2.391,0,4.262,0.787,5.613,2.361
		S251.132,6.086,251.132,8.812z M237.117,8.812c0,2.453,0.547,4.35,1.641,5.689s2.664,2.01,4.711,2.01
		c2.062,0,3.639-0.664,4.729-1.992s1.635-3.23,1.635-5.707c0-2.469-0.545-4.361-1.635-5.678s-2.658-1.975-4.705-1.975
		c-2.039,0-3.611,0.664-4.717,1.992S237.117,6.367,237.117,8.812z"/>
</g>
</svg>