<!-- Generator: Adobe Illustrator 21.0.0, SVG Export Plug-In  -->
<svg version="1.1"
	 xmlns="http://www.w3.org/2000/svg" xmlns:xlink="http://www.w3.org/1999/xlink" xmlns:a="http://ns.adobe.com/AdobeSVGViewerExtensions/3.0/"
	 x="0px" y="0px" width="312.181px" height="68.864px" viewBox="0 0 312.181 68.864"
	 style="enable-background:new 0 0 312.181 68.864;" xml:space="preserve">
<defs>
</defs>
<g>
	<path d="M3.516,49.981H2.566v-6.105c0-0.508,0.016-0.988,0.047-1.441c-0.082,0.082-0.174,0.168-0.275,0.258
		s-0.566,0.471-1.395,1.143l-0.516-0.668l2.268-1.752h0.82V49.981z"/>
	<path d="M12.751,45.687c0,1.48-0.233,2.586-0.7,3.316s-1.181,1.096-2.142,1.096c-0.922,0-1.623-0.374-2.104-1.122
		s-0.721-1.845-0.721-3.29c0-1.492,0.232-2.6,0.697-3.322s1.174-1.084,2.127-1.084c0.93,0,1.636,0.377,2.118,1.131
		S12.751,44.257,12.751,45.687z M8.069,45.687c0,1.246,0.146,2.153,0.439,2.722s0.76,0.853,1.4,0.853
		c0.648,0,1.118-0.288,1.409-0.864s0.437-1.479,0.437-2.71s-0.146-2.132-0.437-2.704s-0.761-0.858-1.409-0.858
		c-0.641,0-1.107,0.282-1.4,0.847S8.069,44.44,8.069,45.687z"/>
	<path d="M19.912,45.687c0,1.48-0.233,2.586-0.7,3.316s-1.181,1.096-2.142,1.096c-0.922,0-1.623-0.374-2.104-1.122
		s-0.721-1.845-0.721-3.29c0-1.492,0.232-2.6,0.697-3.322s1.174-1.084,2.127-1.084c0.93,0,1.636,0.377,2.118,1.131
		S19.912,44.257,19.912,45.687z M15.23,45.687c0,1.246,0.146,2.153,0.439,2.722s0.76,0.853,1.4,0.853
		c0.648,0,1.118-0.288,1.409-0.864s0.437-1.479,0.437-2.71s-0.146-2.132-0.437-2.704s-0.761-0.858-1.409-0.858
		c-0.641,0-1.107,0.282-1.4,0.847S15.23,44.44,15.23,45.687z"/>
	<path d="M24.912,43.97c0,0.891-0.149,1.563-0.448,2.019s-0.737,0.683-1.315,0.683c-0.547,0-0.972-0.232-1.274-0.697
		s-0.454-1.133-0.454-2.004c0-0.887,0.146-1.555,0.437-2.004s0.722-0.674,1.292-0.674c0.566,0,1.002,0.232,1.307,0.697
		S24.912,43.114,24.912,43.97z M22.229,43.97c0,0.664,0.072,1.162,0.217,1.494s0.379,0.498,0.703,0.498
		c0.641,0,0.961-0.664,0.961-1.992c0-1.32-0.32-1.98-0.961-1.98c-0.324,0-0.559,0.164-0.703,0.492S22.229,43.306,22.229,43.97z
		 M28.562,41.415l-4.752,8.566h-0.861l4.752-8.566H28.562z M30.074,47.403c0,0.887-0.149,1.558-0.448,2.013
		s-0.737,0.683-1.315,0.683c-0.555,0-0.981-0.232-1.28-0.697s-0.448-1.131-0.448-1.998c0-0.887,0.146-1.555,0.437-2.004
		s0.722-0.674,1.292-0.674c0.555,0,0.987,0.229,1.298,0.688S30.074,46.536,30.074,47.403z M27.385,47.403
		c0,0.668,0.072,1.167,0.217,1.497s0.381,0.495,0.709,0.495s0.57-0.163,0.727-0.489s0.234-0.827,0.234-1.503
		c0-0.668-0.078-1.163-0.234-1.485s-0.398-0.483-0.727-0.483s-0.564,0.161-0.709,0.483S27.385,46.735,27.385,47.403z"/>
	<path d="M36.58,46.419v3.562h-0.996v-8.566h2.35c1.051,0,1.827,0.201,2.329,0.604s0.753,1.008,0.753,1.816
		c0,1.133-0.574,1.898-1.723,2.297l2.326,3.85h-1.178l-2.074-3.562H36.58z M36.58,45.563h1.365c0.703,0,1.219-0.14,1.547-0.419
		s0.492-0.698,0.492-1.257c0-0.566-0.167-0.975-0.501-1.225s-0.87-0.375-1.608-0.375H36.58V45.563z"/>
	<path d="M45.868,50.099c-0.949,0-1.698-0.289-2.247-0.867s-0.823-1.381-0.823-2.408c0-1.035,0.255-1.857,0.765-2.467
		s1.194-0.914,2.054-0.914c0.805,0,1.441,0.265,1.91,0.794s0.703,1.228,0.703,2.095v0.615h-4.424c0.02,0.754,0.21,1.326,0.571,1.717
		s0.87,0.586,1.526,0.586c0.691,0,1.375-0.145,2.051-0.434v0.867c-0.344,0.148-0.669,0.255-0.976,0.319S46.302,50.099,45.868,50.099
		z M45.604,44.257c-0.516,0-0.927,0.168-1.233,0.504s-0.487,0.801-0.542,1.395h3.357c0-0.613-0.137-1.083-0.41-1.409
		S46.112,44.257,45.604,44.257z"/>
	<path d="M54.137,49.981l-0.193-0.914h-0.047c-0.32,0.402-0.64,0.675-0.958,0.817s-0.716,0.214-1.192,0.214
		c-0.637,0-1.136-0.164-1.497-0.492s-0.542-0.795-0.542-1.4c0-1.297,1.037-1.977,3.111-2.039l1.09-0.035v-0.398
		c0-0.504-0.108-0.876-0.325-1.116s-0.563-0.36-1.04-0.36c-0.535,0-1.141,0.164-1.816,0.492l-0.299-0.744
		c0.316-0.172,0.663-0.307,1.04-0.404s0.755-0.146,1.134-0.146c0.766,0,1.333,0.17,1.702,0.51s0.554,0.885,0.554,1.635v4.383H54.137
		z M51.939,49.296c0.605,0,1.081-0.166,1.427-0.498s0.519-0.797,0.519-1.395v-0.58l-0.973,0.041
		c-0.773,0.027-1.331,0.147-1.673,0.36s-0.513,0.544-0.513,0.993c0,0.352,0.106,0.619,0.319,0.803S51.557,49.296,51.939,49.296z"/>
	<path d="M58.135,49.981h-0.973v-9.117h0.973V49.981z"/>
	<path d="M64.061,41.415h2.42c1.137,0,1.959,0.17,2.467,0.51s0.762,0.877,0.762,1.611c0,0.508-0.142,0.927-0.425,1.257
		s-0.696,0.544-1.239,0.642v0.059c1.301,0.223,1.951,0.906,1.951,2.051c0,0.766-0.259,1.363-0.776,1.793s-1.241,0.645-2.171,0.645
		h-2.988V41.415z M65.057,45.083h1.641c0.703,0,1.209-0.11,1.518-0.331s0.463-0.593,0.463-1.116c0-0.48-0.172-0.827-0.516-1.04
		s-0.891-0.319-1.641-0.319h-1.465V45.083z M65.057,45.927v3.205h1.787c0.691,0,1.212-0.134,1.562-0.401s0.524-0.687,0.524-1.257
		c0-0.531-0.179-0.922-0.536-1.172s-0.901-0.375-1.632-0.375H65.057z"/>
	<path d="M72.962,49.981h-0.973v-9.117h0.973V49.981z"/>
	<path d="M76.238,43.56v4.166c0,0.523,0.119,0.914,0.357,1.172s0.611,0.387,1.119,0.387c0.672,0,1.163-0.184,1.474-0.551
		s0.466-0.967,0.466-1.799V43.56h0.973v6.422h-0.803l-0.141-0.861h-0.053c-0.199,0.316-0.476,0.559-0.829,0.727
		s-0.757,0.252-1.21,0.252c-0.781,0-1.366-0.186-1.755-0.557s-0.583-0.965-0.583-1.781V43.56H76.238z"/>
	<path d="M85.703,50.099c-0.949,0-1.698-0.289-2.247-0.867s-0.823-1.381-0.823-2.408c0-1.035,0.255-1.857,0.765-2.467
		s1.194-0.914,2.054-0.914c0.805,0,1.441,0.265,1.91,0.794s0.703,1.228,0.703,2.095v0.615h-4.424c0.02,0.754,0.21,1.326,0.571,1.717
		s0.87,0.586,1.526,0.586c0.691,0,1.375-0.145,2.051-0.434v0.867c-0.344,0.148-0.669,0.255-0.976,0.319S86.137,50.099,85.703,50.099
		z M85.439,44.257c-0.516,0-0.927,0.168-1.233,0.504s-0.487,0.801-0.542,1.395h3.357c0-0.613-0.137-1.083-0.41-1.409
		S85.947,44.257,85.439,44.257z"/>
	<path d="M93.011,43.454c0.844,0,1.499,0.288,1.966,0.864s0.7,1.392,0.7,2.446s-0.235,1.874-0.706,2.458s-1.124,0.876-1.96,0.876
		c-0.418,0-0.8-0.077-1.146-0.231s-0.636-0.392-0.87-0.712h-0.07l-0.205,0.826h-0.697v-9.117h0.973v2.215
		c0,0.496-0.016,0.941-0.047,1.336h0.047C91.448,43.774,92.12,43.454,93.011,43.454z M92.87,44.269c-0.664,0-1.143,0.19-1.436,0.571
		s-0.439,1.022-0.439,1.925s0.15,1.548,0.451,1.937s0.783,0.583,1.447,0.583c0.598,0,1.043-0.218,1.336-0.653
		s0.439-1.062,0.439-1.878c0-0.836-0.146-1.459-0.439-1.869S93.483,44.269,92.87,44.269z"/>
	<path d="M100.389,50.099c-0.949,0-1.698-0.289-2.247-0.867s-0.823-1.381-0.823-2.408c0-1.035,0.255-1.857,0.765-2.467
		s1.194-0.914,2.054-0.914c0.805,0,1.441,0.265,1.91,0.794s0.703,1.228,0.703,2.095v0.615h-4.424c0.02,0.754,0.21,1.326,0.571,1.717
		s0.87,0.586,1.526,0.586c0.691,0,1.375-0.145,2.051-0.434v0.867c-0.344,0.148-0.669,0.255-0.976,0.319
		S100.822,50.099,100.389,50.099z M100.125,44.257c-0.516,0-0.927,0.168-1.233,0.504s-0.487,0.801-0.542,1.395h3.357
		c0-0.613-0.137-1.083-0.41-1.409S100.633,44.257,100.125,44.257z"/>
	<path d="M107.638,43.442c0.285,0,0.541,0.023,0.768,0.07l-0.135,0.902c-0.266-0.059-0.5-0.088-0.703-0.088
		c-0.52,0-0.964,0.211-1.333,0.633s-0.554,0.947-0.554,1.576v3.445h-0.973V43.56h0.803l0.111,1.189h0.047
		c0.238-0.418,0.525-0.74,0.861-0.967S107.235,43.442,107.638,43.442z"/>
	<path d="M112.836,43.442c0.285,0,0.541,0.023,0.768,0.07l-0.135,0.902c-0.266-0.059-0.5-0.088-0.703-0.088
		c-0.52,0-0.964,0.211-1.333,0.633s-0.554,0.947-0.554,1.576v3.445h-0.973V43.56h0.803l0.111,1.189h0.047
		c0.238-0.418,0.525-0.74,0.861-0.967S112.434,43.442,112.836,43.442z"/>
	<path d="M114.086,43.56h1.043l1.406,3.662c0.309,0.836,0.5,1.439,0.574,1.811h0.047c0.051-0.199,0.157-0.54,0.319-1.022
		s0.692-1.966,1.591-4.45h1.043l-2.76,7.312c-0.273,0.723-0.593,1.235-0.958,1.538s-0.813,0.454-1.345,0.454
		c-0.297,0-0.59-0.033-0.879-0.1v-0.779c0.215,0.047,0.455,0.07,0.721,0.07c0.668,0,1.145-0.375,1.43-1.125l0.357-0.914
		L114.086,43.56z"/>
	<path d="M128.121,41.415l-3.193,8.566h-0.973l3.193-8.566H128.121z"/>
	<path d="M134.135,49.981h-0.996v-8.566h4.775V42.3h-3.779v3.135h3.551v0.885h-3.551V49.981z"/>
	<path d="M142.416,43.442c0.285,0,0.541,0.023,0.768,0.07l-0.135,0.902c-0.266-0.059-0.5-0.088-0.703-0.088
		c-0.52,0-0.964,0.211-1.333,0.633s-0.554,0.947-0.554,1.576v3.445h-0.973V43.56h0.803l0.111,1.189h0.047
		c0.238-0.418,0.525-0.74,0.861-0.967S142.014,43.442,142.416,43.442z"/>
	<path d="M147.397,50.099c-0.949,0-1.698-0.289-2.247-0.867s-0.823-1.381-0.823-2.408c0-1.035,0.255-1.857,0.765-2.467
		s1.194-0.914,2.054-0.914c0.805,0,1.441,0.265,1.91,0.794s0.703,1.228,0.703,2.095v0.615h-4.424c0.02,0.754,0.21,1.326,0.571,1.717
		s0.87,0.586,1.526,0.586c0.691,0,1.375-0.145,2.051-0.434v0.867c-0.344,0.148-0.669,0.255-0.976,0.319
		S147.831,50.099,147.397,50.099z M147.134,44.257c-0.516,0-0.927,0.168-1.233,0.504s-0.487,0.801-0.542,1.395h3.357
		c0-0.613-0.137-1.083-0.41-1.409S147.642,44.257,147.134,44.257z"/>
	<path d="M155.859,48.229c0,0.598-0.223,1.059-0.668,1.383s-1.07,0.486-1.875,0.486c-0.852,0-1.516-0.135-1.992-0.404v-0.902
		c0.309,0.156,0.64,0.279,0.993,0.369s0.694,0.135,1.022,0.135c0.508,0,0.898-0.081,1.172-0.243s0.41-0.409,0.41-0.741
		c0-0.25-0.108-0.464-0.325-0.642s-0.64-0.388-1.269-0.63c-0.598-0.223-1.022-0.417-1.274-0.583s-0.439-0.354-0.562-0.565
		s-0.185-0.463-0.185-0.756c0-0.523,0.213-0.937,0.639-1.239s1.01-0.454,1.752-0.454c0.691,0,1.367,0.141,2.027,0.422l-0.346,0.791
		c-0.645-0.266-1.229-0.398-1.752-0.398c-0.461,0-0.809,0.072-1.043,0.217s-0.352,0.344-0.352,0.598
		c0,0.172,0.044,0.318,0.132,0.439s0.229,0.236,0.425,0.346s0.57,0.268,1.125,0.475c0.762,0.277,1.276,0.557,1.544,0.838
		S155.859,47.804,155.859,48.229z"/>
	<path d="M162.136,49.981v-4.154c0-0.523-0.119-0.914-0.357-1.172s-0.611-0.387-1.119-0.387c-0.676,0-1.169,0.184-1.479,0.551
		s-0.466,0.969-0.466,1.805v3.357h-0.973v-9.117h0.973v2.76c0,0.332-0.016,0.607-0.047,0.826h0.059
		c0.191-0.309,0.464-0.552,0.817-0.729s0.757-0.267,1.21-0.267c0.785,0,1.374,0.187,1.767,0.56s0.589,0.966,0.589,1.778v4.189
		H162.136z"/>
	<path d="M176.447,49.981h-0.984l-1.729-5.736c-0.082-0.254-0.174-0.574-0.275-0.961s-0.154-0.619-0.158-0.697
		c-0.086,0.516-0.223,1.08-0.41,1.693l-1.676,5.701h-0.984l-2.279-8.566h1.055l1.354,5.291c0.188,0.742,0.324,1.414,0.41,2.016
		c0.105-0.715,0.262-1.414,0.469-2.098l1.535-5.209h1.055l1.611,5.256c0.188,0.605,0.346,1.289,0.475,2.051
		c0.074-0.555,0.215-1.23,0.422-2.027l1.348-5.279h1.055L176.447,49.981z"/>
	<path d="M184.628,49.981v-4.154c0-0.523-0.119-0.914-0.357-1.172s-0.611-0.387-1.119-0.387c-0.676,0-1.169,0.184-1.479,0.551
		s-0.466,0.969-0.466,1.805v3.357h-0.973v-9.117h0.973v2.76c0,0.332-0.016,0.607-0.047,0.826h0.059
		c0.191-0.309,0.464-0.552,0.817-0.729s0.757-0.267,1.21-0.267c0.785,0,1.374,0.187,1.767,0.56s0.589,0.966,0.589,1.778v4.189
		H184.628z"/>
	<path d="M187.816,41.819c0-0.223,0.055-0.386,0.164-0.489s0.246-0.155,0.41-0.155c0.156,0,0.291,0.053,0.404,0.158
		s0.17,0.268,0.17,0.486s-0.057,0.382-0.17,0.489s-0.248,0.161-0.404,0.161c-0.164,0-0.301-0.054-0.41-0.161
		S187.816,42.038,187.816,41.819z M188.871,49.981h-0.973V43.56h0.973V49.981z"/>
	<path d="M194.222,50.099c-0.418,0-0.8-0.077-1.146-0.231s-0.636-0.392-0.87-0.712h-0.07c0.047,0.375,0.07,0.73,0.07,1.066v2.643
		h-0.973V43.56h0.791l0.135,0.879h0.047c0.25-0.352,0.541-0.605,0.873-0.762s0.713-0.234,1.143-0.234
		c0.852,0,1.509,0.291,1.972,0.873s0.694,1.398,0.694,2.449c0,1.055-0.235,1.874-0.706,2.458S195.058,50.099,194.222,50.099z
		 M194.081,44.269c-0.656,0-1.131,0.182-1.424,0.545s-0.443,0.941-0.451,1.734v0.217c0,0.902,0.15,1.548,0.451,1.937
		s0.783,0.583,1.447,0.583c0.555,0,0.989-0.225,1.304-0.674s0.472-1.068,0.472-1.857c0-0.801-0.157-1.415-0.472-1.843
		S194.651,44.269,194.081,44.269z"/>
	<path d="M201.875,50.099c-0.418,0-0.8-0.077-1.146-0.231s-0.636-0.392-0.87-0.712h-0.07c0.047,0.375,0.07,0.73,0.07,1.066v2.643
		h-0.973V43.56h0.791l0.135,0.879h0.047c0.25-0.352,0.541-0.605,0.873-0.762s0.713-0.234,1.143-0.234
		c0.852,0,1.509,0.291,1.972,0.873s0.694,1.398,0.694,2.449c0,1.055-0.235,1.874-0.706,2.458S202.711,50.099,201.875,50.099z
		 M201.734,44.269c-0.656,0-1.131,0.182-1.424,0.545s-0.443,0.941-0.451,1.734v0.217c0,0.902,0.15,1.548,0.451,1.937
		s0.783,0.583,1.447,0.583c0.555,0,0.989-0.225,1.304-0.674s0.472-1.068,0.472-1.857c0-0.801-0.157-1.415-0.472-1.843
		S202.305,44.269,201.734,44.269z"/>
	<path d="M209.254,50.099c-0.949,0-1.698-0.289-2.247-0.867s-0.823-1.381-0.823-2.408c0-1.035,0.255-1.857,0.765-2.467
		s1.194-0.914,2.054-0.914c0.805,0,1.441,0.265,1.91,0.794s0.703,1.228,0.703,2.095v0.615h-4.424c0.02,0.754,0.21,1.326,0.571,1.717
		s0.87,0.586,1.526,0.586c0.691,0,1.375-0.145,2.051-0.434v0.867c-0.344,0.148-0.669,0.255-0.976,0.319
		S209.688,50.099,209.254,50.099z M208.99,44.257c-0.516,0-0.927,0.168-1.233,0.504s-0.487,0.801-0.542,1.395h3.357
		c0-0.613-0.137-1.083-0.41-1.409S209.498,44.257,208.99,44.257z"/>
	<path d="M217.944,49.12h-0.053c-0.449,0.652-1.121,0.979-2.016,0.979c-0.84,0-1.493-0.287-1.96-0.861s-0.7-1.391-0.7-2.449
		s0.234-1.881,0.703-2.467s1.121-0.879,1.957-0.879c0.871,0,1.539,0.316,2.004,0.949h0.076l-0.041-0.463l-0.023-0.451v-2.613h0.973
		v9.117h-0.791L217.944,49.12z M215.999,49.284c0.664,0,1.146-0.181,1.444-0.542s0.448-0.944,0.448-1.749v-0.205
		c0-0.91-0.151-1.56-0.454-1.948s-0.786-0.583-1.45-0.583c-0.57,0-1.007,0.222-1.31,0.665s-0.454,1.069-0.454,1.878
		c0,0.82,0.15,1.439,0.451,1.857S215.417,49.284,215.999,49.284z"/>
	<path d="M228.458,42.183c-0.941,0-1.685,0.313-2.229,0.94s-0.817,1.485-0.817,2.575c0,1.121,0.263,1.987,0.788,2.599
		s1.274,0.917,2.247,0.917c0.598,0,1.279-0.107,2.045-0.322v0.873c-0.594,0.223-1.326,0.334-2.197,0.334
		c-1.262,0-2.235-0.383-2.921-1.148s-1.028-1.854-1.028-3.264c0-0.883,0.165-1.656,0.495-2.32s0.807-1.176,1.43-1.535
		s1.356-0.539,2.2-0.539c0.898,0,1.684,0.164,2.355,0.492l-0.422,0.855C229.755,42.335,229.106,42.183,228.458,42.183z"/>
	<path d="M235.443,43.442c0.285,0,0.541,0.023,0.768,0.07l-0.135,0.902c-0.266-0.059-0.5-0.088-0.703-0.088
		c-0.52,0-0.964,0.211-1.333,0.633s-0.554,0.947-0.554,1.576v3.445h-0.973V43.56h0.803l0.111,1.189h0.047
		c0.238-0.418,0.525-0.74,0.861-0.967S235.041,43.442,235.443,43.442z"/>
	<path d="M240.426,50.099c-0.949,0-1.698-0.289-2.247-0.867s-0.823-1.381-0.823-2.408c0-1.035,0.255-1.857,0.765-2.467
		s1.194-0.914,2.054-0.914c0.805,0,1.441,0.265,1.91,0.794s0.703,1.228,0.703,2.095v0.615h-4.424c0.02,0.754,0.21,1.326,0.571,1.717
		s0.87,0.586,1.526,0.586c0.691,0,1.375-0.145,2.051-0.434v0.867c-0.344,0.148-0.669,0.255-0.976,0.319
		S240.859,50.099,240.426,50.099z M240.162,44.257c-0.516,0-0.927,0.168-1.233,0.504s-0.487,0.801-0.542,1.395h3.357
		c0-0.613-0.137-1.083-0.41-1.409S240.67,44.257,240.162,44.257z"/>
	<path d="M248.694,49.981l-0.193-0.914h-0.047c-0.32,0.402-0.64,0.675-0.958,0.817s-0.716,0.214-1.192,0.214
		c-0.637,0-1.136-0.164-1.497-0.492s-0.542-0.795-0.542-1.4c0-1.297,1.037-1.977,3.111-2.039l1.09-0.035v-0.398
		c0-0.504-0.108-0.876-0.325-1.116s-0.563-0.36-1.04-0.36c-0.535,0-1.141,0.164-1.816,0.492l-0.299-0.744
		c0.316-0.172,0.663-0.307,1.04-0.404s0.755-0.146,1.134-0.146c0.766,0,1.333,0.17,1.702,0.51s0.554,0.885,0.554,1.635v4.383
		H248.694z M246.497,49.296c0.605,0,1.081-0.166,1.427-0.498s0.519-0.797,0.519-1.395v-0.58l-0.973,0.041
		c-0.773,0.027-1.331,0.147-1.673,0.36s-0.513,0.544-0.513,0.993c0,0.352,0.106,0.619,0.319,0.803S246.114,49.296,246.497,49.296z"
		/>
	<path d="M259.904,49.981v-4.178c0-0.512-0.109-0.896-0.328-1.151s-0.559-0.384-1.02-0.384c-0.605,0-1.053,0.174-1.342,0.521
		s-0.434,0.883-0.434,1.605v3.586h-0.973v-4.178c0-0.512-0.109-0.896-0.328-1.151s-0.561-0.384-1.025-0.384
		c-0.609,0-1.056,0.183-1.339,0.548s-0.425,0.964-0.425,1.796v3.369h-0.973V43.56h0.791l0.158,0.879h0.047
		c0.184-0.312,0.442-0.557,0.776-0.732s0.708-0.264,1.122-0.264c1.004,0,1.66,0.363,1.969,1.09h0.047
		c0.191-0.336,0.469-0.602,0.832-0.797s0.777-0.293,1.242-0.293c0.727,0,1.271,0.187,1.632,0.56s0.542,0.97,0.542,1.79v4.189
		H259.904z"/>
	<path d="M269.85,41.415l-3.193,8.566h-0.973l3.193-8.566H269.85z"/>
	<path d="M279.702,47.702c0,0.754-0.273,1.342-0.82,1.764s-1.289,0.633-2.227,0.633c-1.016,0-1.797-0.131-2.344-0.393v-0.961
		c0.352,0.148,0.734,0.266,1.148,0.352s0.824,0.129,1.23,0.129c0.664,0,1.164-0.126,1.5-0.378s0.504-0.603,0.504-1.052
		c0-0.297-0.06-0.54-0.179-0.729s-0.318-0.364-0.598-0.524s-0.704-0.342-1.274-0.545c-0.797-0.285-1.366-0.623-1.708-1.014
		s-0.513-0.9-0.513-1.529c0-0.66,0.248-1.186,0.744-1.576s1.152-0.586,1.969-0.586c0.852,0,1.635,0.156,2.35,0.469l-0.311,0.867
		c-0.707-0.297-1.395-0.445-2.062-0.445c-0.527,0-0.939,0.113-1.236,0.34s-0.445,0.541-0.445,0.943c0,0.297,0.055,0.54,0.164,0.729
		s0.294,0.363,0.554,0.521s0.657,0.333,1.192,0.524c0.898,0.32,1.517,0.664,1.854,1.031S279.702,47.116,279.702,47.702z"/>
	<path d="M286.852,49.981l-1.178-3.768c-0.074-0.23-0.213-0.754-0.416-1.57h-0.047c-0.156,0.684-0.293,1.211-0.41,1.582
		l-1.213,3.756h-1.125l-1.752-6.422h1.02c0.414,1.613,0.729,2.842,0.946,3.686s0.341,1.412,0.372,1.705h0.047
		c0.043-0.223,0.112-0.511,0.208-0.864s0.179-0.634,0.249-0.841l1.178-3.686h1.055l1.148,3.686c0.219,0.672,0.367,1.236,0.445,1.693
		h0.047c0.016-0.141,0.058-0.357,0.126-0.65s0.476-1.869,1.222-4.729h1.008l-1.775,6.422H286.852z"/>
	<path d="M293.954,50.099c-0.949,0-1.698-0.289-2.247-0.867s-0.823-1.381-0.823-2.408c0-1.035,0.255-1.857,0.765-2.467
		s1.194-0.914,2.054-0.914c0.805,0,1.441,0.265,1.91,0.794s0.703,1.228,0.703,2.095v0.615h-4.424c0.02,0.754,0.21,1.326,0.571,1.717
		s0.87,0.586,1.526,0.586c0.691,0,1.375-0.145,2.051-0.434v0.867c-0.344,0.148-0.669,0.255-0.976,0.319
		S294.388,50.099,293.954,50.099z M293.69,44.257c-0.516,0-0.927,0.168-1.233,0.504s-0.487,0.801-0.542,1.395h3.357
		c0-0.613-0.137-1.083-0.41-1.409S294.198,44.257,293.69,44.257z"/>
	<path d="M300.986,50.099c-0.949,0-1.698-0.289-2.247-0.867s-0.823-1.381-0.823-2.408c0-1.035,0.255-1.857,0.765-2.467
		s1.194-0.914,2.054-0.914c0.805,0,1.441,0.265,1.91,0.794s0.703,1.228,0.703,2.095v0.615h-4.424c0.02,0.754,0.21,1.326,0.571,1.717
		s0.87,0.586,1.526,0.586c0.691,0,1.375-0.145,2.051-0.434v0.867c-0.344,0.148-0.669,0.255-0.976,0.319
		S301.42,50.099,300.986,50.099z M300.723,44.257c-0.516,0-0.927,0.168-1.233,0.504s-0.487,0.801-0.542,1.395h3.357
		c0-0.613-0.137-1.083-0.41-1.409S301.23,44.257,300.723,44.257z"/>
	<path d="M307.381,49.296c0.172,0,0.338-0.013,0.498-0.038s0.287-0.052,0.381-0.079v0.744c-0.105,0.051-0.261,0.093-0.466,0.126
		s-0.39,0.05-0.554,0.05c-1.242,0-1.863-0.654-1.863-1.963v-3.82h-0.92v-0.469l0.92-0.404l0.41-1.371h0.562v1.488h1.863v0.756
		h-1.863v3.779c0,0.387,0.092,0.684,0.275,0.891S307.061,49.296,307.381,49.296z"/>
	<path d="M309.304,47.21v-0.891h2.877v0.891H309.304z"/>
	<path d="M3.07,66.099c-0.949,0-1.698-0.289-2.247-0.867S0,63.851,0,62.823c0-1.035,0.255-1.857,0.765-2.467
		s1.194-0.914,2.054-0.914c0.805,0,1.441,0.265,1.91,0.794s0.703,1.228,0.703,2.095v0.615H1.008c0.02,0.754,0.21,1.326,0.571,1.717
		s0.87,0.586,1.526,0.586c0.691,0,1.375-0.145,2.051-0.434v0.867c-0.344,0.148-0.669,0.255-0.976,0.319S3.504,66.099,3.07,66.099z
		 M2.807,60.257c-0.516,0-0.927,0.168-1.233,0.504s-0.487,0.801-0.542,1.395h3.357c0-0.613-0.137-1.083-0.41-1.409
		S3.314,60.257,2.807,60.257z"/>
	<path d="M11.784,65.981v-4.154c0-0.523-0.119-0.914-0.357-1.172s-0.611-0.387-1.119-0.387c-0.672,0-1.164,0.182-1.477,0.545
		s-0.469,0.963-0.469,1.799v3.369H7.39V59.56h0.791l0.158,0.879h0.047c0.199-0.316,0.479-0.562,0.838-0.735s0.76-0.261,1.201-0.261
		c0.773,0,1.355,0.187,1.746,0.56s0.586,0.97,0.586,1.79v4.189H11.784z"/>
	<path d="M17.768,66.099c-0.949,0-1.698-0.289-2.247-0.867s-0.823-1.381-0.823-2.408c0-1.035,0.255-1.857,0.765-2.467
		s1.194-0.914,2.054-0.914c0.805,0,1.441,0.265,1.91,0.794s0.703,1.228,0.703,2.095v0.615h-4.424c0.02,0.754,0.21,1.326,0.571,1.717
		s0.87,0.586,1.526,0.586c0.691,0,1.375-0.145,2.051-0.434v0.867c-0.344,0.148-0.669,0.255-0.976,0.319S18.201,66.099,17.768,66.099
		z M17.504,60.257c-0.516,0-0.927,0.168-1.233,0.504s-0.487,0.801-0.542,1.395h3.357c0-0.613-0.137-1.083-0.41-1.409
		S18.012,60.257,17.504,60.257z"/>
	<path d="M26.459,65.12h-0.053c-0.449,0.652-1.121,0.979-2.016,0.979c-0.84,0-1.493-0.287-1.96-0.861s-0.7-1.391-0.7-2.449
		s0.234-1.881,0.703-2.467s1.121-0.879,1.957-0.879c0.871,0,1.539,0.316,2.004,0.949h0.076l-0.041-0.463l-0.023-0.451v-2.613h0.973
		v9.117h-0.791L26.459,65.12z M24.514,65.284c0.664,0,1.146-0.181,1.444-0.542s0.448-0.944,0.448-1.749v-0.205
		c0-0.91-0.151-1.56-0.454-1.948s-0.786-0.583-1.45-0.583c-0.57,0-1.007,0.222-1.31,0.665s-0.454,1.069-0.454,1.878
		c0,0.82,0.15,1.439,0.451,1.857S23.932,65.284,24.514,65.284z"/>
	<path d="M36.973,58.183c-0.941,0-1.685,0.313-2.229,0.94s-0.817,1.485-0.817,2.575c0,1.121,0.263,1.987,0.788,2.599
		s1.274,0.917,2.247,0.917c0.598,0,1.279-0.107,2.045-0.322v0.873c-0.594,0.223-1.326,0.334-2.197,0.334
		c-1.262,0-2.235-0.383-2.921-1.148s-1.028-1.854-1.028-3.264c0-0.883,0.165-1.656,0.495-2.32s0.807-1.176,1.43-1.535
		s1.356-0.539,2.2-0.539c0.898,0,1.684,0.164,2.355,0.492l-0.422,0.855C38.27,58.335,37.621,58.183,36.973,58.183z"/>
	<path d="M46.571,62.765c0,1.047-0.264,1.864-0.791,2.452s-1.256,0.882-2.186,0.882c-0.574,0-1.084-0.135-1.529-0.404
		s-0.789-0.656-1.031-1.16s-0.363-1.094-0.363-1.77c0-1.047,0.262-1.862,0.785-2.446s1.25-0.876,2.18-0.876
		c0.898,0,1.612,0.299,2.142,0.896S46.571,61.745,46.571,62.765z M41.679,62.765c0,0.82,0.164,1.445,0.492,1.875
		s0.811,0.645,1.447,0.645s1.12-0.214,1.45-0.642s0.495-1.054,0.495-1.878c0-0.816-0.165-1.437-0.495-1.86s-0.817-0.636-1.462-0.636
		c-0.637,0-1.117,0.209-1.441,0.627S41.679,61.937,41.679,62.765z"/>
	<path d="M52.971,65.981v-4.154c0-0.523-0.119-0.914-0.357-1.172s-0.611-0.387-1.119-0.387c-0.672,0-1.164,0.182-1.477,0.545
		s-0.469,0.963-0.469,1.799v3.369h-0.973V59.56h0.791l0.158,0.879h0.047c0.199-0.316,0.479-0.562,0.838-0.735
		s0.76-0.261,1.201-0.261c0.773,0,1.355,0.187,1.746,0.56s0.586,0.97,0.586,1.79v4.189H52.971z"/>
	<path d="M60.613,65.12h-0.053c-0.449,0.652-1.121,0.979-2.016,0.979c-0.84,0-1.493-0.287-1.96-0.861s-0.7-1.391-0.7-2.449
		s0.234-1.881,0.703-2.467s1.121-0.879,1.957-0.879c0.871,0,1.539,0.316,2.004,0.949h0.076l-0.041-0.463l-0.023-0.451v-2.613h0.973
		v9.117h-0.791L60.613,65.12z M58.668,65.284c0.664,0,1.146-0.181,1.444-0.542s0.448-0.944,0.448-1.749v-0.205
		c0-0.91-0.151-1.56-0.454-1.948s-0.786-0.583-1.45-0.583c-0.57,0-1.007,0.222-1.31,0.665s-0.454,1.069-0.454,1.878
		c0,0.82,0.15,1.439,0.451,1.857S58.086,65.284,58.668,65.284z"/>
	<path d="M66.608,66.099c-0.949,0-1.698-0.289-2.247-0.867s-0.823-1.381-0.823-2.408c0-1.035,0.255-1.857,0.765-2.467
		s1.194-0.914,2.054-0.914c0.805,0,1.441,0.265,1.91,0.794s0.703,1.228,0.703,2.095v0.615h-4.424c0.02,0.754,0.21,1.326,0.571,1.717
		s0.87,0.586,1.526,0.586c0.691,0,1.375-0.145,2.051-0.434v0.867c-0.344,0.148-0.669,0.255-0.976,0.319S67.042,66.099,66.608,66.099
		z M66.345,60.257c-0.516,0-0.927,0.168-1.233,0.504s-0.487,0.801-0.542,1.395h3.357c0-0.613-0.137-1.083-0.41-1.409
		S66.853,60.257,66.345,60.257z"/>
	<path d="M75.322,65.981v-4.154c0-0.523-0.119-0.914-0.357-1.172s-0.611-0.387-1.119-0.387c-0.672,0-1.164,0.182-1.477,0.545
		S71.9,61.776,71.9,62.612v3.369h-0.973V59.56h0.791l0.158,0.879h0.047c0.199-0.316,0.479-0.562,0.838-0.735s0.76-0.261,1.201-0.261
		c0.773,0,1.355,0.187,1.746,0.56s0.586,0.97,0.586,1.79v4.189H75.322z"/>
	<path d="M82.735,64.229c0,0.598-0.223,1.059-0.668,1.383s-1.07,0.486-1.875,0.486c-0.852,0-1.516-0.135-1.992-0.404v-0.902
		c0.309,0.156,0.64,0.279,0.993,0.369s0.694,0.135,1.022,0.135c0.508,0,0.898-0.081,1.172-0.243s0.41-0.409,0.41-0.741
		c0-0.25-0.108-0.464-0.325-0.642s-0.64-0.388-1.269-0.63c-0.598-0.223-1.022-0.417-1.274-0.583s-0.439-0.354-0.562-0.565
		s-0.185-0.463-0.185-0.756c0-0.523,0.213-0.937,0.639-1.239s1.01-0.454,1.752-0.454c0.691,0,1.367,0.141,2.027,0.422l-0.346,0.791
		c-0.645-0.266-1.229-0.398-1.752-0.398c-0.461,0-0.809,0.072-1.043,0.217s-0.352,0.344-0.352,0.598
		c0,0.172,0.044,0.318,0.132,0.439s0.229,0.236,0.425,0.346s0.57,0.268,1.125,0.475c0.762,0.277,1.276,0.557,1.544,0.838
		S82.735,63.804,82.735,64.229z"/>
	<path d="M87.33,66.099c-0.949,0-1.698-0.289-2.247-0.867s-0.823-1.381-0.823-2.408c0-1.035,0.255-1.857,0.765-2.467
		s1.194-0.914,2.054-0.914c0.805,0,1.441,0.265,1.91,0.794s0.703,1.228,0.703,2.095v0.615h-4.424c0.02,0.754,0.21,1.326,0.571,1.717
		s0.87,0.586,1.526,0.586c0.691,0,1.375-0.145,2.051-0.434v0.867c-0.344,0.148-0.669,0.255-0.976,0.319S87.764,66.099,87.33,66.099z
		 M87.066,60.257c-0.516,0-0.927,0.168-1.233,0.504s-0.487,0.801-0.542,1.395h3.357c0-0.613-0.137-1.083-0.41-1.409
		S87.574,60.257,87.066,60.257z"/>
	<path d="M96.021,65.12h-0.053c-0.449,0.652-1.121,0.979-2.016,0.979c-0.84,0-1.493-0.287-1.96-0.861s-0.7-1.391-0.7-2.449
		s0.234-1.881,0.703-2.467s1.121-0.879,1.957-0.879c0.871,0,1.539,0.316,2.004,0.949h0.076l-0.041-0.463l-0.023-0.451v-2.613h0.973
		v9.117H96.15L96.021,65.12z M94.076,65.284c0.664,0,1.146-0.181,1.444-0.542s0.448-0.944,0.448-1.749v-0.205
		c0-0.91-0.151-1.56-0.454-1.948s-0.786-0.583-1.45-0.583c-0.57,0-1.007,0.222-1.31,0.665s-0.454,1.069-0.454,1.878
		c0,0.82,0.15,1.439,0.451,1.857S93.494,65.284,94.076,65.284z"/>
	<path d="M105.973,57.415l-3.193,8.566h-0.973L105,57.415H105.973z"/>
	<path d="M115.824,63.702c0,0.754-0.273,1.342-0.82,1.764s-1.289,0.633-2.227,0.633c-1.016,0-1.797-0.131-2.344-0.393v-0.961
		c0.352,0.148,0.734,0.266,1.148,0.352s0.824,0.129,1.23,0.129c0.664,0,1.164-0.126,1.5-0.378s0.504-0.603,0.504-1.052
		c0-0.297-0.06-0.54-0.179-0.729s-0.318-0.364-0.598-0.524s-0.704-0.342-1.274-0.545c-0.797-0.285-1.366-0.623-1.708-1.014
		s-0.513-0.9-0.513-1.529c0-0.66,0.248-1.186,0.744-1.576s1.152-0.586,1.969-0.586c0.852,0,1.635,0.156,2.35,0.469l-0.311,0.867
		c-0.707-0.297-1.395-0.445-2.062-0.445c-0.527,0-0.939,0.113-1.236,0.34s-0.445,0.541-0.445,0.943c0,0.297,0.055,0.54,0.164,0.729
		s0.294,0.363,0.554,0.521s0.657,0.333,1.192,0.524c0.898,0.32,1.517,0.664,1.854,1.031S115.824,63.116,115.824,63.702z"/>
	<path d="M117.648,57.819c0-0.223,0.055-0.386,0.164-0.489s0.246-0.155,0.41-0.155c0.156,0,0.291,0.053,0.404,0.158
		s0.17,0.268,0.17,0.486s-0.057,0.382-0.17,0.489s-0.248,0.161-0.404,0.161c-0.164,0-0.301-0.054-0.41-0.161
		S117.648,58.038,117.648,57.819z M118.703,65.981h-0.973V59.56h0.973V65.981z"/>
	<path d="M122.038,65.981h-0.973v-9.117h0.973V65.981z"/>
	<path d="M125.361,62.694c0.168-0.238,0.424-0.551,0.768-0.938l2.074-2.197h1.154l-2.602,2.736l2.783,3.686h-1.178l-2.268-3.035
		l-0.732,0.633v2.402H124.4v-9.117h0.961v4.834c0,0.215-0.016,0.547-0.047,0.996H125.361z"/>
	<path d="M129.979,59.56h1.043l1.406,3.662c0.309,0.836,0.5,1.439,0.574,1.811h0.047c0.051-0.199,0.157-0.54,0.319-1.022
		s0.692-1.966,1.591-4.45h1.043l-2.76,7.312c-0.273,0.723-0.593,1.235-0.958,1.538s-0.813,0.454-1.345,0.454
		c-0.297,0-0.59-0.033-0.879-0.1v-0.779c0.215,0.047,0.455,0.07,0.721,0.07c0.668,0,1.145-0.375,1.43-1.125l0.357-0.914
		L129.979,59.56z"/>
	<path d="M145.744,63.702c0,0.754-0.273,1.342-0.82,1.764s-1.289,0.633-2.227,0.633c-1.016,0-1.797-0.131-2.344-0.393v-0.961
		c0.352,0.148,0.734,0.266,1.148,0.352s0.824,0.129,1.23,0.129c0.664,0,1.164-0.126,1.5-0.378s0.504-0.603,0.504-1.052
		c0-0.297-0.06-0.54-0.179-0.729s-0.318-0.364-0.598-0.524s-0.704-0.342-1.274-0.545c-0.797-0.285-1.366-0.623-1.708-1.014
		s-0.513-0.9-0.513-1.529c0-0.66,0.248-1.186,0.744-1.576s1.152-0.586,1.969-0.586c0.852,0,1.635,0.156,2.35,0.469l-0.311,0.867
		c-0.707-0.297-1.395-0.445-2.062-0.445c-0.527,0-0.939,0.113-1.236,0.34s-0.445,0.541-0.445,0.943c0,0.297,0.055,0.54,0.164,0.729
		s0.294,0.363,0.554,0.521s0.657,0.333,1.192,0.524c0.898,0.32,1.517,0.664,1.854,1.031S145.744,63.116,145.744,63.702z"/>
	<path d="M152.044,65.981v-4.154c0-0.523-0.119-0.914-0.357-1.172s-0.611-0.387-1.119-0.387c-0.672,0-1.164,0.182-1.477,0.545
		s-0.469,0.963-0.469,1.799v3.369h-0.973V59.56h0.791l0.158,0.879h0.047c0.199-0.316,0.479-0.562,0.838-0.735
		s0.76-0.261,1.201-0.261c0.773,0,1.355,0.187,1.746,0.56s0.586,0.97,0.586,1.79v4.189H152.044z"/>
	<path d="M160.857,62.765c0,1.047-0.264,1.864-0.791,2.452s-1.256,0.882-2.186,0.882c-0.574,0-1.084-0.135-1.529-0.404
		s-0.789-0.656-1.031-1.16s-0.363-1.094-0.363-1.77c0-1.047,0.262-1.862,0.785-2.446s1.25-0.876,2.18-0.876
		c0.898,0,1.612,0.299,2.142,0.896S160.857,61.745,160.857,62.765z M155.965,62.765c0,0.82,0.164,1.445,0.492,1.875
		s0.811,0.645,1.447,0.645s1.12-0.214,1.45-0.642s0.495-1.054,0.495-1.878c0-0.816-0.165-1.437-0.495-1.86s-0.817-0.636-1.462-0.636
		c-0.637,0-1.117,0.209-1.441,0.627S155.965,61.937,155.965,62.765z"/>
	<path d="M168.106,65.981l-1.178-3.768c-0.074-0.23-0.213-0.754-0.416-1.57h-0.047c-0.156,0.684-0.293,1.211-0.41,1.582
		l-1.213,3.756h-1.125l-1.752-6.422h1.02c0.414,1.613,0.729,2.842,0.946,3.686s0.341,1.412,0.372,1.705h0.047
		c0.043-0.223,0.112-0.511,0.208-0.864s0.179-0.634,0.249-0.841l1.178-3.686h1.055l1.148,3.686c0.219,0.672,0.367,1.236,0.445,1.693
		h0.047c0.016-0.141,0.058-0.357,0.126-0.65s0.476-1.869,1.222-4.729h1.008l-1.775,6.422H168.106z"/>
	<path d="M175.391,60.315h-1.635v5.666h-0.973v-5.666h-1.148v-0.439l1.148-0.352v-0.357c0-1.578,0.689-2.367,2.068-2.367
		c0.34,0,0.738,0.068,1.195,0.205l-0.252,0.779c-0.375-0.121-0.695-0.182-0.961-0.182c-0.367,0-0.639,0.122-0.814,0.366
		s-0.264,0.636-0.264,1.175v0.416h1.635V60.315z M177.535,65.981h-0.973v-9.117h0.973V65.981z"/>
	<path d="M183.848,65.981l-0.193-0.914h-0.047c-0.32,0.402-0.64,0.675-0.958,0.817s-0.716,0.214-1.192,0.214
		c-0.637,0-1.136-0.164-1.497-0.492s-0.542-0.795-0.542-1.4c0-1.297,1.037-1.977,3.111-2.039l1.09-0.035v-0.398
		c0-0.504-0.108-0.876-0.325-1.116s-0.563-0.36-1.04-0.36c-0.535,0-1.141,0.164-1.816,0.492l-0.299-0.744
		c0.316-0.172,0.663-0.307,1.04-0.404s0.755-0.146,1.134-0.146c0.766,0,1.333,0.17,1.702,0.51s0.554,0.885,0.554,1.635v4.383
		H183.848z M181.65,65.296c0.605,0,1.081-0.166,1.427-0.498s0.519-0.797,0.519-1.395v-0.58l-0.973,0.041
		c-0.773,0.027-1.331,0.147-1.673,0.36s-0.513,0.544-0.513,0.993c0,0.352,0.106,0.619,0.319,0.803S181.268,65.296,181.65,65.296z"/>
	<path d="M187.833,62.694c0.168-0.238,0.424-0.551,0.768-0.938l2.074-2.197h1.154l-2.602,2.736l2.783,3.686h-1.178l-2.268-3.035
		l-0.732,0.633v2.402h-0.961v-9.117h0.961v4.834c0,0.215-0.016,0.547-0.047,0.996H187.833z"/>
	<path d="M196.184,66.099c-0.949,0-1.698-0.289-2.247-0.867s-0.823-1.381-0.823-2.408c0-1.035,0.255-1.857,0.765-2.467
		s1.194-0.914,2.054-0.914c0.805,0,1.441,0.265,1.91,0.794s0.703,1.228,0.703,2.095v0.615h-4.424c0.02,0.754,0.21,1.326,0.571,1.717
		s0.87,0.586,1.526,0.586c0.691,0,1.375-0.145,2.051-0.434v0.867c-0.344,0.148-0.669,0.255-0.976,0.319
		S196.617,66.099,196.184,66.099z M195.92,60.257c-0.516,0-0.927,0.168-1.233,0.504s-0.487,0.801-0.542,1.395h3.357
		c0-0.613-0.137-1.083-0.41-1.409S196.428,60.257,195.92,60.257z"/>
	<path d="M208.9,63.702c0,0.754-0.273,1.342-0.82,1.764s-1.289,0.633-2.227,0.633c-1.016,0-1.797-0.131-2.344-0.393v-0.961
		c0.352,0.148,0.734,0.266,1.148,0.352s0.824,0.129,1.23,0.129c0.664,0,1.164-0.126,1.5-0.378s0.504-0.603,0.504-1.052
		c0-0.297-0.06-0.54-0.179-0.729s-0.318-0.364-0.598-0.524s-0.704-0.342-1.274-0.545c-0.797-0.285-1.366-0.623-1.708-1.014
		s-0.513-0.9-0.513-1.529c0-0.66,0.248-1.186,0.744-1.576s1.152-0.586,1.969-0.586c0.852,0,1.635,0.156,2.35,0.469l-0.311,0.867
		c-0.707-0.297-1.395-0.445-2.062-0.445c-0.527,0-0.939,0.113-1.236,0.34s-0.445,0.541-0.445,0.943c0,0.297,0.055,0.54,0.164,0.729
		s0.294,0.363,0.554,0.521s0.657,0.333,1.192,0.524c0.898,0.32,1.517,0.664,1.854,1.031S208.9,63.116,208.9,63.702z"/>
	<path d="M215.201,65.981v-4.154c0-0.523-0.119-0.914-0.357-1.172s-0.611-0.387-1.119-0.387c-0.676,0-1.169,0.184-1.479,0.551
		s-0.466,0.969-0.466,1.805v3.357h-0.973v-9.117h0.973v2.76c0,0.332-0.016,0.607-0.047,0.826h0.059
		c0.191-0.309,0.464-0.552,0.817-0.729s0.757-0.267,1.21-0.267c0.785,0,1.374,0.187,1.767,0.56s0.589,0.966,0.589,1.778v4.189
		H215.201z"/>
	<path d="M222.421,65.981l-0.193-0.914h-0.047c-0.32,0.402-0.64,0.675-0.958,0.817s-0.716,0.214-1.192,0.214
		c-0.637,0-1.136-0.164-1.497-0.492s-0.542-0.795-0.542-1.4c0-1.297,1.037-1.977,3.111-2.039l1.09-0.035v-0.398
		c0-0.504-0.108-0.876-0.325-1.116s-0.563-0.36-1.04-0.36c-0.535,0-1.141,0.164-1.816,0.492l-0.299-0.744
		c0.316-0.172,0.663-0.307,1.04-0.404s0.755-0.146,1.134-0.146c0.766,0,1.333,0.17,1.702,0.51s0.554,0.885,0.554,1.635v4.383
		H222.421z M220.224,65.296c0.605,0,1.081-0.166,1.427-0.498s0.519-0.797,0.519-1.395v-0.58l-0.973,0.041
		c-0.773,0.027-1.331,0.147-1.673,0.36s-0.513,0.544-0.513,0.993c0,0.352,0.106,0.619,0.319,0.803S219.841,65.296,220.224,65.296z"
		/>
	<path d="M226.852,65.981l-2.438-6.422h1.043l1.383,3.809c0.312,0.891,0.496,1.469,0.551,1.734h0.047
		c0.043-0.207,0.179-0.636,0.407-1.286s0.741-2.069,1.538-4.257h1.043l-2.438,6.422H226.852z"/>
	<path d="M234.47,66.099c-0.949,0-1.698-0.289-2.247-0.867s-0.823-1.381-0.823-2.408c0-1.035,0.255-1.857,0.765-2.467
		s1.194-0.914,2.054-0.914c0.805,0,1.441,0.265,1.91,0.794s0.703,1.228,0.703,2.095v0.615h-4.424c0.02,0.754,0.21,1.326,0.571,1.717
		s0.87,0.586,1.526,0.586c0.691,0,1.375-0.145,2.051-0.434v0.867c-0.344,0.148-0.669,0.255-0.976,0.319
		S234.903,66.099,234.47,66.099z M234.206,60.257c-0.516,0-0.927,0.168-1.233,0.504s-0.487,0.801-0.542,1.395h3.357
		c0-0.613-0.137-1.083-0.41-1.409S234.714,60.257,234.206,60.257z"/>
	<path d="M243.16,65.12h-0.053c-0.449,0.652-1.121,0.979-2.016,0.979c-0.84,0-1.493-0.287-1.96-0.861s-0.7-1.391-0.7-2.449
		s0.234-1.881,0.703-2.467s1.121-0.879,1.957-0.879c0.871,0,1.539,0.316,2.004,0.949h0.076l-0.041-0.463l-0.023-0.451v-2.613h0.973
		v9.117h-0.791L243.16,65.12z M241.215,65.284c0.664,0,1.146-0.181,1.444-0.542s0.448-0.944,0.448-1.749v-0.205
		c0-0.91-0.151-1.56-0.454-1.948s-0.786-0.583-1.45-0.583c-0.57,0-1.007,0.222-1.31,0.665s-0.454,1.069-0.454,1.878
		c0,0.82,0.15,1.439,0.451,1.857S240.633,65.284,241.215,65.284z"/>
	<path d="M250.007,65.981v-8.566h0.996v8.566H250.007z"/>
	<path d="M256.072,66.099c-0.93,0-1.649-0.286-2.159-0.858s-0.765-1.382-0.765-2.429c0-1.074,0.259-1.904,0.776-2.49
		s1.255-0.879,2.212-0.879c0.309,0,0.617,0.033,0.926,0.1s0.551,0.145,0.727,0.234l-0.299,0.826
		c-0.215-0.086-0.449-0.157-0.703-0.214s-0.479-0.085-0.674-0.085c-1.305,0-1.957,0.832-1.957,2.496
		c0,0.789,0.159,1.395,0.478,1.816s0.79,0.633,1.415,0.633c0.535,0,1.084-0.115,1.646-0.346v0.861
		C257.266,65.987,256.725,66.099,256.072,66.099z"/>
	<path d="M262.231,66.099c-0.949,0-1.698-0.289-2.247-0.867s-0.823-1.381-0.823-2.408c0-1.035,0.255-1.857,0.765-2.467
		s1.194-0.914,2.054-0.914c0.805,0,1.441,0.265,1.91,0.794s0.703,1.228,0.703,2.095v0.615h-4.424c0.02,0.754,0.21,1.326,0.571,1.717
		s0.87,0.586,1.526,0.586c0.691,0,1.375-0.145,2.051-0.434v0.867c-0.344,0.148-0.669,0.255-0.976,0.319
		S262.665,66.099,262.231,66.099z M261.968,60.257c-0.516,0-0.927,0.168-1.233,0.504s-0.487,0.801-0.542,1.395h3.357
		c0-0.613-0.137-1.083-0.41-1.409S262.476,60.257,261.968,60.257z"/>
	<path d="M266.41,65.36c0-0.262,0.06-0.46,0.179-0.595s0.29-0.202,0.513-0.202c0.227,0,0.403,0.067,0.53,0.202
		s0.19,0.333,0.19,0.595c0,0.254-0.064,0.449-0.193,0.586s-0.305,0.205-0.527,0.205c-0.199,0-0.364-0.062-0.495-0.185
		S266.41,65.642,266.41,65.36z"/>
</g>
<g>
	<path d="M1.752,0.27h4.699c2.117,0,3.672,0.359,4.664,1.078s1.488,1.805,1.488,3.258c0,0.992-0.303,1.818-0.908,2.479
		s-1.49,1.084-2.654,1.271v0.07c1.367,0.203,2.373,0.635,3.018,1.295s0.967,1.58,0.967,2.76c0,1.578-0.523,2.793-1.57,3.645
		s-2.531,1.277-4.453,1.277h-5.25V0.27z M2.948,7.898h3.773c1.609,0,2.779-0.268,3.51-0.803s1.096-1.373,1.096-2.514
		s-0.412-1.969-1.236-2.484S8.038,1.324,6.405,1.324H2.948V7.898z M2.948,8.953v7.395h4.031c3.172,0,4.758-1.289,4.758-3.867
		c0-2.352-1.672-3.527-5.016-3.527H2.948z"/>
	<path d="M18,17.402V0.27h1.195v16.008h8.168v1.125H18z"/>
	<path d="M44.114,0.27v11.086c0,1.969-0.57,3.508-1.711,4.617s-2.73,1.664-4.77,1.664c-1.984,0-3.533-0.557-4.646-1.67
		s-1.67-2.666-1.67-4.658V0.27h1.207v11.086c0,1.648,0.457,2.932,1.371,3.85s2.207,1.377,3.879,1.377
		c1.633,0,2.898-0.451,3.797-1.354s1.348-2.154,1.348-3.756V0.27H44.114z"/>
	<path d="M59.34,17.402h-9.363V0.27h9.363v1.102h-8.168v6.48h7.711v1.102h-7.711v7.348h8.168V17.402z"/>
	<path d="M64.419,0.27h4.699c2.117,0,3.672,0.359,4.664,1.078s1.488,1.805,1.488,3.258c0,0.992-0.303,1.818-0.908,2.479
		s-1.49,1.084-2.654,1.271v0.07c1.367,0.203,2.373,0.635,3.018,1.295s0.967,1.58,0.967,2.76c0,1.578-0.523,2.793-1.57,3.645
		s-2.531,1.277-4.453,1.277h-5.25V0.27z M65.615,7.898h3.773c1.609,0,2.779-0.268,3.51-0.803s1.096-1.373,1.096-2.514
		s-0.412-1.969-1.236-2.484s-2.053-0.773-3.686-0.773h-3.457V7.898z M65.615,8.953v7.395h4.031c3.172,0,4.758-1.289,4.758-3.867
		c0-2.352-1.672-3.527-5.016-3.527H65.615z"/>
	<path d="M90.03,17.402h-9.363V0.27h9.363v1.102h-8.168v6.48h7.711v1.102h-7.711v7.348h8.168V17.402z"/>
	<path d="M96.304,9.938v7.465h-1.195V0.27h4.078c2.125,0,3.695,0.393,4.711,1.178s1.523,1.967,1.523,3.545
		c0,1.148-0.303,2.117-0.908,2.906s-1.525,1.355-2.76,1.699l4.652,7.805h-1.43l-4.418-7.465H96.304z M96.304,8.906h3.27
		c1.445,0,2.566-0.322,3.363-0.967s1.195-1.596,1.195-2.854c0-1.305-0.391-2.254-1.172-2.848s-2.055-0.891-3.82-0.891h-2.836V8.906z
		"/>
	<path d="M111.766,9.938v7.465h-1.195V0.27h4.078c2.125,0,3.695,0.393,4.711,1.178s1.523,1.967,1.523,3.545
		c0,1.148-0.303,2.117-0.908,2.906s-1.525,1.355-2.76,1.699l4.652,7.805h-1.43l-4.418-7.465H111.766z M111.766,8.906h3.27
		c1.445,0,2.566-0.322,3.363-0.967s1.195-1.596,1.195-2.854c0-1.305-0.391-2.254-1.172-2.848s-2.055-0.891-3.82-0.891h-2.836V8.906z
		"/>
	<path d="M129.969,9.645l5.016-9.375h1.289l-5.707,10.512v6.621h-1.23v-6.527l-5.73-10.605h1.371L129.969,9.645z"/>
	<path d="M147.334,0.27h4.699c2.117,0,3.672,0.359,4.664,1.078s1.488,1.805,1.488,3.258c0,0.992-0.303,1.818-0.908,2.479
		s-1.49,1.084-2.654,1.271v0.07c1.367,0.203,2.373,0.635,3.018,1.295s0.967,1.58,0.967,2.76c0,1.578-0.523,2.793-1.57,3.645
		s-2.531,1.277-4.453,1.277h-5.25V0.27z M148.53,7.898h3.773c1.609,0,2.779-0.268,3.51-0.803s1.096-1.373,1.096-2.514
		s-0.412-1.969-1.236-2.484s-2.053-0.773-3.686-0.773h-3.457V7.898z M148.53,8.953v7.395h4.031c3.172,0,4.758-1.289,4.758-3.867
		c0-2.352-1.672-3.527-5.016-3.527H148.53z"/>
	<path d="M163.582,17.402V0.27h1.195v17.133H163.582z"/>
	<path d="M183.286,17.402h-1.207L171.93,2.191h-0.094c0.094,1.812,0.141,3.18,0.141,4.102v11.109h-1.148V0.27h1.195l10.137,15.188
		h0.07c-0.07-1.406-0.105-2.742-0.105-4.008V0.27h1.16V17.402z"/>
	<path d="M196.075,8.766h6.316v7.816c-1.656,0.703-3.52,1.055-5.59,1.055c-2.703,0-4.775-0.764-6.217-2.291
		s-2.162-3.689-2.162-6.486c0-1.742,0.357-3.287,1.072-4.635s1.738-2.389,3.07-3.123S195.426,0,197.153,0
		c1.867,0,3.543,0.344,5.027,1.031l-0.48,1.078c-1.484-0.688-3.023-1.031-4.617-1.031c-2.258,0-4.049,0.697-5.373,2.092
		s-1.986,3.275-1.986,5.643c0,2.578,0.629,4.518,1.887,5.818s3.105,1.951,5.543,1.951c1.578,0,2.918-0.223,4.02-0.668V9.891h-5.098
		V8.766z"/>
	<path d="M217.349,12.984c0,1.43-0.525,2.562-1.576,3.398s-2.447,1.254-4.189,1.254c-2.094,0-3.699-0.23-4.816-0.691V15.75
		c1.234,0.523,2.809,0.785,4.723,0.785c1.406,0,2.521-0.322,3.346-0.967s1.236-1.49,1.236-2.537c0-0.648-0.137-1.186-0.41-1.611
		s-0.719-0.814-1.336-1.166s-1.523-0.73-2.719-1.137c-1.75-0.602-2.959-1.252-3.627-1.951s-1.002-1.631-1.002-2.795
		c0-1.281,0.502-2.326,1.506-3.135s2.295-1.213,3.873-1.213c1.609,0,3.121,0.305,4.535,0.914l-0.434,1.031
		c-1.422-0.594-2.781-0.891-4.078-0.891c-1.266,0-2.273,0.293-3.023,0.879s-1.125,1.383-1.125,2.391
		c0,0.633,0.115,1.152,0.346,1.559s0.607,0.771,1.131,1.096s1.422,0.713,2.695,1.166c1.336,0.461,2.34,0.908,3.012,1.342
		s1.162,0.926,1.471,1.477S217.349,12.203,217.349,12.984z"/>
	<path d="M236.573,8.812c0,2.719-0.68,4.869-2.039,6.451s-3.234,2.373-5.625,2.373c-2.383,0-4.254-0.791-5.613-2.373
		s-2.039-3.74-2.039-6.475c0-2.727,0.686-4.873,2.057-6.439S226.557,0,228.932,0c2.391,0,4.262,0.787,5.613,2.361
		S236.573,6.086,236.573,8.812z M222.557,8.812c0,2.453,0.547,4.35,1.641,5.689s2.664,2.01,4.711,2.01
		c2.062,0,3.639-0.664,4.729-1.992s1.635-3.23,1.635-5.707c0-2.469-0.545-4.361-1.635-5.678s-2.658-1.975-4.705-1.975
		c-2.039,0-3.611,0.664-4.717,1.992S222.557,6.367,222.557,8.812z"/>
	<path d="M256.113,8.812c0,2.719-0.68,4.869-2.039,6.451s-3.234,2.373-5.625,2.373c-2.383,0-4.254-0.791-5.613-2.373
		s-2.039-3.74-2.039-6.475c0-2.727,0.686-4.873,2.057-6.439S246.097,0,248.472,0c2.391,0,4.262,0.787,5.613,2.361
		S256.113,6.086,256.113,8.812z M242.097,8.812c0,2.453,0.547,4.35,1.641,5.689s2.664,2.01,4.711,2.01
		c2.062,0,3.639-0.664,4.729-1.992s1.635-3.23,1.635-5.707c0-2.469-0.545-4.361-1.635-5.678s-2.658-1.975-4.705-1.975
		c-2.039,0-3.611,0.664-4.717,1.992S242.097,6.367,242.097,8.812z"/>
</g>
</svg>