<!-- Generator: Adobe Illustrator 21.0.0, SVG Export Plug-In  -->
<svg version="1.1"
	 xmlns="http://www.w3.org/2000/svg" xmlns:xlink="http://www.w3.org/1999/xlink" xmlns:a="http://ns.adobe.com/AdobeSVGViewerExtensions/3.0/"
	 x="0px" y="0px" width="147.575px" height="25.805px" viewBox="0 0 147.575 25.805"
	 style="enable-background:new 0 0 147.575 25.805;" xml:space="preserve">
<defs>
</defs>
<g>
	<path d="M12.428,25.805H6.979V4.641H0V0.105h19.406v4.535h-6.979V25.805z"/>
	<path d="M40.894,25.805l-1.863-6.117h-9.369l-1.863,6.117h-5.871L30.997,0h6.662l9.105,25.805H40.894z M37.729,15.117
		c-1.723-5.543-2.692-8.678-2.909-9.404s-0.372-1.301-0.466-1.723c-0.387,1.5-1.494,5.209-3.322,11.127H37.729z"/>
	<path d="M51.799,25.805V0.105h5.449v25.699H51.799z"/>
	<path d="M73.516,10.688l5.361-10.582h5.871l-8.525,15.697v10.002h-5.414v-9.826L62.283,0.105h5.906L73.516,10.688z"/>
	<path d="M105.515,25.805l-1.863-6.117h-9.369l-1.863,6.117h-5.871L95.618,0h6.662l9.105,25.805H105.515z M102.351,15.117
		c-1.723-5.543-2.692-8.678-2.909-9.404s-0.372-1.301-0.466-1.723c-0.387,1.5-1.494,5.209-3.322,11.127H102.351z"/>
	<path d="M137.092,25.805h-6.188l-6.732-10.828l-2.303,1.652v9.176h-5.449V0.105h5.449v11.76l2.145-3.023l6.961-8.736h6.047
		l-8.965,11.373L137.092,25.805z"/>
	<path d="M142.126,25.805V0.105h5.449v25.699H142.126z"/>
</g>
</svg>