<!-- Generator: Adobe Illustrator 21.0.0, SVG Export Plug-In  -->
<svg version="1.1"
	 xmlns="http://www.w3.org/2000/svg" xmlns:xlink="http://www.w3.org/1999/xlink" xmlns:a="http://ns.adobe.com/AdobeSVGViewerExtensions/3.0/"
	 x="0px" y="0px" width="294.001px" height="173.543px" viewBox="0 0 294.001 173.543"
	 style="enable-background:new 0 0 294.001 173.543;" xml:space="preserve">
<style type="text/css">
	.st0{fill:#B9C83E;}
</style>
<defs>
</defs>
<g>
	<path d="M33.98,118.583c0,1.371-0.347,2.449-1.04,3.234s-1.657,1.178-2.892,1.178c-1.262,0-2.235-0.386-2.921-1.157
		s-1.028-1.86-1.028-3.267c0-1.395,0.344-2.476,1.031-3.243s1.664-1.151,2.93-1.151c1.23,0,2.191,0.391,2.883,1.172
		S33.98,117.208,33.98,118.583z M27.154,118.583c0,1.16,0.247,2.04,0.741,2.64s1.212,0.899,2.153,0.899
		c0.949,0,1.666-0.299,2.15-0.896s0.727-1.479,0.727-2.643c0-1.152-0.241-2.026-0.724-2.622s-1.196-0.894-2.142-0.894
		c-0.949,0-1.671,0.3-2.165,0.899S27.154,117.438,27.154,118.583z"/>
	<path d="M36.958,116.456v4.166c0,0.523,0.119,0.914,0.357,1.172s0.611,0.387,1.119,0.387c0.672,0,1.163-0.184,1.474-0.551
		s0.466-0.967,0.466-1.799v-3.375h0.973v6.422h-0.803l-0.141-0.861H40.35c-0.199,0.316-0.476,0.559-0.829,0.727
		s-0.757,0.252-1.21,0.252c-0.781,0-1.366-0.186-1.755-0.557s-0.583-0.965-0.583-1.781v-4.201H36.958z"/>
	<path d="M46.638,116.339c0.285,0,0.541,0.023,0.768,0.07l-0.135,0.902c-0.266-0.059-0.5-0.088-0.703-0.088
		c-0.52,0-0.964,0.211-1.333,0.633s-0.554,0.947-0.554,1.576v3.445h-0.973v-6.422h0.803l0.111,1.189h0.047
		c0.238-0.418,0.525-0.74,0.861-0.967S46.236,116.339,46.638,116.339z"/>
	<path d="M55.108,122.878h-0.996v-7.682h-2.713v-0.885h6.422v0.885h-2.713V122.878z"/>
	<path d="M63.212,122.878l-0.193-0.914h-0.047c-0.32,0.402-0.64,0.675-0.958,0.817s-0.716,0.214-1.192,0.214
		c-0.637,0-1.136-0.164-1.497-0.492s-0.542-0.795-0.542-1.4c0-1.297,1.037-1.977,3.111-2.039l1.09-0.035v-0.398
		c0-0.504-0.108-0.876-0.325-1.116s-0.563-0.36-1.04-0.36c-0.535,0-1.141,0.164-1.816,0.492l-0.299-0.744
		c0.316-0.172,0.663-0.307,1.04-0.404s0.755-0.146,1.134-0.146c0.766,0,1.333,0.17,1.702,0.51s0.554,0.885,0.554,1.635v4.383H63.212
		z M61.015,122.192c0.605,0,1.081-0.166,1.427-0.498s0.519-0.797,0.519-1.395v-0.58l-0.973,0.041
		c-0.773,0.027-1.331,0.147-1.673,0.36s-0.513,0.544-0.513,0.993c0,0.352,0.106,0.619,0.319,0.803S60.632,122.192,61.015,122.192z"
		/>
	<path d="M66.155,114.716c0-0.223,0.055-0.386,0.164-0.489s0.246-0.155,0.41-0.155c0.156,0,0.291,0.053,0.404,0.158
		s0.17,0.268,0.17,0.486s-0.057,0.382-0.17,0.489s-0.248,0.161-0.404,0.161c-0.164,0-0.301-0.054-0.41-0.161
		S66.155,114.934,66.155,114.716z M67.209,122.878h-0.973v-6.422h0.973V122.878z"/>
	<path d="M68.552,116.456h1.043l1.406,3.662c0.309,0.836,0.5,1.439,0.574,1.811h0.047c0.051-0.199,0.157-0.54,0.319-1.022
		s0.692-1.966,1.591-4.45h1.043l-2.76,7.312c-0.273,0.723-0.593,1.235-0.958,1.538s-0.813,0.454-1.345,0.454
		c-0.297,0-0.59-0.033-0.879-0.1v-0.779c0.215,0.047,0.455,0.07,0.721,0.07c0.668,0,1.145-0.375,1.43-1.125l0.357-0.914
		L68.552,116.456z"/>
	<path d="M79.869,122.878l-0.193-0.914h-0.047c-0.32,0.402-0.64,0.675-0.958,0.817s-0.716,0.214-1.192,0.214
		c-0.637,0-1.136-0.164-1.497-0.492s-0.542-0.795-0.542-1.4c0-1.297,1.037-1.977,3.111-2.039l1.09-0.035v-0.398
		c0-0.504-0.108-0.876-0.325-1.116s-0.563-0.36-1.04-0.36c-0.535,0-1.141,0.164-1.816,0.492l-0.299-0.744
		c0.316-0.172,0.663-0.307,1.04-0.404s0.755-0.146,1.134-0.146c0.766,0,1.333,0.17,1.702,0.51s0.554,0.885,0.554,1.635v4.383H79.869
		z M77.671,122.192c0.605,0,1.081-0.166,1.427-0.498s0.519-0.797,0.519-1.395v-0.58l-0.973,0.041
		c-0.773,0.027-1.331,0.147-1.673,0.36s-0.513,0.544-0.513,0.993c0,0.352,0.106,0.619,0.319,0.803S77.289,122.192,77.671,122.192z"
		/>
	<path d="M83.854,119.591c0.168-0.238,0.424-0.551,0.768-0.938l2.074-2.197h1.154l-2.602,2.736l2.783,3.686h-1.178l-2.268-3.035
		l-0.732,0.633v2.402h-0.961v-9.117h0.961v4.834c0,0.215-0.016,0.547-0.047,0.996H83.854z"/>
	<path d="M89.41,114.716c0-0.223,0.055-0.386,0.164-0.489s0.246-0.155,0.41-0.155c0.156,0,0.291,0.053,0.404,0.158
		s0.17,0.268,0.17,0.486s-0.057,0.382-0.17,0.489s-0.248,0.161-0.404,0.161c-0.164,0-0.301-0.054-0.41-0.161
		S89.41,114.934,89.41,114.716z M90.464,122.878h-0.973v-6.422h0.973V122.878z"/>
	<path d="M98.81,122.995c-0.93,0-1.649-0.286-2.159-0.858s-0.765-1.382-0.765-2.429c0-1.074,0.259-1.904,0.776-2.49
		s1.255-0.879,2.212-0.879c0.309,0,0.617,0.033,0.926,0.1s0.551,0.145,0.727,0.234l-0.299,0.826
		c-0.215-0.086-0.449-0.157-0.703-0.214s-0.479-0.085-0.674-0.085c-1.305,0-1.957,0.832-1.957,2.496
		c0,0.789,0.159,1.395,0.478,1.816s0.79,0.633,1.415,0.633c0.535,0,1.084-0.115,1.646-0.346v0.861
		C100.003,122.884,99.462,122.995,98.81,122.995z"/>
	<path d="M107.8,119.661c0,1.047-0.264,1.864-0.791,2.452s-1.256,0.882-2.186,0.882c-0.574,0-1.084-0.135-1.529-0.404
		s-0.789-0.656-1.031-1.16s-0.363-1.094-0.363-1.77c0-1.047,0.262-1.862,0.785-2.446s1.25-0.876,2.18-0.876
		c0.898,0,1.612,0.299,2.142,0.896S107.8,118.641,107.8,119.661z M102.908,119.661c0,0.82,0.164,1.445,0.492,1.875
		s0.811,0.645,1.447,0.645s1.12-0.214,1.45-0.642s0.495-1.054,0.495-1.878c0-0.816-0.165-1.437-0.495-1.86s-0.817-0.636-1.462-0.636
		c-0.637,0-1.117,0.209-1.441,0.627S102.908,118.833,102.908,119.661z"/>
	<path d="M117.991,122.878V118.7c0-0.512-0.109-0.896-0.328-1.151s-0.559-0.384-1.02-0.384c-0.605,0-1.053,0.174-1.342,0.521
		s-0.434,0.883-0.434,1.605v3.586h-0.973V118.7c0-0.512-0.109-0.896-0.328-1.151s-0.561-0.384-1.025-0.384
		c-0.609,0-1.056,0.183-1.339,0.548s-0.425,0.964-0.425,1.796v3.369h-0.973v-6.422h0.791l0.158,0.879h0.047
		c0.184-0.312,0.442-0.557,0.776-0.732s0.708-0.264,1.122-0.264c1.004,0,1.66,0.363,1.969,1.09h0.047
		c0.191-0.336,0.469-0.602,0.832-0.797s0.777-0.293,1.242-0.293c0.727,0,1.271,0.187,1.632,0.56s0.542,0.97,0.542,1.79v4.189
		H117.991z"/>
	<path d="M123.98,122.995c-0.949,0-1.698-0.289-2.247-0.867s-0.823-1.381-0.823-2.408c0-1.035,0.255-1.857,0.765-2.467
		s1.194-0.914,2.054-0.914c0.805,0,1.441,0.265,1.91,0.794s0.703,1.228,0.703,2.095v0.615h-4.424c0.02,0.754,0.21,1.326,0.571,1.717
		s0.87,0.586,1.526,0.586c0.691,0,1.375-0.145,2.051-0.434v0.867c-0.344,0.148-0.669,0.255-0.976,0.319
		S124.414,122.995,123.98,122.995z M123.716,117.153c-0.516,0-0.927,0.168-1.233,0.504s-0.487,0.801-0.542,1.395h3.357
		c0-0.613-0.137-1.083-0.41-1.409S124.224,117.153,123.716,117.153z"/>
	<path d="M132.442,121.126c0,0.598-0.223,1.059-0.668,1.383s-1.07,0.486-1.875,0.486c-0.852,0-1.516-0.135-1.992-0.404v-0.902
		c0.309,0.156,0.64,0.279,0.993,0.369s0.694,0.135,1.022,0.135c0.508,0,0.898-0.081,1.172-0.243s0.41-0.409,0.41-0.741
		c0-0.25-0.108-0.464-0.325-0.642s-0.64-0.388-1.269-0.63c-0.598-0.223-1.022-0.417-1.274-0.583s-0.439-0.354-0.562-0.565
		s-0.185-0.463-0.185-0.756c0-0.523,0.213-0.937,0.639-1.239s1.01-0.454,1.752-0.454c0.691,0,1.367,0.141,2.027,0.422l-0.346,0.791
		c-0.645-0.266-1.229-0.398-1.752-0.398c-0.461,0-0.809,0.072-1.043,0.217s-0.352,0.344-0.352,0.598
		c0,0.172,0.044,0.318,0.132,0.439s0.229,0.236,0.425,0.346s0.57,0.268,1.125,0.475c0.762,0.277,1.276,0.557,1.544,0.838
		S132.442,120.7,132.442,121.126z"/>
	<path d="M142.986,122.878l-1.178-3.768c-0.074-0.23-0.213-0.754-0.416-1.57h-0.047c-0.156,0.684-0.293,1.211-0.41,1.582
		l-1.213,3.756h-1.125l-1.752-6.422h1.02c0.414,1.613,0.729,2.842,0.946,3.686s0.341,1.412,0.372,1.705h0.047
		c0.043-0.223,0.112-0.511,0.208-0.864s0.179-0.634,0.249-0.841l1.178-3.686h1.055l1.148,3.686c0.219,0.672,0.367,1.236,0.445,1.693
		h0.047c0.016-0.141,0.058-0.357,0.126-0.65s0.476-1.869,1.222-4.729h1.008l-1.775,6.422H142.986z"/>
	<path d="M147.293,114.716c0-0.223,0.055-0.386,0.164-0.489s0.246-0.155,0.41-0.155c0.156,0,0.291,0.053,0.404,0.158
		s0.17,0.268,0.17,0.486s-0.057,0.382-0.17,0.489s-0.248,0.161-0.404,0.161c-0.164,0-0.301-0.054-0.41-0.161
		S147.293,114.934,147.293,114.716z M148.348,122.878h-0.973v-6.422h0.973V122.878z"/>
	<path d="M152.785,122.192c0.172,0,0.338-0.013,0.498-0.038s0.287-0.052,0.381-0.079v0.744c-0.105,0.051-0.261,0.093-0.466,0.126
		s-0.39,0.05-0.554,0.05c-1.242,0-1.863-0.654-1.863-1.963v-3.82h-0.92v-0.469l0.92-0.404l0.41-1.371h0.562v1.488h1.863v0.756
		h-1.863v3.779c0,0.387,0.092,0.684,0.275,0.891S152.464,122.192,152.785,122.192z"/>
	<path d="M159.641,122.878v-4.154c0-0.523-0.119-0.914-0.357-1.172s-0.611-0.387-1.119-0.387c-0.676,0-1.169,0.184-1.479,0.551
		s-0.466,0.969-0.466,1.805v3.357h-0.973v-9.117h0.973v2.76c0,0.332-0.016,0.607-0.047,0.826h0.059
		c0.191-0.309,0.464-0.552,0.817-0.729s0.757-0.267,1.21-0.267c0.785,0,1.374,0.187,1.767,0.56s0.589,0.966,0.589,1.778v4.189
		H159.641z"/>
	<path d="M170.701,122.016h-0.053c-0.449,0.652-1.121,0.979-2.016,0.979c-0.84,0-1.493-0.287-1.96-0.861s-0.7-1.391-0.7-2.449
		s0.234-1.881,0.703-2.467s1.121-0.879,1.957-0.879c0.871,0,1.539,0.316,2.004,0.949h0.076l-0.041-0.463l-0.023-0.451v-2.613h0.973
		v9.117h-0.791L170.701,122.016z M168.755,122.18c0.664,0,1.146-0.181,1.444-0.542s0.448-0.944,0.448-1.749v-0.205
		c0-0.91-0.151-1.56-0.454-1.948s-0.786-0.583-1.45-0.583c-0.57,0-1.007,0.222-1.31,0.665s-0.454,1.069-0.454,1.878
		c0,0.82,0.15,1.439,0.451,1.857S168.173,122.18,168.755,122.18z"/>
	<path d="M173.901,114.716c0-0.223,0.055-0.386,0.164-0.489s0.246-0.155,0.41-0.155c0.156,0,0.291,0.053,0.404,0.158
		s0.17,0.268,0.17,0.486s-0.057,0.382-0.17,0.489s-0.248,0.161-0.404,0.161c-0.164,0-0.301-0.054-0.41-0.161
		S173.901,114.934,173.901,114.716z M174.956,122.878h-0.973v-6.422h0.973V122.878z"/>
	<path d="M180.212,117.212h-1.635v5.666h-0.973v-5.666h-1.148v-0.439l1.148-0.352v-0.357c0-1.578,0.689-2.367,2.068-2.367
		c0.34,0,0.738,0.068,1.195,0.205l-0.252,0.779c-0.375-0.121-0.695-0.182-0.961-0.182c-0.367,0-0.639,0.122-0.814,0.366
		s-0.264,0.636-0.264,1.175v0.416h1.635V117.212z M184.279,117.212h-1.635v5.666h-0.973v-5.666h-1.148v-0.439l1.148-0.352v-0.357
		c0-1.578,0.689-2.367,2.068-2.367c0.34,0,0.738,0.068,1.195,0.205l-0.252,0.779c-0.375-0.121-0.695-0.182-0.961-0.182
		c-0.367,0-0.639,0.122-0.814,0.366s-0.264,0.636-0.264,1.175v0.416h1.635V117.212z"/>
	<path d="M188.469,122.995c-0.949,0-1.698-0.289-2.247-0.867s-0.823-1.381-0.823-2.408c0-1.035,0.255-1.857,0.765-2.467
		s1.194-0.914,2.054-0.914c0.805,0,1.441,0.265,1.91,0.794s0.703,1.228,0.703,2.095v0.615h-4.424c0.02,0.754,0.21,1.326,0.571,1.717
		s0.87,0.586,1.526,0.586c0.691,0,1.375-0.145,2.051-0.434v0.867c-0.344,0.148-0.669,0.255-0.976,0.319
		S188.903,122.995,188.469,122.995z M188.206,117.153c-0.516,0-0.927,0.168-1.233,0.504s-0.487,0.801-0.542,1.395h3.357
		c0-0.613-0.137-1.083-0.41-1.409S188.713,117.153,188.206,117.153z"/>
	<path d="M195.718,116.339c0.285,0,0.541,0.023,0.768,0.07l-0.135,0.902c-0.266-0.059-0.5-0.088-0.703-0.088
		c-0.52,0-0.964,0.211-1.333,0.633s-0.554,0.947-0.554,1.576v3.445h-0.973v-6.422h0.803l0.111,1.189h0.047
		c0.238-0.418,0.525-0.74,0.861-0.967S195.316,116.339,195.718,116.339z"/>
	<path d="M200.701,122.995c-0.949,0-1.698-0.289-2.247-0.867s-0.823-1.381-0.823-2.408c0-1.035,0.255-1.857,0.765-2.467
		s1.194-0.914,2.054-0.914c0.805,0,1.441,0.265,1.91,0.794s0.703,1.228,0.703,2.095v0.615h-4.424c0.02,0.754,0.21,1.326,0.571,1.717
		s0.87,0.586,1.526,0.586c0.691,0,1.375-0.145,2.051-0.434v0.867c-0.344,0.148-0.669,0.255-0.976,0.319
		S201.134,122.995,200.701,122.995z M200.437,117.153c-0.516,0-0.927,0.168-1.233,0.504s-0.487,0.801-0.542,1.395h3.357
		c0-0.613-0.137-1.083-0.41-1.409S200.945,117.153,200.437,117.153z"/>
	<path d="M209.415,122.878v-4.154c0-0.523-0.119-0.914-0.357-1.172s-0.611-0.387-1.119-0.387c-0.672,0-1.164,0.182-1.477,0.545
		s-0.469,0.963-0.469,1.799v3.369h-0.973v-6.422h0.791l0.158,0.879h0.047c0.199-0.316,0.479-0.562,0.838-0.735
		s0.76-0.261,1.201-0.261c0.773,0,1.355,0.187,1.746,0.56s0.586,0.97,0.586,1.79v4.189H209.415z"/>
	<path d="M214.759,122.192c0.172,0,0.338-0.013,0.498-0.038s0.287-0.052,0.381-0.079v0.744c-0.105,0.051-0.261,0.093-0.466,0.126
		s-0.39,0.05-0.554,0.05c-1.242,0-1.863-0.654-1.863-1.963v-3.82h-0.92v-0.469l0.92-0.404l0.41-1.371h0.562v1.488h1.863v0.756
		h-1.863v3.779c0,0.387,0.092,0.684,0.275,0.891S214.439,122.192,214.759,122.192z"/>
	<path d="M223.533,117.212h-1.635v5.666h-0.973v-5.666h-1.148v-0.439l1.148-0.352v-0.357c0-1.578,0.689-2.367,2.068-2.367
		c0.34,0,0.738,0.068,1.195,0.205l-0.252,0.779c-0.375-0.121-0.695-0.182-0.961-0.182c-0.367,0-0.639,0.122-0.814,0.366
		s-0.264,0.636-0.264,1.175v0.416h1.635V117.212z M224.623,114.716c0-0.223,0.055-0.386,0.164-0.489s0.246-0.155,0.41-0.155
		c0.156,0,0.291,0.053,0.404,0.158s0.17,0.268,0.17,0.486s-0.057,0.382-0.17,0.489s-0.248,0.161-0.404,0.161
		c-0.164,0-0.301-0.054-0.41-0.161S224.623,114.934,224.623,114.716z M225.677,122.878h-0.973v-6.422h0.973V122.878z"/>
	<path d="M229.013,122.878h-0.973v-9.117h0.973V122.878z"/>
	<path d="M232.348,122.878h-0.973v-9.117h0.973V122.878z"/>
	<path d="M234.628,114.716c0-0.223,0.055-0.386,0.164-0.489s0.246-0.155,0.41-0.155c0.156,0,0.291,0.053,0.404,0.158
		s0.17,0.268,0.17,0.486s-0.057,0.382-0.17,0.489s-0.248,0.161-0.404,0.161c-0.164,0-0.301-0.054-0.41-0.161
		S234.628,114.934,234.628,114.716z M235.683,122.878h-0.973v-6.422h0.973V122.878z"/>
	<path d="M242.44,122.878v-4.154c0-0.523-0.119-0.914-0.357-1.172s-0.611-0.387-1.119-0.387c-0.672,0-1.164,0.182-1.477,0.545
		s-0.469,0.963-0.469,1.799v3.369h-0.973v-6.422h0.791l0.158,0.879h0.047c0.199-0.316,0.479-0.562,0.838-0.735
		s0.76-0.261,1.201-0.261c0.773,0,1.355,0.187,1.746,0.56s0.586,0.97,0.586,1.79v4.189H242.44z"/>
	<path d="M250.966,116.456v0.615l-1.189,0.141c0.109,0.137,0.207,0.315,0.293,0.536s0.129,0.47,0.129,0.747
		c0,0.629-0.215,1.131-0.645,1.506s-1.02,0.562-1.77,0.562c-0.191,0-0.371-0.016-0.539-0.047c-0.414,0.219-0.621,0.494-0.621,0.826
		c0,0.176,0.072,0.306,0.217,0.39s0.393,0.126,0.744,0.126h1.137c0.695,0,1.229,0.146,1.603,0.439s0.56,0.719,0.56,1.277
		c0,0.711-0.285,1.253-0.855,1.626s-1.402,0.56-2.496,0.56c-0.84,0-1.487-0.156-1.942-0.469s-0.683-0.754-0.683-1.324
		c0-0.391,0.125-0.729,0.375-1.014s0.602-0.479,1.055-0.58c-0.164-0.074-0.302-0.189-0.413-0.346s-0.167-0.338-0.167-0.545
		c0-0.234,0.062-0.439,0.188-0.615s0.322-0.346,0.592-0.51c-0.332-0.137-0.603-0.369-0.812-0.697s-0.313-0.703-0.313-1.125
		c0-0.703,0.211-1.245,0.633-1.626s1.02-0.571,1.793-0.571c0.336,0,0.639,0.039,0.908,0.117H250.966z M245.845,123.956
		c0,0.348,0.146,0.611,0.439,0.791s0.713,0.27,1.26,0.27c0.816,0,1.421-0.122,1.813-0.366s0.589-0.575,0.589-0.993
		c0-0.348-0.107-0.589-0.322-0.724s-0.619-0.202-1.213-0.202h-1.166c-0.441,0-0.785,0.105-1.031,0.316
		S245.845,123.561,245.845,123.956z M246.373,118.513c0,0.449,0.127,0.789,0.381,1.02s0.607,0.346,1.061,0.346
		c0.949,0,1.424-0.461,1.424-1.383c0-0.965-0.48-1.447-1.441-1.447c-0.457,0-0.809,0.123-1.055,0.369
		S246.373,118.028,246.373,118.513z"/>
	<path d="M256.728,121.126c0,0.598-0.223,1.059-0.668,1.383s-1.07,0.486-1.875,0.486c-0.852,0-1.516-0.135-1.992-0.404v-0.902
		c0.309,0.156,0.64,0.279,0.993,0.369s0.694,0.135,1.022,0.135c0.508,0,0.898-0.081,1.172-0.243s0.41-0.409,0.41-0.741
		c0-0.25-0.108-0.464-0.325-0.642s-0.64-0.388-1.269-0.63c-0.598-0.223-1.022-0.417-1.274-0.583s-0.439-0.354-0.562-0.565
		s-0.185-0.463-0.185-0.756c0-0.523,0.213-0.937,0.639-1.239s1.01-0.454,1.752-0.454c0.691,0,1.367,0.141,2.027,0.422l-0.346,0.791
		c-0.645-0.266-1.229-0.398-1.752-0.398c-0.461,0-0.809,0.072-1.043,0.217s-0.352,0.344-0.352,0.598
		c0,0.172,0.044,0.318,0.132,0.439s0.229,0.236,0.425,0.346s0.57,0.268,1.125,0.475c0.762,0.277,1.276,0.557,1.544,0.838
		S256.728,120.7,256.728,121.126z"/>
	<path d="M258.469,122.257c0-0.262,0.06-0.46,0.179-0.595s0.29-0.202,0.513-0.202c0.227,0,0.403,0.067,0.53,0.202
		s0.19,0.333,0.19,0.595c0,0.254-0.064,0.449-0.193,0.586s-0.305,0.205-0.527,0.205c-0.199,0-0.364-0.062-0.495-0.185
		S258.469,122.538,258.469,122.257z"/>
	<path d="M27.541,135.315v3.562h-0.996v-8.566h2.35c1.051,0,1.827,0.201,2.329,0.604s0.753,1.008,0.753,1.816
		c0,1.133-0.574,1.898-1.723,2.297l2.326,3.85h-1.178l-2.074-3.562H27.541z M27.541,134.46h1.365c0.703,0,1.219-0.14,1.547-0.419
		s0.492-0.698,0.492-1.257c0-0.566-0.167-0.975-0.501-1.225s-0.87-0.375-1.608-0.375h-1.295V134.46z"/>
	<path d="M36.829,138.995c-0.949,0-1.698-0.289-2.247-0.867s-0.823-1.381-0.823-2.408c0-1.035,0.255-1.857,0.765-2.467
		s1.194-0.914,2.054-0.914c0.805,0,1.441,0.265,1.91,0.794s0.703,1.228,0.703,2.095v0.615h-4.424c0.02,0.754,0.21,1.326,0.571,1.717
		s0.87,0.586,1.526,0.586c0.691,0,1.375-0.145,2.051-0.434v0.867c-0.344,0.148-0.669,0.255-0.976,0.319
		S37.262,138.995,36.829,138.995z M36.565,133.153c-0.516,0-0.927,0.168-1.233,0.504s-0.487,0.801-0.542,1.395h3.357
		c0-0.613-0.137-1.083-0.41-1.409S37.073,133.153,36.565,133.153z"/>
	<path d="M45.519,138.016h-0.053c-0.449,0.652-1.121,0.979-2.016,0.979c-0.84,0-1.493-0.287-1.96-0.861s-0.7-1.391-0.7-2.449
		s0.234-1.881,0.703-2.467s1.121-0.879,1.957-0.879c0.871,0,1.539,0.316,2.004,0.949h0.076l-0.041-0.463l-0.023-0.451v-2.613h0.973
		v9.117h-0.791L45.519,138.016z M43.574,138.18c0.664,0,1.146-0.181,1.444-0.542s0.448-0.944,0.448-1.749v-0.205
		c0-0.91-0.151-1.56-0.454-1.948s-0.786-0.583-1.45-0.583c-0.57,0-1.007,0.222-1.31,0.665s-0.454,1.069-0.454,1.878
		c0,0.82,0.15,1.439,0.451,1.857S42.992,138.18,43.574,138.18z"/>
	<path d="M52.366,130.311h2.42c1.137,0,1.959,0.17,2.467,0.51s0.762,0.877,0.762,1.611c0,0.508-0.142,0.927-0.425,1.257
		s-0.696,0.544-1.239,0.642v0.059c1.301,0.223,1.951,0.906,1.951,2.051c0,0.766-0.259,1.363-0.776,1.793s-1.241,0.645-2.171,0.645
		h-2.988V130.311z M53.362,133.979h1.641c0.703,0,1.209-0.11,1.518-0.331s0.463-0.593,0.463-1.116c0-0.48-0.172-0.827-0.516-1.04
		s-0.891-0.319-1.641-0.319h-1.465V133.979z M53.362,134.823v3.205h1.787c0.691,0,1.212-0.134,1.562-0.401s0.524-0.687,0.524-1.257
		c0-0.531-0.179-0.922-0.536-1.172s-0.901-0.375-1.632-0.375H53.362z"/>
	<path d="M63.007,138.995c-0.949,0-1.698-0.289-2.247-0.867s-0.823-1.381-0.823-2.408c0-1.035,0.255-1.857,0.765-2.467
		s1.194-0.914,2.054-0.914c0.805,0,1.441,0.265,1.91,0.794s0.703,1.228,0.703,2.095v0.615h-4.424c0.02,0.754,0.21,1.326,0.571,1.717
		s0.87,0.586,1.526,0.586c0.691,0,1.375-0.145,2.051-0.434v0.867c-0.344,0.148-0.669,0.255-0.976,0.319
		S63.441,138.995,63.007,138.995z M62.744,133.153c-0.516,0-0.927,0.168-1.233,0.504s-0.487,0.801-0.542,1.395h3.357
		c0-0.613-0.137-1.083-0.41-1.409S63.251,133.153,62.744,133.153z"/>
	<path d="M71.276,138.878l-0.193-0.914h-0.047c-0.32,0.402-0.64,0.675-0.958,0.817s-0.716,0.214-1.192,0.214
		c-0.637,0-1.136-0.164-1.497-0.492s-0.542-0.795-0.542-1.4c0-1.297,1.037-1.977,3.111-2.039l1.09-0.035v-0.398
		c0-0.504-0.108-0.876-0.325-1.116s-0.563-0.36-1.04-0.36c-0.535,0-1.141,0.164-1.816,0.492l-0.299-0.744
		c0.316-0.172,0.663-0.307,1.04-0.404s0.755-0.146,1.134-0.146c0.766,0,1.333,0.17,1.702,0.51s0.554,0.885,0.554,1.635v4.383H71.276
		z M69.079,138.192c0.605,0,1.081-0.166,1.427-0.498s0.519-0.797,0.519-1.395v-0.58l-0.973,0.041
		c-0.773,0.027-1.331,0.147-1.673,0.36s-0.513,0.544-0.513,0.993c0,0.352,0.106,0.619,0.319,0.803S68.696,138.192,69.079,138.192z"
		/>
	<path d="M78.695,138.878v-4.154c0-0.523-0.119-0.914-0.357-1.172s-0.611-0.387-1.119-0.387c-0.672,0-1.164,0.182-1.477,0.545
		s-0.469,0.963-0.469,1.799v3.369H74.3v-6.422h0.791l0.158,0.879h0.047c0.199-0.316,0.479-0.562,0.838-0.735s0.76-0.261,1.201-0.261
		c0.773,0,1.355,0.187,1.746,0.56s0.586,0.97,0.586,1.79v4.189H78.695z"/>
	<path d="M82.986,137.483l0.088,0.135c-0.102,0.391-0.248,0.845-0.439,1.362s-0.391,0.999-0.598,1.444h-0.732
		c0.105-0.406,0.222-0.908,0.349-1.506s0.216-1.076,0.267-1.436H82.986z"/>
	<path d="M92.439,131.079c-0.941,0-1.685,0.313-2.229,0.94s-0.817,1.485-0.817,2.575c0,1.121,0.263,1.987,0.788,2.599
		s1.274,0.917,2.247,0.917c0.598,0,1.279-0.107,2.045-0.322v0.873c-0.594,0.223-1.326,0.334-2.197,0.334
		c-1.262,0-2.235-0.383-2.921-1.148s-1.028-1.854-1.028-3.264c0-0.883,0.165-1.656,0.495-2.32s0.807-1.176,1.43-1.535
		s1.356-0.539,2.2-0.539c0.898,0,1.684,0.164,2.355,0.492l-0.422,0.855C93.736,131.231,93.087,131.079,92.439,131.079z"/>
	<path d="M97.409,132.456v4.166c0,0.523,0.119,0.914,0.357,1.172s0.611,0.387,1.119,0.387c0.672,0,1.163-0.184,1.474-0.551
		s0.466-0.967,0.466-1.799v-3.375h0.973v6.422h-0.803l-0.141-0.861h-0.053c-0.199,0.316-0.476,0.559-0.829,0.727
		s-0.757,0.252-1.21,0.252c-0.781,0-1.366-0.186-1.755-0.557s-0.583-0.965-0.583-1.781v-4.201H97.409z"/>
	<path d="M108.302,137.126c0,0.598-0.223,1.059-0.668,1.383s-1.07,0.486-1.875,0.486c-0.852,0-1.516-0.135-1.992-0.404v-0.902
		c0.309,0.156,0.64,0.279,0.993,0.369s0.694,0.135,1.022,0.135c0.508,0,0.898-0.081,1.172-0.243s0.41-0.409,0.41-0.741
		c0-0.25-0.108-0.464-0.325-0.642s-0.64-0.388-1.269-0.63c-0.598-0.223-1.022-0.417-1.274-0.583s-0.439-0.354-0.562-0.565
		s-0.185-0.463-0.185-0.756c0-0.523,0.213-0.937,0.639-1.239s1.01-0.454,1.752-0.454c0.691,0,1.367,0.141,2.027,0.422l-0.346,0.791
		c-0.645-0.266-1.229-0.398-1.752-0.398c-0.461,0-0.809,0.072-1.043,0.217s-0.352,0.344-0.352,0.598
		c0,0.172,0.044,0.318,0.132,0.439s0.229,0.236,0.425,0.346s0.57,0.268,1.125,0.475c0.762,0.277,1.276,0.557,1.544,0.838
		S108.302,136.7,108.302,137.126z"/>
	<path d="M112.259,138.192c0.172,0,0.338-0.013,0.498-0.038s0.287-0.052,0.381-0.079v0.744c-0.105,0.051-0.261,0.093-0.466,0.126
		s-0.39,0.05-0.554,0.05c-1.242,0-1.863-0.654-1.863-1.963v-3.82h-0.92v-0.469l0.92-0.404l0.41-1.371h0.562v1.488h1.863v0.756
		h-1.863v3.779c0,0.387,0.092,0.684,0.275,0.891S111.939,138.192,112.259,138.192z"/>
	<path d="M118.67,138.878l-0.193-0.914h-0.047c-0.32,0.402-0.64,0.675-0.958,0.817s-0.716,0.214-1.192,0.214
		c-0.637,0-1.136-0.164-1.497-0.492s-0.542-0.795-0.542-1.4c0-1.297,1.037-1.977,3.111-2.039l1.09-0.035v-0.398
		c0-0.504-0.108-0.876-0.325-1.116s-0.563-0.36-1.04-0.36c-0.535,0-1.141,0.164-1.816,0.492l-0.299-0.744
		c0.316-0.172,0.663-0.307,1.04-0.404s0.755-0.146,1.134-0.146c0.766,0,1.333,0.17,1.702,0.51s0.554,0.885,0.554,1.635v4.383H118.67
		z M116.473,138.192c0.605,0,1.081-0.166,1.427-0.498s0.519-0.797,0.519-1.395v-0.58l-0.973,0.041
		c-0.773,0.027-1.331,0.147-1.673,0.36s-0.513,0.544-0.513,0.993c0,0.352,0.106,0.619,0.319,0.803S116.09,138.192,116.473,138.192z"
		/>
	<path d="M124.625,132.339c0.285,0,0.541,0.023,0.768,0.07l-0.135,0.902c-0.266-0.059-0.5-0.088-0.703-0.088
		c-0.52,0-0.964,0.211-1.333,0.633s-0.554,0.947-0.554,1.576v3.445h-0.973v-6.422h0.803l0.111,1.189h0.047
		c0.238-0.418,0.525-0.74,0.861-0.967S124.222,132.339,124.625,132.339z"/>
	<path d="M131.264,138.016h-0.053c-0.449,0.652-1.121,0.979-2.016,0.979c-0.84,0-1.493-0.287-1.96-0.861s-0.7-1.391-0.7-2.449
		s0.234-1.881,0.703-2.467s1.121-0.879,1.957-0.879c0.871,0,1.539,0.316,2.004,0.949h0.076l-0.041-0.463l-0.023-0.451v-2.613h0.973
		v9.117h-0.791L131.264,138.016z M129.319,138.18c0.664,0,1.146-0.181,1.444-0.542s0.448-0.944,0.448-1.749v-0.205
		c0-0.91-0.151-1.56-0.454-1.948s-0.786-0.583-1.45-0.583c-0.57,0-1.007,0.222-1.31,0.665s-0.454,1.069-0.454,1.878
		c0,0.82,0.15,1.439,0.451,1.857S128.737,138.18,129.319,138.18z"/>
	<path d="M135.566,137.483l0.088,0.135c-0.102,0.391-0.248,0.845-0.439,1.362s-0.391,0.999-0.598,1.444h-0.732
		c0.105-0.406,0.222-0.908,0.349-1.506s0.216-1.076,0.267-1.436H135.566z"/>
	<path d="M145.02,131.079c-0.941,0-1.685,0.313-2.229,0.94s-0.817,1.485-0.817,2.575c0,1.121,0.263,1.987,0.788,2.599
		s1.274,0.917,2.247,0.917c0.598,0,1.279-0.107,2.045-0.322v0.873c-0.594,0.223-1.326,0.334-2.197,0.334
		c-1.262,0-2.235-0.383-2.921-1.148s-1.028-1.854-1.028-3.264c0-0.883,0.165-1.656,0.495-2.32s0.807-1.176,1.43-1.535
		s1.356-0.539,2.2-0.539c0.898,0,1.684,0.164,2.355,0.492l-0.422,0.855C146.317,131.231,145.668,131.079,145.02,131.079z"/>
	<path d="M153.47,138.878v-4.154c0-0.523-0.119-0.914-0.357-1.172s-0.611-0.387-1.119-0.387c-0.676,0-1.169,0.184-1.479,0.551
		s-0.466,0.969-0.466,1.805v3.357h-0.973v-9.117h0.973v2.76c0,0.332-0.016,0.607-0.047,0.826h0.059
		c0.191-0.309,0.464-0.552,0.817-0.729s0.757-0.267,1.21-0.267c0.785,0,1.374,0.187,1.767,0.56s0.589,0.966,0.589,1.778v4.189
		H153.47z"/>
	<path d="M162.284,135.661c0,1.047-0.264,1.864-0.791,2.452s-1.256,0.882-2.186,0.882c-0.574,0-1.084-0.135-1.529-0.404
		s-0.789-0.656-1.031-1.16s-0.363-1.094-0.363-1.77c0-1.047,0.262-1.862,0.785-2.446s1.25-0.876,2.18-0.876
		c0.898,0,1.612,0.299,2.142,0.896S162.284,134.641,162.284,135.661z M157.391,135.661c0,0.82,0.164,1.445,0.492,1.875
		s0.811,0.645,1.447,0.645s1.12-0.214,1.45-0.642s0.495-1.054,0.495-1.878c0-0.816-0.165-1.437-0.495-1.86s-0.817-0.636-1.462-0.636
		c-0.637,0-1.117,0.209-1.441,0.627S157.391,134.833,157.391,135.661z"/>
	<path d="M166.855,138.995c-0.93,0-1.649-0.286-2.159-0.858s-0.765-1.382-0.765-2.429c0-1.074,0.259-1.904,0.776-2.49
		s1.255-0.879,2.212-0.879c0.309,0,0.617,0.033,0.926,0.1s0.551,0.145,0.727,0.234l-0.299,0.826
		c-0.215-0.086-0.449-0.157-0.703-0.214s-0.479-0.085-0.674-0.085c-1.305,0-1.957,0.832-1.957,2.496
		c0,0.789,0.159,1.395,0.478,1.816s0.79,0.633,1.415,0.633c0.535,0,1.084-0.115,1.646-0.346v0.861
		C168.048,138.884,167.507,138.995,166.855,138.995z"/>
	<path d="M175.845,135.661c0,1.047-0.264,1.864-0.791,2.452s-1.256,0.882-2.186,0.882c-0.574,0-1.084-0.135-1.529-0.404
		s-0.789-0.656-1.031-1.16s-0.363-1.094-0.363-1.77c0-1.047,0.262-1.862,0.785-2.446s1.25-0.876,2.18-0.876
		c0.898,0,1.612,0.299,2.142,0.896S175.845,134.641,175.845,135.661z M170.953,135.661c0,0.82,0.164,1.445,0.492,1.875
		s0.811,0.645,1.447,0.645s1.12-0.214,1.45-0.642s0.495-1.054,0.495-1.878c0-0.816-0.165-1.437-0.495-1.86s-0.817-0.636-1.462-0.636
		c-0.637,0-1.117,0.209-1.441,0.627S170.953,134.833,170.953,135.661z"/>
	<path d="M178.823,138.878h-0.973v-9.117h0.973V138.878z"/>
	<path d="M185.134,138.878l-0.193-0.914h-0.047c-0.32,0.402-0.64,0.675-0.958,0.817s-0.716,0.214-1.192,0.214
		c-0.637,0-1.136-0.164-1.497-0.492s-0.542-0.795-0.542-1.4c0-1.297,1.037-1.977,3.111-2.039l1.09-0.035v-0.398
		c0-0.504-0.108-0.876-0.325-1.116s-0.563-0.36-1.04-0.36c-0.535,0-1.141,0.164-1.816,0.492l-0.299-0.744
		c0.316-0.172,0.663-0.307,1.04-0.404s0.755-0.146,1.134-0.146c0.766,0,1.333,0.17,1.702,0.51s0.554,0.885,0.554,1.635v4.383
		H185.134z M182.937,138.192c0.605,0,1.081-0.166,1.427-0.498s0.519-0.797,0.519-1.395v-0.58l-0.973,0.041
		c-0.773,0.027-1.331,0.147-1.673,0.36s-0.513,0.544-0.513,0.993c0,0.352,0.106,0.619,0.319,0.803S182.554,138.192,182.937,138.192z
		"/>
	<path d="M190.233,138.192c0.172,0,0.338-0.013,0.498-0.038s0.287-0.052,0.381-0.079v0.744c-0.105,0.051-0.261,0.093-0.466,0.126
		s-0.39,0.05-0.554,0.05c-1.242,0-1.863-0.654-1.863-1.963v-3.82h-0.92v-0.469l0.92-0.404l0.41-1.371h0.562v1.488h1.863v0.756
		h-1.863v3.779c0,0.387,0.092,0.684,0.275,0.891S189.913,138.192,190.233,138.192z"/>
	<path d="M195.408,138.995c-0.949,0-1.698-0.289-2.247-0.867s-0.823-1.381-0.823-2.408c0-1.035,0.255-1.857,0.765-2.467
		s1.194-0.914,2.054-0.914c0.805,0,1.441,0.265,1.91,0.794s0.703,1.228,0.703,2.095v0.615h-4.424c0.02,0.754,0.21,1.326,0.571,1.717
		s0.87,0.586,1.526,0.586c0.691,0,1.375-0.145,2.051-0.434v0.867c-0.344,0.148-0.669,0.255-0.976,0.319
		S195.841,138.995,195.408,138.995z M195.144,133.153c-0.516,0-0.927,0.168-1.233,0.504s-0.487,0.801-0.542,1.395h3.357
		c0-0.613-0.137-1.083-0.41-1.409S195.652,133.153,195.144,133.153z"/>
	<path d="M200.748,137.483l0.088,0.135c-0.102,0.391-0.248,0.845-0.439,1.362s-0.391,0.999-0.598,1.444h-0.732
		c0.105-0.406,0.222-0.908,0.349-1.506s0.216-1.076,0.267-1.436H200.748z"/>
	<path d="M206.533,138.878v-8.566h0.996v8.566H206.533z"/>
	<path d="M214.426,138.878v-4.154c0-0.523-0.119-0.914-0.357-1.172s-0.611-0.387-1.119-0.387c-0.672,0-1.164,0.182-1.477,0.545
		s-0.469,0.963-0.469,1.799v3.369h-0.973v-6.422h0.791l0.158,0.879h0.047c0.199-0.316,0.479-0.562,0.838-0.735
		s0.76-0.261,1.201-0.261c0.773,0,1.355,0.187,1.746,0.56s0.586,0.97,0.586,1.79v4.189H214.426z"/>
	<path d="M216.917,141.761c-0.371,0-0.672-0.049-0.902-0.146v-0.791c0.27,0.078,0.535,0.117,0.797,0.117
		c0.305,0,0.528-0.083,0.671-0.249s0.214-0.419,0.214-0.759v-7.477h0.973v7.406C218.669,141.128,218.085,141.761,216.917,141.761z
		 M217.615,130.716c0-0.223,0.055-0.386,0.164-0.489s0.246-0.155,0.41-0.155c0.156,0,0.291,0.053,0.404,0.158s0.17,0.268,0.17,0.486
		s-0.057,0.382-0.17,0.489s-0.248,0.161-0.404,0.161c-0.164,0-0.301-0.054-0.41-0.161S217.615,130.934,217.615,130.716z"/>
	<path d="M223.746,138.995c-0.949,0-1.698-0.289-2.247-0.867s-0.823-1.381-0.823-2.408c0-1.035,0.255-1.857,0.765-2.467
		s1.194-0.914,2.054-0.914c0.805,0,1.441,0.265,1.91,0.794s0.703,1.228,0.703,2.095v0.615h-4.424c0.02,0.754,0.21,1.326,0.571,1.717
		s0.87,0.586,1.526,0.586c0.691,0,1.375-0.145,2.051-0.434v0.867c-0.344,0.148-0.669,0.255-0.976,0.319
		S224.179,138.995,223.746,138.995z M223.482,133.153c-0.516,0-0.927,0.168-1.233,0.504s-0.487,0.801-0.542,1.395h3.357
		c0-0.613-0.137-1.083-0.41-1.409S223.99,133.153,223.482,133.153z"/>
	<path d="M233.608,135.661c0,1.047-0.264,1.864-0.791,2.452s-1.256,0.882-2.186,0.882c-0.574,0-1.084-0.135-1.529-0.404
		s-0.789-0.656-1.031-1.16s-0.363-1.094-0.363-1.77c0-1.047,0.262-1.862,0.785-2.446s1.25-0.876,2.18-0.876
		c0.898,0,1.612,0.299,2.142,0.896S233.608,134.641,233.608,135.661z M228.715,135.661c0,0.82,0.164,1.445,0.492,1.875
		s0.811,0.645,1.447,0.645s1.12-0.214,1.45-0.642s0.495-1.054,0.495-1.878c0-0.816-0.165-1.437-0.495-1.86s-0.817-0.636-1.462-0.636
		c-0.637,0-1.117,0.209-1.441,0.627S228.715,134.833,228.715,135.661z"/>
	<path d="M236.585,138.878h-0.973v-9.117h0.973V138.878z"/>
	<path d="M247.133,138.878V134.7c0-0.512-0.109-0.896-0.328-1.151s-0.559-0.384-1.02-0.384c-0.605,0-1.053,0.174-1.342,0.521
		s-0.434,0.883-0.434,1.605v3.586h-0.973V134.7c0-0.512-0.109-0.896-0.328-1.151s-0.561-0.384-1.025-0.384
		c-0.609,0-1.056,0.183-1.339,0.548s-0.425,0.964-0.425,1.796v3.369h-0.973v-6.422h0.791l0.158,0.879h0.047
		c0.184-0.312,0.442-0.557,0.776-0.732s0.708-0.264,1.122-0.264c1.004,0,1.66,0.363,1.969,1.09h0.047
		c0.191-0.336,0.469-0.602,0.832-0.797s0.777-0.293,1.242-0.293c0.727,0,1.271,0.187,1.632,0.56s0.542,0.97,0.542,1.79v4.189
		H247.133z"/>
	<path d="M250.328,130.716c0-0.223,0.055-0.386,0.164-0.489s0.246-0.155,0.41-0.155c0.156,0,0.291,0.053,0.404,0.158
		s0.17,0.268,0.17,0.486s-0.057,0.382-0.17,0.489s-0.248,0.161-0.404,0.161c-0.164,0-0.301-0.054-0.41-0.161
		S250.328,130.934,250.328,130.716z M251.382,138.878h-0.973v-6.422h0.973V138.878z"/>
	<path d="M254.765,137.483l0.088,0.135c-0.102,0.391-0.248,0.845-0.439,1.362s-0.391,0.999-0.598,1.444h-0.732
		c0.105-0.406,0.222-0.908,0.349-1.506s0.216-1.076,0.267-1.436H254.765z"/>
	<path d="M30.347,154.878l-0.193-0.914h-0.047c-0.32,0.402-0.64,0.675-0.958,0.817s-0.716,0.214-1.192,0.214
		c-0.637,0-1.136-0.164-1.497-0.492s-0.542-0.795-0.542-1.4c0-1.297,1.037-1.977,3.111-2.039l1.09-0.035v-0.398
		c0-0.504-0.108-0.876-0.325-1.116s-0.563-0.36-1.04-0.36c-0.535,0-1.141,0.164-1.816,0.492l-0.299-0.744
		c0.316-0.172,0.663-0.307,1.04-0.404s0.755-0.146,1.134-0.146c0.766,0,1.333,0.17,1.702,0.51s0.554,0.885,0.554,1.635v4.383H30.347
		z M28.15,154.192c0.605,0,1.081-0.166,1.427-0.498s0.519-0.797,0.519-1.395v-0.58l-0.973,0.041
		c-0.773,0.027-1.331,0.147-1.673,0.36s-0.513,0.544-0.513,0.993c0,0.352,0.106,0.619,0.319,0.803S27.767,154.192,28.15,154.192z"/>
	<path d="M37.766,154.878v-4.154c0-0.523-0.119-0.914-0.357-1.172s-0.611-0.387-1.119-0.387c-0.672,0-1.164,0.182-1.477,0.545
		s-0.469,0.963-0.469,1.799v3.369h-0.973v-6.422h0.791l0.158,0.879h0.047c0.199-0.316,0.479-0.562,0.838-0.735
		s0.76-0.261,1.201-0.261c0.773,0,1.355,0.187,1.746,0.56s0.586,0.97,0.586,1.79v4.189H37.766z"/>
	<path d="M45.408,154.016h-0.053c-0.449,0.652-1.121,0.979-2.016,0.979c-0.84,0-1.493-0.287-1.96-0.861s-0.7-1.391-0.7-2.449
		s0.234-1.881,0.703-2.467s1.121-0.879,1.957-0.879c0.871,0,1.539,0.316,2.004,0.949h0.076l-0.041-0.463l-0.023-0.451v-2.613h0.973
		v9.117h-0.791L45.408,154.016z M43.462,154.18c0.664,0,1.146-0.181,1.444-0.542s0.448-0.944,0.448-1.749v-0.205
		c0-0.91-0.151-1.56-0.454-1.948s-0.786-0.583-1.45-0.583c-0.57,0-1.007,0.222-1.31,0.665s-0.454,1.069-0.454,1.878
		c0,0.82,0.15,1.439,0.451,1.857S42.88,154.18,43.462,154.18z"/>
	<path d="M57.088,152.598c0,0.754-0.273,1.342-0.82,1.764s-1.289,0.633-2.227,0.633c-1.016,0-1.797-0.131-2.344-0.393v-0.961
		c0.352,0.148,0.734,0.266,1.148,0.352s0.824,0.129,1.23,0.129c0.664,0,1.164-0.126,1.5-0.378s0.504-0.603,0.504-1.052
		c0-0.297-0.06-0.54-0.179-0.729s-0.318-0.364-0.598-0.524s-0.704-0.342-1.274-0.545c-0.797-0.285-1.366-0.623-1.708-1.014
		s-0.513-0.9-0.513-1.529c0-0.66,0.248-1.186,0.744-1.576s1.152-0.586,1.969-0.586c0.852,0,1.635,0.156,2.35,0.469l-0.311,0.867
		c-0.707-0.297-1.395-0.445-2.062-0.445c-0.527,0-0.939,0.113-1.236,0.34s-0.445,0.541-0.445,0.943c0,0.297,0.055,0.54,0.164,0.729
		s0.294,0.363,0.554,0.521s0.657,0.333,1.192,0.524c0.898,0.32,1.517,0.664,1.854,1.031S57.088,152.013,57.088,152.598z"/>
	<path d="M64.238,154.878l-1.178-3.768c-0.074-0.23-0.213-0.754-0.416-1.57h-0.047c-0.156,0.684-0.293,1.211-0.41,1.582
		l-1.213,3.756h-1.125l-1.752-6.422h1.02c0.414,1.613,0.729,2.842,0.946,3.686s0.341,1.412,0.372,1.705h0.047
		c0.043-0.223,0.112-0.511,0.208-0.864s0.179-0.634,0.249-0.841l1.178-3.686h1.055l1.148,3.686c0.219,0.672,0.367,1.236,0.445,1.693
		h0.047c0.016-0.141,0.058-0.357,0.126-0.65s0.476-1.869,1.222-4.729h1.008l-1.775,6.422H64.238z"/>
	<path d="M71.34,154.995c-0.949,0-1.698-0.289-2.247-0.867s-0.823-1.381-0.823-2.408c0-1.035,0.255-1.857,0.765-2.467
		s1.194-0.914,2.054-0.914c0.805,0,1.441,0.265,1.91,0.794s0.703,1.228,0.703,2.095v0.615h-4.424c0.02,0.754,0.21,1.326,0.571,1.717
		s0.87,0.586,1.526,0.586c0.691,0,1.375-0.145,2.051-0.434v0.867c-0.344,0.148-0.669,0.255-0.976,0.319
		S71.774,154.995,71.34,154.995z M71.077,149.153c-0.516,0-0.927,0.168-1.233,0.504s-0.487,0.801-0.542,1.395h3.357
		c0-0.613-0.137-1.083-0.41-1.409S71.584,149.153,71.077,149.153z"/>
	<path d="M78.373,154.995c-0.949,0-1.698-0.289-2.247-0.867s-0.823-1.381-0.823-2.408c0-1.035,0.255-1.857,0.765-2.467
		s1.194-0.914,2.054-0.914c0.805,0,1.441,0.265,1.91,0.794s0.703,1.228,0.703,2.095v0.615H76.31c0.02,0.754,0.21,1.326,0.571,1.717
		s0.87,0.586,1.526,0.586c0.691,0,1.375-0.145,2.051-0.434v0.867c-0.344,0.148-0.669,0.255-0.976,0.319
		S78.806,154.995,78.373,154.995z M78.109,149.153c-0.516,0-0.927,0.168-1.233,0.504s-0.487,0.801-0.542,1.395h3.357
		c0-0.613-0.137-1.083-0.41-1.409S78.617,149.153,78.109,149.153z"/>
	<path d="M84.767,154.192c0.172,0,0.338-0.013,0.498-0.038s0.287-0.052,0.381-0.079v0.744c-0.105,0.051-0.261,0.093-0.466,0.126
		s-0.39,0.05-0.554,0.05c-1.242,0-1.863-0.654-1.863-1.963v-3.82h-0.92v-0.469l0.92-0.404l0.41-1.371h0.562v1.488h1.863v0.756
		h-1.863v3.779c0,0.387,0.092,0.684,0.275,0.891S84.447,154.192,84.767,154.192z"/>
	<path d="M96.224,148.807c0,0.867-0.296,1.534-0.888,2.001s-1.438,0.7-2.54,0.7h-1.008v3.369h-0.996v-8.566h2.221
		C95.154,146.311,96.224,147.143,96.224,148.807z M91.789,150.653h0.896c0.883,0,1.521-0.143,1.916-0.428s0.592-0.742,0.592-1.371
		c0-0.566-0.186-0.988-0.557-1.266s-0.949-0.416-1.734-0.416h-1.113V150.653z"/>
	<path d="M103.713,151.661c0,1.047-0.264,1.864-0.791,2.452s-1.256,0.882-2.186,0.882c-0.574,0-1.084-0.135-1.529-0.404
		s-0.789-0.656-1.031-1.16s-0.363-1.094-0.363-1.77c0-1.047,0.262-1.862,0.785-2.446s1.25-0.876,2.18-0.876
		c0.898,0,1.612,0.299,2.142,0.896S103.713,150.641,103.713,151.661z M98.821,151.661c0,0.82,0.164,1.445,0.492,1.875
		s0.811,0.645,1.447,0.645s1.12-0.214,1.45-0.642s0.495-1.054,0.495-1.878c0-0.816-0.165-1.437-0.495-1.86s-0.817-0.636-1.462-0.636
		c-0.637,0-1.117,0.209-1.441,0.627S98.821,150.833,98.821,151.661z"/>
	<path d="M107.792,154.192c0.172,0,0.338-0.013,0.498-0.038s0.287-0.052,0.381-0.079v0.744c-0.105,0.051-0.261,0.093-0.466,0.126
		s-0.39,0.05-0.554,0.05c-1.242,0-1.863-0.654-1.863-1.963v-3.82h-0.92v-0.469l0.92-0.404l0.41-1.371h0.562v1.488h1.863v0.756
		h-1.863v3.779c0,0.387,0.092,0.684,0.275,0.891S107.472,154.192,107.792,154.192z"/>
	<path d="M114.205,154.878l-0.193-0.914h-0.047c-0.32,0.402-0.64,0.675-0.958,0.817s-0.716,0.214-1.192,0.214
		c-0.637,0-1.136-0.164-1.497-0.492s-0.542-0.795-0.542-1.4c0-1.297,1.037-1.977,3.111-2.039l1.09-0.035v-0.398
		c0-0.504-0.108-0.876-0.325-1.116s-0.563-0.36-1.04-0.36c-0.535,0-1.141,0.164-1.816,0.492l-0.299-0.744
		c0.316-0.172,0.663-0.307,1.04-0.404s0.755-0.146,1.134-0.146c0.766,0,1.333,0.17,1.702,0.51s0.554,0.885,0.554,1.635v4.383
		H114.205z M112.007,154.192c0.605,0,1.081-0.166,1.427-0.498s0.519-0.797,0.519-1.395v-0.58l-0.973,0.041
		c-0.773,0.027-1.331,0.147-1.673,0.36s-0.513,0.544-0.513,0.993c0,0.352,0.106,0.619,0.319,0.803S111.625,154.192,112.007,154.192z
		"/>
	<path d="M119.303,154.192c0.172,0,0.338-0.013,0.498-0.038s0.287-0.052,0.381-0.079v0.744c-0.105,0.051-0.261,0.093-0.466,0.126
		s-0.39,0.05-0.554,0.05c-1.242,0-1.863-0.654-1.863-1.963v-3.82h-0.92v-0.469l0.92-0.404l0.41-1.371h0.562v1.488h1.863v0.756
		h-1.863v3.779c0,0.387,0.092,0.684,0.275,0.891S118.983,154.192,119.303,154.192z"/>
	<path d="M127.308,151.661c0,1.047-0.264,1.864-0.791,2.452s-1.256,0.882-2.186,0.882c-0.574,0-1.084-0.135-1.529-0.404
		s-0.789-0.656-1.031-1.16s-0.363-1.094-0.363-1.77c0-1.047,0.262-1.862,0.785-2.446s1.25-0.876,2.18-0.876
		c0.898,0,1.612,0.299,2.142,0.896S127.308,150.641,127.308,151.661z M122.416,151.661c0,0.82,0.164,1.445,0.492,1.875
		s0.811,0.645,1.447,0.645s1.12-0.214,1.45-0.642s0.495-1.054,0.495-1.878c0-0.816-0.165-1.437-0.495-1.86s-0.817-0.636-1.462-0.636
		c-0.637,0-1.117,0.209-1.441,0.627S122.416,150.833,122.416,151.661z"/>
	<path d="M129.172,154.257c0-0.262,0.06-0.46,0.179-0.595s0.29-0.202,0.513-0.202c0.227,0,0.403,0.067,0.53,0.202
		s0.19,0.333,0.19,0.595c0,0.254-0.064,0.449-0.193,0.586s-0.305,0.205-0.527,0.205c-0.199,0-0.364-0.062-0.495-0.185
		S129.172,154.538,129.172,154.257z"/>
</g>
<g>
	<path d="M32.257,90.3H31.05V74.292h-5.566v-1.125h12.34v1.125h-5.566V90.3z"/>
	<path d="M50.157,90.3v-8.262c0-1.281-0.27-2.213-0.809-2.795s-1.375-0.873-2.508-0.873c-1.523,0-2.639,0.385-3.346,1.154
		s-1.061,2.018-1.061,3.744V90.3h-1.16V72.065h1.16v5.801l-0.059,1.629h0.082c0.477-0.766,1.078-1.32,1.805-1.664
		s1.629-0.516,2.707-0.516c2.891,0,4.336,1.551,4.336,4.652V90.3H50.157z"/>
	<path d="M61.775,90.534c-1.852,0-3.295-0.57-4.33-1.711s-1.553-2.738-1.553-4.793c0-2.031,0.5-3.658,1.5-4.881
		s2.348-1.834,4.043-1.834c1.5,0,2.684,0.523,3.551,1.57s1.301,2.469,1.301,4.266v0.938h-9.176c0.016,1.75,0.424,3.086,1.225,4.008
		s1.947,1.383,3.439,1.383c0.727,0,1.365-0.051,1.916-0.152s1.248-0.32,2.092-0.656v1.055c-0.719,0.312-1.383,0.525-1.992,0.639
		S62.509,90.534,61.775,90.534z M61.435,78.347c-1.227,0-2.211,0.404-2.953,1.213s-1.176,1.975-1.301,3.498h7.875
		c0-1.477-0.32-2.631-0.961-3.463S62.568,78.347,61.435,78.347z"/>
	<path d="M79.924,90.3h-1.195V73.167h9.387v1.102h-8.191v7.266h7.734v1.113h-7.734V90.3z"/>
	<path d="M91.519,74.022c0-0.75,0.246-1.125,0.738-1.125c0.242,0,0.432,0.098,0.568,0.293s0.205,0.473,0.205,0.832
		c0,0.352-0.068,0.629-0.205,0.832s-0.326,0.305-0.568,0.305C91.765,75.159,91.519,74.78,91.519,74.022z M92.843,90.3h-1.16V77.561
		h1.16V90.3z"/>
	<path d="M99.469,90.3h-1.16V72.065h1.16V90.3z"/>
	<path d="M106.095,90.3h-1.16V72.065h1.16V90.3z"/>
	<path d="M111.396,74.022c0-0.75,0.246-1.125,0.738-1.125c0.242,0,0.432,0.098,0.568,0.293s0.205,0.473,0.205,0.832
		c0,0.352-0.068,0.629-0.205,0.832s-0.326,0.305-0.568,0.305C111.642,75.159,111.396,74.78,111.396,74.022z M112.72,90.3h-1.16
		V77.561h1.16V90.3z"/>
	<path d="M127.069,90.3v-8.262c0-1.281-0.27-2.213-0.809-2.795s-1.375-0.873-2.508-0.873c-1.523,0-2.639,0.385-3.346,1.154
		s-1.061,2.018-1.061,3.744V90.3h-1.16V77.561h0.984l0.223,1.746h0.07c0.828-1.328,2.301-1.992,4.418-1.992
		c2.891,0,4.336,1.551,4.336,4.652V90.3H127.069z"/>
	<path d="M143.48,77.561v0.809l-2.637,0.164c0.703,0.875,1.055,1.836,1.055,2.883c0,1.227-0.408,2.221-1.225,2.982
		s-1.912,1.143-3.287,1.143c-0.578,0-0.984-0.023-1.219-0.07c-0.461,0.242-0.812,0.527-1.055,0.855s-0.363,0.676-0.363,1.043
		c0,0.406,0.154,0.703,0.463,0.891s0.826,0.281,1.553,0.281h2.227c1.383,0,2.441,0.279,3.176,0.838s1.102,1.385,1.102,2.479
		c0,1.344-0.545,2.381-1.635,3.111s-2.643,1.096-4.658,1.096c-1.602,0-2.842-0.309-3.721-0.926s-1.318-1.477-1.318-2.578
		c0-0.875,0.271-1.602,0.814-2.18s1.279-0.973,2.209-1.184c-0.383-0.164-0.689-0.396-0.92-0.697s-0.346-0.646-0.346-1.037
		c0-0.852,0.543-1.602,1.629-2.25c-0.742-0.305-1.32-0.783-1.734-1.436s-0.621-1.4-0.621-2.244c0-1.273,0.404-2.295,1.213-3.064
		s1.9-1.154,3.275-1.154c0.836,0,1.484,0.082,1.945,0.246H143.48z M133.167,92.456c0,1.75,1.301,2.625,3.902,2.625
		c3.344,0,5.016-1.066,5.016-3.199c0-0.766-0.262-1.32-0.785-1.664s-1.371-0.516-2.543-0.516h-2.086
		C134.335,89.702,133.167,90.62,133.167,92.456z M134.14,81.534c0,0.984,0.299,1.748,0.896,2.291s1.396,0.814,2.396,0.814
		c1.062,0,1.877-0.27,2.443-0.809s0.85-1.32,0.85-2.344c0-1.086-0.291-1.9-0.873-2.443s-1.396-0.814-2.443-0.814
		c-1.016,0-1.814,0.291-2.396,0.873S134.14,80.495,134.14,81.534z"/>
	<path d="M155.192,86.983c0,1.141-0.434,2.018-1.301,2.631s-2.098,0.92-3.691,0.92c-1.703,0-3.055-0.262-4.055-0.785v-1.254
		c1.281,0.641,2.633,0.961,4.055,0.961c1.258,0,2.213-0.209,2.865-0.627s0.979-0.975,0.979-1.67c0-0.641-0.26-1.18-0.779-1.617
		s-1.373-0.867-2.561-1.289c-1.273-0.461-2.168-0.857-2.684-1.189s-0.904-0.707-1.166-1.125s-0.393-0.928-0.393-1.529
		c0-0.953,0.4-1.707,1.201-2.262s1.92-0.832,3.357-0.832c1.375,0,2.68,0.258,3.914,0.773l-0.434,1.055
		c-1.25-0.516-2.41-0.773-3.48-0.773c-1.039,0-1.863,0.172-2.473,0.516s-0.914,0.82-0.914,1.43c0,0.664,0.236,1.195,0.709,1.594
		s1.396,0.844,2.771,1.336c1.148,0.414,1.984,0.787,2.508,1.119s0.916,0.709,1.178,1.131S155.192,86.413,155.192,86.983z"/>
</g>
<g>
	<g>
		<path d="M294.001,173.543H0V16h294.001V173.543z M1.323,171.755h291.355V17.788H1.323V171.755z"/>
	</g>
</g>
<g>
	<g>
		<rect x="26" width="45" height="32"/>
	</g>
</g>
<g>
	<g>
		<path class="st0" d="M44.863,10.47c1.212,0,2.137,0.647,2.775,1.941c0.337,1.034,0.506,1.989,0.506,2.864v0.595
			c0,1.08-0.223,2.172-0.67,3.274c-0.674,1.039-1.527,1.559-2.557,1.559h-0.082c-1.121,0-2-0.59-2.639-1.771
			c-0.392-1.003-0.588-2.11-0.588-3.322v-0.075c0-1.285,0.232-2.454,0.697-3.507C42.994,10.989,43.847,10.47,44.863,10.47z
			 M42.949,15.46v0.28c0,1.153,0.205,2.114,0.615,2.885c0.369,0.456,0.786,0.684,1.251,0.684h0.075c1.043,0,1.657-0.836,1.839-2.509
			c0.05-0.278,0.084-0.69,0.103-1.237c0-0.976-0.167-1.902-0.499-2.782c-0.383-0.61-0.864-0.916-1.442-0.916
			c-0.707,0-1.228,0.395-1.565,1.183C43.074,13.881,42.949,14.686,42.949,15.46z"/>
	</g>
	<g>
		<path class="st0" d="M51.871,10.477c0.994,0,1.857,0.442,2.591,1.326c0.387,0.588,0.581,1.196,0.581,1.825
			c0,0.957-0.458,1.866-1.374,2.728l-2.563,2.933h3.397c0.369,0,0.592,0.224,0.67,0.67v0.062c-0.068,0.456-0.301,0.684-0.697,0.684
			h-5.031c-0.447-0.082-0.67-0.314-0.67-0.697v-0.027c0-0.224,0.18-0.504,0.54-0.841l3.992-4.553
			c0.196-0.273,0.294-0.593,0.294-0.957c0-0.779-0.41-1.326-1.23-1.641c-0.127-0.041-0.278-0.062-0.451-0.062h-0.075
			c-0.748,0-1.288,0.401-1.62,1.203c-0.041,0.164-0.071,0.383-0.089,0.656c-0.168,0.342-0.392,0.513-0.67,0.513h-0.068
			c-0.451-0.082-0.677-0.306-0.677-0.67c0-1.103,0.524-2.005,1.572-2.707C50.853,10.625,51.379,10.477,51.871,10.477z"/>
	</g>
</g>
</svg>