<!-- Generator: Adobe Illustrator 21.0.0, SVG Export Plug-In  -->
<svg version="1.1"
	 xmlns="http://www.w3.org/2000/svg" xmlns:xlink="http://www.w3.org/1999/xlink" xmlns:a="http://ns.adobe.com/AdobeSVGViewerExtensions/3.0/"
	 x="0px" y="0px" width="498.046px" height="100.134px" viewBox="0 0 498.046 100.134"
	 style="enable-background:new 0 0 498.046 100.134;" xml:space="preserve">
<defs>
</defs>
<g>
	<path d="M10.808,55.76c0,1.6-0.404,2.857-1.213,3.773c-0.81,0.916-1.934,1.374-3.374,1.374c-1.472,0-2.608-0.45-3.407-1.35
		c-0.801-0.9-1.2-2.171-1.2-3.812c0-1.627,0.401-2.888,1.203-3.784c0.802-0.895,1.941-1.343,3.418-1.343
		c1.436,0,2.557,0.456,3.363,1.367S10.808,54.155,10.808,55.76z M2.844,55.76c0,1.354,0.288,2.38,0.864,3.079
		c0.577,0.7,1.414,1.05,2.513,1.05c1.107,0,1.943-0.349,2.509-1.046s0.848-1.725,0.848-3.083c0-1.345-0.281-2.364-0.844-3.06
		c-0.563-0.694-1.396-1.042-2.499-1.042c-1.107,0-1.949,0.35-2.526,1.05C3.132,53.407,2.844,54.425,2.844,55.76z"/>
	<path d="M14.281,53.278v4.86c0,0.61,0.139,1.066,0.417,1.367s0.713,0.451,1.306,0.451c0.784,0,1.357-0.214,1.719-0.643
		c0.363-0.429,0.544-1.128,0.544-2.099v-3.938h1.135v7.492h-0.937l-0.164-1.005h-0.062c-0.232,0.369-0.555,0.651-0.968,0.848
		c-0.412,0.196-0.883,0.294-1.411,0.294c-0.911,0-1.594-0.217-2.048-0.649c-0.453-0.433-0.68-1.126-0.68-2.078v-4.901H14.281z"/>
	<path d="M25.576,53.142c0.333,0,0.631,0.027,0.896,0.082l-0.157,1.053c-0.31-0.068-0.583-0.103-0.82-0.103
		c-0.606,0-1.125,0.246-1.555,0.738c-0.432,0.492-0.646,1.105-0.646,1.839v4.02h-1.135v-7.492h0.937l0.13,1.388h0.055
		c0.278-0.487,0.613-0.863,1.005-1.128S25.106,53.142,25.576,53.142z"/>
	<path d="M36.66,51.672c-1.099,0-1.966,0.366-2.601,1.097c-0.637,0.732-0.954,1.733-0.954,3.005c0,1.308,0.307,2.318,0.919,3.032
		c0.613,0.713,1.487,1.069,2.622,1.069c0.697,0,1.492-0.125,2.386-0.376v1.019c-0.692,0.26-1.547,0.39-2.563,0.39
		c-1.472,0-2.608-0.446-3.407-1.34c-0.801-0.894-1.2-2.162-1.2-3.808c0-1.03,0.192-1.933,0.577-2.707
		c0.386-0.774,0.941-1.372,1.668-1.791c0.728-0.419,1.583-0.629,2.567-0.629c1.048,0,1.964,0.191,2.748,0.574l-0.492,0.998
		C38.173,51.85,37.417,51.672,36.66,51.672z"/>
	<path d="M47.858,57.018c0,1.222-0.308,2.175-0.923,2.86c-0.615,0.687-1.465,1.029-2.55,1.029c-0.67,0-1.265-0.157-1.784-0.472
		s-0.921-0.766-1.203-1.354s-0.424-1.276-0.424-2.064c0-1.222,0.306-2.173,0.916-2.854c0.61-0.681,1.458-1.021,2.543-1.021
		c1.048,0,1.881,0.349,2.499,1.046C47.55,54.885,47.858,55.828,47.858,57.018z M42.15,57.018c0,0.957,0.191,1.687,0.574,2.188
		s0.945,0.752,1.688,0.752s1.307-0.249,1.691-0.749c0.386-0.498,0.578-1.229,0.578-2.19c0-0.952-0.192-1.676-0.578-2.171
		c-0.385-0.494-0.953-0.741-1.705-0.741c-0.743,0-1.304,0.244-1.682,0.731S42.15,56.052,42.15,57.018z"/>
	<path d="M52.856,60.907c-0.966,0-1.721-0.34-2.263-1.019s-0.813-1.627-0.813-2.844c0-1.226,0.273-2.183,0.82-2.871
		s1.308-1.032,2.283-1.032c1.025,0,1.813,0.388,2.365,1.162h0.062l0.164-1.025h0.896v10.855h-1.135v-3.206
		c0-0.456,0.025-0.843,0.075-1.162h-0.089C54.697,60.526,53.909,60.907,52.856,60.907z M53.027,59.957
		c0.757,0,1.308-0.203,1.654-0.608s0.531-1.089,0.554-2.051v-0.253c0-1.048-0.178-1.803-0.533-2.263s-0.918-0.69-1.688-0.69
		c-0.665,0-1.175,0.259-1.527,0.776c-0.354,0.517-0.53,1.247-0.53,2.19s0.175,1.662,0.522,2.157
		C51.828,59.71,52.344,59.957,53.027,59.957z"/>
	<path d="M60.193,53.278v4.86c0,0.61,0.139,1.066,0.417,1.367s0.713,0.451,1.306,0.451c0.784,0,1.357-0.214,1.719-0.643
		c0.363-0.429,0.544-1.128,0.544-2.099v-3.938h1.135v7.492h-0.937l-0.164-1.005h-0.062c-0.232,0.369-0.555,0.651-0.968,0.848
		c-0.412,0.196-0.883,0.294-1.411,0.294c-0.911,0-1.594-0.217-2.048-0.649c-0.453-0.433-0.68-1.126-0.68-2.078v-4.901H60.193z"/>
	<path d="M67.974,51.248c0-0.26,0.063-0.45,0.191-0.571c0.128-0.12,0.287-0.181,0.479-0.181c0.183,0,0.34,0.062,0.472,0.185
		s0.198,0.312,0.198,0.567s-0.066,0.445-0.198,0.571c-0.132,0.125-0.289,0.188-0.472,0.188c-0.191,0-0.351-0.062-0.479-0.188
		C68.037,51.693,67.974,51.503,67.974,51.248z M69.204,60.771h-1.135v-7.492h1.135V60.771z"/>
	<path d="M74.381,59.971c0.2,0,0.395-0.015,0.581-0.044c0.187-0.03,0.335-0.061,0.444-0.093v0.868
		c-0.123,0.06-0.305,0.108-0.543,0.146c-0.24,0.039-0.455,0.059-0.646,0.059c-1.449,0-2.174-0.764-2.174-2.29V54.16H70.97v-0.547
		l1.073-0.472l0.479-1.6h0.656v1.736h2.174v0.882h-2.174v4.409c0,0.451,0.107,0.798,0.321,1.039S74.007,59.971,74.381,59.971z"/>
	<path d="M78.388,60.771h-1.135V50.134h1.135V60.771z"/>
	<path d="M85.751,60.771l-0.226-1.066h-0.055c-0.374,0.47-0.746,0.787-1.118,0.953c-0.371,0.167-0.835,0.25-1.391,0.25
		c-0.743,0-1.325-0.191-1.746-0.574c-0.422-0.383-0.633-0.928-0.633-1.634c0-1.513,1.21-2.306,3.63-2.379l1.271-0.041v-0.465
		c0-0.588-0.126-1.022-0.38-1.302c-0.252-0.281-0.657-0.421-1.213-0.421c-0.624,0-1.331,0.191-2.119,0.574l-0.349-0.868
		c0.369-0.2,0.773-0.357,1.214-0.472c0.439-0.114,0.88-0.171,1.322-0.171c0.894,0,1.555,0.198,1.986,0.595
		c0.43,0.396,0.646,1.032,0.646,1.907v5.113H85.751z M83.188,59.971c0.706,0,1.261-0.193,1.665-0.581
		c0.402-0.388,0.604-0.93,0.604-1.627v-0.677l-1.135,0.048c-0.902,0.032-1.553,0.172-1.952,0.42
		c-0.398,0.249-0.598,0.635-0.598,1.159c0,0.41,0.124,0.723,0.373,0.937C82.394,59.863,82.741,59.971,83.188,59.971z"/>
	<path d="M98.83,60.771v-4.874c0-0.597-0.128-1.045-0.383-1.343c-0.255-0.299-0.651-0.448-1.189-0.448
		c-0.706,0-1.229,0.203-1.565,0.608s-0.506,1.03-0.506,1.873v4.184h-1.135v-4.874c0-0.597-0.128-1.045-0.383-1.343
		c-0.255-0.299-0.654-0.448-1.196-0.448c-0.711,0-1.231,0.213-1.562,0.64c-0.331,0.426-0.496,1.124-0.496,2.095v3.931H89.28v-7.492
		h0.923l0.185,1.025h0.055c0.214-0.364,0.516-0.649,0.906-0.854c0.389-0.205,0.825-0.308,1.309-0.308
		c1.171,0,1.937,0.424,2.297,1.271h0.055c0.224-0.392,0.547-0.702,0.971-0.93s0.907-0.342,1.449-0.342
		c0.848,0,1.482,0.218,1.904,0.652c0.421,0.436,0.632,1.132,0.632,2.089v4.888H98.83z"/>
	<path d="M107.774,60.771h-1.135V50.134h1.135V60.771z"/>
	<path d="M116.997,57.018c0,1.222-0.308,2.175-0.923,2.86c-0.615,0.687-1.465,1.029-2.55,1.029c-0.67,0-1.265-0.157-1.784-0.472
		s-0.921-0.766-1.203-1.354s-0.424-1.276-0.424-2.064c0-1.222,0.306-2.173,0.916-2.854c0.61-0.681,1.458-1.021,2.543-1.021
		c1.048,0,1.881,0.349,2.499,1.046C116.688,54.885,116.997,55.828,116.997,57.018z M111.289,57.018c0,0.957,0.191,1.687,0.574,2.188
		s0.945,0.752,1.688,0.752s1.307-0.249,1.691-0.749c0.386-0.498,0.578-1.229,0.578-2.19c0-0.952-0.192-1.676-0.578-2.171
		c-0.385-0.494-0.953-0.741-1.705-0.741c-0.743,0-1.304,0.244-1.682,0.731S111.289,56.052,111.289,57.018z"/>
	<path d="M122.33,60.907c-1.085,0-1.924-0.334-2.52-1.002c-0.594-0.667-0.892-1.611-0.892-2.833c0-1.253,0.302-2.222,0.905-2.905
		c0.604-0.684,1.465-1.025,2.581-1.025c0.36,0,0.72,0.039,1.08,0.116s0.643,0.169,0.848,0.273l-0.349,0.964
		c-0.251-0.101-0.524-0.184-0.82-0.25c-0.296-0.065-0.559-0.099-0.786-0.099c-1.522,0-2.283,0.971-2.283,2.912
		c0,0.921,0.186,1.627,0.558,2.119c0.371,0.492,0.921,0.738,1.65,0.738c0.624,0,1.265-0.135,1.921-0.403v1.005
		C123.723,60.777,123.091,60.907,122.33,60.907z"/>
	<path d="M130.959,60.771l-0.226-1.066h-0.055c-0.374,0.47-0.746,0.787-1.118,0.953c-0.371,0.167-0.835,0.25-1.391,0.25
		c-0.743,0-1.325-0.191-1.746-0.574c-0.422-0.383-0.633-0.928-0.633-1.634c0-1.513,1.21-2.306,3.63-2.379l1.271-0.041v-0.465
		c0-0.588-0.126-1.022-0.38-1.302c-0.252-0.281-0.657-0.421-1.213-0.421c-0.624,0-1.331,0.191-2.119,0.574l-0.349-0.868
		c0.369-0.2,0.773-0.357,1.214-0.472c0.439-0.114,0.88-0.171,1.322-0.171c0.894,0,1.555,0.198,1.986,0.595
		c0.43,0.396,0.646,1.032,0.646,1.907v5.113H130.959z M128.396,59.971c0.706,0,1.261-0.193,1.665-0.581
		c0.402-0.388,0.604-0.93,0.604-1.627v-0.677l-1.135,0.048c-0.902,0.032-1.553,0.172-1.952,0.42
		c-0.398,0.249-0.598,0.635-0.598,1.159c0,0.41,0.124,0.723,0.373,0.937C127.602,59.863,127.949,59.971,128.396,59.971z"/>
	<path d="M136.907,59.971c0.2,0,0.395-0.015,0.581-0.044c0.187-0.03,0.335-0.061,0.444-0.093v0.868
		c-0.123,0.06-0.305,0.108-0.543,0.146c-0.24,0.039-0.455,0.059-0.646,0.059c-1.449,0-2.174-0.764-2.174-2.29V54.16h-1.073v-0.547
		l1.073-0.472l0.479-1.6h0.656v1.736h2.174v0.882h-2.174v4.409c0,0.451,0.107,0.798,0.321,1.039S136.533,59.971,136.907,59.971z"/>
	<path d="M139.685,51.248c0-0.26,0.063-0.45,0.191-0.571c0.128-0.12,0.287-0.181,0.479-0.181c0.183,0,0.34,0.062,0.472,0.185
		s0.198,0.312,0.198,0.567s-0.066,0.445-0.198,0.571c-0.132,0.125-0.289,0.188-0.472,0.188c-0.191,0-0.351-0.062-0.479-0.188
		C139.748,51.693,139.685,51.503,139.685,51.248z M140.915,60.771h-1.135v-7.492h1.135V60.771z"/>
	<path d="M150.138,57.018c0,1.222-0.308,2.175-0.923,2.86c-0.615,0.687-1.465,1.029-2.55,1.029c-0.67,0-1.265-0.157-1.784-0.472
		s-0.921-0.766-1.203-1.354s-0.424-1.276-0.424-2.064c0-1.222,0.306-2.173,0.916-2.854c0.61-0.681,1.458-1.021,2.543-1.021
		c1.048,0,1.881,0.349,2.499,1.046C149.829,54.885,150.138,55.828,150.138,57.018z M144.43,57.018c0,0.957,0.191,1.687,0.574,2.188
		s0.945,0.752,1.688,0.752s1.307-0.249,1.691-0.749c0.386-0.498,0.578-1.229,0.578-2.19c0-0.952-0.192-1.676-0.578-2.171
		c-0.385-0.494-0.953-0.741-1.705-0.741c-0.743,0-1.304,0.244-1.682,0.731S144.43,56.052,144.43,57.018z"/>
	<path d="M157.604,60.771v-4.847c0-0.61-0.139-1.066-0.417-1.367s-0.713-0.451-1.306-0.451c-0.784,0-1.358,0.212-1.723,0.636
		s-0.547,1.123-0.547,2.099v3.931h-1.135v-7.492h0.923l0.185,1.025h0.055c0.232-0.369,0.559-0.655,0.978-0.857
		c0.419-0.203,0.887-0.305,1.401-0.305c0.902,0,1.581,0.218,2.037,0.652c0.456,0.436,0.684,1.132,0.684,2.089v4.888H157.604z"/>
	<path d="M165.311,51.248c0-0.26,0.063-0.45,0.191-0.571c0.128-0.12,0.287-0.181,0.479-0.181c0.183,0,0.34,0.062,0.472,0.185
		s0.198,0.312,0.198,0.567s-0.066,0.445-0.198,0.571c-0.132,0.125-0.289,0.188-0.472,0.188c-0.191,0-0.351-0.062-0.479-0.188
		C165.374,51.693,165.311,51.503,165.311,51.248z M166.541,60.771h-1.135v-7.492h1.135V60.771z"/>
	<path d="M174.131,58.727c0,0.697-0.26,1.235-0.779,1.613s-1.249,0.567-2.188,0.567c-0.993,0-1.769-0.157-2.324-0.472v-1.053
		c0.36,0.183,0.746,0.326,1.159,0.431c0.412,0.104,0.81,0.157,1.192,0.157c0.593,0,1.048-0.095,1.367-0.284
		c0.319-0.188,0.479-0.477,0.479-0.864c0-0.292-0.126-0.541-0.38-0.749c-0.252-0.207-0.746-0.452-1.479-0.734
		c-0.697-0.26-1.192-0.486-1.487-0.68c-0.293-0.194-0.512-0.414-0.656-0.66c-0.143-0.246-0.215-0.54-0.215-0.882
		c0-0.61,0.248-1.093,0.745-1.446c0.497-0.353,1.178-0.529,2.044-0.529c0.807,0,1.595,0.164,2.365,0.492l-0.403,0.923
		c-0.752-0.31-1.434-0.465-2.044-0.465c-0.538,0-0.943,0.084-1.217,0.253s-0.41,0.401-0.41,0.697c0,0.2,0.051,0.371,0.154,0.513
		c0.102,0.142,0.268,0.275,0.495,0.403s0.665,0.312,1.312,0.554c0.889,0.323,1.489,0.649,1.802,0.978
		C173.975,57.817,174.131,58.229,174.131,58.727z"/>
	<path d="M181.447,60.771h-1.135V50.134h1.135V60.771z"/>
	<path d="M190.671,57.018c0,1.222-0.308,2.175-0.923,2.86c-0.615,0.687-1.465,1.029-2.55,1.029c-0.67,0-1.265-0.157-1.784-0.472
		s-0.921-0.766-1.203-1.354s-0.424-1.276-0.424-2.064c0-1.222,0.306-2.173,0.916-2.854c0.61-0.681,1.458-1.021,2.543-1.021
		c1.048,0,1.881,0.349,2.499,1.046C190.362,54.885,190.671,55.828,190.671,57.018z M184.963,57.018c0,0.957,0.191,1.687,0.574,2.188
		s0.945,0.752,1.688,0.752s1.307-0.249,1.691-0.749c0.386-0.498,0.578-1.229,0.578-2.19c0-0.952-0.192-1.676-0.578-2.171
		c-0.385-0.494-0.953-0.741-1.705-0.741c-0.743,0-1.304,0.244-1.682,0.731S184.963,56.052,184.963,57.018z"/>
	<path d="M199.477,57.018c0,1.222-0.308,2.175-0.923,2.86c-0.615,0.687-1.465,1.029-2.55,1.029c-0.67,0-1.265-0.157-1.784-0.472
		s-0.921-0.766-1.203-1.354s-0.424-1.276-0.424-2.064c0-1.222,0.306-2.173,0.916-2.854c0.61-0.681,1.458-1.021,2.543-1.021
		c1.048,0,1.881,0.349,2.499,1.046C199.168,54.885,199.477,55.828,199.477,57.018z M193.769,57.018c0,0.957,0.191,1.687,0.574,2.188
		s0.945,0.752,1.688,0.752s1.307-0.249,1.691-0.749c0.386-0.498,0.578-1.229,0.578-2.19c0-0.952-0.192-1.676-0.578-2.171
		c-0.385-0.494-0.953-0.741-1.705-0.741c-0.743,0-1.304,0.244-1.682,0.731S193.769,56.052,193.769,57.018z"/>
	<path d="M202.938,56.936c0.196-0.278,0.494-0.643,0.896-1.094l2.42-2.563h1.347l-3.035,3.192l3.247,4.3h-1.374l-2.646-3.541
		l-0.854,0.738v2.803h-1.121V50.134h1.121v5.64c0,0.251-0.019,0.638-0.055,1.162H202.938z"/>
	<path d="M209.419,51.248c0-0.26,0.063-0.45,0.191-0.571c0.128-0.12,0.287-0.181,0.479-0.181c0.183,0,0.34,0.062,0.472,0.185
		s0.198,0.312,0.198,0.567s-0.066,0.445-0.198,0.571c-0.132,0.125-0.289,0.188-0.472,0.188c-0.191,0-0.351-0.062-0.479-0.188
		C209.482,51.693,209.419,51.503,209.419,51.248z M210.649,60.771h-1.135v-7.492h1.135V60.771z"/>
	<path d="M218.532,60.771v-4.847c0-0.61-0.139-1.066-0.417-1.367s-0.713-0.451-1.306-0.451c-0.784,0-1.358,0.212-1.723,0.636
		s-0.547,1.123-0.547,2.099v3.931h-1.135v-7.492h0.923l0.185,1.025h0.055c0.232-0.369,0.559-0.655,0.978-0.857
		c0.419-0.203,0.887-0.305,1.401-0.305c0.902,0,1.581,0.218,2.037,0.652c0.456,0.436,0.684,1.132,0.684,2.089v4.888H218.532z"/>
	<path d="M228.48,53.278v0.718l-1.388,0.164c0.128,0.159,0.241,0.368,0.342,0.626c0.101,0.257,0.15,0.548,0.15,0.871
		c0,0.733-0.251,1.319-0.752,1.757s-1.189,0.656-2.064,0.656c-0.224,0-0.433-0.019-0.629-0.055
		c-0.483,0.255-0.725,0.576-0.725,0.964c0,0.205,0.084,0.356,0.253,0.455c0.169,0.098,0.458,0.146,0.868,0.146h1.326
		c0.812,0,1.435,0.171,1.869,0.513c0.436,0.342,0.653,0.839,0.653,1.49c0,0.829-0.333,1.462-0.998,1.897
		c-0.665,0.435-1.636,0.652-2.912,0.652c-0.979,0-1.735-0.183-2.267-0.547c-0.53-0.364-0.796-0.88-0.796-1.545
		c0-0.456,0.146-0.85,0.438-1.183s0.702-0.559,1.23-0.677c-0.191-0.087-0.353-0.221-0.481-0.403
		c-0.131-0.183-0.195-0.395-0.195-0.636c0-0.273,0.073-0.513,0.219-0.718s0.376-0.403,0.69-0.595
		c-0.388-0.159-0.703-0.431-0.946-0.813c-0.244-0.383-0.366-0.82-0.366-1.312c0-0.82,0.246-1.452,0.738-1.897
		c0.492-0.443,1.189-0.666,2.092-0.666c0.392,0,0.745,0.046,1.06,0.137H228.48z M222.506,62.028c0,0.405,0.171,0.713,0.513,0.923
		s0.832,0.314,1.47,0.314c0.952,0,1.657-0.143,2.116-0.427c0.457-0.285,0.687-0.672,0.687-1.159c0-0.405-0.125-0.687-0.376-0.845
		c-0.251-0.156-0.723-0.235-1.415-0.235h-1.36c-0.515,0-0.916,0.123-1.203,0.369S222.506,61.568,222.506,62.028z M223.121,55.678
		c0,0.524,0.148,0.921,0.444,1.189s0.709,0.403,1.237,0.403c1.107,0,1.661-0.538,1.661-1.613c0-1.126-0.561-1.688-1.682-1.688
		c-0.533,0-0.943,0.144-1.23,0.431S223.121,55.112,223.121,55.678z"/>
	<path d="M237.732,54.16h-1.907v6.61h-1.135v-6.61h-1.34v-0.513l1.34-0.41V52.82c0-1.841,0.805-2.762,2.413-2.762
		c0.396,0,0.861,0.08,1.395,0.239l-0.294,0.909c-0.438-0.142-0.812-0.212-1.121-0.212c-0.429,0-0.745,0.143-0.95,0.428
		c-0.205,0.284-0.308,0.741-0.308,1.37v0.485h1.907V54.16z"/>
	<path d="M245.916,57.018c0,1.222-0.308,2.175-0.923,2.86c-0.615,0.687-1.465,1.029-2.55,1.029c-0.67,0-1.265-0.157-1.784-0.472
		s-0.921-0.766-1.203-1.354s-0.424-1.276-0.424-2.064c0-1.222,0.306-2.173,0.916-2.854c0.61-0.681,1.458-1.021,2.543-1.021
		c1.048,0,1.881,0.349,2.499,1.046C245.607,54.885,245.916,55.828,245.916,57.018z M240.208,57.018c0,0.957,0.191,1.687,0.574,2.188
		s0.945,0.752,1.688,0.752s1.307-0.249,1.691-0.749c0.386-0.498,0.578-1.229,0.578-2.19c0-0.952-0.192-1.676-0.578-2.171
		c-0.385-0.494-0.953-0.741-1.705-0.741c-0.743,0-1.304,0.244-1.682,0.731S240.208,56.052,240.208,57.018z"/>
	<path d="M251.673,53.142c0.333,0,0.631,0.027,0.896,0.082l-0.157,1.053c-0.31-0.068-0.583-0.103-0.82-0.103
		c-0.606,0-1.125,0.246-1.555,0.738c-0.432,0.492-0.646,1.105-0.646,1.839v4.02h-1.135v-7.492h0.937l0.13,1.388h0.055
		c0.278-0.487,0.613-0.863,1.005-1.128S251.203,53.142,251.673,53.142z"/>
	<path d="M262.914,60.771l-0.226-1.066h-0.055c-0.374,0.47-0.746,0.787-1.118,0.953c-0.371,0.167-0.835,0.25-1.391,0.25
		c-0.743,0-1.325-0.191-1.746-0.574c-0.422-0.383-0.633-0.928-0.633-1.634c0-1.513,1.21-2.306,3.63-2.379l1.271-0.041v-0.465
		c0-0.588-0.126-1.022-0.38-1.302c-0.252-0.281-0.657-0.421-1.213-0.421c-0.624,0-1.331,0.191-2.119,0.574l-0.349-0.868
		c0.369-0.2,0.773-0.357,1.214-0.472c0.439-0.114,0.88-0.171,1.322-0.171c0.894,0,1.555,0.198,1.986,0.595
		c0.43,0.396,0.646,1.032,0.646,1.907v5.113H262.914z M260.351,59.971c0.706,0,1.261-0.193,1.665-0.581
		c0.402-0.388,0.604-0.93,0.604-1.627v-0.677l-1.135,0.048c-0.902,0.032-1.553,0.172-1.952,0.42
		c-0.398,0.249-0.598,0.635-0.598,1.159c0,0.41,0.124,0.723,0.373,0.937C259.557,59.863,259.904,59.971,260.351,59.971z"/>
	<path d="M272.85,59.971c0.2,0,0.395-0.015,0.581-0.044c0.187-0.03,0.335-0.061,0.444-0.093v0.868
		c-0.123,0.06-0.305,0.108-0.543,0.146c-0.24,0.039-0.455,0.059-0.646,0.059c-1.449,0-2.174-0.764-2.174-2.29V54.16h-1.073v-0.547
		l1.073-0.472l0.479-1.6h0.656v1.736h2.174v0.882h-2.174v4.409c0,0.451,0.107,0.798,0.321,1.039S272.476,59.971,272.85,59.971z"/>
	<path d="M280.329,60.771l-0.226-1.066h-0.055c-0.374,0.47-0.746,0.787-1.118,0.953c-0.371,0.167-0.835,0.25-1.391,0.25
		c-0.743,0-1.325-0.191-1.746-0.574c-0.422-0.383-0.633-0.928-0.633-1.634c0-1.513,1.21-2.306,3.63-2.379l1.271-0.041v-0.465
		c0-0.588-0.126-1.022-0.38-1.302c-0.252-0.281-0.657-0.421-1.213-0.421c-0.624,0-1.331,0.191-2.119,0.574l-0.349-0.868
		c0.369-0.2,0.773-0.357,1.214-0.472c0.439-0.114,0.88-0.171,1.322-0.171c0.894,0,1.555,0.198,1.986,0.595
		c0.43,0.396,0.646,1.032,0.646,1.907v5.113H280.329z M277.766,59.971c0.706,0,1.261-0.193,1.665-0.581
		c0.402-0.388,0.604-0.93,0.604-1.627v-0.677l-1.135,0.048c-0.902,0.032-1.553,0.172-1.952,0.42
		c-0.398,0.249-0.598,0.635-0.598,1.159c0,0.41,0.124,0.723,0.373,0.937C276.972,59.863,277.319,59.971,277.766,59.971z"/>
	<path d="M284.993,60.771h-1.135V50.134h1.135V60.771z"/>
	<path d="M290.914,60.907c-1.107,0-1.981-0.337-2.622-1.012c-0.64-0.675-0.96-1.611-0.96-2.81c0-1.208,0.298-2.167,0.892-2.878
		c0.596-0.711,1.394-1.066,2.396-1.066c0.938,0,1.682,0.309,2.229,0.926c0.547,0.618,0.82,1.433,0.82,2.444v0.718h-5.161
		c0.022,0.88,0.245,1.547,0.667,2.003c0.421,0.456,1.015,0.684,1.78,0.684c0.807,0,1.604-0.169,2.393-0.506v1.012
		c-0.401,0.173-0.78,0.298-1.138,0.372C291.852,60.87,291.42,60.907,290.914,60.907z M290.606,54.092
		c-0.602,0-1.081,0.196-1.439,0.588c-0.357,0.392-0.568,0.935-0.632,1.627h3.917c0-0.716-0.159-1.264-0.479-1.644
		C291.654,54.282,291.199,54.092,290.606,54.092z"/>
	<path d="M301.081,60.771v-4.847c0-0.61-0.139-1.066-0.417-1.367s-0.713-0.451-1.306-0.451c-0.784,0-1.358,0.212-1.723,0.636
		s-0.547,1.123-0.547,2.099v3.931h-1.135v-7.492h0.923l0.185,1.025h0.055c0.232-0.369,0.559-0.655,0.978-0.857
		c0.419-0.203,0.887-0.305,1.401-0.305c0.902,0,1.581,0.218,2.037,0.652c0.456,0.436,0.684,1.132,0.684,2.089v4.888H301.081z"/>
	<path d="M307.316,59.971c0.2,0,0.395-0.015,0.581-0.044c0.187-0.03,0.335-0.061,0.444-0.093v0.868
		c-0.123,0.06-0.305,0.108-0.543,0.146c-0.24,0.039-0.455,0.059-0.646,0.059c-1.449,0-2.174-0.764-2.174-2.29V54.16h-1.073v-0.547
		l1.073-0.472l0.479-1.6h0.656v1.736h2.174v0.882h-2.174v4.409c0,0.451,0.107,0.798,0.321,1.039S306.942,59.971,307.316,59.971z"/>
	<path d="M313.354,60.907c-1.107,0-1.981-0.337-2.622-1.012c-0.64-0.675-0.96-1.611-0.96-2.81c0-1.208,0.298-2.167,0.892-2.878
		c0.596-0.711,1.394-1.066,2.396-1.066c0.938,0,1.682,0.309,2.229,0.926c0.547,0.618,0.82,1.433,0.82,2.444v0.718h-5.161
		c0.022,0.88,0.245,1.547,0.667,2.003c0.421,0.456,1.015,0.684,1.78,0.684c0.807,0,1.604-0.169,2.393-0.506v1.012
		c-0.401,0.173-0.78,0.298-1.138,0.372C314.291,60.87,313.859,60.907,313.354,60.907z M313.046,54.092
		c-0.602,0-1.081,0.196-1.439,0.588c-0.357,0.392-0.568,0.935-0.632,1.627h3.917c0-0.716-0.159-1.264-0.479-1.644
		C314.094,54.282,313.639,54.092,313.046,54.092z"/>
	<path d="M323.493,59.766h-0.062c-0.524,0.761-1.308,1.142-2.352,1.142c-0.979,0-1.742-0.335-2.286-1.005
		c-0.545-0.67-0.817-1.622-0.817-2.857s0.273-2.194,0.82-2.878s1.308-1.025,2.283-1.025c1.017,0,1.796,0.369,2.338,1.107h0.089
		l-0.048-0.54l-0.027-0.526v-3.049h1.135v10.637h-0.923L323.493,59.766z M321.224,59.957c0.774,0,1.336-0.211,1.686-0.632
		c0.348-0.422,0.522-1.103,0.522-2.041v-0.239c0-1.062-0.177-1.819-0.53-2.272c-0.353-0.454-0.917-0.681-1.691-0.681
		c-0.665,0-1.175,0.259-1.527,0.776c-0.354,0.517-0.53,1.247-0.53,2.19c0,0.957,0.176,1.68,0.526,2.167
		S320.545,59.957,321.224,59.957z"/>
	<path d="M335.917,60.771l-0.226-1.066h-0.055c-0.374,0.47-0.746,0.787-1.118,0.953c-0.371,0.167-0.835,0.25-1.391,0.25
		c-0.743,0-1.325-0.191-1.746-0.574c-0.422-0.383-0.633-0.928-0.633-1.634c0-1.513,1.21-2.306,3.63-2.379l1.271-0.041v-0.465
		c0-0.588-0.126-1.022-0.38-1.302c-0.252-0.281-0.657-0.421-1.213-0.421c-0.624,0-1.331,0.191-2.119,0.574l-0.349-0.868
		c0.369-0.2,0.773-0.357,1.214-0.472c0.439-0.114,0.88-0.171,1.322-0.171c0.894,0,1.555,0.198,1.986,0.595
		c0.43,0.396,0.646,1.032,0.646,1.907v5.113H335.917z M333.354,59.971c0.706,0,1.261-0.193,1.665-0.581
		c0.402-0.388,0.604-0.93,0.604-1.627v-0.677l-1.135,0.048c-0.902,0.032-1.553,0.172-1.952,0.42
		c-0.398,0.249-0.598,0.635-0.598,1.159c0,0.41,0.124,0.723,0.373,0.937C332.56,59.863,332.907,59.971,333.354,59.971z"/>
	<path d="M344.572,60.771v-4.847c0-0.61-0.139-1.066-0.417-1.367s-0.713-0.451-1.306-0.451c-0.784,0-1.358,0.212-1.723,0.636
		s-0.547,1.123-0.547,2.099v3.931h-1.135v-7.492h0.923l0.185,1.025h0.055c0.232-0.369,0.559-0.655,0.978-0.857
		c0.419-0.203,0.887-0.305,1.401-0.305c0.902,0,1.581,0.218,2.037,0.652c0.456,0.436,0.684,1.132,0.684,2.089v4.888H344.572z"/>
	<path d="M353.487,59.766h-0.062c-0.524,0.761-1.308,1.142-2.352,1.142c-0.979,0-1.742-0.335-2.286-1.005
		c-0.545-0.67-0.817-1.622-0.817-2.857s0.273-2.194,0.82-2.878s1.308-1.025,2.283-1.025c1.017,0,1.796,0.369,2.338,1.107h0.089
		l-0.048-0.54l-0.027-0.526v-3.049h1.135v10.637h-0.923L353.487,59.766z M351.218,59.957c0.774,0,1.336-0.211,1.686-0.632
		c0.348-0.422,0.522-1.103,0.522-2.041v-0.239c0-1.062-0.177-1.819-0.53-2.272c-0.353-0.454-0.917-0.681-1.691-0.681
		c-0.665,0-1.175,0.259-1.527,0.776c-0.354,0.517-0.53,1.247-0.53,2.19c0,0.957,0.176,1.68,0.526,2.167
		S350.539,59.957,351.218,59.957z"/>
	<path d="M364.298,60.907c-1.085,0-1.924-0.334-2.52-1.002c-0.594-0.667-0.892-1.611-0.892-2.833c0-1.253,0.302-2.222,0.905-2.905
		c0.604-0.684,1.465-1.025,2.581-1.025c0.36,0,0.72,0.039,1.08,0.116s0.643,0.169,0.848,0.273l-0.349,0.964
		c-0.251-0.101-0.524-0.184-0.82-0.25c-0.296-0.065-0.559-0.099-0.786-0.099c-1.522,0-2.283,0.971-2.283,2.912
		c0,0.921,0.186,1.627,0.558,2.119c0.371,0.492,0.921,0.738,1.65,0.738c0.624,0,1.265-0.135,1.921-0.403v1.005
		C365.69,60.777,365.059,60.907,364.298,60.907z"/>
	<path d="M372.927,60.771l-0.226-1.066h-0.055c-0.374,0.47-0.746,0.787-1.118,0.953c-0.371,0.167-0.835,0.25-1.391,0.25
		c-0.743,0-1.325-0.191-1.746-0.574c-0.422-0.383-0.633-0.928-0.633-1.634c0-1.513,1.21-2.306,3.63-2.379l1.271-0.041v-0.465
		c0-0.588-0.126-1.022-0.38-1.302c-0.252-0.281-0.657-0.421-1.213-0.421c-0.624,0-1.331,0.191-2.119,0.574l-0.349-0.868
		c0.369-0.2,0.773-0.357,1.214-0.472c0.439-0.114,0.88-0.171,1.322-0.171c0.894,0,1.555,0.198,1.986,0.595
		c0.43,0.396,0.646,1.032,0.646,1.907v5.113H372.927z M370.363,59.971c0.706,0,1.261-0.193,1.665-0.581
		c0.402-0.388,0.604-0.93,0.604-1.627v-0.677l-1.135,0.048c-0.902,0.032-1.553,0.172-1.952,0.42
		c-0.398,0.249-0.598,0.635-0.598,1.159c0,0.41,0.124,0.723,0.373,0.937C369.569,59.863,369.917,59.971,370.363,59.971z"/>
	<path d="M379.873,53.142c0.333,0,0.631,0.027,0.896,0.082l-0.157,1.053c-0.31-0.068-0.583-0.103-0.82-0.103
		c-0.606,0-1.125,0.246-1.555,0.738c-0.432,0.492-0.646,1.105-0.646,1.839v4.02h-1.135v-7.492h0.937l0.13,1.388h0.055
		c0.278-0.487,0.613-0.863,1.005-1.128S379.403,53.142,379.873,53.142z"/>
	<path d="M382.424,51.248c0-0.26,0.063-0.45,0.191-0.571c0.128-0.12,0.287-0.181,0.479-0.181c0.183,0,0.34,0.062,0.472,0.185
		s0.198,0.312,0.198,0.567s-0.066,0.445-0.198,0.571c-0.132,0.125-0.289,0.188-0.472,0.188c-0.191,0-0.351-0.062-0.479-0.188
		C382.487,51.693,382.424,51.503,382.424,51.248z M383.654,60.771h-1.135v-7.492h1.135V60.771z"/>
	<path d="M391.538,60.771v-4.847c0-0.61-0.139-1.066-0.417-1.367s-0.713-0.451-1.306-0.451c-0.784,0-1.358,0.212-1.723,0.636
		s-0.547,1.123-0.547,2.099v3.931h-1.135v-7.492h0.923l0.185,1.025h0.055c0.232-0.369,0.559-0.655,0.978-0.857
		c0.419-0.203,0.887-0.305,1.401-0.305c0.902,0,1.581,0.218,2.037,0.652c0.456,0.436,0.684,1.132,0.684,2.089v4.888H391.538z"/>
	<path d="M401.485,53.278v0.718l-1.388,0.164c0.128,0.159,0.241,0.368,0.342,0.626c0.101,0.257,0.15,0.548,0.15,0.871
		c0,0.733-0.251,1.319-0.752,1.757s-1.189,0.656-2.064,0.656c-0.224,0-0.433-0.019-0.629-0.055
		c-0.483,0.255-0.725,0.576-0.725,0.964c0,0.205,0.084,0.356,0.253,0.455c0.169,0.098,0.458,0.146,0.868,0.146h1.326
		c0.812,0,1.435,0.171,1.869,0.513c0.436,0.342,0.653,0.839,0.653,1.49c0,0.829-0.333,1.462-0.998,1.897
		c-0.665,0.435-1.636,0.652-2.912,0.652c-0.979,0-1.735-0.183-2.267-0.547c-0.53-0.364-0.796-0.88-0.796-1.545
		c0-0.456,0.146-0.85,0.438-1.183s0.702-0.559,1.23-0.677c-0.191-0.087-0.353-0.221-0.481-0.403
		c-0.131-0.183-0.195-0.395-0.195-0.636c0-0.273,0.073-0.513,0.219-0.718s0.376-0.403,0.69-0.595
		c-0.388-0.159-0.703-0.431-0.946-0.813c-0.244-0.383-0.366-0.82-0.366-1.312c0-0.82,0.246-1.452,0.738-1.897
		c0.492-0.443,1.189-0.666,2.092-0.666c0.392,0,0.745,0.046,1.06,0.137H401.485z M395.511,62.028c0,0.405,0.171,0.713,0.513,0.923
		s0.832,0.314,1.47,0.314c0.952,0,1.657-0.143,2.116-0.427c0.457-0.285,0.687-0.672,0.687-1.159c0-0.405-0.125-0.687-0.376-0.845
		c-0.251-0.156-0.723-0.235-1.415-0.235h-1.36c-0.515,0-0.916,0.123-1.203,0.369S395.511,61.568,395.511,62.028z M396.126,55.678
		c0,0.524,0.148,0.921,0.444,1.189s0.709,0.403,1.237,0.403c1.107,0,1.661-0.538,1.661-1.613c0-1.126-0.561-1.688-1.682-1.688
		c-0.533,0-0.943,0.144-1.23,0.431S396.126,55.112,396.126,55.678z"/>
	<path d="M412.193,58.727c0,0.697-0.26,1.235-0.779,1.613s-1.249,0.567-2.188,0.567c-0.993,0-1.769-0.157-2.324-0.472v-1.053
		c0.36,0.183,0.746,0.326,1.159,0.431c0.412,0.104,0.81,0.157,1.192,0.157c0.593,0,1.048-0.095,1.367-0.284
		c0.319-0.188,0.479-0.477,0.479-0.864c0-0.292-0.126-0.541-0.38-0.749c-0.252-0.207-0.746-0.452-1.479-0.734
		c-0.697-0.26-1.192-0.486-1.487-0.68c-0.293-0.194-0.512-0.414-0.656-0.66c-0.143-0.246-0.215-0.54-0.215-0.882
		c0-0.61,0.248-1.093,0.745-1.446c0.497-0.353,1.178-0.529,2.044-0.529c0.807,0,1.595,0.164,2.365,0.492l-0.403,0.923
		c-0.752-0.31-1.434-0.465-2.044-0.465c-0.538,0-0.943,0.084-1.217,0.253s-0.41,0.401-0.41,0.697c0,0.2,0.051,0.371,0.154,0.513
		c0.102,0.142,0.268,0.275,0.495,0.403s0.665,0.312,1.312,0.554c0.889,0.323,1.489,0.649,1.802,0.978
		C412.037,57.817,412.193,58.229,412.193,58.727z"/>
	<path d="M416.809,59.971c0.2,0,0.395-0.015,0.581-0.044c0.187-0.03,0.335-0.061,0.444-0.093v0.868
		c-0.123,0.06-0.305,0.108-0.543,0.146c-0.24,0.039-0.455,0.059-0.646,0.059c-1.449,0-2.174-0.764-2.174-2.29V54.16h-1.073v-0.547
		l1.073-0.472l0.479-1.6h0.656v1.736h2.174v0.882h-2.174v4.409c0,0.451,0.107,0.798,0.321,1.039S416.435,59.971,416.809,59.971z"/>
	<path d="M424.289,60.771l-0.226-1.066h-0.055c-0.374,0.47-0.746,0.787-1.118,0.953c-0.371,0.167-0.835,0.25-1.391,0.25
		c-0.743,0-1.325-0.191-1.746-0.574c-0.422-0.383-0.633-0.928-0.633-1.634c0-1.513,1.21-2.306,3.63-2.379l1.271-0.041v-0.465
		c0-0.588-0.126-1.022-0.38-1.302c-0.252-0.281-0.657-0.421-1.213-0.421c-0.624,0-1.331,0.191-2.119,0.574l-0.349-0.868
		c0.369-0.2,0.773-0.357,1.214-0.472c0.439-0.114,0.88-0.171,1.322-0.171c0.894,0,1.555,0.198,1.986,0.595
		c0.43,0.396,0.646,1.032,0.646,1.907v5.113H424.289z M421.726,59.971c0.706,0,1.261-0.193,1.665-0.581
		c0.402-0.388,0.604-0.93,0.604-1.627v-0.677l-1.135,0.048c-0.902,0.032-1.553,0.172-1.952,0.42
		c-0.398,0.249-0.598,0.635-0.598,1.159c0,0.41,0.124,0.723,0.373,0.937C420.932,59.863,421.279,59.971,421.726,59.971z"/>
	<path d="M431.194,54.16h-1.907v6.61h-1.135v-6.61h-1.34v-0.513l1.34-0.41V52.82c0-1.841,0.805-2.762,2.413-2.762
		c0.396,0,0.861,0.08,1.395,0.239l-0.294,0.909c-0.438-0.142-0.812-0.212-1.121-0.212c-0.429,0-0.745,0.143-0.95,0.428
		c-0.205,0.284-0.308,0.741-0.308,1.37v0.485h1.907V54.16z M435.938,54.16h-1.907v6.61h-1.135v-6.61h-1.34v-0.513l1.34-0.41V52.82
		c0-1.841,0.805-2.762,2.413-2.762c0.396,0,0.861,0.08,1.395,0.239l-0.294,0.909c-0.438-0.142-0.812-0.212-1.121-0.212
		c-0.429,0-0.745,0.143-0.95,0.428c-0.205,0.284-0.308,0.741-0.308,1.37v0.485h1.907V54.16z"/>
	<path d="M451.199,60.771v-4.874c0-0.597-0.128-1.045-0.383-1.343c-0.255-0.299-0.651-0.448-1.189-0.448
		c-0.706,0-1.229,0.203-1.565,0.608s-0.506,1.03-0.506,1.873v4.184h-1.135v-4.874c0-0.597-0.128-1.045-0.383-1.343
		c-0.255-0.299-0.654-0.448-1.196-0.448c-0.711,0-1.231,0.213-1.562,0.64c-0.331,0.426-0.496,1.124-0.496,2.095v3.931h-1.135v-7.492
		h0.923l0.185,1.025h0.055c0.214-0.364,0.516-0.649,0.906-0.854c0.389-0.205,0.825-0.308,1.309-0.308
		c1.171,0,1.937,0.424,2.297,1.271h0.055c0.224-0.392,0.547-0.702,0.971-0.93s0.907-0.342,1.449-0.342
		c0.848,0,1.482,0.218,1.904,0.652c0.421,0.436,0.632,1.132,0.632,2.089v4.888H451.199z"/>
	<path d="M458.187,60.907c-1.107,0-1.981-0.337-2.622-1.012c-0.64-0.675-0.96-1.611-0.96-2.81c0-1.208,0.298-2.167,0.892-2.878
		c0.596-0.711,1.394-1.066,2.396-1.066c0.938,0,1.682,0.309,2.229,0.926c0.547,0.618,0.82,1.433,0.82,2.444v0.718h-5.161
		c0.022,0.88,0.245,1.547,0.667,2.003c0.421,0.456,1.015,0.684,1.78,0.684c0.807,0,1.604-0.169,2.393-0.506v1.012
		c-0.401,0.173-0.78,0.298-1.138,0.372C459.124,60.87,458.692,60.907,458.187,60.907z M457.879,54.092
		c-0.602,0-1.081,0.196-1.439,0.588c-0.357,0.392-0.568,0.935-0.632,1.627h3.917c0-0.716-0.159-1.264-0.479-1.644
		C458.927,54.282,458.472,54.092,457.879,54.092z"/>
	<path d="M472.776,60.771v-4.874c0-0.597-0.128-1.045-0.383-1.343c-0.255-0.299-0.651-0.448-1.189-0.448
		c-0.706,0-1.229,0.203-1.565,0.608s-0.506,1.03-0.506,1.873v4.184h-1.135v-4.874c0-0.597-0.128-1.045-0.383-1.343
		c-0.255-0.299-0.654-0.448-1.196-0.448c-0.711,0-1.231,0.213-1.562,0.64c-0.331,0.426-0.496,1.124-0.496,2.095v3.931h-1.135v-7.492
		h0.923l0.185,1.025h0.055c0.214-0.364,0.516-0.649,0.906-0.854c0.389-0.205,0.825-0.308,1.309-0.308
		c1.171,0,1.937,0.424,2.297,1.271h0.055c0.224-0.392,0.547-0.702,0.971-0.93s0.907-0.342,1.449-0.342
		c0.848,0,1.482,0.218,1.904,0.652c0.421,0.436,0.632,1.132,0.632,2.089v4.888H472.776z"/>
	<path d="M480.085,53.155c0.984,0,1.749,0.336,2.293,1.008c0.545,0.673,0.817,1.624,0.817,2.854s-0.274,2.187-0.823,2.868
		c-0.55,0.681-1.312,1.021-2.287,1.021c-0.487,0-0.934-0.09-1.336-0.27c-0.404-0.181-0.742-0.457-1.016-0.831h-0.082l-0.239,0.964
		h-0.813V50.134h1.135v2.584c0,0.579-0.019,1.099-0.055,1.559h0.055C478.262,53.529,479.046,53.155,480.085,53.155z M479.921,54.105
		c-0.774,0-1.333,0.222-1.675,0.667c-0.342,0.443-0.513,1.192-0.513,2.245s0.176,1.806,0.526,2.259
		c0.351,0.454,0.914,0.681,1.688,0.681c0.697,0,1.217-0.254,1.559-0.763c0.342-0.508,0.513-1.238,0.513-2.19
		c0-0.976-0.171-1.702-0.513-2.181S480.637,54.105,479.921,54.105z"/>
	<path d="M488.693,60.907c-1.107,0-1.981-0.337-2.622-1.012c-0.64-0.675-0.96-1.611-0.96-2.81c0-1.208,0.298-2.167,0.892-2.878
		c0.596-0.711,1.394-1.066,2.396-1.066c0.938,0,1.682,0.309,2.229,0.926c0.547,0.618,0.82,1.433,0.82,2.444v0.718h-5.161
		c0.022,0.88,0.245,1.547,0.667,2.003c0.421,0.456,1.015,0.684,1.78,0.684c0.807,0,1.604-0.169,2.393-0.506v1.012
		c-0.401,0.173-0.78,0.298-1.138,0.372C489.631,60.87,489.199,60.907,488.693,60.907z M488.386,54.092
		c-0.602,0-1.081,0.196-1.439,0.588c-0.357,0.392-0.568,0.935-0.632,1.627h3.917c0-0.716-0.159-1.264-0.479-1.644
		C489.434,54.282,488.979,54.092,488.386,54.092z"/>
	<path d="M497.15,53.142c0.333,0,0.631,0.027,0.896,0.082l-0.157,1.053c-0.31-0.068-0.583-0.103-0.82-0.103
		c-0.606,0-1.125,0.246-1.555,0.738c-0.432,0.492-0.646,1.105-0.646,1.839v4.02h-1.135v-7.492h0.937l0.13,1.388h0.055
		c0.278-0.487,0.613-0.863,1.005-1.128S496.681,53.142,497.15,53.142z"/>
	<path d="M1.053,82.134c-0.433,0-0.784-0.057-1.053-0.171V81.04c0.314,0.091,0.624,0.137,0.93,0.137
		c0.355,0,0.616-0.097,0.782-0.291c0.167-0.193,0.25-0.488,0.25-0.885v-8.723h1.135v8.641C3.097,81.396,2.415,82.134,1.053,82.134z
		 M1.866,69.248c0-0.26,0.063-0.45,0.191-0.571c0.128-0.12,0.287-0.181,0.479-0.181c0.183,0,0.34,0.062,0.472,0.185
		s0.198,0.312,0.198,0.567s-0.066,0.445-0.198,0.571c-0.132,0.125-0.289,0.188-0.472,0.188c-0.191,0-0.351-0.062-0.479-0.188
		C1.93,69.693,1.866,69.503,1.866,69.248z"/>
	<path d="M6.919,71.278v4.86c0,0.61,0.139,1.066,0.417,1.367s0.713,0.451,1.306,0.451c0.784,0,1.357-0.214,1.719-0.643
		c0.363-0.429,0.544-1.128,0.544-2.099v-3.938h1.135v7.492h-0.937l-0.164-1.005h-0.062c-0.232,0.369-0.555,0.651-0.968,0.848
		c-0.412,0.196-0.883,0.294-1.411,0.294c-0.911,0-1.594-0.217-2.048-0.649c-0.453-0.433-0.68-1.126-0.68-2.078v-4.901H6.919z"/>
	<path d="M19.629,76.727c0,0.697-0.26,1.235-0.779,1.613s-1.249,0.567-2.188,0.567c-0.993,0-1.769-0.157-2.324-0.472v-1.053
		c0.36,0.183,0.746,0.326,1.159,0.431c0.412,0.104,0.81,0.157,1.192,0.157c0.593,0,1.048-0.095,1.367-0.284
		c0.319-0.188,0.479-0.477,0.479-0.864c0-0.292-0.126-0.541-0.38-0.749c-0.252-0.207-0.746-0.452-1.479-0.734
		c-0.697-0.26-1.192-0.486-1.487-0.68c-0.293-0.194-0.512-0.414-0.656-0.66c-0.143-0.246-0.215-0.54-0.215-0.882
		c0-0.61,0.248-1.093,0.745-1.446c0.497-0.353,1.178-0.529,2.044-0.529c0.807,0,1.595,0.164,2.365,0.492l-0.403,0.923
		c-0.752-0.31-1.434-0.465-2.044-0.465c-0.538,0-0.943,0.084-1.217,0.253s-0.41,0.401-0.41,0.697c0,0.2,0.051,0.371,0.154,0.513
		c0.102,0.142,0.268,0.275,0.495,0.403s0.665,0.312,1.312,0.554c0.889,0.323,1.489,0.649,1.802,0.978
		C19.473,75.817,19.629,76.229,19.629,76.727z"/>
	<path d="M24.244,77.971c0.2,0,0.395-0.015,0.581-0.044c0.187-0.03,0.335-0.061,0.444-0.093v0.868
		c-0.123,0.06-0.305,0.108-0.543,0.146c-0.24,0.039-0.455,0.059-0.646,0.059c-1.449,0-2.174-0.764-2.174-2.29V72.16h-1.073v-0.547
		l1.073-0.472l0.479-1.6h0.656v1.736h2.174v0.882h-2.174v4.409c0,0.451,0.107,0.798,0.321,1.039S23.87,77.971,24.244,77.971z"/>
	<path d="M32.238,78.771h-1.135V68.134h1.135V78.771z"/>
	<path d="M34.898,69.248c0-0.26,0.063-0.45,0.191-0.571c0.128-0.12,0.287-0.181,0.479-0.181c0.183,0,0.34,0.062,0.472,0.185
		s0.198,0.312,0.198,0.567s-0.066,0.445-0.198,0.571c-0.132,0.125-0.289,0.188-0.472,0.188c-0.191,0-0.351-0.062-0.479-0.188
		C34.962,69.693,34.898,69.503,34.898,69.248z M36.129,78.771h-1.135v-7.492h1.135V78.771z"/>
	<path d="M40.007,74.936c0.196-0.278,0.494-0.643,0.896-1.094l2.42-2.563h1.347l-3.035,3.192l3.247,4.3h-1.374l-2.646-3.541
		l-0.854,0.738v2.803h-1.121V68.134h1.121v5.64c0,0.251-0.019,0.638-0.055,1.162H40.007z"/>
	<path d="M49.749,78.907c-1.107,0-1.981-0.337-2.622-1.012c-0.64-0.675-0.96-1.611-0.96-2.81c0-1.208,0.298-2.167,0.892-2.878
		c0.596-0.711,1.394-1.066,2.396-1.066c0.938,0,1.682,0.309,2.229,0.926c0.547,0.618,0.82,1.433,0.82,2.444v0.718h-5.161
		c0.022,0.88,0.245,1.547,0.667,2.003c0.421,0.456,1.015,0.684,1.78,0.684c0.807,0,1.604-0.169,2.393-0.506v1.012
		c-0.401,0.173-0.78,0.298-1.138,0.372C50.687,78.87,50.255,78.907,49.749,78.907z M49.441,72.092c-0.602,0-1.081,0.196-1.439,0.588
		c-0.357,0.392-0.568,0.935-0.632,1.627h3.917c0-0.716-0.159-1.264-0.479-1.644C50.489,72.282,50.034,72.092,49.441,72.092z"/>
	<path d="M57.586,71.278h1.217l1.641,4.272c0.36,0.976,0.583,1.68,0.67,2.112h0.055c0.06-0.232,0.184-0.63,0.373-1.193
		c0.188-0.562,0.808-2.293,1.855-5.191h1.217l-3.22,8.531c-0.319,0.843-0.691,1.441-1.118,1.795
		c-0.426,0.353-0.948,0.529-1.568,0.529c-0.347,0-0.688-0.039-1.025-0.116v-0.909c0.251,0.055,0.531,0.082,0.841,0.082
		c0.779,0,1.335-0.438,1.668-1.312l0.417-1.066L57.586,71.278z"/>
	<path d="M72.646,75.018c0,1.222-0.308,2.175-0.923,2.86c-0.615,0.687-1.465,1.029-2.55,1.029c-0.67,0-1.265-0.157-1.784-0.472
		s-0.921-0.766-1.203-1.354s-0.424-1.276-0.424-2.064c0-1.222,0.306-2.173,0.916-2.854c0.61-0.681,1.458-1.021,2.543-1.021
		c1.048,0,1.881,0.349,2.499,1.046C72.338,72.885,72.646,73.828,72.646,75.018z M66.938,75.018c0,0.957,0.191,1.687,0.574,2.188
		s0.945,0.752,1.688,0.752s1.307-0.249,1.691-0.749c0.386-0.498,0.578-1.229,0.578-2.19c0-0.952-0.192-1.676-0.578-2.171
		c-0.385-0.494-0.953-0.741-1.705-0.741c-0.743,0-1.304,0.244-1.682,0.731S66.938,74.052,66.938,75.018z"/>
	<path d="M76.053,71.278v4.86c0,0.61,0.139,1.066,0.417,1.367s0.713,0.451,1.306,0.451c0.784,0,1.357-0.214,1.719-0.643
		c0.363-0.429,0.544-1.128,0.544-2.099v-3.938h1.135v7.492h-0.937l-0.164-1.005h-0.062c-0.232,0.369-0.555,0.651-0.968,0.848
		c-0.412,0.196-0.883,0.294-1.411,0.294c-0.911,0-1.594-0.217-2.048-0.649c-0.453-0.433-0.68-1.126-0.68-2.078v-4.901H76.053z"/>
	<path d="M87.347,71.142c0.333,0,0.631,0.027,0.896,0.082l-0.157,1.053c-0.31-0.068-0.583-0.103-0.82-0.103
		c-0.606,0-1.125,0.246-1.555,0.738c-0.432,0.492-0.646,1.105-0.646,1.839v4.02h-1.135v-7.492h0.937l0.13,1.388h0.055
		c0.278-0.487,0.613-0.863,1.005-1.128S86.877,71.142,87.347,71.142z"/>
	<path d="M94.827,76.727c0,0.697-0.26,1.235-0.779,1.613s-1.249,0.567-2.188,0.567c-0.993,0-1.769-0.157-2.324-0.472v-1.053
		c0.36,0.183,0.746,0.326,1.159,0.431c0.412,0.104,0.81,0.157,1.192,0.157c0.593,0,1.048-0.095,1.367-0.284
		c0.319-0.188,0.479-0.477,0.479-0.864c0-0.292-0.126-0.541-0.38-0.749c-0.252-0.207-0.746-0.452-1.479-0.734
		c-0.697-0.26-1.192-0.486-1.487-0.68c-0.293-0.194-0.512-0.414-0.656-0.66c-0.143-0.246-0.215-0.54-0.215-0.882
		c0-0.61,0.248-1.093,0.745-1.446c0.497-0.353,1.178-0.529,2.044-0.529c0.807,0,1.595,0.164,2.365,0.492l-0.403,0.923
		c-0.752-0.31-1.434-0.465-2.044-0.465c-0.538,0-0.943,0.084-1.217,0.253s-0.41,0.401-0.41,0.697c0,0.2,0.051,0.371,0.154,0.513
		c0.102,0.142,0.268,0.275,0.495,0.403s0.665,0.312,1.312,0.554c0.889,0.323,1.489,0.649,1.802,0.978
		C94.671,75.817,94.827,76.229,94.827,76.727z"/>
	<path d="M100.188,78.907c-1.107,0-1.981-0.337-2.622-1.012c-0.64-0.675-0.96-1.611-0.96-2.81c0-1.208,0.298-2.167,0.892-2.878
		c0.596-0.711,1.394-1.066,2.396-1.066c0.938,0,1.682,0.309,2.229,0.926c0.547,0.618,0.82,1.433,0.82,2.444v0.718h-5.161
		c0.022,0.88,0.245,1.547,0.667,2.003c0.421,0.456,1.015,0.684,1.78,0.684c0.807,0,1.604-0.169,2.393-0.506v1.012
		c-0.401,0.173-0.78,0.298-1.138,0.372C101.125,78.87,100.693,78.907,100.188,78.907z M99.88,72.092
		c-0.602,0-1.081,0.196-1.439,0.588c-0.357,0.392-0.568,0.935-0.632,1.627h3.917c0-0.716-0.159-1.264-0.479-1.644
		C100.928,72.282,100.473,72.092,99.88,72.092z"/>
	<path d="M106.361,78.771h-1.135V68.134h1.135V78.771z"/>
	<path d="M112.495,72.16h-1.907v6.61h-1.135v-6.61h-1.34v-0.513l1.34-0.41V70.82c0-1.841,0.805-2.762,2.413-2.762
		c0.396,0,0.861,0.08,1.395,0.239l-0.294,0.909c-0.438-0.142-0.812-0.212-1.121-0.212c-0.429,0-0.745,0.143-0.95,0.428
		c-0.205,0.284-0.308,0.741-0.308,1.37v0.485h1.907V72.16z"/>
	<path d="M114.048,78.046c0-0.62,0.273-0.93,0.82-0.93c0.265,0,0.469,0.08,0.611,0.239c0.145,0.159,0.216,0.39,0.216,0.69
		c0,0.292-0.073,0.519-0.219,0.68c-0.146,0.162-0.349,0.243-0.608,0.243c-0.237,0-0.433-0.071-0.588-0.216
		C114.125,78.61,114.048,78.374,114.048,78.046z M115.237,76.016h-0.718l-0.349-7.239h1.415L115.237,76.016z"/>
	<path d="M122.192,69.248c0-0.26,0.063-0.45,0.191-0.571c0.128-0.12,0.287-0.181,0.479-0.181c0.183,0,0.34,0.062,0.472,0.185
		s0.198,0.312,0.198,0.567s-0.066,0.445-0.198,0.571c-0.132,0.125-0.289,0.188-0.472,0.188c-0.191,0-0.351-0.062-0.479-0.188
		C122.256,69.693,122.192,69.503,122.192,69.248z M123.423,78.771h-1.135v-7.492h1.135V78.771z"/>
	<path d="M129.556,72.16h-1.907v6.61h-1.135v-6.61h-1.34v-0.513l1.34-0.41V70.82c0-1.841,0.805-2.762,2.413-2.762
		c0.396,0,0.861,0.08,1.395,0.239l-0.294,0.909c-0.438-0.142-0.812-0.212-1.121-0.212c-0.429,0-0.745,0.143-0.95,0.428
		c-0.205,0.284-0.308,0.741-0.308,1.37v0.485h1.907V72.16z"/>
	<path d="M134.07,71.278h1.217l1.641,4.272c0.36,0.976,0.583,1.68,0.67,2.112h0.055c0.06-0.232,0.184-0.63,0.373-1.193
		c0.188-0.562,0.808-2.293,1.855-5.191h1.217l-3.22,8.531c-0.319,0.843-0.691,1.441-1.118,1.795
		c-0.426,0.353-0.948,0.529-1.568,0.529c-0.347,0-0.688-0.039-1.025-0.116v-0.909c0.251,0.055,0.531,0.082,0.841,0.082
		c0.779,0,1.335-0.438,1.668-1.312l0.417-1.066L134.07,71.278z"/>
	<path d="M149.132,75.018c0,1.222-0.308,2.175-0.923,2.86c-0.615,0.687-1.465,1.029-2.55,1.029c-0.67,0-1.265-0.157-1.784-0.472
		s-0.921-0.766-1.203-1.354s-0.424-1.276-0.424-2.064c0-1.222,0.306-2.173,0.916-2.854c0.61-0.681,1.458-1.021,2.543-1.021
		c1.048,0,1.881,0.349,2.499,1.046C148.823,72.885,149.132,73.828,149.132,75.018z M143.424,75.018c0,0.957,0.191,1.687,0.574,2.188
		s0.945,0.752,1.688,0.752s1.307-0.249,1.691-0.749c0.386-0.498,0.578-1.229,0.578-2.19c0-0.952-0.192-1.676-0.578-2.171
		c-0.385-0.494-0.953-0.741-1.705-0.741c-0.743,0-1.304,0.244-1.682,0.731S143.424,74.052,143.424,75.018z"/>
	<path d="M152.537,71.278v4.86c0,0.61,0.139,1.066,0.417,1.367s0.713,0.451,1.306,0.451c0.784,0,1.357-0.214,1.719-0.643
		c0.363-0.429,0.544-1.128,0.544-2.099v-3.938h1.135v7.492h-0.937l-0.164-1.005h-0.062c-0.232,0.369-0.555,0.651-0.968,0.848
		c-0.412,0.196-0.883,0.294-1.411,0.294c-0.911,0-1.594-0.217-2.048-0.649c-0.453-0.433-0.68-1.126-0.68-2.078v-4.901H152.537z"/>
	<path d="M170.519,78.771l-1.374-4.396c-0.087-0.269-0.248-0.88-0.485-1.832h-0.055c-0.183,0.798-0.342,1.413-0.479,1.846
		l-1.415,4.382h-1.312l-2.044-7.492h1.189c0.483,1.882,0.851,3.315,1.104,4.3c0.252,0.984,0.397,1.647,0.434,1.989h0.055
		c0.05-0.26,0.131-0.596,0.242-1.008c0.112-0.413,0.209-0.74,0.291-0.981l1.374-4.3h1.23l1.34,4.3
		c0.255,0.784,0.429,1.442,0.52,1.976h0.055c0.019-0.164,0.067-0.417,0.147-0.759c0.079-0.342,0.555-2.181,1.425-5.517h1.176
		l-2.071,7.492H170.519z"/>
	<path d="M180.247,78.771l-0.226-1.066h-0.055c-0.374,0.47-0.746,0.787-1.118,0.953c-0.371,0.167-0.835,0.25-1.391,0.25
		c-0.743,0-1.325-0.191-1.746-0.574c-0.422-0.383-0.633-0.928-0.633-1.634c0-1.513,1.21-2.306,3.63-2.379l1.271-0.041v-0.465
		c0-0.588-0.126-1.022-0.38-1.302c-0.252-0.281-0.657-0.421-1.213-0.421c-0.624,0-1.331,0.191-2.119,0.574l-0.349-0.868
		c0.369-0.2,0.773-0.357,1.214-0.472c0.439-0.114,0.88-0.171,1.322-0.171c0.894,0,1.555,0.198,1.986,0.595
		c0.43,0.396,0.646,1.032,0.646,1.907v5.113H180.247z M177.684,77.971c0.706,0,1.261-0.193,1.665-0.581
		c0.402-0.388,0.604-0.93,0.604-1.627v-0.677l-1.135,0.048c-0.902,0.032-1.553,0.172-1.952,0.42
		c-0.398,0.249-0.598,0.635-0.598,1.159c0,0.41,0.124,0.723,0.373,0.937C176.89,77.863,177.237,77.971,177.684,77.971z"/>
	<path d="M188.903,78.771v-4.847c0-0.61-0.139-1.066-0.417-1.367s-0.713-0.451-1.306-0.451c-0.784,0-1.358,0.212-1.723,0.636
		s-0.547,1.123-0.547,2.099v3.931h-1.135v-7.492h0.923l0.185,1.025h0.055c0.232-0.369,0.559-0.655,0.978-0.857
		c0.419-0.203,0.887-0.305,1.401-0.305c0.902,0,1.581,0.218,2.037,0.652c0.456,0.436,0.684,1.132,0.684,2.089v4.888H188.903z"/>
	<path d="M195.139,77.971c0.2,0,0.395-0.015,0.581-0.044c0.187-0.03,0.335-0.061,0.444-0.093v0.868
		c-0.123,0.06-0.305,0.108-0.543,0.146c-0.24,0.039-0.455,0.059-0.646,0.059c-1.449,0-2.174-0.764-2.174-2.29V72.16h-1.073v-0.547
		l1.073-0.472l0.479-1.6h0.656v1.736h2.174v0.882h-2.174v4.409c0,0.451,0.107,0.798,0.321,1.039S194.765,77.971,195.139,77.971z"/>
	<path d="M204.418,77.971c0.2,0,0.395-0.015,0.581-0.044c0.187-0.03,0.335-0.061,0.444-0.093v0.868
		c-0.123,0.06-0.305,0.108-0.543,0.146c-0.24,0.039-0.455,0.059-0.646,0.059c-1.449,0-2.174-0.764-2.174-2.29V72.16h-1.073v-0.547
		l1.073-0.472l0.479-1.6h0.656v1.736h2.174v0.882h-2.174v4.409c0,0.451,0.107,0.798,0.321,1.039S204.044,77.971,204.418,77.971z"/>
	<path d="M213.757,75.018c0,1.222-0.308,2.175-0.923,2.86c-0.615,0.687-1.465,1.029-2.55,1.029c-0.67,0-1.265-0.157-1.784-0.472
		s-0.921-0.766-1.203-1.354s-0.424-1.276-0.424-2.064c0-1.222,0.306-2.173,0.916-2.854c0.61-0.681,1.458-1.021,2.543-1.021
		c1.048,0,1.881,0.349,2.499,1.046C213.448,72.885,213.757,73.828,213.757,75.018z M208.049,75.018c0,0.957,0.191,1.687,0.574,2.188
		s0.945,0.752,1.688,0.752s1.307-0.249,1.691-0.749c0.386-0.498,0.578-1.229,0.578-2.19c0-0.952-0.192-1.676-0.578-2.171
		c-0.385-0.494-0.953-0.741-1.705-0.741c-0.743,0-1.304,0.244-1.682,0.731S208.049,74.052,208.049,75.018z"/>
	<path d="M223.46,72.16h-1.907v6.61h-1.135v-6.61h-1.34v-0.513l1.34-0.41V70.82c0-1.841,0.805-2.762,2.413-2.762
		c0.396,0,0.861,0.08,1.395,0.239l-0.294,0.909c-0.438-0.142-0.812-0.212-1.121-0.212c-0.429,0-0.745,0.143-0.95,0.428
		c-0.205,0.284-0.308,0.741-0.308,1.37v0.485h1.907V72.16z M224.731,69.248c0-0.26,0.063-0.45,0.191-0.571
		c0.128-0.12,0.287-0.181,0.479-0.181c0.183,0,0.34,0.062,0.472,0.185s0.198,0.312,0.198,0.567s-0.066,0.445-0.198,0.571
		c-0.132,0.125-0.289,0.188-0.472,0.188c-0.191,0-0.351-0.062-0.479-0.188C224.795,69.693,224.731,69.503,224.731,69.248z
		 M225.962,78.771h-1.135v-7.492h1.135V78.771z"/>
	<path d="M233.845,78.771v-4.847c0-0.61-0.139-1.066-0.417-1.367s-0.713-0.451-1.306-0.451c-0.784,0-1.358,0.212-1.723,0.636
		s-0.547,1.123-0.547,2.099v3.931h-1.135v-7.492h0.923l0.185,1.025h0.055c0.232-0.369,0.559-0.655,0.978-0.857
		c0.419-0.203,0.887-0.305,1.401-0.305c0.902,0,1.581,0.218,2.037,0.652c0.456,0.436,0.684,1.132,0.684,2.089v4.888H233.845z"/>
	<path d="M242.761,77.766h-0.062c-0.524,0.761-1.308,1.142-2.352,1.142c-0.979,0-1.742-0.335-2.286-1.005
		c-0.545-0.67-0.817-1.622-0.817-2.857s0.273-2.194,0.82-2.878s1.308-1.025,2.283-1.025c1.017,0,1.796,0.369,2.338,1.107h0.089
		l-0.048-0.54l-0.027-0.526v-3.049h1.135v10.637h-0.923L242.761,77.766z M240.491,77.957c0.774,0,1.336-0.211,1.686-0.632
		c0.348-0.422,0.522-1.103,0.522-2.041v-0.239c0-1.062-0.177-1.819-0.53-2.272c-0.353-0.454-0.917-0.681-1.691-0.681
		c-0.665,0-1.175,0.259-1.527,0.776c-0.354,0.517-0.53,1.247-0.53,2.19c0,0.957,0.176,1.68,0.526,2.167
		S239.812,77.957,240.491,77.957z"/>
	<path d="M257.044,75.018c0,1.222-0.308,2.175-0.923,2.86c-0.615,0.687-1.465,1.029-2.55,1.029c-0.67,0-1.265-0.157-1.784-0.472
		s-0.921-0.766-1.203-1.354s-0.424-1.276-0.424-2.064c0-1.222,0.306-2.173,0.916-2.854c0.61-0.681,1.458-1.021,2.543-1.021
		c1.048,0,1.881,0.349,2.499,1.046C256.735,72.885,257.044,73.828,257.044,75.018z M251.336,75.018c0,0.957,0.191,1.687,0.574,2.188
		s0.945,0.752,1.688,0.752s1.307-0.249,1.691-0.749c0.386-0.498,0.578-1.229,0.578-2.19c0-0.952-0.192-1.676-0.578-2.171
		c-0.385-0.494-0.953-0.741-1.705-0.741c-0.743,0-1.304,0.244-1.682,0.731S251.336,74.052,251.336,75.018z"/>
	<path d="M260.449,71.278v4.86c0,0.61,0.139,1.066,0.417,1.367s0.713,0.451,1.306,0.451c0.784,0,1.357-0.214,1.719-0.643
		c0.363-0.429,0.544-1.128,0.544-2.099v-3.938h1.135v7.492h-0.937l-0.164-1.005h-0.062c-0.232,0.369-0.555,0.651-0.968,0.848
		c-0.412,0.196-0.883,0.294-1.411,0.294c-0.911,0-1.594-0.217-2.048-0.649c-0.453-0.433-0.68-1.126-0.68-2.078v-4.901H260.449z"/>
	<path d="M270.745,77.971c0.2,0,0.395-0.015,0.581-0.044c0.187-0.03,0.335-0.061,0.444-0.093v0.868
		c-0.123,0.06-0.305,0.108-0.543,0.146c-0.24,0.039-0.455,0.059-0.646,0.059c-1.449,0-2.174-0.764-2.174-2.29V72.16h-1.073v-0.547
		l1.073-0.472l0.479-1.6h0.656v1.736h2.174v0.882h-2.174v4.409c0,0.451,0.107,0.798,0.321,1.039S270.371,77.971,270.745,77.971z"/>
	<path d="M283.723,78.771l-1.374-4.396c-0.087-0.269-0.248-0.88-0.485-1.832h-0.055c-0.183,0.798-0.342,1.413-0.479,1.846
		l-1.415,4.382h-1.312l-2.044-7.492h1.189c0.483,1.882,0.851,3.315,1.104,4.3c0.252,0.984,0.397,1.647,0.434,1.989h0.055
		c0.05-0.26,0.131-0.596,0.242-1.008c0.112-0.413,0.209-0.74,0.291-0.981l1.374-4.3h1.23l1.34,4.3
		c0.255,0.784,0.429,1.442,0.52,1.976h0.055c0.019-0.164,0.067-0.417,0.147-0.759c0.079-0.342,0.555-2.181,1.425-5.517h1.176
		l-2.071,7.492H283.723z"/>
	<path d="M293.972,78.771v-4.847c0-0.61-0.139-1.066-0.417-1.367s-0.713-0.451-1.306-0.451c-0.788,0-1.363,0.214-1.727,0.643
		c-0.361,0.429-0.543,1.13-0.543,2.105v3.917h-1.135V68.134h1.135v3.22c0,0.388-0.019,0.709-0.055,0.964h0.068
		c0.224-0.36,0.541-0.644,0.953-0.852c0.413-0.207,0.884-0.311,1.412-0.311c0.916,0,1.604,0.218,2.061,0.652
		c0.459,0.436,0.688,1.127,0.688,2.075v4.888H293.972z"/>
	<path d="M302.395,78.771l-0.226-1.066h-0.055c-0.374,0.47-0.746,0.787-1.118,0.953c-0.371,0.167-0.835,0.25-1.391,0.25
		c-0.743,0-1.325-0.191-1.746-0.574c-0.422-0.383-0.633-0.928-0.633-1.634c0-1.513,1.21-2.306,3.63-2.379l1.271-0.041v-0.465
		c0-0.588-0.126-1.022-0.38-1.302c-0.252-0.281-0.657-0.421-1.213-0.421c-0.624,0-1.331,0.191-2.119,0.574l-0.349-0.868
		c0.369-0.2,0.773-0.357,1.214-0.472c0.439-0.114,0.88-0.171,1.322-0.171c0.894,0,1.555,0.198,1.986,0.595
		c0.43,0.396,0.646,1.032,0.646,1.907v5.113H302.395z M299.831,77.971c0.706,0,1.261-0.193,1.665-0.581
		c0.402-0.388,0.604-0.93,0.604-1.627v-0.677l-1.135,0.048c-0.902,0.032-1.553,0.172-1.952,0.42
		c-0.398,0.249-0.598,0.635-0.598,1.159c0,0.41,0.124,0.723,0.373,0.937C299.037,77.863,299.385,77.971,299.831,77.971z"/>
	<path d="M308.343,77.971c0.2,0,0.395-0.015,0.581-0.044c0.187-0.03,0.335-0.061,0.444-0.093v0.868
		c-0.123,0.06-0.305,0.108-0.543,0.146c-0.24,0.039-0.455,0.059-0.646,0.059c-1.449,0-2.174-0.764-2.174-2.29V72.16h-1.073v-0.547
		l1.073-0.472l0.479-1.6h0.656v1.736h2.174v0.882h-2.174v4.409c0,0.451,0.107,0.798,0.321,1.039S307.969,77.971,308.343,77.971z"/>
	<path d="M312.125,68.776l0.103,0.15c-0.118,0.456-0.289,0.985-0.513,1.59c-0.224,0.604-0.456,1.165-0.697,1.685h-0.834
		c0.319-1.299,0.552-2.44,0.697-3.425H312.125z"/>
	<path d="M318.777,76.727c0,0.697-0.26,1.235-0.779,1.613s-1.249,0.567-2.188,0.567c-0.993,0-1.769-0.157-2.324-0.472v-1.053
		c0.36,0.183,0.746,0.326,1.159,0.431c0.412,0.104,0.81,0.157,1.192,0.157c0.593,0,1.048-0.095,1.367-0.284
		c0.319-0.188,0.479-0.477,0.479-0.864c0-0.292-0.126-0.541-0.38-0.749c-0.252-0.207-0.746-0.452-1.479-0.734
		c-0.697-0.26-1.192-0.486-1.487-0.68c-0.293-0.194-0.512-0.414-0.656-0.66c-0.143-0.246-0.215-0.54-0.215-0.882
		c0-0.61,0.248-1.093,0.745-1.446c0.497-0.353,1.178-0.529,2.044-0.529c0.807,0,1.595,0.164,2.365,0.492l-0.403,0.923
		c-0.752-0.31-1.434-0.465-2.044-0.465c-0.538,0-0.943,0.084-1.217,0.253s-0.41,0.401-0.41,0.697c0,0.2,0.051,0.371,0.154,0.513
		c0.102,0.142,0.268,0.275,0.495,0.403s0.665,0.312,1.312,0.554c0.889,0.323,1.489,0.649,1.802,0.978
		C318.621,75.817,318.777,76.229,318.777,76.727z"/>
	<path d="M324.864,69.248c0-0.26,0.063-0.45,0.191-0.571c0.128-0.12,0.287-0.181,0.479-0.181c0.183,0,0.34,0.062,0.472,0.185
		s0.198,0.312,0.198,0.567s-0.066,0.445-0.198,0.571c-0.132,0.125-0.289,0.188-0.472,0.188c-0.191,0-0.351-0.062-0.479-0.188
		C324.928,69.693,324.864,69.503,324.864,69.248z M326.095,78.771h-1.135v-7.492h1.135V78.771z"/>
	<path d="M331.271,77.971c0.2,0,0.395-0.015,0.581-0.044c0.187-0.03,0.335-0.061,0.444-0.093v0.868
		c-0.123,0.06-0.305,0.108-0.543,0.146c-0.24,0.039-0.455,0.059-0.646,0.059c-1.449,0-2.174-0.764-2.174-2.29V72.16h-1.073v-0.547
		l1.073-0.472l0.479-1.6h0.656v1.736h2.174v0.882h-2.174v4.409c0,0.451,0.107,0.798,0.321,1.039S330.896,77.971,331.271,77.971z"/>
	<path d="M339.265,78.771h-1.135V68.134h1.135V78.771z"/>
	<path d="M341.926,69.248c0-0.26,0.063-0.45,0.191-0.571c0.128-0.12,0.287-0.181,0.479-0.181c0.183,0,0.34,0.062,0.472,0.185
		s0.198,0.312,0.198,0.567s-0.066,0.445-0.198,0.571c-0.132,0.125-0.289,0.188-0.472,0.188c-0.191,0-0.351-0.062-0.479-0.188
		C341.989,69.693,341.926,69.503,341.926,69.248z M343.156,78.771h-1.135v-7.492h1.135V78.771z"/>
	<path d="M347.033,74.936c0.196-0.278,0.494-0.643,0.896-1.094l2.42-2.563h1.347l-3.035,3.192l3.247,4.3h-1.374l-2.646-3.541
		l-0.854,0.738v2.803h-1.121V68.134h1.121v5.64c0,0.251-0.019,0.638-0.055,1.162H347.033z"/>
	<path d="M356.775,78.907c-1.107,0-1.981-0.337-2.622-1.012c-0.64-0.675-0.96-1.611-0.96-2.81c0-1.208,0.298-2.167,0.892-2.878
		c0.596-0.711,1.394-1.066,2.396-1.066c0.938,0,1.682,0.309,2.229,0.926c0.547,0.618,0.82,1.433,0.82,2.444v0.718h-5.161
		c0.022,0.88,0.245,1.547,0.667,2.003c0.421,0.456,1.015,0.684,1.78,0.684c0.807,0,1.604-0.169,2.393-0.506v1.012
		c-0.401,0.173-0.78,0.298-1.138,0.372C357.713,78.87,357.281,78.907,356.775,78.907z M356.468,72.092
		c-0.602,0-1.081,0.196-1.439,0.588c-0.357,0.392-0.568,0.935-0.632,1.627h3.917c0-0.716-0.159-1.264-0.479-1.644
		C357.516,72.282,357.061,72.092,356.468,72.092z"/>
	<path d="M368.222,77.971c0.2,0,0.395-0.015,0.581-0.044c0.187-0.03,0.335-0.061,0.444-0.093v0.868
		c-0.123,0.06-0.305,0.108-0.543,0.146c-0.24,0.039-0.455,0.059-0.646,0.059c-1.449,0-2.174-0.764-2.174-2.29V72.16h-1.073v-0.547
		l1.073-0.472l0.479-1.6h0.656v1.736h2.174v0.882h-2.174v4.409c0,0.451,0.107,0.798,0.321,1.039S367.848,77.971,368.222,77.971z"/>
	<path d="M377.562,75.018c0,1.222-0.308,2.175-0.923,2.86c-0.615,0.687-1.465,1.029-2.55,1.029c-0.67,0-1.265-0.157-1.784-0.472
		s-0.921-0.766-1.203-1.354s-0.424-1.276-0.424-2.064c0-1.222,0.306-2.173,0.916-2.854c0.61-0.681,1.458-1.021,2.543-1.021
		c1.048,0,1.881,0.349,2.499,1.046C377.253,72.885,377.562,73.828,377.562,75.018z M371.854,75.018c0,0.957,0.191,1.687,0.574,2.188
		s0.945,0.752,1.688,0.752s1.307-0.249,1.691-0.749c0.386-0.498,0.578-1.229,0.578-2.19c0-0.952-0.192-1.676-0.578-2.171
		c-0.385-0.494-0.953-0.741-1.705-0.741c-0.743,0-1.304,0.244-1.682,0.731S371.854,74.052,371.854,75.018z"/>
	<path d="M390.005,78.771l-1.374-4.396c-0.087-0.269-0.248-0.88-0.485-1.832h-0.055c-0.183,0.798-0.342,1.413-0.479,1.846
		l-1.415,4.382h-1.312l-2.044-7.492h1.189c0.483,1.882,0.851,3.315,1.104,4.3c0.252,0.984,0.397,1.647,0.434,1.989h0.055
		c0.05-0.26,0.131-0.596,0.242-1.008c0.112-0.413,0.209-0.74,0.291-0.981l1.374-4.3h1.23l1.34,4.3
		c0.255,0.784,0.429,1.442,0.52,1.976h0.055c0.019-0.164,0.067-0.417,0.147-0.759c0.079-0.342,0.555-2.181,1.425-5.517h1.176
		l-2.071,7.492H390.005z"/>
	<path d="M401.594,75.018c0,1.222-0.308,2.175-0.923,2.86c-0.615,0.687-1.465,1.029-2.55,1.029c-0.67,0-1.265-0.157-1.784-0.472
		s-0.921-0.766-1.203-1.354s-0.424-1.276-0.424-2.064c0-1.222,0.306-2.173,0.916-2.854c0.61-0.681,1.458-1.021,2.543-1.021
		c1.048,0,1.881,0.349,2.499,1.046C401.285,72.885,401.594,73.828,401.594,75.018z M395.886,75.018c0,0.957,0.191,1.687,0.574,2.188
		s0.945,0.752,1.688,0.752s1.307-0.249,1.691-0.749c0.386-0.498,0.578-1.229,0.578-2.19c0-0.952-0.192-1.676-0.578-2.171
		c-0.385-0.494-0.953-0.741-1.705-0.741c-0.743,0-1.304,0.244-1.682,0.731S395.886,74.052,395.886,75.018z"/>
	<path d="M407.351,71.142c0.333,0,0.631,0.027,0.896,0.082l-0.157,1.053c-0.31-0.068-0.583-0.103-0.82-0.103
		c-0.606,0-1.125,0.246-1.555,0.738c-0.432,0.492-0.646,1.105-0.646,1.839v4.02h-1.135v-7.492h0.937l0.13,1.388h0.055
		c0.278-0.487,0.613-0.863,1.005-1.128S406.881,71.142,407.351,71.142z"/>
	<path d="M411.119,74.936c0.196-0.278,0.494-0.643,0.896-1.094l2.42-2.563h1.347l-3.035,3.192l3.247,4.3h-1.374l-2.646-3.541
		l-0.854,0.738v2.803h-1.121V68.134h1.121v5.64c0,0.251-0.019,0.638-0.055,1.162H411.119z"/>
	<path d="M426.29,78.771l-0.226-1.066h-0.055c-0.374,0.47-0.746,0.787-1.118,0.953c-0.371,0.167-0.835,0.25-1.391,0.25
		c-0.743,0-1.325-0.191-1.746-0.574c-0.422-0.383-0.633-0.928-0.633-1.634c0-1.513,1.21-2.306,3.63-2.379l1.271-0.041v-0.465
		c0-0.588-0.126-1.022-0.38-1.302c-0.252-0.281-0.657-0.421-1.213-0.421c-0.624,0-1.331,0.191-2.119,0.574l-0.349-0.868
		c0.369-0.2,0.773-0.357,1.214-0.472c0.439-0.114,0.88-0.171,1.322-0.171c0.894,0,1.555,0.198,1.986,0.595
		c0.43,0.396,0.646,1.032,0.646,1.907v5.113H426.29z M423.727,77.971c0.706,0,1.261-0.193,1.665-0.581
		c0.402-0.388,0.604-0.93,0.604-1.627v-0.677l-1.135,0.048c-0.902,0.032-1.553,0.172-1.952,0.42
		c-0.398,0.249-0.598,0.635-0.598,1.159c0,0.41,0.124,0.723,0.373,0.937C422.933,77.863,423.28,77.971,423.727,77.971z"/>
	<path d="M432.239,77.971c0.2,0,0.395-0.015,0.581-0.044c0.187-0.03,0.335-0.061,0.444-0.093v0.868
		c-0.123,0.06-0.305,0.108-0.543,0.146c-0.24,0.039-0.455,0.059-0.646,0.059c-1.449,0-2.174-0.764-2.174-2.29V72.16h-1.073v-0.547
		l1.073-0.472l0.479-1.6h0.656v1.736h2.174v0.882h-2.174v4.409c0,0.451,0.107,0.798,0.321,1.039S431.865,77.971,432.239,77.971z"/>
	<path d="M441.519,77.971c0.2,0,0.395-0.015,0.581-0.044c0.187-0.03,0.335-0.061,0.444-0.093v0.868
		c-0.123,0.06-0.305,0.108-0.543,0.146c-0.24,0.039-0.455,0.059-0.646,0.059c-1.449,0-2.174-0.764-2.174-2.29V72.16h-1.073v-0.547
		l1.073-0.472l0.479-1.6h0.656v1.736h2.174v0.882h-2.174v4.409c0,0.451,0.107,0.798,0.321,1.039S441.145,77.971,441.519,77.971z"/>
	<path d="M449.518,78.771v-4.847c0-0.61-0.139-1.066-0.417-1.367s-0.713-0.451-1.306-0.451c-0.788,0-1.363,0.214-1.727,0.643
		c-0.361,0.429-0.543,1.13-0.543,2.105v3.917h-1.135V68.134h1.135v3.22c0,0.388-0.019,0.709-0.055,0.964h0.068
		c0.224-0.36,0.541-0.644,0.953-0.852c0.413-0.207,0.884-0.311,1.412-0.311c0.916,0,1.604,0.218,2.061,0.652
		c0.459,0.436,0.688,1.127,0.688,2.075v4.888H449.518z"/>
	<path d="M456.498,78.907c-1.107,0-1.981-0.337-2.622-1.012c-0.64-0.675-0.96-1.611-0.96-2.81c0-1.208,0.298-2.167,0.892-2.878
		c0.596-0.711,1.394-1.066,2.396-1.066c0.938,0,1.682,0.309,2.229,0.926c0.547,0.618,0.82,1.433,0.82,2.444v0.718h-5.161
		c0.022,0.88,0.245,1.547,0.667,2.003c0.421,0.456,1.015,0.684,1.78,0.684c0.807,0,1.604-0.169,2.393-0.506v1.012
		c-0.401,0.173-0.78,0.298-1.138,0.372C457.436,78.87,457.004,78.907,456.498,78.907z M456.19,72.092
		c-0.602,0-1.081,0.196-1.439,0.588c-0.357,0.392-0.568,0.935-0.632,1.627h3.917c0-0.716-0.159-1.264-0.479-1.644
		C457.238,72.282,456.783,72.092,456.19,72.092z"/>
	<path d="M469.011,71.155c0.984,0,1.749,0.336,2.293,1.008c0.545,0.673,0.817,1.624,0.817,2.854s-0.274,2.187-0.823,2.868
		c-0.55,0.681-1.312,1.021-2.287,1.021c-0.487,0-0.934-0.09-1.336-0.27c-0.404-0.181-0.742-0.457-1.016-0.831h-0.082l-0.239,0.964
		h-0.813V68.134h1.135v2.584c0,0.579-0.019,1.099-0.055,1.559h0.055C467.188,71.529,467.972,71.155,469.011,71.155z M468.847,72.105
		c-0.774,0-1.333,0.222-1.675,0.667c-0.342,0.443-0.513,1.192-0.513,2.245s0.176,1.806,0.526,2.259
		c0.351,0.454,0.914,0.681,1.688,0.681c0.697,0,1.217-0.254,1.559-0.763c0.342-0.508,0.513-1.238,0.513-2.19
		c0-0.976-0.171-1.702-0.513-2.181S469.562,72.105,468.847,72.105z"/>
	<path d="M477.619,78.907c-1.107,0-1.981-0.337-2.622-1.012c-0.64-0.675-0.96-1.611-0.96-2.81c0-1.208,0.298-2.167,0.892-2.878
		c0.596-0.711,1.394-1.066,2.396-1.066c0.938,0,1.682,0.309,2.229,0.926c0.547,0.618,0.82,1.433,0.82,2.444v0.718h-5.161
		c0.022,0.88,0.245,1.547,0.667,2.003c0.421,0.456,1.015,0.684,1.78,0.684c0.807,0,1.604-0.169,2.393-0.506v1.012
		c-0.401,0.173-0.78,0.298-1.138,0.372C478.557,78.87,478.125,78.907,477.619,78.907z M477.312,72.092
		c-0.602,0-1.081,0.196-1.439,0.588c-0.357,0.392-0.568,0.935-0.632,1.627h3.917c0-0.716-0.159-1.264-0.479-1.644
		C478.359,72.282,477.904,72.092,477.312,72.092z"/>
	<path d="M487.491,76.727c0,0.697-0.26,1.235-0.779,1.613s-1.249,0.567-2.188,0.567c-0.993,0-1.769-0.157-2.324-0.472v-1.053
		c0.36,0.183,0.746,0.326,1.159,0.431c0.412,0.104,0.81,0.157,1.192,0.157c0.593,0,1.048-0.095,1.367-0.284
		c0.319-0.188,0.479-0.477,0.479-0.864c0-0.292-0.126-0.541-0.38-0.749c-0.252-0.207-0.746-0.452-1.479-0.734
		c-0.697-0.26-1.192-0.486-1.487-0.68c-0.293-0.194-0.512-0.414-0.656-0.66c-0.143-0.246-0.215-0.54-0.215-0.882
		c0-0.61,0.248-1.093,0.745-1.446c0.497-0.353,1.178-0.529,2.044-0.529c0.807,0,1.595,0.164,2.365,0.492l-0.403,0.923
		c-0.752-0.31-1.434-0.465-2.044-0.465c-0.538,0-0.943,0.084-1.217,0.253s-0.41,0.401-0.41,0.697c0,0.2,0.051,0.371,0.154,0.513
		c0.102,0.142,0.268,0.275,0.495,0.403s0.665,0.312,1.312,0.554c0.889,0.323,1.489,0.649,1.802,0.978
		C487.335,75.817,487.491,76.229,487.491,76.727z"/>
	<path d="M492.106,77.971c0.2,0,0.395-0.015,0.581-0.044c0.187-0.03,0.335-0.061,0.444-0.093v0.868
		c-0.123,0.06-0.305,0.108-0.543,0.146c-0.24,0.039-0.455,0.059-0.646,0.059c-1.449,0-2.174-0.764-2.174-2.29V72.16h-1.073v-0.547
		l1.073-0.472l0.479-1.6h0.656v1.736h2.174v0.882h-2.174v4.409c0,0.451,0.107,0.798,0.321,1.039S491.732,77.971,492.106,77.971z"/>
	<path d="M5.448,89.155c0.984,0,1.749,0.336,2.293,1.008c0.545,0.673,0.817,1.624,0.817,2.854s-0.274,2.187-0.823,2.868
		c-0.55,0.681-1.312,1.021-2.287,1.021c-0.487,0-0.934-0.09-1.336-0.27c-0.404-0.181-0.742-0.457-1.016-0.831H3.015l-0.239,0.964
		H1.962V86.134h1.135v2.584c0,0.579-0.019,1.099-0.055,1.559h0.055C3.625,89.529,4.409,89.155,5.448,89.155z M5.284,90.105
		c-0.774,0-1.333,0.222-1.675,0.667c-0.342,0.443-0.513,1.192-0.513,2.245s0.176,1.806,0.526,2.259
		c0.351,0.454,0.914,0.681,1.688,0.681c0.697,0,1.217-0.254,1.559-0.763c0.342-0.508,0.513-1.238,0.513-2.19
		c0-0.976-0.171-1.702-0.513-2.181S6,90.105,5.284,90.105z"/>
	<path d="M10.795,87.248c0-0.26,0.063-0.45,0.191-0.571c0.128-0.12,0.287-0.181,0.479-0.181c0.183,0,0.34,0.062,0.472,0.185
		s0.198,0.312,0.198,0.567s-0.066,0.445-0.198,0.571c-0.132,0.125-0.289,0.188-0.472,0.188c-0.191,0-0.351-0.062-0.479-0.188
		C10.858,87.693,10.795,87.503,10.795,87.248z M12.025,96.771h-1.135v-7.492h1.135V96.771z"/>
	<path d="M19.909,96.771v-4.847c0-0.61-0.139-1.066-0.417-1.367s-0.713-0.451-1.306-0.451c-0.784,0-1.358,0.212-1.723,0.636
		s-0.547,1.123-0.547,2.099v3.931h-1.135v-7.492h0.923l0.185,1.025h0.055c0.232-0.369,0.559-0.655,0.978-0.857
		c0.419-0.203,0.887-0.305,1.401-0.305c0.902,0,1.581,0.218,2.037,0.652c0.456,0.436,0.684,1.132,0.684,2.089v4.888H19.909z"/>
	<path d="M29.856,89.278v0.718l-1.388,0.164c0.128,0.159,0.241,0.368,0.342,0.626c0.101,0.257,0.15,0.548,0.15,0.871
		c0,0.733-0.251,1.319-0.752,1.757s-1.189,0.656-2.064,0.656c-0.224,0-0.433-0.019-0.629-0.055
		c-0.483,0.255-0.725,0.576-0.725,0.964c0,0.205,0.084,0.356,0.253,0.455c0.169,0.098,0.458,0.146,0.868,0.146h1.326
		c0.812,0,1.435,0.171,1.869,0.513c0.436,0.342,0.653,0.839,0.653,1.49c0,0.829-0.333,1.462-0.998,1.897
		c-0.665,0.435-1.636,0.652-2.912,0.652c-0.979,0-1.735-0.183-2.267-0.547c-0.53-0.364-0.796-0.88-0.796-1.545
		c0-0.456,0.146-0.85,0.438-1.183s0.702-0.559,1.23-0.677c-0.191-0.087-0.353-0.221-0.481-0.403
		c-0.131-0.183-0.195-0.395-0.195-0.636c0-0.273,0.073-0.513,0.219-0.718s0.376-0.403,0.69-0.595
		c-0.388-0.159-0.703-0.431-0.946-0.813c-0.244-0.383-0.366-0.82-0.366-1.312c0-0.82,0.246-1.452,0.738-1.897
		c0.492-0.443,1.189-0.666,2.092-0.666c0.392,0,0.745,0.046,1.06,0.137H29.856z M23.882,98.028c0,0.405,0.171,0.713,0.513,0.923
		s0.832,0.314,1.47,0.314c0.952,0,1.657-0.143,2.116-0.427c0.457-0.285,0.687-0.672,0.687-1.159c0-0.405-0.125-0.687-0.376-0.845
		c-0.251-0.156-0.723-0.235-1.415-0.235h-1.36c-0.515,0-0.916,0.123-1.203,0.369S23.882,97.568,23.882,98.028z M24.497,91.678
		c0,0.524,0.148,0.921,0.444,1.189s0.709,0.403,1.237,0.403c1.107,0,1.661-0.538,1.661-1.613c0-1.126-0.561-1.688-1.682-1.688
		c-0.533,0-0.943,0.144-1.23,0.431S24.497,91.112,24.497,91.678z"/>
	<path d="M36.578,94.727c0,0.697-0.26,1.235-0.779,1.613s-1.249,0.567-2.188,0.567c-0.993,0-1.769-0.157-2.324-0.472v-1.053
		c0.36,0.183,0.746,0.326,1.159,0.431c0.412,0.104,0.81,0.157,1.192,0.157c0.593,0,1.048-0.095,1.367-0.284
		c0.319-0.188,0.479-0.477,0.479-0.864c0-0.292-0.126-0.541-0.38-0.749c-0.252-0.207-0.746-0.452-1.479-0.734
		c-0.697-0.26-1.192-0.486-1.487-0.68c-0.293-0.194-0.512-0.414-0.656-0.66c-0.143-0.246-0.215-0.54-0.215-0.882
		c0-0.61,0.248-1.093,0.745-1.446c0.497-0.353,1.178-0.529,2.044-0.529c0.807,0,1.595,0.164,2.365,0.492l-0.403,0.923
		c-0.752-0.31-1.434-0.465-2.044-0.465c-0.538,0-0.943,0.084-1.217,0.253s-0.41,0.401-0.41,0.697c0,0.2,0.051,0.371,0.154,0.513
		c0.102,0.142,0.268,0.275,0.495,0.403s0.665,0.312,1.312,0.554c0.889,0.323,1.489,0.649,1.802,0.978
		C36.422,93.817,36.578,94.229,36.578,94.727z"/>
	<path d="M45.24,93.018c0,1.222-0.308,2.175-0.923,2.86c-0.615,0.687-1.465,1.029-2.55,1.029c-0.67,0-1.265-0.157-1.784-0.472
		s-0.921-0.766-1.203-1.354s-0.424-1.276-0.424-2.064c0-1.222,0.306-2.173,0.916-2.854c0.61-0.681,1.458-1.021,2.543-1.021
		c1.048,0,1.881,0.349,2.499,1.046C44.932,90.885,45.24,91.828,45.24,93.018z M39.532,93.018c0,0.957,0.191,1.687,0.574,2.188
		s0.945,0.752,1.688,0.752s1.307-0.249,1.691-0.749c0.386-0.498,0.578-1.229,0.578-2.19c0-0.952-0.192-1.676-0.578-2.171
		c-0.385-0.494-0.953-0.741-1.705-0.741c-0.743,0-1.304,0.244-1.682,0.731S39.532,92.052,39.532,93.018z"/>
	<path d="M54.046,93.018c0,1.222-0.308,2.175-0.923,2.86c-0.615,0.687-1.465,1.029-2.55,1.029c-0.67,0-1.265-0.157-1.784-0.472
		s-0.921-0.766-1.203-1.354s-0.424-1.276-0.424-2.064c0-1.222,0.306-2.173,0.916-2.854c0.61-0.681,1.458-1.021,2.543-1.021
		c1.048,0,1.881,0.349,2.499,1.046C53.737,90.885,54.046,91.828,54.046,93.018z M48.338,93.018c0,0.957,0.191,1.687,0.574,2.188
		s0.945,0.752,1.688,0.752s1.307-0.249,1.691-0.749c0.386-0.498,0.578-1.229,0.578-2.19c0-0.952-0.192-1.676-0.578-2.171
		c-0.385-0.494-0.953-0.741-1.705-0.741c-0.743,0-1.304,0.244-1.682,0.731S48.338,92.052,48.338,93.018z"/>
	<path d="M63.858,96.907c-0.487,0-0.934-0.09-1.336-0.27c-0.404-0.181-0.742-0.457-1.016-0.831h-0.082
		c0.055,0.438,0.082,0.853,0.082,1.244v3.083h-1.135V89.278h0.923l0.157,1.025h0.055c0.292-0.41,0.631-0.706,1.019-0.889
		s0.832-0.273,1.333-0.273c0.993,0,1.76,0.34,2.301,1.019c0.539,0.679,0.81,1.632,0.81,2.857c0,1.23-0.274,2.187-0.823,2.868
		C65.596,96.566,64.834,96.907,63.858,96.907z M63.694,90.105c-0.766,0-1.319,0.212-1.661,0.636s-0.518,1.099-0.526,2.023v0.253
		c0,1.053,0.176,1.806,0.526,2.259c0.351,0.454,0.914,0.681,1.688,0.681c0.647,0,1.154-0.262,1.521-0.786
		c0.366-0.524,0.55-1.246,0.55-2.167c0-0.935-0.184-1.651-0.55-2.149C64.876,90.354,64.359,90.105,63.694,90.105z"/>
	<path d="M70.437,96.771h-1.135V86.134h1.135V96.771z"/>
	<path d="M77.8,96.771l-0.226-1.066H77.52c-0.374,0.47-0.746,0.787-1.118,0.953c-0.371,0.167-0.835,0.25-1.391,0.25
		c-0.743,0-1.325-0.191-1.746-0.574c-0.422-0.383-0.633-0.928-0.633-1.634c0-1.513,1.21-2.306,3.63-2.379l1.271-0.041v-0.465
		c0-0.588-0.126-1.022-0.38-1.302c-0.252-0.281-0.657-0.421-1.213-0.421c-0.624,0-1.331,0.191-2.119,0.574l-0.349-0.868
		c0.369-0.2,0.773-0.357,1.214-0.472c0.439-0.114,0.88-0.171,1.322-0.171c0.894,0,1.555,0.198,1.986,0.595
		c0.43,0.396,0.646,1.032,0.646,1.907v5.113H77.8z M75.236,95.971c0.706,0,1.261-0.193,1.665-0.581
		c0.402-0.388,0.604-0.93,0.604-1.627v-0.677l-1.135,0.048c-0.902,0.032-1.553,0.172-1.952,0.42
		c-0.398,0.249-0.598,0.635-0.598,1.159c0,0.41,0.124,0.723,0.373,0.937C74.442,95.863,74.79,95.971,75.236,95.971z"/>
	<path d="M84.322,96.907c-1.085,0-1.924-0.334-2.52-1.002c-0.594-0.667-0.892-1.611-0.892-2.833c0-1.253,0.302-2.222,0.905-2.905
		c0.604-0.684,1.465-1.025,2.581-1.025c0.36,0,0.72,0.039,1.08,0.116s0.643,0.169,0.848,0.273l-0.349,0.964
		c-0.251-0.101-0.524-0.184-0.82-0.25c-0.296-0.065-0.559-0.099-0.786-0.099c-1.522,0-2.283,0.971-2.283,2.912
		c0,0.921,0.186,1.627,0.558,2.119c0.371,0.492,0.921,0.738,1.65,0.738c0.624,0,1.265-0.135,1.921-0.403v1.005
		C85.715,96.777,85.083,96.907,84.322,96.907z"/>
	<path d="M91.509,96.907c-1.107,0-1.981-0.337-2.622-1.012c-0.64-0.675-0.96-1.611-0.96-2.81c0-1.208,0.298-2.167,0.892-2.878
		c0.596-0.711,1.394-1.066,2.396-1.066c0.938,0,1.682,0.309,2.229,0.926c0.547,0.618,0.82,1.433,0.82,2.444v0.718h-5.161
		c0.022,0.88,0.245,1.547,0.667,2.003c0.421,0.456,1.015,0.684,1.78,0.684c0.807,0,1.604-0.169,2.393-0.506v1.012
		c-0.401,0.173-0.78,0.298-1.138,0.372C92.446,96.87,92.015,96.907,91.509,96.907z M91.201,90.092c-0.602,0-1.081,0.196-1.439,0.588
		c-0.357,0.392-0.568,0.935-0.632,1.627h3.917c0-0.716-0.159-1.264-0.479-1.644C92.249,90.282,91.794,90.092,91.201,90.092z"/>
	<path d="M100.439,87.248c0-0.26,0.063-0.45,0.191-0.571c0.128-0.12,0.287-0.181,0.479-0.181c0.183,0,0.34,0.062,0.472,0.185
		s0.198,0.312,0.198,0.567s-0.066,0.445-0.198,0.571c-0.132,0.125-0.289,0.188-0.472,0.188c-0.191,0-0.351-0.062-0.479-0.188
		C100.503,87.693,100.439,87.503,100.439,87.248z M101.67,96.771h-1.135v-7.492h1.135V96.771z"/>
	<path d="M109.553,96.771v-4.847c0-0.61-0.139-1.066-0.417-1.367s-0.713-0.451-1.306-0.451c-0.784,0-1.358,0.212-1.723,0.636
		s-0.547,1.123-0.547,2.099v3.931h-1.135v-7.492h0.923l0.185,1.025h0.055c0.232-0.369,0.559-0.655,0.978-0.857
		c0.419-0.203,0.887-0.305,1.401-0.305c0.902,0,1.581,0.218,2.037,0.652c0.456,0.436,0.684,1.132,0.684,2.089v4.888H109.553z"/>
	<path d="M121.806,87.672c-1.099,0-1.966,0.366-2.601,1.097c-0.637,0.732-0.954,1.733-0.954,3.005c0,1.308,0.307,2.318,0.919,3.032
		c0.613,0.713,1.487,1.069,2.622,1.069c0.697,0,1.492-0.125,2.386-0.376v1.019c-0.692,0.26-1.547,0.39-2.563,0.39
		c-1.472,0-2.608-0.446-3.407-1.34c-0.801-0.894-1.2-2.162-1.2-3.808c0-1.03,0.192-1.933,0.577-2.707
		c0.386-0.774,0.941-1.372,1.668-1.791c0.728-0.419,1.583-0.629,2.567-0.629c1.048,0,1.964,0.191,2.748,0.574l-0.492,0.998
		C123.318,87.85,122.562,87.672,121.806,87.672z"/>
	<path d="M131.145,96.771l-0.226-1.066h-0.055c-0.374,0.47-0.746,0.787-1.118,0.953c-0.371,0.167-0.835,0.25-1.391,0.25
		c-0.743,0-1.325-0.191-1.746-0.574c-0.422-0.383-0.633-0.928-0.633-1.634c0-1.513,1.21-2.306,3.63-2.379l1.271-0.041v-0.465
		c0-0.588-0.126-1.022-0.38-1.302c-0.252-0.281-0.657-0.421-1.213-0.421c-0.624,0-1.331,0.191-2.119,0.574l-0.349-0.868
		c0.369-0.2,0.773-0.357,1.214-0.472c0.439-0.114,0.88-0.171,1.322-0.171c0.894,0,1.555,0.198,1.986,0.595
		c0.43,0.396,0.646,1.032,0.646,1.907v5.113H131.145z M128.581,95.971c0.706,0,1.261-0.193,1.665-0.581
		c0.402-0.388,0.604-0.93,0.604-1.627v-0.677l-1.135,0.048c-0.902,0.032-1.553,0.172-1.952,0.42
		c-0.398,0.249-0.598,0.635-0.598,1.159c0,0.41,0.124,0.723,0.373,0.937C127.787,95.863,128.135,95.971,128.581,95.971z"/>
	<path d="M139.801,96.771v-4.847c0-0.61-0.139-1.066-0.417-1.367s-0.713-0.451-1.306-0.451c-0.784,0-1.358,0.212-1.723,0.636
		s-0.547,1.123-0.547,2.099v3.931h-1.135v-7.492h0.923l0.185,1.025h0.055c0.232-0.369,0.559-0.655,0.978-0.857
		c0.419-0.203,0.887-0.305,1.401-0.305c0.902,0,1.581,0.218,2.037,0.652c0.456,0.436,0.684,1.132,0.684,2.089v4.888H139.801z"/>
	<path d="M148.224,96.771l-0.226-1.066h-0.055c-0.374,0.47-0.746,0.787-1.118,0.953c-0.371,0.167-0.835,0.25-1.391,0.25
		c-0.743,0-1.325-0.191-1.746-0.574c-0.422-0.383-0.633-0.928-0.633-1.634c0-1.513,1.21-2.306,3.63-2.379l1.271-0.041v-0.465
		c0-0.588-0.126-1.022-0.38-1.302c-0.252-0.281-0.657-0.421-1.213-0.421c-0.624,0-1.331,0.191-2.119,0.574l-0.349-0.868
		c0.369-0.2,0.773-0.357,1.214-0.472c0.439-0.114,0.88-0.171,1.322-0.171c0.894,0,1.555,0.198,1.986,0.595
		c0.43,0.396,0.646,1.032,0.646,1.907v5.113H148.224z M145.66,95.971c0.706,0,1.261-0.193,1.665-0.581
		c0.402-0.388,0.604-0.93,0.604-1.627v-0.677l-1.135,0.048c-0.902,0.032-1.553,0.172-1.952,0.42
		c-0.398,0.249-0.598,0.635-0.598,1.159c0,0.41,0.124,0.723,0.373,0.937C144.866,95.863,145.214,95.971,145.66,95.971z"/>
	<path d="M156.852,95.766h-0.062c-0.524,0.761-1.308,1.142-2.352,1.142c-0.979,0-1.742-0.335-2.286-1.005
		c-0.545-0.67-0.817-1.622-0.817-2.857s0.273-2.194,0.82-2.878s1.308-1.025,2.283-1.025c1.017,0,1.796,0.369,2.338,1.107h0.089
		l-0.048-0.54l-0.027-0.526v-3.049h1.135v10.637h-0.923L156.852,95.766z M154.582,95.957c0.774,0,1.336-0.211,1.686-0.632
		c0.348-0.422,0.522-1.103,0.522-2.041v-0.239c0-1.062-0.177-1.819-0.53-2.272c-0.353-0.454-0.917-0.681-1.691-0.681
		c-0.665,0-1.175,0.259-1.527,0.776c-0.354,0.517-0.53,1.247-0.53,2.19c0,0.957,0.176,1.68,0.526,2.167
		S153.903,95.957,154.582,95.957z"/>
	<path d="M165.289,96.771l-0.226-1.066h-0.055c-0.374,0.47-0.746,0.787-1.118,0.953c-0.371,0.167-0.835,0.25-1.391,0.25
		c-0.743,0-1.325-0.191-1.746-0.574c-0.422-0.383-0.633-0.928-0.633-1.634c0-1.513,1.21-2.306,3.63-2.379l1.271-0.041v-0.465
		c0-0.588-0.126-1.022-0.38-1.302c-0.252-0.281-0.657-0.421-1.213-0.421c-0.624,0-1.331,0.191-2.119,0.574l-0.349-0.868
		c0.369-0.2,0.773-0.357,1.214-0.472c0.439-0.114,0.88-0.171,1.322-0.171c0.894,0,1.555,0.198,1.986,0.595
		c0.43,0.396,0.646,1.032,0.646,1.907v5.113H165.289z M162.726,95.971c0.706,0,1.261-0.193,1.665-0.581
		c0.402-0.388,0.604-0.93,0.604-1.627v-0.677l-1.135,0.048c-0.902,0.032-1.553,0.172-1.952,0.42
		c-0.398,0.249-0.598,0.635-0.598,1.159c0,0.41,0.124,0.723,0.373,0.937C161.932,95.863,162.279,95.971,162.726,95.971z"/>
	<path d="M170.007,95.144l0.103,0.157c-0.118,0.456-0.289,0.985-0.513,1.589c-0.224,0.604-0.456,1.166-0.697,1.686h-0.854
		c0.123-0.474,0.259-1.06,0.407-1.757c0.147-0.697,0.251-1.256,0.311-1.675H170.007z"/>
	<path d="M182.704,96.771l-1.374-4.396c-0.087-0.269-0.248-0.88-0.485-1.832h-0.055c-0.183,0.798-0.342,1.413-0.479,1.846
		l-1.415,4.382h-1.312l-2.044-7.492h1.189c0.483,1.882,0.851,3.315,1.104,4.3c0.252,0.984,0.397,1.647,0.434,1.989h0.055
		c0.05-0.26,0.131-0.596,0.242-1.008c0.112-0.413,0.209-0.74,0.291-0.981l1.374-4.3h1.23l1.34,4.3
		c0.255,0.784,0.429,1.442,0.52,1.976h0.055c0.019-0.164,0.067-0.417,0.147-0.759c0.079-0.342,0.555-2.181,1.425-5.517h1.176
		l-2.071,7.492H182.704z"/>
	<path d="M190.99,96.907c-1.107,0-1.981-0.337-2.622-1.012c-0.64-0.675-0.96-1.611-0.96-2.81c0-1.208,0.298-2.167,0.892-2.878
		c0.596-0.711,1.394-1.066,2.396-1.066c0.938,0,1.682,0.309,2.229,0.926c0.547,0.618,0.82,1.433,0.82,2.444v0.718h-5.161
		c0.022,0.88,0.245,1.547,0.667,2.003c0.421,0.456,1.015,0.684,1.78,0.684c0.807,0,1.604-0.169,2.393-0.506v1.012
		c-0.401,0.173-0.78,0.298-1.138,0.372C191.928,96.87,191.496,96.907,190.99,96.907z M190.683,90.092
		c-0.602,0-1.081,0.196-1.439,0.588c-0.357,0.392-0.568,0.935-0.632,1.627h3.917c0-0.716-0.159-1.264-0.479-1.644
		C191.73,90.282,191.275,90.092,190.683,90.092z"/>
	<path d="M197.165,96.771h-1.135V86.134h1.135V96.771z"/>
	<path d="M201.056,96.771h-1.135V86.134h1.135V96.771z"/>
	<path d="M212.632,94.727c0,0.697-0.26,1.235-0.779,1.613s-1.249,0.567-2.188,0.567c-0.993,0-1.769-0.157-2.324-0.472v-1.053
		c0.36,0.183,0.746,0.326,1.159,0.431c0.412,0.104,0.81,0.157,1.192,0.157c0.593,0,1.048-0.095,1.367-0.284
		c0.319-0.188,0.479-0.477,0.479-0.864c0-0.292-0.126-0.541-0.38-0.749c-0.252-0.207-0.746-0.452-1.479-0.734
		c-0.697-0.26-1.192-0.486-1.487-0.68c-0.293-0.194-0.512-0.414-0.656-0.66c-0.143-0.246-0.215-0.54-0.215-0.882
		c0-0.61,0.248-1.093,0.745-1.446c0.497-0.353,1.178-0.529,2.044-0.529c0.807,0,1.595,0.164,2.365,0.492l-0.403,0.923
		c-0.752-0.31-1.434-0.465-2.044-0.465c-0.538,0-0.943,0.084-1.217,0.253s-0.41,0.401-0.41,0.697c0,0.2,0.051,0.371,0.154,0.513
		c0.102,0.142,0.268,0.275,0.495,0.403s0.665,0.312,1.312,0.554c0.889,0.323,1.489,0.649,1.802,0.978
		C212.476,93.817,212.632,94.229,212.632,94.727z"/>
	<path d="M217.992,96.907c-1.107,0-1.981-0.337-2.622-1.012c-0.64-0.675-0.96-1.611-0.96-2.81c0-1.208,0.298-2.167,0.892-2.878
		c0.596-0.711,1.394-1.066,2.396-1.066c0.938,0,1.682,0.309,2.229,0.926c0.547,0.618,0.82,1.433,0.82,2.444v0.718h-5.161
		c0.022,0.88,0.245,1.547,0.667,2.003c0.421,0.456,1.015,0.684,1.78,0.684c0.807,0,1.604-0.169,2.393-0.506v1.012
		c-0.401,0.173-0.78,0.298-1.138,0.372C218.93,96.87,218.498,96.907,217.992,96.907z M217.685,90.092
		c-0.602,0-1.081,0.196-1.439,0.588c-0.357,0.392-0.568,0.935-0.632,1.627h3.917c0-0.716-0.159-1.264-0.479-1.644
		C218.732,90.282,218.277,90.092,217.685,90.092z"/>
	<path d="M228.159,96.771v-4.847c0-0.61-0.139-1.066-0.417-1.367s-0.713-0.451-1.306-0.451c-0.784,0-1.358,0.212-1.723,0.636
		s-0.547,1.123-0.547,2.099v3.931h-1.135v-7.492h0.923l0.185,1.025h0.055c0.232-0.369,0.559-0.655,0.978-0.857
		c0.419-0.203,0.887-0.305,1.401-0.305c0.902,0,1.581,0.218,2.037,0.652c0.456,0.436,0.684,1.132,0.684,2.089v4.888H228.159z"/>
	<path d="M237.074,95.766h-0.062c-0.524,0.761-1.308,1.142-2.352,1.142c-0.979,0-1.742-0.335-2.286-1.005
		c-0.545-0.67-0.817-1.622-0.817-2.857s0.273-2.194,0.82-2.878s1.308-1.025,2.283-1.025c1.017,0,1.796,0.369,2.338,1.107h0.089
		l-0.048-0.54l-0.027-0.526v-3.049h1.135v10.637h-0.923L237.074,95.766z M234.805,95.957c0.774,0,1.336-0.211,1.686-0.632
		c0.348-0.422,0.522-1.103,0.522-2.041v-0.239c0-1.062-0.177-1.819-0.53-2.272c-0.353-0.454-0.917-0.681-1.691-0.681
		c-0.665,0-1.175,0.259-1.527,0.776c-0.354,0.517-0.53,1.247-0.53,2.19c0,0.957,0.176,1.68,0.526,2.167
		S234.126,95.957,234.805,95.957z"/>
	<path d="M245.957,89.278v4.86c0,0.61,0.139,1.066,0.417,1.367s0.713,0.451,1.306,0.451c0.784,0,1.357-0.214,1.719-0.643
		c0.363-0.429,0.544-1.128,0.544-2.099v-3.938h1.135v7.492h-0.937l-0.164-1.005h-0.062c-0.232,0.369-0.555,0.651-0.968,0.848
		c-0.412,0.196-0.883,0.294-1.411,0.294c-0.911,0-1.594-0.217-2.048-0.649c-0.453-0.433-0.68-1.126-0.68-2.078v-4.901H245.957z"/>
	<path d="M258.666,94.727c0,0.697-0.26,1.235-0.779,1.613s-1.249,0.567-2.188,0.567c-0.993,0-1.769-0.157-2.324-0.472v-1.053
		c0.36,0.183,0.746,0.326,1.159,0.431c0.412,0.104,0.81,0.157,1.192,0.157c0.593,0,1.048-0.095,1.367-0.284
		c0.319-0.188,0.479-0.477,0.479-0.864c0-0.292-0.126-0.541-0.38-0.749c-0.252-0.207-0.746-0.452-1.479-0.734
		c-0.697-0.26-1.192-0.486-1.487-0.68c-0.293-0.194-0.512-0.414-0.656-0.66c-0.143-0.246-0.215-0.54-0.215-0.882
		c0-0.61,0.248-1.093,0.745-1.446c0.497-0.353,1.178-0.529,2.044-0.529c0.807,0,1.595,0.164,2.365,0.492l-0.403,0.923
		c-0.752-0.31-1.434-0.465-2.044-0.465c-0.538,0-0.943,0.084-1.217,0.253s-0.41,0.401-0.41,0.697c0,0.2,0.051,0.371,0.154,0.513
		c0.102,0.142,0.268,0.275,0.495,0.403s0.665,0.312,1.312,0.554c0.889,0.323,1.489,0.649,1.802,0.978
		C258.51,93.817,258.666,94.229,258.666,94.727z"/>
	<path d="M263.659,89.278h1.217l1.641,4.272c0.36,0.976,0.583,1.68,0.67,2.112h0.055c0.06-0.232,0.184-0.63,0.373-1.193
		c0.188-0.562,0.808-2.293,1.855-5.191h1.217l-3.22,8.531c-0.319,0.843-0.691,1.441-1.118,1.795
		c-0.426,0.353-0.948,0.529-1.568,0.529c-0.347,0-0.688-0.039-1.025-0.116v-0.909c0.251,0.055,0.531,0.082,0.841,0.082
		c0.779,0,1.335-0.438,1.668-1.312l0.417-1.066L263.659,89.278z"/>
	<path d="M278.721,93.018c0,1.222-0.308,2.175-0.923,2.86c-0.615,0.687-1.465,1.029-2.55,1.029c-0.67,0-1.265-0.157-1.784-0.472
		s-0.921-0.766-1.203-1.354s-0.424-1.276-0.424-2.064c0-1.222,0.306-2.173,0.916-2.854c0.61-0.681,1.458-1.021,2.543-1.021
		c1.048,0,1.881,0.349,2.499,1.046C278.412,90.885,278.721,91.828,278.721,93.018z M273.013,93.018c0,0.957,0.191,1.687,0.574,2.188
		s0.945,0.752,1.688,0.752s1.307-0.249,1.691-0.749c0.386-0.498,0.578-1.229,0.578-2.19c0-0.952-0.192-1.676-0.578-2.171
		c-0.385-0.494-0.953-0.741-1.705-0.741c-0.743,0-1.304,0.244-1.682,0.731S273.013,92.052,273.013,93.018z"/>
	<path d="M282.126,89.278v4.86c0,0.61,0.139,1.066,0.417,1.367s0.713,0.451,1.306,0.451c0.784,0,1.357-0.214,1.719-0.643
		c0.363-0.429,0.544-1.128,0.544-2.099v-3.938h1.135v7.492h-0.937l-0.164-1.005h-0.062c-0.232,0.369-0.555,0.651-0.968,0.848
		c-0.412,0.196-0.883,0.294-1.411,0.294c-0.911,0-1.594-0.217-2.048-0.649c-0.453-0.433-0.68-1.126-0.68-2.078v-4.901H282.126z"/>
	<path d="M293.42,89.142c0.333,0,0.631,0.027,0.896,0.082l-0.157,1.053c-0.31-0.068-0.583-0.103-0.82-0.103
		c-0.606,0-1.125,0.246-1.555,0.738c-0.432,0.492-0.646,1.105-0.646,1.839v4.02h-1.135v-7.492h0.937l0.13,1.388h0.055
		c0.278-0.487,0.613-0.863,1.005-1.128S292.95,89.142,293.42,89.142z"/>
	<path d="M299.958,87.248c0-0.26,0.063-0.45,0.191-0.571c0.128-0.12,0.287-0.181,0.479-0.181c0.183,0,0.34,0.062,0.472,0.185
		s0.198,0.312,0.198,0.567s-0.066,0.445-0.198,0.571c-0.132,0.125-0.289,0.188-0.472,0.188c-0.191,0-0.351-0.062-0.479-0.188
		C300.021,87.693,299.958,87.503,299.958,87.248z M301.188,96.771h-1.135v-7.492h1.135V96.771z"/>
	<path d="M309.072,96.771v-4.847c0-0.61-0.139-1.066-0.417-1.367s-0.713-0.451-1.306-0.451c-0.784,0-1.358,0.212-1.723,0.636
		s-0.547,1.123-0.547,2.099v3.931h-1.135v-7.492h0.923l0.185,1.025h0.055c0.232-0.369,0.559-0.655,0.978-0.857
		c0.419-0.203,0.887-0.305,1.401-0.305c0.902,0,1.581,0.218,2.037,0.652c0.456,0.436,0.684,1.132,0.684,2.089v4.888H309.072z"/>
	<path d="M316.265,90.16h-1.907v6.61h-1.135v-6.61h-1.34v-0.513l1.34-0.41V88.82c0-1.841,0.805-2.762,2.413-2.762
		c0.396,0,0.861,0.08,1.395,0.239l-0.294,0.909c-0.438-0.142-0.812-0.212-1.121-0.212c-0.429,0-0.745,0.143-0.95,0.428
		c-0.205,0.284-0.308,0.741-0.308,1.37v0.485h1.907V90.16z"/>
	<path d="M324.448,93.018c0,1.222-0.308,2.175-0.923,2.86c-0.615,0.687-1.465,1.029-2.55,1.029c-0.67,0-1.265-0.157-1.784-0.472
		s-0.921-0.766-1.203-1.354s-0.424-1.276-0.424-2.064c0-1.222,0.306-2.173,0.916-2.854c0.61-0.681,1.458-1.021,2.543-1.021
		c1.048,0,1.881,0.349,2.499,1.046C324.14,90.885,324.448,91.828,324.448,93.018z M318.74,93.018c0,0.957,0.191,1.687,0.574,2.188
		s0.945,0.752,1.688,0.752s1.307-0.249,1.691-0.749c0.386-0.498,0.578-1.229,0.578-2.19c0-0.952-0.192-1.676-0.578-2.171
		c-0.385-0.494-0.953-0.741-1.705-0.741c-0.743,0-1.304,0.244-1.682,0.731S318.74,92.052,318.74,93.018z"/>
	<path d="M333.194,95.971c0.2,0,0.395-0.015,0.581-0.044c0.187-0.03,0.335-0.061,0.444-0.093v0.868
		c-0.123,0.06-0.305,0.108-0.543,0.146c-0.24,0.039-0.455,0.059-0.646,0.059c-1.449,0-2.174-0.764-2.174-2.29V90.16h-1.073v-0.547
		l1.073-0.472l0.479-1.6h0.656v1.736h2.174v0.882h-2.174v4.409c0,0.451,0.107,0.798,0.321,1.039S332.82,95.971,333.194,95.971z"/>
	<path d="M342.534,93.018c0,1.222-0.308,2.175-0.923,2.86c-0.615,0.687-1.465,1.029-2.55,1.029c-0.67,0-1.265-0.157-1.784-0.472
		s-0.921-0.766-1.203-1.354s-0.424-1.276-0.424-2.064c0-1.222,0.306-2.173,0.916-2.854c0.61-0.681,1.458-1.021,2.543-1.021
		c1.048,0,1.881,0.349,2.499,1.046C342.226,90.885,342.534,91.828,342.534,93.018z M336.826,93.018c0,0.957,0.191,1.687,0.574,2.188
		s0.945,0.752,1.688,0.752s1.307-0.249,1.691-0.749c0.386-0.498,0.578-1.229,0.578-2.19c0-0.952-0.192-1.676-0.578-2.171
		c-0.385-0.494-0.953-0.741-1.705-0.741c-0.743,0-1.304,0.244-1.682,0.731S336.826,92.052,336.826,93.018z"/>
	<path d="M349.973,95.766h-0.062c-0.524,0.761-1.308,1.142-2.352,1.142c-0.979,0-1.742-0.335-2.286-1.005
		c-0.545-0.67-0.817-1.622-0.817-2.857s0.273-2.194,0.82-2.878s1.308-1.025,2.283-1.025c1.017,0,1.796,0.369,2.338,1.107h0.089
		l-0.048-0.54l-0.027-0.526v-3.049h1.135v10.637h-0.923L349.973,95.766z M347.703,95.957c0.774,0,1.336-0.211,1.686-0.632
		c0.348-0.422,0.522-1.103,0.522-2.041v-0.239c0-1.062-0.177-1.819-0.53-2.272c-0.353-0.454-0.917-0.681-1.691-0.681
		c-0.665,0-1.175,0.259-1.527,0.776c-0.354,0.517-0.53,1.247-0.53,2.19c0,0.957,0.176,1.68,0.526,2.167
		S347.024,95.957,347.703,95.957z"/>
	<path d="M358.409,96.771l-0.226-1.066h-0.055c-0.374,0.47-0.746,0.787-1.118,0.953c-0.371,0.167-0.835,0.25-1.391,0.25
		c-0.743,0-1.325-0.191-1.746-0.574c-0.422-0.383-0.633-0.928-0.633-1.634c0-1.513,1.21-2.306,3.63-2.379l1.271-0.041v-0.465
		c0-0.588-0.126-1.022-0.38-1.302c-0.252-0.281-0.657-0.421-1.213-0.421c-0.624,0-1.331,0.191-2.119,0.574l-0.349-0.868
		c0.369-0.2,0.773-0.357,1.214-0.472c0.439-0.114,0.88-0.171,1.322-0.171c0.894,0,1.555,0.198,1.986,0.595
		c0.43,0.396,0.646,1.032,0.646,1.907v5.113H358.409z M355.846,95.971c0.706,0,1.261-0.193,1.665-0.581
		c0.402-0.388,0.604-0.93,0.604-1.627v-0.677l-1.135,0.048c-0.902,0.032-1.553,0.172-1.952,0.42
		c-0.398,0.249-0.598,0.635-0.598,1.159c0,0.41,0.124,0.723,0.373,0.937C355.052,95.863,355.399,95.971,355.846,95.971z"/>
	<path d="M360.749,89.278h1.217l1.641,4.272c0.36,0.976,0.583,1.68,0.67,2.112h0.055c0.06-0.232,0.184-0.63,0.373-1.193
		c0.188-0.562,0.808-2.293,1.855-5.191h1.217l-3.22,8.531c-0.319,0.843-0.691,1.441-1.118,1.795
		c-0.426,0.353-0.948,0.529-1.568,0.529c-0.347,0-0.688-0.039-1.025-0.116v-0.909c0.251,0.055,0.531,0.082,0.841,0.082
		c0.779,0,1.335-0.438,1.668-1.312l0.417-1.066L360.749,89.278z"/>
	<path d="M369.179,96.046c0-0.62,0.273-0.93,0.82-0.93c0.265,0,0.469,0.08,0.611,0.239c0.145,0.159,0.216,0.39,0.216,0.69
		c0,0.292-0.073,0.519-0.219,0.68c-0.146,0.162-0.349,0.243-0.608,0.243c-0.237,0-0.433-0.071-0.588-0.216
		C369.256,96.61,369.179,96.374,369.179,96.046z M370.368,94.016h-0.718l-0.349-7.239h1.415L370.368,94.016z"/>
</g>
<g>
	<path d="M16.837,18.363h-0.984L12.091,5.145c-0.312-1.086-0.547-1.977-0.703-2.672c-0.125,0.68-0.303,1.461-0.533,2.344
		s-1.49,5.398-3.779,13.547H6.067L1.356,1.23H2.61l3,11.039c0.117,0.445,0.227,0.857,0.328,1.236s0.193,0.734,0.275,1.066
		s0.156,0.652,0.223,0.961s0.127,0.619,0.182,0.932c0.188-1.062,0.586-2.676,1.195-4.84l2.93-10.395h1.324l3.434,11.93
		c0.398,1.375,0.684,2.484,0.855,3.328c0.102-0.562,0.232-1.16,0.393-1.793s1.365-5.121,3.615-13.465h1.207L16.837,18.363z"/>
	<path d="M30.646,18.598c-1.852,0-3.295-0.57-4.33-1.711s-1.553-2.738-1.553-4.793c0-2.031,0.5-3.658,1.5-4.881
		s2.348-1.834,4.043-1.834c1.5,0,2.684,0.523,3.551,1.57s1.301,2.469,1.301,4.266v0.938h-9.176c0.016,1.75,0.424,3.086,1.225,4.008
		s1.947,1.383,3.439,1.383c0.727,0,1.365-0.051,1.916-0.152s1.248-0.32,2.092-0.656v1.055c-0.719,0.312-1.383,0.525-1.992,0.639
		S31.381,18.598,30.646,18.598z M30.307,6.41c-1.227,0-2.211,0.404-2.953,1.213s-1.176,1.975-1.301,3.498h7.875
		c0-1.477-0.32-2.631-0.961-3.463S31.439,6.41,30.307,6.41z"/>
	<path d="M50.671,17.566c0.734,0,1.375-0.062,1.922-0.188v0.938c-0.562,0.188-1.211,0.281-1.945,0.281
		c-1.125,0-1.955-0.301-2.49-0.902s-0.803-1.547-0.803-2.836V6.633h-1.887v-0.68l1.887-0.527l0.586-2.883h0.598v3.082h3.738v1.008
		h-3.738v8.062c0,0.977,0.172,1.699,0.516,2.168S49.937,17.566,50.671,17.566z"/>
	<path d="M64.281,18.363l-0.293-2.016h-0.094c-0.641,0.82-1.299,1.4-1.975,1.74s-1.475,0.51-2.396,0.51
		c-1.25,0-2.223-0.32-2.918-0.961s-1.043-1.527-1.043-2.66c0-1.242,0.518-2.207,1.553-2.895s2.533-1.051,4.494-1.09l2.426-0.07
		v-0.844c0-1.211-0.246-2.125-0.738-2.742S62.012,6.41,60.918,6.41c-1.18,0-2.402,0.328-3.668,0.984l-0.434-1.008
		c1.398-0.656,2.781-0.984,4.148-0.984c1.398,0,2.443,0.363,3.135,1.09s1.037,1.859,1.037,3.398v8.473H64.281z M59.594,17.543
		c1.359,0,2.432-0.389,3.217-1.166s1.178-1.857,1.178-3.24v-1.254l-2.227,0.094c-1.789,0.086-3.064,0.365-3.826,0.838
		s-1.143,1.209-1.143,2.209c0,0.797,0.244,1.416,0.732,1.857S58.703,17.543,59.594,17.543z"/>
	<path d="M71.599,12.773l6.504-7.148h1.406l-5.016,5.438l5.449,7.301h-1.395l-4.84-6.434l-2.086,1.898v4.535h-1.16V0.129h1.16V9.27
		l-0.082,3.504H71.599z"/>
	<path d="M88.42,18.598c-1.852,0-3.295-0.57-4.33-1.711s-1.553-2.738-1.553-4.793c0-2.031,0.5-3.658,1.5-4.881
		s2.348-1.834,4.043-1.834c1.5,0,2.684,0.523,3.551,1.57s1.301,2.469,1.301,4.266v0.938h-9.176c0.016,1.75,0.424,3.086,1.225,4.008
		s1.947,1.383,3.439,1.383c0.727,0,1.365-0.051,1.916-0.152s1.248-0.32,2.092-0.656v1.055c-0.719,0.312-1.383,0.525-1.992,0.639
		S89.154,18.598,88.42,18.598z M88.08,6.41c-1.227,0-2.211,0.404-2.953,1.213s-1.176,1.975-1.301,3.498h7.875
		c0-1.477-0.32-2.631-0.961-3.463S89.213,6.41,88.08,6.41z"/>
	<path d="M112.979,15.047c0,1.141-0.434,2.018-1.301,2.631s-2.098,0.92-3.691,0.92c-1.703,0-3.055-0.262-4.055-0.785v-1.254
		c1.281,0.641,2.633,0.961,4.055,0.961c1.258,0,2.213-0.209,2.865-0.627s0.979-0.975,0.979-1.67c0-0.641-0.26-1.18-0.779-1.617
		s-1.373-0.867-2.561-1.289c-1.273-0.461-2.168-0.857-2.684-1.189s-0.904-0.707-1.166-1.125s-0.393-0.928-0.393-1.529
		c0-0.953,0.4-1.707,1.201-2.262s1.92-0.832,3.357-0.832c1.375,0,2.68,0.258,3.914,0.773l-0.434,1.055
		c-1.25-0.516-2.41-0.773-3.48-0.773c-1.039,0-1.863,0.172-2.473,0.516s-0.914,0.82-0.914,1.43c0,0.664,0.236,1.195,0.709,1.594
		s1.396,0.844,2.771,1.336c1.148,0.414,1.984,0.787,2.508,1.119s0.916,0.709,1.178,1.131S112.979,14.477,112.979,15.047z"/>
	<path d="M122.91,18.598c-1.961,0-3.391-0.734-4.289-2.203h-0.082l0.035,0.984c0.031,0.578,0.047,1.211,0.047,1.898v4.852h-1.16
		V5.625h0.984l0.223,1.816h0.07c0.875-1.375,2.273-2.062,4.195-2.062c1.719,0,3.029,0.564,3.932,1.693s1.354,2.771,1.354,4.928
		c0,2.094-0.475,3.717-1.424,4.869S124.551,18.598,122.91,18.598z M122.887,17.566c1.305,0,2.314-0.484,3.029-1.453
		s1.072-2.324,1.072-4.066c0-3.742-1.352-5.613-4.055-5.613c-1.484,0-2.574,0.408-3.27,1.225s-1.043,2.146-1.043,3.99v0.375
		c0,1.992,0.334,3.414,1.002,4.266S121.379,17.566,122.887,17.566z"/>
	<path d="M138.091,18.598c-1.852,0-3.295-0.57-4.33-1.711s-1.553-2.738-1.553-4.793c0-2.031,0.5-3.658,1.5-4.881
		s2.348-1.834,4.043-1.834c1.5,0,2.684,0.523,3.551,1.57s1.301,2.469,1.301,4.266v0.938h-9.176c0.016,1.75,0.424,3.086,1.225,4.008
		s1.947,1.383,3.439,1.383c0.727,0,1.365-0.051,1.916-0.152s1.248-0.32,2.092-0.656v1.055c-0.719,0.312-1.383,0.525-1.992,0.639
		S138.825,18.598,138.091,18.598z M137.751,6.41c-1.227,0-2.211,0.404-2.953,1.213s-1.176,1.975-1.301,3.498h7.875
		c0-1.477-0.32-2.631-0.961-3.463S138.884,6.41,137.751,6.41z"/>
	<path d="M152.404,18.598c-1.82,0-3.246-0.574-4.277-1.723s-1.547-2.75-1.547-4.805c0-2.109,0.535-3.752,1.605-4.928
		s2.535-1.764,4.395-1.764c1.102,0,2.156,0.191,3.164,0.574l-0.316,1.031c-1.102-0.367-2.059-0.551-2.871-0.551
		c-1.562,0-2.746,0.482-3.551,1.447s-1.207,2.354-1.207,4.166c0,1.719,0.402,3.064,1.207,4.037s1.93,1.459,3.375,1.459
		c1.156,0,2.23-0.207,3.223-0.621V18C154.791,18.398,153.725,18.598,152.404,18.598z"/>
	<path d="M159.757,2.086c0-0.75,0.246-1.125,0.738-1.125c0.242,0,0.432,0.098,0.568,0.293s0.205,0.473,0.205,0.832
		c0,0.352-0.068,0.629-0.205,0.832s-0.326,0.305-0.568,0.305C160.003,3.223,159.757,2.844,159.757,2.086z M161.081,18.363h-1.16
		V5.625h1.16V18.363z"/>
	<path d="M174.28,18.363l-0.293-2.016h-0.094c-0.641,0.82-1.299,1.4-1.975,1.74s-1.475,0.51-2.396,0.51
		c-1.25,0-2.223-0.32-2.918-0.961s-1.043-1.527-1.043-2.66c0-1.242,0.518-2.207,1.553-2.895s2.533-1.051,4.494-1.09l2.426-0.07
		v-0.844c0-1.211-0.246-2.125-0.738-2.742s-1.285-0.926-2.379-0.926c-1.18,0-2.402,0.328-3.668,0.984l-0.434-1.008
		c1.398-0.656,2.781-0.984,4.148-0.984c1.398,0,2.443,0.363,3.135,1.09s1.037,1.859,1.037,3.398v8.473H174.28z M169.593,17.543
		c1.359,0,2.432-0.389,3.217-1.166s1.178-1.857,1.178-3.24v-1.254l-2.227,0.094c-1.789,0.086-3.064,0.365-3.826,0.838
		s-1.143,1.209-1.143,2.209c0,0.797,0.244,1.416,0.732,1.857S168.702,17.543,169.593,17.543z"/>
	<path d="M181.621,18.363h-1.16V0.129h1.16V18.363z"/>
	<path d="M199.607,18.598c-1.82,0-3.246-0.574-4.277-1.723s-1.547-2.75-1.547-4.805c0-2.109,0.535-3.752,1.605-4.928
		s2.535-1.764,4.395-1.764c1.102,0,2.156,0.191,3.164,0.574l-0.316,1.031c-1.102-0.367-2.059-0.551-2.871-0.551
		c-1.562,0-2.746,0.482-3.551,1.447s-1.207,2.354-1.207,4.166c0,1.719,0.402,3.064,1.207,4.037s1.93,1.459,3.375,1.459
		c1.156,0,2.23-0.207,3.223-0.621V18C201.994,18.398,200.928,18.598,199.607,18.598z"/>
	<path d="M214.858,18.363l-0.293-2.016h-0.094c-0.641,0.82-1.299,1.4-1.975,1.74s-1.475,0.51-2.396,0.51
		c-1.25,0-2.223-0.32-2.918-0.961s-1.043-1.527-1.043-2.66c0-1.242,0.518-2.207,1.553-2.895s2.533-1.051,4.494-1.09l2.426-0.07
		v-0.844c0-1.211-0.246-2.125-0.738-2.742s-1.285-0.926-2.379-0.926c-1.18,0-2.402,0.328-3.668,0.984l-0.434-1.008
		c1.398-0.656,2.781-0.984,4.148-0.984c1.398,0,2.443,0.363,3.135,1.09s1.037,1.859,1.037,3.398v8.473H214.858z M210.171,17.543
		c1.359,0,2.432-0.389,3.217-1.166s1.178-1.857,1.178-3.24v-1.254l-2.227,0.094c-1.789,0.086-3.064,0.365-3.826,0.838
		s-1.143,1.209-1.143,2.209c0,0.797,0.244,1.416,0.732,1.857S209.28,17.543,210.171,17.543z"/>
	<path d="M226.054,5.379c0.539,0,1.117,0.055,1.734,0.164l-0.223,1.113c-0.531-0.133-1.082-0.199-1.652-0.199
		c-1.086,0-1.977,0.461-2.672,1.383s-1.043,2.086-1.043,3.492v7.031h-1.16V5.625h0.984l0.117,2.297h0.082
		c0.523-0.938,1.082-1.596,1.676-1.975S225.21,5.379,226.054,5.379z"/>
	<path d="M236.723,18.598c-1.852,0-3.295-0.57-4.33-1.711s-1.553-2.738-1.553-4.793c0-2.031,0.5-3.658,1.5-4.881
		s2.348-1.834,4.043-1.834c1.5,0,2.684,0.523,3.551,1.57s1.301,2.469,1.301,4.266v0.938h-9.176c0.016,1.75,0.424,3.086,1.225,4.008
		s1.947,1.383,3.439,1.383c0.727,0,1.365-0.051,1.916-0.152s1.248-0.32,2.092-0.656v1.055c-0.719,0.312-1.383,0.525-1.992,0.639
		S237.457,18.598,236.723,18.598z M236.383,6.41c-1.227,0-2.211,0.404-2.953,1.213s-1.176,1.975-1.301,3.498h7.875
		c0-1.477-0.32-2.631-0.961-3.463S237.516,6.41,236.383,6.41z"/>
	<path d="M263.92,11.977c0,2.078-0.504,3.701-1.512,4.869s-2.398,1.752-4.172,1.752c-1.117,0-2.102-0.27-2.953-0.809
		s-1.504-1.312-1.957-2.32s-0.68-2.172-0.68-3.492c0-2.078,0.504-3.697,1.512-4.857s2.391-1.74,4.148-1.74
		c1.75,0,3.123,0.588,4.119,1.764S263.92,9.93,263.92,11.977z M253.865,11.977c0,1.75,0.385,3.115,1.154,4.096
		s1.857,1.471,3.264,1.471s2.494-0.49,3.264-1.471s1.154-2.346,1.154-4.096c0-1.758-0.389-3.121-1.166-4.09
		s-1.869-1.453-3.275-1.453s-2.49,0.482-3.252,1.447S253.865,10.211,253.865,11.977z"/>
	<path d="M273.382,6.633h-3v11.73h-1.16V6.633h-2.367v-0.68l2.367-0.434V4.535c0-1.562,0.287-2.709,0.861-3.439S271.597,0,272.901,0
		c0.703,0,1.406,0.105,2.109,0.316l-0.27,1.008c-0.625-0.195-1.246-0.293-1.863-0.293c-0.906,0-1.549,0.268-1.928,0.803
		s-0.568,1.404-0.568,2.607v1.184h3V6.633z"/>
	<path d="M292.211,18.363l-0.293-2.016h-0.094c-0.641,0.82-1.299,1.4-1.975,1.74s-1.475,0.51-2.396,0.51
		c-1.25,0-2.223-0.32-2.918-0.961s-1.043-1.527-1.043-2.66c0-1.242,0.518-2.207,1.553-2.895s2.533-1.051,4.494-1.09l2.426-0.07
		v-0.844c0-1.211-0.246-2.125-0.738-2.742s-1.285-0.926-2.379-0.926c-1.18,0-2.402,0.328-3.668,0.984l-0.434-1.008
		c1.398-0.656,2.781-0.984,4.148-0.984c1.398,0,2.443,0.363,3.135,1.09s1.037,1.859,1.037,3.398v8.473H292.211z M287.523,17.543
		c1.359,0,2.432-0.389,3.217-1.166s1.178-1.857,1.178-3.24v-1.254l-2.227,0.094c-1.789,0.086-3.064,0.365-3.826,0.838
		s-1.143,1.209-1.143,2.209c0,0.797,0.244,1.416,0.732,1.857S286.633,17.543,287.523,17.543z"/>
	<path d="M299.552,18.363h-1.16V0.129h1.16V18.363z"/>
	<path d="M306.178,18.363h-1.16V0.129h1.16V18.363z"/>
	<path d="M329.612,11.977c0,2.078-0.504,3.701-1.512,4.869s-2.398,1.752-4.172,1.752c-1.117,0-2.102-0.27-2.953-0.809
		s-1.504-1.312-1.957-2.32s-0.68-2.172-0.68-3.492c0-2.078,0.504-3.697,1.512-4.857s2.391-1.74,4.148-1.74
		c1.75,0,3.123,0.588,4.119,1.764S329.612,9.93,329.612,11.977z M319.558,11.977c0,1.75,0.385,3.115,1.154,4.096
		s1.857,1.471,3.264,1.471s2.494-0.49,3.264-1.471s1.154-2.346,1.154-4.096c0-1.758-0.389-3.121-1.166-4.09
		s-1.869-1.453-3.275-1.453s-2.49,0.482-3.252,1.447S319.558,10.211,319.558,11.977z"/>
	<path d="M335.348,5.625v8.25c0,1.281,0.27,2.213,0.809,2.795s1.375,0.873,2.508,0.873c1.516,0,2.631-0.383,3.346-1.148
		s1.072-2.012,1.072-3.738V5.625h1.148v12.738h-0.984l-0.211-1.758h-0.07c-0.828,1.328-2.301,1.992-4.418,1.992
		c-2.898,0-4.348-1.551-4.348-4.652v-8.32H335.348z"/>
	<path d="M354.712,5.379c0.539,0,1.117,0.055,1.734,0.164l-0.223,1.113c-0.531-0.133-1.082-0.199-1.652-0.199
		c-1.086,0-1.977,0.461-2.672,1.383s-1.043,2.086-1.043,3.492v7.031h-1.16V5.625h0.984l0.117,2.297h0.082
		c0.523-0.938,1.082-1.596,1.676-1.975S353.868,5.379,354.712,5.379z"/>
	<path d="M372.815,18.598c-1.852,0-3.295-0.57-4.33-1.711s-1.553-2.738-1.553-4.793c0-2.031,0.5-3.658,1.5-4.881
		s2.348-1.834,4.043-1.834c1.5,0,2.684,0.523,3.551,1.57s1.301,2.469,1.301,4.266v0.938h-9.176c0.016,1.75,0.424,3.086,1.225,4.008
		s1.947,1.383,3.439,1.383c0.727,0,1.365-0.051,1.916-0.152s1.248-0.32,2.092-0.656v1.055c-0.719,0.312-1.383,0.525-1.992,0.639
		S373.55,18.598,372.815,18.598z M372.476,6.41c-1.227,0-2.211,0.404-2.953,1.213s-1.176,1.975-1.301,3.498h7.875
		c0-1.477-0.32-2.631-0.961-3.463S373.608,6.41,372.476,6.41z"/>
	<path d="M397.956,18.363v-8.355c0-1.242-0.242-2.148-0.727-2.719s-1.227-0.855-2.227-0.855c-1.305,0-2.27,0.359-2.895,1.078
		s-0.938,1.848-0.938,3.387v7.465h-1.184V9.656c0-2.148-0.984-3.223-2.953-3.223c-1.336,0-2.309,0.389-2.918,1.166
		s-0.914,2.021-0.914,3.732v7.031h-1.16V5.625h0.961l0.246,1.746h0.07c0.352-0.633,0.852-1.123,1.5-1.471s1.363-0.521,2.145-0.521
		c2.008,0,3.297,0.754,3.867,2.262h0.047c0.414-0.727,0.971-1.285,1.67-1.676s1.494-0.586,2.385-0.586
		c1.391,0,2.434,0.371,3.129,1.113s1.043,1.922,1.043,3.539v8.332H397.956z"/>
	<path d="M409.879,18.598c-1.961,0-3.391-0.734-4.289-2.203h-0.082l0.035,0.984c0.031,0.578,0.047,1.211,0.047,1.898v4.852h-1.16
		V5.625h0.984l0.223,1.816h0.07c0.875-1.375,2.273-2.062,4.195-2.062c1.719,0,3.029,0.564,3.932,1.693s1.354,2.771,1.354,4.928
		c0,2.094-0.475,3.717-1.424,4.869S411.52,18.598,409.879,18.598z M409.855,17.566c1.305,0,2.314-0.484,3.029-1.453
		s1.072-2.324,1.072-4.066c0-3.742-1.352-5.613-4.055-5.613c-1.484,0-2.574,0.408-3.27,1.225s-1.043,2.146-1.043,3.99v0.375
		c0,1.992,0.334,3.414,1.002,4.266S408.348,17.566,409.855,17.566z"/>
	<path d="M421.075,18.363h-1.16V0.129h1.16V18.363z"/>
	<path d="M437.076,11.977c0,2.078-0.504,3.701-1.512,4.869s-2.398,1.752-4.172,1.752c-1.117,0-2.102-0.27-2.953-0.809
		s-1.504-1.312-1.957-2.32s-0.68-2.172-0.68-3.492c0-2.078,0.504-3.697,1.512-4.857s2.391-1.74,4.148-1.74
		c1.75,0,3.123,0.588,4.119,1.764S437.076,9.93,437.076,11.977z M427.021,11.977c0,1.75,0.385,3.115,1.154,4.096
		s1.857,1.471,3.264,1.471s2.494-0.49,3.264-1.471s1.154-2.346,1.154-4.096c0-1.758-0.389-3.121-1.166-4.09
		s-1.869-1.453-3.275-1.453s-2.49,0.482-3.252,1.447S427.021,10.211,427.021,11.977z"/>
	<path d="M439.671,5.625h1.195l2.695,7.148c0.82,2.195,1.34,3.676,1.559,4.441h0.07c0.328-1.008,0.863-2.512,1.605-4.512
		l2.695-7.078h1.195l-5.707,14.801c-0.461,1.203-0.848,2.016-1.16,2.438s-0.678,0.738-1.096,0.949s-0.924,0.316-1.518,0.316
		c-0.445,0-0.941-0.082-1.488-0.246v-1.008c0.453,0.125,0.941,0.188,1.465,0.188c0.398,0,0.75-0.094,1.055-0.281
		s0.58-0.479,0.826-0.873s0.531-1.02,0.855-1.875s0.533-1.412,0.627-1.67L439.671,5.625z"/>
	<path d="M459.163,18.598c-1.852,0-3.295-0.57-4.33-1.711s-1.553-2.738-1.553-4.793c0-2.031,0.5-3.658,1.5-4.881
		s2.348-1.834,4.043-1.834c1.5,0,2.684,0.523,3.551,1.57s1.301,2.469,1.301,4.266v0.938h-9.176c0.016,1.75,0.424,3.086,1.225,4.008
		s1.947,1.383,3.439,1.383c0.727,0,1.365-0.051,1.916-0.152s1.248-0.32,2.092-0.656v1.055c-0.719,0.312-1.383,0.525-1.992,0.639
		S459.897,18.598,459.163,18.598z M458.823,6.41c-1.227,0-2.211,0.404-2.953,1.213s-1.176,1.975-1.301,3.498h7.875
		c0-1.477-0.32-2.631-0.961-3.463S459.956,6.41,458.823,6.41z"/>
	<path d="M473.535,18.598c-1.852,0-3.295-0.57-4.33-1.711s-1.553-2.738-1.553-4.793c0-2.031,0.5-3.658,1.5-4.881
		s2.348-1.834,4.043-1.834c1.5,0,2.684,0.523,3.551,1.57s1.301,2.469,1.301,4.266v0.938h-9.176c0.016,1.75,0.424,3.086,1.225,4.008
		s1.947,1.383,3.439,1.383c0.727,0,1.365-0.051,1.916-0.152s1.248-0.32,2.092-0.656v1.055c-0.719,0.312-1.383,0.525-1.992,0.639
		S474.27,18.598,473.535,18.598z M473.195,6.41c-1.227,0-2.211,0.404-2.953,1.213s-1.176,1.975-1.301,3.498h7.875
		c0-1.477-0.32-2.631-0.961-3.463S474.328,6.41,473.195,6.41z"/>
	<path d="M490.661,15.047c0,1.141-0.434,2.018-1.301,2.631s-2.098,0.92-3.691,0.92c-1.703,0-3.055-0.262-4.055-0.785v-1.254
		c1.281,0.641,2.633,0.961,4.055,0.961c1.258,0,2.213-0.209,2.865-0.627s0.979-0.975,0.979-1.67c0-0.641-0.26-1.18-0.779-1.617
		s-1.373-0.867-2.561-1.289c-1.273-0.461-2.168-0.857-2.684-1.189s-0.904-0.707-1.166-1.125s-0.393-0.928-0.393-1.529
		c0-0.953,0.4-1.707,1.201-2.262s1.92-0.832,3.357-0.832c1.375,0,2.68,0.258,3.914,0.773l-0.434,1.055
		c-1.25-0.516-2.41-0.773-3.48-0.773c-1.039,0-1.863,0.172-2.473,0.516s-0.914,0.82-0.914,1.43c0,0.664,0.236,1.195,0.709,1.594
		s1.396,0.844,2.771,1.336c1.148,0.414,1.984,0.787,2.508,1.119s0.916,0.709,1.178,1.131S490.661,14.477,490.661,15.047z"/>
	<path d="M494.932,17.449c0-0.766,0.312-1.148,0.938-1.148c0.641,0,0.961,0.383,0.961,1.148s-0.32,1.148-0.961,1.148
		C495.244,18.598,494.932,18.215,494.932,17.449z M496.244,13.945h-0.715l-0.34-12.715h1.395L496.244,13.945z"/>
</g>
</svg>