<!-- Generator: Adobe Illustrator 21.0.0, SVG Export Plug-In  -->
<svg version="1.1"
	 xmlns="http://www.w3.org/2000/svg" xmlns:xlink="http://www.w3.org/1999/xlink" xmlns:a="http://ns.adobe.com/AdobeSVGViewerExtensions/3.0/"
	 x="0px" y="0px" width="471.265px" height="158.032px" viewBox="0 0 471.265 158.032"
	 style="enable-background:new 0 0 471.265 158.032;" xml:space="preserve">
<style type="text/css">
	.st0{fill:#B9C83E;}
	.st1{fill:#FFFFFF;}
	.st2{fill:none;stroke:#666666;stroke-width:0.75;stroke-miterlimit:10;}
</style>
<defs>
</defs>
<g>
	<path d="M16.535,47.677c0,2.719-0.68,4.869-2.039,6.451s-3.234,2.373-5.625,2.373c-2.383,0-4.254-0.791-5.613-2.373
		s-2.039-3.74-2.039-6.475c0-2.727,0.686-4.873,2.057-6.439s3.244-2.35,5.619-2.35c2.391,0,4.262,0.787,5.613,2.361
		S16.535,44.95,16.535,47.677z M2.52,47.677c0,2.453,0.547,4.35,1.641,5.689s2.664,2.01,4.711,2.01c2.062,0,3.639-0.664,4.729-1.992
		s1.635-3.23,1.635-5.707c0-2.469-0.545-4.361-1.635-5.678s-2.658-1.975-4.705-1.975c-2.039,0-3.611,0.664-4.717,1.992
		S2.52,45.231,2.52,47.677z"/>
	<path d="M22.388,43.528v8.25c0,1.281,0.27,2.213,0.809,2.795s1.375,0.873,2.508,0.873c1.516,0,2.631-0.383,3.346-1.148
		s1.072-2.012,1.072-3.738v-7.031h1.148v12.738h-0.984l-0.211-1.758h-0.07c-0.828,1.328-2.301,1.992-4.418,1.992
		c-2.898,0-4.348-1.551-4.348-4.652v-8.32H22.388z"/>
	<path d="M41.752,43.282c0.539,0,1.117,0.055,1.734,0.164l-0.223,1.113c-0.531-0.133-1.082-0.199-1.652-0.199
		c-1.086,0-1.977,0.461-2.672,1.383s-1.043,2.086-1.043,3.492v7.031h-1.16V43.528h0.984l0.117,2.297h0.082
		c0.523-0.938,1.082-1.596,1.676-1.975S40.908,43.282,41.752,43.282z"/>
	<path d="M62.315,39.966c-2.148,0-3.84,0.688-5.074,2.062s-1.852,3.258-1.852,5.648c0,2.445,0.582,4.344,1.746,5.695
		s2.828,2.027,4.992,2.027c1.438,0,2.758-0.184,3.961-0.551v1.055c-1.133,0.398-2.547,0.598-4.242,0.598
		c-2.406,0-4.301-0.777-5.684-2.332s-2.074-3.727-2.074-6.516c0-1.742,0.33-3.277,0.99-4.605s1.609-2.354,2.848-3.076
		s2.678-1.084,4.318-1.084c1.672,0,3.168,0.312,4.488,0.938l-0.48,1.078C65.003,40.278,63.69,39.966,62.315,39.966z"/>
	<path d="M81.352,49.88c0,2.078-0.504,3.701-1.512,4.869s-2.398,1.752-4.172,1.752c-1.117,0-2.102-0.27-2.953-0.809
		s-1.504-1.312-1.957-2.32s-0.68-2.172-0.68-3.492c0-2.078,0.504-3.697,1.512-4.857s2.391-1.74,4.148-1.74
		c1.75,0,3.123,0.588,4.119,1.764S81.352,47.833,81.352,49.88z M71.297,49.88c0,1.75,0.385,3.115,1.154,4.096
		s1.857,1.471,3.264,1.471s2.494-0.49,3.264-1.471s1.154-2.346,1.154-4.096c0-1.758-0.389-3.121-1.166-4.09
		s-1.869-1.453-3.275-1.453s-2.49,0.482-3.252,1.447S71.297,48.114,71.297,49.88z"/>
	<path d="M90.614,56.501c-1.672,0-2.969-0.555-3.891-1.664s-1.383-2.711-1.383-4.805c0-2.148,0.461-3.811,1.383-4.986
		s2.242-1.764,3.961-1.764c1.844,0,3.223,0.68,4.137,2.039h0.07l0.211-1.793h0.984v18.504h-1.148v-4.852
		c0-0.953,0.023-1.922,0.07-2.906h-0.07C94.017,55.759,92.575,56.501,90.614,56.501z M90.638,55.47c1.547,0,2.65-0.426,3.311-1.277
		s0.99-2.281,0.99-4.289v-0.141c0-1.914-0.332-3.297-0.996-4.148s-1.723-1.277-3.176-1.277c-1.375,0-2.42,0.484-3.135,1.453
		s-1.072,2.391-1.072,4.266c0,1.789,0.35,3.139,1.049,4.049S89.317,55.47,90.638,55.47z"/>
	<path d="M102.572,43.528v8.25c0,1.281,0.27,2.213,0.809,2.795s1.375,0.873,2.508,0.873c1.516,0,2.631-0.383,3.346-1.148
		s1.072-2.012,1.072-3.738v-7.031h1.148v12.738h-0.984l-0.211-1.758h-0.07c-0.828,1.328-2.301,1.992-4.418,1.992
		c-2.898,0-4.348-1.551-4.348-4.652v-8.32H102.572z"/>
	<path d="M116.756,39.989c0-0.75,0.246-1.125,0.738-1.125c0.242,0,0.432,0.098,0.568,0.293s0.205,0.473,0.205,0.832
		c0,0.352-0.068,0.629-0.205,0.832s-0.326,0.305-0.568,0.305C117.002,41.126,116.756,40.747,116.756,39.989z M118.08,56.267h-1.16
		V43.528h1.16V56.267z"/>
	<path d="M126.909,55.47c0.734,0,1.375-0.062,1.922-0.188v0.938c-0.562,0.188-1.211,0.281-1.945,0.281
		c-1.125,0-1.955-0.301-2.49-0.902s-0.803-1.547-0.803-2.836v-8.227h-1.887v-0.68l1.887-0.527l0.586-2.883h0.598v3.082h3.738v1.008
		h-3.738v8.062c0,0.977,0.172,1.699,0.516,2.168S126.175,55.47,126.909,55.47z"/>
	<path d="M133.945,56.267h-1.16V38.032h1.16V56.267z"/>
	<path d="M147.146,56.267l-0.293-2.016h-0.094c-0.641,0.82-1.299,1.4-1.975,1.74s-1.475,0.51-2.396,0.51
		c-1.25,0-2.223-0.32-2.918-0.961s-1.043-1.527-1.043-2.66c0-1.242,0.518-2.207,1.553-2.895s2.533-1.051,4.494-1.09l2.426-0.07
		v-0.844c0-1.211-0.246-2.125-0.738-2.742s-1.285-0.926-2.379-0.926c-1.18,0-2.402,0.328-3.668,0.984l-0.434-1.008
		c1.398-0.656,2.781-0.984,4.148-0.984c1.398,0,2.443,0.363,3.135,1.09s1.037,1.859,1.037,3.398v8.473H147.146z M142.458,55.446
		c1.359,0,2.432-0.389,3.217-1.166s1.178-1.857,1.178-3.24v-1.254l-2.227,0.094c-1.789,0.086-3.064,0.365-3.826,0.838
		s-1.143,1.209-1.143,2.209c0,0.797,0.244,1.416,0.732,1.857S141.567,55.446,142.458,55.446z"/>
	<path d="M169.24,56.267v-8.355c0-1.242-0.242-2.148-0.727-2.719s-1.227-0.855-2.227-0.855c-1.305,0-2.27,0.359-2.895,1.078
		s-0.938,1.848-0.938,3.387v7.465h-1.184v-8.707c0-2.148-0.984-3.223-2.953-3.223c-1.336,0-2.309,0.389-2.918,1.166
		s-0.914,2.021-0.914,3.732v7.031h-1.16V43.528h0.961l0.246,1.746h0.07c0.352-0.633,0.852-1.123,1.5-1.471s1.363-0.521,2.145-0.521
		c2.008,0,3.297,0.754,3.867,2.262h0.047c0.414-0.727,0.971-1.285,1.67-1.676s1.494-0.586,2.385-0.586
		c1.391,0,2.434,0.371,3.129,1.113s1.043,1.922,1.043,3.539v8.332H169.24z"/>
	<path d="M184.308,56.267h-1.16V38.032h1.16V56.267z"/>
	<path d="M200.309,49.88c0,2.078-0.504,3.701-1.512,4.869s-2.398,1.752-4.172,1.752c-1.117,0-2.102-0.27-2.953-0.809
		s-1.504-1.312-1.957-2.32s-0.68-2.172-0.68-3.492c0-2.078,0.504-3.697,1.512-4.857s2.391-1.74,4.148-1.74
		c1.75,0,3.123,0.588,4.119,1.764S200.309,47.833,200.309,49.88z M190.254,49.88c0,1.75,0.385,3.115,1.154,4.096
		s1.857,1.471,3.264,1.471s2.494-0.49,3.264-1.471s1.154-2.346,1.154-4.096c0-1.758-0.389-3.121-1.166-4.09
		s-1.869-1.453-3.275-1.453s-2.49,0.482-3.252,1.447S190.254,48.114,190.254,49.88z"/>
	<path d="M210.122,56.501c-1.82,0-3.246-0.574-4.277-1.723s-1.547-2.75-1.547-4.805c0-2.109,0.535-3.752,1.605-4.928
		s2.535-1.764,4.395-1.764c1.102,0,2.156,0.191,3.164,0.574l-0.316,1.031c-1.102-0.367-2.059-0.551-2.871-0.551
		c-1.562,0-2.746,0.482-3.551,1.447s-1.207,2.354-1.207,4.166c0,1.719,0.402,3.064,1.207,4.037s1.93,1.459,3.375,1.459
		c1.156,0,2.23-0.207,3.223-0.621v1.078C212.509,56.302,211.442,56.501,210.122,56.501z"/>
	<path d="M225.373,56.267l-0.293-2.016h-0.094c-0.641,0.82-1.299,1.4-1.975,1.74s-1.475,0.51-2.396,0.51
		c-1.25,0-2.223-0.32-2.918-0.961s-1.043-1.527-1.043-2.66c0-1.242,0.518-2.207,1.553-2.895s2.533-1.051,4.494-1.09l2.426-0.07
		v-0.844c0-1.211-0.246-2.125-0.738-2.742s-1.285-0.926-2.379-0.926c-1.18,0-2.402,0.328-3.668,0.984l-0.434-1.008
		c1.398-0.656,2.781-0.984,4.148-0.984c1.398,0,2.443,0.363,3.135,1.09s1.037,1.859,1.037,3.398v8.473H225.373z M220.686,55.446
		c1.359,0,2.432-0.389,3.217-1.166s1.178-1.857,1.178-3.24v-1.254l-2.227,0.094c-1.789,0.086-3.064,0.365-3.826,0.838
		s-1.143,1.209-1.143,2.209c0,0.797,0.244,1.416,0.732,1.857S219.795,55.446,220.686,55.446z"/>
	<path d="M234.916,55.47c0.734,0,1.375-0.062,1.922-0.188v0.938c-0.562,0.188-1.211,0.281-1.945,0.281
		c-1.125,0-1.955-0.301-2.49-0.902s-0.803-1.547-0.803-2.836v-8.227h-1.887v-0.68l1.887-0.527l0.586-2.883h0.598v3.082h3.738v1.008
		h-3.738v8.062c0,0.977,0.172,1.699,0.516,2.168S234.182,55.47,234.916,55.47z"/>
	<path d="M240.628,39.989c0-0.75,0.246-1.125,0.738-1.125c0.242,0,0.432,0.098,0.568,0.293s0.205,0.473,0.205,0.832
		c0,0.352-0.068,0.629-0.205,0.832s-0.326,0.305-0.568,0.305C240.874,41.126,240.628,40.747,240.628,39.989z M241.952,56.267h-1.16
		V43.528h1.16V56.267z"/>
	<path d="M257.953,49.88c0,2.078-0.504,3.701-1.512,4.869s-2.398,1.752-4.172,1.752c-1.117,0-2.102-0.27-2.953-0.809
		s-1.504-1.312-1.957-2.32s-0.68-2.172-0.68-3.492c0-2.078,0.504-3.697,1.512-4.857s2.391-1.74,4.148-1.74
		c1.75,0,3.123,0.588,4.119,1.764S257.953,47.833,257.953,49.88z M247.898,49.88c0,1.75,0.385,3.115,1.154,4.096
		s1.857,1.471,3.264,1.471s2.494-0.49,3.264-1.471s1.154-2.346,1.154-4.096c0-1.758-0.389-3.121-1.166-4.09
		s-1.869-1.453-3.275-1.453s-2.49,0.482-3.252,1.447S247.898,48.114,247.898,49.88z"/>
	<path d="M271.563,56.267v-8.262c0-1.281-0.27-2.213-0.809-2.795s-1.375-0.873-2.508-0.873c-1.523,0-2.639,0.385-3.346,1.154
		s-1.061,2.018-1.061,3.744v7.031h-1.16V43.528h0.984l0.223,1.746h0.07c0.828-1.328,2.301-1.992,4.418-1.992
		c2.891,0,4.336,1.551,4.336,4.652v8.332H271.563z"/>
	<path d="M285.307,39.989c0-0.75,0.246-1.125,0.738-1.125c0.242,0,0.432,0.098,0.568,0.293s0.205,0.473,0.205,0.832
		c0,0.352-0.068,0.629-0.205,0.832s-0.326,0.305-0.568,0.305C285.553,41.126,285.307,40.747,285.307,39.989z M286.631,56.267h-1.16
		V43.528h1.16V56.267z"/>
	<path d="M299.995,52.95c0,1.141-0.434,2.018-1.301,2.631s-2.098,0.92-3.691,0.92c-1.703,0-3.055-0.262-4.055-0.785v-1.254
		c1.281,0.641,2.633,0.961,4.055,0.961c1.258,0,2.213-0.209,2.865-0.627s0.979-0.975,0.979-1.67c0-0.641-0.26-1.18-0.779-1.617
		s-1.373-0.867-2.561-1.289c-1.273-0.461-2.168-0.857-2.684-1.189s-0.904-0.707-1.166-1.125s-0.393-0.928-0.393-1.529
		c0-0.953,0.4-1.707,1.201-2.262s1.92-0.832,3.357-0.832c1.375,0,2.68,0.258,3.914,0.773l-0.434,1.055
		c-1.25-0.516-2.41-0.773-3.48-0.773c-1.039,0-1.863,0.172-2.473,0.516s-0.914,0.82-0.914,1.43c0,0.664,0.236,1.195,0.709,1.594
		s1.396,0.844,2.771,1.336c1.148,0.414,1.984,0.787,2.508,1.119s0.916,0.709,1.178,1.131S299.995,52.38,299.995,52.95z"/>
	<path d="M320.794,56.267v-8.262c0-1.281-0.27-2.213-0.809-2.795s-1.375-0.873-2.508-0.873c-1.523,0-2.639,0.385-3.346,1.154
		s-1.061,2.018-1.061,3.744v7.031h-1.16V38.032h1.16v5.801l-0.059,1.629h0.082c0.477-0.766,1.078-1.32,1.805-1.664
		s1.629-0.516,2.707-0.516c2.891,0,4.336,1.551,4.336,4.652v8.332H320.794z"/>
	<path d="M327.104,39.989c0-0.75,0.246-1.125,0.738-1.125c0.242,0,0.432,0.098,0.568,0.293s0.205,0.473,0.205,0.832
		c0,0.352-0.068,0.629-0.205,0.832s-0.326,0.305-0.568,0.305C327.35,41.126,327.104,40.747,327.104,39.989z M328.428,56.267h-1.16
		V43.528h1.16V56.267z"/>
	<path d="M338.908,43.282c0.539,0,1.117,0.055,1.734,0.164l-0.223,1.113c-0.531-0.133-1.082-0.199-1.652-0.199
		c-1.086,0-1.977,0.461-2.672,1.383s-1.043,2.086-1.043,3.492v7.031h-1.16V43.528h0.984l0.117,2.297h0.082
		c0.523-0.938,1.082-1.596,1.676-1.975S338.064,43.282,338.908,43.282z"/>
	<path d="M344.269,39.989c0-0.75,0.246-1.125,0.738-1.125c0.242,0,0.432,0.098,0.568,0.293s0.205,0.473,0.205,0.832
		c0,0.352-0.068,0.629-0.205,0.832s-0.326,0.305-0.568,0.305C344.515,41.126,344.269,40.747,344.269,39.989z M345.593,56.267h-1.16
		V43.528h1.16V56.267z"/>
	<path d="M359.941,56.267v-8.262c0-1.281-0.27-2.213-0.809-2.795s-1.375-0.873-2.508-0.873c-1.523,0-2.639,0.385-3.346,1.154
		s-1.061,2.018-1.061,3.744v7.031h-1.16V43.528h0.984l0.223,1.746h0.07c0.828-1.328,2.301-1.992,4.418-1.992
		c2.891,0,4.336,1.551,4.336,4.652v8.332H359.941z"/>
	<path d="M376.353,43.528v0.809l-2.637,0.164c0.703,0.875,1.055,1.836,1.055,2.883c0,1.227-0.408,2.221-1.225,2.982
		s-1.912,1.143-3.287,1.143c-0.578,0-0.984-0.023-1.219-0.07c-0.461,0.242-0.812,0.527-1.055,0.855s-0.363,0.676-0.363,1.043
		c0,0.406,0.154,0.703,0.463,0.891s0.826,0.281,1.553,0.281h2.227c1.383,0,2.441,0.279,3.176,0.838s1.102,1.385,1.102,2.479
		c0,1.344-0.545,2.381-1.635,3.111s-2.643,1.096-4.658,1.096c-1.602,0-2.842-0.309-3.721-0.926s-1.318-1.477-1.318-2.578
		c0-0.875,0.271-1.602,0.814-2.18s1.279-0.973,2.209-1.184c-0.383-0.164-0.689-0.396-0.92-0.697s-0.346-0.646-0.346-1.037
		c0-0.852,0.543-1.602,1.629-2.25c-0.742-0.305-1.32-0.783-1.734-1.436s-0.621-1.4-0.621-2.244c0-1.273,0.404-2.295,1.213-3.064
		s1.9-1.154,3.275-1.154c0.836,0,1.484,0.082,1.945,0.246H376.353z M366.04,58.423c0,1.75,1.301,2.625,3.902,2.625
		c3.344,0,5.016-1.066,5.016-3.199c0-0.766-0.262-1.32-0.785-1.664s-1.371-0.516-2.543-0.516h-2.086
		C367.208,55.669,366.04,56.587,366.04,58.423z M367.013,47.501c0,0.984,0.299,1.748,0.896,2.291s1.396,0.814,2.396,0.814
		c1.062,0,1.877-0.27,2.443-0.809s0.85-1.32,0.85-2.344c0-1.086-0.291-1.9-0.873-2.443s-1.396-0.814-2.443-0.814
		c-1.016,0-1.814,0.291-2.396,0.873S367.013,46.462,367.013,47.501z"/>
	<path d="M379.955,55.352c0-0.766,0.312-1.148,0.938-1.148c0.641,0,0.961,0.383,0.961,1.148s-0.32,1.148-0.961,1.148
		C380.268,56.501,379.955,56.118,379.955,55.352z M381.268,51.849h-0.715l-0.34-12.715h1.395L381.268,51.849z"/>
	<path d="M1.676,63.989c0-0.75,0.246-1.125,0.738-1.125c0.242,0,0.432,0.098,0.568,0.293s0.205,0.473,0.205,0.832
		c0,0.352-0.068,0.629-0.205,0.832s-0.326,0.305-0.568,0.305C1.922,65.126,1.676,64.747,1.676,63.989z M3,80.267H1.84V67.528H3
		V80.267z"/>
	<path d="M13.2,68.536h-3v11.73H9.04v-11.73H6.673v-0.68l2.367-0.434v-0.984c0-1.562,0.287-2.709,0.861-3.439
		s1.514-1.096,2.818-1.096c0.703,0,1.406,0.105,2.109,0.316l-0.27,1.008c-0.625-0.195-1.246-0.293-1.863-0.293
		c-0.906,0-1.549,0.268-1.928,0.803c-0.379,0.535-0.568,1.404-0.568,2.607v1.184h3V68.536z"/>
	<path d="M22.162,67.528h1.195l2.695,7.148c0.82,2.195,1.34,3.676,1.559,4.441h0.07c0.328-1.008,0.863-2.512,1.605-4.512
		l2.695-7.078h1.195l-5.707,14.801c-0.461,1.203-0.848,2.016-1.16,2.438s-0.678,0.738-1.096,0.949s-0.924,0.316-1.518,0.316
		c-0.445,0-0.941-0.082-1.488-0.246v-1.008c0.453,0.125,0.941,0.188,1.465,0.188c0.398,0,0.75-0.094,1.055-0.281
		s0.58-0.479,0.826-0.873s0.531-1.02,0.855-1.875s0.533-1.412,0.627-1.67L22.162,67.528z"/>
	<path d="M47.046,73.88c0,2.078-0.504,3.701-1.512,4.869s-2.398,1.752-4.172,1.752c-1.117,0-2.102-0.27-2.953-0.809
		s-1.504-1.312-1.957-2.32s-0.68-2.172-0.68-3.492c0-2.078,0.504-3.697,1.512-4.857s2.391-1.74,4.148-1.74
		c1.75,0,3.123,0.588,4.119,1.764S47.046,71.833,47.046,73.88z M36.991,73.88c0,1.75,0.385,3.115,1.154,4.096
		s1.857,1.471,3.264,1.471s2.494-0.49,3.264-1.471s1.154-2.346,1.154-4.096c0-1.758-0.389-3.121-1.166-4.09
		s-1.869-1.453-3.275-1.453s-2.49,0.482-3.252,1.447S36.991,72.114,36.991,73.88z"/>
	<path d="M52.781,67.528v8.25c0,1.281,0.27,2.213,0.809,2.795s1.375,0.873,2.508,0.873c1.516,0,2.631-0.383,3.346-1.148
		s1.072-2.012,1.072-3.738v-7.031h1.148v12.738H60.68l-0.211-1.758h-0.07c-0.828,1.328-2.301,1.992-4.418,1.992
		c-2.898,0-4.348-1.551-4.348-4.652v-8.32H52.781z"/>
	<path d="M84.748,80.267l-2.789-8.52c-0.18-0.578-0.41-1.426-0.691-2.543h-0.07l-0.246,0.867l-0.527,1.699l-2.836,8.496h-1.148
		l-3.645-12.738h1.242l2.039,7.383c0.477,1.828,0.789,3.172,0.938,4.031h0.07c0.461-1.828,0.797-3.043,1.008-3.645l2.625-7.77h1.055
		l2.496,7.746c0.562,1.836,0.906,3.051,1.031,3.645h0.07c0.062-0.508,0.375-1.867,0.938-4.078l1.945-7.312h1.172l-3.457,12.738
		H84.748z"/>
	<path d="M100.854,80.267l-0.293-2.016h-0.094c-0.641,0.82-1.299,1.4-1.975,1.74s-1.475,0.51-2.396,0.51
		c-1.25,0-2.223-0.32-2.918-0.961s-1.043-1.527-1.043-2.66c0-1.242,0.518-2.207,1.553-2.895s2.533-1.051,4.494-1.09l2.426-0.07
		v-0.844c0-1.211-0.246-2.125-0.738-2.742s-1.285-0.926-2.379-0.926c-1.18,0-2.402,0.328-3.668,0.984l-0.434-1.008
		c1.398-0.656,2.781-0.984,4.148-0.984c1.398,0,2.443,0.363,3.135,1.09s1.037,1.859,1.037,3.398v8.473H100.854z M96.166,79.446
		c1.359,0,2.432-0.389,3.217-1.166s1.178-1.857,1.178-3.24v-1.254l-2.227,0.094c-1.789,0.086-3.064,0.365-3.826,0.838
		s-1.143,1.209-1.143,2.209c0,0.797,0.244,1.416,0.732,1.857S95.275,79.446,96.166,79.446z"/>
	<path d="M115.917,80.267v-8.262c0-1.281-0.27-2.213-0.809-2.795s-1.375-0.873-2.508-0.873c-1.523,0-2.639,0.385-3.346,1.154
		s-1.061,2.018-1.061,3.744v7.031h-1.16V67.528h0.984l0.223,1.746h0.07c0.828-1.328,2.301-1.992,4.418-1.992
		c2.891,0,4.336,1.551,4.336,4.652v8.332H115.917z"/>
	<path d="M125.754,79.47c0.734,0,1.375-0.062,1.922-0.188v0.938c-0.562,0.188-1.211,0.281-1.945,0.281
		c-1.125,0-1.955-0.301-2.49-0.902s-0.803-1.547-0.803-2.836v-8.227h-1.887v-0.68l1.887-0.527l0.586-2.883h0.598v3.082h3.738v1.008
		h-3.738v8.062c0,0.977,0.172,1.699,0.516,2.168S125.02,79.47,125.754,79.47z"/>
	<path d="M142.428,79.47c0.734,0,1.375-0.062,1.922-0.188v0.938c-0.562,0.188-1.211,0.281-1.945,0.281
		c-1.125,0-1.955-0.301-2.49-0.902s-0.803-1.547-0.803-2.836v-8.227h-1.887v-0.68l1.887-0.527l0.586-2.883h0.598v3.082h3.738v1.008
		h-3.738v8.062c0,0.977,0.172,1.699,0.516,2.168S141.693,79.47,142.428,79.47z"/>
	<path d="M158.838,73.88c0,2.078-0.504,3.701-1.512,4.869s-2.398,1.752-4.172,1.752c-1.117,0-2.102-0.27-2.953-0.809
		s-1.504-1.312-1.957-2.32s-0.68-2.172-0.68-3.492c0-2.078,0.504-3.697,1.512-4.857s2.391-1.74,4.148-1.74
		c1.75,0,3.123,0.588,4.119,1.764S158.838,71.833,158.838,73.88z M148.783,73.88c0,1.75,0.385,3.115,1.154,4.096
		s1.857,1.471,3.264,1.471s2.494-0.49,3.264-1.471s1.154-2.346,1.154-4.096c0-1.758-0.389-3.121-1.166-4.09
		s-1.869-1.453-3.275-1.453s-2.49,0.482-3.252,1.447S148.783,72.114,148.783,73.88z"/>
	<path d="M169.301,86.032c-0.625,0-1.152-0.098-1.582-0.293v-1.008c0.539,0.156,1.043,0.234,1.512,0.234
		c1.18,0,1.77-0.688,1.77-2.062V67.528h1.16v15.211c0,1.055-0.248,1.867-0.744,2.438S170.215,86.032,169.301,86.032z
		 M170.836,63.989c0-0.75,0.246-1.125,0.738-1.125c0.242,0,0.432,0.098,0.568,0.293s0.205,0.473,0.205,0.832
		c0,0.352-0.068,0.629-0.205,0.832s-0.326,0.305-0.568,0.305C171.082,65.126,170.836,64.747,170.836,63.989z"/>
	<path d="M188.161,73.88c0,2.078-0.504,3.701-1.512,4.869s-2.398,1.752-4.172,1.752c-1.117,0-2.102-0.27-2.953-0.809
		s-1.504-1.312-1.957-2.32s-0.68-2.172-0.68-3.492c0-2.078,0.504-3.697,1.512-4.857s2.391-1.74,4.148-1.74
		c1.75,0,3.123,0.588,4.119,1.764S188.161,71.833,188.161,73.88z M178.106,73.88c0,1.75,0.385,3.115,1.154,4.096
		s1.857,1.471,3.264,1.471s2.494-0.49,3.264-1.471s1.154-2.346,1.154-4.096c0-1.758-0.389-3.121-1.166-4.09
		s-1.869-1.453-3.275-1.453s-2.49,0.482-3.252,1.447S178.106,72.114,178.106,73.88z"/>
	<path d="M192.725,63.989c0-0.75,0.246-1.125,0.738-1.125c0.242,0,0.432,0.098,0.568,0.293s0.205,0.473,0.205,0.832
		c0,0.352-0.068,0.629-0.205,0.832s-0.326,0.305-0.568,0.305C192.971,65.126,192.725,64.747,192.725,63.989z M194.049,80.267h-1.16
		V67.528h1.16V80.267z"/>
	<path d="M208.396,80.267v-8.262c0-1.281-0.27-2.213-0.809-2.795s-1.375-0.873-2.508-0.873c-1.523,0-2.639,0.385-3.346,1.154
		s-1.061,2.018-1.061,3.744v7.031h-1.16V67.528h0.984l0.223,1.746h0.07c0.828-1.328,2.301-1.992,4.418-1.992
		c2.891,0,4.336,1.551,4.336,4.652v8.332H208.396z"/>
	<path d="M232.84,73.88c0,2.078-0.504,3.701-1.512,4.869s-2.398,1.752-4.172,1.752c-1.117,0-2.102-0.27-2.953-0.809
		s-1.504-1.312-1.957-2.32s-0.68-2.172-0.68-3.492c0-2.078,0.504-3.697,1.512-4.857s2.391-1.74,4.148-1.74
		c1.75,0,3.123,0.588,4.119,1.764S232.84,71.833,232.84,73.88z M222.785,73.88c0,1.75,0.385,3.115,1.154,4.096
		s1.857,1.471,3.264,1.471s2.494-0.49,3.264-1.471s1.154-2.346,1.154-4.096c0-1.758-0.389-3.121-1.166-4.09
		s-1.869-1.453-3.275-1.453s-2.49,0.482-3.252,1.447S222.785,72.114,222.785,73.88z"/>
	<path d="M246.45,80.267v-8.262c0-1.281-0.27-2.213-0.809-2.795s-1.375-0.873-2.508-0.873c-1.523,0-2.639,0.385-3.346,1.154
		s-1.061,2.018-1.061,3.744v7.031h-1.16V67.528h0.984l0.223,1.746h0.07c0.828-1.328,2.301-1.992,4.418-1.992
		c2.891,0,4.336,1.551,4.336,4.652v8.332H246.45z"/>
	<path d="M258.068,80.501c-1.852,0-3.295-0.57-4.33-1.711s-1.553-2.738-1.553-4.793c0-2.031,0.5-3.658,1.5-4.881
		s2.348-1.834,4.043-1.834c1.5,0,2.684,0.523,3.551,1.57s1.301,2.469,1.301,4.266v0.938h-9.176c0.016,1.75,0.424,3.086,1.225,4.008
		s1.947,1.383,3.439,1.383c0.727,0,1.365-0.051,1.916-0.152s1.248-0.32,2.092-0.656v1.055c-0.719,0.312-1.383,0.525-1.992,0.639
		S258.803,80.501,258.068,80.501z M257.729,68.313c-1.227,0-2.211,0.404-2.953,1.213s-1.176,1.975-1.301,3.498h7.875
		c0-1.477-0.32-2.631-0.961-3.463S258.861,68.313,257.729,68.313z"/>
	<path d="M285.265,73.88c0,2.078-0.504,3.701-1.512,4.869s-2.398,1.752-4.172,1.752c-1.117,0-2.102-0.27-2.953-0.809
		s-1.504-1.312-1.957-2.32s-0.68-2.172-0.68-3.492c0-2.078,0.504-3.697,1.512-4.857s2.391-1.74,4.148-1.74
		c1.75,0,3.123,0.588,4.119,1.764S285.265,71.833,285.265,73.88z M275.21,73.88c0,1.75,0.385,3.115,1.154,4.096
		s1.857,1.471,3.264,1.471s2.494-0.49,3.264-1.471s1.154-2.346,1.154-4.096c0-1.758-0.389-3.121-1.166-4.09
		s-1.869-1.453-3.275-1.453s-2.49,0.482-3.252,1.447S275.21,72.114,275.21,73.88z"/>
	<path d="M294.727,68.536h-3v11.73h-1.16v-11.73h-2.367v-0.68l2.367-0.434v-0.984c0-1.562,0.287-2.709,0.861-3.439
		s1.514-1.096,2.818-1.096c0.703,0,1.406,0.105,2.109,0.316l-0.27,1.008c-0.625-0.195-1.246-0.293-1.863-0.293
		c-0.906,0-1.549,0.268-1.928,0.803c-0.379,0.535-0.568,1.404-0.568,2.607v1.184h3V68.536z"/>
	<path d="M309.186,79.47c0.734,0,1.375-0.062,1.922-0.188v0.938c-0.562,0.188-1.211,0.281-1.945,0.281
		c-1.125,0-1.955-0.301-2.49-0.902s-0.803-1.547-0.803-2.836v-8.227h-1.887v-0.68l1.887-0.527l0.586-2.883h0.598v3.082h3.738v1.008
		h-3.738v8.062c0,0.977,0.172,1.699,0.516,2.168S308.451,79.47,309.186,79.47z"/>
	<path d="M323.943,80.267v-8.262c0-1.281-0.27-2.213-0.809-2.795s-1.375-0.873-2.508-0.873c-1.523,0-2.639,0.385-3.346,1.154
		s-1.061,2.018-1.061,3.744v7.031h-1.16V62.032h1.16v5.801l-0.059,1.629h0.082c0.477-0.766,1.078-1.32,1.805-1.664
		s1.629-0.516,2.707-0.516c2.891,0,4.336,1.551,4.336,4.652v8.332H323.943z"/>
	<path d="M335.562,80.501c-1.852,0-3.295-0.57-4.33-1.711s-1.553-2.738-1.553-4.793c0-2.031,0.5-3.658,1.5-4.881
		s2.348-1.834,4.043-1.834c1.5,0,2.684,0.523,3.551,1.57s1.301,2.469,1.301,4.266v0.938h-9.176c0.016,1.75,0.424,3.086,1.225,4.008
		s1.947,1.383,3.439,1.383c0.727,0,1.365-0.051,1.916-0.152s1.248-0.32,2.092-0.656v1.055c-0.719,0.312-1.383,0.525-1.992,0.639
		S336.296,80.501,335.562,80.501z M335.222,68.313c-1.227,0-2.211,0.404-2.953,1.213s-1.176,1.975-1.301,3.498h7.875
		c0-1.477-0.32-2.631-0.961-3.463S336.354,68.313,335.222,68.313z"/>
	<path d="M6.574,92.536h-3v11.73h-1.16v-11.73H0.047v-0.68l2.367-0.434v-0.984c0-1.562,0.287-2.709,0.861-3.439
		s1.514-1.096,2.818-1.096c0.703,0,1.406,0.105,2.109,0.316l-0.27,1.008c-0.625-0.195-1.246-0.293-1.863-0.293
		c-0.906,0-1.549,0.268-1.928,0.803s-0.568,1.404-0.568,2.607v1.184h3V92.536z"/>
	<path d="M17.97,104.267l-0.293-2.016h-0.094c-0.641,0.82-1.299,1.4-1.975,1.74s-1.475,0.51-2.396,0.51
		c-1.25,0-2.223-0.32-2.918-0.961s-1.043-1.527-1.043-2.66c0-1.242,0.518-2.207,1.553-2.895s2.533-1.051,4.494-1.09l2.426-0.07
		v-0.844c0-1.211-0.246-2.125-0.738-2.742s-1.285-0.926-2.379-0.926c-1.18,0-2.402,0.328-3.668,0.984l-0.434-1.008
		c1.398-0.656,2.781-0.984,4.148-0.984c1.398,0,2.443,0.363,3.135,1.09s1.037,1.859,1.037,3.398v8.473H17.97z M13.282,103.446
		c1.359,0,2.432-0.389,3.217-1.166s1.178-1.857,1.178-3.24v-1.254L15.45,97.88c-1.789,0.086-3.064,0.365-3.826,0.838
		s-1.143,1.209-1.143,2.209c0,0.797,0.244,1.416,0.732,1.857S12.392,103.446,13.282,103.446z"/>
	<path d="M32.049,100.95c0,1.141-0.434,2.018-1.301,2.631s-2.098,0.92-3.691,0.92c-1.703,0-3.055-0.262-4.055-0.785v-1.254
		c1.281,0.641,2.633,0.961,4.055,0.961c1.258,0,2.213-0.209,2.865-0.627s0.979-0.975,0.979-1.67c0-0.641-0.26-1.18-0.779-1.617
		s-1.373-0.867-2.561-1.289c-1.273-0.461-2.168-0.857-2.684-1.189s-0.904-0.707-1.166-1.125s-0.393-0.928-0.393-1.529
		c0-0.953,0.4-1.707,1.201-2.262s1.92-0.832,3.357-0.832c1.375,0,2.68,0.258,3.914,0.773l-0.434,1.055
		c-1.25-0.516-2.41-0.773-3.48-0.773c-1.039,0-1.863,0.172-2.473,0.516s-0.914,0.82-0.914,1.43c0,0.664,0.236,1.195,0.709,1.594
		s1.396,0.844,2.771,1.336c1.148,0.414,1.984,0.787,2.508,1.119s0.916,0.709,1.178,1.131S32.049,100.38,32.049,100.95z"/>
	<path d="M39.893,103.47c0.734,0,1.375-0.062,1.922-0.188v0.938c-0.562,0.188-1.211,0.281-1.945,0.281
		c-1.125,0-1.955-0.301-2.49-0.902s-0.803-1.547-0.803-2.836v-8.227h-1.887v-0.68l1.887-0.527l0.586-2.883h0.598v3.082h3.738v1.008
		H37.76v8.062c0,0.977,0.172,1.699,0.516,2.168S39.158,103.47,39.893,103.47z"/>
	<path d="M50.913,104.501c-1.852,0-3.295-0.57-4.33-1.711s-1.553-2.738-1.553-4.793c0-2.031,0.5-3.658,1.5-4.881
		s2.348-1.834,4.043-1.834c1.5,0,2.684,0.523,3.551,1.57s1.301,2.469,1.301,4.266v0.938h-9.176c0.016,1.75,0.424,3.086,1.225,4.008
		s1.947,1.383,3.439,1.383c0.727,0,1.365-0.051,1.916-0.152s1.248-0.32,2.092-0.656v1.055c-0.719,0.312-1.383,0.525-1.992,0.639
		S51.647,104.501,50.913,104.501z M50.573,92.313c-1.227,0-2.211,0.404-2.953,1.213s-1.176,1.975-1.301,3.498h7.875
		c0-1.477-0.32-2.631-0.961-3.463S51.706,92.313,50.573,92.313z"/>
	<path d="M68.039,100.95c0,1.141-0.434,2.018-1.301,2.631s-2.098,0.92-3.691,0.92c-1.703,0-3.055-0.262-4.055-0.785v-1.254
		c1.281,0.641,2.633,0.961,4.055,0.961c1.258,0,2.213-0.209,2.865-0.627s0.979-0.975,0.979-1.67c0-0.641-0.26-1.18-0.779-1.617
		s-1.373-0.867-2.561-1.289c-1.273-0.461-2.168-0.857-2.684-1.189s-0.904-0.707-1.166-1.125s-0.393-0.928-0.393-1.529
		c0-0.953,0.4-1.707,1.201-2.262s1.92-0.832,3.357-0.832c1.375,0,2.68,0.258,3.914,0.773l-0.434,1.055
		c-1.25-0.516-2.41-0.773-3.48-0.773c-1.039,0-1.863,0.172-2.473,0.516s-0.914,0.82-0.914,1.43c0,0.664,0.236,1.195,0.709,1.594
		s1.396,0.844,2.771,1.336c1.148,0.414,1.984,0.787,2.508,1.119s0.916,0.709,1.178,1.131S68.039,100.38,68.039,100.95z"/>
	<path d="M75.884,103.47c0.734,0,1.375-0.062,1.922-0.188v0.938c-0.562,0.188-1.211,0.281-1.945,0.281
		c-1.125,0-1.955-0.301-2.49-0.902s-0.803-1.547-0.803-2.836v-8.227h-1.887v-0.68l1.887-0.527l0.586-2.883h0.598v3.082h3.738v1.008
		h-3.738v8.062c0,0.977,0.172,1.699,0.516,2.168S75.149,103.47,75.884,103.47z"/>
	<path d="M99.131,91.528v0.809l-2.637,0.164c0.703,0.875,1.055,1.836,1.055,2.883c0,1.227-0.408,2.221-1.225,2.982
		s-1.912,1.143-3.287,1.143c-0.578,0-0.984-0.023-1.219-0.07c-0.461,0.242-0.812,0.527-1.055,0.855s-0.363,0.676-0.363,1.043
		c0,0.406,0.154,0.703,0.463,0.891s0.826,0.281,1.553,0.281h2.227c1.383,0,2.441,0.279,3.176,0.838s1.102,1.385,1.102,2.479
		c0,1.344-0.545,2.381-1.635,3.111s-2.643,1.096-4.658,1.096c-1.602,0-2.842-0.309-3.721-0.926s-1.318-1.477-1.318-2.578
		c0-0.875,0.271-1.602,0.814-2.18s1.279-0.973,2.209-1.184c-0.383-0.164-0.689-0.396-0.92-0.697s-0.346-0.646-0.346-1.037
		c0-0.852,0.543-1.602,1.629-2.25c-0.742-0.305-1.32-0.783-1.734-1.436s-0.621-1.4-0.621-2.244c0-1.273,0.404-2.295,1.213-3.064
		s1.9-1.154,3.275-1.154c0.836,0,1.484,0.082,1.945,0.246H99.131z M88.818,106.423c0,1.75,1.301,2.625,3.902,2.625
		c3.344,0,5.016-1.066,5.016-3.199c0-0.766-0.262-1.32-0.785-1.664s-1.371-0.516-2.543-0.516h-2.086
		C89.986,103.669,88.818,104.587,88.818,106.423z M89.791,95.501c0,0.984,0.299,1.748,0.896,2.291s1.396,0.814,2.396,0.814
		c1.062,0,1.877-0.27,2.443-0.809s0.85-1.32,0.85-2.344c0-1.086-0.291-1.9-0.873-2.443s-1.396-0.814-2.443-0.814
		c-1.016,0-1.814,0.291-2.396,0.873S89.791,94.462,89.791,95.501z"/>
	<path d="M107.96,91.282c0.539,0,1.117,0.055,1.734,0.164l-0.223,1.113c-0.531-0.133-1.082-0.199-1.652-0.199
		c-1.086,0-1.977,0.461-2.672,1.383s-1.043,2.086-1.043,3.492v7.031h-1.16V91.528h0.984l0.117,2.297h0.082
		c0.523-0.938,1.082-1.596,1.676-1.975S107.116,91.282,107.96,91.282z"/>
	<path d="M124.02,97.88c0,2.078-0.504,3.701-1.512,4.869s-2.398,1.752-4.172,1.752c-1.117,0-2.102-0.27-2.953-0.809
		s-1.504-1.312-1.957-2.32s-0.68-2.172-0.68-3.492c0-2.078,0.504-3.697,1.512-4.857s2.391-1.74,4.148-1.74
		c1.75,0,3.123,0.588,4.119,1.764S124.02,95.833,124.02,97.88z M113.965,97.88c0,1.75,0.385,3.115,1.154,4.096
		s1.857,1.471,3.264,1.471s2.494-0.49,3.264-1.471s1.154-2.346,1.154-4.096c0-1.758-0.389-3.121-1.166-4.09
		s-1.869-1.453-3.275-1.453s-2.49,0.482-3.252,1.447S113.965,96.114,113.965,97.88z"/>
	<path d="M138.931,104.267l-2.789-8.52c-0.18-0.578-0.41-1.426-0.691-2.543h-0.07l-0.246,0.867l-0.527,1.699l-2.836,8.496h-1.148
		l-3.645-12.738h1.242l2.039,7.383c0.477,1.828,0.789,3.172,0.938,4.031h0.07c0.461-1.828,0.797-3.043,1.008-3.645l2.625-7.77h1.055
		l2.496,7.746c0.562,1.836,0.906,3.051,1.031,3.645h0.07c0.062-0.508,0.375-1.867,0.938-4.078l1.945-7.312h1.172l-3.457,12.738
		H138.931z"/>
	<path d="M147.139,87.989c0-0.75,0.246-1.125,0.738-1.125c0.242,0,0.432,0.098,0.568,0.293s0.205,0.473,0.205,0.832
		c0,0.352-0.068,0.629-0.205,0.832s-0.326,0.305-0.568,0.305C147.385,89.126,147.139,88.747,147.139,87.989z M148.463,104.267h-1.16
		V91.528h1.16V104.267z"/>
	<path d="M162.811,104.267v-8.262c0-1.281-0.27-2.213-0.809-2.795s-1.375-0.873-2.508-0.873c-1.523,0-2.639,0.385-3.346,1.154
		s-1.061,2.018-1.061,3.744v7.031h-1.16V91.528h0.984l0.223,1.746h0.07c0.828-1.328,2.301-1.992,4.418-1.992
		c2.891,0,4.336,1.551,4.336,4.652v8.332H162.811z"/>
	<path d="M179.222,91.528v0.809l-2.637,0.164c0.703,0.875,1.055,1.836,1.055,2.883c0,1.227-0.408,2.221-1.225,2.982
		s-1.912,1.143-3.287,1.143c-0.578,0-0.984-0.023-1.219-0.07c-0.461,0.242-0.812,0.527-1.055,0.855s-0.363,0.676-0.363,1.043
		c0,0.406,0.154,0.703,0.463,0.891s0.826,0.281,1.553,0.281h2.227c1.383,0,2.441,0.279,3.176,0.838s1.102,1.385,1.102,2.479
		c0,1.344-0.545,2.381-1.635,3.111s-2.643,1.096-4.658,1.096c-1.602,0-2.842-0.309-3.721-0.926s-1.318-1.477-1.318-2.578
		c0-0.875,0.271-1.602,0.814-2.18s1.279-0.973,2.209-1.184c-0.383-0.164-0.689-0.396-0.92-0.697s-0.346-0.646-0.346-1.037
		c0-0.852,0.543-1.602,1.629-2.25c-0.742-0.305-1.32-0.783-1.734-1.436s-0.621-1.4-0.621-2.244c0-1.273,0.404-2.295,1.213-3.064
		s1.9-1.154,3.275-1.154c0.836,0,1.484,0.082,1.945,0.246H179.222z M168.909,106.423c0,1.75,1.301,2.625,3.902,2.625
		c3.344,0,5.016-1.066,5.016-3.199c0-0.766-0.262-1.32-0.785-1.664s-1.371-0.516-2.543-0.516h-2.086
		C170.077,103.669,168.909,104.587,168.909,106.423z M169.882,95.501c0,0.984,0.299,1.748,0.896,2.291s1.396,0.814,2.396,0.814
		c1.062,0,1.877-0.27,2.443-0.809s0.85-1.32,0.85-2.344c0-1.086-0.291-1.9-0.873-2.443s-1.396-0.814-2.443-0.814
		c-1.016,0-1.814,0.291-2.396,0.873S169.882,94.462,169.882,95.501z"/>
	<path d="M195.849,91.282c1.781,0,3.123,0.561,4.025,1.682s1.354,2.76,1.354,4.916c0,2.117-0.475,3.75-1.424,4.898
		s-2.283,1.723-4.002,1.723c-0.906,0-1.723-0.188-2.449-0.562s-1.301-0.906-1.723-1.594h-0.105l-0.328,1.922h-0.727V86.032h1.16
		v4.582c0,0.688-0.016,1.32-0.047,1.898l-0.035,0.996h0.082c0.484-0.766,1.068-1.328,1.752-1.688S194.888,91.282,195.849,91.282z
		 M195.825,92.337c-1.5,0-2.574,0.43-3.223,1.289s-0.973,2.277-0.973,4.254v0.199c0,1.922,0.338,3.301,1.014,4.137
		s1.729,1.254,3.158,1.254c1.391,0,2.438-0.486,3.141-1.459s1.055-2.357,1.055-4.154C199.997,94.177,198.606,92.337,195.825,92.337z
		"/>
	<path d="M205.791,87.989c0-0.75,0.246-1.125,0.738-1.125c0.242,0,0.432,0.098,0.568,0.293s0.205,0.473,0.205,0.832
		c0,0.352-0.068,0.629-0.205,0.832s-0.326,0.305-0.568,0.305C206.037,89.126,205.791,88.747,205.791,87.989z M207.115,104.267h-1.16
		V91.528h1.16V104.267z"/>
	<path d="M221.463,104.267v-8.262c0-1.281-0.27-2.213-0.809-2.795s-1.375-0.873-2.508-0.873c-1.523,0-2.639,0.385-3.346,1.154
		s-1.061,2.018-1.061,3.744v7.031h-1.16V91.528h0.984l0.223,1.746h0.07c0.828-1.328,2.301-1.992,4.418-1.992
		c2.891,0,4.336,1.551,4.336,4.652v8.332H221.463z"/>
	<path d="M237.874,91.528v0.809l-2.637,0.164c0.703,0.875,1.055,1.836,1.055,2.883c0,1.227-0.408,2.221-1.225,2.982
		s-1.912,1.143-3.287,1.143c-0.578,0-0.984-0.023-1.219-0.07c-0.461,0.242-0.812,0.527-1.055,0.855s-0.363,0.676-0.363,1.043
		c0,0.406,0.154,0.703,0.463,0.891s0.826,0.281,1.553,0.281h2.227c1.383,0,2.441,0.279,3.176,0.838s1.102,1.385,1.102,2.479
		c0,1.344-0.545,2.381-1.635,3.111s-2.643,1.096-4.658,1.096c-1.602,0-2.842-0.309-3.721-0.926s-1.318-1.477-1.318-2.578
		c0-0.875,0.271-1.602,0.814-2.18s1.279-0.973,2.209-1.184c-0.383-0.164-0.689-0.396-0.92-0.697s-0.346-0.646-0.346-1.037
		c0-0.852,0.543-1.602,1.629-2.25c-0.742-0.305-1.32-0.783-1.734-1.436s-0.621-1.4-0.621-2.244c0-1.273,0.404-2.295,1.213-3.064
		s1.9-1.154,3.275-1.154c0.836,0,1.484,0.082,1.945,0.246H237.874z M227.562,106.423c0,1.75,1.301,2.625,3.902,2.625
		c3.344,0,5.016-1.066,5.016-3.199c0-0.766-0.262-1.32-0.785-1.664s-1.371-0.516-2.543-0.516h-2.086
		C228.729,103.669,227.562,104.587,227.562,106.423z M228.534,95.501c0,0.984,0.299,1.748,0.896,2.291s1.396,0.814,2.396,0.814
		c1.062,0,1.877-0.27,2.443-0.809s0.85-1.32,0.85-2.344c0-1.086-0.291-1.9-0.873-2.443s-1.396-0.814-2.443-0.814
		c-1.016,0-1.814,0.291-2.396,0.873S228.534,94.462,228.534,95.501z"/>
	<path d="M249.586,100.95c0,1.141-0.434,2.018-1.301,2.631s-2.098,0.92-3.691,0.92c-1.703,0-3.055-0.262-4.055-0.785v-1.254
		c1.281,0.641,2.633,0.961,4.055,0.961c1.258,0,2.213-0.209,2.865-0.627s0.979-0.975,0.979-1.67c0-0.641-0.26-1.18-0.779-1.617
		s-1.373-0.867-2.561-1.289c-1.273-0.461-2.168-0.857-2.684-1.189s-0.904-0.707-1.166-1.125s-0.393-0.928-0.393-1.529
		c0-0.953,0.4-1.707,1.201-2.262s1.92-0.832,3.357-0.832c1.375,0,2.68,0.258,3.914,0.773l-0.434,1.055
		c-1.25-0.516-2.41-0.773-3.48-0.773c-1.039,0-1.863,0.172-2.473,0.516s-0.914,0.82-0.914,1.43c0,0.664,0.236,1.195,0.709,1.594
		s1.396,0.844,2.771,1.336c1.148,0.414,1.984,0.787,2.508,1.119s0.916,0.709,1.178,1.131S249.586,100.38,249.586,100.95z"/>
	<path d="M264.603,97.88c0,2.078-0.504,3.701-1.512,4.869s-2.398,1.752-4.172,1.752c-1.117,0-2.102-0.27-2.953-0.809
		s-1.504-1.312-1.957-2.32s-0.68-2.172-0.68-3.492c0-2.078,0.504-3.697,1.512-4.857s2.391-1.74,4.148-1.74
		c1.75,0,3.123,0.588,4.119,1.764S264.603,95.833,264.603,97.88z M254.548,97.88c0,1.75,0.385,3.115,1.154,4.096
		s1.857,1.471,3.264,1.471s2.494-0.49,3.264-1.471s1.154-2.346,1.154-4.096c0-1.758-0.389-3.121-1.166-4.09
		s-1.869-1.453-3.275-1.453s-2.49,0.482-3.252,1.447S254.548,96.114,254.548,97.88z"/>
	<path d="M279.865,97.88c0,2.078-0.504,3.701-1.512,4.869s-2.398,1.752-4.172,1.752c-1.117,0-2.102-0.27-2.953-0.809
		s-1.504-1.312-1.957-2.32s-0.68-2.172-0.68-3.492c0-2.078,0.504-3.697,1.512-4.857s2.391-1.74,4.148-1.74
		c1.75,0,3.123,0.588,4.119,1.764S279.865,95.833,279.865,97.88z M269.811,97.88c0,1.75,0.385,3.115,1.154,4.096
		s1.857,1.471,3.264,1.471s2.494-0.49,3.264-1.471s1.154-2.346,1.154-4.096c0-1.758-0.389-3.121-1.166-4.09
		s-1.869-1.453-3.275-1.453s-2.49,0.482-3.252,1.447S269.811,96.114,269.811,97.88z"/>
	<path d="M297.112,104.501c-1.82,0-3.246-0.574-4.277-1.723s-1.547-2.75-1.547-4.805c0-2.109,0.535-3.752,1.605-4.928
		s2.535-1.764,4.395-1.764c1.102,0,2.156,0.191,3.164,0.574l-0.316,1.031c-1.102-0.367-2.059-0.551-2.871-0.551
		c-1.562,0-2.746,0.482-3.551,1.447s-1.207,2.354-1.207,4.166c0,1.719,0.402,3.064,1.207,4.037s1.93,1.459,3.375,1.459
		c1.156,0,2.23-0.207,3.223-0.621v1.078C299.499,104.302,298.433,104.501,297.112,104.501z"/>
	<path d="M312.363,104.267l-0.293-2.016h-0.094c-0.641,0.82-1.299,1.4-1.975,1.74s-1.475,0.51-2.396,0.51
		c-1.25,0-2.223-0.32-2.918-0.961s-1.043-1.527-1.043-2.66c0-1.242,0.518-2.207,1.553-2.895s2.533-1.051,4.494-1.09l2.426-0.07
		v-0.844c0-1.211-0.246-2.125-0.738-2.742s-1.285-0.926-2.379-0.926c-1.18,0-2.402,0.328-3.668,0.984l-0.434-1.008
		c1.398-0.656,2.781-0.984,4.148-0.984c1.398,0,2.443,0.363,3.135,1.09s1.037,1.859,1.037,3.398v8.473H312.363z M307.676,103.446
		c1.359,0,2.432-0.389,3.217-1.166s1.178-1.857,1.178-3.24v-1.254l-2.227,0.094c-1.789,0.086-3.064,0.365-3.826,0.838
		s-1.143,1.209-1.143,2.209c0,0.797,0.244,1.416,0.732,1.857S306.785,103.446,307.676,103.446z"/>
	<path d="M323.278,92.536h-3v11.73h-1.16v-11.73h-2.367v-0.68l2.367-0.434v-0.984c0-1.562,0.287-2.709,0.861-3.439
		s1.514-1.096,2.818-1.096c0.703,0,1.406,0.105,2.109,0.316l-0.27,1.008c-0.625-0.195-1.246-0.293-1.863-0.293
		c-0.906,0-1.549,0.268-1.928,0.803s-0.568,1.404-0.568,2.607v1.184h3V92.536z"/>
	<path d="M332.084,104.501c-1.852,0-3.295-0.57-4.33-1.711s-1.553-2.738-1.553-4.793c0-2.031,0.5-3.658,1.5-4.881
		s2.348-1.834,4.043-1.834c1.5,0,2.684,0.523,3.551,1.57s1.301,2.469,1.301,4.266v0.938h-9.176c0.016,1.75,0.424,3.086,1.225,4.008
		s1.947,1.383,3.439,1.383c0.727,0,1.365-0.051,1.916-0.152s1.248-0.32,2.092-0.656v1.055c-0.719,0.312-1.383,0.525-1.992,0.639
		S332.818,104.501,332.084,104.501z M331.744,92.313c-1.227,0-2.211,0.404-2.953,1.213s-1.176,1.975-1.301,3.498h7.875
		c0-1.477-0.32-2.631-0.961-3.463S332.877,92.313,331.744,92.313z M330.104,89.536c0.57-0.617,1.135-1.287,1.693-2.01
		s0.939-1.271,1.143-1.646h1.652v0.199c-0.281,0.406-0.76,0.945-1.436,1.617s-1.42,1.348-2.232,2.027h-0.82V89.536z"/>
	<path d="M1.676,111.989c0-0.75,0.246-1.125,0.738-1.125c0.242,0,0.432,0.098,0.568,0.293s0.205,0.473,0.205,0.832
		c0,0.352-0.068,0.629-0.205,0.832s-0.326,0.305-0.568,0.305C1.922,113.126,1.676,112.747,1.676,111.989z M3,128.267H1.84v-12.738H3
		V128.267z"/>
	<path d="M17.349,128.267v-8.262c0-1.281-0.27-2.213-0.809-2.795s-1.375-0.873-2.508-0.873c-1.523,0-2.639,0.385-3.346,1.154
		s-1.061,2.018-1.061,3.744v7.031h-1.16v-12.738H9.45l0.223,1.746h0.07c0.828-1.328,2.301-1.992,4.418-1.992
		c2.891,0,4.336,1.551,4.336,4.652v8.332H17.349z"/>
	<path d="M38.861,111.966c-2.148,0-3.84,0.688-5.074,2.062s-1.852,3.258-1.852,5.648c0,2.445,0.582,4.344,1.746,5.695
		s2.828,2.027,4.992,2.027c1.438,0,2.758-0.184,3.961-0.551v1.055c-1.133,0.398-2.547,0.598-4.242,0.598
		c-2.406,0-4.301-0.777-5.684-2.332s-2.074-3.727-2.074-6.516c0-1.742,0.33-3.277,0.99-4.605s1.609-2.354,2.848-3.076
		s2.678-1.084,4.318-1.084c1.672,0,3.168,0.312,4.488,0.938l-0.48,1.078C41.549,112.278,40.236,111.966,38.861,111.966z"/>
	<path d="M55.097,128.267l-0.293-2.016H54.71c-0.641,0.82-1.299,1.4-1.975,1.74c-0.676,0.34-1.475,0.51-2.396,0.51
		c-1.25,0-2.223-0.32-2.918-0.961c-0.695-0.641-1.043-1.527-1.043-2.66c0-1.242,0.518-2.207,1.553-2.895s2.533-1.051,4.494-1.09
		l2.426-0.07v-0.844c0-1.211-0.246-2.125-0.738-2.742s-1.285-0.926-2.379-0.926c-1.18,0-2.402,0.328-3.668,0.984l-0.434-1.008
		c1.398-0.656,2.781-0.984,4.148-0.984c1.398,0,2.443,0.363,3.135,1.09s1.037,1.859,1.037,3.398v8.473H55.097z M50.409,127.446
		c1.359,0,2.432-0.389,3.217-1.166s1.178-1.857,1.178-3.24v-1.254l-2.227,0.094c-1.789,0.086-3.064,0.365-3.826,0.838
		s-1.143,1.209-1.143,2.209c0,0.797,0.244,1.416,0.732,1.857S49.519,127.446,50.409,127.446z"/>
	<path d="M70.16,128.267v-8.262c0-1.281-0.27-2.213-0.809-2.795s-1.375-0.873-2.508-0.873c-1.523,0-2.639,0.385-3.346,1.154
		s-1.061,2.018-1.061,3.744v7.031h-1.16v-12.738h0.984l0.223,1.746h0.07c0.828-1.328,2.301-1.992,4.418-1.992
		c2.891,0,4.336,1.551,4.336,4.652v8.332H70.16z"/>
	<path d="M84.368,128.267l-0.293-2.016h-0.094c-0.641,0.82-1.299,1.4-1.975,1.74c-0.676,0.34-1.475,0.51-2.396,0.51
		c-1.25,0-2.223-0.32-2.918-0.961c-0.695-0.641-1.043-1.527-1.043-2.66c0-1.242,0.518-2.207,1.553-2.895s2.533-1.051,4.494-1.09
		l2.426-0.07v-0.844c0-1.211-0.246-2.125-0.738-2.742s-1.285-0.926-2.379-0.926c-1.18,0-2.402,0.328-3.668,0.984l-0.434-1.008
		c1.398-0.656,2.781-0.984,4.148-0.984c1.398,0,2.443,0.363,3.135,1.09s1.037,1.859,1.037,3.398v8.473H84.368z M79.681,127.446
		c1.359,0,2.432-0.389,3.217-1.166s1.178-1.857,1.178-3.24v-1.254l-2.227,0.094c-1.789,0.086-3.064,0.365-3.826,0.838
		s-1.143,1.209-1.143,2.209c0,0.797,0.244,1.416,0.732,1.857S78.79,127.446,79.681,127.446z"/>
	<path d="M95.213,115.282c0.922,0,1.719,0.168,2.391,0.504s1.273,0.91,1.805,1.723h0.07c-0.047-0.984-0.07-1.949-0.07-2.895v-4.582
		h1.148v18.234h-0.762l-0.293-1.945h-0.094c-0.969,1.453-2.359,2.18-4.172,2.18c-1.758,0-3.102-0.547-4.031-1.641
		s-1.395-2.688-1.395-4.781c0-2.203,0.461-3.887,1.383-5.051S93.455,115.282,95.213,115.282z M95.213,116.337
		c-1.391,0-2.436,0.488-3.135,1.465s-1.049,2.395-1.049,4.254c0,3.609,1.402,5.414,4.207,5.414c1.438,0,2.492-0.418,3.164-1.254
		s1.008-2.215,1.008-4.137v-0.199c0-1.969-0.33-3.385-0.99-4.248S96.689,116.337,95.213,116.337z"/>
	<path d="M113.768,128.267l-0.293-2.016h-0.094c-0.641,0.82-1.299,1.4-1.975,1.74c-0.676,0.34-1.475,0.51-2.396,0.51
		c-1.25,0-2.223-0.32-2.918-0.961c-0.695-0.641-1.043-1.527-1.043-2.66c0-1.242,0.518-2.207,1.553-2.895s2.533-1.051,4.494-1.09
		l2.426-0.07v-0.844c0-1.211-0.246-2.125-0.738-2.742s-1.285-0.926-2.379-0.926c-1.18,0-2.402,0.328-3.668,0.984l-0.434-1.008
		c1.398-0.656,2.781-0.984,4.148-0.984c1.398,0,2.443,0.363,3.135,1.09s1.037,1.859,1.037,3.398v8.473H113.768z M109.08,127.446
		c1.359,0,2.432-0.389,3.217-1.166s1.178-1.857,1.178-3.24v-1.254l-2.227,0.094c-1.789,0.086-3.064,0.365-3.826,0.838
		s-1.143,1.209-1.143,2.209c0,0.797,0.244,1.416,0.732,1.857S108.189,127.446,109.08,127.446z"/>
	<path d="M121.272,125.477l0.141,0.246c-0.586,2.07-1.266,3.949-2.039,5.637h-0.762c0.602-2.148,1.031-4.109,1.289-5.883H121.272z"
		/>
	<path d="M141.638,124.95c0,1.141-0.434,2.018-1.301,2.631c-0.867,0.613-2.098,0.92-3.691,0.92c-1.703,0-3.055-0.262-4.055-0.785
		v-1.254c1.281,0.641,2.633,0.961,4.055,0.961c1.258,0,2.213-0.209,2.865-0.627s0.979-0.975,0.979-1.67
		c0-0.641-0.26-1.18-0.779-1.617s-1.373-0.867-2.561-1.289c-1.273-0.461-2.168-0.857-2.684-1.189s-0.904-0.707-1.166-1.125
		s-0.393-0.928-0.393-1.529c0-0.953,0.4-1.707,1.201-2.262s1.92-0.832,3.357-0.832c1.375,0,2.68,0.258,3.914,0.773l-0.434,1.055
		c-1.25-0.516-2.41-0.773-3.48-0.773c-1.039,0-1.863,0.172-2.473,0.516s-0.914,0.82-0.914,1.43c0,0.664,0.236,1.195,0.709,1.594
		s1.396,0.844,2.771,1.336c1.148,0.414,1.984,0.787,2.508,1.119s0.916,0.709,1.178,1.131S141.638,124.38,141.638,124.95z"/>
	<path d="M151.264,128.501c-1.852,0-3.295-0.57-4.33-1.711s-1.553-2.738-1.553-4.793c0-2.031,0.5-3.658,1.5-4.881
		s2.348-1.834,4.043-1.834c1.5,0,2.684,0.523,3.551,1.57s1.301,2.469,1.301,4.266v0.938H146.6c0.016,1.75,0.424,3.086,1.225,4.008
		s1.947,1.383,3.439,1.383c0.727,0,1.365-0.051,1.916-0.152s1.248-0.32,2.092-0.656v1.055c-0.719,0.313-1.383,0.525-1.992,0.639
		S151.998,128.501,151.264,128.501z M150.924,116.313c-1.227,0-2.211,0.404-2.953,1.213s-1.176,1.975-1.301,3.498h7.875
		c0-1.477-0.32-2.631-0.961-3.463S152.057,116.313,150.924,116.313z"/>
	<path d="M169.373,128.267v-8.262c0-1.281-0.27-2.213-0.809-2.795s-1.375-0.873-2.508-0.873c-1.523,0-2.639,0.385-3.346,1.154
		s-1.061,2.018-1.061,3.744v7.031h-1.16v-12.738h0.984l0.223,1.746h0.07c0.828-1.328,2.301-1.992,4.418-1.992
		c2.891,0,4.336,1.551,4.336,4.652v8.332H169.373z"/>
	<path d="M180.511,115.282c0.922,0,1.719,0.168,2.391,0.504s1.273,0.91,1.805,1.723h0.07c-0.047-0.984-0.07-1.949-0.07-2.895v-4.582
		h1.148v18.234h-0.762l-0.293-1.945h-0.094c-0.969,1.453-2.359,2.18-4.172,2.18c-1.758,0-3.102-0.547-4.031-1.641
		s-1.395-2.688-1.395-4.781c0-2.203,0.461-3.887,1.383-5.051S178.753,115.282,180.511,115.282z M180.511,116.337
		c-1.391,0-2.436,0.488-3.135,1.465s-1.049,2.395-1.049,4.254c0,3.609,1.402,5.414,4.207,5.414c1.438,0,2.492-0.418,3.164-1.254
		s1.008-2.215,1.008-4.137v-0.199c0-1.969-0.33-3.385-0.99-4.248S181.987,116.337,180.511,116.337z"/>
	<path d="M199.774,115.528v8.25c0,1.281,0.27,2.213,0.809,2.795s1.375,0.873,2.508,0.873c1.516,0,2.631-0.383,3.346-1.148
		s1.072-2.012,1.072-3.738v-7.031h1.148v12.738h-0.984l-0.211-1.758h-0.07c-0.828,1.328-2.301,1.992-4.418,1.992
		c-2.898,0-4.348-1.551-4.348-4.652v-8.32H199.774z"/>
	<path d="M222.021,124.95c0,1.141-0.434,2.018-1.301,2.631c-0.867,0.613-2.098,0.92-3.691,0.92c-1.703,0-3.055-0.262-4.055-0.785
		v-1.254c1.281,0.641,2.633,0.961,4.055,0.961c1.258,0,2.213-0.209,2.865-0.627s0.979-0.975,0.979-1.67
		c0-0.641-0.26-1.18-0.779-1.617s-1.373-0.867-2.561-1.289c-1.273-0.461-2.168-0.857-2.684-1.189s-0.904-0.707-1.166-1.125
		s-0.393-0.928-0.393-1.529c0-0.953,0.4-1.707,1.201-2.262s1.92-0.832,3.357-0.832c1.375,0,2.68,0.258,3.914,0.773l-0.434,1.055
		c-1.25-0.516-2.41-0.773-3.48-0.773c-1.039,0-1.863,0.172-2.473,0.516s-0.914,0.82-0.914,1.43c0,0.664,0.236,1.195,0.709,1.594
		s1.396,0.844,2.771,1.336c1.148,0.414,1.984,0.787,2.508,1.119s0.916,0.709,1.178,1.131S222.021,124.38,222.021,124.95z"/>
	<path d="M231.804,115.528h1.195l2.695,7.148c0.82,2.195,1.34,3.676,1.559,4.441h0.07c0.328-1.008,0.863-2.512,1.605-4.512
		l2.695-7.078h1.195l-5.707,14.801c-0.461,1.203-0.848,2.016-1.16,2.438s-0.678,0.738-1.096,0.949s-0.924,0.316-1.518,0.316
		c-0.445,0-0.941-0.082-1.488-0.246v-1.008c0.453,0.125,0.941,0.188,1.465,0.188c0.398,0,0.75-0.094,1.055-0.281
		s0.58-0.479,0.826-0.873s0.531-1.02,0.855-1.875s0.533-1.412,0.627-1.67L231.804,115.528z"/>
	<path d="M256.688,121.88c0,2.078-0.504,3.701-1.512,4.869s-2.398,1.752-4.172,1.752c-1.117,0-2.102-0.27-2.953-0.809
		c-0.852-0.539-1.504-1.312-1.957-2.32s-0.68-2.172-0.68-3.492c0-2.078,0.504-3.697,1.512-4.857s2.391-1.74,4.148-1.74
		c1.75,0,3.123,0.588,4.119,1.764S256.688,119.833,256.688,121.88z M246.633,121.88c0,1.75,0.385,3.115,1.154,4.096
		s1.857,1.471,3.264,1.471s2.494-0.49,3.264-1.471s1.154-2.346,1.154-4.096c0-1.758-0.389-3.121-1.166-4.09
		s-1.869-1.453-3.275-1.453s-2.49,0.482-3.252,1.447S246.633,120.114,246.633,121.88z"/>
	<path d="M262.423,115.528v8.25c0,1.281,0.27,2.213,0.809,2.795s1.375,0.873,2.508,0.873c1.516,0,2.631-0.383,3.346-1.148
		s1.072-2.012,1.072-3.738v-7.031h1.148v12.738h-0.984l-0.211-1.758h-0.07c-0.828,1.328-2.301,1.992-4.418,1.992
		c-2.898,0-4.348-1.551-4.348-4.652v-8.32H262.423z"/>
	<path d="M281.787,115.282c0.539,0,1.117,0.055,1.734,0.164l-0.223,1.113c-0.531-0.133-1.082-0.199-1.652-0.199
		c-1.086,0-1.977,0.461-2.672,1.383s-1.043,2.086-1.043,3.492v7.031h-1.16v-12.738h0.984l0.117,2.297h0.082
		c0.523-0.938,1.082-1.596,1.676-1.975S280.943,115.282,281.787,115.282z"/>
	<path d="M294.581,111.989c0-0.75,0.246-1.125,0.738-1.125c0.242,0,0.432,0.098,0.568,0.293s0.205,0.473,0.205,0.832
		c0,0.352-0.068,0.629-0.205,0.832s-0.326,0.305-0.568,0.305C294.827,113.126,294.581,112.747,294.581,111.989z M295.905,128.267
		h-1.16v-12.738h1.16V128.267z"/>
	<path d="M310.254,128.267v-8.262c0-1.281-0.27-2.213-0.809-2.795s-1.375-0.873-2.508-0.873c-1.523,0-2.639,0.385-3.346,1.154
		s-1.061,2.018-1.061,3.744v7.031h-1.16v-12.738h0.984l0.223,1.746h0.07c0.828-1.328,2.301-1.992,4.418-1.992
		c2.891,0,4.336,1.551,4.336,4.652v8.332H310.254z"/>
	<path d="M321.462,116.536h-3v11.73h-1.16v-11.73h-2.367v-0.68l2.367-0.434v-0.984c0-1.562,0.287-2.709,0.861-3.439
		s1.514-1.096,2.818-1.096c0.703,0,1.406,0.105,2.109,0.316l-0.27,1.008c-0.625-0.195-1.246-0.293-1.863-0.293
		c-0.906,0-1.549,0.268-1.928,0.803s-0.568,1.404-0.568,2.607v1.184h3V116.536z"/>
	<path d="M335.658,121.88c0,2.078-0.504,3.701-1.512,4.869s-2.398,1.752-4.172,1.752c-1.117,0-2.102-0.27-2.953-0.809
		c-0.852-0.539-1.504-1.312-1.957-2.32s-0.68-2.172-0.68-3.492c0-2.078,0.504-3.697,1.512-4.857s2.391-1.74,4.148-1.74
		c1.75,0,3.123,0.588,4.119,1.764S335.658,119.833,335.658,121.88z M325.604,121.88c0,1.75,0.385,3.115,1.154,4.096
		s1.857,1.471,3.264,1.471s2.494-0.49,3.264-1.471s1.154-2.346,1.154-4.096c0-1.758-0.389-3.121-1.166-4.09
		s-1.869-1.453-3.275-1.453s-2.49,0.482-3.252,1.447S325.604,120.114,325.604,121.88z"/>
	<path d="M5.203,151.47c0.734,0,1.375-0.062,1.922-0.188v0.938c-0.562,0.188-1.211,0.281-1.945,0.281
		c-1.125,0-1.955-0.301-2.49-0.902s-0.803-1.547-0.803-2.836v-8.227H0v-0.68l1.887-0.527l0.586-2.883H3.07v3.082h3.738v1.008H3.07
		v8.062c0,0.977,0.172,1.699,0.516,2.168S4.469,151.47,5.203,151.47z"/>
	<path d="M21.614,145.88c0,2.078-0.504,3.701-1.512,4.869s-2.398,1.752-4.172,1.752c-1.117,0-2.102-0.27-2.953-0.809
		s-1.504-1.312-1.957-2.32s-0.68-2.172-0.68-3.492c0-2.078,0.504-3.697,1.512-4.857s2.391-1.74,4.148-1.74
		c1.75,0,3.123,0.588,4.119,1.764S21.614,143.833,21.614,145.88z M11.56,145.88c0,1.75,0.385,3.115,1.154,4.096
		s1.857,1.471,3.264,1.471s2.494-0.49,3.264-1.471s1.154-2.346,1.154-4.096c0-1.758-0.389-3.121-1.166-4.09
		s-1.869-1.453-3.275-1.453s-2.49,0.482-3.252,1.447S11.56,144.114,11.56,145.88z"/>
	<path d="M31.006,139.282c0.922,0,1.719,0.168,2.391,0.504s1.273,0.91,1.805,1.723h0.07c-0.047-0.984-0.07-1.949-0.07-2.895v-4.582
		h1.148v18.234h-0.762l-0.293-1.945h-0.094c-0.969,1.453-2.359,2.18-4.172,2.18c-1.758,0-3.102-0.547-4.031-1.641
		s-1.395-2.688-1.395-4.781c0-2.203,0.461-3.887,1.383-5.051S29.248,139.282,31.006,139.282z M31.006,140.337
		c-1.391,0-2.436,0.488-3.135,1.465s-1.049,2.395-1.049,4.254c0,3.609,1.402,5.414,4.207,5.414c1.438,0,2.492-0.418,3.164-1.254
		s1.008-2.215,1.008-4.137v-0.199c0-1.969-0.33-3.385-0.99-4.248S32.482,140.337,31.006,140.337z"/>
	<path d="M49.561,152.267l-0.293-2.016h-0.094c-0.641,0.82-1.299,1.4-1.975,1.74s-1.475,0.51-2.396,0.51
		c-1.25,0-2.223-0.32-2.918-0.961s-1.043-1.527-1.043-2.66c0-1.242,0.518-2.207,1.553-2.895s2.533-1.051,4.494-1.09l2.426-0.07
		v-0.844c0-1.211-0.246-2.125-0.738-2.742s-1.285-0.926-2.379-0.926c-1.18,0-2.402,0.328-3.668,0.984l-0.434-1.008
		c1.398-0.656,2.781-0.984,4.148-0.984c1.398,0,2.443,0.363,3.135,1.09s1.037,1.859,1.037,3.398v8.473H49.561z M44.873,151.446
		c1.359,0,2.432-0.389,3.217-1.166s1.178-1.857,1.178-3.24v-1.254l-2.227,0.094c-1.789,0.086-3.064,0.365-3.826,0.838
		s-1.143,1.209-1.143,2.209c0,0.797,0.244,1.416,0.732,1.857S43.982,151.446,44.873,151.446z"/>
	<path d="M53.608,139.528h1.195l2.695,7.148c0.82,2.195,1.34,3.676,1.559,4.441h0.07c0.328-1.008,0.863-2.512,1.605-4.512
		l2.695-7.078h1.195l-5.707,14.801c-0.461,1.203-0.848,2.016-1.16,2.438s-0.678,0.738-1.096,0.949s-0.924,0.316-1.518,0.316
		c-0.445,0-0.941-0.082-1.488-0.246v-1.008c0.453,0.125,0.941,0.188,1.465,0.188c0.398,0,0.75-0.094,1.055-0.281
		s0.58-0.479,0.826-0.873s0.531-1.02,0.855-1.875s0.533-1.412,0.627-1.67L53.608,139.528z"/>
	<path d="M67.746,151.352c0-0.766,0.312-1.148,0.938-1.148c0.641,0,0.961,0.383,0.961,1.148s-0.32,1.148-0.961,1.148
		C68.059,152.501,67.746,152.118,67.746,151.352z M69.059,147.849h-0.715l-0.34-12.715h1.395L69.059,147.849z"/>
	<path d="M76.704,143.536c-0.383,0-0.805,0.119-1.266,0.357s-0.91,0.588-1.348,1.049v-1.102c0.844-0.859,1.754-1.289,2.73-1.289
		c0.477,0,0.926,0.053,1.348,0.158s1.027,0.33,1.816,0.674c0.984,0.453,1.844,0.68,2.578,0.68c0.438,0,0.865-0.119,1.283-0.357
		s0.869-0.607,1.354-1.107v1.125c-0.375,0.383-0.783,0.699-1.225,0.949s-0.947,0.375-1.518,0.375c-0.906,0-1.961-0.281-3.164-0.844
		C78.325,143.759,77.462,143.536,76.704,143.536z"/>
</g>
<g>
	<g>
		<g>
			<path class="st0" d="M455.265,32h-13c-8.837,0-16-7.163-16-16v0c0-8.837,7.163-16,16-16h13c8.837,0,16,7.163,16,16v0
				C471.265,24.837,464.102,32,455.265,32z"/>
		</g>
	</g>
	<g>
		<g>
			<path class="st1" d="M446.523,10.47c1.212,0,2.137,0.647,2.775,1.941c0.337,1.034,0.506,1.989,0.506,2.864v0.595
				c0,1.08-0.223,2.172-0.67,3.274c-0.674,1.039-1.527,1.559-2.557,1.559h-0.082c-1.121,0-2-0.59-2.639-1.771
				c-0.392-1.003-0.588-2.11-0.588-3.322v-0.075c0-1.285,0.232-2.454,0.697-3.507C444.654,10.989,445.507,10.47,446.523,10.47z
				 M444.609,15.46v0.28c0,1.153,0.205,2.114,0.615,2.885c0.369,0.456,0.786,0.684,1.251,0.684h0.075
				c1.043,0,1.657-0.836,1.839-2.509c0.05-0.278,0.084-0.69,0.103-1.237c0-0.976-0.167-1.902-0.499-2.782
				c-0.383-0.61-0.864-0.916-1.442-0.916c-0.707,0-1.228,0.395-1.565,1.183C444.734,13.881,444.609,14.686,444.609,15.46z"/>
		</g>
		<g>
			<path class="st1" d="M452.642,10.47h0.13c0.433,0.096,0.649,0.312,0.649,0.649v8.907c-0.082,0.451-0.314,0.677-0.697,0.677
				h-0.048c-0.451-0.096-0.677-0.31-0.677-0.643v-7.902c-0.305,0.101-0.54,0.15-0.704,0.15c-0.324,0-0.538-0.217-0.643-0.649v-0.157
				c0-0.364,0.399-0.629,1.196-0.793L452.642,10.47z"/>
		</g>
	</g>
</g>
<rect x="1.611" y="0.075" width="391.021" height="21.763"/>
<g>
	<path class="st1" d="M8.384,16V7.434h1.4V16H8.384z"/>
	<path class="st1" d="M19.483,16h-1.717l-4.213-6.826h-0.047l0.029,0.381c0.055,0.727,0.082,1.391,0.082,1.992V16h-1.271V7.434
		h1.699l4.201,6.791h0.035c-0.008-0.09-0.023-0.417-0.047-0.981S18.2,12.238,18.2,11.922V7.434h1.283V16z"/>
	<path class="st1" d="M23.434,16h-1.389V7.434h4.834v1.184h-3.445v2.678h3.229v1.189h-3.229V16z"/>
	<path class="st1" d="M36.337,11.705c0,1.395-0.349,2.479-1.046,3.252s-1.685,1.16-2.962,1.16c-1.293,0-2.286-0.384-2.979-1.151
		s-1.04-1.858-1.04-3.272s0.349-2.5,1.046-3.258s1.692-1.137,2.985-1.137c1.273,0,2.258,0.385,2.953,1.154
		S36.337,10.307,36.337,11.705z M29.798,11.705c0,1.055,0.213,1.854,0.639,2.399s1.057,0.817,1.893,0.817
		c0.832,0,1.46-0.27,1.884-0.809s0.636-1.342,0.636-2.408c0-1.051-0.21-1.848-0.63-2.391S33.173,8.5,32.341,8.5
		c-0.84,0-1.474,0.271-1.901,0.814S29.798,10.654,29.798,11.705z"/>
</g>
<line class="st2" x1="412.474" y1="0.075" x2="412.474" y2="38.026"/>
</svg>