<!-- Generator: Adobe Illustrator 21.0.0, SVG Export Plug-In  -->
<svg version="1.1"
	 xmlns="http://www.w3.org/2000/svg" xmlns:xlink="http://www.w3.org/1999/xlink" xmlns:a="http://ns.adobe.com/AdobeSVGViewerExtensions/3.0/"
	 x="0px" y="0px" width="234.356px" height="35.235px" viewBox="0 0 234.356 35.235"
	 style="enable-background:new 0 0 234.356 35.235;" xml:space="preserve">
<style type="text/css">
	.st0{fill:#FFFFFF;}
	.st1{fill:none;stroke:#FFFFFF;stroke-width:1.8244;stroke-miterlimit:10;}
	.st2{fill:#FFFFFF;stroke:#FFFFFF;stroke-width:0.6864;stroke-miterlimit:10;}
</style>
<defs>
</defs>
<g>
	<g>
		<g>
			<path class="st0" d="M56.592,14.528c0.373-3.146,5.125-3.714,7.363-1.995c1.103,0.892-0.065,2.303-1.038,1.589
				c-1.2-0.762-3.925-1.119-4.265,0.568c-0.438,2.66,6.617,1.135,6.503,5.449c-0.113,4.119-6.082,4.217-8.32,2.368
				c-0.535-0.438-0.519-1.151-0.227-1.589c0.422-0.422,0.892-0.568,1.443-0.114c1.33,0.908,4.752,1.589,4.995-0.713
				C62.836,17.69,56.089,19.134,56.592,14.528z"/>
			<path class="st0" d="M68.658,13.231c0-0.584,0.13-1.152,0.973-1.152c0.584,0,0.714,0.146,1.151,0.568l5.368,6.714v-6.292
				c0-0.535,0.47-1.119,1.022-1.119c0.584,0,1.151,0.584,1.151,1.119v9.131c0,0.713-0.438,0.989-0.86,1.119
				c-0.568,0-0.843-0.13-1.314-0.568l-5.368-6.811v6.26c0,0.713-0.438,1.119-1.022,1.119c-0.584,0-1.103-0.405-1.103-1.119V13.231z"
				/>
			<path class="st0" d="M87.908,23.48c-3,0.13-6.114-1.865-6.114-5.838c0-3.99,3.114-5.952,6.114-5.952
				c2.838,0.146,5.806,2.108,5.806,5.952C93.713,21.485,90.746,23.48,87.908,23.48z M87.729,13.798
				c-1.816,0-3.795,1.281-3.795,3.844c0,2.546,1.979,3.844,3.795,3.844c1.865,0,3.86-1.297,3.86-3.844
				C91.589,15.079,89.594,13.798,87.729,13.798z"/>
			<path class="st0" d="M108.649,19.442l2.416-6.681c0.487-1.314,2.449-0.698,1.962,0.713l-3.211,8.709
				c-0.292,0.925-0.568,1.2-1.119,1.2c-0.584,0-0.762-0.357-1.087-0.941l-2.822-6.406l-2.692,6.309
				c-0.292,0.681-0.568,1.07-1.151,1.07c-0.568,0-0.86-0.389-1.119-1.103l-3.146-8.839c-0.486-1.46,1.573-1.995,1.995-0.713
				l2.4,6.681l2.87-6.681c0.389-0.989,1.411-1.038,1.833-0.049L108.649,19.442z"/>
			<path class="st0" d="M115.768,13.62c-0.876-1.087,0.957-2.335,1.816-1.151l2.984,4.444l3.033-4.444
				c0.86-1.184,2.627,0,1.784,1.087l-3.795,5.4v3.341c0.146,1.411-2.141,1.411-2.141,0v-3.341L115.768,13.62z"/>
			<path class="st0" d="M151.284,22.588l-4.282-8.968c-0.632-1.281,1.281-2.335,1.995-0.989l1.444,3.26l1.865,4.282l1.833-4.282
				l1.443-3.26c0.649-1.233,2.53-0.454,1.979,0.892l-4.135,9.066C153.051,23.61,151.9,23.853,151.284,22.588z"/>
			<path class="st0" d="M160.916,13.068c0-1.33,2.141-1.379,2.141,0v9.26c0,1.346-2.141,1.378-2.141,0V13.068z"/>
			<path class="st0" d="M167.079,13.068c0-0.535,0.454-0.989,1.021-0.989c0.519,0,0.957,0.454,0.957,0.989v8.125h4.411
				c1.589,0,1.622,2.125,0,2.125h-5.368c-0.568,0-1.021-0.405-1.021-0.989V13.068z"/>
			<path class="st0" d="M177.961,13.068c0-0.535,0.454-0.989,1.021-0.989c0.519,0,0.957,0.454,0.957,0.989v8.125h4.411
				c1.589,0,1.622,2.125,0,2.125h-5.368c-0.568,0-1.021-0.405-1.021-0.989V13.068z"/>
			<path class="st0" d="M211.773,22.069c-1.151,0.957-2.562,1.362-3.989,1.362c-3.406,0-5.822-1.946-5.822-5.806
				c0-3.276,2.546-5.822,5.968-5.822c1.281,0,2.692,0.438,3.698,1.427c0.989,0.973-0.438,2.417-1.411,1.557
				c-0.6-0.584-1.444-1.022-2.287-1.022c-1.962,0-3.86,1.573-3.86,3.86c0,2.4,1.589,3.86,3.714,3.86c0.989,0,1.832-0.292,2.433-0.73
				v-1.995h-2.433c-1.444,0-1.297-1.978,0-1.978h3.243c0.6,0,1.151,0.454,1.151,0.957v3.454
				C212.179,21.485,212.049,21.761,211.773,22.069z"/>
			<path class="st0" d="M217.141,23.318c-0.568,0-1.005-0.438-1.005-1.005v-9.212c0-0.584,0.438-1.006,1.005-1.006h5.822
				c1.492,0,1.46,2.108,0,2.108h-4.671v2.433h4.087c1.443,0,1.443,2.125,0,2.125h-4.087v2.433h4.946c1.476,0,1.59,2.125,0,2.125
				H217.141z"/>
		</g>
		<circle class="st1" cx="87.622" cy="7.887" r="3.649"/>
		<g>
			<path class="st0" d="M188.57,14.543c-0.519-0.292-0.843-0.876-0.519-1.557l4.655-9.098c0.438-0.86,1.605-0.892,2.011,0
				l4.573,9.098c0.665,1.265-1.297,2.27-1.881,1.005l-0.714-1.427h-5.984l-0.697,1.427C189.754,14.543,189.154,14.656,188.57,14.543
				z M195.544,10.424l-1.833-4.006l-1.995,4.006H195.544z"/>
		</g>
		<path class="st1" d="M197.055,21.797c0,0.446-0.365,0.811-0.811,0.811h-5.203c-0.446,0-0.811-0.365-0.811-0.811v-9.653
			c0-0.446,0.365-0.811,0.811-0.811h5.203c0.446,0,0.811,0.365,0.811,0.811V21.797z"/>
		<g>
			<path class="st0" d="M136.139,10.606c0,0-0.239,0.446-0.531,0.991c-0.292,0.545-0.607,1.035-0.699,1.088
				c-0.092,0.054-0.557-0.112-0.769-0.222s-0.256,0.486-0.098,1.322s0.227,1.646,0.154,1.799c-0.073,0.153-0.626-0.301-0.995-0.714
				c-0.369-0.413-0.72-0.579-0.78-0.37c-0.06,0.21-0.139,0.428-0.177,0.484c-0.037,0.057-0.615-0.003-1.082-0.101
				s-0.748,0.186-0.626,0.632c0.123,0.446,0.261,0.925,0.308,1.065c0.047,0.14-0.317,0.414-0.484,0.492
				c-0.166,0.078,0.355,0.676,1.158,1.328c0.803,0.653,1.5,1.243,1.548,1.312c0.048,0.069-0.012,0.461-0.082,0.691
				s0.301,0.354,0.826,0.274c0.524-0.08,2.013-0.222,2.079-0.184c0.065,0.038,0.088,0.863,0.052,1.709
				c-0.037,0.845,0.043,1.537,0.178,1.537s0.227-0.69,0.206-1.534s-0.008-1.591,0.029-1.662s0.585-0.055,1.11,0.022
				s1.902,0.068,1.832-0.162c-0.07-0.231-0.124-0.489-0.119-0.573c0.005-0.085,0.782-0.778,1.585-1.43
				c0.803-0.653,1.325-1.25,1.158-1.328s-0.346-0.197-0.398-0.264c-0.053-0.067,0.1-0.848,0.223-1.293
				c0.123-0.446-0.159-0.73-0.626-0.632c-0.467,0.098-0.911,0.16-0.987,0.138s-0.212-0.312-0.272-0.521
				c-0.06-0.21-0.411-0.043-0.78,0.37c-0.369,0.413-0.801,0.805-0.96,0.871c-0.159,0.066-0.039-1.12,0.118-1.957
				c0.158-0.837,0.113-1.432-0.098-1.322c-0.211,0.109-0.482,0.23-0.6,0.269c-0.119,0.039-0.216,0.07-0.336-0.145"/>
		</g>
		<circle class="st0" cx="87.706" cy="15.506" r="0.524"/>
		<circle class="st0" cx="87.706" cy="17.736" r="0.524"/>
	</g>
	<path class="st0" d="M47.105,17.705c0-1.896,0.277-3.669,0.831-5.321c0.489-1.457,1.17-2.756,2.039-3.896
		c0.218-0.285,0.559-0.449,0.918-0.449h0.012c0.881,0,1.444,0.943,1.022,1.717c-0.488,0.895-0.886,1.839-1.196,2.832
		c-0.515,1.652-0.772,3.35-0.772,5.096c0,1.752,0.264,3.445,0.788,5.08c0.309,0.959,0.695,1.864,1.157,2.715
		c0.421,0.776-0.137,1.72-1.02,1.72l0,0c-0.353,0-0.69-0.158-0.908-0.436c-0.876-1.115-1.558-2.39-2.044-3.823
		C47.381,21.317,47.105,19.571,47.105,17.705z"/>
	<path class="st0" d="M234.356,17.705c0,1.88-0.277,3.634-0.831,5.256c-0.493,1.442-1.179,2.718-2.058,3.827
		c-0.207,0.261-0.525,0.41-0.858,0.41h-0.139c-0.835,0-1.368-0.895-0.965-1.627c0.482-0.874,0.883-1.807,1.204-2.799
		c0.529-1.634,0.794-3.33,0.794-5.089c0-1.746-0.257-3.443-0.772-5.096c-0.32-1.027-0.736-2.002-1.247-2.924
		c-0.404-0.729,0.133-1.625,0.967-1.625h0.148c0.339,0,0.662,0.155,0.869,0.424c0.885,1.153,1.573,2.465,2.063,3.938
		C234.08,14.056,234.356,15.824,234.356,17.705z"/>
</g>
<g>
	<g>
		<path class="st2" d="M28.602,6.089c-0.008-0.004-0.017-0.007-0.025-0.012c-0.046-0.024-0.09-0.053-0.133-0.082
			c-0.129-0.073-0.252-0.157-0.368-0.253c-0.128-0.092-0.244-0.201-0.344-0.319c-0.021-0.021-0.039-0.042-0.055-0.066
			c-0.055-0.058-0.105-0.118-0.154-0.181c-0.006-0.005-0.012-0.012-0.019-0.017c-0.023-0.042-0.051-0.079-0.076-0.118
			c-0.009-0.013-0.018-0.024-0.027-0.037c-0.002-0.003-0.002-0.006-0.002-0.006c-0.012-0.017-0.019-0.033-0.03-0.046
			c-0.351-1.087-0.583-2.107-1.702-2.783c-0.509-0.308-1.106-0.37-1.685-0.358c-1.235,0.025-1.876,0.228-2.865-0.72
			c-2.317-2.222-4.845,1.177-7.164,1.592c-0.025-0.012-0.05-0.027-0.074-0.036c-0.534-0.198-0.929-0.265-1.492-0.163
			c-1.012,0.182-1.505,1.261-1.761,2.228c-0.028,0.024-0.056,0.051-0.081,0.083c-0.33,0.414-0.363,1.147-0.953,1.244
			c-0.489,0.08-1.812,2.161-1.542,2.928C8.265,9.578,9.182,9.16,8.967,8.551C8.842,8.197,8.797,7.85,8.921,7.49
			c0.162-0.47,0.84-0.443,1.231-0.54c0.844-0.209,0.75-0.992,1.204-1.56c0.116-0.146,0.13-0.297,0.085-0.429
			c0.408-0.656,0.93-1.097,1.527-1.135c0,0,0.011-0.003,0.017-0.004c0.045-0.007,0.084-0.006,0.122-0.002
			c0.122-0.014,0.251,0.002,0.371,0.011c0.18,0.013,0.366,0.018,0.544,0.047c0.051,0.008,0.101,0.02,0.148,0.034
			c0.246-0.063,0.49-0.172,0.718-0.27c0.038-0.027,0.082-0.048,0.13-0.058c0.038-0.018,0.074-0.041,0.113-0.057
			c0.004-0.002,0.008-0.003,0.008-0.003c0.316-0.13,0.623-0.29,0.934-0.479c1.228-0.746,3.037-2.324,4.442-0.977
			c0.841,0.807,1.58,1.011,2.743,0.934c0.985-0.065,1.742-0.148,2.447,0.666c0.498,0.574,0.575,1.517,0.822,2.265l0.005,0.008
			c0.02,0.043,0.04,0.083,0.06,0.122c0.007,0.011,0.014,0.022,0.019,0.033l0.004,0.008c0.032,0.043,0.06,0.089,0.084,0.138
			c0.055,0.066,0.116,0.127,0.18,0.184c0.044,0.041,0.078,0.085,0.104,0.129c0.019,0.019,0.04,0.037,0.06,0.055
			c0.08,0.069,0.161,0.138,0.243,0.205c0.254,0.194,0.538,0.354,0.827,0.459c0.071-0.409,0.371-0.774,0.834-0.958
			c0.01-0.004,0.021-0.008,0.031-0.012C28.846,6.243,28.72,6.171,28.602,6.089z"/>
		<path class="st2" d="M35.861,17.607c-0.013-0.022-0.025-0.044-0.04-0.065c-0.013-0.018-0.028-0.035-0.042-0.053
			c-0.024-0.046-0.055-0.088-0.09-0.127c-0.012-0.018-0.028-0.033-0.042-0.05c-0.059-0.093-0.147-0.167-0.262-0.214
			c-0.017-0.012-0.033-0.027-0.05-0.038c-0.313-0.202-0.648-0.234-0.994-0.12c-0.018,0-0.035-0.001-0.053,0
			c0.464-1.543,0.516-2.997-0.727-4.098c-0.041-0.075-0.082-0.151-0.091-0.236c-0.001-0.005-0.003-0.01-0.005-0.015
			c0.001-0.028-0.001-0.055-0.009-0.082c-0.003-0.531-0.091-1.056-0.486-1.451c-0.108-0.108-0.233-0.189-0.367-0.256
			c-0.026,0.022-0.055,0.043-0.084,0.063c-0.237,0.154-0.463,0.373-0.758,0.475c-0.044,0.033-0.089,0.062-0.135,0.089
			c0.009,0.015,0.019,0.031,0.029,0.045l-0.001,0.001c0.008,0.007,0.015,0.014,0.021,0.023c0.04,0.031,0.078,0.071,0.114,0.111
			c0.408,0.226,0.606,0.515,0.529,1.346c-0.017,0.193,0.062,0.401,0.227,0.513c1.349,0.92,1.003,2.132,0.635,3.518
			c-0.026,0.095-0.02,0.183-0.003,0.265c-0.168,0.053-0.331,0.103-0.498,0.156c0.335,0.568,0.528,1.223,0.508,1.925
			c0.349-0.185,0.69-0.378,1.017-0.586c-1.896,7.755-5.853,14.619-14.848,14.492c-8.406-0.12-18.077-6.997-17.982-15.859
			c0.259,0.187,0.528,0.356,0.794,0.53c0.122-0.621,0.405-1.219,0.803-1.728c-0.058-0.115-0.114-0.23-0.165-0.348
			c-0.405-0.945,0.787-1.482,1.537-1.584c0.327-0.044,0.509-0.36,0.477-0.668c-0.014-0.131-0.192-1.139-0.061-1.214
			c0.138-0.08,0.436,0.001,0.583,0.017c0.496,0.05,0.959,0.087,1.382-0.21c0.232-0.162,0.171-0.583-0.103-0.666
			c-0.614-0.185-1.564-0.41-2.2-0.256c-0.919,0.223-0.932,1.294-0.815,2.107c-0.87,0.428-1.72,0.749-1.944,1.838
			c-0.1,0.491,0.092,0.987,0.386,1.44c-0.233-0.128-0.466-0.257-0.697-0.393c-0.452-0.267-0.91,0.264-0.616,0.633l-0.005,0.011
			c-2.717,9.635,9.543,16.984,17.539,17.894c10.334,1.176,16.215-7.361,17.757-16.543C36.072,17.963,35.997,17.754,35.861,17.607z"
			/>
		<path class="st2" d="M8.084,9.471C7.615,9.424,7.109,9.416,6.699,9.68c-0.505,0.324-0.378,0.951-0.332,1.454
			c0.026,0.273,0.323,0.457,0.579,0.415c0.285-0.047,0.44-0.306,0.414-0.579c-0.014-0.15-0.037-0.298-0.048-0.448
			c0,0,0.001-0.02,0.002-0.034c0,0,0.005-0.002,0.008-0.004c0.159-0.067,0.438-0.033,0.657-0.011
			C8.625,10.538,8.731,9.537,8.084,9.471z"/>
		<path class="st2" d="M10.803,4.877c-0.104-0.011-0.168,0.054-0.188,0.132c-0.007,0.008-0.014,0.017-0.019,0.027
			c-0.07,0.102-0.038,0.277,0.123,0.294c0.061,0.006,0.108-0.014,0.142-0.047c0.039-0.029,0.064-0.073,0.072-0.121
			C10.994,5.059,10.959,4.894,10.803,4.877z"/>
		<path class="st2" d="M32.057,9.986c0.048-0.47,0.055-0.975-0.208-1.386c-0.324-0.505-0.951-0.378-1.454-0.332
			c-0.273,0.026-0.457,0.323-0.414,0.579c0.047,0.285,0.306,0.44,0.579,0.414c0.15-0.014,0.298-0.037,0.448-0.048
			c0,0,0.02,0.001,0.034,0.002l0.002,0.005c0.069,0.162,0.034,0.441,0.012,0.66C30.99,10.526,31.991,10.632,32.057,9.986z"/>
		<path class="st2" d="M30.289,7.63c-0.156-1.014-1.004-1.571-1.984-1.587c-0.641-0.01-0.799,0.733-0.478,1.109
			c0.164,0.081,0.332,0.147,0.499,0.191c0.023,0.005,0.045,0.011,0.066,0.018c0.008,0.002,0.015,0.005,0.015,0.005
			c0.175,0.011,0.266,0.038,0.406,0.127c-0.03-0.018,0.008,0.017,0.041,0.045c0.01,0.017,0.06,0.079,0.068,0.092
			c0.008,0.013,0.013,0.022,0.018,0.03c0.003,0.011,0.008,0.026,0.015,0.047c0.03,0.089,0.046,0.182,0.06,0.274
			c0.055,0.357,0.497,0.549,0.813,0.462C30.204,8.34,30.343,7.986,30.289,7.63z"/>
		<path class="st2" d="M32.5,10.735c-0.016-0.005-0.032-0.01-0.048-0.015c0,0-0.012-0.002-0.017-0.004
			c-0.034-0.02-0.07-0.037-0.108-0.051c-0.131-0.048-0.269-0.059-0.404-0.092c-0.083-0.02-0.167-0.022-0.246-0.007
			c-0.129-0.017-0.259-0.028-0.391-0.031c-0.061-0.001-0.114,0.011-0.159,0.031c-0.226,0.063-0.396,0.313-0.396,0.538
			c0,0.326,0.253,0.517,0.551,0.551c0.278,0.032,0.522,0.049,0.753,0.091c0.295,0.053,0.593-0.076,0.678-0.385
			c0.011-0.041,0.017-0.083,0.018-0.124c0-0.007,0-0.013,0.001-0.02C32.807,11.041,32.753,10.813,32.5,10.735z"/>
	</g>
	<g>
		<rect x="13.391" y="13.723" class="st0" width="3.619" height="4.355"/>
		<rect x="21.458" y="13.723" class="st0" width="3.618" height="2.188"/>
		<path class="st0" d="M33.485,15.604l-2.478-6.39l-3.485-4.038l-5.252-3.952l-4.276-0.156l-5.01,2.755L11.356,5.39L8.857,7.782
			l-1.535,2.702l-2.563,1.883l-1.566,1.977l-1.146,2.294l-0.672,2.737v3.472l6.044,6.923l8.238,3.002l6.614,1.269l7.703-4.271
			l5.247-10.396L33.485,15.604z M9.074,14.597H7.912v-1.163l1.162-1.162V14.597z M10.811,14.597H9.648v-1.163l1.164-1.162V14.597z
			 M18.275,21.715h-4.707v1.462h4.344v1.452h-4.344v1.441h4.707v1.452h-6.159v-7.258h6.159V21.715z M18.451,18.814l-0.715,0.715
			h-5.08l-0.715-0.715v-5.806l0.715-0.736h5.08l0.715,0.736V18.814z M26.238,27.521h-1.441l-3.618-4.842v4.842h-1.452v-7.258h1.452
			l3.618,4.832v-4.832h1.441V27.521z M26.518,16.636l-0.715,0.726h-4.344v2.167h-1.452v-7.258h5.796l0.715,0.736V16.636z
			 M28.329,26.498l-1.162,1.164v-2.334h1.162V26.498z M30.066,26.498l-1.164,1.164v-2.334h1.164V26.498z"/>
	</g>
</g>
</svg>