<!-- Generator: Adobe Illustrator 21.0.0, SVG Export Plug-In  -->
<svg version="1.1"
	 xmlns="http://www.w3.org/2000/svg" xmlns:xlink="http://www.w3.org/1999/xlink" xmlns:a="http://ns.adobe.com/AdobeSVGViewerExtensions/3.0/"
	 x="0px" y="0px" width="30.199px" height="30.199px" viewBox="0 0 30.199 30.199"
	 style="enable-background:new 0 0 30.199 30.199;" xml:space="preserve">
<style type="text/css">
	.st0{fill:#FFFFFF;}
</style>
<defs>
</defs>
<g>
	<path d="M15.098,0C6.774,0,0,6.775,0,15.099c0,8.327,6.774,15.101,15.098,15.101c8.327,0,15.102-6.774,15.102-15.101
		C30.199,6.775,23.425,0,15.098,0L15.098,0z M18.855,15.63"/>
</g>
<path class="st0" d="M18.855,15.775h-2.456v8.758h-3.641v-8.758h-1.731v-3.094h1.731v-2.002c0-1.432,0.68-3.674,3.674-3.674
	l2.697,0.011v3.003h-1.957c-0.318,0-0.772,0.16-0.772,0.843v1.821h2.774L18.855,15.775z"/>
</svg>