<!-- Generator: Adobe Illustrator 21.0.0, SVG Export Plug-In  -->
<svg version="1.1"
	 xmlns="http://www.w3.org/2000/svg" xmlns:xlink="http://www.w3.org/1999/xlink" xmlns:a="http://ns.adobe.com/AdobeSVGViewerExtensions/3.0/"
	 x="0px" y="0px" width="30.199px" height="30.199px" viewBox="0 0 30.199 30.199"
	 style="enable-background:new 0 0 30.199 30.199;" xml:space="preserve">
<style type="text/css">
	.st0{fill:#FFFFFF;}
</style>
<defs>
</defs>
<path d="M15.098,0C6.774,0,0,6.775,0,15.099c0,8.327,6.774,15.101,15.098,15.101c8.327,0,15.102-6.774,15.102-15.101
	C30.199,6.775,23.425,0,15.098,0L15.098,0z"/>
<g>
	<path class="st0" d="M19.018,7.145H11.29c-2.625,0-4.76,2.135-4.76,4.76v7.729c0,2.625,2.135,4.76,4.76,4.76h7.729
		c2.625,0,4.76-2.136,4.76-4.76v-7.729C23.779,9.28,21.643,7.145,19.018,7.145L19.018,7.145z M22.248,19.634
		c0,1.781-1.449,3.23-3.23,3.23H11.29c-1.781,0-3.23-1.449-3.23-3.23v-7.729c0-1.781,1.449-3.23,3.23-3.23h7.729
		c1.781,0,3.23,1.449,3.23,3.23V19.634z M22.248,19.634"/>
	<path class="st0" d="M15.154,11.325c-2.451,0-4.445,1.994-4.445,4.444c0,2.451,1.994,4.445,4.445,4.445
		c2.451,0,4.445-1.994,4.445-4.445C19.599,13.319,17.605,11.325,15.154,11.325L15.154,11.325z M15.154,18.683
		c-1.607,0-2.914-1.307-2.914-2.914c0-1.607,1.307-2.914,2.914-2.914s2.914,1.308,2.914,2.914
		C18.068,17.376,16.761,18.683,15.154,18.683L15.154,18.683z M15.154,18.683"/>
	<path class="st0" d="M19.785,10.027c-0.295,0-0.584,0.119-0.793,0.328c-0.21,0.208-0.33,0.498-0.33,0.794
		c0,0.295,0.121,0.584,0.33,0.794c0.208,0.208,0.498,0.328,0.793,0.328c0.296,0,0.584-0.12,0.794-0.328
		c0.209-0.209,0.329-0.499,0.329-0.794c0-0.296-0.119-0.586-0.329-0.794C20.37,10.146,20.081,10.027,19.785,10.027L19.785,10.027z
		 M19.785,10.027"/>
</g>
</svg>