<!-- Generator: Adobe Illustrator 21.0.0, SVG Export Plug-In  -->
<svg version="1.1"
	 xmlns="http://www.w3.org/2000/svg" xmlns:xlink="http://www.w3.org/1999/xlink" xmlns:a="http://ns.adobe.com/AdobeSVGViewerExtensions/3.0/"
	 x="0px" y="0px" width="382.117px" height="57.881px" viewBox="0 0 382.117 57.881"
	 style="enable-background:new 0 0 382.117 57.881;" xml:space="preserve">
<style type="text/css">
	.st0{fill:#FFFFFF;}
	.st1{fill:#F2F2F2;}
</style>
<defs>
</defs>
<path class="st0" d="M196.663,0h2.388v57.881h-2.388V0z"/>
<g>
	<path class="st1" d="M0,38.755V13.056h5.449v21.199h10.424v4.5H0z"/>
	<path class="st1" d="M39.574,28.894c0,3.199-0.844,5.701-2.531,7.506s-4.037,2.707-7.049,2.707c-1.887,0-3.551-0.413-4.992-1.239
		s-2.549-2.013-3.322-3.56s-1.16-3.352-1.16-5.414c0-3.211,0.838-5.707,2.514-7.488s4.031-2.672,7.066-2.672
		c1.887,0,3.551,0.41,4.992,1.23s2.549,1.998,3.322,3.533S39.574,26.831,39.574,28.894z M25.986,28.894
		c0,1.945,0.32,3.416,0.959,4.412s1.678,1.494,3.119,1.494c1.43,0,2.459-0.495,3.086-1.485s0.939-2.464,0.939-4.421
		c0-1.945-0.316-3.404-0.949-4.377s-1.67-1.459-3.111-1.459c-1.43,0-2.461,0.483-3.094,1.45S25.986,26.937,25.986,28.894z"/>
	<path class="st1" d="M53.785,39.106c-6.117,0-9.176-3.357-9.176-10.072c0-3.34,0.832-5.892,2.496-7.655s4.049-2.646,7.154-2.646
		c2.273,0,4.312,0.445,6.117,1.336l-1.582,4.148c-0.844-0.34-1.629-0.618-2.355-0.835s-1.453-0.325-2.18-0.325
		c-2.789,0-4.184,1.98-4.184,5.941c0,3.844,1.395,5.766,4.184,5.766c1.031,0,1.986-0.138,2.865-0.413s1.758-0.706,2.637-1.292v4.588
		c-0.867,0.551-1.744,0.932-2.629,1.143S55.133,39.106,53.785,39.106z"/>
	<path class="st1" d="M78.596,38.755l-1.037-2.672h-0.141c-0.902,1.137-1.832,1.925-2.787,2.364s-2.199,0.659-3.734,0.659
		c-1.887,0-3.373-0.539-4.457-1.617s-1.625-2.613-1.625-4.605c0-2.086,0.729-3.624,2.188-4.614s3.66-1.538,6.602-1.644l3.41-0.105
		v-0.861c0-1.992-1.02-2.988-3.059-2.988c-1.57,0-3.416,0.475-5.537,1.424l-1.775-3.621c2.262-1.184,4.77-1.775,7.523-1.775
		c2.637,0,4.658,0.574,6.064,1.723s2.109,2.895,2.109,5.238v13.096H78.596z M77.014,29.649l-2.074,0.07
		c-1.559,0.047-2.719,0.328-3.48,0.844s-1.143,1.301-1.143,2.355c0,1.512,0.867,2.268,2.602,2.268c1.242,0,2.234-0.357,2.979-1.072
		s1.117-1.664,1.117-2.848V29.649z"/>
	<path class="st1" d="M97.938,34.835c0.938,0,2.062-0.205,3.375-0.615v3.99c-1.336,0.598-2.977,0.896-4.922,0.896
		c-2.145,0-3.705-0.542-4.684-1.626s-1.469-2.71-1.469-4.878v-9.475h-2.566V20.86l2.953-1.793l1.547-4.148H95.6v4.184h5.502v4.025
		H95.6v9.475c0,0.762,0.215,1.324,0.643,1.688S97.234,34.835,97.938,34.835z"/>
	<path class="st1" d="M106.857,14.022c0-1.746,0.973-2.619,2.918-2.619s2.918,0.873,2.918,2.619c0,0.832-0.244,1.479-0.73,1.942
		s-1.215,0.694-2.188,0.694C107.83,16.659,106.857,15.78,106.857,14.022z M112.447,38.755h-5.361V19.103h5.361V38.755z"/>
	<path class="st1" d="M137.73,28.894c0,3.199-0.844,5.701-2.531,7.506s-4.037,2.707-7.049,2.707c-1.887,0-3.551-0.413-4.992-1.239
		s-2.549-2.013-3.322-3.56s-1.16-3.352-1.16-5.414c0-3.211,0.838-5.707,2.514-7.488s4.031-2.672,7.066-2.672
		c1.887,0,3.551,0.41,4.992,1.23s2.549,1.998,3.322,3.533S137.73,26.831,137.73,28.894z M124.143,28.894
		c0,1.945,0.32,3.416,0.959,4.412s1.678,1.494,3.119,1.494c1.43,0,2.459-0.495,3.086-1.485s0.939-2.464,0.939-4.421
		c0-1.945-0.316-3.404-0.949-4.377s-1.67-1.459-3.111-1.459c-1.43,0-2.461,0.483-3.094,1.45S124.143,26.937,124.143,28.894z"/>
	<path class="st1" d="M162.102,38.755h-5.361V27.276c0-1.418-0.252-2.481-0.756-3.19s-1.307-1.063-2.408-1.063
		c-1.5,0-2.584,0.501-3.252,1.503s-1.002,2.663-1.002,4.983v9.246h-5.361V19.103h4.096l0.721,2.514h0.299
		c0.598-0.949,1.42-1.667,2.469-2.153s2.242-0.729,3.578-0.729c2.285,0,4.02,0.618,5.203,1.854s1.775,3.021,1.775,5.353V38.755z"/>
	<path class="st1" d="M183.133,32.919c0,2.016-0.701,3.551-2.102,4.605s-3.494,1.582-6.283,1.582c-1.43,0-2.648-0.097-3.656-0.29
		s-1.951-0.478-2.83-0.853v-4.43c0.996,0.469,2.117,0.861,3.365,1.178s2.348,0.475,3.297,0.475c1.945,0,2.918-0.562,2.918-1.688
		c0-0.422-0.129-0.765-0.387-1.028s-0.703-0.562-1.336-0.896s-1.477-0.724-2.531-1.169c-1.512-0.633-2.623-1.219-3.332-1.758
		s-1.225-1.157-1.547-1.854s-0.482-1.556-0.482-2.575c0-1.746,0.676-3.097,2.029-4.052s3.273-1.433,5.758-1.433
		c2.367,0,4.67,0.516,6.908,1.547l-1.617,3.867c-0.984-0.422-1.904-0.768-2.76-1.037s-1.729-0.404-2.619-0.404
		c-1.582,0-2.373,0.428-2.373,1.283c0,0.48,0.254,0.896,0.764,1.248s1.627,0.873,3.35,1.564c1.535,0.621,2.66,1.201,3.375,1.74
		s1.242,1.16,1.582,1.863S183.133,31.946,183.133,32.919z"/>
</g>
<g>
	<path class="st0" d="M222.68,26.126c0,1.828-0.462,3.266-1.387,4.312s-2.21,1.57-3.855,1.57c-1.683,0-2.98-0.515-3.895-1.543
		s-1.371-2.48-1.371-4.355c0-1.859,0.458-3.301,1.375-4.324s2.219-1.535,3.906-1.535c1.641,0,2.922,0.521,3.844,1.562
		S222.68,24.293,222.68,26.126z M213.578,26.126c0,1.547,0.329,2.72,0.988,3.52s1.616,1.199,2.871,1.199
		c1.266,0,2.222-0.398,2.867-1.195s0.969-1.972,0.969-3.523c0-1.536-0.321-2.702-0.965-3.496s-1.595-1.191-2.855-1.191
		c-1.266,0-2.228,0.399-2.887,1.199S213.578,24.6,213.578,26.126z"/>
	<path class="st0" d="M226.25,23.29v5.555c0,0.698,0.159,1.219,0.477,1.562s0.815,0.516,1.492,0.516
		c0.896,0,1.551-0.245,1.965-0.734s0.621-1.289,0.621-2.398v-4.5h1.297v8.562h-1.07l-0.188-1.148h-0.07
		c-0.266,0.422-0.634,0.745-1.105,0.969s-1.009,0.336-1.613,0.336c-1.042,0-1.821-0.247-2.34-0.742s-0.777-1.286-0.777-2.375V23.29
		H226.25z"/>
	<path class="st0" d="M238.758,23.134c0.38,0,0.722,0.031,1.023,0.094l-0.18,1.203c-0.354-0.078-0.667-0.117-0.938-0.117
		c-0.692,0-1.285,0.281-1.777,0.844s-0.738,1.263-0.738,2.102v4.594h-1.297V23.29h1.07l0.148,1.586h0.062
		c0.317-0.558,0.7-0.987,1.148-1.289S238.222,23.134,238.758,23.134z"/>
	<path class="st0" d="M251.062,29.517c0,0.797-0.297,1.411-0.891,1.844s-1.427,0.648-2.5,0.648c-1.136,0-2.021-0.18-2.656-0.539
		v-1.203c0.411,0.208,0.853,0.372,1.324,0.492s0.926,0.18,1.363,0.18c0.677,0,1.198-0.108,1.562-0.324s0.547-0.546,0.547-0.988
		c0-0.333-0.145-0.618-0.434-0.855s-0.853-0.517-1.691-0.84c-0.797-0.297-1.363-0.556-1.699-0.777s-0.586-0.473-0.75-0.754
		s-0.246-0.617-0.246-1.008c0-0.698,0.284-1.249,0.852-1.652s1.347-0.605,2.336-0.605c0.922,0,1.823,0.188,2.703,0.562l-0.461,1.055
		c-0.859-0.354-1.638-0.531-2.336-0.531c-0.614,0-1.078,0.097-1.391,0.289s-0.469,0.458-0.469,0.797
		c0,0.229,0.059,0.425,0.176,0.586s0.306,0.315,0.566,0.461s0.761,0.356,1.5,0.633c1.016,0.37,1.702,0.742,2.059,1.117
		S251.062,28.949,251.062,29.517z"/>
	<path class="st0" d="M255.938,30.938c0.229,0,0.45-0.017,0.664-0.051s0.383-0.069,0.508-0.105v0.992
		c-0.141,0.067-0.348,0.124-0.621,0.168s-0.52,0.066-0.738,0.066c-1.656,0-2.484-0.872-2.484-2.617v-5.094h-1.227v-0.625
		l1.227-0.539l0.547-1.828h0.75v1.984h2.484v1.008h-2.484v5.039c0,0.516,0.122,0.911,0.367,1.188S255.511,30.938,255.938,30.938z"/>
	<path class="st0" d="M266.211,27.563c0,1.396-0.352,2.485-1.055,3.27s-1.675,1.176-2.914,1.176c-0.766,0-1.445-0.18-2.039-0.539
		s-1.052-0.875-1.375-1.547s-0.484-1.458-0.484-2.359c0-1.396,0.349-2.483,1.047-3.262s1.667-1.168,2.906-1.168
		c1.198,0,2.149,0.398,2.855,1.195S266.211,26.204,266.211,27.563z M259.688,27.563c0,1.094,0.219,1.927,0.656,2.5
		s1.081,0.859,1.93,0.859s1.493-0.285,1.934-0.855s0.66-1.405,0.66-2.504c0-1.089-0.22-1.915-0.66-2.48s-1.09-0.848-1.949-0.848
		c-0.849,0-1.489,0.278-1.922,0.836S259.688,26.459,259.688,27.563z"/>
	<path class="st0" d="M272.391,23.134c0.38,0,0.722,0.031,1.023,0.094l-0.18,1.203c-0.354-0.078-0.667-0.117-0.938-0.117
		c-0.692,0-1.285,0.281-1.777,0.844s-0.738,1.263-0.738,2.102v4.594h-1.297V23.29h1.07l0.148,1.586h0.062
		c0.317-0.558,0.7-0.987,1.148-1.289S271.854,23.134,272.391,23.134z"/>
	<path class="st0" d="M278.633,32.009c-1.266,0-2.265-0.386-2.996-1.156s-1.098-1.841-1.098-3.211c0-1.38,0.34-2.477,1.02-3.289
		s1.593-1.219,2.738-1.219c1.073,0,1.922,0.353,2.547,1.059s0.938,1.637,0.938,2.793v0.82h-5.898
		c0.026,1.005,0.28,1.769,0.762,2.289s1.16,0.781,2.035,0.781c0.922,0,1.833-0.192,2.734-0.578v1.156
		c-0.458,0.198-0.892,0.34-1.301,0.426S279.211,32.009,278.633,32.009z M278.281,24.22c-0.688,0-1.235,0.224-1.645,0.672
		s-0.649,1.067-0.723,1.859h4.477c0-0.817-0.183-1.444-0.547-1.879S278.958,24.22,278.281,24.22z"/>
	<path class="st0" d="M288.039,20.97c0-0.297,0.073-0.515,0.219-0.652s0.328-0.207,0.547-0.207c0.208,0,0.388,0.07,0.539,0.211
		s0.227,0.356,0.227,0.648s-0.075,0.509-0.227,0.652s-0.331,0.215-0.539,0.215c-0.219,0-0.401-0.071-0.547-0.215
		S288.039,21.262,288.039,20.97z M289.445,31.853h-1.297V23.29h1.297V31.853z"/>
	<path class="st0" d="M298.055,31.853v-5.539c0-0.698-0.159-1.219-0.477-1.562s-0.815-0.516-1.492-0.516
		c-0.896,0-1.552,0.242-1.969,0.727s-0.625,1.284-0.625,2.398v4.492h-1.297V23.29h1.055l0.211,1.172h0.062
		c0.266-0.422,0.638-0.749,1.117-0.98s1.013-0.348,1.602-0.348c1.031,0,1.808,0.249,2.328,0.746s0.781,1.293,0.781,2.387v5.586
		H298.055z"/>
	<path class="st0" d="M305.875,24.298h-2.18v7.555h-1.297v-7.555h-1.531v-0.586l1.531-0.469v-0.477c0-2.104,0.919-3.156,2.758-3.156
		c0.453,0,0.984,0.091,1.594,0.273l-0.336,1.039c-0.5-0.161-0.927-0.242-1.281-0.242c-0.489,0-0.852,0.163-1.086,0.488
		s-0.352,0.848-0.352,1.566v0.555h2.18V24.298z"/>
	<path class="st0" d="M314.828,27.563c0,1.396-0.352,2.485-1.055,3.27s-1.675,1.176-2.914,1.176c-0.766,0-1.445-0.18-2.039-0.539
		s-1.052-0.875-1.375-1.547s-0.484-1.458-0.484-2.359c0-1.396,0.349-2.483,1.047-3.262s1.667-1.168,2.906-1.168
		c1.198,0,2.149,0.398,2.855,1.195S314.828,26.204,314.828,27.563z M308.305,27.563c0,1.094,0.219,1.927,0.656,2.5
		s1.081,0.859,1.93,0.859s1.493-0.285,1.934-0.855s0.66-1.405,0.66-2.504c0-1.089-0.22-1.915-0.66-2.48s-1.09-0.848-1.949-0.848
		c-0.849,0-1.489,0.278-1.922,0.836S308.305,26.459,308.305,27.563z"/>
	<path class="st0" d="M321.008,23.134c0.38,0,0.722,0.031,1.023,0.094l-0.18,1.203c-0.354-0.078-0.667-0.117-0.938-0.117
		c-0.692,0-1.285,0.281-1.777,0.844s-0.738,1.263-0.738,2.102v4.594h-1.297V23.29h1.07l0.148,1.586h0.062
		c0.317-0.558,0.7-0.987,1.148-1.289S320.472,23.134,321.008,23.134z"/>
	<path class="st0" d="M334.547,31.853v-5.57c0-0.683-0.146-1.194-0.438-1.535s-0.745-0.512-1.359-0.512
		c-0.808,0-1.403,0.231-1.789,0.695s-0.578,1.177-0.578,2.141v4.781h-1.297v-5.57c0-0.683-0.146-1.194-0.438-1.535
		s-0.747-0.512-1.367-0.512c-0.812,0-1.407,0.243-1.785,0.73s-0.566,1.285-0.566,2.395v4.492h-1.297V23.29h1.055l0.211,1.172h0.062
		c0.245-0.417,0.59-0.742,1.035-0.977s0.944-0.352,1.496-0.352c1.339,0,2.214,0.484,2.625,1.453h0.062
		c0.255-0.448,0.625-0.802,1.109-1.062s1.036-0.391,1.656-0.391c0.969,0,1.694,0.249,2.176,0.746s0.723,1.293,0.723,2.387v5.586
		H334.547z"/>
	<path class="st0" d="M343.781,31.853l-0.258-1.219h-0.062c-0.427,0.536-0.853,0.899-1.277,1.09s-0.954,0.285-1.59,0.285
		c-0.849,0-1.515-0.219-1.996-0.656s-0.723-1.06-0.723-1.867c0-1.729,1.383-2.636,4.148-2.719l1.453-0.047v-0.531
		c0-0.672-0.145-1.168-0.434-1.488s-0.751-0.48-1.387-0.48c-0.714,0-1.521,0.219-2.422,0.656l-0.398-0.992
		c0.422-0.229,0.884-0.409,1.387-0.539s1.007-0.195,1.512-0.195c1.021,0,1.777,0.227,2.27,0.68s0.738,1.18,0.738,2.18v5.844H343.781
		z M340.852,30.938c0.808,0,1.441-0.222,1.902-0.664s0.691-1.062,0.691-1.859v-0.773l-1.297,0.055
		c-1.031,0.036-1.774,0.196-2.23,0.48s-0.684,0.726-0.684,1.324c0,0.469,0.142,0.825,0.426,1.07S340.341,30.938,340.852,30.938z"/>
	<path class="st0" d="M350.18,30.938c0.229,0,0.45-0.017,0.664-0.051s0.383-0.069,0.508-0.105v0.992
		c-0.141,0.067-0.348,0.124-0.621,0.168s-0.52,0.066-0.738,0.066c-1.656,0-2.484-0.872-2.484-2.617v-5.094h-1.227v-0.625
		l1.227-0.539l0.547-1.828h0.75v1.984h2.484v1.008h-2.484v5.039c0,0.516,0.122,0.911,0.367,1.188S349.753,30.938,350.18,30.938z"/>
	<path class="st0" d="M352.953,20.97c0-0.297,0.073-0.515,0.219-0.652s0.328-0.207,0.547-0.207c0.208,0,0.388,0.07,0.539,0.211
		s0.227,0.356,0.227,0.648s-0.075,0.509-0.227,0.652s-0.331,0.215-0.539,0.215c-0.219,0-0.401-0.071-0.547-0.215
		S352.953,21.262,352.953,20.97z M354.359,31.853h-1.297V23.29h1.297V31.853z"/>
	<path class="st0" d="M364.5,27.563c0,1.396-0.352,2.485-1.055,3.27s-1.675,1.176-2.914,1.176c-0.766,0-1.445-0.18-2.039-0.539
		s-1.052-0.875-1.375-1.547s-0.484-1.458-0.484-2.359c0-1.396,0.349-2.483,1.047-3.262s1.667-1.168,2.906-1.168
		c1.198,0,2.149,0.398,2.855,1.195S364.5,26.204,364.5,27.563z M357.977,27.563c0,1.094,0.219,1.927,0.656,2.5
		s1.081,0.859,1.93,0.859s1.493-0.285,1.934-0.855s0.66-1.405,0.66-2.504c0-1.089-0.22-1.915-0.66-2.48s-1.09-0.848-1.949-0.848
		c-0.849,0-1.489,0.278-1.922,0.836S357.977,26.459,357.977,27.563z"/>
	<path class="st0" d="M372.633,31.853v-5.539c0-0.698-0.159-1.219-0.477-1.562s-0.815-0.516-1.492-0.516
		c-0.896,0-1.552,0.242-1.969,0.727s-0.625,1.284-0.625,2.398v4.492h-1.297V23.29h1.055l0.211,1.172h0.062
		c0.266-0.422,0.638-0.749,1.117-0.98s1.013-0.348,1.602-0.348c1.031,0,1.808,0.249,2.328,0.746s0.781,1.293,0.781,2.387v5.586
		H372.633z"/>
	<path class="st0" d="M382.117,29.517c0,0.797-0.297,1.411-0.891,1.844s-1.427,0.648-2.5,0.648c-1.136,0-2.021-0.18-2.656-0.539
		v-1.203c0.411,0.208,0.853,0.372,1.324,0.492s0.926,0.18,1.363,0.18c0.677,0,1.198-0.108,1.562-0.324s0.547-0.546,0.547-0.988
		c0-0.333-0.145-0.618-0.434-0.855s-0.853-0.517-1.691-0.84c-0.797-0.297-1.363-0.556-1.699-0.777s-0.586-0.473-0.75-0.754
		s-0.246-0.617-0.246-1.008c0-0.698,0.284-1.249,0.852-1.652s1.347-0.605,2.336-0.605c0.922,0,1.823,0.188,2.703,0.562l-0.461,1.055
		c-0.859-0.354-1.638-0.531-2.336-0.531c-0.614,0-1.078,0.097-1.391,0.289s-0.469,0.458-0.469,0.797
		c0,0.229,0.059,0.425,0.176,0.586s0.306,0.315,0.566,0.461s0.761,0.356,1.5,0.633c1.016,0.37,1.702,0.742,2.059,1.117
		S382.117,28.949,382.117,29.517z"/>
</g>
</svg>