<?xml version="1.0" encoding="UTF-8"?>
<!DOCTYPE svg PUBLIC "-//W3C//DTD SVG 1.1//EN" "http://www.w3.org/Graphics/SVG/1.1/DTD/svg11.dtd">
<svg version="1.1" xmlns="http://www.w3.org/2000/svg" xmlns:xlink="http://www.w3.org/1999/xlink" width="13" height="19"  xml:space="preserve" id="canvas1">
    <!-- Generated by PaintCode (www.paintcodeapp.com) -->
    <path id="canvas1-bezier130" stroke="none" fill="rgb(255, 255, 255)" d="M 12.78,4.73 C 12.71,4.47 12.58,4.2 12.47,3.97 11.26,1.05 8.6,-0 6.46,-0 3.59,-0 0.42,1.93 0,5.89 L 0,6.7 C 0,6.74 0.01,7.04 0.03,7.19 0.27,9.09 1.76,11.1 2.87,12.99 4.07,15.01 5.32,17.01 6.55,19 7.31,17.7 8.07,16.38 8.81,15.11 9.01,14.74 9.25,14.37 9.45,14.02 9.58,13.78 9.84,13.54 9.96,13.32 11.16,11.13 13.09,8.92 13.09,6.74 L 13.09,5.84 C 13.09,5.61 12.8,4.78 12.78,4.73 L 12.78,4.73 Z M 6.51,8.8 C 5.67,8.8 4.74,8.38 4.29,7.21 4.22,7.03 4.22,6.65 4.22,6.62 L 4.22,6.1 C 4.22,4.61 5.48,3.93 6.58,3.93 7.93,3.93 8.98,5.01 8.98,6.37 8.98,7.72 7.86,8.8 6.51,8.8 L 6.51,8.8 Z M 6.51,8.8" />
</svg>
