<!-- Generator: Adobe Illustrator 21.0.0, SVG Export Plug-In  -->
<svg version="1.1"
	 xmlns="http://www.w3.org/2000/svg" xmlns:xlink="http://www.w3.org/1999/xlink" xmlns:a="http://ns.adobe.com/AdobeSVGViewerExtensions/3.0/"
	 x="0px" y="0px" width="438.654px" height="57.881px" viewBox="0 0 438.654 57.881"
	 style="enable-background:new 0 0 438.654 57.881;" xml:space="preserve">
<defs>
</defs>
<g>
	<path d="M18.967,38.255l-1.863-6.117H7.734l-1.863,6.117H0L9.07,12.45h6.662l9.105,25.805H18.967z M15.803,27.567
		c-1.723-5.543-2.691-8.678-2.908-9.404s-0.373-1.301-0.467-1.723c-0.387,1.5-1.494,5.209-3.322,11.127H15.803z"/>
	<path d="M40.385,18.233c2.32,0,4.137,0.905,5.449,2.716s1.969,4.292,1.969,7.444c0,3.246-0.678,5.76-2.031,7.541
		s-3.195,2.672-5.527,2.672c-2.309,0-4.119-0.838-5.432-2.514h-0.369l-0.896,2.162h-4.096V10.903h5.361v6.363
		c0,0.809-0.07,2.104-0.211,3.885h0.211C36.066,19.206,37.924,18.233,40.385,18.233z M38.662,22.522c-1.324,0-2.291,0.407-2.9,1.222
		s-0.926,2.159-0.949,4.034v0.58c0,2.109,0.312,3.621,0.939,4.535s1.621,1.371,2.98,1.371c1.102,0,1.977-0.507,2.627-1.521
		s0.977-2.487,0.977-4.421s-0.328-3.384-0.984-4.351S39.799,22.522,38.662,22.522z"/>
	<path d="M71.891,28.394c0,3.199-0.844,5.701-2.531,7.506s-4.037,2.707-7.049,2.707c-1.887,0-3.551-0.413-4.992-1.239
		s-2.549-2.013-3.322-3.56s-1.16-3.352-1.16-5.414c0-3.211,0.838-5.707,2.514-7.488s4.031-2.672,7.066-2.672
		c1.887,0,3.551,0.41,4.992,1.23s2.549,1.998,3.322,3.533S71.891,26.331,71.891,28.394z M58.303,28.394
		c0,1.945,0.32,3.416,0.959,4.412s1.678,1.494,3.119,1.494c1.43,0,2.459-0.495,3.086-1.485s0.939-2.464,0.939-4.421
		c0-1.945-0.316-3.404-0.949-4.377s-1.67-1.459-3.111-1.459c-1.43,0-2.461,0.483-3.094,1.45S58.303,26.437,58.303,28.394z"/>
	<path d="M92.043,38.255l-0.721-2.514h-0.281c-0.574,0.914-1.389,1.62-2.443,2.118s-2.256,0.747-3.604,0.747
		c-2.309,0-4.049-0.618-5.221-1.854s-1.758-3.015-1.758-5.335V18.603h5.361v11.479c0,1.418,0.252,2.481,0.756,3.19
		s1.307,1.063,2.408,1.063c1.5,0,2.584-0.501,3.252-1.503s1.002-2.663,1.002-4.983v-9.246h5.361v19.652H92.043z"/>
	<path d="M111.861,34.335c0.938,0,2.062-0.205,3.375-0.615v3.99c-1.336,0.598-2.977,0.896-4.922,0.896
		c-2.145,0-3.707-0.542-4.686-1.626s-1.467-2.71-1.467-4.878v-9.475h-2.566V20.36l2.953-1.793l1.547-4.148h3.428v4.184h5.502v4.025
		h-5.502v9.475c0,0.762,0.213,1.324,0.641,1.688S111.158,34.335,111.861,34.335z"/>
	<path d="M135.109,0h2.388v57.881h-2.388V0z"/>
</g>
<g>
	<path d="M160.178,23.528c0,1.005-0.364,1.789-1.094,2.352s-1.719,0.844-2.969,0.844c-1.354,0-2.396-0.175-3.125-0.523v-1.281
		c0.469,0.198,0.979,0.354,1.531,0.469s1.099,0.172,1.641,0.172c0.886,0,1.552-0.168,2-0.504s0.672-0.804,0.672-1.402
		c0-0.396-0.079-0.72-0.238-0.973s-0.425-0.485-0.797-0.699s-0.938-0.456-1.699-0.727c-1.062-0.38-1.821-0.831-2.277-1.352
		s-0.684-1.2-0.684-2.039c0-0.88,0.331-1.581,0.992-2.102c0.661-0.521,1.536-0.781,2.625-0.781c1.136,0,2.18,0.208,3.133,0.625
		l-0.414,1.156c-0.942-0.396-1.859-0.594-2.75-0.594c-0.703,0-1.253,0.151-1.648,0.453s-0.594,0.722-0.594,1.258
		c0,0.396,0.073,0.72,0.219,0.973s0.392,0.484,0.738,0.695s0.876,0.444,1.59,0.699c1.198,0.427,2.022,0.886,2.473,1.375
		S160.178,22.746,160.178,23.528z"/>
	<path d="M168.178,26.567v-5.539c0-0.698-0.159-1.219-0.477-1.562s-0.815-0.516-1.492-0.516c-0.896,0-1.552,0.242-1.969,0.727
		s-0.625,1.284-0.625,2.398v4.492h-1.297v-8.562h1.055l0.211,1.172h0.062c0.266-0.422,0.638-0.749,1.117-0.98
		s1.013-0.348,1.602-0.348c1.031,0,1.808,0.249,2.328,0.746s0.781,1.293,0.781,2.387v5.586H168.178z"/>
	<path d="M179.529,22.278c0,1.396-0.352,2.485-1.055,3.27s-1.675,1.176-2.914,1.176c-0.766,0-1.445-0.18-2.039-0.539
		s-1.052-0.875-1.375-1.547s-0.484-1.458-0.484-2.359c0-1.396,0.349-2.483,1.047-3.262s1.667-1.168,2.906-1.168
		c1.198,0,2.149,0.398,2.855,1.195S179.529,20.918,179.529,22.278z M173.006,22.278c0,1.094,0.219,1.927,0.656,2.5
		s1.081,0.859,1.93,0.859s1.493-0.285,1.934-0.855s0.66-1.405,0.66-2.504c0-1.089-0.22-1.915-0.66-2.48s-1.09-0.848-1.949-0.848
		c-0.849,0-1.489,0.278-1.922,0.836S173.006,21.173,173.006,22.278z"/>
	<path d="M188.795,26.567l-1.57-5.023c-0.099-0.308-0.284-1.005-0.555-2.094h-0.062c-0.208,0.911-0.391,1.614-0.547,2.109
		l-1.617,5.008h-1.5l-2.336-8.562h1.359c0.552,2.151,0.973,3.789,1.262,4.914s0.454,1.883,0.496,2.273h0.062
		c0.058-0.297,0.149-0.681,0.277-1.152s0.238-0.845,0.332-1.121l1.57-4.914h1.406l1.531,4.914c0.292,0.896,0.489,1.648,0.594,2.258
		h0.062c0.021-0.188,0.077-0.477,0.168-0.867s0.634-2.492,1.629-6.305h1.344l-2.367,8.562H188.795z"/>
	<path d="M192.889,18.004h1.391l1.875,4.883c0.411,1.114,0.667,1.919,0.766,2.414h0.062c0.067-0.266,0.21-0.72,0.426-1.363
		s0.923-2.621,2.121-5.934h1.391l-3.68,9.75c-0.364,0.964-0.79,1.647-1.277,2.051s-1.085,0.605-1.793,0.605
		c-0.396,0-0.786-0.044-1.172-0.133v-1.039c0.286,0.062,0.606,0.094,0.961,0.094c0.891,0,1.526-0.5,1.906-1.5l0.477-1.219
		L192.889,18.004z"/>
	<path d="M213.186,15.145h1.43l-4.117,11.422h-1.312l-4.094-11.422h1.406l2.625,7.391c0.302,0.849,0.542,1.675,0.719,2.477
		c0.188-0.844,0.433-1.685,0.734-2.523L213.186,15.145z"/>
	<path d="M215.881,15.684c0-0.297,0.073-0.515,0.219-0.652s0.328-0.207,0.547-0.207c0.208,0,0.388,0.07,0.539,0.211
		s0.227,0.356,0.227,0.648s-0.075,0.509-0.227,0.652s-0.331,0.215-0.539,0.215c-0.219,0-0.401-0.071-0.547-0.215
		S215.881,15.976,215.881,15.684z M217.287,26.567h-1.297v-8.562h1.297V26.567z"/>
	<path d="M221.334,26.567h-1.297V14.41h1.297V26.567z"/>
	<path d="M225.381,26.567h-1.297V14.41h1.297V26.567z"/>
	<path d="M233.397,26.567l-0.258-1.219h-0.062c-0.427,0.536-0.853,0.899-1.277,1.09s-0.954,0.285-1.59,0.285
		c-0.849,0-1.515-0.219-1.996-0.656s-0.723-1.06-0.723-1.867c0-1.729,1.383-2.636,4.148-2.719l1.453-0.047v-0.531
		c0-0.672-0.145-1.168-0.434-1.488s-0.751-0.48-1.387-0.48c-0.714,0-1.521,0.219-2.422,0.656l-0.398-0.992
		c0.422-0.229,0.884-0.409,1.387-0.539s1.007-0.195,1.512-0.195c1.021,0,1.777,0.227,2.27,0.68s0.738,1.18,0.738,2.18v5.844H233.397
		z M230.467,25.653c0.808,0,1.441-0.222,1.902-0.664s0.691-1.062,0.691-1.859v-0.773l-1.297,0.055
		c-1.031,0.036-1.774,0.196-2.23,0.48s-0.684,0.726-0.684,1.324c0,0.469,0.142,0.825,0.426,1.07S229.956,25.653,230.467,25.653z"/>
	<path d="M244.037,18.004v0.82l-1.586,0.188c0.146,0.183,0.276,0.421,0.391,0.715s0.172,0.626,0.172,0.996
		c0,0.839-0.286,1.508-0.859,2.008s-1.359,0.75-2.359,0.75c-0.255,0-0.495-0.021-0.719-0.062c-0.552,0.292-0.828,0.659-0.828,1.102
		c0,0.234,0.097,0.407,0.289,0.52s0.523,0.168,0.992,0.168h1.516c0.927,0,1.64,0.195,2.137,0.586s0.746,0.958,0.746,1.703
		c0,0.948-0.38,1.671-1.141,2.168s-1.87,0.746-3.328,0.746c-1.12,0-1.983-0.208-2.59-0.625s-0.91-1.005-0.91-1.766
		c0-0.521,0.167-0.972,0.5-1.352s0.802-0.638,1.406-0.773c-0.219-0.099-0.402-0.253-0.551-0.461s-0.223-0.45-0.223-0.727
		c0-0.312,0.083-0.586,0.25-0.82s0.43-0.461,0.789-0.68c-0.442-0.183-0.804-0.492-1.082-0.93s-0.418-0.938-0.418-1.5
		c0-0.938,0.281-1.66,0.844-2.168s1.359-0.762,2.391-0.762c0.448,0,0.852,0.052,1.211,0.156H244.037z M237.209,28.004
		c0,0.464,0.195,0.815,0.586,1.055s0.95,0.359,1.68,0.359c1.089,0,1.895-0.163,2.418-0.488s0.785-0.767,0.785-1.324
		c0-0.464-0.144-0.785-0.43-0.965s-0.825-0.27-1.617-0.27h-1.555c-0.589,0-1.047,0.141-1.375,0.422S237.209,27.478,237.209,28.004z
		 M237.912,20.746c0,0.599,0.169,1.052,0.508,1.359s0.81,0.461,1.414,0.461c1.266,0,1.898-0.614,1.898-1.844
		c0-1.286-0.641-1.93-1.922-1.93c-0.609,0-1.078,0.164-1.406,0.492S237.912,20.101,237.912,20.746z"/>
	<path d="M249.412,26.723c-1.266,0-2.265-0.386-2.996-1.156s-1.098-1.841-1.098-3.211c0-1.38,0.34-2.477,1.02-3.289
		s1.593-1.219,2.738-1.219c1.073,0,1.922,0.353,2.547,1.059s0.938,1.637,0.938,2.793v0.82h-5.898
		c0.026,1.005,0.28,1.769,0.762,2.289s1.16,0.781,2.035,0.781c0.922,0,1.833-0.192,2.734-0.578v1.156
		c-0.458,0.198-0.892,0.34-1.301,0.426S249.99,26.723,249.412,26.723z M249.061,18.934c-0.688,0-1.235,0.224-1.645,0.672
		s-0.649,1.067-0.723,1.859h4.477c0-0.817-0.183-1.444-0.547-1.879S249.737,18.934,249.061,18.934z"/>
	<path d="M256.131,24.707l0.117,0.18c-0.136,0.521-0.331,1.126-0.586,1.816s-0.521,1.332-0.797,1.926h-0.977
		c0.141-0.542,0.296-1.211,0.465-2.008s0.288-1.435,0.355-1.914H256.131z"/>
	<path d="M268.115,26.567l-0.258-1.219h-0.062c-0.427,0.536-0.853,0.899-1.277,1.09s-0.954,0.285-1.59,0.285
		c-0.849,0-1.515-0.219-1.996-0.656s-0.723-1.06-0.723-1.867c0-1.729,1.383-2.636,4.148-2.719l1.453-0.047v-0.531
		c0-0.672-0.145-1.168-0.434-1.488s-0.751-0.48-1.387-0.48c-0.714,0-1.521,0.219-2.422,0.656l-0.398-0.992
		c0.422-0.229,0.884-0.409,1.387-0.539s1.007-0.195,1.512-0.195c1.021,0,1.777,0.227,2.27,0.68s0.738,1.18,0.738,2.18v5.844H268.115
		z M265.186,25.653c0.808,0,1.441-0.222,1.902-0.664s0.691-1.062,0.691-1.859v-0.773l-1.297,0.055
		c-1.031,0.036-1.774,0.196-2.23,0.48s-0.684,0.726-0.684,1.324c0,0.469,0.142,0.825,0.426,1.07S264.675,25.653,265.186,25.653z"/>
	<path d="M281.733,25.418h-0.07c-0.599,0.87-1.495,1.305-2.688,1.305c-1.12,0-1.991-0.383-2.613-1.148s-0.934-1.854-0.934-3.266
		s0.312-2.508,0.938-3.289s1.495-1.172,2.609-1.172c1.161,0,2.052,0.422,2.672,1.266h0.102l-0.055-0.617l-0.031-0.602V14.41h1.297
		v12.156h-1.055L281.733,25.418z M279.139,25.637c0.886,0,1.527-0.241,1.926-0.723s0.598-1.259,0.598-2.332v-0.273
		c0-1.214-0.202-2.079-0.605-2.598s-1.048-0.777-1.934-0.777c-0.761,0-1.343,0.296-1.746,0.887s-0.605,1.426-0.605,2.504
		c0,1.094,0.2,1.919,0.602,2.477S278.362,25.637,279.139,25.637z"/>
	<path d="M289.326,26.723c-1.266,0-2.265-0.386-2.996-1.156s-1.098-1.841-1.098-3.211c0-1.38,0.34-2.477,1.02-3.289
		s1.593-1.219,2.738-1.219c1.073,0,1.922,0.353,2.547,1.059s0.938,1.637,0.938,2.793v0.82h-5.898
		c0.026,1.005,0.28,1.769,0.762,2.289s1.16,0.781,2.035,0.781c0.922,0,1.833-0.192,2.734-0.578v1.156
		c-0.458,0.198-0.892,0.34-1.301,0.426S289.904,26.723,289.326,26.723z M288.975,18.934c-0.688,0-1.235,0.224-1.645,0.672
		s-0.649,1.067-0.723,1.859h4.477c0-0.817-0.183-1.444-0.547-1.879S289.652,18.934,288.975,18.934z"/>
	<path d="M300.209,24.231c0,0.797-0.297,1.411-0.891,1.844s-1.427,0.648-2.5,0.648c-1.136,0-2.021-0.18-2.656-0.539v-1.203
		c0.411,0.208,0.853,0.372,1.324,0.492s0.926,0.18,1.363,0.18c0.677,0,1.198-0.108,1.562-0.324s0.547-0.546,0.547-0.988
		c0-0.333-0.145-0.618-0.434-0.855s-0.853-0.517-1.691-0.84c-0.797-0.297-1.363-0.556-1.699-0.777s-0.586-0.473-0.75-0.754
		s-0.246-0.617-0.246-1.008c0-0.698,0.284-1.249,0.852-1.652s1.347-0.605,2.336-0.605c0.922,0,1.823,0.188,2.703,0.562l-0.461,1.055
		c-0.859-0.354-1.638-0.531-2.336-0.531c-0.614,0-1.078,0.097-1.391,0.289s-0.469,0.458-0.469,0.797
		c0,0.229,0.059,0.425,0.176,0.586s0.306,0.315,0.566,0.461s0.761,0.356,1.5,0.633c1.016,0.37,1.702,0.742,2.059,1.117
		S300.209,23.663,300.209,24.231z"/>
	<path d="M307.842,24.231c0,0.797-0.297,1.411-0.891,1.844s-1.427,0.648-2.5,0.648c-1.136,0-2.021-0.18-2.656-0.539v-1.203
		c0.411,0.208,0.853,0.372,1.324,0.492s0.926,0.18,1.363,0.18c0.677,0,1.198-0.108,1.562-0.324s0.547-0.546,0.547-0.988
		c0-0.333-0.145-0.618-0.434-0.855s-0.853-0.517-1.691-0.84c-0.797-0.297-1.363-0.556-1.699-0.777s-0.586-0.473-0.75-0.754
		s-0.246-0.617-0.246-1.008c0-0.698,0.284-1.249,0.852-1.652s1.347-0.605,2.336-0.605c0.922,0,1.823,0.188,2.703,0.562l-0.461,1.055
		c-0.859-0.354-1.638-0.531-2.336-0.531c-0.614,0-1.078,0.097-1.391,0.289s-0.469,0.458-0.469,0.797
		c0,0.229,0.059,0.425,0.176,0.586s0.306,0.315,0.566,0.461s0.761,0.356,1.5,0.633c1.016,0.37,1.702,0.742,2.059,1.117
		S307.842,23.663,307.842,24.231z"/>
	<path d="M313.569,26.723c-1.266,0-2.265-0.386-2.996-1.156s-1.098-1.841-1.098-3.211c0-1.38,0.34-2.477,1.02-3.289
		s1.593-1.219,2.738-1.219c1.073,0,1.922,0.353,2.547,1.059s0.938,1.637,0.938,2.793v0.82h-5.898
		c0.026,1.005,0.28,1.769,0.762,2.289s1.16,0.781,2.035,0.781c0.922,0,1.833-0.192,2.734-0.578v1.156
		c-0.458,0.198-0.892,0.34-1.301,0.426S314.147,26.723,313.569,26.723z M313.217,18.934c-0.688,0-1.235,0.224-1.645,0.672
		s-0.649,1.067-0.723,1.859h4.477c0-0.817-0.183-1.444-0.547-1.879S313.894,18.934,313.217,18.934z"/>
	<path d="M322.834,17.848c0.38,0,0.722,0.031,1.023,0.094l-0.18,1.203c-0.354-0.078-0.667-0.117-0.938-0.117
		c-0.692,0-1.285,0.281-1.777,0.844s-0.738,1.263-0.738,2.102v4.594h-1.297v-8.562h1.07l0.148,1.586h0.062
		c0.317-0.558,0.7-0.987,1.148-1.289S322.298,17.848,322.834,17.848z"/>
	<path d="M328.225,25.653c0.229,0,0.45-0.017,0.664-0.051s0.383-0.069,0.508-0.105v0.992c-0.141,0.067-0.348,0.124-0.621,0.168
		s-0.52,0.066-0.738,0.066c-1.656,0-2.484-0.872-2.484-2.617v-5.094h-1.227v-0.625l1.227-0.539l0.547-1.828h0.75v1.984h2.484v1.008
		h-2.484v5.039c0,0.516,0.122,0.911,0.367,1.188S327.798,25.653,328.225,25.653z"/>
	<path d="M338.686,26.723c-1.239,0-2.199-0.382-2.879-1.145s-1.02-1.843-1.02-3.238c0-1.433,0.345-2.539,1.035-3.32
		s1.673-1.172,2.949-1.172c0.411,0,0.823,0.044,1.234,0.133s0.734,0.192,0.969,0.312l-0.398,1.102
		c-0.286-0.114-0.599-0.21-0.938-0.285s-0.638-0.113-0.898-0.113c-1.739,0-2.609,1.109-2.609,3.328c0,1.052,0.212,1.859,0.637,2.422
		s1.054,0.844,1.887,0.844c0.714,0,1.445-0.153,2.195-0.461v1.148C340.277,26.574,339.556,26.723,338.686,26.723z"/>
	<path d="M348.147,26.567l-0.258-1.219h-0.062c-0.427,0.536-0.853,0.899-1.277,1.09s-0.954,0.285-1.59,0.285
		c-0.849,0-1.515-0.219-1.996-0.656s-0.723-1.06-0.723-1.867c0-1.729,1.383-2.636,4.148-2.719l1.453-0.047v-0.531
		c0-0.672-0.145-1.168-0.434-1.488s-0.751-0.48-1.387-0.48c-0.714,0-1.521,0.219-2.422,0.656l-0.398-0.992
		c0.422-0.229,0.884-0.409,1.387-0.539s1.007-0.195,1.512-0.195c1.021,0,1.777,0.227,2.27,0.68s0.738,1.18,0.738,2.18v5.844H348.147
		z M345.217,25.653c0.808,0,1.441-0.222,1.902-0.664s0.691-1.062,0.691-1.859v-0.773l-1.297,0.055
		c-1.031,0.036-1.774,0.196-2.23,0.48s-0.684,0.726-0.684,1.324c0,0.469,0.142,0.825,0.426,1.07S344.706,25.653,345.217,25.653z"/>
	<path d="M355.639,19.012h-2.18v7.555h-1.297v-7.555h-1.531v-0.586l1.531-0.469v-0.477c0-2.104,0.919-3.156,2.758-3.156
		c0.453,0,0.984,0.091,1.594,0.273l-0.336,1.039c-0.5-0.161-0.927-0.242-1.281-0.242c-0.489,0-0.852,0.163-1.086,0.488
		c-0.234,0.325-0.352,0.848-0.352,1.566v0.555h2.18V19.012z"/>
	<path d="M360.819,26.723c-1.266,0-2.265-0.386-2.996-1.156s-1.098-1.841-1.098-3.211c0-1.38,0.34-2.477,1.02-3.289
		s1.593-1.219,2.738-1.219c1.073,0,1.922,0.353,2.547,1.059s0.938,1.637,0.938,2.793v0.82h-5.898
		c0.026,1.005,0.28,1.769,0.762,2.289s1.16,0.781,2.035,0.781c0.922,0,1.833-0.192,2.734-0.578v1.156
		c-0.458,0.198-0.892,0.34-1.301,0.426S361.397,26.723,360.819,26.723z M360.467,18.934c-0.688,0-1.235,0.224-1.645,0.672
		s-0.649,1.067-0.723,1.859h4.477c0-0.817-0.183-1.444-0.547-1.879S361.144,18.934,360.467,18.934z M359.506,16.676
		c0.25-0.323,0.52-0.714,0.809-1.172s0.517-0.856,0.684-1.195h1.578v0.164c-0.229,0.339-0.57,0.755-1.023,1.25
		c-0.453,0.495-0.847,0.878-1.18,1.148h-0.867V16.676z"/>
	<path d="M153.428,34.884c0-0.297,0.073-0.515,0.219-0.652s0.328-0.207,0.547-0.207c0.208,0,0.388,0.07,0.539,0.211
		s0.227,0.356,0.227,0.648s-0.075,0.509-0.227,0.652s-0.331,0.215-0.539,0.215c-0.219,0-0.401-0.071-0.547-0.215
		S153.428,35.176,153.428,34.884z M154.834,45.767h-1.297v-8.562h1.297V45.767z"/>
	<path d="M163.444,45.767v-5.539c0-0.698-0.159-1.219-0.477-1.562s-0.815-0.516-1.492-0.516c-0.896,0-1.552,0.242-1.969,0.727
		s-0.625,1.284-0.625,2.398v4.492h-1.297v-8.562h1.055l0.211,1.172h0.062c0.266-0.422,0.638-0.749,1.117-0.98
		s1.013-0.348,1.602-0.348c1.031,0,1.808,0.249,2.328,0.746s0.781,1.293,0.781,2.387v5.586H163.444z"/>
	<path d="M170.17,44.853c0.229,0,0.45-0.017,0.664-0.051s0.383-0.069,0.508-0.105v0.992c-0.141,0.067-0.348,0.124-0.621,0.168
		s-0.52,0.066-0.738,0.066c-1.656,0-2.484-0.872-2.484-2.617v-5.094h-1.227v-0.625l1.227-0.539l0.547-1.828h0.75v1.984h2.484v1.008
		h-2.484v5.039c0,0.516,0.122,0.911,0.367,1.188S169.743,44.853,170.17,44.853z"/>
	<path d="M176.959,37.048c0.38,0,0.722,0.031,1.023,0.094l-0.18,1.203c-0.354-0.078-0.667-0.117-0.938-0.117
		c-0.692,0-1.285,0.281-1.777,0.844s-0.738,1.263-0.738,2.102v4.594h-1.297v-8.562h1.07l0.148,1.586h0.062
		c0.317-0.558,0.7-0.987,1.148-1.289S176.423,37.048,176.959,37.048z"/>
	<path d="M186.975,41.478c0,1.396-0.352,2.485-1.055,3.27s-1.675,1.176-2.914,1.176c-0.766,0-1.445-0.18-2.039-0.539
		s-1.052-0.875-1.375-1.547s-0.484-1.458-0.484-2.359c0-1.396,0.349-2.483,1.047-3.262s1.667-1.168,2.906-1.168
		c1.198,0,2.149,0.398,2.855,1.195S186.975,40.118,186.975,41.478z M180.451,41.478c0,1.094,0.219,1.927,0.656,2.5
		s1.081,0.859,1.93,0.859s1.493-0.285,1.934-0.855s0.66-1.405,0.66-2.504c0-1.089-0.22-1.915-0.66-2.48s-1.09-0.848-1.949-0.848
		c-0.849,0-1.489,0.278-1.922,0.836S180.451,40.373,180.451,41.478z"/>
	<path d="M195.076,44.618h-0.07c-0.599,0.87-1.495,1.305-2.688,1.305c-1.12,0-1.991-0.383-2.613-1.148s-0.934-1.854-0.934-3.266
		s0.312-2.508,0.938-3.289s1.495-1.172,2.609-1.172c1.161,0,2.052,0.422,2.672,1.266h0.102l-0.055-0.617l-0.031-0.602v-3.484h1.297
		v12.156h-1.055L195.076,44.618z M192.483,44.837c0.886,0,1.527-0.241,1.926-0.723s0.598-1.259,0.598-2.332v-0.273
		c0-1.214-0.202-2.079-0.605-2.598s-1.048-0.777-1.934-0.777c-0.761,0-1.343,0.296-1.746,0.887s-0.605,1.426-0.605,2.504
		c0,1.094,0.2,1.919,0.602,2.477S191.706,44.837,192.483,44.837z"/>
	<path d="M200.272,37.204v5.555c0,0.698,0.159,1.219,0.477,1.562s0.815,0.516,1.492,0.516c0.896,0,1.551-0.245,1.965-0.734
		s0.621-1.289,0.621-2.398v-4.5h1.297v8.562h-1.07l-0.188-1.148h-0.07c-0.266,0.422-0.634,0.745-1.105,0.969
		s-1.009,0.336-1.613,0.336c-1.042,0-1.821-0.247-2.34-0.742s-0.777-1.286-0.777-2.375v-5.602H200.272z"/>
	<path d="M212.295,45.923c-1.239,0-2.199-0.382-2.879-1.145s-1.02-1.843-1.02-3.238c0-1.433,0.345-2.539,1.035-3.32
		s1.673-1.172,2.949-1.172c0.411,0,0.823,0.044,1.234,0.133s0.734,0.192,0.969,0.312l-0.398,1.102
		c-0.286-0.114-0.599-0.21-0.938-0.285s-0.638-0.113-0.898-0.113c-1.739,0-2.609,1.109-2.609,3.328c0,1.052,0.212,1.859,0.637,2.422
		s1.054,0.844,1.887,0.844c0.714,0,1.445-0.153,2.195-0.461v1.148C213.886,45.775,213.165,45.923,212.295,45.923z"/>
	<path d="M216.381,34.884c0-0.297,0.073-0.515,0.219-0.652s0.328-0.207,0.547-0.207c0.208,0,0.388,0.07,0.539,0.211
		s0.227,0.356,0.227,0.648s-0.075,0.509-0.227,0.652s-0.331,0.215-0.539,0.215c-0.219,0-0.401-0.071-0.547-0.215
		S216.381,35.176,216.381,34.884z M217.787,45.767h-1.297v-8.562h1.297V45.767z"/>
	<path d="M226.397,45.767v-5.539c0-0.698-0.159-1.219-0.477-1.562s-0.815-0.516-1.492-0.516c-0.896,0-1.552,0.242-1.969,0.727
		s-0.625,1.284-0.625,2.398v4.492h-1.297v-8.562h1.055l0.211,1.172h0.062c0.266-0.422,0.638-0.749,1.117-0.98
		s1.013-0.348,1.602-0.348c1.031,0,1.808,0.249,2.328,0.746s0.781,1.293,0.781,2.387v5.586H226.397z"/>
	<path d="M237.365,37.204v0.82l-1.586,0.188c0.146,0.183,0.276,0.421,0.391,0.715s0.172,0.626,0.172,0.996
		c0,0.839-0.286,1.508-0.859,2.008s-1.359,0.75-2.359,0.75c-0.255,0-0.495-0.021-0.719-0.062c-0.552,0.292-0.828,0.659-0.828,1.102
		c0,0.234,0.097,0.407,0.289,0.52s0.523,0.168,0.992,0.168h1.516c0.927,0,1.64,0.195,2.137,0.586s0.746,0.958,0.746,1.703
		c0,0.948-0.38,1.671-1.141,2.168s-1.87,0.746-3.328,0.746c-1.12,0-1.983-0.208-2.59-0.625s-0.91-1.005-0.91-1.766
		c0-0.521,0.167-0.972,0.5-1.352s0.802-0.638,1.406-0.773c-0.219-0.099-0.402-0.253-0.551-0.461s-0.223-0.45-0.223-0.727
		c0-0.312,0.083-0.586,0.25-0.82s0.43-0.461,0.789-0.68c-0.442-0.183-0.804-0.492-1.082-0.93s-0.418-0.938-0.418-1.5
		c0-0.938,0.281-1.66,0.844-2.168s1.359-0.762,2.391-0.762c0.448,0,0.852,0.052,1.211,0.156H237.365z M230.537,47.204
		c0,0.464,0.195,0.815,0.586,1.055s0.95,0.359,1.68,0.359c1.089,0,1.895-0.163,2.418-0.488s0.785-0.767,0.785-1.324
		c0-0.464-0.144-0.785-0.43-0.965s-0.825-0.27-1.617-0.27h-1.555c-0.589,0-1.047,0.141-1.375,0.422S230.537,46.678,230.537,47.204z
		 M231.24,39.947c0,0.599,0.169,1.052,0.508,1.359s0.81,0.461,1.414,0.461c1.266,0,1.898-0.614,1.898-1.844
		c0-1.286-0.641-1.93-1.922-1.93c-0.609,0-1.078,0.164-1.406,0.492S231.24,39.301,231.24,39.947z"/>
	<path d="M249.139,45.767v-5.539c0-0.698-0.159-1.219-0.477-1.562s-0.815-0.516-1.492-0.516c-0.901,0-1.559,0.245-1.973,0.734
		s-0.621,1.292-0.621,2.406v4.477h-1.297V33.611h1.297v3.68c0,0.442-0.021,0.81-0.062,1.102h0.078
		c0.255-0.411,0.618-0.735,1.09-0.973s1.009-0.355,1.613-0.355c1.047,0,1.832,0.249,2.355,0.746s0.785,1.288,0.785,2.371v5.586
		H249.139z"/>
	<path d="M256.717,45.923c-1.266,0-2.265-0.386-2.996-1.156s-1.098-1.841-1.098-3.211c0-1.38,0.34-2.477,1.02-3.289
		s1.593-1.219,2.738-1.219c1.073,0,1.922,0.353,2.547,1.059s0.938,1.637,0.938,2.793v0.82h-5.898
		c0.026,1.005,0.28,1.769,0.762,2.289s1.16,0.781,2.035,0.781c0.922,0,1.833-0.192,2.734-0.578v1.156
		c-0.458,0.198-0.892,0.34-1.301,0.426S257.295,45.923,256.717,45.923z M256.365,38.134c-0.688,0-1.235,0.224-1.645,0.672
		s-0.649,1.067-0.723,1.859h4.477c0-0.817-0.183-1.444-0.547-1.879S257.042,38.134,256.365,38.134z"/>
	<path d="M267.342,45.767l-0.258-1.219h-0.062c-0.427,0.536-0.853,0.899-1.277,1.09s-0.954,0.285-1.59,0.285
		c-0.849,0-1.515-0.219-1.996-0.656s-0.723-1.06-0.723-1.867c0-1.729,1.383-2.636,4.148-2.719l1.453-0.047v-0.531
		c0-0.672-0.145-1.168-0.434-1.488s-0.751-0.48-1.387-0.48c-0.714,0-1.521,0.219-2.422,0.656l-0.398-0.992
		c0.422-0.229,0.884-0.409,1.387-0.539s1.007-0.195,1.512-0.195c1.021,0,1.777,0.227,2.27,0.68s0.738,1.18,0.738,2.18v5.844H267.342
		z M264.412,44.853c0.808,0,1.441-0.222,1.902-0.664s0.691-1.062,0.691-1.859v-0.773l-1.297,0.055
		c-1.031,0.036-1.774,0.196-2.23,0.48s-0.684,0.726-0.684,1.324c0,0.469,0.142,0.825,0.426,1.07S263.902,44.853,264.412,44.853z"/>
	<path d="M272.272,45.767h-1.297V33.611h1.297V45.767z"/>
	<path d="M277.787,44.853c0.229,0,0.45-0.017,0.664-0.051s0.383-0.069,0.508-0.105v0.992c-0.141,0.067-0.348,0.124-0.621,0.168
		s-0.52,0.066-0.738,0.066c-1.656,0-2.484-0.872-2.484-2.617v-5.094h-1.227v-0.625l1.227-0.539l0.547-1.828h0.75v1.984h2.484v1.008
		h-2.484v5.039c0,0.516,0.122,0.911,0.367,1.188S277.361,44.853,277.787,44.853z"/>
	<path d="M286.529,45.767v-5.539c0-0.698-0.159-1.219-0.477-1.562s-0.815-0.516-1.492-0.516c-0.901,0-1.559,0.245-1.973,0.734
		s-0.621,1.292-0.621,2.406v4.477h-1.297V33.611h1.297v3.68c0,0.442-0.021,0.81-0.062,1.102h0.078
		c0.255-0.411,0.618-0.735,1.09-0.973s1.009-0.355,1.613-0.355c1.047,0,1.832,0.249,2.355,0.746s0.785,1.288,0.785,2.371v5.586
		H286.529z"/>
	<path d="M289.131,37.204h1.391l1.875,4.883c0.411,1.114,0.667,1.919,0.766,2.414h0.062c0.067-0.266,0.21-0.72,0.426-1.363
		s0.923-2.621,2.121-5.934h1.391l-3.68,9.75c-0.364,0.964-0.79,1.647-1.277,2.051s-1.085,0.605-1.793,0.605
		c-0.396,0-0.786-0.044-1.172-0.133v-1.039c0.286,0.062,0.606,0.094,0.961,0.094c0.891,0,1.526-0.5,1.906-1.5l0.477-1.219
		L289.131,37.204z"/>
	<path d="M307.975,45.767l-0.258-1.219h-0.062c-0.427,0.536-0.853,0.899-1.277,1.09s-0.954,0.285-1.59,0.285
		c-0.849,0-1.515-0.219-1.996-0.656s-0.723-1.06-0.723-1.867c0-1.729,1.383-2.636,4.148-2.719l1.453-0.047v-0.531
		c0-0.672-0.145-1.168-0.434-1.488s-0.751-0.48-1.387-0.48c-0.714,0-1.521,0.219-2.422,0.656l-0.398-0.992
		c0.422-0.229,0.884-0.409,1.387-0.539s1.007-0.195,1.512-0.195c1.021,0,1.777,0.227,2.27,0.68s0.738,1.18,0.738,2.18v5.844H307.975
		z M305.045,44.853c0.808,0,1.441-0.222,1.902-0.664s0.691-1.062,0.691-1.859v-0.773l-1.297,0.055
		c-1.031,0.036-1.774,0.196-2.23,0.48s-0.684,0.726-0.684,1.324c0,0.469,0.142,0.825,0.426,1.07S304.534,44.853,305.045,44.853z"/>
	<path d="M317.467,45.767v-5.539c0-0.698-0.159-1.219-0.477-1.562s-0.815-0.516-1.492-0.516c-0.896,0-1.552,0.242-1.969,0.727
		s-0.625,1.284-0.625,2.398v4.492h-1.297v-8.562h1.055l0.211,1.172h0.062c0.266-0.422,0.638-0.749,1.117-0.98
		s1.013-0.348,1.602-0.348c1.031,0,1.808,0.249,2.328,0.746s0.781,1.293,0.781,2.387v5.586H317.467z"/>
	<path d="M327.256,44.618h-0.07c-0.599,0.87-1.495,1.305-2.688,1.305c-1.12,0-1.991-0.383-2.613-1.148s-0.934-1.854-0.934-3.266
		s0.312-2.508,0.938-3.289s1.495-1.172,2.609-1.172c1.161,0,2.052,0.422,2.672,1.266h0.102l-0.055-0.617l-0.031-0.602v-3.484h1.297
		v12.156h-1.055L327.256,44.618z M324.662,44.837c0.886,0,1.527-0.241,1.926-0.723s0.598-1.259,0.598-2.332v-0.273
		c0-1.214-0.202-2.079-0.605-2.598s-1.048-0.777-1.934-0.777c-0.761,0-1.343,0.296-1.746,0.887s-0.605,1.426-0.605,2.504
		c0,1.094,0.2,1.919,0.602,2.477S323.886,44.837,324.662,44.837z"/>
	<path d="M339.248,38.212h-2.18v7.555h-1.297v-7.555h-1.531v-0.586l1.531-0.469v-0.477c0-2.104,0.919-3.156,2.758-3.156
		c0.453,0,0.984,0.091,1.594,0.273l-0.336,1.039c-0.5-0.161-0.927-0.242-1.281-0.242c-0.489,0-0.852,0.163-1.086,0.488
		s-0.352,0.848-0.352,1.566v0.555h2.18V38.212z"/>
	<path d="M344.717,37.048c0.38,0,0.722,0.031,1.023,0.094l-0.18,1.203c-0.354-0.078-0.667-0.117-0.938-0.117
		c-0.692,0-1.285,0.281-1.777,0.844s-0.738,1.263-0.738,2.102v4.594h-1.297v-8.562h1.07l0.148,1.586h0.062
		c0.317-0.558,0.7-0.987,1.148-1.289S344.181,37.048,344.717,37.048z"/>
	<path d="M350.959,45.923c-1.266,0-2.265-0.386-2.996-1.156s-1.098-1.841-1.098-3.211c0-1.38,0.34-2.477,1.02-3.289
		s1.593-1.219,2.738-1.219c1.073,0,1.922,0.353,2.547,1.059s0.938,1.637,0.938,2.793v0.82h-5.898
		c0.026,1.005,0.28,1.769,0.762,2.289s1.16,0.781,2.035,0.781c0.922,0,1.833-0.192,2.734-0.578v1.156
		c-0.458,0.198-0.892,0.34-1.301,0.426S351.537,45.923,350.959,45.923z M350.608,38.134c-0.688,0-1.235,0.224-1.645,0.672
		s-0.649,1.067-0.723,1.859h4.477c0-0.817-0.183-1.444-0.547-1.879S351.284,38.134,350.608,38.134z"/>
	<path d="M361.842,43.431c0,0.797-0.297,1.411-0.891,1.844s-1.427,0.648-2.5,0.648c-1.136,0-2.021-0.18-2.656-0.539v-1.203
		c0.411,0.208,0.853,0.372,1.324,0.492s0.926,0.18,1.363,0.18c0.677,0,1.198-0.108,1.562-0.324s0.547-0.546,0.547-0.988
		c0-0.333-0.145-0.618-0.434-0.855s-0.853-0.517-1.691-0.84c-0.797-0.297-1.363-0.556-1.699-0.777s-0.586-0.473-0.75-0.754
		s-0.246-0.617-0.246-1.008c0-0.698,0.284-1.249,0.852-1.652s1.347-0.605,2.336-0.605c0.922,0,1.823,0.188,2.703,0.562l-0.461,1.055
		c-0.859-0.354-1.638-0.531-2.336-0.531c-0.614,0-1.078,0.097-1.391,0.289s-0.469,0.458-0.469,0.797
		c0,0.229,0.059,0.425,0.176,0.586s0.306,0.315,0.566,0.461s0.761,0.356,1.5,0.633c1.016,0.37,1.702,0.742,2.059,1.117
		S361.842,42.864,361.842,43.431z"/>
	<path d="M369.811,45.767v-5.539c0-0.698-0.159-1.219-0.477-1.562s-0.815-0.516-1.492-0.516c-0.901,0-1.559,0.245-1.973,0.734
		s-0.621,1.292-0.621,2.406v4.477h-1.297V33.611h1.297v3.68c0,0.442-0.021,0.81-0.062,1.102h0.078
		c0.255-0.411,0.618-0.735,1.09-0.973s1.009-0.355,1.613-0.355c1.047,0,1.832,0.249,2.355,0.746s0.785,1.288,0.785,2.371v5.586
		H369.811z"/>
	<path d="M383.756,44.618h-0.07c-0.599,0.87-1.495,1.305-2.688,1.305c-1.12,0-1.991-0.383-2.613-1.148s-0.934-1.854-0.934-3.266
		s0.312-2.508,0.938-3.289s1.495-1.172,2.609-1.172c1.161,0,2.052,0.422,2.672,1.266h0.102l-0.055-0.617l-0.031-0.602v-3.484h1.297
		v12.156h-1.055L383.756,44.618z M381.162,44.837c0.886,0,1.527-0.241,1.926-0.723s0.598-1.259,0.598-2.332v-0.273
		c0-1.214-0.202-2.079-0.605-2.598s-1.048-0.777-1.934-0.777c-0.761,0-1.343,0.296-1.746,0.887s-0.605,1.426-0.605,2.504
		c0,1.094,0.2,1.919,0.602,2.477S380.386,44.837,381.162,44.837z"/>
	<path d="M391.35,45.923c-1.266,0-2.265-0.386-2.996-1.156s-1.098-1.841-1.098-3.211c0-1.38,0.34-2.477,1.02-3.289
		s1.593-1.219,2.738-1.219c1.073,0,1.922,0.353,2.547,1.059s0.938,1.637,0.938,2.793v0.82H388.6c0.026,1.005,0.28,1.769,0.762,2.289
		s1.16,0.781,2.035,0.781c0.922,0,1.833-0.192,2.734-0.578v1.156c-0.458,0.198-0.892,0.34-1.301,0.426S391.928,45.923,391.35,45.923
		z M390.998,38.134c-0.688,0-1.235,0.224-1.645,0.672s-0.649,1.067-0.723,1.859h4.477c0-0.817-0.183-1.444-0.547-1.879
		S391.675,38.134,390.998,38.134z"/>
	<path d="M402.233,43.431c0,0.797-0.297,1.411-0.891,1.844s-1.427,0.648-2.5,0.648c-1.136,0-2.021-0.18-2.656-0.539v-1.203
		c0.411,0.208,0.853,0.372,1.324,0.492s0.926,0.18,1.363,0.18c0.677,0,1.198-0.108,1.562-0.324s0.547-0.546,0.547-0.988
		c0-0.333-0.145-0.618-0.434-0.855s-0.853-0.517-1.691-0.84c-0.797-0.297-1.363-0.556-1.699-0.777s-0.586-0.473-0.75-0.754
		s-0.246-0.617-0.246-1.008c0-0.698,0.284-1.249,0.852-1.652s1.347-0.605,2.336-0.605c0.922,0,1.823,0.188,2.703,0.562l-0.461,1.055
		c-0.859-0.354-1.638-0.531-2.336-0.531c-0.614,0-1.078,0.097-1.391,0.289s-0.469,0.458-0.469,0.797
		c0,0.229,0.059,0.425,0.176,0.586s0.306,0.315,0.566,0.461s0.761,0.356,1.5,0.633c1.016,0.37,1.702,0.742,2.059,1.117
		S402.233,42.864,402.233,43.431z"/>
	<path d="M409.865,43.431c0,0.797-0.297,1.411-0.891,1.844s-1.427,0.648-2.5,0.648c-1.136,0-2.021-0.18-2.656-0.539v-1.203
		c0.411,0.208,0.853,0.372,1.324,0.492s0.926,0.18,1.363,0.18c0.677,0,1.198-0.108,1.562-0.324s0.547-0.546,0.547-0.988
		c0-0.333-0.145-0.618-0.434-0.855s-0.853-0.517-1.691-0.84c-0.797-0.297-1.363-0.556-1.699-0.777s-0.586-0.473-0.75-0.754
		s-0.246-0.617-0.246-1.008c0-0.698,0.284-1.249,0.852-1.652s1.347-0.605,2.336-0.605c0.922,0,1.823,0.188,2.703,0.562l-0.461,1.055
		c-0.859-0.354-1.638-0.531-2.336-0.531c-0.614,0-1.078,0.097-1.391,0.289s-0.469,0.458-0.469,0.797
		c0,0.229,0.059,0.425,0.176,0.586s0.306,0.315,0.566,0.461s0.761,0.356,1.5,0.633c1.016,0.37,1.702,0.742,2.059,1.117
		S409.865,42.864,409.865,43.431z"/>
	<path d="M415.592,45.923c-1.266,0-2.265-0.386-2.996-1.156s-1.098-1.841-1.098-3.211c0-1.38,0.34-2.477,1.02-3.289
		s1.593-1.219,2.738-1.219c1.073,0,1.922,0.353,2.547,1.059s0.938,1.637,0.938,2.793v0.82h-5.898
		c0.026,1.005,0.28,1.769,0.762,2.289s1.16,0.781,2.035,0.781c0.922,0,1.833-0.192,2.734-0.578v1.156
		c-0.458,0.198-0.892,0.34-1.301,0.426S416.17,45.923,415.592,45.923z M415.24,38.134c-0.688,0-1.235,0.224-1.645,0.672
		s-0.649,1.067-0.723,1.859h4.477c0-0.817-0.183-1.444-0.547-1.879S415.917,38.134,415.24,38.134z"/>
	<path d="M424.858,37.048c0.38,0,0.722,0.031,1.023,0.094l-0.18,1.203c-0.354-0.078-0.667-0.117-0.938-0.117
		c-0.692,0-1.285,0.281-1.777,0.844s-0.738,1.263-0.738,2.102v4.594h-1.297v-8.562h1.07l0.148,1.586h0.062
		c0.317-0.558,0.7-0.987,1.148-1.289S424.321,37.048,424.858,37.048z"/>
	<path d="M430.248,44.853c0.229,0,0.45-0.017,0.664-0.051s0.383-0.069,0.508-0.105v0.992c-0.141,0.067-0.348,0.124-0.621,0.168
		s-0.52,0.066-0.738,0.066c-1.656,0-2.484-0.872-2.484-2.617v-5.094h-1.227v-0.625l1.227-0.539l0.547-1.828h0.75v1.984h2.484v1.008
		h-2.484v5.039c0,0.516,0.122,0.911,0.367,1.188S429.821,44.853,430.248,44.853z"/>
	<path d="M438.654,43.431c0,0.797-0.297,1.411-0.891,1.844s-1.427,0.648-2.5,0.648c-1.136,0-2.021-0.18-2.656-0.539v-1.203
		c0.411,0.208,0.853,0.372,1.324,0.492s0.926,0.18,1.363,0.18c0.677,0,1.198-0.108,1.562-0.324s0.547-0.546,0.547-0.988
		c0-0.333-0.145-0.618-0.434-0.855s-0.853-0.517-1.691-0.84c-0.797-0.297-1.363-0.556-1.699-0.777s-0.586-0.473-0.75-0.754
		s-0.246-0.617-0.246-1.008c0-0.698,0.284-1.249,0.852-1.652s1.347-0.605,2.336-0.605c0.922,0,1.823,0.188,2.703,0.562l-0.461,1.055
		c-0.859-0.354-1.638-0.531-2.336-0.531c-0.614,0-1.078,0.097-1.391,0.289s-0.469,0.458-0.469,0.797
		c0,0.229,0.059,0.425,0.176,0.586s0.306,0.315,0.566,0.461s0.761,0.356,1.5,0.633c1.016,0.37,1.702,0.742,2.059,1.117
		S438.654,42.864,438.654,43.431z"/>
</g>
</svg>