<!-- Generator: Adobe Illustrator 21.0.0, SVG Export Plug-In  -->
<svg version="1.1"
	 xmlns="http://www.w3.org/2000/svg" xmlns:xlink="http://www.w3.org/1999/xlink" xmlns:a="http://ns.adobe.com/AdobeSVGViewerExtensions/3.0/"
	 x="0px" y="0px" width="233.758px" height="30px" viewBox="0 0 233.758 30" style="enable-background:new 0 0 233.758 30;"
	 xml:space="preserve">
<defs>
</defs>
<g>
	<path d="M6.504,9.117H5.508V5.086H0.996v4.031H0V0.551h0.996v3.645h4.512V0.551h0.996V9.117z"/>
	<path d="M11.72,9.234c-0.949,0-1.698-0.289-2.247-0.867S8.649,6.986,8.649,5.959c0-1.035,0.255-1.857,0.765-2.467
		s1.194-0.914,2.054-0.914c0.805,0,1.441,0.265,1.91,0.794s0.703,1.228,0.703,2.095v0.615H9.657c0.02,0.754,0.21,1.326,0.571,1.717
		s0.87,0.586,1.526,0.586c0.691,0,1.375-0.145,2.051-0.434v0.867c-0.344,0.148-0.669,0.255-0.976,0.319S12.153,9.234,11.72,9.234z
		 M11.456,3.393c-0.516,0-0.927,0.168-1.233,0.504S9.735,4.697,9.681,5.291h3.357c0-0.613-0.137-1.083-0.41-1.409
		S11.964,3.393,11.456,3.393z"/>
	<path d="M19.988,9.117l-0.193-0.914h-0.047c-0.32,0.402-0.64,0.675-0.958,0.817s-0.716,0.214-1.192,0.214
		c-0.637,0-1.136-0.164-1.497-0.492s-0.542-0.795-0.542-1.4c0-1.297,1.037-1.977,3.111-2.039l1.09-0.035V4.869
		c0-0.504-0.108-0.876-0.325-1.116s-0.563-0.36-1.04-0.36c-0.535,0-1.141,0.164-1.816,0.492l-0.299-0.744
		c0.316-0.172,0.663-0.307,1.04-0.404s0.755-0.146,1.134-0.146c0.766,0,1.333,0.17,1.702,0.51s0.554,0.885,0.554,1.635v4.383H19.988
		z M17.791,8.432c0.605,0,1.081-0.166,1.427-0.498s0.519-0.797,0.519-1.395v-0.58L18.764,6c-0.773,0.027-1.331,0.147-1.673,0.36
		s-0.513,0.544-0.513,0.993c0,0.352,0.106,0.619,0.319,0.803S17.408,8.432,17.791,8.432z"/>
	<path d="M23.986,9.117h-0.973V0h0.973V9.117z"/>
	<path d="M28.423,8.432c0.172,0,0.338-0.013,0.498-0.038s0.287-0.052,0.381-0.079v0.744c-0.105,0.051-0.261,0.093-0.466,0.126
		s-0.39,0.05-0.554,0.05c-1.242,0-1.863-0.654-1.863-1.963v-3.82h-0.92V2.982l0.92-0.404l0.41-1.371h0.562v1.488h1.863v0.756h-1.863
		V7.23c0,0.387,0.092,0.684,0.275,0.891S28.103,8.432,28.423,8.432z"/>
	<path d="M35.279,9.117V4.963c0-0.523-0.119-0.914-0.357-1.172s-0.611-0.387-1.119-0.387c-0.676,0-1.169,0.184-1.479,0.551
		s-0.466,0.969-0.466,1.805v3.357h-0.973V0h0.973v2.76c0,0.332-0.016,0.607-0.047,0.826h0.059c0.191-0.309,0.464-0.552,0.817-0.729
		s0.757-0.267,1.21-0.267c0.785,0,1.374,0.187,1.767,0.56s0.589,0.966,0.589,1.778v4.189H35.279z"/>
	<path d="M37.53,2.695h1.043l1.406,3.662c0.309,0.836,0.5,1.439,0.574,1.811h0.047c0.051-0.199,0.157-0.54,0.319-1.022
		s0.692-1.966,1.591-4.45h1.043l-2.76,7.312c-0.273,0.723-0.593,1.235-0.958,1.538S39.022,12,38.491,12
		c-0.297,0-0.59-0.033-0.879-0.1v-0.779c0.215,0.047,0.455,0.07,0.721,0.07c0.668,0,1.145-0.375,1.43-1.125l0.357-0.914L37.53,2.695
		z"/>
	<path d="M54.648,9.117h-1.172l-3.123-4.154L49.457,5.76v3.357h-0.996V0.551h0.996v4.248l3.885-4.248h1.178l-3.445,3.721
		L54.648,9.117z"/>
	<path d="M61.522,5.9c0,1.047-0.264,1.864-0.791,2.452s-1.256,0.882-2.186,0.882c-0.574,0-1.084-0.135-1.529-0.404
		s-0.789-0.656-1.031-1.16s-0.363-1.094-0.363-1.77c0-1.047,0.262-1.862,0.785-2.446s1.25-0.876,2.18-0.876
		c0.898,0,1.612,0.299,2.142,0.896S61.522,4.881,61.522,5.9z M56.63,5.9c0,0.82,0.164,1.445,0.492,1.875s0.811,0.645,1.447,0.645
		s1.12-0.214,1.45-0.642s0.495-1.054,0.495-1.878c0-0.816-0.165-1.437-0.495-1.86s-0.817-0.636-1.462-0.636
		c-0.637,0-1.117,0.209-1.441,0.627S56.63,5.072,56.63,5.9z"/>
	<path d="M66.457,2.578c0.285,0,0.541,0.023,0.768,0.07L67.09,3.551c-0.266-0.059-0.5-0.088-0.703-0.088
		c-0.52,0-0.964,0.211-1.333,0.633S64.5,5.043,64.5,5.672v3.445h-0.973V2.695h0.803l0.111,1.189h0.047
		c0.238-0.418,0.525-0.74,0.861-0.967S66.055,2.578,66.457,2.578z"/>
	<path d="M71.438,9.234c-0.949,0-1.698-0.289-2.247-0.867s-0.823-1.381-0.823-2.408c0-1.035,0.255-1.857,0.765-2.467
		s1.194-0.914,2.054-0.914c0.805,0,1.441,0.265,1.91,0.794S73.8,4.6,73.8,5.467v0.615h-4.424c0.02,0.754,0.21,1.326,0.571,1.717
		s0.87,0.586,1.526,0.586c0.691,0,1.375-0.145,2.051-0.434v0.867c-0.344,0.148-0.669,0.255-0.976,0.319S71.872,9.234,71.438,9.234z
		 M71.175,3.393c-0.516,0-0.927,0.168-1.233,0.504s-0.487,0.801-0.542,1.395h3.357c0-0.613-0.137-1.083-0.41-1.409
		S71.683,3.393,71.175,3.393z"/>
	<path d="M79.707,9.117l-0.193-0.914h-0.047c-0.32,0.402-0.64,0.675-0.958,0.817s-0.716,0.214-1.192,0.214
		c-0.637,0-1.136-0.164-1.497-0.492s-0.542-0.795-0.542-1.4c0-1.297,1.037-1.977,3.111-2.039l1.09-0.035V4.869
		c0-0.504-0.108-0.876-0.325-1.116s-0.563-0.36-1.04-0.36c-0.535,0-1.141,0.164-1.816,0.492l-0.299-0.744
		c0.316-0.172,0.663-0.307,1.04-0.404s0.755-0.146,1.134-0.146c0.766,0,1.333,0.17,1.702,0.51s0.554,0.885,0.554,1.635v4.383H79.707
		z M77.51,8.432c0.605,0,1.081-0.166,1.427-0.498s0.519-0.797,0.519-1.395v-0.58L78.482,6c-0.773,0.027-1.331,0.147-1.673,0.36
		s-0.513,0.544-0.513,0.993c0,0.352,0.106,0.619,0.319,0.803S77.127,8.432,77.51,8.432z"/>
	<path d="M87.127,9.117V4.963c0-0.523-0.119-0.914-0.357-1.172s-0.611-0.387-1.119-0.387c-0.672,0-1.164,0.182-1.477,0.545
		s-0.469,0.963-0.469,1.799v3.369h-0.973V2.695h0.791l0.158,0.879h0.047c0.199-0.316,0.479-0.562,0.838-0.735
		s0.76-0.261,1.201-0.261c0.773,0,1.355,0.187,1.746,0.56s0.586,0.97,0.586,1.79v4.189H87.127z"/>
	<path d="M98.186,8.256h-0.053c-0.449,0.652-1.121,0.979-2.016,0.979c-0.84,0-1.493-0.287-1.96-0.861s-0.7-1.391-0.7-2.449
		s0.234-1.881,0.703-2.467s1.121-0.879,1.957-0.879c0.871,0,1.539,0.316,2.004,0.949h0.076l-0.041-0.463l-0.023-0.451V0h0.973v9.117
		h-0.791L98.186,8.256z M96.24,8.42c0.664,0,1.146-0.181,1.444-0.542s0.448-0.944,0.448-1.749V5.924c0-0.91-0.151-1.56-0.454-1.948
		s-0.786-0.583-1.45-0.583c-0.57,0-1.007,0.222-1.31,0.665s-0.454,1.069-0.454,1.878c0,0.82,0.15,1.439,0.451,1.857
		S95.658,8.42,96.24,8.42z"/>
	<path d="M104.181,9.234c-0.949,0-1.698-0.289-2.247-0.867s-0.823-1.381-0.823-2.408c0-1.035,0.255-1.857,0.765-2.467
		s1.194-0.914,2.054-0.914c0.805,0,1.441,0.265,1.91,0.794s0.703,1.228,0.703,2.095v0.615h-4.424c0.02,0.754,0.21,1.326,0.571,1.717
		s0.87,0.586,1.526,0.586c0.691,0,1.375-0.145,2.051-0.434v0.867c-0.344,0.148-0.669,0.255-0.976,0.319S104.614,9.234,104.181,9.234
		z M103.917,3.393c-0.516,0-0.927,0.168-1.233,0.504s-0.487,0.801-0.542,1.395h3.357c0-0.613-0.137-1.083-0.41-1.409
		S104.425,3.393,103.917,3.393z"/>
	<path d="M112.643,7.365c0,0.598-0.223,1.059-0.668,1.383s-1.07,0.486-1.875,0.486c-0.852,0-1.516-0.135-1.992-0.404V7.928
		c0.309,0.156,0.64,0.279,0.993,0.369s0.694,0.135,1.022,0.135c0.508,0,0.898-0.081,1.172-0.243s0.41-0.409,0.41-0.741
		c0-0.25-0.108-0.464-0.325-0.642s-0.64-0.388-1.269-0.63c-0.598-0.223-1.022-0.417-1.274-0.583s-0.439-0.354-0.562-0.565
		s-0.185-0.463-0.185-0.756c0-0.523,0.213-0.937,0.639-1.239s1.01-0.454,1.752-0.454c0.691,0,1.367,0.141,2.027,0.422l-0.346,0.791
		c-0.645-0.266-1.229-0.398-1.752-0.398c-0.461,0-0.809,0.072-1.043,0.217s-0.352,0.344-0.352,0.598
		c0,0.172,0.044,0.318,0.132,0.439s0.229,0.236,0.425,0.346s0.57,0.268,1.125,0.475c0.762,0.277,1.276,0.557,1.544,0.838
		S112.643,6.939,112.643,7.365z"/>
	<path d="M118.668,7.365c0,0.598-0.223,1.059-0.668,1.383s-1.07,0.486-1.875,0.486c-0.852,0-1.516-0.135-1.992-0.404V7.928
		c0.309,0.156,0.64,0.279,0.993,0.369s0.694,0.135,1.022,0.135c0.508,0,0.898-0.081,1.172-0.243s0.41-0.409,0.41-0.741
		c0-0.25-0.108-0.464-0.325-0.642s-0.64-0.388-1.269-0.63c-0.598-0.223-1.022-0.417-1.274-0.583s-0.439-0.354-0.562-0.565
		s-0.185-0.463-0.185-0.756c0-0.523,0.213-0.937,0.639-1.239s1.01-0.454,1.752-0.454c0.691,0,1.367,0.141,2.027,0.422l-0.346,0.791
		c-0.645-0.266-1.229-0.398-1.752-0.398c-0.461,0-0.809,0.072-1.043,0.217s-0.352,0.344-0.352,0.598
		c0,0.172,0.044,0.318,0.132,0.439s0.229,0.236,0.425,0.346s0.57,0.268,1.125,0.475c0.762,0.277,1.276,0.557,1.544,0.838
		S118.668,6.939,118.668,7.365z"/>
	<path d="M123.263,9.234c-0.949,0-1.698-0.289-2.247-0.867s-0.823-1.381-0.823-2.408c0-1.035,0.255-1.857,0.765-2.467
		s1.194-0.914,2.054-0.914c0.805,0,1.441,0.265,1.91,0.794s0.703,1.228,0.703,2.095v0.615H121.2c0.02,0.754,0.21,1.326,0.571,1.717
		s0.87,0.586,1.526,0.586c0.691,0,1.375-0.145,2.051-0.434v0.867c-0.344,0.148-0.669,0.255-0.976,0.319S123.696,9.234,123.263,9.234
		z M122.999,3.393c-0.516,0-0.927,0.168-1.233,0.504s-0.487,0.801-0.542,1.395h3.357c0-0.613-0.137-1.083-0.41-1.409
		S123.507,3.393,122.999,3.393z"/>
	<path d="M130.512,2.578c0.285,0,0.541,0.023,0.768,0.07l-0.135,0.902c-0.266-0.059-0.5-0.088-0.703-0.088
		c-0.52,0-0.964,0.211-1.333,0.633s-0.554,0.947-0.554,1.576v3.445h-0.973V2.695h0.803l0.111,1.189h0.047
		c0.238-0.418,0.525-0.74,0.861-0.967S130.109,2.578,130.512,2.578z"/>
	<path d="M134.854,8.432c0.172,0,0.338-0.013,0.498-0.038s0.287-0.052,0.381-0.079v0.744c-0.105,0.051-0.261,0.093-0.466,0.126
		s-0.39,0.05-0.554,0.05c-1.242,0-1.863-0.654-1.863-1.963v-3.82h-0.92V2.982l0.92-0.404l0.41-1.371h0.562v1.488h1.863v0.756h-1.863
		V7.23c0,0.387,0.092,0.684,0.275,0.891S134.534,8.432,134.854,8.432z"/>
	<path d="M142.809,8.432c0.172,0,0.338-0.013,0.498-0.038s0.287-0.052,0.381-0.079v0.744c-0.105,0.051-0.261,0.093-0.466,0.126
		s-0.39,0.05-0.554,0.05c-1.242,0-1.863-0.654-1.863-1.963v-3.82h-0.92V2.982l0.92-0.404l0.41-1.371h0.562v1.488h1.863v0.756h-1.863
		V7.23c0,0.387,0.092,0.684,0.275,0.891S142.488,8.432,142.809,8.432z"/>
	<path d="M149.665,9.117V4.963c0-0.523-0.119-0.914-0.357-1.172s-0.611-0.387-1.119-0.387c-0.676,0-1.169,0.184-1.479,0.551
		s-0.466,0.969-0.466,1.805v3.357h-0.973V0h0.973v2.76c0,0.332-0.016,0.607-0.047,0.826h0.059c0.191-0.309,0.464-0.552,0.817-0.729
		s0.757-0.267,1.21-0.267c0.785,0,1.374,0.187,1.767,0.56s0.589,0.966,0.589,1.778v4.189H149.665z"/>
	<path d="M156.885,9.117l-0.193-0.914h-0.047c-0.32,0.402-0.64,0.675-0.958,0.817s-0.716,0.214-1.192,0.214
		c-0.637,0-1.136-0.164-1.497-0.492s-0.542-0.795-0.542-1.4c0-1.297,1.037-1.977,3.111-2.039l1.09-0.035V4.869
		c0-0.504-0.108-0.876-0.325-1.116s-0.563-0.36-1.04-0.36c-0.535,0-1.141,0.164-1.816,0.492l-0.299-0.744
		c0.316-0.172,0.663-0.307,1.04-0.404s0.755-0.146,1.134-0.146c0.766,0,1.333,0.17,1.702,0.51s0.554,0.885,0.554,1.635v4.383
		H156.885z M154.688,8.432c0.605,0,1.081-0.166,1.427-0.498s0.519-0.797,0.519-1.395v-0.58L155.66,6
		c-0.773,0.027-1.331,0.147-1.673,0.36s-0.513,0.544-0.513,0.993c0,0.352,0.106,0.619,0.319,0.803S154.305,8.432,154.688,8.432z"/>
	<path d="M161.983,8.432c0.172,0,0.338-0.013,0.498-0.038s0.287-0.052,0.381-0.079v0.744c-0.105,0.051-0.261,0.093-0.466,0.126
		s-0.39,0.05-0.554,0.05c-1.242,0-1.863-0.654-1.863-1.963v-3.82h-0.92V2.982l0.92-0.404l0.41-1.371h0.562v1.488h1.863v0.756h-1.863
		V7.23c0,0.387,0.092,0.684,0.275,0.891S161.663,8.432,161.983,8.432z"/>
	<path d="M169.938,8.432c0.172,0,0.338-0.013,0.498-0.038s0.287-0.052,0.381-0.079v0.744c-0.105,0.051-0.261,0.093-0.466,0.126
		s-0.39,0.05-0.554,0.05c-1.242,0-1.863-0.654-1.863-1.963v-3.82h-0.92V2.982l0.92-0.404l0.41-1.371h0.562v1.488h1.863v0.756h-1.863
		V7.23c0,0.387,0.092,0.684,0.275,0.891S169.617,8.432,169.938,8.432z"/>
	<path d="M175.329,2.578c0.285,0,0.541,0.023,0.768,0.07l-0.135,0.902c-0.266-0.059-0.5-0.088-0.703-0.088
		c-0.52,0-0.964,0.211-1.333,0.633s-0.554,0.947-0.554,1.576v3.445h-0.973V2.695h0.803l0.111,1.189h0.047
		c0.238-0.418,0.525-0.74,0.861-0.967S174.927,2.578,175.329,2.578z"/>
	<path d="M181.547,9.117l-0.193-0.914h-0.047c-0.32,0.402-0.64,0.675-0.958,0.817s-0.716,0.214-1.192,0.214
		c-0.637,0-1.136-0.164-1.497-0.492s-0.542-0.795-0.542-1.4c0-1.297,1.037-1.977,3.111-2.039l1.09-0.035V4.869
		c0-0.504-0.108-0.876-0.325-1.116s-0.563-0.36-1.04-0.36c-0.535,0-1.141,0.164-1.816,0.492l-0.299-0.744
		c0.316-0.172,0.663-0.307,1.04-0.404s0.755-0.146,1.134-0.146c0.766,0,1.333,0.17,1.702,0.51s0.554,0.885,0.554,1.635v4.383
		H181.547z M179.35,8.432c0.605,0,1.081-0.166,1.427-0.498s0.519-0.797,0.519-1.395v-0.58L180.322,6
		c-0.773,0.027-1.331,0.147-1.673,0.36s-0.513,0.544-0.513,0.993c0,0.352,0.106,0.619,0.319,0.803S178.967,8.432,179.35,8.432z"/>
	<path d="M188.966,9.117V4.963c0-0.523-0.119-0.914-0.357-1.172s-0.611-0.387-1.119-0.387c-0.672,0-1.164,0.182-1.477,0.545
		s-0.469,0.963-0.469,1.799v3.369h-0.973V2.695h0.791l0.158,0.879h0.047c0.199-0.316,0.479-0.562,0.838-0.735
		s0.76-0.261,1.201-0.261c0.773,0,1.355,0.187,1.746,0.56s0.586,0.97,0.586,1.79v4.189H188.966z"/>
	<path d="M196.379,7.365c0,0.598-0.223,1.059-0.668,1.383s-1.07,0.486-1.875,0.486c-0.852,0-1.516-0.135-1.992-0.404V7.928
		c0.309,0.156,0.64,0.279,0.993,0.369s0.694,0.135,1.022,0.135c0.508,0,0.898-0.081,1.172-0.243s0.41-0.409,0.41-0.741
		c0-0.25-0.108-0.464-0.325-0.642s-0.64-0.388-1.269-0.63c-0.598-0.223-1.022-0.417-1.274-0.583s-0.439-0.354-0.562-0.565
		s-0.185-0.463-0.185-0.756c0-0.523,0.213-0.937,0.639-1.239s1.01-0.454,1.752-0.454c0.691,0,1.367,0.141,2.027,0.422l-0.346,0.791
		c-0.645-0.266-1.229-0.398-1.752-0.398c-0.461,0-0.809,0.072-1.043,0.217s-0.352,0.344-0.352,0.598
		c0,0.172,0.044,0.318,0.132,0.439s0.229,0.236,0.425,0.346s0.57,0.268,1.125,0.475c0.762,0.277,1.276,0.557,1.544,0.838
		S196.379,6.939,196.379,7.365z"/>
	<path d="M200.828,9.234c-0.93,0-1.649-0.286-2.159-0.858s-0.765-1.382-0.765-2.429c0-1.074,0.259-1.904,0.776-2.49
		s1.255-0.879,2.212-0.879c0.309,0,0.617,0.033,0.926,0.1s0.551,0.145,0.727,0.234l-0.299,0.826
		c-0.215-0.086-0.449-0.157-0.703-0.214s-0.479-0.085-0.674-0.085c-1.305,0-1.957,0.832-1.957,2.496
		c0,0.789,0.159,1.395,0.478,1.816s0.79,0.633,1.415,0.633c0.535,0,1.084-0.115,1.646-0.346V8.9
		C202.021,9.123,201.48,9.234,200.828,9.234z"/>
	<path d="M206.987,9.234c-0.949,0-1.698-0.289-2.247-0.867s-0.823-1.381-0.823-2.408c0-1.035,0.255-1.857,0.765-2.467
		s1.194-0.914,2.054-0.914c0.805,0,1.441,0.265,1.91,0.794s0.703,1.228,0.703,2.095v0.615h-4.424c0.02,0.754,0.21,1.326,0.571,1.717
		s0.87,0.586,1.526,0.586c0.691,0,1.375-0.145,2.051-0.434v0.867c-0.344,0.148-0.669,0.255-0.976,0.319S207.421,9.234,206.987,9.234
		z M206.724,3.393c-0.516,0-0.927,0.168-1.233,0.504s-0.487,0.801-0.542,1.395h3.357c0-0.613-0.137-1.083-0.41-1.409
		S207.231,3.393,206.724,3.393z"/>
	<path d="M215.701,9.117V4.963c0-0.523-0.119-0.914-0.357-1.172s-0.611-0.387-1.119-0.387c-0.672,0-1.164,0.182-1.477,0.545
		s-0.469,0.963-0.469,1.799v3.369h-0.973V2.695h0.791l0.158,0.879h0.047c0.199-0.316,0.479-0.562,0.838-0.735
		s0.76-0.261,1.201-0.261c0.773,0,1.355,0.187,1.746,0.56s0.586,0.97,0.586,1.79v4.189H215.701z"/>
	<path d="M223.343,8.256h-0.053c-0.449,0.652-1.121,0.979-2.016,0.979c-0.84,0-1.493-0.287-1.96-0.861s-0.7-1.391-0.7-2.449
		s0.234-1.881,0.703-2.467s1.121-0.879,1.957-0.879c0.871,0,1.539,0.316,2.004,0.949h0.076l-0.041-0.463l-0.023-0.451V0h0.973v9.117
		h-0.791L223.343,8.256z M221.397,8.42c0.664,0,1.146-0.181,1.444-0.542s0.448-0.944,0.448-1.749V5.924
		c0-0.91-0.151-1.56-0.454-1.948s-0.786-0.583-1.45-0.583c-0.57,0-1.007,0.222-1.31,0.665s-0.454,1.069-0.454,1.878
		c0,0.82,0.15,1.439,0.451,1.857S220.815,8.42,221.397,8.42z"/>
	<path d="M230.768,7.365c0,0.598-0.223,1.059-0.668,1.383s-1.07,0.486-1.875,0.486c-0.852,0-1.516-0.135-1.992-0.404V7.928
		c0.309,0.156,0.64,0.279,0.993,0.369s0.694,0.135,1.022,0.135c0.508,0,0.898-0.081,1.172-0.243s0.41-0.409,0.41-0.741
		c0-0.25-0.108-0.464-0.325-0.642s-0.64-0.388-1.269-0.63c-0.598-0.223-1.022-0.417-1.274-0.583s-0.439-0.354-0.562-0.565
		s-0.185-0.463-0.185-0.756c0-0.523,0.213-0.937,0.639-1.239s1.01-0.454,1.752-0.454c0.691,0,1.367,0.141,2.027,0.422l-0.346,0.791
		c-0.645-0.266-1.229-0.398-1.752-0.398c-0.461,0-0.809,0.072-1.043,0.217s-0.352,0.344-0.352,0.598
		c0,0.172,0.044,0.318,0.132,0.439s0.229,0.236,0.425,0.346s0.57,0.268,1.125,0.475c0.762,0.277,1.276,0.557,1.544,0.838
		S230.768,6.939,230.768,7.365z"/>
	<path d="M233.67,7.723l0.088,0.135c-0.102,0.391-0.248,0.845-0.439,1.362s-0.391,0.999-0.598,1.444h-0.732
		c0.105-0.406,0.222-0.908,0.349-1.506s0.216-1.076,0.267-1.436H233.67z"/>
	<path d="M15.77,20.695v0.615l-1.189,0.141c0.109,0.137,0.207,0.315,0.293,0.536s0.129,0.47,0.129,0.747
		c0,0.629-0.215,1.131-0.645,1.506s-1.02,0.562-1.77,0.562c-0.191,0-0.371-0.016-0.539-0.047c-0.414,0.219-0.621,0.494-0.621,0.826
		c0,0.176,0.072,0.306,0.217,0.39s0.393,0.126,0.744,0.126h1.137c0.695,0,1.229,0.146,1.603,0.439s0.56,0.719,0.56,1.277
		c0,0.711-0.285,1.253-0.855,1.626S13.43,30,12.336,30c-0.84,0-1.487-0.156-1.942-0.469s-0.683-0.754-0.683-1.324
		c0-0.391,0.125-0.729,0.375-1.014s0.602-0.479,1.055-0.58c-0.164-0.074-0.302-0.189-0.413-0.346s-0.167-0.338-0.167-0.545
		c0-0.234,0.062-0.439,0.188-0.615s0.322-0.346,0.592-0.51c-0.332-0.137-0.603-0.369-0.812-0.697s-0.313-0.703-0.313-1.125
		c0-0.703,0.211-1.245,0.633-1.626s1.02-0.571,1.793-0.571c0.336,0,0.639,0.039,0.908,0.117H15.77z M10.648,28.195
		c0,0.348,0.146,0.611,0.439,0.791s0.713,0.27,1.26,0.27c0.816,0,1.421-0.122,1.813-0.366s0.589-0.575,0.589-0.993
		c0-0.348-0.107-0.589-0.322-0.724s-0.619-0.202-1.213-0.202h-1.166c-0.441,0-0.785,0.105-1.031,0.316S10.648,27.801,10.648,28.195z
		 M11.176,22.752c0,0.449,0.127,0.789,0.381,1.02s0.607,0.346,1.061,0.346c0.949,0,1.424-0.461,1.424-1.383
		c0-0.965-0.48-1.447-1.441-1.447c-0.457,0-0.809,0.123-1.055,0.369S11.176,22.268,11.176,22.752z"/>
	<path d="M20.101,27.234c-0.949,0-1.698-0.289-2.247-0.867s-0.823-1.381-0.823-2.408c0-1.035,0.255-1.857,0.765-2.467
		s1.194-0.914,2.054-0.914c0.805,0,1.441,0.265,1.91,0.794s0.703,1.228,0.703,2.095v0.615h-4.424c0.02,0.754,0.21,1.326,0.571,1.717
		s0.87,0.586,1.526,0.586c0.691,0,1.375-0.145,2.051-0.434v0.867c-0.344,0.148-0.669,0.255-0.976,0.319S20.534,27.234,20.101,27.234
		z M19.837,21.393c-0.516,0-0.927,0.168-1.233,0.504s-0.487,0.801-0.542,1.395h3.357c0-0.613-0.137-1.083-0.41-1.409
		S20.345,21.393,19.837,21.393z"/>
	<path d="M28.814,27.117v-4.154c0-0.523-0.119-0.914-0.357-1.172s-0.611-0.387-1.119-0.387c-0.672,0-1.164,0.182-1.477,0.545
		s-0.469,0.963-0.469,1.799v3.369H24.42v-6.422h0.791l0.158,0.879h0.047c0.199-0.316,0.479-0.562,0.838-0.735
		s0.76-0.261,1.201-0.261c0.773,0,1.355,0.187,1.746,0.56s0.586,0.97,0.586,1.79v4.189H28.814z"/>
	<path d="M34.799,27.234c-0.949,0-1.698-0.289-2.247-0.867s-0.823-1.381-0.823-2.408c0-1.035,0.255-1.857,0.765-2.467
		s1.194-0.914,2.054-0.914c0.805,0,1.441,0.265,1.91,0.794s0.703,1.228,0.703,2.095v0.615h-4.424c0.02,0.754,0.21,1.326,0.571,1.717
		s0.87,0.586,1.526,0.586c0.691,0,1.375-0.145,2.051-0.434v0.867c-0.344,0.148-0.669,0.255-0.976,0.319S35.232,27.234,34.799,27.234
		z M34.535,21.393c-0.516,0-0.927,0.168-1.233,0.504s-0.487,0.801-0.542,1.395h3.357c0-0.613-0.137-1.083-0.41-1.409
		S35.043,21.393,34.535,21.393z"/>
	<path d="M42.048,20.578c0.285,0,0.541,0.023,0.768,0.07l-0.135,0.902c-0.266-0.059-0.5-0.088-0.703-0.088
		c-0.52,0-0.964,0.211-1.333,0.633s-0.554,0.947-0.554,1.576v3.445h-0.973v-6.422h0.803l0.111,1.189h0.047
		c0.238-0.418,0.525-0.74,0.861-0.967S41.646,20.578,42.048,20.578z"/>
	<path d="M48.266,27.117l-0.193-0.914h-0.047c-0.32,0.402-0.64,0.675-0.958,0.817s-0.716,0.214-1.192,0.214
		c-0.637,0-1.136-0.164-1.497-0.492s-0.542-0.795-0.542-1.4c0-1.297,1.037-1.977,3.111-2.039l1.09-0.035v-0.398
		c0-0.504-0.108-0.876-0.325-1.116s-0.563-0.36-1.04-0.36c-0.535,0-1.141,0.164-1.816,0.492l-0.299-0.744
		c0.316-0.172,0.663-0.307,1.04-0.404s0.755-0.146,1.134-0.146c0.766,0,1.333,0.17,1.702,0.51s0.554,0.885,0.554,1.635v4.383H48.266
		z M46.068,26.432c0.605,0,1.081-0.166,1.427-0.498s0.519-0.797,0.519-1.395v-0.58L47.041,24c-0.773,0.027-1.331,0.147-1.673,0.36
		s-0.513,0.544-0.513,0.993c0,0.352,0.106,0.619,0.319,0.803S45.686,26.432,46.068,26.432z"/>
	<path d="M53.364,26.432c0.172,0,0.338-0.013,0.498-0.038s0.287-0.052,0.381-0.079v0.744c-0.105,0.051-0.261,0.093-0.466,0.126
		s-0.39,0.05-0.554,0.05c-1.242,0-1.863-0.654-1.863-1.963v-3.82h-0.92v-0.469l0.92-0.404l0.41-1.371h0.562v1.488h1.863v0.756
		h-1.863v3.779c0,0.387,0.092,0.684,0.275,0.891S53.044,26.432,53.364,26.432z"/>
	<path d="M55.744,18.955c0-0.223,0.055-0.386,0.164-0.489s0.246-0.155,0.41-0.155c0.156,0,0.291,0.053,0.404,0.158
		s0.17,0.268,0.17,0.486s-0.057,0.382-0.17,0.489s-0.248,0.161-0.404,0.161c-0.164,0-0.301-0.054-0.41-0.161
		S55.744,19.174,55.744,18.955z M56.799,27.117h-0.973v-6.422h0.973V27.117z"/>
	<path d="M64.705,23.9c0,1.047-0.264,1.864-0.791,2.452s-1.256,0.882-2.186,0.882c-0.574,0-1.084-0.135-1.529-0.404
		s-0.789-0.656-1.031-1.16s-0.363-1.094-0.363-1.77c0-1.047,0.262-1.862,0.785-2.446s1.25-0.876,2.18-0.876
		c0.898,0,1.612,0.299,2.142,0.896S64.705,22.881,64.705,23.9z M59.812,23.9c0,0.82,0.164,1.445,0.492,1.875
		s0.811,0.645,1.447,0.645s1.12-0.214,1.45-0.642s0.495-1.054,0.495-1.878c0-0.816-0.165-1.437-0.495-1.86s-0.817-0.636-1.462-0.636
		c-0.637,0-1.117,0.209-1.441,0.627S59.812,23.072,59.812,23.9z"/>
	<path d="M71.104,27.117v-4.154c0-0.523-0.119-0.914-0.357-1.172s-0.611-0.387-1.119-0.387c-0.672,0-1.164,0.182-1.477,0.545
		s-0.469,0.963-0.469,1.799v3.369H66.71v-6.422h0.791l0.158,0.879h0.047c0.199-0.316,0.479-0.562,0.838-0.735
		s0.76-0.261,1.201-0.261c0.773,0,1.355,0.187,1.746,0.56s0.586,0.97,0.586,1.79v4.189H71.104z"/>
	<path d="M78.518,25.365c0,0.598-0.223,1.059-0.668,1.383s-1.07,0.486-1.875,0.486c-0.852,0-1.516-0.135-1.992-0.404v-0.902
		c0.309,0.156,0.64,0.279,0.993,0.369s0.694,0.135,1.022,0.135c0.508,0,0.898-0.081,1.172-0.243s0.41-0.409,0.41-0.741
		c0-0.25-0.108-0.464-0.325-0.642s-0.64-0.388-1.269-0.63c-0.598-0.223-1.022-0.417-1.274-0.583s-0.439-0.354-0.562-0.565
		s-0.185-0.463-0.185-0.756c0-0.523,0.213-0.937,0.639-1.239s1.01-0.454,1.752-0.454c0.691,0,1.367,0.141,2.027,0.422l-0.346,0.791
		c-0.645-0.266-1.229-0.398-1.752-0.398c-0.461,0-0.809,0.072-1.043,0.217s-0.352,0.344-0.352,0.598
		c0,0.172,0.044,0.318,0.132,0.439s0.229,0.236,0.425,0.346s0.57,0.268,1.125,0.475c0.762,0.277,1.276,0.557,1.544,0.838
		S78.518,24.939,78.518,25.365z"/>
	<path d="M81.419,25.723l0.088,0.135c-0.102,0.391-0.248,0.845-0.439,1.362s-0.391,0.999-0.598,1.444h-0.732
		c0.105-0.406,0.222-0.908,0.349-1.506s0.216-1.076,0.267-1.436H81.419z"/>
	<path d="M91.201,25.365c0,0.598-0.223,1.059-0.668,1.383s-1.07,0.486-1.875,0.486c-0.852,0-1.516-0.135-1.992-0.404v-0.902
		c0.309,0.156,0.64,0.279,0.993,0.369s0.694,0.135,1.022,0.135c0.508,0,0.898-0.081,1.172-0.243s0.41-0.409,0.41-0.741
		c0-0.25-0.108-0.464-0.325-0.642s-0.64-0.388-1.269-0.63c-0.598-0.223-1.022-0.417-1.274-0.583s-0.439-0.354-0.562-0.565
		s-0.185-0.463-0.185-0.756c0-0.523,0.213-0.937,0.639-1.239s1.01-0.454,1.752-0.454c0.691,0,1.367,0.141,2.027,0.422l-0.346,0.791
		c-0.645-0.266-1.229-0.398-1.752-0.398c-0.461,0-0.809,0.072-1.043,0.217s-0.352,0.344-0.352,0.598
		c0,0.172,0.044,0.318,0.132,0.439s0.229,0.236,0.425,0.346s0.57,0.268,1.125,0.475c0.762,0.277,1.276,0.557,1.544,0.838
		S91.201,24.939,91.201,25.365z"/>
	<path d="M95.796,27.234c-0.949,0-1.698-0.289-2.247-0.867s-0.823-1.381-0.823-2.408c0-1.035,0.255-1.857,0.765-2.467
		s1.194-0.914,2.054-0.914c0.805,0,1.441,0.265,1.91,0.794s0.703,1.228,0.703,2.095v0.615h-4.424c0.02,0.754,0.21,1.326,0.571,1.717
		s0.87,0.586,1.526,0.586c0.691,0,1.375-0.145,2.051-0.434v0.867c-0.344,0.148-0.669,0.255-0.976,0.319S96.229,27.234,95.796,27.234
		z M95.532,21.393c-0.516,0-0.927,0.168-1.233,0.504s-0.487,0.801-0.542,1.395h3.357c0-0.613-0.137-1.083-0.41-1.409
		S96.04,21.393,95.532,21.393z"/>
	<path d="M104.064,27.117l-0.193-0.914h-0.047c-0.32,0.402-0.64,0.675-0.958,0.817s-0.716,0.214-1.192,0.214
		c-0.637,0-1.136-0.164-1.497-0.492s-0.542-0.795-0.542-1.4c0-1.297,1.037-1.977,3.111-2.039l1.09-0.035v-0.398
		c0-0.504-0.108-0.876-0.325-1.116s-0.563-0.36-1.04-0.36c-0.535,0-1.141,0.164-1.816,0.492l-0.299-0.744
		c0.316-0.172,0.663-0.307,1.04-0.404s0.755-0.146,1.134-0.146c0.766,0,1.333,0.17,1.702,0.51s0.554,0.885,0.554,1.635v4.383
		H104.064z M101.867,26.432c0.605,0,1.081-0.166,1.427-0.498s0.519-0.797,0.519-1.395v-0.58L102.84,24
		c-0.773,0.027-1.331,0.147-1.673,0.36s-0.513,0.544-0.513,0.993c0,0.352,0.106,0.619,0.319,0.803S101.484,26.432,101.867,26.432z"
		/>
	<path d="M111.231,25.365c0,0.598-0.223,1.059-0.668,1.383s-1.07,0.486-1.875,0.486c-0.852,0-1.516-0.135-1.992-0.404v-0.902
		c0.309,0.156,0.64,0.279,0.993,0.369s0.694,0.135,1.022,0.135c0.508,0,0.898-0.081,1.172-0.243s0.41-0.409,0.41-0.741
		c0-0.25-0.108-0.464-0.325-0.642s-0.64-0.388-1.269-0.63c-0.598-0.223-1.022-0.417-1.274-0.583s-0.439-0.354-0.562-0.565
		s-0.185-0.463-0.185-0.756c0-0.523,0.213-0.937,0.639-1.239s1.01-0.454,1.752-0.454c0.691,0,1.367,0.141,2.027,0.422l-0.346,0.791
		c-0.645-0.266-1.229-0.398-1.752-0.398c-0.461,0-0.809,0.072-1.043,0.217s-0.352,0.344-0.352,0.598
		c0,0.172,0.044,0.318,0.132,0.439s0.229,0.236,0.425,0.346s0.57,0.268,1.125,0.475c0.762,0.277,1.276,0.557,1.544,0.838
		S111.231,24.939,111.231,25.365z"/>
	<path d="M118.656,23.9c0,1.047-0.264,1.864-0.791,2.452s-1.256,0.882-2.186,0.882c-0.574,0-1.084-0.135-1.529-0.404
		s-0.789-0.656-1.031-1.16s-0.363-1.094-0.363-1.77c0-1.047,0.262-1.862,0.785-2.446s1.25-0.876,2.18-0.876
		c0.898,0,1.612,0.299,2.142,0.896S118.656,22.881,118.656,23.9z M113.764,23.9c0,0.82,0.164,1.445,0.492,1.875
		s0.811,0.645,1.447,0.645s1.12-0.214,1.45-0.642s0.495-1.054,0.495-1.878c0-0.816-0.165-1.437-0.495-1.86s-0.817-0.636-1.462-0.636
		c-0.637,0-1.117,0.209-1.441,0.627S113.764,23.072,113.764,23.9z"/>
	<path d="M125.057,27.117v-4.154c0-0.523-0.119-0.914-0.357-1.172s-0.611-0.387-1.119-0.387c-0.672,0-1.164,0.182-1.477,0.545
		s-0.469,0.963-0.469,1.799v3.369h-0.973v-6.422h0.791l0.158,0.879h0.047c0.199-0.316,0.479-0.562,0.838-0.735
		s0.76-0.261,1.201-0.261c0.773,0,1.355,0.187,1.746,0.56s0.586,0.97,0.586,1.79v4.189H125.057z"/>
	<path d="M132.47,25.365c0,0.598-0.223,1.059-0.668,1.383s-1.07,0.486-1.875,0.486c-0.852,0-1.516-0.135-1.992-0.404v-0.902
		c0.309,0.156,0.64,0.279,0.993,0.369s0.694,0.135,1.022,0.135c0.508,0,0.898-0.081,1.172-0.243s0.41-0.409,0.41-0.741
		c0-0.25-0.108-0.464-0.325-0.642s-0.64-0.388-1.269-0.63c-0.598-0.223-1.022-0.417-1.274-0.583s-0.439-0.354-0.562-0.565
		s-0.185-0.463-0.185-0.756c0-0.523,0.213-0.937,0.639-1.239s1.01-0.454,1.752-0.454c0.691,0,1.367,0.141,2.027,0.422l-0.346,0.791
		c-0.645-0.266-1.229-0.398-1.752-0.398c-0.461,0-0.809,0.072-1.043,0.217s-0.352,0.344-0.352,0.598
		c0,0.172,0.044,0.318,0.132,0.439s0.229,0.236,0.425,0.346s0.57,0.268,1.125,0.475c0.762,0.277,1.276,0.557,1.544,0.838
		S132.47,24.939,132.47,25.365z"/>
	<path d="M135.371,25.723l0.088,0.135c-0.102,0.391-0.248,0.845-0.439,1.362s-0.391,0.999-0.598,1.444h-0.732
		c0.105-0.406,0.222-0.908,0.349-1.506s0.216-1.076,0.267-1.436H135.371z"/>
	<path d="M144.959,27.117l-0.193-0.914h-0.047c-0.32,0.402-0.64,0.675-0.958,0.817s-0.716,0.214-1.192,0.214
		c-0.637,0-1.136-0.164-1.497-0.492s-0.542-0.795-0.542-1.4c0-1.297,1.037-1.977,3.111-2.039l1.09-0.035v-0.398
		c0-0.504-0.108-0.876-0.325-1.116s-0.563-0.36-1.04-0.36c-0.535,0-1.141,0.164-1.816,0.492l-0.299-0.744
		c0.316-0.172,0.663-0.307,1.04-0.404s0.755-0.146,1.134-0.146c0.766,0,1.333,0.17,1.702,0.51s0.554,0.885,0.554,1.635v4.383
		H144.959z M142.762,26.432c0.605,0,1.081-0.166,1.427-0.498s0.519-0.797,0.519-1.395v-0.58L143.734,24
		c-0.773,0.027-1.331,0.147-1.673,0.36s-0.513,0.544-0.513,0.993c0,0.352,0.106,0.619,0.319,0.803S142.379,26.432,142.762,26.432z"
		/>
	<path d="M152.379,27.117v-4.154c0-0.523-0.119-0.914-0.357-1.172s-0.611-0.387-1.119-0.387c-0.672,0-1.164,0.182-1.477,0.545
		s-0.469,0.963-0.469,1.799v3.369h-0.973v-6.422h0.791l0.158,0.879h0.047c0.199-0.316,0.479-0.562,0.838-0.735
		s0.76-0.261,1.201-0.261c0.773,0,1.355,0.187,1.746,0.56s0.586,0.97,0.586,1.79v4.189H152.379z"/>
	<path d="M160.021,26.256h-0.053c-0.449,0.652-1.121,0.979-2.016,0.979c-0.84,0-1.493-0.287-1.96-0.861s-0.7-1.391-0.7-2.449
		s0.234-1.881,0.703-2.467s1.121-0.879,1.957-0.879c0.871,0,1.539,0.316,2.004,0.949h0.076l-0.041-0.463l-0.023-0.451V18h0.973
		v9.117h-0.791L160.021,26.256z M158.075,26.42c0.664,0,1.146-0.181,1.444-0.542s0.448-0.944,0.448-1.749v-0.205
		c0-0.91-0.151-1.56-0.454-1.948s-0.786-0.583-1.45-0.583c-0.57,0-1.007,0.222-1.31,0.665s-0.454,1.069-0.454,1.878
		c0,0.82,0.15,1.439,0.451,1.857S157.493,26.42,158.075,26.42z"/>
	<path d="M169.286,27.234c-0.93,0-1.649-0.286-2.159-0.858s-0.765-1.382-0.765-2.429c0-1.074,0.259-1.904,0.776-2.49
		s1.255-0.879,2.212-0.879c0.309,0,0.617,0.033,0.926,0.1s0.551,0.145,0.727,0.234l-0.299,0.826
		c-0.215-0.086-0.449-0.157-0.703-0.214s-0.479-0.085-0.674-0.085c-1.305,0-1.957,0.832-1.957,2.496
		c0,0.789,0.159,1.395,0.478,1.816s0.79,0.633,1.415,0.633c0.535,0,1.084-0.115,1.646-0.346V26.9
		C170.479,27.123,169.938,27.234,169.286,27.234z"/>
	<path d="M178.275,23.9c0,1.047-0.264,1.864-0.791,2.452s-1.256,0.882-2.186,0.882c-0.574,0-1.084-0.135-1.529-0.404
		s-0.789-0.656-1.031-1.16s-0.363-1.094-0.363-1.77c0-1.047,0.262-1.862,0.785-2.446s1.25-0.876,2.18-0.876
		c0.898,0,1.612,0.299,2.142,0.896S178.275,22.881,178.275,23.9z M173.383,23.9c0,0.82,0.164,1.445,0.492,1.875
		s0.811,0.645,1.447,0.645s1.12-0.214,1.45-0.642s0.495-1.054,0.495-1.878c0-0.816-0.165-1.437-0.495-1.86s-0.817-0.636-1.462-0.636
		c-0.637,0-1.117,0.209-1.441,0.627S173.383,23.072,173.383,23.9z"/>
	<path d="M181.195,20.695v4.166c0,0.523,0.119,0.914,0.357,1.172s0.611,0.387,1.119,0.387c0.672,0,1.163-0.184,1.474-0.551
		s0.466-0.967,0.466-1.799v-3.375h0.973v6.422h-0.803l-0.141-0.861h-0.053c-0.199,0.316-0.476,0.559-0.829,0.727
		s-0.757,0.252-1.21,0.252c-0.781,0-1.366-0.186-1.755-0.557s-0.583-0.965-0.583-1.781v-4.201H181.195z"/>
	<path d="M192.341,27.117v-4.154c0-0.523-0.119-0.914-0.357-1.172s-0.611-0.387-1.119-0.387c-0.672,0-1.164,0.182-1.477,0.545
		s-0.469,0.963-0.469,1.799v3.369h-0.973v-6.422h0.791l0.158,0.879h0.047c0.199-0.316,0.479-0.562,0.838-0.735
		s0.76-0.261,1.201-0.261c0.773,0,1.355,0.187,1.746,0.56s0.586,0.97,0.586,1.79v4.189H192.341z"/>
	<path d="M197.686,26.432c0.172,0,0.338-0.013,0.498-0.038s0.287-0.052,0.381-0.079v0.744c-0.105,0.051-0.261,0.093-0.466,0.126
		s-0.39,0.05-0.554,0.05c-1.242,0-1.863-0.654-1.863-1.963v-3.82h-0.92v-0.469l0.92-0.404l0.41-1.371h0.562v1.488h1.863v0.756
		h-1.863v3.779c0,0.387,0.092,0.684,0.275,0.891S197.365,26.432,197.686,26.432z"/>
	<path d="M203.077,20.578c0.285,0,0.541,0.023,0.768,0.07l-0.135,0.902c-0.266-0.059-0.5-0.088-0.703-0.088
		c-0.52,0-0.964,0.211-1.333,0.633s-0.554,0.947-0.554,1.576v3.445h-0.973v-6.422h0.803l0.111,1.189h0.047
		c0.238-0.418,0.525-0.74,0.861-0.967S202.675,20.578,203.077,20.578z"/>
	<path d="M205.264,18.955c0-0.223,0.055-0.386,0.164-0.489s0.246-0.155,0.41-0.155c0.156,0,0.291,0.053,0.404,0.158
		s0.17,0.268,0.17,0.486s-0.057,0.382-0.17,0.489s-0.248,0.161-0.404,0.161c-0.164,0-0.301-0.054-0.41-0.161
		S205.264,19.174,205.264,18.955z M206.318,27.117h-0.973v-6.422h0.973V27.117z"/>
	<path d="M211.395,27.234c-0.949,0-1.698-0.289-2.247-0.867s-0.823-1.381-0.823-2.408c0-1.035,0.255-1.857,0.765-2.467
		s1.194-0.914,2.054-0.914c0.805,0,1.441,0.265,1.91,0.794s0.703,1.228,0.703,2.095v0.615h-4.424c0.02,0.754,0.21,1.326,0.571,1.717
		s0.87,0.586,1.526,0.586c0.691,0,1.375-0.145,2.051-0.434v0.867c-0.344,0.148-0.669,0.255-0.976,0.319
		S211.828,27.234,211.395,27.234z M211.131,21.393c-0.516,0-0.927,0.168-1.233,0.504s-0.487,0.801-0.542,1.395h3.357
		c0-0.613-0.137-1.083-0.41-1.409S211.639,21.393,211.131,21.393z"/>
	<path d="M219.856,25.365c0,0.598-0.223,1.059-0.668,1.383s-1.07,0.486-1.875,0.486c-0.852,0-1.516-0.135-1.992-0.404v-0.902
		c0.309,0.156,0.64,0.279,0.993,0.369s0.694,0.135,1.022,0.135c0.508,0,0.898-0.081,1.172-0.243s0.41-0.409,0.41-0.741
		c0-0.25-0.108-0.464-0.325-0.642s-0.64-0.388-1.269-0.63c-0.598-0.223-1.022-0.417-1.274-0.583s-0.439-0.354-0.562-0.565
		s-0.185-0.463-0.185-0.756c0-0.523,0.213-0.937,0.639-1.239s1.01-0.454,1.752-0.454c0.691,0,1.367,0.141,2.027,0.422l-0.346,0.791
		c-0.645-0.266-1.229-0.398-1.752-0.398c-0.461,0-0.809,0.072-1.043,0.217s-0.352,0.344-0.352,0.598
		c0,0.172,0.044,0.318,0.132,0.439s0.229,0.236,0.425,0.346s0.57,0.268,1.125,0.475c0.762,0.277,1.276,0.557,1.544,0.838
		S219.856,24.939,219.856,25.365z"/>
	<path d="M221.598,26.496c0-0.262,0.06-0.46,0.179-0.595s0.29-0.202,0.513-0.202c0.227,0,0.403,0.067,0.53,0.202
		s0.19,0.333,0.19,0.595c0,0.254-0.064,0.449-0.193,0.586s-0.305,0.205-0.527,0.205c-0.199,0-0.364-0.062-0.495-0.185
		S221.598,26.777,221.598,26.496z"/>
</g>
</svg>