<!-- Generator: Adobe Illustrator 21.0.0, SVG Export Plug-In  -->
<svg version="1.1"
	 xmlns="http://www.w3.org/2000/svg" xmlns:xlink="http://www.w3.org/1999/xlink" xmlns:a="http://ns.adobe.com/AdobeSVGViewerExtensions/3.0/"
	 x="0px" y="0px" width="138.534px" height="21.314px" viewBox="0 0 138.534 21.314"
	 style="enable-background:new 0 0 138.534 21.314;" xml:space="preserve">
<style type="text/css">
	.st0{fill:#E83838;}
	.st1{fill:none;}
</style>
<defs>
</defs>
<g>
	<g>
		<path d="M8.521,9.765c0.269-2.273,3.703-2.683,5.319-1.441c0.797,0.644-0.047,1.664-0.75,1.148
			c-0.867-0.551-2.835-0.809-3.082,0.41c-0.316,1.922,4.78,0.82,4.698,3.937c-0.082,2.976-4.394,3.046-6.011,1.711
			c-0.387-0.316-0.375-0.832-0.164-1.148c0.305-0.305,0.644-0.41,1.043-0.082c0.961,0.656,3.433,1.148,3.609-0.515
			C13.032,12.05,8.157,13.092,8.521,9.765z"/>
	</g>
	<g>
		<path d="M17.238,8.827c0-0.422,0.094-0.832,0.703-0.832c0.422,0,0.516,0.106,0.832,0.41l3.878,4.851V8.71
			c0-0.387,0.34-0.808,0.738-0.808c0.422,0,0.832,0.422,0.832,0.808v6.597c0,0.515-0.316,0.715-0.621,0.808
			c-0.41,0-0.609-0.094-0.949-0.41l-3.878-4.921v4.523c0,0.515-0.316,0.808-0.738,0.808c-0.422,0-0.797-0.293-0.797-0.808V8.827z"/>
	</g>
	<g>
		<path d="M31.145,16.233c-2.168,0.094-4.417-1.348-4.417-4.218c0-2.882,2.25-4.3,4.417-4.3c2.05,0.106,4.195,1.523,4.195,4.3
			C35.34,14.791,33.196,16.233,31.145,16.233z M31.016,9.238c-1.312,0-2.742,0.926-2.742,2.777c0,1.84,1.429,2.777,2.742,2.777
			c1.347,0,2.789-0.937,2.789-2.777C33.805,10.163,32.364,9.238,31.016,9.238z"/>
	</g>
	<g>
		<path d="M46.131,13.315l1.746-4.827c0.351-0.949,1.769-0.504,1.418,0.515l-2.32,6.292c-0.211,0.668-0.41,0.867-0.809,0.867
			c-0.422,0-0.551-0.258-0.785-0.68l-2.039-4.628l-1.945,4.558c-0.211,0.492-0.41,0.773-0.832,0.773
			c-0.41,0-0.621-0.281-0.808-0.797l-2.273-6.386c-0.351-1.055,1.137-1.441,1.441-0.515l1.734,4.827l2.074-4.827
			c0.281-0.715,1.019-0.75,1.324-0.035L46.131,13.315z"/>
	</g>
	<g>
		<path d="M51.274,9.109c-0.633-0.785,0.691-1.687,1.312-0.832l2.156,3.21l2.191-3.21c0.621-0.855,1.898,0,1.289,0.785l-2.742,3.902
			v2.414c0.105,1.019-1.547,1.019-1.547,0v-2.414L51.274,9.109z"/>
	</g>
	<g>
		<path d="M76.933,15.588L73.84,9.109c-0.457-0.926,0.926-1.687,1.441-0.715l1.043,2.355l1.347,3.093l1.324-3.093l1.043-2.355
			c0.469-0.89,1.828-0.328,1.43,0.644l-2.988,6.55C78.21,16.326,77.378,16.502,76.933,15.588z"/>
	</g>
	<g>
		<path d="M83.892,8.71c0-0.961,1.547-0.996,1.547,0v6.69c0,0.972-1.547,0.996-1.547,0V8.71z"/>
	</g>
	<g>
		<path d="M88.344,8.71c0-0.387,0.328-0.715,0.738-0.715c0.375,0,0.691,0.328,0.691,0.715v5.87h3.187c1.148,0,1.172,1.535,0,1.535
			h-3.878c-0.41,0-0.738-0.293-0.738-0.715V8.71z"/>
	</g>
	<g>
		<path d="M96.206,8.71c0-0.387,0.328-0.715,0.738-0.715c0.375,0,0.691,0.328,0.691,0.715v5.87h3.187c1.148,0,1.172,1.535,0,1.535
			h-3.878c-0.41,0-0.738-0.293-0.738-0.715V8.71z"/>
	</g>
	<g>
		<path d="M120.635,15.213c-0.832,0.691-1.851,0.984-2.882,0.984c-2.461,0-4.206-1.406-4.206-4.195c0-2.367,1.839-4.206,4.312-4.206
			c0.926,0,1.945,0.316,2.671,1.031c0.715,0.703-0.316,1.746-1.019,1.125c-0.434-0.422-1.043-0.738-1.652-0.738
			c-1.418,0-2.788,1.137-2.788,2.789c0,1.734,1.148,2.789,2.683,2.789c0.715,0,1.324-0.211,1.757-0.527v-1.441h-1.757
			c-1.043,0-0.937-1.429,0-1.429h2.343c0.433,0,0.832,0.328,0.832,0.691v2.495C120.928,14.791,120.834,14.991,120.635,15.213z"/>
	</g>
	<g>
		<path d="M124.513,16.115c-0.41,0-0.726-0.316-0.726-0.726V8.734c0-0.422,0.316-0.727,0.726-0.727h4.206
			c1.078,0,1.055,1.523,0,1.523h-3.375v1.757h2.953c1.043,0,1.043,1.535,0,1.535h-2.953v1.757h3.574c1.066,0,1.148,1.535,0,1.535
			H124.513z"/>
	</g>
</g>
<g>
	<path d="M30.939,8.262c-1.817,0-3.296-1.478-3.296-3.295c0-1.817,1.478-3.296,3.296-3.296c1.817,0,3.295,1.478,3.295,3.296
		C34.234,6.784,32.756,8.262,30.939,8.262z M30.939,2.989c-1.091,0-1.978,0.887-1.978,1.978c0,1.09,0.887,1.977,1.978,1.977
		c1.09,0,1.977-0.887,1.977-1.977C32.916,3.876,32.029,2.989,30.939,2.989z"/>
</g>
<g>
	<g>
		<path d="M103.871,9.776c-0.375-0.211-0.609-0.633-0.375-1.125l3.363-6.573c0.316-0.621,1.16-0.644,1.453,0l3.304,6.573
			c0.48,0.914-0.937,1.64-1.359,0.726l-0.516-1.031h-4.323l-0.504,1.031C104.727,9.776,104.293,9.858,103.871,9.776z M108.909,6.8
			l-1.324-2.894L106.144,6.8H108.909z"/>
	</g>
</g>
<g>
	<path d="M109.415,16.262h-3.759c-0.686,0-1.245-0.559-1.245-1.245V8.043c0-0.686,0.559-1.245,1.245-1.245h3.759
		c0.686,0,1.245,0.559,1.245,1.245v6.974C110.66,15.703,110.102,16.262,109.415,16.262z M105.729,14.944h3.613V8.116h-3.613V14.944z
		"/>
</g>
<g>
	<path class="st0" d="M65.991,6.931c0,0-0.173,0.322-0.384,0.716c-0.211,0.394-0.438,0.747-0.505,0.786
		c-0.067,0.039-0.403-0.081-0.555-0.16c-0.153-0.079-0.185,0.351-0.071,0.955c0.114,0.605,0.164,1.189,0.111,1.3
		c-0.053,0.11-0.452-0.217-0.719-0.516c-0.267-0.298-0.52-0.419-0.563-0.267c-0.043,0.152-0.101,0.309-0.128,0.35
		c-0.027,0.041-0.445-0.002-0.782-0.073c-0.337-0.071-0.541,0.135-0.452,0.457c0.089,0.322,0.189,0.668,0.222,0.77
		s-0.229,0.299-0.35,0.356c-0.12,0.056,0.256,0.488,0.837,0.96c0.58,0.471,1.084,0.898,1.118,0.948
		c0.035,0.05-0.008,0.333-0.059,0.499c-0.051,0.167,0.218,0.256,0.596,0.198c0.379-0.058,1.455-0.161,1.502-0.133
		c0.047,0.027,0.064,0.624,0.037,1.234c-0.026,0.611,0.031,1.11,0.128,1.11c0.097,0,0.164-0.499,0.149-1.108
		c-0.015-0.609-0.006-1.15,0.021-1.201c0.027-0.051,0.423-0.04,0.802,0.016s1.374,0.049,1.323-0.117
		c-0.051-0.167-0.09-0.353-0.086-0.414s0.565-0.562,1.145-1.033c0.58-0.471,0.957-0.903,0.837-0.96
		c-0.12-0.056-0.25-0.142-0.288-0.191s0.072-0.612,0.161-0.934c0.089-0.322-0.115-0.527-0.452-0.457
		c-0.337,0.071-0.658,0.116-0.713,0.1c-0.055-0.016-0.153-0.225-0.197-0.377c-0.043-0.152-0.297-0.031-0.564,0.267
		s-0.579,0.582-0.693,0.629c-0.115,0.048-0.028-0.809,0.085-1.414c0.114-0.605,0.082-1.034-0.071-0.955s-0.348,0.166-0.434,0.194
		c-0.086,0.028-0.156,0.051-0.243-0.105"/>
</g>
<g>
	<circle cx="31" cy="10.471" r="0.378"/>
</g>
<g>
	<circle cx="31" cy="12.082" r="0.378"/>
</g>
<g>
	<path d="M1.666,12.06c0-1.37,0.2-2.651,0.6-3.844C2.62,7.163,3.111,6.225,3.74,5.401c0.157-0.206,0.404-0.324,0.663-0.324h0.009
		c0.637,0,1.043,0.681,0.738,1.24c-0.352,0.646-0.64,1.328-0.864,2.046c-0.372,1.194-0.558,2.42-0.558,3.681
		c0,1.266,0.19,2.489,0.569,3.67c0.223,0.692,0.502,1.347,0.836,1.962c0.304,0.561-0.099,1.242-0.737,1.242h0
		c-0.255,0-0.498-0.114-0.656-0.315c-0.633-0.806-1.126-1.727-1.477-2.762C1.865,14.67,1.666,13.409,1.666,12.06z"/>
</g>
<g>
	<path d="M136.95,12.06c0,1.359-0.2,2.625-0.6,3.798c-0.356,1.042-0.852,1.963-1.487,2.765c-0.15,0.189-0.379,0.297-0.62,0.297
		h-0.101c-0.603,0-0.989-0.647-0.697-1.175c0.348-0.632,0.638-1.306,0.87-2.022c0.382-1.18,0.574-2.406,0.574-3.677
		c0-1.261-0.186-2.488-0.558-3.681c-0.231-0.742-0.532-1.446-0.901-2.112c-0.292-0.527,0.096-1.174,0.699-1.174h0.107
		c0.245,0,0.478,0.112,0.628,0.306c0.64,0.833,1.137,1.781,1.49,2.845C136.751,9.424,136.95,10.701,136.95,12.06z"/>
</g>
<rect class="st1" width="138.534" height="21.314"/>
</svg>