<!-- Generator: Adobe Illustrator 21.0.0, SVG Export Plug-In  -->
<svg version="1.1"
	 xmlns="http://www.w3.org/2000/svg" xmlns:xlink="http://www.w3.org/1999/xlink" xmlns:a="http://ns.adobe.com/AdobeSVGViewerExtensions/3.0/"
	 x="0px" y="0px" width="385.318px" height="57.881px" viewBox="0 0 385.318 57.881"
	 style="enable-background:new 0 0 385.318 57.881;" xml:space="preserve">
<defs>
</defs>
<path d="M196.029,0h2.388v57.881h-2.388V0z"/>
<g>
	<path d="M5.361,38.755H0V13.056h14.73v4.465H5.361v6.627h8.719v4.447H5.361V38.755z"/>
	<path d="M32.104,18.733c0.727,0,1.33,0.053,1.811,0.158l-0.404,5.027c-0.434-0.117-0.961-0.176-1.582-0.176
		c-1.711,0-3.043,0.439-3.998,1.318s-1.434,2.109-1.434,3.691v10.002h-5.361V19.103h4.061l0.791,3.305h0.264
		c0.609-1.102,1.434-1.989,2.471-2.663S30.885,18.733,32.104,18.733z"/>
	<path d="M51.764,38.755l-1.037-2.672h-0.141c-0.902,1.137-1.832,1.925-2.787,2.364s-2.199,0.659-3.734,0.659
		c-1.887,0-3.373-0.539-4.457-1.617s-1.625-2.613-1.625-4.605c0-2.086,0.729-3.624,2.188-4.614s3.66-1.538,6.602-1.644l3.41-0.105
		v-0.861c0-1.992-1.02-2.988-3.059-2.988c-1.57,0-3.416,0.475-5.537,1.424l-1.775-3.621c2.262-1.184,4.77-1.775,7.523-1.775
		c2.637,0,4.658,0.574,6.064,1.723s2.109,2.895,2.109,5.238v13.096H51.764z M50.182,29.649l-2.074,0.07
		c-1.559,0.047-2.719,0.328-3.48,0.844s-1.143,1.301-1.143,2.355c0,1.512,0.867,2.268,2.602,2.268c1.242,0,2.234-0.357,2.979-1.072
		s1.117-1.664,1.117-2.848V29.649z"/>
	<path d="M80.969,38.755h-5.361V27.276c0-1.418-0.252-2.481-0.756-3.19s-1.307-1.063-2.408-1.063c-1.5,0-2.584,0.501-3.252,1.503
		s-1.002,2.663-1.002,4.983v9.246h-5.361V19.103h4.096l0.721,2.514h0.299c0.598-0.949,1.42-1.667,2.469-2.153
		s2.242-0.729,3.578-0.729c2.285,0,4.02,0.618,5.203,1.854s1.775,3.021,1.775,5.353V38.755z"/>
	<path d="M96.268,39.106c-6.117,0-9.176-3.357-9.176-10.072c0-3.34,0.832-5.892,2.496-7.655s4.049-2.646,7.154-2.646
		c2.273,0,4.312,0.445,6.117,1.336l-1.582,4.148c-0.844-0.34-1.629-0.618-2.355-0.835s-1.453-0.325-2.18-0.325
		c-2.789,0-4.184,1.98-4.184,5.941c0,3.844,1.395,5.766,4.184,5.766c1.031,0,1.986-0.138,2.865-0.413s1.758-0.706,2.637-1.292v4.588
		c-0.867,0.551-1.742,0.932-2.627,1.143S97.615,39.106,96.268,39.106z"/>
	<path d="M126.738,38.755h-5.361V27.276c0-2.836-1.055-4.254-3.164-4.254c-1.5,0-2.584,0.51-3.252,1.529s-1.002,2.672-1.002,4.957
		v9.246h-5.361V11.403h5.361v5.572c0,0.434-0.041,1.453-0.123,3.059l-0.123,1.582h0.281c1.195-1.922,3.094-2.883,5.695-2.883
		c2.309,0,4.061,0.621,5.256,1.863s1.793,3.023,1.793,5.344V38.755z"/>
	<path d="M133.828,14.022c0-1.746,0.973-2.619,2.918-2.619s2.918,0.873,2.918,2.619c0,0.832-0.242,1.479-0.729,1.942
		s-1.217,0.694-2.189,0.694C134.801,16.659,133.828,15.78,133.828,14.022z M139.418,38.755h-5.361V19.103h5.361V38.755z"/>
	<path d="M160.555,32.919c0,2.016-0.701,3.551-2.102,4.605s-3.494,1.582-6.283,1.582c-1.43,0-2.648-0.097-3.656-0.29
		s-1.951-0.478-2.83-0.853v-4.43c0.996,0.469,2.117,0.861,3.365,1.178s2.348,0.475,3.297,0.475c1.945,0,2.918-0.562,2.918-1.688
		c0-0.422-0.129-0.765-0.387-1.028s-0.703-0.562-1.336-0.896s-1.477-0.724-2.531-1.169c-1.512-0.633-2.623-1.219-3.332-1.758
		s-1.225-1.157-1.547-1.854s-0.482-1.556-0.482-2.575c0-1.746,0.676-3.097,2.029-4.052s3.273-1.433,5.758-1.433
		c2.367,0,4.67,0.516,6.908,1.547l-1.617,3.867c-0.984-0.422-1.904-0.768-2.76-1.037s-1.729-0.404-2.619-0.404
		c-1.582,0-2.373,0.428-2.373,1.283c0,0.48,0.254,0.896,0.764,1.248s1.627,0.873,3.35,1.564c1.535,0.621,2.66,1.201,3.375,1.74
		s1.242,1.16,1.582,1.863S160.555,31.946,160.555,32.919z"/>
	<path d="M175.434,39.106c-3.164,0-5.637-0.873-7.418-2.619s-2.672-4.219-2.672-7.418c0-3.293,0.822-5.839,2.469-7.638
		s3.924-2.698,6.83-2.698c2.777,0,4.939,0.791,6.486,2.373s2.32,3.768,2.32,6.557v2.602h-12.674c0.059,1.523,0.51,2.713,1.354,3.568
		s2.027,1.283,3.551,1.283c1.184,0,2.303-0.123,3.357-0.369s2.156-0.639,3.305-1.178v4.148c-0.938,0.469-1.939,0.817-3.006,1.046
		S176.969,39.106,175.434,39.106z M174.678,22.548c-1.137,0-2.027,0.36-2.672,1.081s-1.014,1.743-1.107,3.067h7.523
		c-0.023-1.324-0.369-2.347-1.037-3.067S175.814,22.548,174.678,22.548z"/>
</g>
<g>
	<path d="M210.467,34.86c-0.489,0-0.875-0.07-1.156-0.211v-1.133c0.37,0.104,0.755,0.156,1.156,0.156
		c0.516,0,0.907-0.156,1.176-0.469s0.402-0.763,0.402-1.352V20.431h1.328v11.312c0,0.989-0.25,1.757-0.75,2.301
		S211.404,34.86,210.467,34.86z"/>
	<path d="M223.6,27.563c0,1.396-0.352,2.485-1.055,3.27s-1.675,1.176-2.914,1.176c-0.766,0-1.445-0.18-2.039-0.539
		s-1.052-0.875-1.375-1.547s-0.484-1.458-0.484-2.359c0-1.396,0.349-2.483,1.047-3.262s1.667-1.168,2.906-1.168
		c1.198,0,2.149,0.398,2.855,1.195S223.6,26.204,223.6,27.563z M217.076,27.563c0,1.094,0.219,1.927,0.656,2.5
		s1.081,0.859,1.93,0.859s1.493-0.285,1.934-0.855s0.66-1.405,0.66-2.504c0-1.089-0.22-1.915-0.66-2.48s-1.09-0.848-1.949-0.848
		c-0.849,0-1.489,0.278-1.922,0.836S217.076,26.459,217.076,27.563z"/>
	<path d="M225.764,20.97c0-0.297,0.073-0.515,0.219-0.652s0.328-0.207,0.547-0.207c0.208,0,0.388,0.07,0.539,0.211
		s0.227,0.356,0.227,0.648s-0.075,0.509-0.227,0.652s-0.331,0.215-0.539,0.215c-0.219,0-0.401-0.071-0.547-0.215
		S225.764,21.262,225.764,20.97z M227.17,31.853h-1.297V23.29h1.297V31.853z"/>
	<path d="M235.779,31.853v-5.539c0-0.698-0.159-1.219-0.477-1.562s-0.815-0.516-1.492-0.516c-0.896,0-1.552,0.242-1.969,0.727
		s-0.625,1.284-0.625,2.398v4.492h-1.297V23.29h1.055l0.211,1.172h0.062c0.266-0.422,0.638-0.749,1.117-0.98
		s1.013-0.348,1.602-0.348c1.031,0,1.808,0.249,2.328,0.746s0.781,1.293,0.781,2.387v5.586H235.779z"/>
	<path d="M251.287,27.563c0,1.396-0.352,2.485-1.055,3.27s-1.675,1.176-2.914,1.176c-0.766,0-1.445-0.18-2.039-0.539
		s-1.052-0.875-1.375-1.547s-0.484-1.458-0.484-2.359c0-1.396,0.349-2.483,1.047-3.262s1.667-1.168,2.906-1.168
		c1.198,0,2.149,0.398,2.855,1.195S251.287,26.204,251.287,27.563z M244.764,27.563c0,1.094,0.219,1.927,0.656,2.5
		s1.081,0.859,1.93,0.859s1.493-0.285,1.934-0.855s0.66-1.405,0.66-2.504c0-1.089-0.22-1.915-0.66-2.48s-1.09-0.848-1.949-0.848
		c-0.849,0-1.489,0.278-1.922,0.836S244.764,26.459,244.764,27.563z"/>
	<path d="M254.779,23.29v5.555c0,0.698,0.159,1.219,0.477,1.562s0.815,0.516,1.492,0.516c0.896,0,1.551-0.245,1.965-0.734
		s0.621-1.289,0.621-2.398v-4.5h1.297v8.562h-1.07l-0.188-1.148h-0.07c-0.266,0.422-0.634,0.745-1.105,0.969
		s-1.009,0.336-1.613,0.336c-1.042,0-1.821-0.247-2.34-0.742s-0.777-1.286-0.777-2.375V23.29H254.779z"/>
	<path d="M267.287,23.134c0.38,0,0.722,0.031,1.023,0.094l-0.18,1.203c-0.354-0.078-0.667-0.117-0.938-0.117
		c-0.692,0-1.285,0.281-1.777,0.844s-0.738,1.263-0.738,2.102v4.594h-1.297V23.29h1.07l0.148,1.586h0.062
		c0.317-0.558,0.7-0.987,1.148-1.289S266.751,23.134,267.287,23.134z"/>
	<path d="M281.076,23.29v0.82l-1.586,0.188c0.146,0.183,0.276,0.421,0.391,0.715s0.172,0.626,0.172,0.996
		c0,0.839-0.286,1.508-0.859,2.008s-1.359,0.75-2.359,0.75c-0.255,0-0.495-0.021-0.719-0.062c-0.552,0.292-0.828,0.659-0.828,1.102
		c0,0.234,0.097,0.407,0.289,0.52s0.523,0.168,0.992,0.168h1.516c0.927,0,1.64,0.195,2.137,0.586s0.746,0.958,0.746,1.703
		c0,0.948-0.38,1.671-1.141,2.168s-1.87,0.746-3.328,0.746c-1.12,0-1.983-0.208-2.59-0.625s-0.91-1.005-0.91-1.766
		c0-0.521,0.167-0.972,0.5-1.352s0.802-0.638,1.406-0.773c-0.219-0.099-0.402-0.253-0.551-0.461s-0.223-0.45-0.223-0.727
		c0-0.312,0.083-0.586,0.25-0.82s0.43-0.461,0.789-0.68c-0.442-0.183-0.804-0.492-1.082-0.93s-0.418-0.938-0.418-1.5
		c0-0.938,0.281-1.66,0.844-2.168s1.359-0.762,2.391-0.762c0.448,0,0.852,0.052,1.211,0.156H281.076z M274.248,33.29
		c0,0.464,0.195,0.815,0.586,1.055s0.95,0.359,1.68,0.359c1.089,0,1.895-0.163,2.418-0.488s0.785-0.767,0.785-1.324
		c0-0.464-0.144-0.785-0.43-0.965s-0.825-0.27-1.617-0.27h-1.555c-0.589,0-1.047,0.141-1.375,0.422S274.248,32.764,274.248,33.29z
		 M274.951,26.032c0,0.599,0.169,1.052,0.508,1.359s0.81,0.461,1.414,0.461c1.266,0,1.898-0.614,1.898-1.844
		c0-1.286-0.641-1.93-1.922-1.93c-0.609,0-1.078,0.164-1.406,0.492S274.951,25.387,274.951,26.032z"/>
	<path d="M286.74,23.134c0.38,0,0.722,0.031,1.023,0.094l-0.18,1.203c-0.354-0.078-0.667-0.117-0.938-0.117
		c-0.692,0-1.285,0.281-1.777,0.844s-0.738,1.263-0.738,2.102v4.594h-1.297V23.29h1.07l0.148,1.586h0.062
		c0.317-0.558,0.7-0.987,1.148-1.289S286.204,23.134,286.74,23.134z"/>
	<path d="M296.756,27.563c0,1.396-0.352,2.485-1.055,3.27s-1.675,1.176-2.914,1.176c-0.766,0-1.445-0.18-2.039-0.539
		s-1.052-0.875-1.375-1.547s-0.484-1.458-0.484-2.359c0-1.396,0.349-2.483,1.047-3.262s1.667-1.168,2.906-1.168
		c1.198,0,2.149,0.398,2.855,1.195S296.756,26.204,296.756,27.563z M290.232,27.563c0,1.094,0.219,1.927,0.656,2.5
		s1.081,0.859,1.93,0.859s1.493-0.285,1.934-0.855s0.66-1.405,0.66-2.504c0-1.089-0.22-1.915-0.66-2.48s-1.09-0.848-1.949-0.848
		c-0.849,0-1.489,0.278-1.922,0.836S290.232,26.459,290.232,27.563z"/>
	<path d="M306.021,31.853l-1.57-5.023c-0.099-0.308-0.284-1.005-0.555-2.094h-0.062c-0.208,0.911-0.391,1.614-0.547,2.109
		l-1.617,5.008h-1.5l-2.336-8.562h1.359c0.552,2.151,0.973,3.789,1.262,4.914s0.454,1.883,0.496,2.273h0.062
		c0.058-0.297,0.149-0.681,0.277-1.152s0.238-0.845,0.332-1.121l1.57-4.914h1.406l1.531,4.914c0.292,0.896,0.489,1.648,0.594,2.258
		h0.062c0.021-0.188,0.077-0.477,0.168-0.867s0.634-2.492,1.629-6.305h1.344l-2.367,8.562H306.021z"/>
	<path d="M311.365,20.97c0-0.297,0.073-0.515,0.219-0.652s0.328-0.207,0.547-0.207c0.208,0,0.388,0.07,0.539,0.211
		s0.227,0.356,0.227,0.648s-0.075,0.509-0.227,0.652s-0.331,0.215-0.539,0.215c-0.219,0-0.401-0.071-0.547-0.215
		S311.365,21.262,311.365,20.97z M312.771,31.853h-1.297V23.29h1.297V31.853z"/>
	<path d="M321.381,31.853v-5.539c0-0.698-0.159-1.219-0.477-1.562s-0.815-0.516-1.492-0.516c-0.896,0-1.552,0.242-1.969,0.727
		s-0.625,1.284-0.625,2.398v4.492h-1.297V23.29h1.055l0.211,1.172h0.062c0.266-0.422,0.638-0.749,1.117-0.98
		s1.013-0.348,1.602-0.348c1.031,0,1.808,0.249,2.328,0.746s0.781,1.293,0.781,2.387v5.586H321.381z"/>
	<path d="M332.35,23.29v0.82l-1.586,0.188c0.146,0.183,0.276,0.421,0.391,0.715s0.172,0.626,0.172,0.996
		c0,0.839-0.286,1.508-0.859,2.008s-1.359,0.75-2.359,0.75c-0.255,0-0.495-0.021-0.719-0.062c-0.552,0.292-0.828,0.659-0.828,1.102
		c0,0.234,0.097,0.407,0.289,0.52s0.523,0.168,0.992,0.168h1.516c0.927,0,1.64,0.195,2.137,0.586s0.746,0.958,0.746,1.703
		c0,0.948-0.38,1.671-1.141,2.168s-1.87,0.746-3.328,0.746c-1.12,0-1.983-0.208-2.59-0.625s-0.91-1.005-0.91-1.766
		c0-0.521,0.167-0.972,0.5-1.352s0.802-0.638,1.406-0.773c-0.219-0.099-0.402-0.253-0.551-0.461s-0.223-0.45-0.223-0.727
		c0-0.312,0.083-0.586,0.25-0.82s0.43-0.461,0.789-0.68c-0.442-0.183-0.804-0.492-1.082-0.93s-0.418-0.938-0.418-1.5
		c0-0.938,0.281-1.66,0.844-2.168s1.359-0.762,2.391-0.762c0.448,0,0.852,0.052,1.211,0.156H332.35z M325.521,33.29
		c0,0.464,0.195,0.815,0.586,1.055s0.95,0.359,1.68,0.359c1.089,0,1.895-0.163,2.418-0.488s0.785-0.767,0.785-1.324
		c0-0.464-0.144-0.785-0.43-0.965s-0.825-0.27-1.617-0.27h-1.555c-0.589,0-1.047,0.141-1.375,0.422S325.521,32.764,325.521,33.29z
		 M326.225,26.032c0,0.599,0.169,1.052,0.508,1.359s0.81,0.461,1.414,0.461c1.266,0,1.898-0.614,1.898-1.844
		c0-1.286-0.641-1.93-1.922-1.93c-0.609,0-1.078,0.164-1.406,0.492S326.225,25.387,326.225,26.032z"/>
	<path d="M342.123,24.298h-2.18v7.555h-1.297v-7.555h-1.531v-0.586l1.531-0.469v-0.477c0-2.104,0.919-3.156,2.758-3.156
		c0.453,0,0.984,0.091,1.594,0.273l-0.336,1.039c-0.5-0.161-0.927-0.242-1.281-0.242c-0.489,0-0.852,0.163-1.086,0.488
		s-0.352,0.848-0.352,1.566v0.555h2.18V24.298z"/>
	<path d="M348.951,31.853l-0.258-1.219h-0.062c-0.427,0.536-0.853,0.899-1.277,1.09s-0.954,0.285-1.59,0.285
		c-0.849,0-1.515-0.219-1.996-0.656s-0.723-1.06-0.723-1.867c0-1.729,1.383-2.636,4.148-2.719l1.453-0.047v-0.531
		c0-0.672-0.145-1.168-0.434-1.488s-0.751-0.48-1.387-0.48c-0.714,0-1.521,0.219-2.422,0.656l-0.398-0.992
		c0.422-0.229,0.884-0.409,1.387-0.539s1.007-0.195,1.512-0.195c1.021,0,1.777,0.227,2.27,0.68s0.738,1.18,0.738,2.18v5.844H348.951
		z M346.021,30.938c0.808,0,1.441-0.222,1.902-0.664s0.691-1.062,0.691-1.859v-0.773l-1.297,0.055
		c-1.031,0.036-1.774,0.196-2.23,0.48s-0.684,0.726-0.684,1.324c0,0.469,0.142,0.825,0.426,1.07S345.511,30.938,346.021,30.938z"/>
	<path d="M363.498,31.853v-5.57c0-0.683-0.146-1.194-0.438-1.535s-0.745-0.512-1.359-0.512c-0.808,0-1.403,0.231-1.789,0.695
		s-0.578,1.177-0.578,2.141v4.781h-1.297v-5.57c0-0.683-0.146-1.194-0.438-1.535s-0.747-0.512-1.367-0.512
		c-0.812,0-1.407,0.243-1.785,0.73s-0.566,1.285-0.566,2.395v4.492h-1.297V23.29h1.055l0.211,1.172h0.062
		c0.245-0.417,0.59-0.742,1.035-0.977s0.944-0.352,1.496-0.352c1.339,0,2.214,0.484,2.625,1.453h0.062
		c0.255-0.448,0.625-0.802,1.109-1.062s1.036-0.391,1.656-0.391c0.969,0,1.694,0.249,2.176,0.746s0.723,1.293,0.723,2.387v5.586
		H363.498z"/>
	<path d="M367.357,20.97c0-0.297,0.073-0.515,0.219-0.652s0.328-0.207,0.547-0.207c0.208,0,0.388,0.07,0.539,0.211
		s0.227,0.356,0.227,0.648s-0.075,0.509-0.227,0.652s-0.331,0.215-0.539,0.215c-0.219,0-0.401-0.071-0.547-0.215
		S367.357,21.262,367.357,20.97z M368.764,31.853h-1.297V23.29h1.297V31.853z"/>
	<path d="M372.811,31.853h-1.297V19.696h1.297V31.853z"/>
	<path d="M374.201,23.29h1.391l1.875,4.883c0.411,1.114,0.667,1.919,0.766,2.414h0.062c0.067-0.266,0.21-0.72,0.426-1.363
		s0.923-2.621,2.121-5.934h1.391l-3.68,9.75c-0.364,0.964-0.79,1.647-1.277,2.051s-1.085,0.605-1.793,0.605
		c-0.396,0-0.786-0.044-1.172-0.133v-1.039c0.286,0.062,0.606,0.094,0.961,0.094c0.891,0,1.526-0.5,1.906-1.5l0.477-1.219
		L374.201,23.29z"/>
	<path d="M383.436,31.024c0-0.708,0.312-1.062,0.938-1.062c0.302,0,0.535,0.091,0.699,0.273s0.246,0.445,0.246,0.789
		c0,0.333-0.083,0.593-0.25,0.777s-0.398,0.277-0.695,0.277c-0.271,0-0.495-0.082-0.672-0.246S383.436,31.399,383.436,31.024z
		 M384.795,28.704h-0.82l-0.398-8.273h1.617L384.795,28.704z"/>
</g>
</svg>