<!-- Generator: Adobe Illustrator 21.0.0, SVG Export Plug-In  -->
<svg version="1.1"
	 xmlns="http://www.w3.org/2000/svg" xmlns:xlink="http://www.w3.org/1999/xlink" xmlns:a="http://ns.adobe.com/AdobeSVGViewerExtensions/3.0/"
	 x="0px" y="0px" width="475.945px" height="86.318px" viewBox="0 0 475.945 86.318"
	 style="enable-background:new 0 0 475.945 86.318;" xml:space="preserve">
<style type="text/css">
	.st0{fill:#B9C83E;}
	.st1{fill:#FFFFFF;}
	.st2{fill:none;stroke:#666666;stroke-width:0.75;stroke-miterlimit:10;}
</style>
<defs>
</defs>
<g>
	<path d="M1.77,58.408c-0.719,0-1.309-0.105-1.77-0.316V57.06c0.609,0.156,1.191,0.234,1.746,0.234c1.891,0,2.836-1.031,2.836-3.094
		v-17.25h1.195v17.133C5.777,56.967,4.441,58.408,1.77,58.408z"/>
	<path d="M21.954,47.697c0,2.078-0.504,3.701-1.512,4.869s-2.398,1.752-4.172,1.752c-1.117,0-2.102-0.27-2.953-0.809
		s-1.504-1.312-1.957-2.32s-0.68-2.172-0.68-3.492c0-2.078,0.504-3.697,1.512-4.857s2.391-1.74,4.148-1.74
		c1.75,0,3.123,0.588,4.119,1.764S21.954,45.65,21.954,47.697z M11.899,47.697c0,1.75,0.385,3.115,1.154,4.096
		s1.857,1.471,3.264,1.471s2.494-0.49,3.264-1.471s1.154-2.346,1.154-4.096c0-1.758-0.389-3.121-1.166-4.09
		s-1.869-1.453-3.275-1.453s-2.49,0.482-3.252,1.447S11.899,45.931,11.899,47.697z"/>
	<path d="M26.518,37.806c0-0.75,0.246-1.125,0.738-1.125c0.242,0,0.432,0.098,0.568,0.293s0.205,0.473,0.205,0.832
		c0,0.352-0.068,0.629-0.205,0.832s-0.326,0.305-0.568,0.305C26.764,38.943,26.518,38.564,26.518,37.806z M27.842,54.084h-1.16
		V41.345h1.16V54.084z"/>
	<path d="M42.189,54.084v-8.262c0-1.281-0.27-2.213-0.809-2.795s-1.375-0.873-2.508-0.873c-1.523,0-2.639,0.385-3.346,1.154
		s-1.061,2.018-1.061,3.744v7.031h-1.16V41.345h0.984l0.223,1.746h0.07c0.828-1.328,2.301-1.992,4.418-1.992
		c2.891,0,4.336,1.551,4.336,4.652v8.332H42.189z"/>
	<path d="M59.461,53.287c0.734,0,1.375-0.062,1.922-0.188v0.938c-0.562,0.188-1.211,0.281-1.945,0.281
		c-1.125,0-1.955-0.301-2.49-0.902s-0.803-1.547-0.803-2.836v-8.227h-1.887v-0.68l1.887-0.527l0.586-2.883h0.598v3.082h3.738v1.008
		h-3.738v8.062c0,0.977,0.172,1.699,0.516,2.168S58.727,53.287,59.461,53.287z"/>
	<path d="M74.22,54.084v-8.262c0-1.281-0.27-2.213-0.809-2.795s-1.375-0.873-2.508-0.873c-1.523,0-2.639,0.385-3.346,1.154
		s-1.061,2.018-1.061,3.744v7.031h-1.16V35.849h1.16v5.801l-0.059,1.629h0.082c0.477-0.766,1.078-1.32,1.805-1.664
		s1.629-0.516,2.707-0.516c2.891,0,4.336,1.551,4.336,4.652v8.332H74.22z"/>
	<path d="M85.838,54.318c-1.852,0-3.295-0.57-4.33-1.711s-1.553-2.738-1.553-4.793c0-2.031,0.5-3.658,1.5-4.881
		s2.348-1.834,4.043-1.834c1.5,0,2.684,0.523,3.551,1.57s1.301,2.469,1.301,4.266v0.938h-9.176c0.016,1.75,0.424,3.086,1.225,4.008
		s1.947,1.383,3.439,1.383c0.727,0,1.365-0.051,1.916-0.152s1.248-0.32,2.092-0.656v1.055c-0.719,0.312-1.383,0.525-1.992,0.639
		S86.572,54.318,85.838,54.318z M85.498,42.131c-1.227,0-2.211,0.404-2.953,1.213s-1.176,1.975-1.301,3.498h7.875
		c0-1.477-0.32-2.631-0.961-3.463S86.631,42.131,85.498,42.131z"/>
	<path d="M107.233,42.353h-3v11.73h-1.16v-11.73h-2.367v-0.68l2.367-0.434v-0.984c0-1.562,0.287-2.709,0.861-3.439
		s1.514-1.096,2.818-1.096c0.703,0,1.406,0.105,2.109,0.316l-0.27,1.008c-0.625-0.195-1.246-0.293-1.863-0.293
		c-0.906,0-1.549,0.268-1.928,0.803s-0.568,1.404-0.568,2.607v1.184h3V42.353z"/>
	<path d="M118.629,54.084l-0.293-2.016h-0.094c-0.641,0.82-1.299,1.4-1.975,1.74s-1.475,0.51-2.396,0.51
		c-1.25,0-2.223-0.32-2.918-0.961s-1.043-1.527-1.043-2.66c0-1.242,0.518-2.207,1.553-2.895s2.533-1.051,4.494-1.09l2.426-0.07
		v-0.844c0-1.211-0.246-2.125-0.738-2.742s-1.285-0.926-2.379-0.926c-1.18,0-2.402,0.328-3.668,0.984l-0.434-1.008
		c1.398-0.656,2.781-0.984,4.148-0.984c1.398,0,2.443,0.363,3.135,1.09s1.037,1.859,1.037,3.398v8.473H118.629z M113.941,53.263
		c1.359,0,2.432-0.389,3.217-1.166s1.178-1.857,1.178-3.24v-1.254l-2.227,0.094c-1.789,0.086-3.064,0.365-3.826,0.838
		s-1.143,1.209-1.143,2.209c0,0.797,0.244,1.416,0.732,1.857S113.051,53.263,113.941,53.263z"/>
	<path d="M132.708,50.767c0,1.141-0.434,2.018-1.301,2.631s-2.098,0.92-3.691,0.92c-1.703,0-3.055-0.262-4.055-0.785v-1.254
		c1.281,0.641,2.633,0.961,4.055,0.961c1.258,0,2.213-0.209,2.865-0.627s0.979-0.975,0.979-1.67c0-0.641-0.26-1.18-0.779-1.617
		s-1.373-0.867-2.561-1.289c-1.273-0.461-2.168-0.857-2.684-1.189s-0.904-0.707-1.166-1.125s-0.393-0.928-0.393-1.529
		c0-0.953,0.4-1.707,1.201-2.262s1.92-0.832,3.357-0.832c1.375,0,2.68,0.258,3.914,0.773l-0.434,1.055
		c-1.25-0.516-2.41-0.773-3.48-0.773c-1.039,0-1.863,0.172-2.473,0.516s-0.914,0.82-0.914,1.43c0,0.664,0.236,1.195,0.709,1.594
		s1.396,0.844,2.771,1.336c1.148,0.414,1.984,0.787,2.508,1.119s0.916,0.709,1.178,1.131S132.708,50.197,132.708,50.767z"/>
	<path d="M140.553,53.287c0.734,0,1.375-0.062,1.922-0.188v0.938c-0.562,0.188-1.211,0.281-1.945,0.281
		c-1.125,0-1.955-0.301-2.49-0.902s-0.803-1.547-0.803-2.836v-8.227h-1.887v-0.68l1.887-0.527l0.586-2.883h0.598v3.082h3.738v1.008
		h-3.738v8.062c0,0.977,0.172,1.699,0.516,2.168S139.818,53.287,140.553,53.287z"/>
	<path d="M151.572,54.318c-1.852,0-3.295-0.57-4.33-1.711s-1.553-2.738-1.553-4.793c0-2.031,0.5-3.658,1.5-4.881
		s2.348-1.834,4.043-1.834c1.5,0,2.684,0.523,3.551,1.57s1.301,2.469,1.301,4.266v0.938h-9.176c0.016,1.75,0.424,3.086,1.225,4.008
		s1.947,1.383,3.439,1.383c0.727,0,1.365-0.051,1.916-0.152s1.248-0.32,2.092-0.656v1.055c-0.719,0.312-1.383,0.525-1.992,0.639
		S152.307,54.318,151.572,54.318z M151.232,42.131c-1.227,0-2.211,0.404-2.953,1.213s-1.176,1.975-1.301,3.498h7.875
		c0-1.477-0.32-2.631-0.961-3.463S152.365,42.131,151.232,42.131z"/>
	<path d="M168.698,50.767c0,1.141-0.434,2.018-1.301,2.631s-2.098,0.92-3.691,0.92c-1.703,0-3.055-0.262-4.055-0.785v-1.254
		c1.281,0.641,2.633,0.961,4.055,0.961c1.258,0,2.213-0.209,2.865-0.627s0.979-0.975,0.979-1.67c0-0.641-0.26-1.18-0.779-1.617
		s-1.373-0.867-2.561-1.289c-1.273-0.461-2.168-0.857-2.684-1.189s-0.904-0.707-1.166-1.125s-0.393-0.928-0.393-1.529
		c0-0.953,0.4-1.707,1.201-2.262s1.92-0.832,3.357-0.832c1.375,0,2.68,0.258,3.914,0.773l-0.434,1.055
		c-1.25-0.516-2.41-0.773-3.48-0.773c-1.039,0-1.863,0.172-2.473,0.516s-0.914,0.82-0.914,1.43c0,0.664,0.236,1.195,0.709,1.594
		s1.396,0.844,2.771,1.336c1.148,0.414,1.984,0.787,2.508,1.119s0.916,0.709,1.178,1.131S168.698,50.197,168.698,50.767z"/>
	<path d="M176.543,53.287c0.734,0,1.375-0.062,1.922-0.188v0.938c-0.562,0.188-1.211,0.281-1.945,0.281
		c-1.125,0-1.955-0.301-2.49-0.902s-0.803-1.547-0.803-2.836v-8.227h-1.887v-0.68l1.887-0.527l0.586-2.883h0.598v3.082h3.738v1.008
		h-3.738v8.062c0,0.977,0.172,1.699,0.516,2.168S175.809,53.287,176.543,53.287z"/>
	<path d="M199.791,41.345v0.809l-2.637,0.164c0.703,0.875,1.055,1.836,1.055,2.883c0,1.227-0.408,2.221-1.225,2.982
		s-1.912,1.143-3.287,1.143c-0.578,0-0.984-0.023-1.219-0.07c-0.461,0.242-0.812,0.527-1.055,0.855s-0.363,0.676-0.363,1.043
		c0,0.406,0.154,0.703,0.463,0.891s0.826,0.281,1.553,0.281h2.227c1.383,0,2.441,0.279,3.176,0.838s1.102,1.385,1.102,2.479
		c0,1.344-0.545,2.381-1.635,3.111s-2.643,1.096-4.658,1.096c-1.602,0-2.842-0.309-3.721-0.926s-1.318-1.477-1.318-2.578
		c0-0.875,0.271-1.602,0.814-2.18s1.279-0.973,2.209-1.184c-0.383-0.164-0.689-0.396-0.92-0.697s-0.346-0.646-0.346-1.037
		c0-0.852,0.543-1.602,1.629-2.25c-0.742-0.305-1.32-0.783-1.734-1.436s-0.621-1.4-0.621-2.244c0-1.273,0.404-2.295,1.213-3.064
		s1.9-1.154,3.275-1.154c0.836,0,1.484,0.082,1.945,0.246H199.791z M189.479,56.24c0,1.75,1.301,2.625,3.902,2.625
		c3.344,0,5.016-1.066,5.016-3.199c0-0.766-0.262-1.32-0.785-1.664s-1.371-0.516-2.543-0.516h-2.086
		C190.646,53.486,189.479,54.404,189.479,56.24z M190.451,45.318c0,0.984,0.299,1.748,0.896,2.291s1.396,0.814,2.396,0.814
		c1.062,0,1.877-0.27,2.443-0.809s0.85-1.32,0.85-2.344c0-1.086-0.291-1.9-0.873-2.443s-1.396-0.814-2.443-0.814
		c-1.016,0-1.814,0.291-2.396,0.873S190.451,44.279,190.451,45.318z"/>
	<path d="M208.619,41.099c0.539,0,1.117,0.055,1.734,0.164l-0.223,1.113c-0.531-0.133-1.082-0.199-1.652-0.199
		c-1.086,0-1.977,0.461-2.672,1.383s-1.043,2.086-1.043,3.492v7.031h-1.16V41.345h0.984l0.117,2.297h0.082
		c0.523-0.938,1.082-1.596,1.676-1.975S207.775,41.099,208.619,41.099z"/>
	<path d="M224.679,47.697c0,2.078-0.504,3.701-1.512,4.869s-2.398,1.752-4.172,1.752c-1.117,0-2.102-0.27-2.953-0.809
		s-1.504-1.312-1.957-2.32s-0.68-2.172-0.68-3.492c0-2.078,0.504-3.697,1.512-4.857s2.391-1.74,4.148-1.74
		c1.75,0,3.123,0.588,4.119,1.764S224.679,45.65,224.679,47.697z M214.624,47.697c0,1.75,0.385,3.115,1.154,4.096
		s1.857,1.471,3.264,1.471s2.494-0.49,3.264-1.471s1.154-2.346,1.154-4.096c0-1.758-0.389-3.121-1.166-4.09
		s-1.869-1.453-3.275-1.453s-2.49,0.482-3.252,1.447S214.624,45.931,214.624,47.697z"/>
	<path d="M239.59,54.084l-2.789-8.52c-0.18-0.578-0.41-1.426-0.691-2.543h-0.07l-0.246,0.867l-0.527,1.699l-2.836,8.496h-1.148
		l-3.645-12.738h1.242l2.039,7.383c0.477,1.828,0.789,3.172,0.938,4.031h0.07c0.461-1.828,0.797-3.043,1.008-3.645l2.625-7.77h1.055
		l2.496,7.746c0.562,1.836,0.906,3.051,1.031,3.645h0.07c0.062-0.508,0.375-1.867,0.938-4.078l1.945-7.312h1.172l-3.457,12.738
		H239.59z"/>
	<path d="M247.798,37.806c0-0.75,0.246-1.125,0.738-1.125c0.242,0,0.432,0.098,0.568,0.293s0.205,0.473,0.205,0.832
		c0,0.352-0.068,0.629-0.205,0.832s-0.326,0.305-0.568,0.305C248.044,38.943,247.798,38.564,247.798,37.806z M249.122,54.084h-1.16
		V41.345h1.16V54.084z"/>
	<path d="M263.471,54.084v-8.262c0-1.281-0.27-2.213-0.809-2.795s-1.375-0.873-2.508-0.873c-1.523,0-2.639,0.385-3.346,1.154
		s-1.061,2.018-1.061,3.744v7.031h-1.16V41.345h0.984l0.223,1.746h0.07c0.828-1.328,2.301-1.992,4.418-1.992
		c2.891,0,4.336,1.551,4.336,4.652v8.332H263.471z"/>
	<path d="M279.881,41.345v0.809l-2.637,0.164c0.703,0.875,1.055,1.836,1.055,2.883c0,1.227-0.408,2.221-1.225,2.982
		s-1.912,1.143-3.287,1.143c-0.578,0-0.984-0.023-1.219-0.07c-0.461,0.242-0.812,0.527-1.055,0.855s-0.363,0.676-0.363,1.043
		c0,0.406,0.154,0.703,0.463,0.891s0.826,0.281,1.553,0.281h2.227c1.383,0,2.441,0.279,3.176,0.838s1.102,1.385,1.102,2.479
		c0,1.344-0.545,2.381-1.635,3.111s-2.643,1.096-4.658,1.096c-1.602,0-2.842-0.309-3.721-0.926s-1.318-1.477-1.318-2.578
		c0-0.875,0.271-1.602,0.814-2.18s1.279-0.973,2.209-1.184c-0.383-0.164-0.689-0.396-0.92-0.697s-0.346-0.646-0.346-1.037
		c0-0.852,0.543-1.602,1.629-2.25c-0.742-0.305-1.32-0.783-1.734-1.436s-0.621-1.4-0.621-2.244c0-1.273,0.404-2.295,1.213-3.064
		s1.9-1.154,3.275-1.154c0.836,0,1.484,0.082,1.945,0.246H279.881z M269.568,56.24c0,1.75,1.301,2.625,3.902,2.625
		c3.344,0,5.016-1.066,5.016-3.199c0-0.766-0.262-1.32-0.785-1.664s-1.371-0.516-2.543-0.516h-2.086
		C270.736,53.486,269.568,54.404,269.568,56.24z M270.541,45.318c0,0.984,0.299,1.748,0.896,2.291s1.396,0.814,2.396,0.814
		c1.062,0,1.877-0.27,2.443-0.809s0.85-1.32,0.85-2.344c0-1.086-0.291-1.9-0.873-2.443s-1.396-0.814-2.443-0.814
		c-1.016,0-1.814,0.291-2.396,0.873S270.541,44.279,270.541,45.318z"/>
	<path d="M291.422,36.951h4.699c2.117,0,3.672,0.359,4.664,1.078s1.488,1.805,1.488,3.258c0,0.992-0.303,1.818-0.908,2.479
		s-1.49,1.084-2.654,1.271v0.07c1.367,0.203,2.373,0.635,3.018,1.295s0.967,1.58,0.967,2.76c0,1.578-0.523,2.793-1.57,3.645
		s-2.531,1.277-4.453,1.277h-5.25V36.951z M292.617,44.58h3.773c1.609,0,2.779-0.268,3.51-0.803s1.096-1.373,1.096-2.514
		s-0.412-1.969-1.236-2.484s-2.053-0.773-3.686-0.773h-3.457V44.58z M292.617,45.634v7.395h4.031c3.172,0,4.758-1.289,4.758-3.867
		c0-2.352-1.672-3.527-5.016-3.527H292.617z"/>
	<path d="M307.212,37.806c0-0.75,0.246-1.125,0.738-1.125c0.242,0,0.432,0.098,0.568,0.293s0.205,0.473,0.205,0.832
		c0,0.352-0.068,0.629-0.205,0.832s-0.326,0.305-0.568,0.305C307.458,38.943,307.212,38.564,307.212,37.806z M308.536,54.084h-1.16
		V41.345h1.16V54.084z"/>
	<path d="M322.885,54.084v-8.262c0-1.281-0.27-2.213-0.809-2.795s-1.375-0.873-2.508-0.873c-1.523,0-2.639,0.385-3.346,1.154
		s-1.061,2.018-1.061,3.744v7.031h-1.16V41.345h0.984l0.223,1.746h0.07c0.828-1.328,2.301-1.992,4.418-1.992
		c2.891,0,4.336,1.551,4.336,4.652v8.332H322.885z"/>
	<path d="M339.295,41.345v0.809l-2.637,0.164c0.703,0.875,1.055,1.836,1.055,2.883c0,1.227-0.408,2.221-1.225,2.982
		s-1.912,1.143-3.287,1.143c-0.578,0-0.984-0.023-1.219-0.07c-0.461,0.242-0.812,0.527-1.055,0.855s-0.363,0.676-0.363,1.043
		c0,0.406,0.154,0.703,0.463,0.891s0.826,0.281,1.553,0.281h2.227c1.383,0,2.441,0.279,3.176,0.838s1.102,1.385,1.102,2.479
		c0,1.344-0.545,2.381-1.635,3.111s-2.643,1.096-4.658,1.096c-1.602,0-2.842-0.309-3.721-0.926s-1.318-1.477-1.318-2.578
		c0-0.875,0.271-1.602,0.814-2.18s1.279-0.973,2.209-1.184c-0.383-0.164-0.689-0.396-0.92-0.697s-0.346-0.646-0.346-1.037
		c0-0.852,0.543-1.602,1.629-2.25c-0.742-0.305-1.32-0.783-1.734-1.436s-0.621-1.4-0.621-2.244c0-1.273,0.404-2.295,1.213-3.064
		s1.9-1.154,3.275-1.154c0.836,0,1.484,0.082,1.945,0.246H339.295z M328.982,56.24c0,1.75,1.301,2.625,3.902,2.625
		c3.344,0,5.016-1.066,5.016-3.199c0-0.766-0.262-1.32-0.785-1.664s-1.371-0.516-2.543-0.516h-2.086
		C330.15,53.486,328.982,54.404,328.982,56.24z M329.955,45.318c0,0.984,0.299,1.748,0.896,2.291s1.396,0.814,2.396,0.814
		c1.062,0,1.877-0.27,2.443-0.809s0.85-1.32,0.85-2.344c0-1.086-0.291-1.9-0.873-2.443s-1.396-0.814-2.443-0.814
		c-1.016,0-1.814,0.291-2.396,0.873S329.955,44.279,329.955,45.318z"/>
	<path d="M351.007,50.767c0,1.141-0.434,2.018-1.301,2.631s-2.098,0.92-3.691,0.92c-1.703,0-3.055-0.262-4.055-0.785v-1.254
		c1.281,0.641,2.633,0.961,4.055,0.961c1.258,0,2.213-0.209,2.865-0.627s0.979-0.975,0.979-1.67c0-0.641-0.26-1.18-0.779-1.617
		s-1.373-0.867-2.561-1.289c-1.273-0.461-2.168-0.857-2.684-1.189s-0.904-0.707-1.166-1.125s-0.393-0.928-0.393-1.529
		c0-0.953,0.4-1.707,1.201-2.262s1.92-0.832,3.357-0.832c1.375,0,2.68,0.258,3.914,0.773l-0.434,1.055
		c-1.25-0.516-2.41-0.773-3.48-0.773c-1.039,0-1.863,0.172-2.473,0.516s-0.914,0.82-0.914,1.43c0,0.664,0.236,1.195,0.709,1.594
		s1.396,0.844,2.771,1.336c1.148,0.414,1.984,0.787,2.508,1.119s0.916,0.709,1.178,1.131S351.007,50.197,351.007,50.767z"/>
	<path d="M366.023,47.697c0,2.078-0.504,3.701-1.512,4.869s-2.398,1.752-4.172,1.752c-1.117,0-2.102-0.27-2.953-0.809
		s-1.504-1.312-1.957-2.32s-0.68-2.172-0.68-3.492c0-2.078,0.504-3.697,1.512-4.857s2.391-1.74,4.148-1.74
		c1.75,0,3.123,0.588,4.119,1.764S366.023,45.65,366.023,47.697z M355.969,47.697c0,1.75,0.385,3.115,1.154,4.096
		s1.857,1.471,3.264,1.471s2.494-0.49,3.264-1.471s1.154-2.346,1.154-4.096c0-1.758-0.389-3.121-1.166-4.09
		s-1.869-1.453-3.275-1.453s-2.49,0.482-3.252,1.447S355.969,45.931,355.969,47.697z"/>
	<path d="M381.286,47.697c0,2.078-0.504,3.701-1.512,4.869s-2.398,1.752-4.172,1.752c-1.117,0-2.102-0.27-2.953-0.809
		s-1.504-1.312-1.957-2.32s-0.68-2.172-0.68-3.492c0-2.078,0.504-3.697,1.512-4.857s2.391-1.74,4.148-1.74
		c1.75,0,3.123,0.588,4.119,1.764S381.286,45.65,381.286,47.697z M371.231,47.697c0,1.75,0.385,3.115,1.154,4.096
		s1.857,1.471,3.264,1.471s2.494-0.49,3.264-1.471s1.154-2.346,1.154-4.096c0-1.758-0.389-3.121-1.166-4.09
		s-1.869-1.453-3.275-1.453s-2.49,0.482-3.252,1.447S371.231,45.931,371.231,47.697z"/>
	<path d="M11.895,69.783c-2.148,0-3.84,0.688-5.074,2.062s-1.852,3.258-1.852,5.648c0,2.445,0.582,4.344,1.746,5.695
		s2.828,2.027,4.992,2.027c1.438,0,2.758-0.184,3.961-0.551v1.055c-1.133,0.398-2.547,0.598-4.242,0.598
		c-2.406,0-4.301-0.777-5.684-2.332s-2.074-3.727-2.074-6.516c0-1.742,0.33-3.277,0.99-4.605s1.609-2.354,2.848-3.076
		s2.678-1.084,4.318-1.084c1.672,0,3.168,0.312,4.488,0.938l-0.48,1.078C14.582,70.095,13.27,69.783,11.895,69.783z"/>
	<path d="M28.13,86.084l-0.293-2.016h-0.094c-0.641,0.82-1.299,1.4-1.975,1.74s-1.475,0.51-2.396,0.51
		c-1.25,0-2.223-0.32-2.918-0.961s-1.043-1.527-1.043-2.66c0-1.242,0.518-2.207,1.553-2.895s2.533-1.051,4.494-1.09l2.426-0.07
		v-0.844c0-1.211-0.246-2.125-0.738-2.742s-1.285-0.926-2.379-0.926c-1.18,0-2.402,0.328-3.668,0.984l-0.434-1.008
		c1.398-0.656,2.781-0.984,4.148-0.984c1.398,0,2.443,0.363,3.135,1.09s1.037,1.859,1.037,3.398v8.473H28.13z M23.442,85.263
		c1.359,0,2.432-0.389,3.217-1.166s1.178-1.857,1.178-3.24v-1.254l-2.227,0.094c-1.789,0.086-3.064,0.365-3.826,0.838
		s-1.143,1.209-1.143,2.209c0,0.797,0.244,1.416,0.732,1.857S22.552,85.263,23.442,85.263z"/>
	<path d="M39.045,74.353h-3v11.73h-1.16v-11.73h-2.367v-0.68l2.367-0.434v-0.984c0-1.562,0.287-2.709,0.861-3.439
		s1.514-1.096,2.818-1.096c0.703,0,1.406,0.105,2.109,0.316l-0.27,1.008c-0.625-0.195-1.246-0.293-1.863-0.293
		c-0.906,0-1.549,0.268-1.928,0.803s-0.568,1.404-0.568,2.607v1.184h3V74.353z"/>
	<path d="M47.85,86.318c-1.852,0-3.295-0.57-4.33-1.711s-1.553-2.738-1.553-4.793c0-2.031,0.5-3.658,1.5-4.881
		s2.348-1.834,4.043-1.834c1.5,0,2.684,0.523,3.551,1.57s1.301,2.469,1.301,4.266v0.938h-9.176c0.016,1.75,0.424,3.086,1.225,4.008
		s1.947,1.383,3.439,1.383c0.727,0,1.365-0.051,1.916-0.152s1.248-0.32,2.092-0.656v1.055c-0.719,0.312-1.383,0.525-1.992,0.639
		S48.584,86.318,47.85,86.318z M47.51,74.131c-1.227,0-2.211,0.404-2.953,1.213s-1.176,1.975-1.301,3.498h7.875
		c0-1.477-0.32-2.631-0.961-3.463S48.643,74.131,47.51,74.131z M45.869,71.353c0.57-0.617,1.135-1.287,1.693-2.01
		s0.939-1.271,1.143-1.646h1.652v0.199c-0.281,0.406-0.76,0.945-1.436,1.617s-1.42,1.348-2.232,2.027h-0.82V71.353z"/>
	<path d="M64.348,69.806c0-0.75,0.246-1.125,0.738-1.125c0.242,0,0.432,0.098,0.568,0.293s0.205,0.473,0.205,0.832
		c0,0.352-0.068,0.629-0.205,0.832s-0.326,0.305-0.568,0.305C64.594,70.943,64.348,70.564,64.348,69.806z M65.672,86.084h-1.16
		V73.345h1.16V86.084z"/>
	<path d="M80.021,86.084v-8.262c0-1.281-0.27-2.213-0.809-2.795s-1.375-0.873-2.508-0.873c-1.523,0-2.639,0.385-3.346,1.154
		s-1.061,2.018-1.061,3.744v7.031h-1.16V73.345h0.984l0.223,1.746h0.07c0.828-1.328,2.301-1.992,4.418-1.992
		c2.891,0,4.336,1.551,4.336,4.652v8.332H80.021z"/>
	<path d="M101.533,69.783c-2.148,0-3.84,0.688-5.074,2.062s-1.852,3.258-1.852,5.648c0,2.445,0.582,4.344,1.746,5.695
		s2.828,2.027,4.992,2.027c1.438,0,2.758-0.184,3.961-0.551v1.055c-1.133,0.398-2.547,0.598-4.242,0.598
		c-2.406,0-4.301-0.777-5.684-2.332s-2.074-3.727-2.074-6.516c0-1.742,0.33-3.277,0.99-4.605s1.609-2.354,2.848-3.076
		s2.678-1.084,4.318-1.084c1.672,0,3.168,0.312,4.488,0.938l-0.48,1.078C104.221,70.095,102.908,69.783,101.533,69.783z"/>
	<path d="M117.769,86.084l-0.293-2.016h-0.094c-0.641,0.82-1.299,1.4-1.975,1.74s-1.475,0.51-2.396,0.51
		c-1.25,0-2.223-0.32-2.918-0.961s-1.043-1.527-1.043-2.66c0-1.242,0.518-2.207,1.553-2.895s2.533-1.051,4.494-1.09l2.426-0.07
		v-0.844c0-1.211-0.246-2.125-0.738-2.742s-1.285-0.926-2.379-0.926c-1.18,0-2.402,0.328-3.668,0.984l-0.434-1.008
		c1.398-0.656,2.781-0.984,4.148-0.984c1.398,0,2.443,0.363,3.135,1.09s1.037,1.859,1.037,3.398v8.473H117.769z M113.081,85.263
		c1.359,0,2.432-0.389,3.217-1.166s1.178-1.857,1.178-3.24v-1.254l-2.227,0.094c-1.789,0.086-3.064,0.365-3.826,0.838
		s-1.143,1.209-1.143,2.209c0,0.797,0.244,1.416,0.732,1.857S112.19,85.263,113.081,85.263z"/>
	<path d="M132.832,86.084v-8.262c0-1.281-0.27-2.213-0.809-2.795s-1.375-0.873-2.508-0.873c-1.523,0-2.639,0.385-3.346,1.154
		s-1.061,2.018-1.061,3.744v7.031h-1.16V73.345h0.984l0.223,1.746h0.07c0.828-1.328,2.301-1.992,4.418-1.992
		c2.891,0,4.336,1.551,4.336,4.652v8.332H132.832z"/>
	<path d="M147.04,86.084l-0.293-2.016h-0.094c-0.641,0.82-1.299,1.4-1.975,1.74s-1.475,0.51-2.396,0.51
		c-1.25,0-2.223-0.32-2.918-0.961s-1.043-1.527-1.043-2.66c0-1.242,0.518-2.207,1.553-2.895s2.533-1.051,4.494-1.09l2.426-0.07
		v-0.844c0-1.211-0.246-2.125-0.738-2.742s-1.285-0.926-2.379-0.926c-1.18,0-2.402,0.328-3.668,0.984l-0.434-1.008
		c1.398-0.656,2.781-0.984,4.148-0.984c1.398,0,2.443,0.363,3.135,1.09s1.037,1.859,1.037,3.398v8.473H147.04z M142.353,85.263
		c1.359,0,2.432-0.389,3.217-1.166s1.178-1.857,1.178-3.24v-1.254l-2.227,0.094c-1.789,0.086-3.064,0.365-3.826,0.838
		s-1.143,1.209-1.143,2.209c0,0.797,0.244,1.416,0.732,1.857S141.462,85.263,142.353,85.263z"/>
	<path d="M157.885,73.099c0.922,0,1.719,0.168,2.391,0.504s1.273,0.91,1.805,1.723h0.07c-0.047-0.984-0.07-1.949-0.07-2.895v-4.582
		h1.148v18.234h-0.762l-0.293-1.945h-0.094c-0.969,1.453-2.359,2.18-4.172,2.18c-1.758,0-3.102-0.547-4.031-1.641
		s-1.395-2.688-1.395-4.781c0-2.203,0.461-3.887,1.383-5.051S156.127,73.099,157.885,73.099z M157.885,74.154
		c-1.391,0-2.436,0.488-3.135,1.465s-1.049,2.395-1.049,4.254c0,3.609,1.402,5.414,4.207,5.414c1.438,0,2.492-0.418,3.164-1.254
		s1.008-2.215,1.008-4.137v-0.199c0-1.969-0.33-3.385-0.99-4.248S159.361,74.154,157.885,74.154z"/>
	<path d="M176.439,86.084l-0.293-2.016h-0.094c-0.641,0.82-1.299,1.4-1.975,1.74s-1.475,0.51-2.396,0.51
		c-1.25,0-2.223-0.32-2.918-0.961s-1.043-1.527-1.043-2.66c0-1.242,0.518-2.207,1.553-2.895s2.533-1.051,4.494-1.09l2.426-0.07
		v-0.844c0-1.211-0.246-2.125-0.738-2.742s-1.285-0.926-2.379-0.926c-1.18,0-2.402,0.328-3.668,0.984l-0.434-1.008
		c1.398-0.656,2.781-0.984,4.148-0.984c1.398,0,2.443,0.363,3.135,1.09s1.037,1.859,1.037,3.398v8.473H176.439z M171.752,85.263
		c1.359,0,2.432-0.389,3.217-1.166s1.178-1.857,1.178-3.24v-1.254l-2.227,0.094c-1.789,0.086-3.064,0.365-3.826,0.838
		s-1.143,1.209-1.143,2.209c0,0.797,0.244,1.416,0.732,1.857S170.861,85.263,171.752,85.263z"/>
	<path d="M182.409,85.17c0-0.766,0.312-1.148,0.938-1.148c0.641,0,0.961,0.383,0.961,1.148s-0.32,1.148-0.961,1.148
		C182.722,86.318,182.409,85.935,182.409,85.17z M183.722,81.666h-0.715l-0.34-12.715h1.395L183.722,81.666z"/>
</g>
<g>
	<g>
		<g>
			<path class="st0" d="M459.945,32h-13c-8.837,0-16-7.163-16-16v0c0-8.837,7.163-16,16-16h13c8.837,0,16,7.163,16,16v0
				C475.945,24.837,468.781,32,459.945,32z"/>
		</g>
	</g>
	<g>
		<g>
			<path class="st1" d="M449.807,10.47c1.212,0,2.137,0.647,2.775,1.941c0.337,1.034,0.506,1.989,0.506,2.864v0.595
				c0,1.08-0.223,2.172-0.67,3.274c-0.674,1.039-1.527,1.559-2.557,1.559h-0.082c-1.121,0-2-0.59-2.639-1.771
				c-0.392-1.003-0.588-2.11-0.588-3.322v-0.075c0-1.285,0.232-2.454,0.697-3.507C447.939,10.989,448.791,10.47,449.807,10.47z
				 M447.893,15.46v0.28c0,1.153,0.205,2.114,0.615,2.885c0.369,0.456,0.786,0.684,1.251,0.684h0.075
				c1.043,0,1.657-0.836,1.839-2.509c0.05-0.278,0.084-0.69,0.103-1.237c0-0.976-0.167-1.902-0.499-2.782
				c-0.383-0.61-0.864-0.916-1.442-0.916c-0.707,0-1.228,0.395-1.565,1.183C448.019,13.881,447.893,14.686,447.893,15.46z"/>
		</g>
		<g>
			<path class="st1" d="M456.816,10.477c0.994,0,1.857,0.442,2.591,1.326c0.387,0.588,0.581,1.196,0.581,1.825
				c0,0.957-0.458,1.866-1.374,2.728l-2.563,2.933h3.397c0.369,0,0.592,0.224,0.67,0.67v0.062c-0.068,0.456-0.301,0.684-0.697,0.684
				h-5.031c-0.447-0.082-0.67-0.314-0.67-0.697v-0.027c0-0.224,0.18-0.504,0.54-0.841l3.992-4.553
				c0.196-0.273,0.294-0.593,0.294-0.957c0-0.779-0.41-1.326-1.23-1.641c-0.127-0.041-0.278-0.062-0.451-0.062h-0.075
				c-0.748,0-1.288,0.401-1.62,1.203c-0.041,0.164-0.071,0.383-0.089,0.656c-0.168,0.342-0.392,0.513-0.67,0.513h-0.068
				c-0.451-0.082-0.677-0.306-0.677-0.67c0-1.103,0.524-2.005,1.572-2.707C455.797,10.625,456.323,10.477,456.816,10.477z"/>
		</g>
	</g>
</g>
<rect x="3.636" y="0.959" width="391.021" height="21.763"/>
<g>
	<path class="st1" d="M10.409,16.884V8.317h1.4v8.566H10.409z"/>
	<path class="st1" d="M21.507,16.884h-1.717l-4.213-6.826h-0.047l0.029,0.381c0.055,0.727,0.082,1.391,0.082,1.992v4.453h-1.271
		V8.317h1.699l4.201,6.791h0.035c-0.008-0.09-0.023-0.417-0.047-0.981s-0.035-1.005-0.035-1.321V8.317h1.283V16.884z"/>
	<path class="st1" d="M25.458,16.884h-1.389V8.317h4.834v1.184h-3.445v2.678h3.229v1.189h-3.229V16.884z"/>
	<path class="st1" d="M38.361,12.589c0,1.395-0.349,2.479-1.046,3.252c-0.697,0.773-1.685,1.16-2.962,1.16
		c-1.293,0-2.286-0.384-2.979-1.151c-0.693-0.768-1.04-1.858-1.04-3.272s0.349-2.5,1.046-3.258s1.692-1.137,2.985-1.137
		c1.273,0,2.258,0.385,2.953,1.154S38.361,11.19,38.361,12.589z M31.822,12.589c0,1.055,0.213,1.854,0.639,2.399
		s1.057,0.817,1.893,0.817c0.832,0,1.46-0.27,1.884-0.809s0.636-1.342,0.636-2.408c0-1.051-0.21-1.848-0.63-2.391
		s-1.046-0.814-1.878-0.814c-0.84,0-1.474,0.271-1.901,0.814S31.822,11.538,31.822,12.589z"/>
</g>
<line class="st2" x1="414.499" y1="0.959" x2="414.499" y2="38.91"/>
</svg>