<!-- Generator: Adobe Illustrator 21.0.0, SVG Export Plug-In  -->
<svg version="1.1"
	 xmlns="http://www.w3.org/2000/svg" xmlns:xlink="http://www.w3.org/1999/xlink" xmlns:a="http://ns.adobe.com/AdobeSVGViewerExtensions/3.0/"
	 x="0px" y="0px" width="234.197px" height="18.469px" viewBox="0 0 234.197 18.469"
	 style="enable-background:new 0 0 234.197 18.469;" xml:space="preserve">
<defs>
</defs>
<g>
	<path d="M7.652,9.598h6.316v7.816c-1.656,0.703-3.52,1.055-5.59,1.055c-2.703,0-4.775-0.764-6.217-2.291S0,12.488,0,9.691
		c0-1.742,0.357-3.287,1.072-4.635s1.738-2.389,3.07-3.123S7.004,0.832,8.73,0.832c1.867,0,3.543,0.344,5.027,1.031l-0.48,1.078
		C11.793,2.254,10.254,1.91,8.66,1.91c-2.258,0-4.049,0.697-5.373,2.092S1.301,7.277,1.301,9.645c0,2.578,0.629,4.518,1.887,5.818
		s3.105,1.951,5.543,1.951c1.578,0,2.918-0.223,4.02-0.668v-6.023H7.652V9.598z"/>
	<path d="M24.192,5.25c0.539,0,1.117,0.055,1.734,0.164l-0.223,1.113c-0.531-0.133-1.082-0.199-1.652-0.199
		c-1.086,0-1.977,0.461-2.672,1.383s-1.043,2.086-1.043,3.492v7.031h-1.16V5.496h0.984l0.117,2.297h0.082
		c0.523-0.938,1.082-1.596,1.676-1.975S23.349,5.25,24.192,5.25z"/>
	<path d="M34.861,18.469c-1.852,0-3.295-0.57-4.33-1.711s-1.553-2.738-1.553-4.793c0-2.031,0.5-3.658,1.5-4.881
		s2.348-1.834,4.043-1.834c1.5,0,2.684,0.523,3.551,1.57s1.301,2.469,1.301,4.266v0.938h-9.176c0.016,1.75,0.424,3.086,1.225,4.008
		s1.947,1.383,3.439,1.383c0.727,0,1.365-0.051,1.916-0.152s1.248-0.32,2.092-0.656v1.055c-0.719,0.312-1.383,0.525-1.992,0.639
		S35.596,18.469,34.861,18.469z M34.521,6.281c-1.227,0-2.211,0.404-2.953,1.213s-1.176,1.975-1.301,3.498h7.875
		c0-1.477-0.32-2.631-0.961-3.463S35.654,6.281,34.521,6.281z"/>
	<path d="M51.822,18.234l-0.293-2.016h-0.094c-0.641,0.82-1.299,1.4-1.975,1.74s-1.475,0.51-2.396,0.51
		c-1.25,0-2.223-0.32-2.918-0.961s-1.043-1.527-1.043-2.66c0-1.242,0.518-2.207,1.553-2.895s2.533-1.051,4.494-1.09l2.426-0.07
		V9.949c0-1.211-0.246-2.125-0.738-2.742s-1.285-0.926-2.379-0.926c-1.18,0-2.402,0.328-3.668,0.984l-0.434-1.008
		c1.398-0.656,2.781-0.984,4.148-0.984c1.398,0,2.443,0.363,3.135,1.09s1.037,1.859,1.037,3.398v8.473H51.822z M47.135,17.414
		c1.359,0,2.432-0.389,3.217-1.166s1.178-1.857,1.178-3.24v-1.254l-2.227,0.094c-1.789,0.086-3.064,0.365-3.826,0.838
		s-1.143,1.209-1.143,2.209c0,0.797,0.244,1.416,0.732,1.857S46.244,17.414,47.135,17.414z"/>
	<path d="M61.366,17.438c0.734,0,1.375-0.062,1.922-0.188v0.938c-0.562,0.188-1.211,0.281-1.945,0.281
		c-1.125,0-1.955-0.301-2.49-0.902S58.05,16.02,58.05,14.73V6.504h-1.887v-0.68l1.887-0.527l0.586-2.883h0.598v3.082h3.738v1.008
		h-3.738v8.062c0,0.977,0.172,1.699,0.516,2.168S60.632,17.438,61.366,17.438z"/>
	<path d="M82.282,1.934c-2.148,0-3.84,0.688-5.074,2.062s-1.852,3.258-1.852,5.648c0,2.445,0.582,4.344,1.746,5.695
		s2.828,2.027,4.992,2.027c1.438,0,2.758-0.184,3.961-0.551v1.055c-1.133,0.398-2.547,0.598-4.242,0.598
		c-2.406,0-4.301-0.777-5.684-2.332s-2.074-3.727-2.074-6.516c0-1.742,0.33-3.277,0.99-4.605s1.609-2.354,2.848-3.076
		s2.678-1.084,4.318-1.084c1.672,0,3.168,0.312,4.488,0.938l-0.48,1.078C84.97,2.246,83.657,1.934,82.282,1.934z"/>
	<path d="M101.318,11.848c0,2.078-0.504,3.701-1.512,4.869s-2.398,1.752-4.172,1.752c-1.117,0-2.102-0.27-2.953-0.809
		s-1.504-1.312-1.957-2.32s-0.68-2.172-0.68-3.492c0-2.078,0.504-3.697,1.512-4.857s2.391-1.74,4.148-1.74
		c1.75,0,3.123,0.588,4.119,1.764S101.318,9.801,101.318,11.848z M91.264,11.848c0,1.75,0.385,3.115,1.154,4.096
		s1.857,1.471,3.264,1.471s2.494-0.49,3.264-1.471s1.154-2.346,1.154-4.096c0-1.758-0.389-3.121-1.166-4.09
		s-1.869-1.453-3.275-1.453s-2.49,0.482-3.252,1.447S91.264,10.082,91.264,11.848z"/>
	<path d="M121.959,18.234V9.879c0-1.242-0.242-2.148-0.727-2.719s-1.227-0.855-2.227-0.855c-1.305,0-2.27,0.359-2.895,1.078
		s-0.938,1.848-0.938,3.387v7.465h-1.184V9.527c0-2.148-0.984-3.223-2.953-3.223c-1.336,0-2.309,0.389-2.918,1.166
		s-0.914,2.021-0.914,3.732v7.031h-1.16V5.496h0.961l0.246,1.746h0.07c0.352-0.633,0.852-1.123,1.5-1.471s1.363-0.521,2.145-0.521
		c2.008,0,3.297,0.754,3.867,2.262h0.047c0.414-0.727,0.971-1.285,1.67-1.676s1.494-0.586,2.385-0.586
		c1.391,0,2.434,0.371,3.129,1.113s1.043,1.922,1.043,3.539v8.332H121.959z"/>
	<path d="M133.812,5.25c1.781,0,3.123,0.561,4.025,1.682s1.354,2.76,1.354,4.916c0,2.117-0.475,3.75-1.424,4.898
		s-2.283,1.723-4.002,1.723c-0.906,0-1.723-0.188-2.449-0.562s-1.301-0.906-1.723-1.594h-0.105l-0.328,1.922h-0.727V0h1.16v4.582
		c0,0.688-0.016,1.32-0.047,1.898l-0.035,0.996h0.082c0.484-0.766,1.068-1.328,1.752-1.688S132.851,5.25,133.812,5.25z
		 M133.788,6.305c-1.5,0-2.574,0.43-3.223,1.289s-0.973,2.277-0.973,4.254v0.199c0,1.922,0.338,3.301,1.014,4.137
		s1.729,1.254,3.158,1.254c1.391,0,2.438-0.486,3.141-1.459s1.055-2.357,1.055-4.154C137.96,8.145,136.569,6.305,133.788,6.305z"/>
	<path d="M143.754,1.957c0-0.75,0.246-1.125,0.738-1.125c0.242,0,0.432,0.098,0.568,0.293s0.205,0.473,0.205,0.832
		c0,0.352-0.068,0.629-0.205,0.832s-0.326,0.305-0.568,0.305C144,3.094,143.754,2.715,143.754,1.957z M145.078,18.234h-1.16V5.496
		h1.16V18.234z"/>
	<path d="M159.427,18.234V9.973c0-1.281-0.27-2.213-0.809-2.795s-1.375-0.873-2.508-0.873c-1.523,0-2.639,0.385-3.346,1.154
		s-1.061,2.018-1.061,3.744v7.031h-1.16V5.496h0.984l0.223,1.746h0.07c0.828-1.328,2.301-1.992,4.418-1.992
		c2.891,0,4.336,1.551,4.336,4.652v8.332H159.427z"/>
	<path d="M173.635,18.234l-0.293-2.016h-0.094c-0.641,0.82-1.299,1.4-1.975,1.74s-1.475,0.51-2.396,0.51
		c-1.25,0-2.223-0.32-2.918-0.961s-1.043-1.527-1.043-2.66c0-1.242,0.518-2.207,1.553-2.895s2.533-1.051,4.494-1.09l2.426-0.07
		V9.949c0-1.211-0.246-2.125-0.738-2.742s-1.285-0.926-2.379-0.926c-1.18,0-2.402,0.328-3.668,0.984l-0.434-1.008
		c1.398-0.656,2.781-0.984,4.148-0.984c1.398,0,2.443,0.363,3.135,1.09s1.037,1.859,1.037,3.398v8.473H173.635z M168.947,17.414
		c1.359,0,2.432-0.389,3.217-1.166s1.178-1.857,1.178-3.24v-1.254l-2.227,0.094c-1.789,0.086-3.064,0.365-3.826,0.838
		s-1.143,1.209-1.143,2.209c0,0.797,0.244,1.416,0.732,1.857S168.057,17.414,168.947,17.414z"/>
	<path d="M183.178,17.438c0.734,0,1.375-0.062,1.922-0.188v0.938c-0.562,0.188-1.211,0.281-1.945,0.281
		c-1.125,0-1.955-0.301-2.49-0.902s-0.803-1.547-0.803-2.836V6.504h-1.887v-0.68l1.887-0.527l0.586-2.883h0.598v3.082h3.738v1.008
		h-3.738v8.062c0,0.977,0.172,1.699,0.516,2.168S182.443,17.438,183.178,17.438z"/>
	<path d="M188.89,1.957c0-0.75,0.246-1.125,0.738-1.125c0.242,0,0.432,0.098,0.568,0.293s0.205,0.473,0.205,0.832
		c0,0.352-0.068,0.629-0.205,0.832s-0.326,0.305-0.568,0.305C189.136,3.094,188.89,2.715,188.89,1.957z M190.214,18.234h-1.16V5.496
		h1.16V18.234z"/>
	<path d="M206.215,11.848c0,2.078-0.504,3.701-1.512,4.869s-2.398,1.752-4.172,1.752c-1.117,0-2.102-0.27-2.953-0.809
		s-1.504-1.312-1.957-2.32s-0.68-2.172-0.68-3.492c0-2.078,0.504-3.697,1.512-4.857s2.391-1.74,4.148-1.74
		c1.75,0,3.123,0.588,4.119,1.764S206.215,9.801,206.215,11.848z M196.16,11.848c0,1.75,0.385,3.115,1.154,4.096
		s1.857,1.471,3.264,1.471s2.494-0.49,3.264-1.471s1.154-2.346,1.154-4.096c0-1.758-0.389-3.121-1.166-4.09
		s-1.869-1.453-3.275-1.453s-2.49,0.482-3.252,1.447S196.16,10.082,196.16,11.848z"/>
	<path d="M219.825,18.234V9.973c0-1.281-0.27-2.213-0.809-2.795s-1.375-0.873-2.508-0.873c-1.523,0-2.639,0.385-3.346,1.154
		s-1.061,2.018-1.061,3.744v7.031h-1.16V5.496h0.984l0.223,1.746h0.07c0.828-1.328,2.301-1.992,4.418-1.992
		c2.891,0,4.336,1.551,4.336,4.652v8.332H219.825z"/>
	<path d="M234.197,14.918c0,1.141-0.434,2.018-1.301,2.631s-2.098,0.92-3.691,0.92c-1.703,0-3.055-0.262-4.055-0.785V16.43
		c1.281,0.641,2.633,0.961,4.055,0.961c1.258,0,2.213-0.209,2.865-0.627s0.979-0.975,0.979-1.67c0-0.641-0.26-1.18-0.779-1.617
		s-1.373-0.867-2.561-1.289c-1.273-0.461-2.168-0.857-2.684-1.189s-0.904-0.707-1.166-1.125s-0.393-0.928-0.393-1.529
		c0-0.953,0.4-1.707,1.201-2.262s1.92-0.832,3.357-0.832c1.375,0,2.68,0.258,3.914,0.773l-0.434,1.055
		c-1.25-0.516-2.41-0.773-3.48-0.773c-1.039,0-1.863,0.172-2.473,0.516s-0.914,0.82-0.914,1.43c0,0.664,0.236,1.195,0.709,1.594
		s1.396,0.844,2.771,1.336c1.148,0.414,1.984,0.787,2.508,1.119s0.916,0.709,1.178,1.131S234.197,14.348,234.197,14.918z"/>
</g>
</svg>