<!-- Generator: Adobe Illustrator 21.0.0, SVG Export Plug-In  -->
<svg version="1.1"
	 xmlns="http://www.w3.org/2000/svg" xmlns:xlink="http://www.w3.org/1999/xlink" xmlns:a="http://ns.adobe.com/AdobeSVGViewerExtensions/3.0/"
	 x="0px" y="0px" width="196.125px" height="24px" viewBox="0 0 196.125 24" style="enable-background:new 0 0 196.125 24;"
	 xml:space="preserve">
<defs>
</defs>
<g>
	<path d="M10.582,13.816c0,1.43-0.525,2.562-1.576,3.398s-2.447,1.254-4.189,1.254c-2.094,0-3.699-0.23-4.816-0.691v-1.195
		c1.234,0.523,2.809,0.785,4.723,0.785c1.406,0,2.521-0.322,3.346-0.967s1.236-1.49,1.236-2.537c0-0.648-0.137-1.186-0.41-1.611
		s-0.719-0.814-1.336-1.166s-1.523-0.73-2.719-1.137C3.09,9.348,1.881,8.697,1.213,7.998S0.211,6.367,0.211,5.203
		c0-1.281,0.502-2.326,1.506-3.135S4.012,0.855,5.59,0.855c1.609,0,3.121,0.305,4.535,0.914L9.691,2.801
		C8.27,2.207,6.91,1.91,5.613,1.91c-1.266,0-2.273,0.293-3.023,0.879S1.465,4.172,1.465,5.18c0,0.633,0.115,1.152,0.346,1.559
		S2.418,7.51,2.941,7.834S4.363,8.547,5.637,9c1.336,0.461,2.34,0.908,3.012,1.342s1.162,0.926,1.471,1.477
		S10.582,13.035,10.582,13.816z"/>
	<path d="M14.946,1.957c0-0.75,0.246-1.125,0.738-1.125c0.242,0,0.432,0.098,0.568,0.293s0.205,0.473,0.205,0.832
		c0,0.352-0.068,0.629-0.205,0.832s-0.326,0.305-0.568,0.305C15.192,3.094,14.946,2.715,14.946,1.957z M16.271,18.234h-1.16V5.496
		h1.16V18.234z"/>
	<path d="M22.896,18.234h-1.16V0h1.16V18.234z"/>
	<path d="M29.498,12.645l6.504-7.148h1.406l-5.016,5.438l5.449,7.301h-1.395l-4.84-6.434l-2.086,1.898v4.535h-1.16V0h1.16v9.141
		l-0.082,3.504H29.498z"/>
	<path d="M39.042,5.496h1.195l2.695,7.148c0.82,2.195,1.34,3.676,1.559,4.441h0.07c0.328-1.008,0.863-2.512,1.605-4.512l2.695-7.078
		h1.195l-5.707,14.801c-0.461,1.203-0.848,2.016-1.16,2.438s-0.678,0.738-1.096,0.949S41.171,24,40.577,24
		c-0.445,0-0.941-0.082-1.488-0.246v-1.008c0.453,0.125,0.941,0.188,1.465,0.188c0.398,0,0.75-0.094,1.055-0.281
		s0.58-0.479,0.826-0.873s0.531-1.02,0.855-1.875s0.533-1.412,0.627-1.67L39.042,5.496z"/>
	<path d="M70.575,13.816c0,1.43-0.525,2.562-1.576,3.398s-2.447,1.254-4.189,1.254c-2.094,0-3.699-0.23-4.816-0.691v-1.195
		c1.234,0.523,2.809,0.785,4.723,0.785c1.406,0,2.521-0.322,3.346-0.967s1.236-1.49,1.236-2.537c0-0.648-0.137-1.186-0.41-1.611
		s-0.719-0.814-1.336-1.166s-1.523-0.73-2.719-1.137c-1.75-0.602-2.959-1.252-3.627-1.951s-1.002-1.631-1.002-2.795
		c0-1.281,0.502-2.326,1.506-3.135s2.295-1.213,3.873-1.213c1.609,0,3.121,0.305,4.535,0.914l-0.434,1.031
		c-1.422-0.594-2.781-0.891-4.078-0.891c-1.266,0-2.273,0.293-3.023,0.879s-1.125,1.383-1.125,2.391
		c0,0.633,0.115,1.152,0.346,1.559s0.607,0.771,1.131,1.096S64.356,8.547,65.63,9c1.336,0.461,2.34,0.908,3.012,1.342
		s1.162,0.926,1.471,1.477S70.575,13.035,70.575,13.816z"/>
	<path d="M83.986,18.234V9.973c0-1.281-0.27-2.213-0.809-2.795s-1.375-0.873-2.508-0.873c-1.523,0-2.639,0.385-3.346,1.154
		s-1.061,2.018-1.061,3.744v7.031h-1.16V5.496h0.984l0.223,1.746h0.07c0.828-1.328,2.301-1.992,4.418-1.992
		c2.891,0,4.336,1.551,4.336,4.652v8.332H83.986z"/>
	<path d="M100.994,11.848c0,2.078-0.504,3.701-1.512,4.869s-2.398,1.752-4.172,1.752c-1.117,0-2.102-0.27-2.953-0.809
		s-1.504-1.312-1.957-2.32s-0.68-2.172-0.68-3.492c0-2.078,0.504-3.697,1.512-4.857s2.391-1.74,4.148-1.74
		c1.75,0,3.123,0.588,4.119,1.764S100.994,9.801,100.994,11.848z M90.939,11.848c0,1.75,0.385,3.115,1.154,4.096
		s1.857,1.471,3.264,1.471s2.494-0.49,3.264-1.471s1.154-2.346,1.154-4.096c0-1.758-0.389-3.121-1.166-4.09
		s-1.869-1.453-3.275-1.453s-2.49,0.482-3.252,1.447S90.939,10.082,90.939,11.848z"/>
	<path d="M115.905,18.234l-2.789-8.52c-0.18-0.578-0.41-1.426-0.691-2.543h-0.07l-0.246,0.867l-0.527,1.699l-2.836,8.496h-1.148
		l-3.645-12.738h1.242l2.039,7.383c0.477,1.828,0.789,3.172,0.938,4.031h0.07c0.461-1.828,0.797-3.043,1.008-3.645l2.625-7.77h1.055
		l2.496,7.746c0.562,1.836,0.906,3.051,1.031,3.645h0.07c0.062-0.508,0.375-1.867,0.938-4.078l1.945-7.312h1.172l-3.457,12.738
		H115.905z"/>
	<path d="M122.145,5.496h1.195l2.695,7.148c0.82,2.195,1.34,3.676,1.559,4.441h0.07c0.328-1.008,0.863-2.512,1.605-4.512
		l2.695-7.078h1.195l-5.707,14.801c-0.461,1.203-0.848,2.016-1.16,2.438s-0.678,0.738-1.096,0.949S124.273,24,123.68,24
		c-0.445,0-0.941-0.082-1.488-0.246v-1.008c0.453,0.125,0.941,0.188,1.465,0.188c0.398,0,0.75-0.094,1.055-0.281
		s0.58-0.479,0.826-0.873s0.531-1.02,0.855-1.875s0.533-1.412,0.627-1.67L122.145,5.496z"/>
	<path d="M144.221,1.102h4.699c2.117,0,3.672,0.359,4.664,1.078s1.488,1.805,1.488,3.258c0,0.992-0.303,1.818-0.908,2.479
		S152.674,9,151.51,9.188v0.07c1.367,0.203,2.373,0.635,3.018,1.295s0.967,1.58,0.967,2.76c0,1.578-0.523,2.793-1.57,3.645
		s-2.531,1.277-4.453,1.277h-5.25V1.102z M145.416,8.73h3.773c1.609,0,2.779-0.268,3.51-0.803s1.096-1.373,1.096-2.514
		s-0.412-1.969-1.236-2.484s-2.053-0.773-3.686-0.773h-3.457V8.73z M145.416,9.785v7.395h4.031c3.172,0,4.758-1.289,4.758-3.867
		c0-2.352-1.672-3.527-5.016-3.527H145.416z"/>
	<path d="M167.908,18.234l-0.293-2.016h-0.094c-0.641,0.82-1.299,1.4-1.975,1.74s-1.475,0.51-2.396,0.51
		c-1.25,0-2.223-0.32-2.918-0.961s-1.043-1.527-1.043-2.66c0-1.242,0.518-2.207,1.553-2.895s2.533-1.051,4.494-1.09l2.426-0.07
		V9.949c0-1.211-0.246-2.125-0.738-2.742s-1.285-0.926-2.379-0.926c-1.18,0-2.402,0.328-3.668,0.984l-0.434-1.008
		c1.398-0.656,2.781-0.984,4.148-0.984c1.398,0,2.443,0.363,3.135,1.09s1.037,1.859,1.037,3.398v8.473H167.908z M163.221,17.414
		c1.359,0,2.432-0.389,3.217-1.166s1.178-1.857,1.178-3.24v-1.254l-2.227,0.094c-1.789,0.086-3.064,0.365-3.826,0.838
		s-1.143,1.209-1.143,2.209c0,0.797,0.244,1.416,0.732,1.857S162.33,17.414,163.221,17.414z"/>
	<path d="M181.987,14.918c0,1.141-0.434,2.018-1.301,2.631s-2.098,0.92-3.691,0.92c-1.703,0-3.055-0.262-4.055-0.785V16.43
		c1.281,0.641,2.633,0.961,4.055,0.961c1.258,0,2.213-0.209,2.865-0.627s0.979-0.975,0.979-1.67c0-0.641-0.26-1.18-0.779-1.617
		s-1.373-0.867-2.561-1.289c-1.273-0.461-2.168-0.857-2.684-1.189s-0.904-0.707-1.166-1.125s-0.393-0.928-0.393-1.529
		c0-0.953,0.4-1.707,1.201-2.262s1.92-0.832,3.357-0.832c1.375,0,2.68,0.258,3.914,0.773l-0.434,1.055
		c-1.25-0.516-2.41-0.773-3.48-0.773c-1.039,0-1.863,0.172-2.473,0.516s-0.914,0.82-0.914,1.43c0,0.664,0.236,1.195,0.709,1.594
		s1.396,0.844,2.771,1.336c1.148,0.414,1.984,0.787,2.508,1.119s0.916,0.709,1.178,1.131S181.987,14.348,181.987,14.918z"/>
	<path d="M191.613,18.469c-1.852,0-3.295-0.57-4.33-1.711s-1.553-2.738-1.553-4.793c0-2.031,0.5-3.658,1.5-4.881
		s2.348-1.834,4.043-1.834c1.5,0,2.684,0.523,3.551,1.57s1.301,2.469,1.301,4.266v0.938h-9.176c0.016,1.75,0.424,3.086,1.225,4.008
		s1.947,1.383,3.439,1.383c0.727,0,1.365-0.051,1.916-0.152s1.248-0.32,2.092-0.656v1.055c-0.719,0.312-1.383,0.525-1.992,0.639
		S192.348,18.469,191.613,18.469z M191.273,6.281c-1.227,0-2.211,0.404-2.953,1.213s-1.176,1.975-1.301,3.498h7.875
		c0-1.477-0.32-2.631-0.961-3.463S192.406,6.281,191.273,6.281z"/>
</g>
</svg>