<!-- Generator: Adobe Illustrator 21.0.0, SVG Export Plug-In  -->
<svg version="1.1"
	 xmlns="http://www.w3.org/2000/svg" xmlns:xlink="http://www.w3.org/1999/xlink" xmlns:a="http://ns.adobe.com/AdobeSVGViewerExtensions/3.0/"
	 x="0px" y="0px" width="176.674px" height="24px" viewBox="0 0 176.674 24" style="enable-background:new 0 0 176.674 24;"
	 xml:space="preserve">
<defs>
</defs>
<g>
	<path d="M1.195,18.234H0V1.102h9.387v1.102H1.195v7.266H8.93v1.113H1.195V18.234z"/>
	<path d="M17.97,5.25c0.539,0,1.117,0.055,1.734,0.164l-0.223,1.113c-0.531-0.133-1.082-0.199-1.652-0.199
		c-1.086,0-1.977,0.461-2.672,1.383s-1.043,2.086-1.043,3.492v7.031h-1.16V5.496h0.984l0.117,2.297h0.082
		c0.523-0.938,1.082-1.596,1.676-1.975S17.126,5.25,17.97,5.25z"/>
	<path d="M28.639,18.469c-1.852,0-3.295-0.57-4.33-1.711s-1.553-2.738-1.553-4.793c0-2.031,0.5-3.658,1.5-4.881
		s2.348-1.834,4.043-1.834c1.5,0,2.684,0.523,3.551,1.57s1.301,2.469,1.301,4.266v0.938h-9.176c0.016,1.75,0.424,3.086,1.225,4.008
		s1.947,1.383,3.439,1.383c0.727,0,1.365-0.051,1.916-0.152s1.248-0.32,2.092-0.656v1.055c-0.719,0.312-1.383,0.525-1.992,0.639
		S29.373,18.469,28.639,18.469z M28.299,6.281c-1.227,0-2.211,0.404-2.953,1.213s-1.176,1.975-1.301,3.498h7.875
		c0-1.477-0.32-2.631-0.961-3.463S29.432,6.281,28.299,6.281z"/>
	<path d="M45.764,14.918c0,1.141-0.434,2.018-1.301,2.631s-2.098,0.92-3.691,0.92c-1.703,0-3.055-0.262-4.055-0.785V16.43
		c1.281,0.641,2.633,0.961,4.055,0.961c1.258,0,2.213-0.209,2.865-0.627s0.979-0.975,0.979-1.67c0-0.641-0.26-1.18-0.779-1.617
		s-1.373-0.867-2.561-1.289c-1.273-0.461-2.168-0.857-2.684-1.189s-0.904-0.707-1.166-1.125s-0.393-0.928-0.393-1.529
		c0-0.953,0.4-1.707,1.201-2.262s1.92-0.832,3.357-0.832c1.375,0,2.68,0.258,3.914,0.773l-0.434,1.055
		c-1.25-0.516-2.41-0.773-3.48-0.773c-1.039,0-1.863,0.172-2.473,0.516s-0.914,0.82-0.914,1.43c0,0.664,0.236,1.195,0.709,1.594
		s1.396,0.844,2.771,1.336c1.148,0.414,1.984,0.787,2.508,1.119s0.916,0.709,1.178,1.131S45.764,14.348,45.764,14.918z"/>
	<path d="M59.128,18.234V9.973c0-1.281-0.27-2.213-0.809-2.795s-1.375-0.873-2.508-0.873c-1.523,0-2.639,0.385-3.346,1.154
		s-1.061,2.018-1.061,3.744v7.031h-1.16V0h1.16v5.801L51.347,7.43h0.082c0.477-0.766,1.078-1.32,1.805-1.664S54.862,5.25,55.94,5.25
		c2.891,0,4.336,1.551,4.336,4.652v8.332H59.128z"/>
	<path d="M77.794,18.234h-1.207V2.227h-5.566V1.102h12.34v1.125h-5.566V18.234z"/>
	<path d="M97.346,11.848c0,2.078-0.504,3.701-1.512,4.869s-2.398,1.752-4.172,1.752c-1.117,0-2.102-0.27-2.953-0.809
		s-1.504-1.312-1.957-2.32s-0.68-2.172-0.68-3.492c0-2.078,0.504-3.697,1.512-4.857s2.391-1.74,4.148-1.74
		c1.75,0,3.123,0.588,4.119,1.764S97.346,9.801,97.346,11.848z M87.291,11.848c0,1.75,0.385,3.115,1.154,4.096
		s1.857,1.471,3.264,1.471s2.494-0.49,3.264-1.471s1.154-2.346,1.154-4.096c0-1.758-0.389-3.121-1.166-4.09
		s-1.869-1.453-3.275-1.453s-2.49,0.482-3.252,1.447S87.291,10.082,87.291,11.848z"/>
	<path d="M107.521,18.469c-1.961,0-3.391-0.734-4.289-2.203h-0.082l0.035,0.984c0.031,0.578,0.047,1.211,0.047,1.898V24h-1.16V5.496
		h0.984l0.223,1.816h0.07c0.875-1.375,2.273-2.062,4.195-2.062c1.719,0,3.029,0.564,3.932,1.693s1.354,2.771,1.354,4.928
		c0,2.094-0.475,3.717-1.424,4.869S109.162,18.469,107.521,18.469z M107.498,17.438c1.305,0,2.314-0.484,3.029-1.453
		s1.072-2.324,1.072-4.066c0-3.742-1.352-5.613-4.055-5.613c-1.484,0-2.574,0.408-3.27,1.225s-1.043,2.146-1.043,3.99v0.375
		c0,1.992,0.334,3.414,1.002,4.266S105.99,17.438,107.498,17.438z"/>
	<path d="M123.007,18.469c-1.961,0-3.391-0.734-4.289-2.203h-0.082l0.035,0.984c0.031,0.578,0.047,1.211,0.047,1.898V24h-1.16V5.496
		h0.984l0.223,1.816h0.07c0.875-1.375,2.273-2.062,4.195-2.062c1.719,0,3.029,0.564,3.932,1.693s1.354,2.771,1.354,4.928
		c0,2.094-0.475,3.717-1.424,4.869S124.647,18.469,123.007,18.469z M122.983,17.438c1.305,0,2.314-0.484,3.029-1.453
		s1.072-2.324,1.072-4.066c0-3.742-1.352-5.613-4.055-5.613c-1.484,0-2.574,0.408-3.27,1.225s-1.043,2.146-1.043,3.99v0.375
		c0,1.992,0.334,3.414,1.002,4.266S121.476,17.438,122.983,17.438z"/>
	<path d="M132.879,1.957c0-0.75,0.246-1.125,0.738-1.125c0.242,0,0.432,0.098,0.568,0.293s0.205,0.473,0.205,0.832
		c0,0.352-0.068,0.629-0.205,0.832s-0.326,0.305-0.568,0.305C133.125,3.094,132.879,2.715,132.879,1.957z M134.203,18.234h-1.16
		V5.496h1.16V18.234z"/>
	<path d="M148.552,18.234V9.973c0-1.281-0.27-2.213-0.809-2.795s-1.375-0.873-2.508-0.873c-1.523,0-2.639,0.385-3.346,1.154
		s-1.061,2.018-1.061,3.744v7.031h-1.16V5.496h0.984l0.223,1.746h0.07c0.828-1.328,2.301-1.992,4.418-1.992
		c2.891,0,4.336,1.551,4.336,4.652v8.332H148.552z"/>
	<path d="M164.963,5.496v0.809l-2.637,0.164c0.703,0.875,1.055,1.836,1.055,2.883c0,1.227-0.408,2.221-1.225,2.982
		s-1.912,1.143-3.287,1.143c-0.578,0-0.984-0.023-1.219-0.07c-0.461,0.242-0.812,0.527-1.055,0.855s-0.363,0.676-0.363,1.043
		c0,0.406,0.154,0.703,0.463,0.891s0.826,0.281,1.553,0.281h2.227c1.383,0,2.441,0.279,3.176,0.838s1.102,1.385,1.102,2.479
		c0,1.344-0.545,2.381-1.635,3.111S160.475,24,158.459,24c-1.602,0-2.842-0.309-3.721-0.926s-1.318-1.477-1.318-2.578
		c0-0.875,0.271-1.602,0.814-2.18s1.279-0.973,2.209-1.184c-0.383-0.164-0.689-0.396-0.92-0.697s-0.346-0.646-0.346-1.037
		c0-0.852,0.543-1.602,1.629-2.25c-0.742-0.305-1.32-0.783-1.734-1.436s-0.621-1.4-0.621-2.244c0-1.273,0.404-2.295,1.213-3.064
		s1.9-1.154,3.275-1.154c0.836,0,1.484,0.082,1.945,0.246H164.963z M154.65,20.391c0,1.75,1.301,2.625,3.902,2.625
		c3.344,0,5.016-1.066,5.016-3.199c0-0.766-0.262-1.32-0.785-1.664s-1.371-0.516-2.543-0.516h-2.086
		C155.818,17.637,154.65,18.555,154.65,20.391z M155.623,9.469c0,0.984,0.299,1.748,0.896,2.291s1.396,0.814,2.396,0.814
		c1.062,0,1.877-0.27,2.443-0.809s0.85-1.32,0.85-2.344c0-1.086-0.291-1.9-0.873-2.443s-1.396-0.814-2.443-0.814
		c-1.016,0-1.814,0.291-2.396,0.873S155.623,8.43,155.623,9.469z"/>
	<path d="M176.674,14.918c0,1.141-0.434,2.018-1.301,2.631s-2.098,0.92-3.691,0.92c-1.703,0-3.055-0.262-4.055-0.785V16.43
		c1.281,0.641,2.633,0.961,4.055,0.961c1.258,0,2.213-0.209,2.865-0.627s0.979-0.975,0.979-1.67c0-0.641-0.26-1.18-0.779-1.617
		s-1.373-0.867-2.561-1.289c-1.273-0.461-2.168-0.857-2.684-1.189s-0.904-0.707-1.166-1.125s-0.393-0.928-0.393-1.529
		c0-0.953,0.4-1.707,1.201-2.262s1.92-0.832,3.357-0.832c1.375,0,2.68,0.258,3.914,0.773l-0.434,1.055
		c-1.25-0.516-2.41-0.773-3.48-0.773c-1.039,0-1.863,0.172-2.473,0.516s-0.914,0.82-0.914,1.43c0,0.664,0.236,1.195,0.709,1.594
		s1.396,0.844,2.771,1.336c1.148,0.414,1.984,0.787,2.508,1.119s0.916,0.709,1.178,1.131S176.674,14.348,176.674,14.918z"/>
</g>
</svg>