<!-- Generator: Adobe Illustrator 21.0.0, SVG Export Plug-In  -->
<svg version="1.1"
	 xmlns="http://www.w3.org/2000/svg" xmlns:xlink="http://www.w3.org/1999/xlink" xmlns:a="http://ns.adobe.com/AdobeSVGViewerExtensions/3.0/"
	 x="0px" y="0px" width="254.175px" height="44px" viewBox="0 0 254.175 44" style="enable-background:new 0 0 254.175 44;"
	 xml:space="preserve">
<defs>
</defs>
<g>
	<path d="M1.02,9.117V0.551h0.996v8.566H1.02z"/>
	<path d="M8.913,9.117V4.963c0-0.523-0.119-0.914-0.357-1.172S7.944,3.404,7.437,3.404c-0.672,0-1.164,0.182-1.477,0.545
		S5.491,4.912,5.491,5.748v3.369H4.519V2.695H5.31l0.158,0.879h0.047c0.199-0.316,0.479-0.562,0.838-0.735s0.76-0.261,1.201-0.261
		c0.773,0,1.355,0.187,1.746,0.56s0.586,0.97,0.586,1.79v4.189H8.913z"/>
	<path d="M20.582,6.838c0,0.754-0.273,1.342-0.82,1.764s-1.289,0.633-2.227,0.633c-1.016,0-1.797-0.131-2.344-0.393V7.881
		c0.352,0.148,0.734,0.266,1.148,0.352s0.824,0.129,1.23,0.129c0.664,0,1.164-0.126,1.5-0.378s0.504-0.603,0.504-1.052
		c0-0.297-0.06-0.54-0.179-0.729s-0.318-0.364-0.598-0.524s-0.704-0.342-1.274-0.545c-0.797-0.285-1.366-0.623-1.708-1.014
		s-0.513-0.9-0.513-1.529c0-0.66,0.248-1.186,0.744-1.576s1.152-0.586,1.969-0.586c0.852,0,1.635,0.156,2.35,0.469l-0.311,0.867
		c-0.707-0.297-1.395-0.445-2.062-0.445c-0.527,0-0.939,0.113-1.236,0.34s-0.445,0.541-0.445,0.943c0,0.297,0.055,0.54,0.164,0.729
		s0.294,0.363,0.554,0.521s0.657,0.333,1.192,0.524c0.898,0.32,1.517,0.664,1.854,1.031S20.582,6.252,20.582,6.838z"/>
	<path d="M26.882,9.117V4.963c0-0.523-0.119-0.914-0.357-1.172s-0.611-0.387-1.119-0.387c-0.672,0-1.164,0.182-1.477,0.545
		S23.46,4.912,23.46,5.748v3.369h-0.973V2.695h0.791l0.158,0.879h0.047c0.199-0.316,0.479-0.562,0.838-0.735s0.76-0.261,1.201-0.261
		c0.773,0,1.355,0.187,1.746,0.56s0.586,0.97,0.586,1.79v4.189H26.882z"/>
	<path d="M35.695,5.9c0,1.047-0.264,1.864-0.791,2.452s-1.256,0.882-2.186,0.882c-0.574,0-1.084-0.135-1.529-0.404
		S30.4,8.174,30.158,7.67s-0.363-1.094-0.363-1.77c0-1.047,0.262-1.862,0.785-2.446s1.25-0.876,2.18-0.876
		c0.898,0,1.612,0.299,2.142,0.896S35.695,4.881,35.695,5.9z M30.803,5.9c0,0.82,0.164,1.445,0.492,1.875s0.811,0.645,1.447,0.645
		s1.12-0.214,1.45-0.642s0.495-1.054,0.495-1.878c0-0.816-0.165-1.437-0.495-1.86s-0.817-0.636-1.462-0.636
		c-0.637,0-1.117,0.209-1.441,0.627S30.803,5.072,30.803,5.9z"/>
	<path d="M42.944,9.117L41.767,5.35c-0.074-0.23-0.213-0.754-0.416-1.57h-0.047c-0.156,0.684-0.293,1.211-0.41,1.582l-1.213,3.756
		h-1.125l-1.752-6.422h1.02c0.414,1.613,0.729,2.842,0.946,3.686s0.341,1.412,0.372,1.705h0.047
		c0.043-0.223,0.112-0.511,0.208-0.864s0.179-0.634,0.249-0.841l1.178-3.686h1.055l1.148,3.686c0.219,0.672,0.367,1.236,0.445,1.693
		h0.047c0.016-0.141,0.058-0.357,0.126-0.65s0.476-1.869,1.222-4.729h1.008l-1.775,6.422H42.944z"/>
	<path d="M46.314,2.695h1.043l1.406,3.662c0.309,0.836,0.5,1.439,0.574,1.811h0.047c0.051-0.199,0.157-0.54,0.319-1.022
		s0.692-1.966,1.591-4.45h1.043l-2.76,7.312c-0.273,0.723-0.593,1.235-0.958,1.538S47.807,12,47.275,12
		c-0.297,0-0.59-0.033-0.879-0.1v-0.779c0.215,0.047,0.455,0.07,0.721,0.07c0.668,0,1.145-0.375,1.43-1.125l0.357-0.914
		L46.314,2.695z"/>
	<path d="M62.138,0.551h1.072l-3.088,8.566h-0.984l-3.07-8.566h1.055l1.969,5.543c0.227,0.637,0.406,1.256,0.539,1.857
		c0.141-0.633,0.324-1.264,0.551-1.893L62.138,0.551z"/>
	<path d="M64.459,0.955c0-0.223,0.055-0.386,0.164-0.489s0.246-0.155,0.41-0.155c0.156,0,0.291,0.053,0.404,0.158
		s0.17,0.268,0.17,0.486s-0.057,0.382-0.17,0.489s-0.248,0.161-0.404,0.161c-0.164,0-0.301-0.054-0.41-0.161
		S64.459,1.174,64.459,0.955z M65.514,9.117h-0.973V2.695h0.973V9.117z"/>
	<path d="M68.849,9.117h-0.973V0h0.973V9.117z"/>
	<path d="M72.184,9.117h-0.973V0h0.973V9.117z"/>
	<path d="M78.496,9.117l-0.193-0.914h-0.047c-0.32,0.402-0.64,0.675-0.958,0.817s-0.716,0.214-1.192,0.214
		c-0.637,0-1.136-0.164-1.497-0.492s-0.542-0.795-0.542-1.4c0-1.297,1.037-1.977,3.111-2.039l1.09-0.035V4.869
		c0-0.504-0.108-0.876-0.325-1.116s-0.563-0.36-1.04-0.36c-0.535,0-1.141,0.164-1.816,0.492l-0.299-0.744
		c0.316-0.172,0.663-0.307,1.04-0.404s0.755-0.146,1.134-0.146c0.766,0,1.333,0.17,1.702,0.51s0.554,0.885,0.554,1.635v4.383H78.496
		z M76.299,8.432c0.605,0,1.081-0.166,1.427-0.498s0.519-0.797,0.519-1.395v-0.58L77.271,6c-0.773,0.027-1.331,0.147-1.673,0.36
		s-0.513,0.544-0.513,0.993c0,0.352,0.106,0.619,0.319,0.803S75.916,8.432,76.299,8.432z"/>
	<path d="M86.776,2.695v0.615l-1.189,0.141c0.109,0.137,0.207,0.315,0.293,0.536s0.129,0.47,0.129,0.747
		c0,0.629-0.215,1.131-0.645,1.506s-1.02,0.562-1.77,0.562c-0.191,0-0.371-0.016-0.539-0.047c-0.414,0.219-0.621,0.494-0.621,0.826
		c0,0.176,0.072,0.306,0.217,0.39s0.393,0.126,0.744,0.126h1.137c0.695,0,1.229,0.146,1.603,0.439s0.56,0.719,0.56,1.277
		c0,0.711-0.285,1.253-0.855,1.626S84.437,12,83.343,12c-0.84,0-1.487-0.156-1.942-0.469s-0.683-0.754-0.683-1.324
		c0-0.391,0.125-0.729,0.375-1.014s0.602-0.479,1.055-0.58c-0.164-0.074-0.302-0.189-0.413-0.346s-0.167-0.338-0.167-0.545
		c0-0.234,0.062-0.439,0.188-0.615s0.322-0.346,0.592-0.51c-0.332-0.137-0.603-0.369-0.812-0.697s-0.313-0.703-0.313-1.125
		c0-0.703,0.211-1.245,0.633-1.626s1.02-0.571,1.793-0.571c0.336,0,0.639,0.039,0.908,0.117H86.776z M81.655,10.195
		c0,0.348,0.146,0.611,0.439,0.791s0.713,0.27,1.26,0.27c0.816,0,1.421-0.122,1.813-0.366s0.589-0.575,0.589-0.993
		c0-0.348-0.107-0.589-0.322-0.724s-0.619-0.202-1.213-0.202h-1.166c-0.441,0-0.785,0.105-1.031,0.316S81.655,9.801,81.655,10.195z
		 M82.183,4.752c0,0.449,0.127,0.789,0.381,1.02s0.607,0.346,1.061,0.346c0.949,0,1.424-0.461,1.424-1.383
		c0-0.965-0.48-1.447-1.441-1.447c-0.457,0-0.809,0.123-1.055,0.369S82.183,4.268,82.183,4.752z"/>
	<path d="M91.107,9.234c-0.949,0-1.698-0.289-2.247-0.867s-0.823-1.381-0.823-2.408c0-1.035,0.255-1.857,0.765-2.467
		s1.194-0.914,2.054-0.914c0.805,0,1.441,0.265,1.91,0.794s0.703,1.228,0.703,2.095v0.615h-4.424c0.02,0.754,0.21,1.326,0.571,1.717
		s0.87,0.586,1.526,0.586c0.691,0,1.375-0.145,2.051-0.434v0.867c-0.344,0.148-0.669,0.255-0.976,0.319S91.541,9.234,91.107,9.234z
		 M90.844,3.393c-0.516,0-0.927,0.168-1.233,0.504s-0.487,0.801-0.542,1.395h3.357c0-0.613-0.137-1.083-0.41-1.409
		S91.352,3.393,90.844,3.393z"/>
	<path d="M104.088,9.117L102.91,5.35c-0.074-0.23-0.213-0.754-0.416-1.57h-0.047c-0.156,0.684-0.293,1.211-0.41,1.582l-1.213,3.756
		h-1.125l-1.752-6.422h1.02c0.414,1.613,0.729,2.842,0.946,3.686s0.341,1.412,0.372,1.705h0.047
		c0.043-0.223,0.112-0.511,0.208-0.864s0.179-0.634,0.249-0.841l1.178-3.686h1.055l1.148,3.686c0.219,0.672,0.367,1.236,0.445,1.693
		h0.047c0.016-0.141,0.058-0.357,0.126-0.65s0.476-1.869,1.222-4.729h1.008l-1.775,6.422H104.088z"/>
	<path d="M111.191,9.234c-0.949,0-1.698-0.289-2.247-0.867s-0.823-1.381-0.823-2.408c0-1.035,0.255-1.857,0.765-2.467
		s1.194-0.914,2.054-0.914c0.805,0,1.441,0.265,1.91,0.794s0.703,1.228,0.703,2.095v0.615h-4.424c0.02,0.754,0.21,1.326,0.571,1.717
		s0.87,0.586,1.526,0.586c0.691,0,1.375-0.145,2.051-0.434v0.867c-0.344,0.148-0.669,0.255-0.976,0.319S111.625,9.234,111.191,9.234
		z M110.928,3.393c-0.516,0-0.927,0.168-1.233,0.504s-0.487,0.801-0.542,1.395h3.357c0-0.613-0.137-1.083-0.41-1.409
		S111.436,3.393,110.928,3.393z"/>
	<path d="M123.322,9.117V4.963c0-0.523-0.119-0.914-0.357-1.172s-0.611-0.387-1.119-0.387c-0.672,0-1.164,0.182-1.477,0.545
		S119.9,4.912,119.9,5.748v3.369h-0.973V2.695h0.791l0.158,0.879h0.047c0.199-0.316,0.479-0.562,0.838-0.735s0.76-0.261,1.201-0.261
		c0.773,0,1.355,0.187,1.746,0.56s0.586,0.97,0.586,1.79v4.189H123.322z"/>
	<path d="M129.306,9.234c-0.949,0-1.698-0.289-2.247-0.867s-0.823-1.381-0.823-2.408c0-1.035,0.255-1.857,0.765-2.467
		s1.194-0.914,2.054-0.914c0.805,0,1.441,0.265,1.91,0.794s0.703,1.228,0.703,2.095v0.615h-4.424c0.02,0.754,0.21,1.326,0.571,1.717
		s0.87,0.586,1.526,0.586c0.691,0,1.375-0.145,2.051-0.434v0.867c-0.344,0.148-0.669,0.255-0.976,0.319S129.739,9.234,129.306,9.234
		z M129.042,3.393c-0.516,0-0.927,0.168-1.233,0.504s-0.487,0.801-0.542,1.395h3.357c0-0.613-0.137-1.083-0.41-1.409
		S129.55,3.393,129.042,3.393z"/>
	<path d="M135.031,9.117l-2.438-6.422h1.043l1.383,3.809c0.312,0.891,0.496,1.469,0.551,1.734h0.047
		c0.043-0.207,0.179-0.636,0.407-1.286s0.741-2.069,1.538-4.257h1.043l-2.438,6.422H135.031z"/>
	<path d="M142.65,9.234c-0.949,0-1.698-0.289-2.247-0.867s-0.823-1.381-0.823-2.408c0-1.035,0.255-1.857,0.765-2.467
		s1.194-0.914,2.054-0.914c0.805,0,1.441,0.265,1.91,0.794s0.703,1.228,0.703,2.095v0.615h-4.424c0.02,0.754,0.21,1.326,0.571,1.717
		s0.87,0.586,1.526,0.586c0.691,0,1.375-0.145,2.051-0.434v0.867c-0.344,0.148-0.669,0.255-0.976,0.319S143.084,9.234,142.65,9.234z
		 M142.387,3.393c-0.516,0-0.927,0.168-1.233,0.504s-0.487,0.801-0.542,1.395h3.357c0-0.613-0.137-1.083-0.41-1.409
		S142.895,3.393,142.387,3.393z"/>
	<path d="M149.899,2.578c0.285,0,0.541,0.023,0.768,0.07l-0.135,0.902c-0.266-0.059-0.5-0.088-0.703-0.088
		c-0.52,0-0.964,0.211-1.333,0.633s-0.554,0.947-0.554,1.576v3.445h-0.973V2.695h0.803l0.111,1.189h0.047
		c0.238-0.418,0.525-0.74,0.861-0.967S149.497,2.578,149.899,2.578z"/>
	<path d="M159.728,7.365c0,0.598-0.223,1.059-0.668,1.383s-1.07,0.486-1.875,0.486c-0.852,0-1.516-0.135-1.992-0.404V7.928
		c0.309,0.156,0.64,0.279,0.993,0.369s0.694,0.135,1.022,0.135c0.508,0,0.898-0.081,1.172-0.243s0.41-0.409,0.41-0.741
		c0-0.25-0.108-0.464-0.325-0.642s-0.64-0.388-1.269-0.63c-0.598-0.223-1.022-0.417-1.274-0.583s-0.439-0.354-0.562-0.565
		s-0.185-0.463-0.185-0.756c0-0.523,0.213-0.937,0.639-1.239s1.01-0.454,1.752-0.454c0.691,0,1.367,0.141,2.027,0.422l-0.346,0.791
		c-0.645-0.266-1.229-0.398-1.752-0.398c-0.461,0-0.809,0.072-1.043,0.217s-0.352,0.344-0.352,0.598
		c0,0.172,0.044,0.318,0.132,0.439s0.229,0.236,0.425,0.346s0.57,0.268,1.125,0.475c0.762,0.277,1.276,0.557,1.544,0.838
		S159.728,6.939,159.728,7.365z"/>
	<path d="M163.684,8.432c0.172,0,0.338-0.013,0.498-0.038s0.287-0.052,0.381-0.079v0.744c-0.105,0.051-0.261,0.093-0.466,0.126
		s-0.39,0.05-0.554,0.05c-1.242,0-1.863-0.654-1.863-1.963v-3.82h-0.92V2.982l0.92-0.404l0.41-1.371h0.562v1.488h1.863v0.756h-1.863
		V7.23c0,0.387,0.092,0.684,0.275,0.891S163.363,8.432,163.684,8.432z"/>
	<path d="M171.689,5.9c0,1.047-0.264,1.864-0.791,2.452s-1.256,0.882-2.186,0.882c-0.574,0-1.084-0.135-1.529-0.404
		s-0.789-0.656-1.031-1.16s-0.363-1.094-0.363-1.77c0-1.047,0.262-1.862,0.785-2.446s1.25-0.876,2.18-0.876
		c0.898,0,1.612,0.299,2.142,0.896S171.689,4.881,171.689,5.9z M166.797,5.9c0,0.82,0.164,1.445,0.492,1.875
		s0.811,0.645,1.447,0.645s1.12-0.214,1.45-0.642s0.495-1.054,0.495-1.878c0-0.816-0.165-1.437-0.495-1.86s-0.817-0.636-1.462-0.636
		c-0.637,0-1.117,0.209-1.441,0.627S166.797,5.072,166.797,5.9z"/>
	<path d="M176.683,9.234c-0.418,0-0.8-0.077-1.146-0.231s-0.636-0.392-0.87-0.712h-0.07c0.047,0.375,0.07,0.73,0.07,1.066V12h-0.973
		V2.695h0.791l0.135,0.879h0.047c0.25-0.352,0.541-0.605,0.873-0.762s0.713-0.234,1.143-0.234c0.852,0,1.509,0.291,1.972,0.873
		s0.694,1.398,0.694,2.449c0,1.055-0.235,1.874-0.706,2.458S177.519,9.234,176.683,9.234z M176.542,3.404
		c-0.656,0-1.131,0.182-1.424,0.545s-0.443,0.941-0.451,1.734V5.9c0,0.902,0.15,1.548,0.451,1.937s0.783,0.583,1.447,0.583
		c0.555,0,0.989-0.225,1.304-0.674s0.472-1.068,0.472-1.857c0-0.801-0.157-1.415-0.472-1.843S177.112,3.404,176.542,3.404z"/>
	<path d="M184.683,0.955c0-0.223,0.055-0.386,0.164-0.489s0.246-0.155,0.41-0.155c0.156,0,0.291,0.053,0.404,0.158
		s0.17,0.268,0.17,0.486s-0.057,0.382-0.17,0.489s-0.248,0.161-0.404,0.161c-0.164,0-0.301-0.054-0.41-0.161
		S184.683,1.174,184.683,0.955z M185.737,9.117h-0.973V2.695h0.973V9.117z"/>
	<path d="M192.494,9.117V4.963c0-0.523-0.119-0.914-0.357-1.172s-0.611-0.387-1.119-0.387c-0.672,0-1.164,0.182-1.477,0.545
		s-0.469,0.963-0.469,1.799v3.369H188.1V2.695h0.791l0.158,0.879h0.047c0.199-0.316,0.479-0.562,0.838-0.735s0.76-0.261,1.201-0.261
		c0.773,0,1.355,0.187,1.746,0.56s0.586,0.97,0.586,1.79v4.189H192.494z"/>
	<path d="M200.16,9.117V4.963c0-0.523-0.119-0.914-0.357-1.172s-0.611-0.387-1.119-0.387c-0.672,0-1.164,0.182-1.477,0.545
		s-0.469,0.963-0.469,1.799v3.369h-0.973V2.695h0.791l0.158,0.879h0.047c0.199-0.316,0.479-0.562,0.838-0.735
		s0.76-0.261,1.201-0.261c0.773,0,1.355,0.187,1.746,0.56s0.586,0.97,0.586,1.79v4.189H200.16z"/>
	<path d="M208.974,5.9c0,1.047-0.264,1.864-0.791,2.452s-1.256,0.882-2.186,0.882c-0.574,0-1.084-0.135-1.529-0.404
		s-0.789-0.656-1.031-1.16s-0.363-1.094-0.363-1.77c0-1.047,0.262-1.862,0.785-2.446s1.25-0.876,2.18-0.876
		c0.898,0,1.612,0.299,2.142,0.896S208.974,4.881,208.974,5.9z M204.081,5.9c0,0.82,0.164,1.445,0.492,1.875
		s0.811,0.645,1.447,0.645s1.12-0.214,1.45-0.642s0.495-1.054,0.495-1.878c0-0.816-0.165-1.437-0.495-1.86s-0.817-0.636-1.462-0.636
		c-0.637,0-1.117,0.209-1.441,0.627S204.081,5.072,204.081,5.9z"/>
	<path d="M212.385,9.117l-2.438-6.422h1.043l1.383,3.809c0.312,0.891,0.496,1.469,0.551,1.734h0.047
		c0.043-0.207,0.179-0.636,0.407-1.286s0.741-2.069,1.538-4.257h1.043l-2.438,6.422H212.385z"/>
	<path d="M221.239,9.117l-0.193-0.914h-0.047c-0.32,0.402-0.64,0.675-0.958,0.817s-0.716,0.214-1.192,0.214
		c-0.637,0-1.136-0.164-1.497-0.492s-0.542-0.795-0.542-1.4c0-1.297,1.037-1.977,3.111-2.039l1.09-0.035V4.869
		c0-0.504-0.108-0.876-0.325-1.116s-0.563-0.36-1.04-0.36c-0.535,0-1.141,0.164-1.816,0.492l-0.299-0.744
		c0.316-0.172,0.663-0.307,1.04-0.404s0.755-0.146,1.134-0.146c0.766,0,1.333,0.17,1.702,0.51s0.554,0.885,0.554,1.635v4.383
		H221.239z M219.042,8.432c0.605,0,1.081-0.166,1.427-0.498s0.519-0.797,0.519-1.395v-0.58L220.015,6
		c-0.773,0.027-1.331,0.147-1.673,0.36s-0.513,0.544-0.513,0.993c0,0.352,0.106,0.619,0.319,0.803S218.659,8.432,219.042,8.432z"/>
	<path d="M226.338,8.432c0.172,0,0.338-0.013,0.498-0.038s0.287-0.052,0.381-0.079v0.744c-0.105,0.051-0.261,0.093-0.466,0.126
		s-0.39,0.05-0.554,0.05c-1.242,0-1.863-0.654-1.863-1.963v-3.82h-0.92V2.982l0.92-0.404l0.41-1.371h0.562v1.488h1.863v0.756h-1.863
		V7.23c0,0.387,0.092,0.684,0.275,0.891S226.018,8.432,226.338,8.432z"/>
	<path d="M228.719,0.955c0-0.223,0.055-0.386,0.164-0.489s0.246-0.155,0.41-0.155c0.156,0,0.291,0.053,0.404,0.158
		s0.17,0.268,0.17,0.486s-0.057,0.382-0.17,0.489s-0.248,0.161-0.404,0.161c-0.164,0-0.301-0.054-0.41-0.161
		S228.719,1.174,228.719,0.955z M229.773,9.117h-0.973V2.695h0.973V9.117z"/>
	<path d="M236.53,9.117V4.963c0-0.523-0.119-0.914-0.357-1.172s-0.611-0.387-1.119-0.387c-0.672,0-1.164,0.182-1.477,0.545
		s-0.469,0.963-0.469,1.799v3.369h-0.973V2.695h0.791l0.158,0.879h0.047c0.199-0.316,0.479-0.562,0.838-0.735
		s0.76-0.261,1.201-0.261c0.773,0,1.355,0.187,1.746,0.56s0.586,0.97,0.586,1.79v4.189H236.53z"/>
	<path d="M245.057,2.695v0.615l-1.189,0.141c0.109,0.137,0.207,0.315,0.293,0.536s0.129,0.47,0.129,0.747
		c0,0.629-0.215,1.131-0.645,1.506s-1.02,0.562-1.77,0.562c-0.191,0-0.371-0.016-0.539-0.047c-0.414,0.219-0.621,0.494-0.621,0.826
		c0,0.176,0.072,0.306,0.217,0.39s0.393,0.126,0.744,0.126h1.137c0.695,0,1.229,0.146,1.603,0.439s0.56,0.719,0.56,1.277
		c0,0.711-0.285,1.253-0.855,1.626S242.717,12,241.623,12c-0.84,0-1.487-0.156-1.942-0.469s-0.683-0.754-0.683-1.324
		c0-0.391,0.125-0.729,0.375-1.014s0.602-0.479,1.055-0.58c-0.164-0.074-0.302-0.189-0.413-0.346s-0.167-0.338-0.167-0.545
		c0-0.234,0.062-0.439,0.188-0.615s0.322-0.346,0.592-0.51c-0.332-0.137-0.603-0.369-0.812-0.697s-0.313-0.703-0.313-1.125
		c0-0.703,0.211-1.245,0.633-1.626s1.02-0.571,1.793-0.571c0.336,0,0.639,0.039,0.908,0.117H245.057z M239.936,10.195
		c0,0.348,0.146,0.611,0.439,0.791s0.713,0.27,1.26,0.27c0.816,0,1.421-0.122,1.813-0.366s0.589-0.575,0.589-0.993
		c0-0.348-0.107-0.589-0.322-0.724s-0.619-0.202-1.213-0.202h-1.166c-0.441,0-0.785,0.105-1.031,0.316S239.936,9.801,239.936,10.195
		z M240.463,4.752c0,0.449,0.127,0.789,0.381,1.02s0.607,0.346,1.061,0.346c0.949,0,1.424-0.461,1.424-1.383
		c0-0.965-0.48-1.447-1.441-1.447c-0.457,0-0.809,0.123-1.055,0.369S240.463,4.268,240.463,4.752z"/>
	<path d="M246.534,8.496c0-0.262,0.06-0.46,0.179-0.595s0.29-0.202,0.513-0.202c0.227,0,0.403,0.067,0.53,0.202
		s0.19,0.333,0.19,0.595c0,0.254-0.064,0.449-0.193,0.586s-0.305,0.205-0.527,0.205c-0.199,0-0.364-0.062-0.495-0.185
		S246.534,8.777,246.534,8.496z"/>
	<path d="M8.496,25.117H7.512l-1.729-5.736c-0.082-0.254-0.174-0.574-0.275-0.961s-0.154-0.619-0.158-0.697
		c-0.086,0.516-0.223,1.08-0.41,1.693l-1.676,5.701H2.279L0,16.551h1.055l1.354,5.291c0.188,0.742,0.324,1.414,0.41,2.016
		c0.105-0.715,0.262-1.414,0.469-2.098l1.535-5.209h1.055l1.611,5.256c0.188,0.605,0.346,1.289,0.475,2.051
		c0.074-0.555,0.215-1.23,0.422-2.027l1.348-5.279h1.055L8.496,25.117z"/>
	<path d="M14.995,25.234c-0.949,0-1.698-0.289-2.247-0.867s-0.823-1.381-0.823-2.408c0-1.035,0.255-1.857,0.765-2.467
		s1.194-0.914,2.054-0.914c0.805,0,1.441,0.265,1.91,0.794s0.703,1.228,0.703,2.095v0.615h-4.424c0.02,0.754,0.21,1.326,0.571,1.717
		s0.87,0.586,1.526,0.586c0.691,0,1.375-0.145,2.051-0.434v0.867c-0.344,0.148-0.669,0.255-0.976,0.319S15.429,25.234,14.995,25.234
		z M14.731,19.393c-0.516,0-0.927,0.168-1.233,0.504s-0.487,0.801-0.542,1.395h3.357c0-0.613-0.137-1.083-0.41-1.409
		S15.239,19.393,14.731,19.393z"/>
	<path d="M30.918,25.117v-4.178c0-0.512-0.109-0.896-0.328-1.151s-0.559-0.384-1.02-0.384c-0.605,0-1.053,0.174-1.342,0.521
		s-0.434,0.883-0.434,1.605v3.586h-0.973v-4.178c0-0.512-0.109-0.896-0.328-1.151s-0.561-0.384-1.025-0.384
		c-0.609,0-1.056,0.183-1.339,0.548s-0.425,0.964-0.425,1.796v3.369h-0.973v-6.422h0.791l0.158,0.879h0.047
		c0.184-0.312,0.442-0.557,0.776-0.732s0.708-0.264,1.122-0.264c1.004,0,1.66,0.363,1.969,1.09h0.047
		c0.191-0.336,0.469-0.602,0.832-0.797s0.777-0.293,1.242-0.293c0.727,0,1.271,0.187,1.632,0.56s0.542,0.97,0.542,1.79v4.189H30.918
		z"/>
	<path d="M38.144,25.117l-0.193-0.914h-0.047c-0.32,0.402-0.64,0.675-0.958,0.817s-0.716,0.214-1.192,0.214
		c-0.637,0-1.136-0.164-1.497-0.492s-0.542-0.795-0.542-1.4c0-1.297,1.037-1.977,3.111-2.039l1.09-0.035v-0.398
		c0-0.504-0.108-0.876-0.325-1.116s-0.563-0.36-1.04-0.36c-0.535,0-1.141,0.164-1.816,0.492l-0.299-0.744
		c0.316-0.172,0.663-0.307,1.04-0.404s0.755-0.146,1.134-0.146c0.766,0,1.333,0.17,1.702,0.51s0.554,0.885,0.554,1.635v4.383H38.144
		z M35.946,24.432c0.605,0,1.081-0.166,1.427-0.498s0.519-0.797,0.519-1.395v-0.58L36.919,22c-0.773,0.027-1.331,0.147-1.673,0.36
		s-0.513,0.544-0.513,0.993c0,0.352,0.106,0.619,0.319,0.803S35.563,24.432,35.946,24.432z"/>
	<path d="M45.539,24.256h-0.053c-0.449,0.652-1.121,0.979-2.016,0.979c-0.84,0-1.493-0.287-1.96-0.861s-0.7-1.391-0.7-2.449
		s0.234-1.881,0.703-2.467s1.121-0.879,1.957-0.879c0.871,0,1.539,0.316,2.004,0.949h0.076l-0.041-0.463l-0.023-0.451V16h0.973
		v9.117h-0.791L45.539,24.256z M43.594,24.42c0.664,0,1.146-0.181,1.444-0.542s0.448-0.944,0.448-1.749v-0.205
		c0-0.91-0.151-1.56-0.454-1.948s-0.786-0.583-1.45-0.583c-0.57,0-1.007,0.222-1.31,0.665s-0.454,1.069-0.454,1.878
		c0,0.82,0.15,1.439,0.451,1.857S43.012,24.42,43.594,24.42z"/>
	<path d="M51.534,25.234c-0.949,0-1.698-0.289-2.247-0.867s-0.823-1.381-0.823-2.408c0-1.035,0.255-1.857,0.765-2.467
		s1.194-0.914,2.054-0.914c0.805,0,1.441,0.265,1.91,0.794s0.703,1.228,0.703,2.095v0.615h-4.424c0.02,0.754,0.21,1.326,0.571,1.717
		s0.87,0.586,1.526,0.586c0.691,0,1.375-0.145,2.051-0.434v0.867c-0.344,0.148-0.669,0.255-0.976,0.319S51.968,25.234,51.534,25.234
		z M51.271,19.393c-0.516,0-0.927,0.168-1.233,0.504s-0.487,0.801-0.542,1.395h3.357c0-0.613-0.137-1.083-0.41-1.409
		S51.778,19.393,51.271,19.393z"/>
	<path d="M63.414,23.365c0,0.598-0.223,1.059-0.668,1.383s-1.07,0.486-1.875,0.486c-0.852,0-1.516-0.135-1.992-0.404v-0.902
		c0.309,0.156,0.64,0.279,0.993,0.369s0.694,0.135,1.022,0.135c0.508,0,0.898-0.081,1.172-0.243s0.41-0.409,0.41-0.741
		c0-0.25-0.108-0.464-0.325-0.642s-0.64-0.388-1.269-0.63c-0.598-0.223-1.022-0.417-1.274-0.583s-0.439-0.354-0.562-0.565
		s-0.185-0.463-0.185-0.756c0-0.523,0.213-0.937,0.639-1.239s1.01-0.454,1.752-0.454c0.691,0,1.367,0.141,2.027,0.422l-0.346,0.791
		c-0.645-0.266-1.229-0.398-1.752-0.398c-0.461,0-0.809,0.072-1.043,0.217s-0.352,0.344-0.352,0.598
		c0,0.172,0.044,0.318,0.132,0.439s0.229,0.236,0.425,0.346s0.57,0.268,1.125,0.475c0.762,0.277,1.276,0.557,1.544,0.838
		S63.414,22.939,63.414,23.365z"/>
	<path d="M66.21,18.695v4.166c0,0.523,0.119,0.914,0.357,1.172s0.611,0.387,1.119,0.387c0.672,0,1.163-0.184,1.474-0.551
		s0.466-0.967,0.466-1.799v-3.375h0.973v6.422h-0.803l-0.141-0.861h-0.053c-0.199,0.316-0.476,0.559-0.829,0.727
		s-0.757,0.252-1.21,0.252c-0.781,0-1.366-0.186-1.755-0.557s-0.583-0.965-0.583-1.781v-4.201H66.21z"/>
	<path d="M75.891,18.578c0.285,0,0.541,0.023,0.768,0.07l-0.135,0.902c-0.266-0.059-0.5-0.088-0.703-0.088
		c-0.52,0-0.964,0.211-1.333,0.633s-0.554,0.947-0.554,1.576v3.445h-0.973v-6.422h0.803l0.111,1.189h0.047
		c0.238-0.418,0.525-0.74,0.861-0.967S75.488,18.578,75.891,18.578z"/>
	<path d="M80.872,25.234c-0.949,0-1.698-0.289-2.247-0.867s-0.823-1.381-0.823-2.408c0-1.035,0.255-1.857,0.765-2.467
		s1.194-0.914,2.054-0.914c0.805,0,1.441,0.265,1.91,0.794s0.703,1.228,0.703,2.095v0.615H78.81c0.02,0.754,0.21,1.326,0.571,1.717
		s0.87,0.586,1.526,0.586c0.691,0,1.375-0.145,2.051-0.434v0.867c-0.344,0.148-0.669,0.255-0.976,0.319S81.306,25.234,80.872,25.234
		z M80.608,19.393c-0.516,0-0.927,0.168-1.233,0.504s-0.487,0.801-0.542,1.395h3.357c0-0.613-0.137-1.083-0.41-1.409
		S81.116,19.393,80.608,19.393z"/>
	<path d="M90.684,24.432c0.172,0,0.338-0.013,0.498-0.038s0.287-0.052,0.381-0.079v0.744c-0.105,0.051-0.261,0.093-0.466,0.126
		s-0.39,0.05-0.554,0.05c-1.242,0-1.863-0.654-1.863-1.963v-3.82h-0.92v-0.469l0.92-0.404l0.41-1.371h0.562v1.488h1.863v0.756
		h-1.863v3.779c0,0.387,0.092,0.684,0.275,0.891S90.363,24.432,90.684,24.432z"/>
	<path d="M97.54,25.117v-4.154c0-0.523-0.119-0.914-0.357-1.172s-0.611-0.387-1.119-0.387c-0.676,0-1.169,0.184-1.479,0.551
		s-0.466,0.969-0.466,1.805v3.357h-0.973V16h0.973v2.76c0,0.332-0.016,0.607-0.047,0.826h0.059c0.191-0.309,0.464-0.552,0.817-0.729
		s0.757-0.267,1.21-0.267c0.785,0,1.374,0.187,1.767,0.56s0.589,0.966,0.589,1.778v4.189H97.54z"/>
	<path d="M104.76,25.117l-0.193-0.914h-0.047c-0.32,0.402-0.64,0.675-0.958,0.817s-0.716,0.214-1.192,0.214
		c-0.637,0-1.136-0.164-1.497-0.492s-0.542-0.795-0.542-1.4c0-1.297,1.037-1.977,3.111-2.039l1.09-0.035v-0.398
		c0-0.504-0.108-0.876-0.325-1.116s-0.563-0.36-1.04-0.36c-0.535,0-1.141,0.164-1.816,0.492l-0.299-0.744
		c0.316-0.172,0.663-0.307,1.04-0.404s0.755-0.146,1.134-0.146c0.766,0,1.333,0.17,1.702,0.51s0.554,0.885,0.554,1.635v4.383H104.76
		z M102.562,24.432c0.605,0,1.081-0.166,1.427-0.498s0.519-0.797,0.519-1.395v-0.58L103.535,22c-0.773,0.027-1.331,0.147-1.673,0.36
		s-0.513,0.544-0.513,0.993c0,0.352,0.106,0.619,0.319,0.803S102.18,24.432,102.562,24.432z"/>
	<path d="M109.858,24.432c0.172,0,0.338-0.013,0.498-0.038s0.287-0.052,0.381-0.079v0.744c-0.105,0.051-0.261,0.093-0.466,0.126
		s-0.39,0.05-0.554,0.05c-1.242,0-1.863-0.654-1.863-1.963v-3.82h-0.92v-0.469l0.92-0.404l0.41-1.371h0.562v1.488h1.863v0.756
		h-1.863v3.779c0,0.387,0.092,0.684,0.275,0.891S109.538,24.432,109.858,24.432z"/>
	<path d="M118.451,25.234c-0.949,0-1.698-0.289-2.247-0.867s-0.823-1.381-0.823-2.408c0-1.035,0.255-1.857,0.765-2.467
		s1.194-0.914,2.054-0.914c0.805,0,1.441,0.265,1.91,0.794s0.703,1.228,0.703,2.095v0.615h-4.424c0.02,0.754,0.21,1.326,0.571,1.717
		s0.87,0.586,1.526,0.586c0.691,0,1.375-0.145,2.051-0.434v0.867c-0.344,0.148-0.669,0.255-0.976,0.319
		S118.885,25.234,118.451,25.234z M118.188,19.393c-0.516,0-0.927,0.168-1.233,0.504s-0.487,0.801-0.542,1.395h3.357
		c0-0.613-0.137-1.083-0.41-1.409S118.695,19.393,118.188,19.393z"/>
	<path d="M124.177,25.117l-2.438-6.422h1.043l1.383,3.809c0.312,0.891,0.496,1.469,0.551,1.734h0.047
		c0.043-0.207,0.179-0.636,0.407-1.286s0.741-2.069,1.538-4.257h1.043l-2.438,6.422H124.177z"/>
	<path d="M131.795,25.234c-0.949,0-1.698-0.289-2.247-0.867s-0.823-1.381-0.823-2.408c0-1.035,0.255-1.857,0.765-2.467
		s1.194-0.914,2.054-0.914c0.805,0,1.441,0.265,1.91,0.794s0.703,1.228,0.703,2.095v0.615h-4.424c0.02,0.754,0.21,1.326,0.571,1.717
		s0.87,0.586,1.526,0.586c0.691,0,1.375-0.145,2.051-0.434v0.867c-0.344,0.148-0.669,0.255-0.976,0.319
		S132.229,25.234,131.795,25.234z M131.531,19.393c-0.516,0-0.927,0.168-1.233,0.504s-0.487,0.801-0.542,1.395h3.357
		c0-0.613-0.137-1.083-0.41-1.409S132.039,19.393,131.531,19.393z"/>
	<path d="M139.044,18.578c0.285,0,0.541,0.023,0.768,0.07l-0.135,0.902c-0.266-0.059-0.5-0.088-0.703-0.088
		c-0.52,0-0.964,0.211-1.333,0.633s-0.554,0.947-0.554,1.576v3.445h-0.973v-6.422h0.803l0.111,1.189h0.047
		c0.238-0.418,0.525-0.74,0.861-0.967S138.642,18.578,139.044,18.578z"/>
	<path d="M140.293,18.695h1.043l1.406,3.662c0.309,0.836,0.5,1.439,0.574,1.811h0.047c0.051-0.199,0.157-0.54,0.319-1.022
		s0.692-1.966,1.591-4.45h1.043l-2.76,7.312c-0.273,0.723-0.593,1.235-0.958,1.538S141.785,28,141.254,28
		c-0.297,0-0.59-0.033-0.879-0.1v-0.779c0.215,0.047,0.455,0.07,0.721,0.07c0.668,0,1.145-0.375,1.43-1.125l0.357-0.914
		L140.293,18.695z"/>
	<path d="M150.995,16.955c0-0.223,0.055-0.386,0.164-0.489s0.246-0.155,0.41-0.155c0.156,0,0.291,0.053,0.404,0.158
		s0.17,0.268,0.17,0.486s-0.057,0.382-0.17,0.489s-0.248,0.161-0.404,0.161c-0.164,0-0.301-0.054-0.41-0.161
		S150.995,17.174,150.995,16.955z M152.05,25.117h-0.973v-6.422h0.973V25.117z"/>
	<path d="M158.807,25.117v-4.154c0-0.523-0.119-0.914-0.357-1.172s-0.611-0.387-1.119-0.387c-0.672,0-1.164,0.182-1.477,0.545
		s-0.469,0.963-0.469,1.799v3.369h-0.973v-6.422h0.791l0.158,0.879h0.047c0.199-0.316,0.479-0.562,0.838-0.735
		s0.76-0.261,1.201-0.261c0.773,0,1.355,0.187,1.746,0.56s0.586,0.97,0.586,1.79v4.189H158.807z"/>
	<path d="M167.333,18.695v0.615l-1.189,0.141c0.109,0.137,0.207,0.315,0.293,0.536s0.129,0.47,0.129,0.747
		c0,0.629-0.215,1.131-0.645,1.506s-1.02,0.562-1.77,0.562c-0.191,0-0.371-0.016-0.539-0.047c-0.414,0.219-0.621,0.494-0.621,0.826
		c0,0.176,0.072,0.306,0.217,0.39s0.393,0.126,0.744,0.126h1.137c0.695,0,1.229,0.146,1.603,0.439s0.56,0.719,0.56,1.277
		c0,0.711-0.285,1.253-0.855,1.626S164.993,28,163.899,28c-0.84,0-1.487-0.156-1.942-0.469s-0.683-0.754-0.683-1.324
		c0-0.391,0.125-0.729,0.375-1.014s0.602-0.479,1.055-0.58c-0.164-0.074-0.302-0.189-0.413-0.346s-0.167-0.338-0.167-0.545
		c0-0.234,0.062-0.439,0.188-0.615s0.322-0.346,0.592-0.51c-0.332-0.137-0.603-0.369-0.812-0.697s-0.313-0.703-0.313-1.125
		c0-0.703,0.211-1.245,0.633-1.626s1.02-0.571,1.793-0.571c0.336,0,0.639,0.039,0.908,0.117H167.333z M162.212,26.195
		c0,0.348,0.146,0.611,0.439,0.791s0.713,0.27,1.26,0.27c0.816,0,1.421-0.122,1.813-0.366s0.589-0.575,0.589-0.993
		c0-0.348-0.107-0.589-0.322-0.724s-0.619-0.202-1.213-0.202h-1.166c-0.441,0-0.785,0.105-1.031,0.316
		S162.212,25.801,162.212,26.195z M162.739,20.752c0,0.449,0.127,0.789,0.381,1.02s0.607,0.346,1.061,0.346
		c0.949,0,1.424-0.461,1.424-1.383c0-0.965-0.48-1.447-1.441-1.447c-0.457,0-0.809,0.123-1.055,0.369S162.739,20.268,162.739,20.752
		z"/>
	<path d="M171.881,18.578c0.285,0,0.541,0.023,0.768,0.07l-0.135,0.902c-0.266-0.059-0.5-0.088-0.703-0.088
		c-0.52,0-0.964,0.211-1.333,0.633s-0.554,0.947-0.554,1.576v3.445h-0.973v-6.422h0.803l0.111,1.189h0.047
		c0.238-0.418,0.525-0.74,0.861-0.967S171.479,18.578,171.881,18.578z"/>
	<path d="M176.863,25.234c-0.949,0-1.698-0.289-2.247-0.867s-0.823-1.381-0.823-2.408c0-1.035,0.255-1.857,0.765-2.467
		s1.194-0.914,2.054-0.914c0.805,0,1.441,0.265,1.91,0.794s0.703,1.228,0.703,2.095v0.615h-4.424c0.02,0.754,0.21,1.326,0.571,1.717
		s0.87,0.586,1.526,0.586c0.691,0,1.375-0.145,2.051-0.434v0.867c-0.344,0.148-0.669,0.255-0.976,0.319
		S177.297,25.234,176.863,25.234z M176.6,19.393c-0.516,0-0.927,0.168-1.233,0.504s-0.487,0.801-0.542,1.395h3.357
		c0-0.613-0.137-1.083-0.41-1.409S177.107,19.393,176.6,19.393z"/>
	<path d="M185.554,24.256h-0.053c-0.449,0.652-1.121,0.979-2.016,0.979c-0.84,0-1.493-0.287-1.96-0.861s-0.7-1.391-0.7-2.449
		s0.234-1.881,0.703-2.467s1.121-0.879,1.957-0.879c0.871,0,1.539,0.316,2.004,0.949h0.076l-0.041-0.463l-0.023-0.451V16h0.973
		v9.117h-0.791L185.554,24.256z M183.608,24.42c0.664,0,1.146-0.181,1.444-0.542s0.448-0.944,0.448-1.749v-0.205
		c0-0.91-0.151-1.56-0.454-1.948s-0.786-0.583-1.45-0.583c-0.57,0-1.007,0.222-1.31,0.665s-0.454,1.069-0.454,1.878
		c0,0.82,0.15,1.439,0.451,1.857S183.026,24.42,183.608,24.42z"/>
	<path d="M188.754,16.955c0-0.223,0.055-0.386,0.164-0.489s0.246-0.155,0.41-0.155c0.156,0,0.291,0.053,0.404,0.158
		s0.17,0.268,0.17,0.486s-0.057,0.382-0.17,0.489s-0.248,0.161-0.404,0.161c-0.164,0-0.301-0.054-0.41-0.161
		S188.754,17.174,188.754,16.955z M189.809,25.117h-0.973v-6.422h0.973V25.117z"/>
	<path d="M194.884,25.234c-0.949,0-1.698-0.289-2.247-0.867s-0.823-1.381-0.823-2.408c0-1.035,0.255-1.857,0.765-2.467
		s1.194-0.914,2.054-0.914c0.805,0,1.441,0.265,1.91,0.794s0.703,1.228,0.703,2.095v0.615h-4.424c0.02,0.754,0.21,1.326,0.571,1.717
		s0.87,0.586,1.526,0.586c0.691,0,1.375-0.145,2.051-0.434v0.867c-0.344,0.148-0.669,0.255-0.976,0.319
		S195.317,25.234,194.884,25.234z M194.62,19.393c-0.516,0-0.927,0.168-1.233,0.504s-0.487,0.801-0.542,1.395h3.357
		c0-0.613-0.137-1.083-0.41-1.409S195.128,19.393,194.62,19.393z"/>
	<path d="M203.598,25.117v-4.154c0-0.523-0.119-0.914-0.357-1.172s-0.611-0.387-1.119-0.387c-0.672,0-1.164,0.182-1.477,0.545
		s-0.469,0.963-0.469,1.799v3.369h-0.973v-6.422h0.791l0.158,0.879h0.047c0.199-0.316,0.479-0.562,0.838-0.735
		s0.76-0.261,1.201-0.261c0.773,0,1.355,0.187,1.746,0.56s0.586,0.97,0.586,1.79v4.189H203.598z"/>
	<path d="M208.943,24.432c0.172,0,0.338-0.013,0.498-0.038s0.287-0.052,0.381-0.079v0.744c-0.105,0.051-0.261,0.093-0.466,0.126
		s-0.39,0.05-0.554,0.05c-1.242,0-1.863-0.654-1.863-1.963v-3.82h-0.92v-0.469l0.92-0.404l0.41-1.371h0.562v1.488h1.863v0.756
		h-1.863v3.779c0,0.387,0.092,0.684,0.275,0.891S208.623,24.432,208.943,24.432z"/>
	<path d="M215.548,23.365c0,0.598-0.223,1.059-0.668,1.383s-1.07,0.486-1.875,0.486c-0.852,0-1.516-0.135-1.992-0.404v-0.902
		c0.309,0.156,0.64,0.279,0.993,0.369s0.694,0.135,1.022,0.135c0.508,0,0.898-0.081,1.172-0.243s0.41-0.409,0.41-0.741
		c0-0.25-0.108-0.464-0.325-0.642s-0.64-0.388-1.269-0.63c-0.598-0.223-1.022-0.417-1.274-0.583s-0.439-0.354-0.562-0.565
		s-0.185-0.463-0.185-0.756c0-0.523,0.213-0.937,0.639-1.239s1.01-0.454,1.752-0.454c0.691,0,1.367,0.141,2.027,0.422l-0.346,0.791
		c-0.645-0.266-1.229-0.398-1.752-0.398c-0.461,0-0.809,0.072-1.043,0.217s-0.352,0.344-0.352,0.598
		c0,0.172,0.044,0.318,0.132,0.439s0.229,0.236,0.425,0.346s0.57,0.268,1.125,0.475c0.762,0.277,1.276,0.557,1.544,0.838
		S215.548,22.939,215.548,23.365z"/>
	<path d="M220.765,16.955c0-0.223,0.055-0.386,0.164-0.489s0.246-0.155,0.41-0.155c0.156,0,0.291,0.053,0.404,0.158
		s0.17,0.268,0.17,0.486s-0.057,0.382-0.17,0.489s-0.248,0.161-0.404,0.161c-0.164,0-0.301-0.054-0.41-0.161
		S220.765,17.174,220.765,16.955z M221.819,25.117h-0.973v-6.422h0.973V25.117z"/>
	<path d="M228.576,25.117v-4.154c0-0.523-0.119-0.914-0.357-1.172s-0.611-0.387-1.119-0.387c-0.672,0-1.164,0.182-1.477,0.545
		s-0.469,0.963-0.469,1.799v3.369h-0.973v-6.422h0.791l0.158,0.879h0.047c0.199-0.316,0.479-0.562,0.838-0.735
		s0.76-0.261,1.201-0.261c0.773,0,1.355,0.187,1.746,0.56s0.586,0.97,0.586,1.79v4.189H228.576z"/>
	<path d="M240.808,21.9c0,1.047-0.264,1.864-0.791,2.452s-1.256,0.882-2.186,0.882c-0.574,0-1.084-0.135-1.529-0.404
		s-0.789-0.656-1.031-1.16s-0.363-1.094-0.363-1.77c0-1.047,0.262-1.862,0.785-2.446s1.25-0.876,2.18-0.876
		c0.898,0,1.612,0.299,2.142,0.896S240.808,20.881,240.808,21.9z M235.915,21.9c0,0.82,0.164,1.445,0.492,1.875
		s0.811,0.645,1.447,0.645s1.12-0.214,1.45-0.642s0.495-1.054,0.495-1.878c0-0.816-0.165-1.437-0.495-1.86s-0.817-0.636-1.462-0.636
		c-0.637,0-1.117,0.209-1.441,0.627S235.915,21.072,235.915,21.9z"/>
	<path d="M243.727,18.695v4.166c0,0.523,0.119,0.914,0.357,1.172s0.611,0.387,1.119,0.387c0.672,0,1.163-0.184,1.474-0.551
		s0.466-0.967,0.466-1.799v-3.375h0.973v6.422h-0.803l-0.141-0.861h-0.053c-0.199,0.316-0.476,0.559-0.829,0.727
		s-0.757,0.252-1.21,0.252c-0.781,0-1.366-0.186-1.755-0.557s-0.583-0.965-0.583-1.781v-4.201H243.727z"/>
	<path d="M253.407,18.578c0.285,0,0.541,0.023,0.768,0.07l-0.135,0.902c-0.266-0.059-0.5-0.088-0.703-0.088
		c-0.52,0-0.964,0.211-1.333,0.633s-0.554,0.947-0.554,1.576v3.445h-0.973v-6.422h0.803l0.111,1.189h0.047
		c0.238-0.418,0.525-0.74,0.861-0.967S253.005,18.578,253.407,18.578z"/>
	<path d="M3.861,41.234c-0.418,0-0.8-0.077-1.146-0.231s-0.636-0.392-0.87-0.712h-0.07c0.047,0.375,0.07,0.73,0.07,1.066V44H0.873
		v-9.305h0.791l0.135,0.879h0.047c0.25-0.352,0.541-0.605,0.873-0.762s0.713-0.234,1.143-0.234c0.852,0,1.509,0.291,1.972,0.873
		S6.527,36.85,6.527,37.9c0,1.055-0.235,1.874-0.706,2.458S4.697,41.234,3.861,41.234z M3.721,35.404
		c-0.656,0-1.131,0.182-1.424,0.545s-0.443,0.941-0.451,1.734V37.9c0,0.902,0.15,1.548,0.451,1.937S3.08,40.42,3.744,40.42
		c0.555,0,0.989-0.225,1.304-0.674s0.472-1.068,0.472-1.857c0-0.801-0.157-1.415-0.472-1.843S4.291,35.404,3.721,35.404z"/>
	<path d="M11.456,34.578c0.285,0,0.541,0.023,0.768,0.07l-0.135,0.902c-0.266-0.059-0.5-0.088-0.703-0.088
		c-0.52,0-0.964,0.211-1.333,0.633s-0.554,0.947-0.554,1.576v3.445H8.526v-6.422h0.803l0.111,1.189h0.047
		c0.238-0.418,0.525-0.74,0.861-0.967S11.054,34.578,11.456,34.578z"/>
	<path d="M19.268,37.9c0,1.047-0.264,1.864-0.791,2.452s-1.256,0.882-2.186,0.882c-0.574,0-1.084-0.135-1.529-0.404
		s-0.789-0.656-1.031-1.16s-0.363-1.094-0.363-1.77c0-1.047,0.262-1.862,0.785-2.446s1.25-0.876,2.18-0.876
		c0.898,0,1.612,0.299,2.142,0.896S19.268,36.881,19.268,37.9z M14.375,37.9c0,0.82,0.164,1.445,0.492,1.875
		s0.811,0.645,1.447,0.645s1.12-0.214,1.45-0.642s0.495-1.054,0.495-1.878c0-0.816-0.165-1.437-0.495-1.86s-0.817-0.636-1.462-0.636
		c-0.637,0-1.117,0.209-1.441,0.627S14.375,37.072,14.375,37.9z"/>
	<path d="M25.645,40.256h-0.053c-0.449,0.652-1.121,0.979-2.016,0.979c-0.84,0-1.493-0.287-1.96-0.861s-0.7-1.391-0.7-2.449
		s0.234-1.881,0.703-2.467s1.121-0.879,1.957-0.879c0.871,0,1.539,0.316,2.004,0.949h0.076l-0.041-0.463l-0.023-0.451V32h0.973
		v9.117h-0.791L25.645,40.256z M23.699,40.42c0.664,0,1.146-0.181,1.444-0.542s0.448-0.944,0.448-1.749v-0.205
		c0-0.91-0.151-1.56-0.454-1.948s-0.786-0.583-1.45-0.583c-0.57,0-1.007,0.222-1.31,0.665s-0.454,1.069-0.454,1.878
		c0,0.82,0.15,1.439,0.451,1.857S23.117,40.42,23.699,40.42z"/>
	<path d="M29.841,34.695v4.166c0,0.523,0.119,0.914,0.357,1.172s0.611,0.387,1.119,0.387c0.672,0,1.163-0.184,1.474-0.551
		s0.466-0.967,0.466-1.799v-3.375h0.973v6.422h-0.803l-0.141-0.861h-0.053c-0.199,0.316-0.476,0.559-0.829,0.727
		s-0.757,0.252-1.21,0.252c-0.781,0-1.366-0.186-1.755-0.557s-0.583-0.965-0.583-1.781v-4.201H29.841z"/>
	<path d="M39.158,41.234c-0.93,0-1.649-0.286-2.159-0.858s-0.765-1.382-0.765-2.429c0-1.074,0.259-1.904,0.776-2.49
		s1.255-0.879,2.212-0.879c0.309,0,0.617,0.033,0.926,0.1s0.551,0.145,0.727,0.234l-0.299,0.826
		c-0.215-0.086-0.449-0.157-0.703-0.214s-0.479-0.085-0.674-0.085c-1.305,0-1.957,0.832-1.957,2.496
		c0,0.789,0.159,1.395,0.478,1.816s0.79,0.633,1.415,0.633c0.535,0,1.084-0.115,1.646-0.346V40.9
		C40.352,41.123,39.811,41.234,39.158,41.234z"/>
	<path d="M44.679,40.432c0.172,0,0.338-0.013,0.498-0.038s0.287-0.052,0.381-0.079v0.744c-0.105,0.051-0.261,0.093-0.466,0.126
		s-0.39,0.05-0.554,0.05c-1.242,0-1.863-0.654-1.863-1.963v-3.82h-0.92v-0.469l0.92-0.404l0.41-1.371h0.562v1.488h1.863v0.756
		h-1.863v3.779c0,0.387,0.092,0.684,0.275,0.891S44.358,40.432,44.679,40.432z"/>
	<path d="M51.283,39.365c0,0.598-0.223,1.059-0.668,1.383s-1.07,0.486-1.875,0.486c-0.852,0-1.516-0.135-1.992-0.404v-0.902
		c0.309,0.156,0.64,0.279,0.993,0.369s0.694,0.135,1.022,0.135c0.508,0,0.898-0.081,1.172-0.243s0.41-0.409,0.41-0.741
		c0-0.25-0.108-0.464-0.325-0.642s-0.64-0.388-1.269-0.63c-0.598-0.223-1.022-0.417-1.274-0.583s-0.439-0.354-0.562-0.565
		s-0.185-0.463-0.185-0.756c0-0.523,0.213-0.937,0.639-1.239s1.01-0.454,1.752-0.454c0.691,0,1.367,0.141,2.027,0.422l-0.346,0.791
		c-0.645-0.266-1.229-0.398-1.752-0.398c-0.461,0-0.809,0.072-1.043,0.217s-0.352,0.344-0.352,0.598
		c0,0.172,0.044,0.318,0.132,0.439s0.229,0.236,0.425,0.346s0.57,0.268,1.125,0.475c0.762,0.277,1.276,0.557,1.544,0.838
		S51.283,38.939,51.283,39.365z"/>
	<path d="M59.149,41.234c-0.93,0-1.649-0.286-2.159-0.858s-0.765-1.382-0.765-2.429c0-1.074,0.259-1.904,0.776-2.49
		s1.255-0.879,2.212-0.879c0.309,0,0.617,0.033,0.926,0.1s0.551,0.145,0.727,0.234l-0.299,0.826
		c-0.215-0.086-0.449-0.157-0.703-0.214s-0.479-0.085-0.674-0.085c-1.305,0-1.957,0.832-1.957,2.496
		c0,0.789,0.159,1.395,0.478,1.816s0.79,0.633,1.415,0.633c0.535,0,1.084-0.115,1.646-0.346V40.9
		C60.343,41.123,59.802,41.234,59.149,41.234z"/>
	<path d="M68.139,37.9c0,1.047-0.264,1.864-0.791,2.452s-1.256,0.882-2.186,0.882c-0.574,0-1.084-0.135-1.529-0.404
		s-0.789-0.656-1.031-1.16s-0.363-1.094-0.363-1.77c0-1.047,0.262-1.862,0.785-2.446s1.25-0.876,2.18-0.876
		c0.898,0,1.612,0.299,2.142,0.896S68.139,36.881,68.139,37.9z M63.246,37.9c0,0.82,0.164,1.445,0.492,1.875
		s0.811,0.645,1.447,0.645s1.12-0.214,1.45-0.642s0.495-1.054,0.495-1.878c0-0.816-0.165-1.437-0.495-1.86s-0.817-0.636-1.462-0.636
		c-0.637,0-1.117,0.209-1.441,0.627S63.246,37.072,63.246,37.9z"/>
	<path d="M78.329,41.117v-4.178c0-0.512-0.109-0.896-0.328-1.151s-0.559-0.384-1.02-0.384c-0.605,0-1.053,0.174-1.342,0.521
		s-0.434,0.883-0.434,1.605v3.586h-0.973v-4.178c0-0.512-0.109-0.896-0.328-1.151s-0.561-0.384-1.025-0.384
		c-0.609,0-1.056,0.183-1.339,0.548s-0.425,0.964-0.425,1.796v3.369h-0.973v-6.422h0.791l0.158,0.879h0.047
		c0.184-0.312,0.442-0.557,0.776-0.732s0.708-0.264,1.122-0.264c1.004,0,1.66,0.363,1.969,1.09h0.047
		c0.191-0.336,0.469-0.602,0.832-0.797s0.777-0.293,1.242-0.293c0.727,0,1.271,0.187,1.632,0.56s0.542,0.97,0.542,1.79v4.189H78.329
		z"/>
	<path d="M84.594,41.234c-0.418,0-0.8-0.077-1.146-0.231s-0.636-0.392-0.87-0.712h-0.07c0.047,0.375,0.07,0.73,0.07,1.066V44h-0.973
		v-9.305h0.791l0.135,0.879h0.047c0.25-0.352,0.541-0.605,0.873-0.762s0.713-0.234,1.143-0.234c0.852,0,1.509,0.291,1.972,0.873
		S87.26,36.85,87.26,37.9c0,1.055-0.235,1.874-0.706,2.458S85.43,41.234,84.594,41.234z M84.453,35.404
		c-0.656,0-1.131,0.182-1.424,0.545s-0.443,0.941-0.451,1.734V37.9c0,0.902,0.15,1.548,0.451,1.937s0.783,0.583,1.447,0.583
		c0.555,0,0.989-0.225,1.304-0.674s0.472-1.068,0.472-1.857c0-0.801-0.157-1.415-0.472-1.843S85.023,35.404,84.453,35.404z"/>
	<path d="M90.232,41.117H89.26V32h0.973V41.117z"/>
	<path d="M92.513,32.955c0-0.223,0.055-0.386,0.164-0.489s0.246-0.155,0.41-0.155c0.156,0,0.291,0.053,0.404,0.158
		s0.17,0.268,0.17,0.486s-0.057,0.382-0.17,0.489s-0.248,0.161-0.404,0.161c-0.164,0-0.301-0.054-0.41-0.161
		S92.513,33.174,92.513,32.955z M93.567,41.117h-0.973v-6.422h0.973V41.117z"/>
	<path d="M104.115,41.117v-4.178c0-0.512-0.109-0.896-0.328-1.151s-0.559-0.384-1.02-0.384c-0.605,0-1.053,0.174-1.342,0.521
		s-0.434,0.883-0.434,1.605v3.586h-0.973v-4.178c0-0.512-0.109-0.896-0.328-1.151s-0.561-0.384-1.025-0.384
		c-0.609,0-1.056,0.183-1.339,0.548s-0.425,0.964-0.425,1.796v3.369H95.93v-6.422h0.791l0.158,0.879h0.047
		c0.184-0.312,0.442-0.557,0.776-0.732s0.708-0.264,1.122-0.264c1.004,0,1.66,0.363,1.969,1.09h0.047
		c0.191-0.336,0.469-0.602,0.832-0.797s0.777-0.293,1.242-0.293c0.727,0,1.271,0.187,1.632,0.56s0.542,0.97,0.542,1.79v4.189
		H104.115z"/>
	<path d="M110.104,41.234c-0.949,0-1.698-0.289-2.247-0.867s-0.823-1.381-0.823-2.408c0-1.035,0.255-1.857,0.765-2.467
		s1.194-0.914,2.054-0.914c0.805,0,1.441,0.265,1.91,0.794s0.703,1.228,0.703,2.095v0.615h-4.424c0.02,0.754,0.21,1.326,0.571,1.717
		s0.87,0.586,1.526,0.586c0.691,0,1.375-0.145,2.051-0.434v0.867c-0.344,0.148-0.669,0.255-0.976,0.319
		S110.538,41.234,110.104,41.234z M109.841,35.393c-0.516,0-0.927,0.168-1.233,0.504s-0.487,0.801-0.542,1.395h3.357
		c0-0.613-0.137-1.083-0.41-1.409S110.349,35.393,109.841,35.393z"/>
	<path d="M118.818,41.117v-4.154c0-0.523-0.119-0.914-0.357-1.172s-0.611-0.387-1.119-0.387c-0.672,0-1.164,0.182-1.477,0.545
		s-0.469,0.963-0.469,1.799v3.369h-0.973v-6.422h0.791l0.158,0.879h0.047c0.199-0.316,0.479-0.562,0.838-0.735
		s0.76-0.261,1.201-0.261c0.773,0,1.355,0.187,1.746,0.56s0.586,0.97,0.586,1.79v4.189H118.818z"/>
	<path d="M124.164,40.432c0.172,0,0.338-0.013,0.498-0.038s0.287-0.052,0.381-0.079v0.744c-0.105,0.051-0.261,0.093-0.466,0.126
		s-0.39,0.05-0.554,0.05c-1.242,0-1.863-0.654-1.863-1.963v-3.82h-0.92v-0.469l0.92-0.404l0.41-1.371h0.562v1.488h1.863v0.756
		h-1.863v3.779c0,0.387,0.092,0.684,0.275,0.891S123.844,40.432,124.164,40.432z"/>
	<path d="M132.756,41.234c-0.949,0-1.698-0.289-2.247-0.867s-0.823-1.381-0.823-2.408c0-1.035,0.255-1.857,0.765-2.467
		s1.194-0.914,2.054-0.914c0.805,0,1.441,0.265,1.91,0.794s0.703,1.228,0.703,2.095v0.615h-4.424c0.02,0.754,0.21,1.326,0.571,1.717
		s0.87,0.586,1.526,0.586c0.691,0,1.375-0.145,2.051-0.434v0.867c-0.344,0.148-0.669,0.255-0.976,0.319
		S133.189,41.234,132.756,41.234z M132.492,35.393c-0.516,0-0.927,0.168-1.233,0.504s-0.487,0.801-0.542,1.395h3.357
		c0-0.613-0.137-1.083-0.41-1.409S133,35.393,132.492,35.393z"/>
	<path d="M141.024,41.117l-0.193-0.914h-0.047c-0.32,0.402-0.64,0.675-0.958,0.817s-0.716,0.214-1.192,0.214
		c-0.637,0-1.136-0.164-1.497-0.492s-0.542-0.795-0.542-1.4c0-1.297,1.037-1.977,3.111-2.039l1.09-0.035v-0.398
		c0-0.504-0.108-0.876-0.325-1.116s-0.563-0.36-1.04-0.36c-0.535,0-1.141,0.164-1.816,0.492l-0.299-0.744
		c0.316-0.172,0.663-0.307,1.04-0.404s0.755-0.146,1.134-0.146c0.766,0,1.333,0.17,1.702,0.51s0.554,0.885,0.554,1.635v4.383
		H141.024z M138.827,40.432c0.605,0,1.081-0.166,1.427-0.498s0.519-0.797,0.519-1.395v-0.58L139.8,38
		c-0.773,0.027-1.331,0.147-1.673,0.36s-0.513,0.544-0.513,0.993c0,0.352,0.106,0.619,0.319,0.803S138.444,40.432,138.827,40.432z"
		/>
	<path d="M146.615,41.234c-0.93,0-1.649-0.286-2.159-0.858s-0.765-1.382-0.765-2.429c0-1.074,0.259-1.904,0.776-2.49
		s1.255-0.879,2.212-0.879c0.309,0,0.617,0.033,0.926,0.1s0.551,0.145,0.727,0.234l-0.299,0.826
		c-0.215-0.086-0.449-0.157-0.703-0.214s-0.479-0.085-0.674-0.085c-1.305,0-1.957,0.832-1.957,2.496
		c0,0.789,0.159,1.395,0.478,1.816s0.79,0.633,1.415,0.633c0.535,0,1.084-0.115,1.646-0.346V40.9
		C147.809,41.123,147.268,41.234,146.615,41.234z"/>
	<path d="M154.457,41.117v-4.154c0-0.523-0.119-0.914-0.357-1.172s-0.611-0.387-1.119-0.387c-0.676,0-1.169,0.184-1.479,0.551
		s-0.466,0.969-0.466,1.805v3.357h-0.973V32h0.973v2.76c0,0.332-0.016,0.607-0.047,0.826h0.059c0.191-0.309,0.464-0.552,0.817-0.729
		s0.757-0.267,1.21-0.267c0.785,0,1.374,0.187,1.767,0.56s0.589,0.966,0.589,1.778v4.189H154.457z"/>
	<path d="M166.688,37.9c0,1.047-0.264,1.864-0.791,2.452s-1.256,0.882-2.186,0.882c-0.574,0-1.084-0.135-1.529-0.404
		s-0.789-0.656-1.031-1.16s-0.363-1.094-0.363-1.77c0-1.047,0.262-1.862,0.785-2.446s1.25-0.876,2.18-0.876
		c0.898,0,1.612,0.299,2.142,0.896S166.688,36.881,166.688,37.9z M161.795,37.9c0,0.82,0.164,1.445,0.492,1.875
		s0.811,0.645,1.447,0.645s1.12-0.214,1.45-0.642s0.495-1.054,0.495-1.878c0-0.816-0.165-1.437-0.495-1.86s-0.817-0.636-1.462-0.636
		c-0.637,0-1.117,0.209-1.441,0.627S161.795,37.072,161.795,37.9z"/>
	<path d="M170.767,40.432c0.172,0,0.338-0.013,0.498-0.038s0.287-0.052,0.381-0.079v0.744c-0.105,0.051-0.261,0.093-0.466,0.126
		s-0.39,0.05-0.554,0.05c-1.242,0-1.863-0.654-1.863-1.963v-3.82h-0.92v-0.469l0.92-0.404l0.41-1.371h0.562v1.488h1.863v0.756
		h-1.863v3.779c0,0.387,0.092,0.684,0.275,0.891S170.446,40.432,170.767,40.432z"/>
	<path d="M177.623,41.117v-4.154c0-0.523-0.119-0.914-0.357-1.172s-0.611-0.387-1.119-0.387c-0.676,0-1.169,0.184-1.479,0.551
		s-0.466,0.969-0.466,1.805v3.357h-0.973V32h0.973v2.76c0,0.332-0.016,0.607-0.047,0.826h0.059c0.191-0.309,0.464-0.552,0.817-0.729
		s0.757-0.267,1.21-0.267c0.785,0,1.374,0.187,1.767,0.56s0.589,0.966,0.589,1.778v4.189H177.623z"/>
	<path d="M183.607,41.234c-0.949,0-1.698-0.289-2.247-0.867s-0.823-1.381-0.823-2.408c0-1.035,0.255-1.857,0.765-2.467
		s1.194-0.914,2.054-0.914c0.805,0,1.441,0.265,1.91,0.794s0.703,1.228,0.703,2.095v0.615h-4.424c0.02,0.754,0.21,1.326,0.571,1.717
		s0.87,0.586,1.526,0.586c0.691,0,1.375-0.145,2.051-0.434v0.867c-0.344,0.148-0.669,0.255-0.976,0.319
		S184.041,41.234,183.607,41.234z M183.344,35.393c-0.516,0-0.927,0.168-1.233,0.504s-0.487,0.801-0.542,1.395h3.357
		c0-0.613-0.137-1.083-0.41-1.409S183.852,35.393,183.344,35.393z"/>
	<path d="M190.856,34.578c0.285,0,0.541,0.023,0.768,0.07l-0.135,0.902c-0.266-0.059-0.5-0.088-0.703-0.088
		c-0.52,0-0.964,0.211-1.333,0.633s-0.554,0.947-0.554,1.576v3.445h-0.973v-6.422h0.803l0.111,1.189h0.047
		c0.238-0.418,0.525-0.74,0.861-0.967S190.454,34.578,190.856,34.578z"/>
	<path d="M199.53,41.234c-0.418,0-0.8-0.077-1.146-0.231s-0.636-0.392-0.87-0.712h-0.07c0.047,0.375,0.07,0.73,0.07,1.066V44h-0.973
		v-9.305h0.791l0.135,0.879h0.047c0.25-0.352,0.541-0.605,0.873-0.762s0.713-0.234,1.143-0.234c0.852,0,1.509,0.291,1.972,0.873
		s0.694,1.398,0.694,2.449c0,1.055-0.235,1.874-0.706,2.458S200.366,41.234,199.53,41.234z M199.39,35.404
		c-0.656,0-1.131,0.182-1.424,0.545s-0.443,0.941-0.451,1.734V37.9c0,0.902,0.15,1.548,0.451,1.937s0.783,0.583,1.447,0.583
		c0.555,0,0.989-0.225,1.304-0.674s0.472-1.068,0.472-1.857c0-0.801-0.157-1.415-0.472-1.843S199.96,35.404,199.39,35.404z"/>
	<path d="M206.908,41.234c-0.949,0-1.698-0.289-2.247-0.867s-0.823-1.381-0.823-2.408c0-1.035,0.255-1.857,0.765-2.467
		s1.194-0.914,2.054-0.914c0.805,0,1.441,0.265,1.91,0.794s0.703,1.228,0.703,2.095v0.615h-4.424c0.02,0.754,0.21,1.326,0.571,1.717
		s0.87,0.586,1.526,0.586c0.691,0,1.375-0.145,2.051-0.434v0.867c-0.344,0.148-0.669,0.255-0.976,0.319
		S207.342,41.234,206.908,41.234z M206.645,35.393c-0.516,0-0.927,0.168-1.233,0.504s-0.487,0.801-0.542,1.395h3.357
		c0-0.613-0.137-1.083-0.41-1.409S207.152,35.393,206.645,35.393z"/>
	<path d="M214.158,34.578c0.285,0,0.541,0.023,0.768,0.07l-0.135,0.902c-0.266-0.059-0.5-0.088-0.703-0.088
		c-0.52,0-0.964,0.211-1.333,0.633s-0.554,0.947-0.554,1.576v3.445h-0.973v-6.422h0.803l0.111,1.189h0.047
		c0.238-0.418,0.525-0.74,0.861-0.967S213.756,34.578,214.158,34.578z"/>
	<path d="M219.321,35.451h-1.635v5.666h-0.973v-5.666h-1.148v-0.439l1.148-0.352v-0.357c0-1.578,0.689-2.367,2.068-2.367
		c0.34,0,0.738,0.068,1.195,0.205l-0.252,0.779c-0.375-0.121-0.695-0.182-0.961-0.182c-0.367,0-0.639,0.122-0.814,0.366
		s-0.264,0.636-0.264,1.175v0.416h1.635V35.451z"/>
	<path d="M223.506,41.234c-0.949,0-1.698-0.289-2.247-0.867s-0.823-1.381-0.823-2.408c0-1.035,0.255-1.857,0.765-2.467
		s1.194-0.914,2.054-0.914c0.805,0,1.441,0.265,1.91,0.794s0.703,1.228,0.703,2.095v0.615h-4.424c0.02,0.754,0.21,1.326,0.571,1.717
		s0.87,0.586,1.526,0.586c0.691,0,1.375-0.145,2.051-0.434v0.867c-0.344,0.148-0.669,0.255-0.976,0.319
		S223.939,41.234,223.506,41.234z M223.242,35.393c-0.516,0-0.927,0.168-1.233,0.504s-0.487,0.801-0.542,1.395h3.357
		c0-0.613-0.137-1.083-0.41-1.409S223.75,35.393,223.242,35.393z"/>
	<path d="M230.392,41.234c-0.93,0-1.649-0.286-2.159-0.858s-0.765-1.382-0.765-2.429c0-1.074,0.259-1.904,0.776-2.49
		s1.255-0.879,2.212-0.879c0.309,0,0.617,0.033,0.926,0.1s0.551,0.145,0.727,0.234l-0.299,0.826
		c-0.215-0.086-0.449-0.157-0.703-0.214s-0.479-0.085-0.674-0.085c-1.305,0-1.957,0.832-1.957,2.496
		c0,0.789,0.159,1.395,0.478,1.816s0.79,0.633,1.415,0.633c0.535,0,1.084-0.115,1.646-0.346V40.9
		C231.585,41.123,231.044,41.234,230.392,41.234z"/>
	<path d="M235.912,40.432c0.172,0,0.338-0.013,0.498-0.038s0.287-0.052,0.381-0.079v0.744c-0.105,0.051-0.261,0.093-0.466,0.126
		s-0.39,0.05-0.554,0.05c-1.242,0-1.863-0.654-1.863-1.963v-3.82h-0.92v-0.469l0.92-0.404l0.41-1.371h0.562v1.488h1.863v0.756
		h-1.863v3.779c0,0.387,0.092,0.684,0.275,0.891S235.592,40.432,235.912,40.432z"/>
	<path d="M239.348,41.117h-0.973V32h0.973V41.117z"/>
	<path d="M240.69,34.695h1.043l1.406,3.662c0.309,0.836,0.5,1.439,0.574,1.811h0.047c0.051-0.199,0.157-0.54,0.319-1.022
		s0.692-1.966,1.591-4.45h1.043l-2.76,7.312c-0.273,0.723-0.593,1.235-0.958,1.538S242.183,44,241.651,44
		c-0.297,0-0.59-0.033-0.879-0.1v-0.779c0.215,0.047,0.455,0.07,0.721,0.07c0.668,0,1.145-0.375,1.43-1.125l0.357-0.914
		L240.69,34.695z"/>
	<path d="M247.916,40.496c0-0.262,0.06-0.46,0.179-0.595s0.29-0.202,0.513-0.202c0.227,0,0.403,0.067,0.53,0.202
		s0.19,0.333,0.19,0.595c0,0.254-0.064,0.449-0.193,0.586s-0.305,0.205-0.527,0.205c-0.199,0-0.364-0.062-0.495-0.185
		S247.916,40.777,247.916,40.496z"/>
</g>
</svg>