<!-- Generator: Adobe Illustrator 21.0.0, SVG Export Plug-In  -->
<svg version="1.1"
	 xmlns="http://www.w3.org/2000/svg" xmlns:xlink="http://www.w3.org/1999/xlink" xmlns:a="http://ns.adobe.com/AdobeSVGViewerExtensions/3.0/"
	 x="0px" y="0px" width="392.896px" height="26.578px" viewBox="0 0 392.896 26.578"
	 style="enable-background:new 0 0 392.896 26.578;" xml:space="preserve">
<defs>
</defs>
<g>
	<path d="M28.266,26.104h-6.205l-3.48-13.5c-0.129-0.48-0.349-1.474-0.659-2.979s-0.489-2.517-0.536-3.032
		c-0.07,0.633-0.246,1.649-0.527,3.05s-0.498,2.399-0.65,2.997l-3.463,13.465H6.557L0,0.404h5.361l3.287,14.027
		c0.574,2.59,0.99,4.834,1.248,6.732c0.07-0.668,0.231-1.702,0.483-3.103s0.489-2.487,0.712-3.261l3.744-14.396h5.15l3.744,14.396
		c0.164,0.645,0.369,1.629,0.615,2.953s0.434,2.461,0.562,3.41c0.117-0.914,0.305-2.054,0.562-3.419s0.492-2.47,0.703-3.313
		l3.27-14.027h5.361L28.266,26.104z"/>
	<path d="M60.897,26.104h-5.432V15.012H45.288v11.092h-5.449V0.404h5.449v10.072h10.178V0.404h5.432V26.104z"/>
	<path d="M84.916,26.104l-1.863-6.117h-9.369l-1.863,6.117h-5.871l9.07-25.805h6.662l9.105,25.805H84.916z M81.752,15.416
		c-1.723-5.543-2.692-8.678-2.909-9.404s-0.372-1.301-0.466-1.723c-0.387,1.5-1.494,5.209-3.322,11.127H81.752z"/>
	<path d="M105.736,26.104h-5.449V4.939h-6.979V0.404h19.406v4.535h-6.979V26.104z"/>
	<path d="M122.372,0.404l0.246,0.387c-0.586,2.309-1.617,5.115-3.094,8.42h-3.85c0.809-3.469,1.395-6.404,1.758-8.807H122.372z"/>
	<path d="M143.244,18.967c0,2.32-0.835,4.148-2.505,5.484s-3.993,2.004-6.97,2.004c-2.742,0-5.168-0.516-7.277-1.547v-5.062
		c1.734,0.773,3.202,1.318,4.403,1.635s2.3,0.475,3.296,0.475c1.195,0,2.112-0.229,2.751-0.686s0.958-1.137,0.958-2.039
		c0-0.504-0.141-0.952-0.422-1.345s-0.694-0.771-1.239-1.134s-1.655-0.943-3.331-1.74c-1.57-0.738-2.748-1.447-3.533-2.127
		s-1.412-1.471-1.881-2.373s-0.703-1.957-0.703-3.164c0-2.273,0.771-4.061,2.312-5.361s3.671-1.951,6.39-1.951
		c1.336,0,2.61,0.158,3.823,0.475s2.481,0.762,3.806,1.336l-1.758,4.236c-1.371-0.562-2.505-0.955-3.401-1.178
		s-1.778-0.334-2.646-0.334c-1.031,0-1.822,0.24-2.373,0.721s-0.826,1.107-0.826,1.881c0,0.48,0.111,0.899,0.334,1.257
		s0.577,0.703,1.063,1.037s1.638,0.935,3.454,1.802c2.402,1.148,4.049,2.3,4.939,3.454S143.244,17.291,143.244,18.967z"/>
	<path d="M176.586,26.104l-1.863-6.117h-9.369l-1.863,6.117h-5.871l9.07-25.805h6.662l9.105,25.805H176.586z M173.422,15.416
		c-1.723-5.543-2.692-8.678-2.909-9.404s-0.372-1.301-0.466-1.723c-0.387,1.5-1.494,5.209-3.322,11.127H173.422z"/>
	<path d="M198.644,0.404h7.998c3.645,0,6.29,0.519,7.937,1.556s2.47,2.687,2.47,4.948c0,1.535-0.36,2.795-1.081,3.779
		s-1.679,1.576-2.874,1.775v0.176c1.629,0.363,2.804,1.043,3.524,2.039s1.081,2.32,1.081,3.973c0,2.344-0.847,4.172-2.54,5.484
		s-3.993,1.969-6.899,1.969h-9.615V0.404z M204.093,10.582h3.164c1.477,0,2.546-0.229,3.208-0.686s0.993-1.213,0.993-2.268
		c0-0.984-0.36-1.69-1.081-2.118s-1.86-0.642-3.419-0.642h-2.865V10.582z M204.093,14.906v6.697h3.551
		c1.5,0,2.607-0.287,3.322-0.861s1.072-1.453,1.072-2.637c0-2.133-1.523-3.199-4.57-3.199H204.093z"/>
	<path d="M224.631,26.104V0.404h5.449v25.699H224.631z"/>
	<path d="M261.147,26.104h-6.926l-11.18-19.441h-0.158c0.223,3.434,0.334,5.883,0.334,7.348v12.094h-4.869V0.404h6.873
		l11.162,19.248h0.123c-0.176-3.34-0.264-5.701-0.264-7.084V0.404h4.904V26.104z"/>
	<path d="M279.172,11.672h10.195v13.324c-1.652,0.539-3.208,0.917-4.667,1.134s-2.95,0.325-4.474,0.325
		c-3.879,0-6.841-1.14-8.886-3.419s-3.067-5.552-3.067-9.817c0-4.148,1.187-7.383,3.56-9.703s5.663-3.48,9.87-3.48
		c2.637,0,5.18,0.527,7.629,1.582l-1.811,4.359c-1.875-0.938-3.826-1.406-5.854-1.406c-2.355,0-4.242,0.791-5.66,2.373
		s-2.127,3.709-2.127,6.381c0,2.789,0.571,4.919,1.714,6.39s2.804,2.206,4.983,2.206c1.137,0,2.291-0.117,3.463-0.352v-5.361h-4.869
		V11.672z"/>
	<path d="M312.455,18.967c0,2.32-0.835,4.148-2.505,5.484s-3.993,2.004-6.97,2.004c-2.742,0-5.168-0.516-7.277-1.547v-5.062
		c1.734,0.773,3.202,1.318,4.403,1.635s2.3,0.475,3.296,0.475c1.195,0,2.112-0.229,2.751-0.686s0.958-1.137,0.958-2.039
		c0-0.504-0.141-0.952-0.422-1.345s-0.694-0.771-1.239-1.134s-1.655-0.943-3.331-1.74c-1.57-0.738-2.748-1.447-3.533-2.127
		s-1.412-1.471-1.881-2.373s-0.703-1.957-0.703-3.164c0-2.273,0.771-4.061,2.312-5.361s3.671-1.951,6.39-1.951
		c1.336,0,2.61,0.158,3.823,0.475s2.481,0.762,3.806,1.336l-1.758,4.236c-1.371-0.562-2.505-0.955-3.401-1.178
		s-1.778-0.334-2.646-0.334c-1.031,0-1.822,0.24-2.373,0.721s-0.826,1.107-0.826,1.881c0,0.48,0.111,0.899,0.334,1.257
		s0.577,0.703,1.063,1.037s1.638,0.935,3.454,1.802c2.402,1.148,4.049,2.3,4.939,3.454S312.455,17.291,312.455,18.967z"/>
	<path d="M342.239,13.219c0,4.254-1.055,7.523-3.164,9.809s-5.133,3.428-9.07,3.428s-6.961-1.143-9.07-3.428
		s-3.164-5.566-3.164-9.844s1.058-7.544,3.173-9.8S326.091,0,330.04,0s6.97,1.137,9.062,3.41S342.239,8.953,342.239,13.219z
		 M323.483,13.219c0,2.871,0.545,5.033,1.635,6.486s2.719,2.18,4.887,2.18c4.348,0,6.521-2.889,6.521-8.666
		c0-5.789-2.162-8.684-6.486-8.684c-2.168,0-3.803,0.729-4.904,2.188S323.483,10.348,323.483,13.219z"/>
	<path d="M372.691,13.219c0,4.254-1.055,7.523-3.164,9.809s-5.133,3.428-9.07,3.428s-6.961-1.143-9.07-3.428
		s-3.164-5.566-3.164-9.844s1.058-7.544,3.173-9.8S356.543,0,360.492,0s6.97,1.137,9.062,3.41S372.691,8.953,372.691,13.219z
		 M353.936,13.219c0,2.871,0.545,5.033,1.635,6.486s2.719,2.18,4.887,2.18c4.348,0,6.521-2.889,6.521-8.666
		c0-5.789-2.162-8.684-6.486-8.684c-2.168,0-3.803,0.729-4.904,2.188S353.936,10.348,353.936,13.219z"/>
	<path d="M381.435,17.578v-1.301c0-1.125,0.24-2.104,0.721-2.936s1.359-1.717,2.637-2.654c1.23-0.879,2.042-1.594,2.435-2.145
		s0.589-1.166,0.589-1.846c0-0.762-0.281-1.342-0.844-1.74s-1.348-0.598-2.355-0.598c-1.758,0-3.762,0.574-6.012,1.723l-1.916-3.85
		c2.613-1.465,5.385-2.197,8.314-2.197c2.414,0,4.333,0.58,5.757,1.74s2.136,2.707,2.136,4.641c0,1.289-0.293,2.402-0.879,3.34
		s-1.699,1.992-3.34,3.164c-1.125,0.832-1.837,1.465-2.136,1.898s-0.448,1.002-0.448,1.705v1.055H381.435z M380.872,23.59
		c0-0.984,0.264-1.729,0.791-2.232s1.295-0.756,2.303-0.756c0.973,0,1.726,0.258,2.259,0.773s0.8,1.254,0.8,2.215
		c0,0.926-0.27,1.655-0.809,2.188s-1.289,0.8-2.25,0.8c-0.984,0-1.746-0.261-2.285-0.782S380.872,24.539,380.872,23.59z"/>
</g>
</svg>