<!-- Generator: Adobe Illustrator 21.0.0, SVG Export Plug-In  -->
<svg version="1.1"
	 xmlns="http://www.w3.org/2000/svg" xmlns:xlink="http://www.w3.org/1999/xlink" xmlns:a="http://ns.adobe.com/AdobeSVGViewerExtensions/3.0/"
	 x="0px" y="0px" width="216.871px" height="28px" viewBox="0 0 216.871 28" style="enable-background:new 0 0 216.871 28;"
	 xml:space="preserve">
<defs>
</defs>
<g>
	<path d="M8.496,9.117H7.512L5.783,3.381C5.701,3.127,5.609,2.807,5.508,2.42S5.354,1.801,5.35,1.723
		c-0.086,0.516-0.223,1.08-0.41,1.693L3.264,9.117H2.279L0,0.551h1.055l1.354,5.291c0.188,0.742,0.324,1.414,0.41,2.016
		C2.924,7.143,3.08,6.443,3.287,5.76l1.535-5.209h1.055l1.611,5.256c0.188,0.605,0.346,1.289,0.475,2.051
		c0.074-0.555,0.215-1.23,0.422-2.027l1.348-5.279h1.055L8.496,9.117z"/>
	<path d="M14.995,9.234c-0.949,0-1.698-0.289-2.247-0.867s-0.823-1.381-0.823-2.408c0-1.035,0.255-1.857,0.765-2.467
		s1.194-0.914,2.054-0.914c0.805,0,1.441,0.266,1.91,0.795s0.703,1.227,0.703,2.094v0.615h-4.424c0.02,0.754,0.21,1.326,0.571,1.717
		s0.87,0.586,1.526,0.586c0.691,0,1.375-0.145,2.051-0.434v0.867c-0.344,0.148-0.669,0.256-0.976,0.32S15.429,9.234,14.995,9.234z
		 M14.731,3.393c-0.516,0-0.927,0.168-1.233,0.504s-0.487,0.801-0.542,1.395h3.357c0-0.613-0.137-1.082-0.41-1.408
		S15.239,3.393,14.731,3.393z"/>
	<path d="M28.275,5.9c0,1.047-0.264,1.865-0.791,2.453s-1.256,0.881-2.186,0.881c-0.574,0-1.084-0.135-1.529-0.404
		s-0.789-0.656-1.031-1.16s-0.363-1.094-0.363-1.77c0-1.047,0.262-1.861,0.785-2.445s1.25-0.877,2.18-0.877
		c0.898,0,1.612,0.299,2.142,0.896S28.275,4.881,28.275,5.9z M23.383,5.9c0,0.82,0.164,1.445,0.492,1.875s0.811,0.645,1.447,0.645
		s1.12-0.213,1.45-0.641s0.495-1.055,0.495-1.879c0-0.816-0.165-1.436-0.495-1.859s-0.817-0.637-1.462-0.637
		c-0.637,0-1.117,0.209-1.441,0.627S23.383,5.072,23.383,5.9z"/>
	<path d="M34.675,9.117V4.963c0-0.523-0.119-0.914-0.357-1.172s-0.611-0.387-1.119-0.387c-0.672,0-1.164,0.182-1.477,0.545
		s-0.469,0.963-0.469,1.799v3.369H30.28V2.695h0.791l0.158,0.879h0.047c0.199-0.316,0.479-0.561,0.838-0.734s0.76-0.262,1.201-0.262
		c0.773,0,1.355,0.188,1.746,0.561s0.586,0.969,0.586,1.789v4.189H34.675z"/>
	<path d="M38.918,9.117h-0.973V0h0.973V9.117z"/>
	<path d="M40.261,2.695h1.043l1.406,3.662c0.309,0.836,0.5,1.439,0.574,1.811h0.047c0.051-0.199,0.157-0.539,0.319-1.021
		s0.692-1.967,1.591-4.451h1.043l-2.76,7.312c-0.273,0.723-0.593,1.236-0.958,1.539S41.753,12,41.222,12
		c-0.297,0-0.59-0.033-0.879-0.1v-0.779c0.215,0.047,0.455,0.07,0.721,0.07c0.668,0,1.145-0.375,1.43-1.125l0.357-0.914
		L40.261,2.695z"/>
	<path d="M51.959,2.695v4.166c0,0.523,0.119,0.914,0.357,1.172s0.611,0.387,1.119,0.387c0.672,0,1.163-0.184,1.474-0.551
		s0.466-0.967,0.466-1.799V2.695h0.973v6.422h-0.803l-0.141-0.861h-0.053c-0.199,0.316-0.476,0.559-0.829,0.727
		s-0.757,0.252-1.21,0.252c-0.781,0-1.366-0.186-1.755-0.557s-0.583-0.965-0.583-1.781V2.695H51.959z"/>
	<path d="M62.853,7.365c0,0.598-0.223,1.059-0.668,1.383s-1.07,0.486-1.875,0.486c-0.852,0-1.516-0.135-1.992-0.404V7.928
		c0.309,0.156,0.64,0.279,0.993,0.369s0.694,0.135,1.022,0.135c0.508,0,0.898-0.08,1.172-0.242s0.41-0.41,0.41-0.742
		c0-0.25-0.108-0.463-0.325-0.641s-0.64-0.389-1.269-0.631c-0.598-0.223-1.022-0.416-1.274-0.582s-0.439-0.355-0.562-0.566
		S58.3,4.564,58.3,4.271c0-0.523,0.213-0.936,0.639-1.238s1.01-0.455,1.752-0.455c0.691,0,1.367,0.141,2.027,0.422l-0.346,0.791
		c-0.645-0.266-1.229-0.398-1.752-0.398c-0.461,0-0.809,0.072-1.043,0.217s-0.352,0.344-0.352,0.598
		c0,0.172,0.044,0.318,0.132,0.439s0.229,0.236,0.425,0.346s0.57,0.268,1.125,0.475c0.762,0.277,1.276,0.557,1.544,0.838
		S62.853,6.939,62.853,7.365z"/>
	<path d="M67.447,9.234c-0.949,0-1.698-0.289-2.247-0.867s-0.823-1.381-0.823-2.408c0-1.035,0.255-1.857,0.765-2.467
		s1.194-0.914,2.054-0.914c0.805,0,1.441,0.266,1.91,0.795s0.703,1.227,0.703,2.094v0.615h-4.424c0.02,0.754,0.21,1.326,0.571,1.717
		s0.87,0.586,1.526,0.586c0.691,0,1.375-0.145,2.051-0.434v0.867c-0.344,0.148-0.669,0.256-0.976,0.32S67.881,9.234,67.447,9.234z
		 M67.184,3.393c-0.516,0-0.927,0.168-1.233,0.504s-0.487,0.801-0.542,1.395h3.357c0-0.613-0.137-1.082-0.41-1.408
		S67.691,3.393,67.184,3.393z"/>
	<path d="M78.342,9.117h-0.949V3.012c0-0.508,0.016-0.988,0.047-1.441c-0.082,0.082-0.174,0.168-0.275,0.258
		s-0.566,0.471-1.395,1.143l-0.516-0.668l2.268-1.752h0.82V9.117z"/>
	<path d="M87.578,4.822c0,1.48-0.233,2.586-0.7,3.316s-1.181,1.096-2.142,1.096c-0.922,0-1.623-0.373-2.104-1.121
		s-0.721-1.846-0.721-3.291c0-1.492,0.232-2.6,0.697-3.322s1.174-1.084,2.127-1.084c0.93,0,1.636,0.377,2.118,1.131
		S87.578,3.393,87.578,4.822z M82.896,4.822c0,1.246,0.146,2.154,0.439,2.723s0.76,0.852,1.4,0.852c0.648,0,1.118-0.287,1.409-0.863
		s0.437-1.48,0.437-2.711s-0.146-2.131-0.437-2.703S85.385,1.26,84.736,1.26c-0.641,0-1.107,0.283-1.4,0.848
		S82.896,3.576,82.896,4.822z"/>
	<path d="M94.739,4.822c0,1.48-0.233,2.586-0.7,3.316s-1.181,1.096-2.142,1.096c-0.922,0-1.623-0.373-2.104-1.121
		s-0.721-1.846-0.721-3.291c0-1.492,0.232-2.6,0.697-3.322s1.174-1.084,2.127-1.084c0.93,0,1.636,0.377,2.118,1.131
		S94.739,3.393,94.739,4.822z M90.058,4.822c0,1.246,0.146,2.154,0.439,2.723s0.76,0.852,1.4,0.852c0.648,0,1.118-0.287,1.409-0.863
		s0.437-1.48,0.437-2.711s-0.146-2.131-0.437-2.703S92.546,1.26,91.897,1.26c-0.641,0-1.107,0.283-1.4,0.848
		S90.058,3.576,90.058,4.822z"/>
	<path d="M99.738,3.105c0,0.891-0.149,1.564-0.448,2.02s-0.737,0.682-1.315,0.682c-0.547,0-0.972-0.232-1.274-0.697
		s-0.454-1.133-0.454-2.004c0-0.887,0.146-1.555,0.437-2.004s0.722-0.674,1.292-0.674c0.566,0,1.002,0.232,1.307,0.697
		S99.738,2.25,99.738,3.105z M97.055,3.105c0,0.664,0.072,1.162,0.217,1.494s0.379,0.498,0.703,0.498
		c0.641,0,0.961-0.664,0.961-1.992c0-1.32-0.32-1.98-0.961-1.98c-0.324,0-0.559,0.164-0.703,0.492S97.055,2.441,97.055,3.105z
		 M103.389,0.551l-4.752,8.566h-0.861l4.752-8.566H103.389z M104.9,6.539c0,0.887-0.149,1.559-0.448,2.014s-0.737,0.682-1.315,0.682
		c-0.555,0-0.981-0.232-1.28-0.697s-0.448-1.131-0.448-1.998c0-0.887,0.146-1.555,0.437-2.004s0.722-0.674,1.292-0.674
		c0.555,0,0.987,0.23,1.298,0.689S104.9,5.672,104.9,6.539z M102.211,6.539c0,0.668,0.072,1.168,0.217,1.498
		s0.381,0.494,0.709,0.494s0.57-0.162,0.727-0.488s0.234-0.828,0.234-1.504c0-0.668-0.078-1.162-0.234-1.484
		s-0.398-0.484-0.727-0.484s-0.564,0.162-0.709,0.484S102.211,5.871,102.211,6.539z"/>
	<path d="M114.078,1.318c-0.941,0-1.685,0.314-2.229,0.941s-0.817,1.484-0.817,2.574c0,1.121,0.263,1.988,0.788,2.6
		s1.274,0.916,2.247,0.916c0.598,0,1.279-0.107,2.045-0.322V8.9c-0.594,0.223-1.326,0.334-2.197,0.334
		c-1.262,0-2.235-0.383-2.921-1.148s-1.028-1.854-1.028-3.264c0-0.883,0.165-1.656,0.495-2.32s0.807-1.176,1.43-1.535
		s1.356-0.539,2.2-0.539c0.898,0,1.684,0.164,2.355,0.492l-0.422,0.855C115.375,1.471,114.727,1.318,114.078,1.318z"/>
	<path d="M122.084,9.117l-0.193-0.914h-0.047c-0.32,0.402-0.64,0.676-0.958,0.818s-0.716,0.213-1.192,0.213
		c-0.637,0-1.136-0.164-1.497-0.492s-0.542-0.795-0.542-1.4c0-1.297,1.037-1.977,3.111-2.039l1.09-0.035V4.869
		c0-0.504-0.108-0.875-0.325-1.115s-0.563-0.361-1.04-0.361c-0.535,0-1.141,0.164-1.816,0.492l-0.299-0.744
		c0.316-0.172,0.663-0.307,1.04-0.404s0.755-0.146,1.134-0.146c0.766,0,1.333,0.17,1.702,0.51s0.554,0.885,0.554,1.635v4.383
		H122.084z M119.887,8.432c0.605,0,1.081-0.166,1.427-0.498s0.519-0.797,0.519-1.395v-0.58L120.859,6
		c-0.773,0.027-1.331,0.148-1.673,0.361s-0.513,0.543-0.513,0.992c0,0.352,0.106,0.619,0.319,0.803S119.504,8.432,119.887,8.432z"/>
	<path d="M129.503,9.117V4.963c0-0.523-0.119-0.914-0.357-1.172s-0.611-0.387-1.119-0.387c-0.672,0-1.164,0.182-1.477,0.545
		s-0.469,0.963-0.469,1.799v3.369h-0.973V2.695h0.791l0.158,0.879h0.047c0.199-0.316,0.479-0.561,0.838-0.734
		s0.76-0.262,1.201-0.262c0.773,0,1.355,0.188,1.746,0.561s0.586,0.969,0.586,1.789v4.189H129.503z"/>
	<path d="M136.723,9.117l-0.193-0.914h-0.047c-0.32,0.402-0.64,0.676-0.958,0.818s-0.716,0.213-1.192,0.213
		c-0.637,0-1.136-0.164-1.497-0.492s-0.542-0.795-0.542-1.4c0-1.297,1.037-1.977,3.111-2.039l1.09-0.035V4.869
		c0-0.504-0.108-0.875-0.325-1.115s-0.563-0.361-1.04-0.361c-0.535,0-1.141,0.164-1.816,0.492l-0.299-0.744
		c0.316-0.172,0.663-0.307,1.04-0.404s0.755-0.146,1.134-0.146c0.766,0,1.333,0.17,1.702,0.51s0.554,0.885,0.554,1.635v4.383
		H136.723z M134.525,8.432c0.605,0,1.081-0.166,1.427-0.498s0.519-0.797,0.519-1.395v-0.58L135.498,6
		c-0.773,0.027-1.331,0.148-1.673,0.361s-0.513,0.543-0.513,0.992c0,0.352,0.106,0.619,0.319,0.803S134.143,8.432,134.525,8.432z"/>
	<path d="M144.118,8.256h-0.053c-0.449,0.652-1.121,0.979-2.016,0.979c-0.84,0-1.493-0.287-1.96-0.861s-0.7-1.391-0.7-2.449
		s0.234-1.881,0.703-2.467s1.121-0.879,1.957-0.879c0.871,0,1.539,0.316,2.004,0.949h0.076l-0.041-0.463l-0.023-0.451V0h0.973v9.117
		h-0.791L144.118,8.256z M142.173,8.42c0.664,0,1.146-0.18,1.444-0.541s0.448-0.945,0.448-1.75V5.924
		c0-0.91-0.151-1.559-0.454-1.947s-0.786-0.584-1.45-0.584c-0.57,0-1.007,0.223-1.31,0.666s-0.454,1.068-0.454,1.877
		c0,0.82,0.15,1.439,0.451,1.857S141.591,8.42,142.173,8.42z"/>
	<path d="M147.318,0.955c0-0.223,0.055-0.385,0.164-0.488s0.246-0.156,0.41-0.156c0.156,0,0.291,0.053,0.404,0.158
		s0.17,0.268,0.17,0.486s-0.057,0.383-0.17,0.49s-0.248,0.16-0.404,0.16c-0.164,0-0.301-0.053-0.41-0.16
		S147.318,1.174,147.318,0.955z M148.373,9.117H147.4V2.695h0.973V9.117z"/>
	<path d="M154.686,9.117l-0.193-0.914h-0.047c-0.32,0.402-0.64,0.676-0.958,0.818s-0.716,0.213-1.192,0.213
		c-0.637,0-1.136-0.164-1.497-0.492s-0.542-0.795-0.542-1.4c0-1.297,1.037-1.977,3.111-2.039l1.09-0.035V4.869
		c0-0.504-0.108-0.875-0.325-1.115s-0.563-0.361-1.04-0.361c-0.535,0-1.141,0.164-1.816,0.492l-0.299-0.744
		c0.316-0.172,0.663-0.307,1.04-0.404s0.755-0.146,1.134-0.146c0.766,0,1.333,0.17,1.702,0.51s0.554,0.885,0.554,1.635v4.383
		H154.686z M152.488,8.432c0.605,0,1.081-0.166,1.427-0.498s0.519-0.797,0.519-1.395v-0.58L153.461,6
		c-0.773,0.027-1.331,0.148-1.673,0.361s-0.513,0.543-0.513,0.992c0,0.352,0.106,0.619,0.319,0.803S152.105,8.432,152.488,8.432z"/>
	<path d="M162.104,9.117V4.963c0-0.523-0.119-0.914-0.357-1.172s-0.611-0.387-1.119-0.387c-0.672,0-1.164,0.182-1.477,0.545
		s-0.469,0.963-0.469,1.799v3.369h-0.973V2.695h0.791l0.158,0.879h0.047c0.199-0.316,0.479-0.561,0.838-0.734
		s0.76-0.262,1.201-0.262c0.773,0,1.355,0.188,1.746,0.561s0.586,0.969,0.586,1.789v4.189H162.104z"/>
	<path d="M176.978,9.117V4.939c0-0.512-0.109-0.895-0.328-1.15s-0.559-0.385-1.02-0.385c-0.605,0-1.053,0.174-1.342,0.521
		s-0.434,0.883-0.434,1.605v3.586h-0.973V4.939c0-0.512-0.109-0.895-0.328-1.15s-0.561-0.385-1.025-0.385
		c-0.609,0-1.056,0.184-1.339,0.549s-0.425,0.963-0.425,1.795v3.369h-0.973V2.695h0.791l0.158,0.879h0.047
		c0.184-0.312,0.442-0.557,0.776-0.732s0.708-0.264,1.122-0.264c1.004,0,1.66,0.363,1.969,1.09h0.047
		c0.191-0.336,0.469-0.602,0.832-0.797s0.777-0.293,1.242-0.293c0.727,0,1.271,0.188,1.632,0.561s0.542,0.969,0.542,1.789v4.189
		H176.978z"/>
	<path d="M180.172,0.955c0-0.223,0.055-0.385,0.164-0.488s0.246-0.156,0.41-0.156c0.156,0,0.291,0.053,0.404,0.158
		s0.17,0.268,0.17,0.486s-0.057,0.383-0.17,0.49s-0.248,0.16-0.404,0.16c-0.164,0-0.301-0.053-0.41-0.16
		S180.172,1.174,180.172,0.955z M181.227,9.117h-0.973V2.695h0.973V9.117z"/>
	<path d="M184.562,9.117h-0.973V0h0.973V9.117z"/>
	<path d="M187.886,5.83c0.168-0.238,0.424-0.551,0.768-0.938l2.074-2.197h1.154l-2.602,2.736l2.783,3.686h-1.178l-2.268-3.035
		l-0.732,0.633v2.402h-0.961V0h0.961v4.834c0,0.215-0.016,0.547-0.047,0.996H187.886z"/>
	<path d="M200.89,9.117l-0.193-0.914h-0.047c-0.32,0.402-0.64,0.676-0.958,0.818s-0.716,0.213-1.192,0.213
		c-0.637,0-1.136-0.164-1.497-0.492s-0.542-0.795-0.542-1.4c0-1.297,1.037-1.977,3.111-2.039l1.09-0.035V4.869
		c0-0.504-0.108-0.875-0.325-1.115s-0.563-0.361-1.04-0.361c-0.535,0-1.141,0.164-1.816,0.492l-0.299-0.744
		c0.316-0.172,0.663-0.307,1.04-0.404s0.755-0.146,1.134-0.146c0.766,0,1.333,0.17,1.702,0.51s0.554,0.885,0.554,1.635v4.383H200.89
		z M198.692,8.432c0.605,0,1.081-0.166,1.427-0.498s0.519-0.797,0.519-1.395v-0.58L199.665,6c-0.773,0.027-1.331,0.148-1.673,0.361
		s-0.513,0.543-0.513,0.992c0,0.352,0.106,0.619,0.319,0.803S198.31,8.432,198.692,8.432z"/>
	<path d="M208.309,9.117V4.963c0-0.523-0.119-0.914-0.357-1.172s-0.611-0.387-1.119-0.387c-0.672,0-1.164,0.182-1.477,0.545
		s-0.469,0.963-0.469,1.799v3.369h-0.973V2.695h0.791l0.158,0.879h0.047c0.199-0.316,0.479-0.561,0.838-0.734
		s0.76-0.262,1.201-0.262c0.773,0,1.355,0.188,1.746,0.561s0.586,0.969,0.586,1.789v4.189H208.309z"/>
	<path d="M215.951,8.256h-0.053c-0.449,0.652-1.121,0.979-2.016,0.979c-0.84,0-1.493-0.287-1.96-0.861s-0.7-1.391-0.7-2.449
		s0.234-1.881,0.703-2.467s1.121-0.879,1.957-0.879c0.871,0,1.539,0.316,2.004,0.949h0.076l-0.041-0.463l-0.023-0.451V0h0.973v9.117
		h-0.791L215.951,8.256z M214.006,8.42c0.664,0,1.146-0.18,1.444-0.541s0.448-0.945,0.448-1.75V5.924
		c0-0.91-0.151-1.559-0.454-1.947s-0.786-0.584-1.45-0.584c-0.57,0-1.007,0.223-1.31,0.666s-0.454,1.068-0.454,1.877
		c0,0.82,0.15,1.439,0.451,1.857S213.424,8.42,214.006,8.42z"/>
	<path d="M2.947,24.432c0.172,0,0.338-0.012,0.498-0.037s0.287-0.053,0.381-0.08v0.744c-0.105,0.051-0.261,0.094-0.466,0.127
		s-0.39,0.049-0.554,0.049c-1.242,0-1.863-0.654-1.863-1.963v-3.82h-0.92v-0.469l0.92-0.404l0.41-1.371h0.562v1.488h1.863v0.756
		H1.916v3.779c0,0.387,0.092,0.684,0.275,0.891S2.627,24.432,2.947,24.432z"/>
	<path d="M9.804,25.117v-4.154c0-0.523-0.119-0.914-0.357-1.172s-0.611-0.387-1.119-0.387c-0.676,0-1.169,0.184-1.479,0.551
		s-0.466,0.969-0.466,1.805v3.357H5.409V16h0.973v2.76c0,0.332-0.016,0.607-0.047,0.826h0.059c0.191-0.309,0.464-0.551,0.817-0.729
		s0.757-0.268,1.21-0.268c0.785,0,1.374,0.188,1.767,0.561s0.589,0.965,0.589,1.777v4.189H9.804z"/>
	<path d="M12.992,16.955c0-0.223,0.055-0.385,0.164-0.488s0.246-0.156,0.41-0.156c0.156,0,0.291,0.053,0.404,0.158
		s0.17,0.268,0.17,0.486s-0.057,0.383-0.17,0.49s-0.248,0.16-0.404,0.16c-0.164,0-0.301-0.053-0.41-0.16
		S12.992,17.174,12.992,16.955z M14.047,25.117h-0.973v-6.422h0.973V25.117z"/>
	<path d="M20.553,23.365c0,0.598-0.223,1.059-0.668,1.383s-1.07,0.486-1.875,0.486c-0.852,0-1.516-0.135-1.992-0.404v-0.902
		c0.309,0.156,0.64,0.279,0.993,0.369s0.694,0.135,1.022,0.135c0.508,0,0.898-0.08,1.172-0.242s0.41-0.41,0.41-0.742
		c0-0.25-0.108-0.463-0.325-0.641s-0.64-0.389-1.269-0.631c-0.598-0.223-1.022-0.416-1.274-0.582s-0.439-0.355-0.562-0.566
		S16,20.564,16,20.271c0-0.523,0.213-0.936,0.639-1.238s1.01-0.455,1.752-0.455c0.691,0,1.367,0.141,2.027,0.422l-0.346,0.791
		c-0.645-0.266-1.229-0.398-1.752-0.398c-0.461,0-0.809,0.072-1.043,0.217s-0.352,0.344-0.352,0.598
		c0,0.172,0.044,0.318,0.132,0.439s0.229,0.236,0.425,0.346s0.57,0.268,1.125,0.475c0.762,0.277,1.276,0.557,1.544,0.838
		S20.553,22.939,20.553,23.365z"/>
	<path d="M34.037,25.117v-4.178c0-0.512-0.109-0.895-0.328-1.15s-0.559-0.385-1.02-0.385c-0.605,0-1.053,0.174-1.342,0.521
		s-0.434,0.883-0.434,1.605v3.586h-0.973v-4.178c0-0.512-0.109-0.895-0.328-1.15s-0.561-0.385-1.025-0.385
		c-0.609,0-1.056,0.184-1.339,0.549s-0.425,0.963-0.425,1.795v3.369h-0.973v-6.422h0.791l0.158,0.879h0.047
		c0.184-0.312,0.442-0.557,0.776-0.732s0.708-0.264,1.122-0.264c1.004,0,1.66,0.363,1.969,1.09h0.047
		c0.191-0.336,0.469-0.602,0.832-0.797s0.777-0.293,1.242-0.293c0.727,0,1.271,0.188,1.632,0.561s0.542,0.969,0.542,1.789v4.189
		H34.037z"/>
	<path d="M41.263,25.117l-0.193-0.914h-0.047c-0.32,0.402-0.64,0.676-0.958,0.818s-0.716,0.213-1.192,0.213
		c-0.637,0-1.136-0.164-1.497-0.492s-0.542-0.795-0.542-1.4c0-1.297,1.037-1.977,3.111-2.039l1.09-0.035v-0.398
		c0-0.504-0.108-0.875-0.325-1.115s-0.563-0.361-1.04-0.361c-0.535,0-1.141,0.164-1.816,0.492l-0.299-0.744
		c0.316-0.172,0.663-0.307,1.04-0.404s0.755-0.146,1.134-0.146c0.766,0,1.333,0.17,1.702,0.51s0.554,0.885,0.554,1.635v4.383H41.263
		z M39.065,24.432c0.605,0,1.081-0.166,1.427-0.498s0.519-0.797,0.519-1.395v-0.58L40.038,22c-0.773,0.027-1.331,0.148-1.673,0.361
		s-0.513,0.543-0.513,0.992c0,0.352,0.106,0.619,0.319,0.803S38.683,24.432,39.065,24.432z"/>
	<path d="M45.248,21.83c0.168-0.238,0.424-0.551,0.768-0.938l2.074-2.197h1.154l-2.602,2.736l2.783,3.686h-1.178l-2.268-3.035
		l-0.732,0.633v2.402h-0.961V16h0.961v4.834c0,0.215-0.016,0.547-0.047,0.996H45.248z"/>
	<path d="M53.6,25.234c-0.949,0-1.698-0.289-2.247-0.867s-0.823-1.381-0.823-2.408c0-1.035,0.255-1.857,0.765-2.467
		s1.194-0.914,2.054-0.914c0.805,0,1.441,0.266,1.91,0.795s0.703,1.227,0.703,2.094v0.615h-4.424c0.02,0.754,0.21,1.326,0.571,1.717
		s0.87,0.586,1.526,0.586c0.691,0,1.375-0.145,2.051-0.434v0.867c-0.344,0.148-0.669,0.256-0.976,0.32S54.033,25.234,53.6,25.234z
		 M53.336,19.393c-0.516,0-0.927,0.168-1.233,0.504s-0.487,0.801-0.542,1.395h3.357c0-0.613-0.137-1.082-0.41-1.408
		S53.844,19.393,53.336,19.393z"/>
	<path d="M62.062,23.365c0,0.598-0.223,1.059-0.668,1.383s-1.07,0.486-1.875,0.486c-0.852,0-1.516-0.135-1.992-0.404v-0.902
		c0.309,0.156,0.64,0.279,0.993,0.369s0.694,0.135,1.022,0.135c0.508,0,0.898-0.08,1.172-0.242s0.41-0.41,0.41-0.742
		c0-0.25-0.108-0.463-0.325-0.641s-0.64-0.389-1.269-0.631c-0.598-0.223-1.022-0.416-1.274-0.582s-0.439-0.355-0.562-0.566
		s-0.185-0.463-0.185-0.756c0-0.523,0.213-0.936,0.639-1.238s1.01-0.455,1.752-0.455c0.691,0,1.367,0.141,2.027,0.422l-0.346,0.791
		c-0.645-0.266-1.229-0.398-1.752-0.398c-0.461,0-0.809,0.072-1.043,0.217s-0.352,0.344-0.352,0.598
		c0,0.172,0.044,0.318,0.132,0.439s0.229,0.236,0.425,0.346s0.57,0.268,1.125,0.475c0.762,0.277,1.276,0.557,1.544,0.838
		S62.062,22.939,62.062,23.365z"/>
	<path d="M72.903,21.9c0,1.047-0.264,1.865-0.791,2.453s-1.256,0.881-2.186,0.881c-0.574,0-1.084-0.135-1.529-0.404
		s-0.789-0.656-1.031-1.16s-0.363-1.094-0.363-1.77c0-1.047,0.262-1.861,0.785-2.445s1.25-0.877,2.18-0.877
		c0.898,0,1.612,0.299,2.142,0.896S72.903,20.881,72.903,21.9z M68.011,21.9c0,0.82,0.164,1.445,0.492,1.875
		s0.811,0.645,1.447,0.645s1.12-0.213,1.45-0.641s0.495-1.055,0.495-1.879c0-0.816-0.165-1.436-0.495-1.859
		s-0.817-0.637-1.462-0.637c-0.637,0-1.117,0.209-1.441,0.627S68.011,21.072,68.011,21.9z"/>
	<path d="M75.822,18.695v4.166c0,0.523,0.119,0.914,0.357,1.172s0.611,0.387,1.119,0.387c0.672,0,1.163-0.184,1.474-0.551
		s0.466-0.967,0.466-1.799v-3.375h0.973v6.422h-0.803l-0.141-0.861h-0.053c-0.199,0.316-0.476,0.559-0.829,0.727
		s-0.757,0.252-1.21,0.252c-0.781,0-1.366-0.186-1.755-0.557s-0.583-0.965-0.583-1.781v-4.201H75.822z"/>
	<path d="M85.504,18.578c0.285,0,0.541,0.023,0.768,0.07l-0.135,0.902c-0.266-0.059-0.5-0.088-0.703-0.088
		c-0.52,0-0.964,0.211-1.333,0.633s-0.554,0.947-0.554,1.576v3.445h-0.973v-6.422h0.803l0.111,1.189h0.047
		c0.238-0.418,0.525-0.74,0.861-0.967S85.102,18.578,85.504,18.578z"/>
	<path d="M94.178,18.59c0.844,0,1.499,0.289,1.966,0.865s0.7,1.391,0.7,2.445s-0.235,1.875-0.706,2.459s-1.124,0.875-1.96,0.875
		c-0.418,0-0.8-0.076-1.146-0.23s-0.636-0.393-0.87-0.713h-0.07l-0.205,0.826h-0.697V16h0.973v2.215
		c0,0.496-0.016,0.941-0.047,1.336h0.047C92.615,18.91,93.287,18.59,94.178,18.59z M94.037,19.404c-0.664,0-1.143,0.191-1.436,0.572
		s-0.439,1.021-0.439,1.924s0.15,1.549,0.451,1.938s0.783,0.582,1.447,0.582c0.598,0,1.043-0.217,1.336-0.652
		s0.439-1.062,0.439-1.879c0-0.836-0.146-1.459-0.439-1.869S94.65,19.404,94.037,19.404z"/>
	<path d="M98.761,16.955c0-0.223,0.055-0.385,0.164-0.488s0.246-0.156,0.41-0.156c0.156,0,0.291,0.053,0.404,0.158
		s0.17,0.268,0.17,0.486s-0.057,0.383-0.17,0.49s-0.248,0.16-0.404,0.16c-0.164,0-0.301-0.053-0.41-0.16
		S98.761,17.174,98.761,16.955z M99.815,25.117h-0.973v-6.422h0.973V25.117z"/>
	<path d="M106.572,25.117v-4.154c0-0.523-0.119-0.914-0.357-1.172s-0.611-0.387-1.119-0.387c-0.672,0-1.164,0.182-1.477,0.545
		s-0.469,0.963-0.469,1.799v3.369h-0.973v-6.422h0.791l0.158,0.879h0.047c0.199-0.316,0.479-0.561,0.838-0.734
		s0.76-0.262,1.201-0.262c0.773,0,1.355,0.188,1.746,0.561s0.586,0.969,0.586,1.789v4.189H106.572z"/>
	<path d="M115.1,18.695v0.615l-1.189,0.141c0.109,0.137,0.207,0.316,0.293,0.537s0.129,0.469,0.129,0.746
		c0,0.629-0.215,1.131-0.645,1.506s-1.02,0.562-1.77,0.562c-0.191,0-0.371-0.016-0.539-0.047c-0.414,0.219-0.621,0.494-0.621,0.826
		c0,0.176,0.072,0.307,0.217,0.391s0.393,0.125,0.744,0.125h1.137c0.695,0,1.229,0.146,1.603,0.439s0.56,0.719,0.56,1.277
		c0,0.711-0.285,1.254-0.855,1.627S112.76,28,111.666,28c-0.84,0-1.487-0.156-1.942-0.469s-0.683-0.754-0.683-1.324
		c0-0.391,0.125-0.729,0.375-1.014s0.602-0.479,1.055-0.58c-0.164-0.074-0.302-0.189-0.413-0.346s-0.167-0.338-0.167-0.545
		c0-0.234,0.062-0.439,0.188-0.615s0.322-0.346,0.592-0.51c-0.332-0.137-0.603-0.369-0.812-0.697s-0.313-0.703-0.313-1.125
		c0-0.703,0.211-1.244,0.633-1.625s1.02-0.572,1.793-0.572c0.336,0,0.639,0.039,0.908,0.117H115.1z M109.979,26.195
		c0,0.348,0.146,0.611,0.439,0.791s0.713,0.27,1.26,0.27c0.816,0,1.421-0.121,1.813-0.365s0.589-0.576,0.589-0.994
		c0-0.348-0.107-0.588-0.322-0.723s-0.619-0.203-1.213-0.203h-1.166c-0.441,0-0.785,0.105-1.031,0.316
		S109.979,25.801,109.979,26.195z M110.506,20.752c0,0.449,0.127,0.789,0.381,1.02s0.607,0.346,1.061,0.346
		c0.949,0,1.424-0.461,1.424-1.383c0-0.965-0.48-1.447-1.441-1.447c-0.457,0-0.809,0.123-1.055,0.369S110.506,20.268,110.506,20.752
		z"/>
	<path d="M120.86,23.365c0,0.598-0.223,1.059-0.668,1.383s-1.07,0.486-1.875,0.486c-0.852,0-1.516-0.135-1.992-0.404v-0.902
		c0.309,0.156,0.64,0.279,0.993,0.369s0.694,0.135,1.022,0.135c0.508,0,0.898-0.08,1.172-0.242s0.41-0.41,0.41-0.742
		c0-0.25-0.108-0.463-0.325-0.641s-0.64-0.389-1.269-0.631c-0.598-0.223-1.022-0.416-1.274-0.582s-0.439-0.355-0.562-0.566
		s-0.185-0.463-0.185-0.756c0-0.523,0.213-0.936,0.639-1.238s1.01-0.455,1.752-0.455c0.691,0,1.367,0.141,2.027,0.422l-0.346,0.791
		c-0.645-0.266-1.229-0.398-1.752-0.398c-0.461,0-0.809,0.072-1.043,0.217s-0.352,0.344-0.352,0.598
		c0,0.172,0.044,0.318,0.132,0.439s0.229,0.236,0.425,0.346s0.57,0.268,1.125,0.475c0.762,0.277,1.276,0.557,1.544,0.838
		S120.86,22.939,120.86,23.365z"/>
	<path d="M128.285,21.9c0,1.047-0.264,1.865-0.791,2.453s-1.256,0.881-2.186,0.881c-0.574,0-1.084-0.135-1.529-0.404
		s-0.789-0.656-1.031-1.16s-0.363-1.094-0.363-1.77c0-1.047,0.262-1.861,0.785-2.445s1.25-0.877,2.18-0.877
		c0.898,0,1.612,0.299,2.142,0.896S128.285,20.881,128.285,21.9z M123.393,21.9c0,0.82,0.164,1.445,0.492,1.875
		s0.811,0.645,1.447,0.645s1.12-0.213,1.45-0.641s0.495-1.055,0.495-1.879c0-0.816-0.165-1.436-0.495-1.859
		s-0.817-0.637-1.462-0.637c-0.637,0-1.117,0.209-1.441,0.627S123.393,21.072,123.393,21.9z"/>
	<path d="M135.833,21.9c0,1.047-0.264,1.865-0.791,2.453s-1.256,0.881-2.186,0.881c-0.574,0-1.084-0.135-1.529-0.404
		s-0.789-0.656-1.031-1.16s-0.363-1.094-0.363-1.77c0-1.047,0.262-1.861,0.785-2.445s1.25-0.877,2.18-0.877
		c0.898,0,1.612,0.299,2.142,0.896S135.833,20.881,135.833,21.9z M130.94,21.9c0,0.82,0.164,1.445,0.492,1.875
		s0.811,0.645,1.447,0.645s1.12-0.213,1.45-0.641s0.495-1.055,0.495-1.879c0-0.816-0.165-1.436-0.495-1.859
		s-0.817-0.637-1.462-0.637c-0.637,0-1.117,0.209-1.441,0.627S130.94,21.072,130.94,21.9z"/>
	<path d="M145.398,23.365c0,0.598-0.223,1.059-0.668,1.383s-1.07,0.486-1.875,0.486c-0.852,0-1.516-0.135-1.992-0.404v-0.902
		c0.309,0.156,0.64,0.279,0.993,0.369s0.694,0.135,1.022,0.135c0.508,0,0.898-0.08,1.172-0.242s0.41-0.41,0.41-0.742
		c0-0.25-0.108-0.463-0.325-0.641s-0.64-0.389-1.269-0.631c-0.598-0.223-1.022-0.416-1.274-0.582s-0.439-0.355-0.562-0.566
		s-0.185-0.463-0.185-0.756c0-0.523,0.213-0.936,0.639-1.238s1.01-0.455,1.752-0.455c0.691,0,1.367,0.141,2.027,0.422l-0.346,0.791
		c-0.645-0.266-1.229-0.398-1.752-0.398c-0.461,0-0.809,0.072-1.043,0.217s-0.352,0.344-0.352,0.598
		c0,0.172,0.044,0.318,0.132,0.439s0.229,0.236,0.425,0.346s0.57,0.268,1.125,0.475c0.762,0.277,1.276,0.557,1.544,0.838
		S145.398,22.939,145.398,23.365z"/>
	<path d="M147.198,16.955c0-0.223,0.055-0.385,0.164-0.488s0.246-0.156,0.41-0.156c0.156,0,0.291,0.053,0.404,0.158
		s0.17,0.268,0.17,0.486s-0.057,0.383-0.17,0.49s-0.248,0.16-0.404,0.16c-0.164,0-0.301-0.053-0.41-0.16
		S147.198,17.174,147.198,16.955z M148.253,25.117h-0.973v-6.422h0.973V25.117z"/>
	<path d="M151.588,25.117h-0.973V16h0.973V25.117z"/>
	<path d="M154.911,21.83c0.168-0.238,0.424-0.551,0.768-0.938l2.074-2.197h1.154l-2.602,2.736l2.783,3.686h-1.178l-2.268-3.035
		l-0.732,0.633v2.402h-0.961V16h0.961v4.834c0,0.215-0.016,0.547-0.047,0.996H154.911z"/>
	<path d="M159.529,18.695h1.043l1.406,3.662c0.309,0.836,0.5,1.439,0.574,1.811h0.047c0.051-0.199,0.157-0.539,0.319-1.021
		s0.692-1.967,1.591-4.451h1.043l-2.76,7.312c-0.273,0.723-0.593,1.236-0.958,1.539S161.021,28,160.49,28
		c-0.297,0-0.59-0.033-0.879-0.1v-0.779c0.215,0.047,0.455,0.07,0.721,0.07c0.668,0,1.145-0.375,1.43-1.125l0.357-0.914
		L159.529,18.695z"/>
	<path d="M174.456,23.365c0,0.598-0.223,1.059-0.668,1.383s-1.07,0.486-1.875,0.486c-0.852,0-1.516-0.135-1.992-0.404v-0.902
		c0.309,0.156,0.64,0.279,0.993,0.369s0.694,0.135,1.022,0.135c0.508,0,0.898-0.08,1.172-0.242s0.41-0.41,0.41-0.742
		c0-0.25-0.108-0.463-0.325-0.641s-0.64-0.389-1.269-0.631c-0.598-0.223-1.022-0.416-1.274-0.582s-0.439-0.355-0.562-0.566
		s-0.185-0.463-0.185-0.756c0-0.523,0.213-0.936,0.639-1.238s1.01-0.455,1.752-0.455c0.691,0,1.367,0.141,2.027,0.422l-0.346,0.791
		c-0.645-0.266-1.229-0.398-1.752-0.398c-0.461,0-0.809,0.072-1.043,0.217s-0.352,0.344-0.352,0.598
		c0,0.172,0.044,0.318,0.132,0.439s0.229,0.236,0.425,0.346s0.57,0.268,1.125,0.475c0.762,0.277,1.276,0.557,1.544,0.838
		S174.456,22.939,174.456,23.365z"/>
	<path d="M184.523,25.117v-4.178c0-0.512-0.109-0.895-0.328-1.15s-0.559-0.385-1.02-0.385c-0.605,0-1.053,0.174-1.342,0.521
		s-0.434,0.883-0.434,1.605v3.586h-0.973v-4.178c0-0.512-0.109-0.895-0.328-1.15s-0.561-0.385-1.025-0.385
		c-0.609,0-1.056,0.184-1.339,0.549s-0.425,0.963-0.425,1.795v3.369h-0.973v-6.422h0.791l0.158,0.879h0.047
		c0.184-0.312,0.442-0.557,0.776-0.732s0.708-0.264,1.122-0.264c1.004,0,1.66,0.363,1.969,1.09h0.047
		c0.191-0.336,0.469-0.602,0.832-0.797s0.777-0.293,1.242-0.293c0.727,0,1.271,0.188,1.632,0.561s0.542,0.969,0.542,1.789v4.189
		H184.523z"/>
	<path d="M193.343,21.9c0,1.047-0.264,1.865-0.791,2.453s-1.256,0.881-2.186,0.881c-0.574,0-1.084-0.135-1.529-0.404
		s-0.789-0.656-1.031-1.16s-0.363-1.094-0.363-1.77c0-1.047,0.262-1.861,0.785-2.445s1.25-0.877,2.18-0.877
		c0.898,0,1.612,0.299,2.142,0.896S193.343,20.881,193.343,21.9z M188.45,21.9c0,0.82,0.164,1.445,0.492,1.875
		s0.811,0.645,1.447,0.645s1.12-0.213,1.45-0.641s0.495-1.055,0.495-1.879c0-0.816-0.165-1.436-0.495-1.859
		s-0.817-0.637-1.462-0.637c-0.637,0-1.117,0.209-1.441,0.627S188.45,21.072,188.45,21.9z"/>
	<path d="M200.891,21.9c0,1.047-0.264,1.865-0.791,2.453s-1.256,0.881-2.186,0.881c-0.574,0-1.084-0.135-1.529-0.404
		s-0.789-0.656-1.031-1.16s-0.363-1.094-0.363-1.77c0-1.047,0.262-1.861,0.785-2.445s1.25-0.877,2.18-0.877
		c0.898,0,1.612,0.299,2.142,0.896S200.891,20.881,200.891,21.9z M195.998,21.9c0,0.82,0.164,1.445,0.492,1.875
		s0.811,0.645,1.447,0.645s1.12-0.213,1.45-0.641s0.495-1.055,0.495-1.879c0-0.816-0.165-1.436-0.495-1.859
		s-0.817-0.637-1.462-0.637c-0.637,0-1.117,0.209-1.441,0.627S195.998,21.072,195.998,21.9z"/>
	<path d="M204.971,24.432c0.172,0,0.338-0.012,0.498-0.037s0.287-0.053,0.381-0.08v0.744c-0.105,0.051-0.261,0.094-0.466,0.127
		s-0.39,0.049-0.554,0.049c-1.242,0-1.863-0.654-1.863-1.963v-3.82h-0.92v-0.469l0.92-0.404l0.41-1.371h0.562v1.488h1.863v0.756
		h-1.863v3.779c0,0.387,0.092,0.684,0.275,0.891S204.65,24.432,204.971,24.432z"/>
	<path d="M211.827,25.117v-4.154c0-0.523-0.119-0.914-0.357-1.172s-0.611-0.387-1.119-0.387c-0.676,0-1.169,0.184-1.479,0.551
		s-0.466,0.969-0.466,1.805v3.357h-0.973V16h0.973v2.76c0,0.332-0.016,0.607-0.047,0.826h0.059c0.191-0.309,0.464-0.551,0.817-0.729
		s0.757-0.268,1.21-0.268c0.785,0,1.374,0.188,1.767,0.561s0.589,0.965,0.589,1.777v4.189H211.827z"/>
	<path d="M214.957,24.496c0-0.531,0.234-0.797,0.703-0.797c0.227,0,0.401,0.068,0.524,0.205s0.185,0.334,0.185,0.592
		c0,0.25-0.062,0.445-0.188,0.584s-0.299,0.207-0.521,0.207c-0.203,0-0.371-0.061-0.504-0.184S214.957,24.777,214.957,24.496z
		 M215.977,22.756h-0.615l-0.299-6.205h1.213L215.977,22.756z"/>
</g>
</svg>