<!-- Generator: Adobe Illustrator 21.0.0, SVG Export Plug-In  -->
<svg version="1.1"
	 xmlns="http://www.w3.org/2000/svg" xmlns:xlink="http://www.w3.org/1999/xlink" xmlns:a="http://ns.adobe.com/AdobeSVGViewerExtensions/3.0/"
	 x="0px" y="0px" width="200.65px" height="41.352px" viewBox="0 0 200.65 41.352"
	 style="enable-background:new 0 0 200.65 41.352;" xml:space="preserve">
<defs>
</defs>
<g>
	<path d="M8.496,9.182H7.512L5.783,3.445C5.701,3.191,5.609,2.871,5.508,2.484S5.354,1.865,5.35,1.787
		c-0.086,0.516-0.223,1.08-0.41,1.693L3.264,9.182H2.279L0,0.615h1.055l1.354,5.291c0.188,0.742,0.324,1.414,0.41,2.016
		C2.924,7.207,3.08,6.508,3.287,5.824l1.535-5.209h1.055l1.611,5.256C7.676,6.477,7.834,7.16,7.963,7.922
		c0.074-0.555,0.215-1.23,0.422-2.027l1.348-5.279h1.055L8.496,9.182z"/>
	<path d="M14.995,9.299c-0.949,0-1.698-0.289-2.247-0.867s-0.823-1.381-0.823-2.408c0-1.035,0.255-1.857,0.765-2.467
		s1.194-0.914,2.054-0.914c0.805,0,1.441,0.265,1.91,0.794s0.703,1.228,0.703,2.095v0.615h-4.424c0.02,0.754,0.21,1.326,0.571,1.717
		s0.87,0.586,1.526,0.586c0.691,0,1.375-0.145,2.051-0.434v0.867c-0.344,0.148-0.669,0.255-0.976,0.319S15.429,9.299,14.995,9.299z
		 M14.731,3.457c-0.516,0-0.927,0.168-1.233,0.504s-0.487,0.801-0.542,1.395h3.357c0-0.613-0.137-1.083-0.41-1.409
		S15.239,3.457,14.731,3.457z"/>
	<path d="M27.127,9.182V5.027c0-0.523-0.119-0.914-0.357-1.172s-0.611-0.387-1.119-0.387c-0.676,0-1.169,0.184-1.479,0.551
		s-0.466,0.969-0.466,1.805v3.357h-0.973V0.064h0.973v2.76c0,0.332-0.016,0.607-0.047,0.826h0.059
		c0.191-0.309,0.464-0.552,0.817-0.729s0.757-0.267,1.21-0.267c0.785,0,1.374,0.187,1.767,0.56c0.393,0.373,0.588,0.966,0.588,1.778
		v4.189H27.127z"/>
	<path d="M34.347,9.182l-0.193-0.914h-0.047c-0.32,0.402-0.641,0.675-0.959,0.817s-0.715,0.214-1.191,0.214
		c-0.637,0-1.137-0.164-1.498-0.492s-0.541-0.795-0.541-1.4c0-1.297,1.037-1.977,3.111-2.039l1.09-0.035V4.934
		c0-0.504-0.109-0.876-0.326-1.116s-0.562-0.36-1.039-0.36c-0.535,0-1.141,0.164-1.816,0.492l-0.299-0.744
		c0.316-0.172,0.662-0.307,1.039-0.404s0.756-0.146,1.135-0.146c0.766,0,1.332,0.17,1.701,0.51s0.555,0.885,0.555,1.635v4.383
		H34.347z M32.15,8.496c0.605,0,1.08-0.166,1.426-0.498s0.52-0.797,0.52-1.395v-0.58l-0.973,0.041
		c-0.773,0.027-1.332,0.147-1.674,0.36s-0.512,0.544-0.512,0.993c0,0.352,0.105,0.619,0.318,0.803S31.767,8.496,32.15,8.496z"/>
	<path d="M38.777,9.182L36.339,2.76h1.043l1.383,3.809c0.312,0.891,0.496,1.469,0.551,1.734h0.047
		c0.043-0.207,0.18-0.636,0.408-1.286s0.74-2.069,1.537-4.257h1.043l-2.438,6.422H38.777z"/>
	<path d="M46.396,9.299c-0.949,0-1.699-0.289-2.248-0.867s-0.822-1.381-0.822-2.408c0-1.035,0.254-1.857,0.764-2.467
		s1.195-0.914,2.055-0.914c0.805,0,1.441,0.265,1.91,0.794s0.703,1.228,0.703,2.095v0.615h-4.424c0.02,0.754,0.209,1.326,0.57,1.717
		s0.871,0.586,1.527,0.586c0.691,0,1.375-0.145,2.051-0.434v0.867c-0.344,0.148-0.67,0.255-0.977,0.319S46.83,9.299,46.396,9.299z
		 M46.132,3.457c-0.516,0-0.928,0.168-1.234,0.504s-0.486,0.801-0.541,1.395h3.357c0-0.613-0.137-1.083-0.41-1.409
		S46.64,3.457,46.132,3.457z"/>
	<path d="M58.082,9.182l-0.193-0.914h-0.047c-0.32,0.402-0.639,0.675-0.957,0.817s-0.717,0.214-1.193,0.214
		c-0.637,0-1.135-0.164-1.496-0.492s-0.543-0.795-0.543-1.4c0-1.297,1.037-1.977,3.111-2.039l1.09-0.035V4.934
		c0-0.504-0.107-0.876-0.324-1.116s-0.564-0.36-1.041-0.36c-0.535,0-1.141,0.164-1.816,0.492l-0.299-0.744
		c0.316-0.172,0.664-0.307,1.041-0.404s0.754-0.146,1.133-0.146c0.766,0,1.334,0.17,1.703,0.51s0.553,0.885,0.553,1.635v4.383
		H58.082z M55.884,8.496c0.605,0,1.082-0.166,1.428-0.498s0.518-0.797,0.518-1.395v-0.58l-0.973,0.041
		c-0.773,0.027-1.33,0.147-1.672,0.36s-0.514,0.544-0.514,0.993c0,0.352,0.107,0.619,0.32,0.803S55.501,8.496,55.884,8.496z"/>
	<path d="M69.767,9.182l-1.178-3.768c-0.074-0.23-0.213-0.754-0.416-1.57h-0.047c-0.156,0.684-0.293,1.211-0.41,1.582l-1.213,3.756
		h-1.125L63.626,2.76h1.02c0.414,1.613,0.73,2.842,0.947,3.686s0.34,1.412,0.371,1.705h0.047c0.043-0.223,0.113-0.511,0.209-0.864
		s0.178-0.634,0.248-0.841l1.178-3.686h1.055l1.148,3.686c0.219,0.672,0.367,1.236,0.445,1.693h0.047
		c0.016-0.141,0.059-0.357,0.127-0.65s0.475-1.869,1.221-4.729h1.008l-1.775,6.422H69.767z"/>
	<path d="M74.076,1.02c0-0.223,0.055-0.386,0.164-0.489s0.246-0.155,0.41-0.155c0.156,0,0.291,0.053,0.404,0.158
		s0.17,0.268,0.17,0.486s-0.057,0.382-0.17,0.489S74.806,1.67,74.65,1.67c-0.164,0-0.301-0.054-0.41-0.161S74.076,1.238,74.076,1.02
		z M75.13,9.182h-0.973V2.76h0.973V9.182z"/>
	<path d="M81.863,8.32H81.81c-0.449,0.652-1.121,0.979-2.016,0.979c-0.84,0-1.492-0.287-1.959-0.861s-0.701-1.391-0.701-2.449
		s0.234-1.881,0.703-2.467s1.121-0.879,1.957-0.879c0.871,0,1.539,0.316,2.004,0.949h0.076l-0.041-0.463L81.81,2.678V0.064h0.973
		v9.117h-0.791L81.863,8.32z M79.917,8.484c0.664,0,1.146-0.181,1.445-0.542s0.447-0.944,0.447-1.749V5.988
		c0-0.91-0.15-1.56-0.453-1.948s-0.787-0.583-1.451-0.583c-0.57,0-1.006,0.222-1.309,0.665S78.142,5.191,78.142,6
		c0,0.82,0.15,1.439,0.451,1.857S79.335,8.484,79.917,8.484z"/>
	<path d="M87.859,9.299c-0.949,0-1.697-0.289-2.246-0.867s-0.824-1.381-0.824-2.408c0-1.035,0.256-1.857,0.766-2.467
		s1.193-0.914,2.053-0.914c0.805,0,1.441,0.265,1.91,0.794s0.703,1.228,0.703,2.095v0.615h-4.424
		c0.02,0.754,0.211,1.326,0.572,1.717s0.869,0.586,1.525,0.586c0.691,0,1.375-0.145,2.051-0.434v0.867
		c-0.344,0.148-0.668,0.255-0.975,0.319S88.292,9.299,87.859,9.299z M87.595,3.457c-0.516,0-0.926,0.168-1.232,0.504
		s-0.488,0.801-0.543,1.395h3.357c0-0.613-0.137-1.083-0.41-1.409S88.103,3.457,87.595,3.457z"/>
	<path d="M98.525,2.643c0.285,0,0.541,0.023,0.768,0.07l-0.135,0.902c-0.266-0.059-0.5-0.088-0.703-0.088
		c-0.52,0-0.963,0.211-1.332,0.633s-0.555,0.947-0.555,1.576v3.445h-0.973V2.76h0.803l0.111,1.189h0.047
		c0.238-0.418,0.525-0.74,0.861-0.967S98.123,2.643,98.525,2.643z"/>
	<path d="M104.744,9.182l-0.193-0.914h-0.047c-0.32,0.402-0.641,0.675-0.959,0.817s-0.715,0.214-1.191,0.214
		c-0.637,0-1.137-0.164-1.498-0.492s-0.541-0.795-0.541-1.4c0-1.297,1.037-1.977,3.111-2.039l1.09-0.035V4.934
		c0-0.504-0.109-0.876-0.326-1.116s-0.562-0.36-1.039-0.36c-0.535,0-1.141,0.164-1.816,0.492l-0.299-0.744
		c0.316-0.172,0.662-0.307,1.039-0.404s0.756-0.146,1.135-0.146c0.766,0,1.332,0.17,1.701,0.51s0.555,0.885,0.555,1.635v4.383
		H104.744z M102.546,8.496c0.605,0,1.08-0.166,1.426-0.498s0.52-0.797,0.52-1.395v-0.58l-0.973,0.041
		c-0.773,0.027-1.332,0.147-1.674,0.36s-0.512,0.544-0.512,0.993c0,0.352,0.105,0.619,0.318,0.803S102.164,8.496,102.546,8.496z"/>
	<path d="M112.162,9.182V5.027c0-0.523-0.119-0.914-0.357-1.172s-0.611-0.387-1.119-0.387c-0.672,0-1.164,0.182-1.477,0.545
		s-0.469,0.963-0.469,1.799v3.369h-0.973V2.76h0.791l0.158,0.879h0.047c0.199-0.316,0.479-0.562,0.838-0.735s0.76-0.261,1.201-0.261
		c0.773,0,1.355,0.187,1.746,0.56s0.586,0.97,0.586,1.79v4.189H112.162z"/>
	<path d="M120.689,2.76v0.615L119.5,3.516c0.109,0.137,0.207,0.315,0.293,0.536s0.129,0.47,0.129,0.747
		c0,0.629-0.215,1.131-0.645,1.506s-1.02,0.562-1.77,0.562c-0.191,0-0.371-0.016-0.539-0.047c-0.414,0.219-0.621,0.494-0.621,0.826
		c0,0.176,0.072,0.306,0.217,0.39s0.393,0.126,0.744,0.126h1.137c0.695,0,1.23,0.146,1.604,0.439s0.559,0.719,0.559,1.277
		c0,0.711-0.285,1.253-0.855,1.626s-1.402,0.56-2.496,0.56c-0.84,0-1.486-0.156-1.941-0.469s-0.684-0.754-0.684-1.324
		c0-0.391,0.125-0.729,0.375-1.014s0.602-0.479,1.055-0.58c-0.164-0.074-0.301-0.189-0.412-0.346s-0.168-0.338-0.168-0.545
		c0-0.234,0.062-0.439,0.188-0.615s0.322-0.346,0.592-0.51c-0.332-0.137-0.602-0.369-0.811-0.697s-0.314-0.703-0.314-1.125
		c0-0.703,0.211-1.245,0.633-1.626s1.02-0.571,1.793-0.571c0.336,0,0.639,0.039,0.908,0.117H120.689z M115.568,10.26
		c0,0.348,0.146,0.611,0.439,0.791s0.713,0.27,1.26,0.27c0.816,0,1.422-0.122,1.814-0.366s0.588-0.575,0.588-0.993
		c0-0.348-0.107-0.589-0.322-0.724s-0.619-0.202-1.213-0.202h-1.166c-0.441,0-0.785,0.105-1.031,0.316S115.568,9.865,115.568,10.26z
		 M116.095,4.816c0,0.449,0.127,0.789,0.381,1.02s0.607,0.346,1.061,0.346c0.949,0,1.424-0.461,1.424-1.383
		c0-0.965-0.48-1.447-1.441-1.447c-0.457,0-0.809,0.123-1.055,0.369S116.095,4.332,116.095,4.816z"/>
	<path d="M125.021,9.299c-0.949,0-1.699-0.289-2.248-0.867s-0.822-1.381-0.822-2.408c0-1.035,0.254-1.857,0.764-2.467
		s1.195-0.914,2.055-0.914c0.805,0,1.441,0.265,1.91,0.794s0.703,1.228,0.703,2.095v0.615h-4.424c0.02,0.754,0.209,1.326,0.57,1.717
		s0.871,0.586,1.527,0.586c0.691,0,1.375-0.145,2.051-0.434v0.867c-0.344,0.148-0.67,0.255-0.977,0.319S125.455,9.299,125.021,9.299
		z M124.757,3.457c-0.516,0-0.928,0.168-1.234,0.504s-0.486,0.801-0.541,1.395h3.357c0-0.613-0.137-1.083-0.41-1.409
		S125.265,3.457,124.757,3.457z"/>
	<path d="M138.3,5.965c0,1.047-0.264,1.864-0.791,2.452s-1.256,0.882-2.186,0.882c-0.574,0-1.084-0.135-1.529-0.404
		s-0.789-0.656-1.031-1.16s-0.363-1.094-0.363-1.77c0-1.047,0.262-1.862,0.785-2.446s1.25-0.876,2.18-0.876
		c0.898,0,1.611,0.299,2.141,0.896S138.3,4.945,138.3,5.965z M133.408,5.965c0,0.82,0.164,1.445,0.492,1.875
		s0.811,0.645,1.447,0.645s1.119-0.214,1.449-0.642s0.496-1.054,0.496-1.878c0-0.816-0.166-1.437-0.496-1.86
		s-0.816-0.636-1.461-0.636c-0.637,0-1.117,0.209-1.441,0.627S133.408,5.137,133.408,5.965z"/>
	<path d="M143.199,3.516h-1.635v5.666h-0.973V3.516h-1.148V3.076l1.148-0.352V2.367c0-1.578,0.689-2.367,2.068-2.367
		c0.34,0,0.738,0.068,1.195,0.205l-0.252,0.779c-0.375-0.121-0.695-0.182-0.961-0.182c-0.367,0-0.639,0.122-0.814,0.366
		s-0.264,0.636-0.264,1.175V2.76h1.635V3.516z"/>
	<path d="M150.164,8.496c0.172,0,0.338-0.013,0.498-0.038s0.287-0.052,0.381-0.079v0.744c-0.105,0.051-0.262,0.093-0.467,0.126
		s-0.389,0.05-0.553,0.05c-1.242,0-1.863-0.654-1.863-1.963v-3.82h-0.92V3.047l0.92-0.404l0.41-1.371h0.562V2.76h1.863v0.756h-1.863
		v3.779c0,0.387,0.092,0.684,0.275,0.891S149.843,8.496,150.164,8.496z"/>
	<path d="M158.167,5.965c0,1.047-0.264,1.864-0.791,2.452s-1.256,0.882-2.186,0.882c-0.574,0-1.084-0.135-1.529-0.404
		s-0.789-0.656-1.031-1.16s-0.363-1.094-0.363-1.77c0-1.047,0.262-1.862,0.785-2.446s1.25-0.876,2.18-0.876
		c0.898,0,1.613,0.299,2.143,0.896S158.167,4.945,158.167,5.965z M153.275,5.965c0,0.82,0.164,1.445,0.492,1.875
		s0.811,0.645,1.447,0.645s1.121-0.214,1.451-0.642s0.494-1.054,0.494-1.878c0-0.816-0.164-1.437-0.494-1.86
		s-0.818-0.636-1.463-0.636c-0.637,0-1.117,0.209-1.441,0.627S153.275,5.137,153.275,5.965z"/>
	<path d="M163.162,9.299c-0.418,0-0.801-0.077-1.146-0.231s-0.635-0.392-0.869-0.712h-0.07c0.047,0.375,0.07,0.73,0.07,1.066v2.643
		h-0.973V2.76h0.791l0.135,0.879h0.047c0.25-0.352,0.541-0.605,0.873-0.762s0.713-0.234,1.143-0.234
		c0.852,0,1.508,0.291,1.971,0.873s0.695,1.398,0.695,2.449c0,1.055-0.236,1.874-0.707,2.458S163.998,9.299,163.162,9.299z
		 M163.021,3.469c-0.656,0-1.131,0.182-1.424,0.545s-0.443,0.941-0.451,1.734v0.217c0,0.902,0.15,1.548,0.451,1.937
		s0.783,0.583,1.447,0.583c0.555,0,0.988-0.225,1.303-0.674s0.473-1.068,0.473-1.857c0-0.801-0.158-1.415-0.473-1.843
		S163.591,3.469,163.021,3.469z"/>
	<path d="M170.814,9.299c-0.418,0-0.799-0.077-1.145-0.231s-0.637-0.392-0.871-0.712h-0.07c0.047,0.375,0.07,0.73,0.07,1.066v2.643
		h-0.973V2.76h0.791l0.135,0.879h0.047c0.25-0.352,0.541-0.605,0.873-0.762s0.713-0.234,1.143-0.234c0.852,0,1.51,0.291,1.973,0.873
		s0.693,1.398,0.693,2.449c0,1.055-0.234,1.874-0.705,2.458S171.65,9.299,170.814,9.299z M170.673,3.469
		c-0.656,0-1.131,0.182-1.424,0.545s-0.443,0.941-0.451,1.734v0.217c0,0.902,0.15,1.548,0.451,1.937s0.783,0.583,1.447,0.583
		c0.555,0,0.99-0.225,1.305-0.674s0.471-1.068,0.471-1.857c0-0.801-0.156-1.415-0.471-1.843S171.244,3.469,170.673,3.469z"/>
	<path d="M175.398,1.02c0-0.223,0.055-0.386,0.164-0.489s0.246-0.155,0.41-0.155c0.156,0,0.291,0.053,0.404,0.158
		s0.17,0.268,0.17,0.486s-0.057,0.382-0.17,0.489s-0.248,0.161-0.404,0.161c-0.164,0-0.301-0.054-0.41-0.161
		S175.398,1.238,175.398,1.02z M176.453,9.182h-0.973V2.76h0.973V9.182z"/>
	<path d="M183.21,9.182V5.027c0-0.523-0.119-0.914-0.357-1.172s-0.611-0.387-1.119-0.387c-0.672,0-1.164,0.182-1.477,0.545
		s-0.469,0.963-0.469,1.799v3.369h-0.973V2.76h0.791l0.158,0.879h0.047c0.199-0.316,0.479-0.562,0.838-0.735s0.76-0.261,1.201-0.261
		c0.773,0,1.355,0.187,1.746,0.56s0.586,0.97,0.586,1.79v4.189H183.21z"/>
	<path d="M191.736,2.76v0.615l-1.189,0.141c0.109,0.137,0.207,0.315,0.293,0.536s0.129,0.47,0.129,0.747
		c0,0.629-0.215,1.131-0.645,1.506s-1.02,0.562-1.77,0.562c-0.191,0-0.371-0.016-0.539-0.047c-0.414,0.219-0.621,0.494-0.621,0.826
		c0,0.176,0.072,0.306,0.217,0.39s0.393,0.126,0.744,0.126h1.137c0.695,0,1.23,0.146,1.604,0.439s0.559,0.719,0.559,1.277
		c0,0.711-0.285,1.253-0.855,1.626s-1.402,0.56-2.496,0.56c-0.84,0-1.486-0.156-1.941-0.469s-0.684-0.754-0.684-1.324
		c0-0.391,0.125-0.729,0.375-1.014s0.602-0.479,1.055-0.58c-0.164-0.074-0.301-0.189-0.412-0.346s-0.168-0.338-0.168-0.545
		c0-0.234,0.062-0.439,0.188-0.615s0.322-0.346,0.592-0.51c-0.332-0.137-0.602-0.369-0.811-0.697s-0.314-0.703-0.314-1.125
		c0-0.703,0.211-1.245,0.633-1.626s1.02-0.571,1.793-0.571c0.336,0,0.639,0.039,0.908,0.117H191.736z M186.615,10.26
		c0,0.348,0.146,0.611,0.439,0.791s0.713,0.27,1.26,0.27c0.816,0,1.422-0.122,1.814-0.366s0.588-0.575,0.588-0.993
		c0-0.348-0.107-0.589-0.322-0.724s-0.619-0.202-1.213-0.202h-1.166c-0.441,0-0.785,0.105-1.031,0.316S186.615,9.865,186.615,10.26z
		 M187.142,4.816c0,0.449,0.127,0.789,0.381,1.02s0.607,0.346,1.061,0.346c0.949,0,1.424-0.461,1.424-1.383
		c0-0.965-0.48-1.447-1.441-1.447c-0.457,0-0.809,0.123-1.055,0.369S187.142,4.332,187.142,4.816z"/>
	<path d="M197.498,7.43c0,0.598-0.223,1.059-0.668,1.383s-1.07,0.486-1.875,0.486c-0.852,0-1.516-0.135-1.992-0.404V7.992
		c0.309,0.156,0.639,0.279,0.992,0.369s0.695,0.135,1.023,0.135c0.508,0,0.898-0.081,1.172-0.243s0.41-0.409,0.41-0.741
		c0-0.25-0.109-0.464-0.326-0.642s-0.639-0.388-1.268-0.63c-0.598-0.223-1.023-0.417-1.275-0.583s-0.439-0.354-0.562-0.565
		s-0.184-0.463-0.184-0.756c0-0.523,0.213-0.937,0.639-1.239s1.01-0.454,1.752-0.454c0.691,0,1.367,0.141,2.027,0.422l-0.346,0.791
		c-0.645-0.266-1.229-0.398-1.752-0.398c-0.461,0-0.809,0.072-1.043,0.217s-0.352,0.344-0.352,0.598
		c0,0.172,0.043,0.318,0.131,0.439s0.23,0.236,0.426,0.346s0.57,0.268,1.125,0.475c0.762,0.277,1.275,0.557,1.543,0.838
		S197.498,7.004,197.498,7.43z"/>
	<path d="M199.238,8.561c0-0.262,0.061-0.46,0.18-0.595s0.289-0.202,0.512-0.202c0.227,0,0.404,0.067,0.531,0.202
		s0.189,0.333,0.189,0.595c0,0.254-0.064,0.449-0.193,0.586s-0.305,0.205-0.527,0.205c-0.199,0-0.363-0.062-0.494-0.185
		S199.238,8.842,199.238,8.561z"/>
	<path d="M2.016,25.182H1.02v-8.566h4.775V17.5H2.016v3.135h3.551v0.885H2.016V25.182z"/>
	<path d="M10.296,18.643c0.285,0,0.541,0.023,0.768,0.07l-0.135,0.902c-0.266-0.059-0.5-0.088-0.703-0.088
		c-0.52,0-0.964,0.211-1.333,0.633s-0.554,0.947-0.554,1.576v3.445H7.366V18.76h0.803l0.111,1.189h0.047
		c0.238-0.418,0.525-0.74,0.861-0.967S9.894,18.643,10.296,18.643z"/>
	<path d="M18.107,21.965c0,1.047-0.264,1.864-0.791,2.452s-1.256,0.882-2.186,0.882c-0.574,0-1.084-0.135-1.529-0.404
		s-0.789-0.656-1.031-1.16s-0.363-1.094-0.363-1.77c0-1.047,0.262-1.862,0.785-2.446s1.25-0.876,2.18-0.876
		c0.898,0,1.612,0.299,2.142,0.896S18.107,20.945,18.107,21.965z M13.215,21.965c0,0.82,0.164,1.445,0.492,1.875
		s0.811,0.645,1.447,0.645s1.12-0.214,1.45-0.642s0.495-1.054,0.495-1.878c0-0.816-0.165-1.437-0.495-1.86s-0.817-0.636-1.462-0.636
		c-0.637,0-1.117,0.209-1.441,0.627S13.215,21.137,13.215,21.965z"/>
	<path d="M28.298,25.182v-4.178c0-0.512-0.109-0.896-0.328-1.151c-0.218-0.256-0.558-0.384-1.019-0.384
		c-0.605,0-1.053,0.174-1.342,0.521s-0.434,0.883-0.434,1.605v3.586h-0.973v-4.178c0-0.512-0.109-0.896-0.328-1.151
		s-0.561-0.384-1.025-0.384c-0.609,0-1.056,0.183-1.339,0.548s-0.425,0.964-0.425,1.796v3.369h-0.973V18.76h0.791l0.158,0.879h0.047
		c0.184-0.312,0.442-0.557,0.776-0.732s0.708-0.264,1.122-0.264c1.004,0,1.66,0.363,1.969,1.09h0.047
		c0.191-0.336,0.469-0.602,0.832-0.797s0.777-0.293,1.242-0.293c0.726,0,1.271,0.187,1.632,0.56s0.541,0.97,0.541,1.79v4.189H28.298
		z"/>
	<path d="M37.886,19.516h-1.635v5.666h-0.973v-5.666H34.13v-0.439l1.148-0.352v-0.357c0-1.578,0.689-2.367,2.068-2.367
		c0.34,0,0.738,0.068,1.195,0.205l-0.252,0.779c-0.375-0.121-0.695-0.182-0.961-0.182c-0.367,0-0.639,0.122-0.814,0.366
		s-0.264,0.636-0.264,1.175v0.416h1.635V19.516z"/>
	<path d="M42.289,18.643c0.285,0,0.541,0.023,0.768,0.07l-0.135,0.902c-0.266-0.059-0.5-0.088-0.703-0.088
		c-0.52,0-0.965,0.211-1.334,0.633s-0.553,0.947-0.553,1.576v3.445h-0.973V18.76h0.803l0.111,1.189h0.047
		c0.238-0.418,0.525-0.74,0.861-0.967S41.886,18.643,42.289,18.643z"/>
	<path d="M47.269,25.299c-0.949,0-1.697-0.289-2.246-0.867s-0.824-1.381-0.824-2.408c0-1.035,0.256-1.857,0.766-2.467
		s1.193-0.914,2.053-0.914c0.805,0,1.441,0.265,1.91,0.794s0.703,1.228,0.703,2.095v0.615h-4.424
		c0.02,0.754,0.211,1.326,0.572,1.717s0.869,0.586,1.525,0.586c0.691,0,1.375-0.145,2.051-0.434v0.867
		c-0.344,0.148-0.668,0.255-0.975,0.319S47.703,25.299,47.269,25.299z M47.005,19.457c-0.516,0-0.926,0.168-1.232,0.504
		s-0.488,0.801-0.543,1.395h3.357c0-0.613-0.137-1.083-0.41-1.409S47.513,19.457,47.005,19.457z"/>
	<path d="M55.732,23.43c0,0.598-0.223,1.059-0.668,1.383s-1.07,0.486-1.875,0.486c-0.852,0-1.516-0.135-1.992-0.404v-0.902
		c0.309,0.156,0.641,0.279,0.994,0.369s0.693,0.135,1.021,0.135c0.508,0,0.898-0.081,1.172-0.243s0.41-0.409,0.41-0.741
		c0-0.25-0.107-0.464-0.324-0.642s-0.641-0.388-1.27-0.63c-0.598-0.223-1.021-0.417-1.273-0.583s-0.439-0.354-0.562-0.565
		s-0.186-0.463-0.186-0.756c0-0.523,0.213-0.937,0.639-1.239s1.01-0.454,1.752-0.454c0.691,0,1.367,0.141,2.027,0.422l-0.346,0.791
		c-0.645-0.266-1.229-0.398-1.752-0.398c-0.461,0-0.809,0.072-1.043,0.217s-0.352,0.344-0.352,0.598
		c0,0.172,0.045,0.318,0.133,0.439s0.229,0.236,0.424,0.346s0.57,0.268,1.125,0.475c0.762,0.277,1.277,0.557,1.545,0.838
		S55.732,23.004,55.732,23.43z"/>
	<path d="M62.009,25.182v-4.154c0-0.523-0.119-0.914-0.357-1.172s-0.611-0.387-1.119-0.387c-0.676,0-1.17,0.184-1.48,0.551
		s-0.465,0.969-0.465,1.805v3.357h-0.973v-9.117h0.973v2.76c0,0.332-0.016,0.607-0.047,0.826h0.059
		c0.191-0.309,0.463-0.552,0.816-0.729s0.758-0.267,1.211-0.267c0.785,0,1.373,0.187,1.766,0.56s0.59,0.966,0.59,1.778v4.189H62.009
		z"/>
	<path d="M71.591,19.516h-1.635v5.666h-0.973v-5.666h-1.148v-0.439l1.148-0.352v-0.357c0-1.578,0.689-2.367,2.068-2.367
		c0.34,0,0.738,0.068,1.195,0.205l-0.252,0.779c-0.375-0.121-0.695-0.182-0.961-0.182c-0.367,0-0.639,0.122-0.814,0.366
		s-0.264,0.636-0.264,1.175v0.416h1.635V19.516z"/>
	<path d="M75.992,18.643c0.285,0,0.541,0.023,0.768,0.07l-0.135,0.902c-0.266-0.059-0.5-0.088-0.703-0.088
		c-0.52,0-0.963,0.211-1.332,0.633s-0.555,0.947-0.555,1.576v3.445h-0.973V18.76h0.803l0.111,1.189h0.047
		c0.238-0.418,0.525-0.74,0.861-0.967S75.589,18.643,75.992,18.643z"/>
	<path d="M79.175,18.76v4.166c0,0.523,0.119,0.914,0.357,1.172s0.611,0.387,1.119,0.387c0.672,0,1.164-0.184,1.475-0.551
		s0.465-0.967,0.465-1.799V18.76h0.973v6.422h-0.803l-0.141-0.861h-0.053c-0.199,0.316-0.475,0.559-0.828,0.727
		s-0.758,0.252-1.211,0.252c-0.781,0-1.365-0.186-1.754-0.557s-0.584-0.965-0.584-1.781V18.76H79.175z"/>
	<path d="M85.845,17.02c0-0.223,0.055-0.386,0.164-0.489s0.246-0.155,0.41-0.155c0.156,0,0.291,0.053,0.404,0.158
		s0.17,0.268,0.17,0.486s-0.057,0.382-0.17,0.489s-0.248,0.161-0.404,0.161c-0.164,0-0.301-0.054-0.41-0.161
		S85.845,17.238,85.845,17.02z M86.9,25.182h-0.973V18.76H86.9V25.182z"/>
	<path d="M91.335,24.496c0.172,0,0.338-0.013,0.498-0.038s0.287-0.052,0.381-0.079v0.744c-0.105,0.051-0.26,0.093-0.465,0.126
		s-0.391,0.05-0.555,0.05c-1.242,0-1.863-0.654-1.863-1.963v-3.82h-0.92v-0.469l0.92-0.404l0.41-1.371h0.562v1.488h1.863v0.756
		h-1.863v3.779c0,0.387,0.092,0.684,0.275,0.891S91.015,24.496,91.335,24.496z"/>
	<path d="M97.941,23.43c0,0.598-0.223,1.059-0.668,1.383s-1.07,0.486-1.875,0.486c-0.852,0-1.516-0.135-1.992-0.404v-0.902
		c0.309,0.156,0.639,0.279,0.992,0.369s0.695,0.135,1.023,0.135c0.508,0,0.898-0.081,1.172-0.243s0.41-0.409,0.41-0.741
		c0-0.25-0.109-0.464-0.326-0.642s-0.639-0.388-1.268-0.63c-0.598-0.223-1.023-0.417-1.275-0.583s-0.439-0.354-0.562-0.565
		s-0.184-0.463-0.184-0.756c0-0.523,0.213-0.937,0.639-1.239s1.01-0.454,1.752-0.454c0.691,0,1.367,0.141,2.027,0.422l-0.346,0.791
		c-0.645-0.266-1.229-0.398-1.752-0.398c-0.461,0-0.809,0.072-1.043,0.217s-0.352,0.344-0.352,0.598
		c0,0.172,0.043,0.318,0.131,0.439s0.23,0.236,0.426,0.346s0.57,0.268,1.125,0.475c0.762,0.277,1.275,0.557,1.543,0.838
		S97.941,23.004,97.941,23.43z"/>
	<path d="M105.314,24.496c0.172,0,0.338-0.013,0.498-0.038s0.287-0.052,0.381-0.079v0.744c-0.105,0.051-0.26,0.093-0.465,0.126
		s-0.391,0.05-0.555,0.05c-1.242,0-1.863-0.654-1.863-1.963v-3.82h-0.92v-0.469l0.92-0.404l0.41-1.371h0.562v1.488h1.863v0.756
		h-1.863v3.779c0,0.387,0.092,0.684,0.275,0.891S104.994,24.496,105.314,24.496z"/>
	<path d="M113.32,21.965c0,1.047-0.264,1.864-0.791,2.452s-1.256,0.882-2.186,0.882c-0.574,0-1.084-0.135-1.529-0.404
		s-0.789-0.656-1.031-1.16s-0.363-1.094-0.363-1.77c0-1.047,0.262-1.862,0.785-2.446s1.25-0.876,2.18-0.876
		c0.898,0,1.611,0.299,2.141,0.896S113.32,20.945,113.32,21.965z M108.427,21.965c0,0.82,0.164,1.445,0.492,1.875
		s0.811,0.645,1.447,0.645s1.119-0.214,1.449-0.642s0.496-1.054,0.496-1.878c0-0.816-0.166-1.437-0.496-1.86
		s-0.816-0.636-1.461-0.636c-0.637,0-1.117,0.209-1.441,0.627S108.427,21.137,108.427,21.965z"/>
	<path d="M121.308,25.299c-0.93,0-1.65-0.286-2.16-0.858s-0.764-1.382-0.764-2.429c0-1.074,0.258-1.904,0.775-2.49
		s1.256-0.879,2.213-0.879c0.309,0,0.617,0.033,0.926,0.1s0.551,0.145,0.727,0.234l-0.299,0.826
		c-0.215-0.086-0.449-0.157-0.703-0.214s-0.479-0.085-0.674-0.085c-1.305,0-1.957,0.832-1.957,2.496
		c0,0.789,0.158,1.395,0.477,1.816s0.791,0.633,1.416,0.633c0.535,0,1.084-0.115,1.646-0.346v0.861
		C122.501,25.188,121.96,25.299,121.308,25.299z"/>
	<path d="M129.148,25.182v-4.154c0-0.523-0.119-0.914-0.357-1.172s-0.611-0.387-1.119-0.387c-0.676,0-1.168,0.184-1.479,0.551
		s-0.467,0.969-0.467,1.805v3.357h-0.973v-9.117h0.973v2.76c0,0.332-0.016,0.607-0.047,0.826h0.059
		c0.191-0.309,0.465-0.552,0.818-0.729s0.756-0.267,1.209-0.267c0.785,0,1.375,0.187,1.768,0.56s0.588,0.966,0.588,1.778v4.189
		H129.148z"/>
	<path d="M137.962,21.965c0,1.047-0.264,1.864-0.791,2.452s-1.256,0.882-2.186,0.882c-0.574,0-1.084-0.135-1.529-0.404
		s-0.789-0.656-1.031-1.16s-0.363-1.094-0.363-1.77c0-1.047,0.262-1.862,0.785-2.446s1.25-0.876,2.18-0.876
		c0.898,0,1.613,0.299,2.143,0.896S137.962,20.945,137.962,21.965z M133.07,21.965c0,0.82,0.164,1.445,0.492,1.875
		s0.811,0.645,1.447,0.645s1.121-0.214,1.451-0.642s0.494-1.054,0.494-1.878c0-0.816-0.164-1.437-0.494-1.86
		s-0.818-0.636-1.463-0.636c-0.637,0-1.117,0.209-1.441,0.627S133.07,21.137,133.07,21.965z"/>
	<path d="M142.535,25.299c-0.93,0-1.65-0.286-2.16-0.858s-0.764-1.382-0.764-2.429c0-1.074,0.258-1.904,0.775-2.49
		s1.256-0.879,2.213-0.879c0.309,0,0.617,0.033,0.926,0.1s0.551,0.145,0.727,0.234l-0.299,0.826
		c-0.215-0.086-0.449-0.157-0.703-0.214s-0.479-0.085-0.674-0.085c-1.305,0-1.957,0.832-1.957,2.496
		c0,0.789,0.158,1.395,0.477,1.816s0.791,0.633,1.416,0.633c0.535,0,1.084-0.115,1.646-0.346v0.861
		C143.728,25.188,143.187,25.299,142.535,25.299z"/>
	<path d="M151.523,21.965c0,1.047-0.264,1.864-0.791,2.452s-1.256,0.882-2.186,0.882c-0.574,0-1.084-0.135-1.529-0.404
		s-0.789-0.656-1.031-1.16s-0.363-1.094-0.363-1.77c0-1.047,0.262-1.862,0.785-2.446s1.25-0.876,2.18-0.876
		c0.898,0,1.613,0.299,2.143,0.896S151.523,20.945,151.523,21.965z M146.63,21.965c0,0.82,0.164,1.445,0.492,1.875
		s0.811,0.645,1.447,0.645s1.121-0.214,1.451-0.642s0.494-1.054,0.494-1.878c0-0.816-0.164-1.437-0.494-1.86
		s-0.818-0.636-1.463-0.636c-0.637,0-1.117,0.209-1.441,0.627S146.63,21.137,146.63,21.965z"/>
	<path d="M154.501,25.182h-0.973v-9.117h0.973V25.182z"/>
	<path d="M160.812,25.182l-0.193-0.914h-0.047c-0.32,0.402-0.639,0.675-0.957,0.817s-0.717,0.214-1.193,0.214
		c-0.637,0-1.135-0.164-1.496-0.492s-0.543-0.795-0.543-1.4c0-1.297,1.037-1.977,3.111-2.039l1.09-0.035v-0.398
		c0-0.504-0.107-0.876-0.324-1.116s-0.564-0.36-1.041-0.36c-0.535,0-1.141,0.164-1.816,0.492l-0.299-0.744
		c0.316-0.172,0.664-0.307,1.041-0.404s0.754-0.146,1.133-0.146c0.766,0,1.334,0.17,1.703,0.51s0.553,0.885,0.553,1.635v4.383
		H160.812z M158.615,24.496c0.605,0,1.082-0.166,1.428-0.498s0.518-0.797,0.518-1.395v-0.58l-0.973,0.041
		c-0.773,0.027-1.33,0.147-1.672,0.36s-0.514,0.544-0.514,0.993c0,0.352,0.107,0.619,0.32,0.803S158.232,24.496,158.615,24.496z"/>
	<path d="M165.912,24.496c0.172,0,0.338-0.013,0.498-0.038s0.287-0.052,0.381-0.079v0.744c-0.105,0.051-0.26,0.093-0.465,0.126
		s-0.391,0.05-0.555,0.05c-1.242,0-1.863-0.654-1.863-1.963v-3.82h-0.92v-0.469l0.92-0.404l0.41-1.371h0.562v1.488h1.863v0.756
		h-1.863v3.779c0,0.387,0.092,0.684,0.275,0.891S165.591,24.496,165.912,24.496z"/>
	<path d="M171.087,25.299c-0.949,0-1.699-0.289-2.248-0.867s-0.822-1.381-0.822-2.408c0-1.035,0.254-1.857,0.764-2.467
		s1.195-0.914,2.055-0.914c0.805,0,1.441,0.265,1.91,0.794s0.703,1.228,0.703,2.095v0.615h-4.424c0.02,0.754,0.209,1.326,0.57,1.717
		s0.871,0.586,1.527,0.586c0.691,0,1.375-0.145,2.051-0.434v0.867c-0.344,0.148-0.67,0.255-0.977,0.319
		S171.521,25.299,171.087,25.299z M170.824,19.457c-0.516,0-0.928,0.168-1.234,0.504s-0.486,0.801-0.541,1.395h3.357
		c0-0.613-0.137-1.083-0.41-1.409S171.332,19.457,170.824,19.457z"/>
	<path d="M182.773,25.182l-0.193-0.914h-0.047c-0.32,0.402-0.641,0.675-0.959,0.817s-0.715,0.214-1.191,0.214
		c-0.637,0-1.137-0.164-1.498-0.492s-0.541-0.795-0.541-1.4c0-1.297,1.037-1.977,3.111-2.039l1.09-0.035v-0.398
		c0-0.504-0.109-0.876-0.326-1.116s-0.562-0.36-1.039-0.36c-0.535,0-1.141,0.164-1.816,0.492l-0.299-0.744
		c0.316-0.172,0.662-0.307,1.039-0.404s0.756-0.146,1.135-0.146c0.766,0,1.332,0.17,1.701,0.51s0.555,0.885,0.555,1.635v4.383
		H182.773z M180.576,24.496c0.605,0,1.08-0.166,1.426-0.498s0.52-0.797,0.52-1.395v-0.58l-0.973,0.041
		c-0.773,0.027-1.332,0.147-1.674,0.36s-0.512,0.544-0.512,0.993c0,0.352,0.105,0.619,0.318,0.803S180.193,24.496,180.576,24.496z"
		/>
	<path d="M190.191,25.182v-4.154c0-0.523-0.119-0.914-0.357-1.172s-0.611-0.387-1.119-0.387c-0.672,0-1.164,0.182-1.477,0.545
		s-0.469,0.963-0.469,1.799v3.369h-0.973V18.76h0.791l0.158,0.879h0.047c0.199-0.316,0.479-0.562,0.838-0.735
		s0.76-0.261,1.201-0.261c0.773,0,1.355,0.187,1.746,0.56s0.586,0.97,0.586,1.79v4.189H190.191z"/>
	<path d="M197.833,24.32h-0.053c-0.449,0.652-1.121,0.979-2.016,0.979c-0.84,0-1.492-0.287-1.959-0.861s-0.701-1.391-0.701-2.449
		s0.234-1.881,0.703-2.467s1.121-0.879,1.957-0.879c0.871,0,1.539,0.316,2.004,0.949h0.076l-0.041-0.463l-0.023-0.451v-2.613h0.973
		v9.117h-0.791L197.833,24.32z M195.888,24.484c0.664,0,1.146-0.181,1.445-0.542s0.447-0.944,0.447-1.749v-0.205
		c0-0.91-0.15-1.56-0.453-1.948s-0.787-0.583-1.451-0.583c-0.57,0-1.006,0.222-1.309,0.665s-0.455,1.069-0.455,1.878
		c0,0.82,0.15,1.439,0.451,1.857S195.306,24.484,195.888,24.484z"/>
	<path d="M5.016,39.43c0,0.598-0.223,1.059-0.668,1.383s-1.07,0.486-1.875,0.486c-0.852,0-1.516-0.135-1.992-0.404v-0.902
		c0.309,0.156,0.64,0.279,0.993,0.369s0.694,0.135,1.022,0.135c0.508,0,0.898-0.081,1.172-0.243s0.41-0.409,0.41-0.741
		c0-0.25-0.108-0.464-0.325-0.642s-0.64-0.388-1.269-0.63c-0.598-0.223-1.022-0.417-1.274-0.583s-0.439-0.354-0.562-0.565
		s-0.185-0.463-0.185-0.756c0-0.523,0.213-0.937,0.639-1.239s1.01-0.454,1.752-0.454c0.691,0,1.367,0.141,2.027,0.422l-0.346,0.791
		c-0.645-0.266-1.229-0.398-1.752-0.398c-0.461,0-0.809,0.072-1.043,0.217s-0.352,0.344-0.352,0.598
		c0,0.172,0.044,0.318,0.132,0.439s0.229,0.236,0.425,0.346s0.57,0.268,1.125,0.475c0.762,0.277,1.276,0.557,1.544,0.838
		S5.016,39.004,5.016,39.43z"/>
	<path d="M12.142,41.182l-1.178-3.768c-0.074-0.23-0.213-0.754-0.416-1.57h-0.047c-0.156,0.684-0.293,1.211-0.41,1.582l-1.213,3.756
		H7.753L6.001,34.76h1.02c0.414,1.613,0.729,2.842,0.946,3.686s0.341,1.412,0.372,1.705h0.047c0.043-0.223,0.112-0.511,0.208-0.864
		s0.179-0.634,0.249-0.841l1.178-3.686h1.055l1.148,3.686c0.219,0.672,0.367,1.236,0.445,1.693h0.047
		c0.016-0.141,0.058-0.357,0.126-0.65s0.476-1.869,1.222-4.729h1.008l-1.775,6.422H12.142z"/>
	<path d="M19.244,41.299c-0.949,0-1.698-0.289-2.247-0.867s-0.823-1.381-0.823-2.408c0-1.035,0.255-1.857,0.765-2.467
		s1.194-0.914,2.054-0.914c0.805,0,1.441,0.265,1.91,0.794s0.703,1.228,0.703,2.095v0.615h-4.424c0.02,0.754,0.21,1.326,0.571,1.717
		s0.87,0.586,1.526,0.586c0.691,0,1.375-0.145,2.051-0.434v0.867c-0.344,0.148-0.669,0.255-0.976,0.319S19.678,41.299,19.244,41.299
		z M18.98,35.457c-0.516,0-0.927,0.168-1.233,0.504s-0.487,0.801-0.542,1.395h3.357c0-0.613-0.137-1.083-0.41-1.409
		S19.488,35.457,18.98,35.457z"/>
	<path d="M26.277,41.299c-0.949,0-1.698-0.289-2.247-0.867s-0.823-1.381-0.823-2.408c0-1.035,0.255-1.857,0.765-2.467
		s1.194-0.914,2.054-0.914c0.805,0,1.441,0.265,1.91,0.794c0.469,0.529,0.703,1.228,0.703,2.095v0.615h-4.423
		c0.02,0.754,0.21,1.326,0.571,1.717s0.87,0.586,1.526,0.586c0.691,0,1.375-0.145,2.05-0.434v0.867
		c-0.344,0.148-0.668,0.255-0.975,0.319S26.711,41.299,26.277,41.299z M26.014,35.457c-0.516,0-0.927,0.168-1.233,0.504
		s-0.487,0.801-0.542,1.395h3.357c0-0.613-0.137-1.083-0.41-1.409S26.521,35.457,26.014,35.457z"/>
	<path d="M32.671,40.496c0.172,0,0.338-0.013,0.498-0.038s0.287-0.052,0.381-0.079v0.744c-0.105,0.051-0.262,0.093-0.467,0.126
		s-0.389,0.05-0.553,0.05c-1.242,0-1.863-0.654-1.863-1.963v-3.82h-0.92v-0.469l0.92-0.404l0.41-1.371h0.562v1.488h1.863v0.756
		H31.64v3.779c0,0.387,0.092,0.684,0.275,0.891S32.351,40.496,32.671,40.496z"/>
	<path d="M41.539,34.654c0.844,0,1.498,0.288,1.965,0.864s0.701,1.392,0.701,2.446s-0.236,1.874-0.707,2.458
		s-1.123,0.876-1.959,0.876c-0.418,0-0.801-0.077-1.146-0.231s-0.635-0.392-0.869-0.712h-0.07l-0.205,0.826H38.55v-9.117h0.973
		v2.215c0,0.496-0.016,0.941-0.047,1.336h0.047C39.976,34.975,40.648,34.654,41.539,34.654z M41.398,35.469
		c-0.664,0-1.143,0.19-1.436,0.571s-0.439,1.022-0.439,1.925s0.15,1.548,0.451,1.937s0.783,0.583,1.447,0.583
		c0.598,0,1.043-0.218,1.336-0.653s0.439-1.062,0.439-1.878c0-0.836-0.146-1.459-0.439-1.869S42.011,35.469,41.398,35.469z"/>
	<path d="M48.916,41.299c-0.949,0-1.697-0.289-2.246-0.867s-0.824-1.381-0.824-2.408c0-1.035,0.256-1.857,0.766-2.467
		s1.193-0.914,2.053-0.914c0.805,0,1.441,0.265,1.91,0.794s0.703,1.228,0.703,2.095v0.615h-4.424
		c0.02,0.754,0.211,1.326,0.572,1.717s0.869,0.586,1.525,0.586c0.691,0,1.375-0.145,2.051-0.434v0.867
		c-0.344,0.148-0.668,0.255-0.975,0.319S49.349,41.299,48.916,41.299z M48.652,35.457c-0.516,0-0.926,0.168-1.232,0.504
		s-0.488,0.801-0.543,1.395h3.357c0-0.613-0.137-1.083-0.41-1.409S49.16,35.457,48.652,35.457z"/>
	<path d="M57.185,41.182l-0.193-0.914h-0.047c-0.32,0.402-0.639,0.675-0.957,0.817s-0.717,0.214-1.193,0.214
		c-0.637,0-1.135-0.164-1.496-0.492s-0.543-0.795-0.543-1.4c0-1.297,1.037-1.977,3.111-2.039l1.09-0.035v-0.398
		c0-0.504-0.107-0.876-0.324-1.116s-0.564-0.36-1.041-0.36c-0.535,0-1.141,0.164-1.816,0.492l-0.299-0.744
		c0.316-0.172,0.664-0.307,1.041-0.404s0.754-0.146,1.133-0.146c0.766,0,1.334,0.17,1.703,0.51s0.553,0.885,0.553,1.635v4.383
		H57.185z M54.988,40.496c0.605,0,1.082-0.166,1.428-0.498s0.518-0.797,0.518-1.395v-0.58l-0.973,0.041
		c-0.773,0.027-1.33,0.147-1.672,0.36s-0.514,0.544-0.514,0.993c0,0.352,0.107,0.619,0.32,0.803S54.605,40.496,54.988,40.496z"/>
	<path d="M64.605,41.182v-4.154c0-0.523-0.119-0.914-0.357-1.172s-0.611-0.387-1.119-0.387c-0.672,0-1.164,0.182-1.477,0.545
		s-0.469,0.963-0.469,1.799v3.369H60.21V34.76h0.791l0.158,0.879h0.047c0.199-0.316,0.479-0.562,0.838-0.735s0.76-0.261,1.201-0.261
		c0.773,0,1.355,0.187,1.746,0.56s0.586,0.97,0.586,1.79v4.189H64.605z"/>
	<path d="M72.017,39.43c0,0.598-0.223,1.059-0.668,1.383s-1.07,0.486-1.875,0.486c-0.852,0-1.516-0.135-1.992-0.404v-0.902
		c0.309,0.156,0.641,0.279,0.994,0.369s0.693,0.135,1.021,0.135c0.508,0,0.898-0.081,1.172-0.243s0.41-0.409,0.41-0.741
		c0-0.25-0.107-0.464-0.324-0.642s-0.641-0.388-1.27-0.63c-0.598-0.223-1.021-0.417-1.273-0.583s-0.439-0.354-0.562-0.565
		s-0.186-0.463-0.186-0.756c0-0.523,0.213-0.937,0.639-1.239s1.01-0.454,1.752-0.454c0.691,0,1.367,0.141,2.027,0.422l-0.346,0.791
		c-0.645-0.266-1.229-0.398-1.752-0.398c-0.461,0-0.809,0.072-1.043,0.217s-0.352,0.344-0.352,0.598
		c0,0.172,0.045,0.318,0.133,0.439s0.229,0.236,0.424,0.346s0.57,0.268,1.125,0.475c0.762,0.277,1.277,0.557,1.545,0.838
		S72.017,39.004,72.017,39.43z"/>
	<path d="M73.759,40.561c0-0.262,0.059-0.46,0.178-0.595s0.291-0.202,0.514-0.202c0.227,0,0.402,0.067,0.529,0.202
		s0.191,0.333,0.191,0.595c0,0.254-0.064,0.449-0.193,0.586s-0.305,0.205-0.527,0.205c-0.199,0-0.365-0.062-0.496-0.185
		S73.759,40.842,73.759,40.561z"/>
</g>
</svg>