<!-- Generator: Adobe Illustrator 21.0.0, SVG Export Plug-In  -->
<svg version="1.1"
	 xmlns="http://www.w3.org/2000/svg" xmlns:xlink="http://www.w3.org/1999/xlink" xmlns:a="http://ns.adobe.com/AdobeSVGViewerExtensions/3.0/"
	 x="0px" y="0px" width="132.843px" height="59.52px" viewBox="0 0 132.843 59.52"
	 style="enable-background:new 0 0 132.843 59.52;" xml:space="preserve">
<defs>
</defs>
<g>
	<path d="M6.445,9.117L5.59,6.738H2.314L1.477,9.117H0l3.205-8.602h1.523l3.205,8.602H6.445z M5.221,5.531L4.418,3.199
		c-0.059-0.156-0.14-0.402-0.243-0.738S4,1.879,3.961,1.723c-0.105,0.48-0.26,1.006-0.463,1.576L2.725,5.531H5.221z"/>
	<path d="M10.595,9.117H9.218V0h1.377V9.117z"/>
	<path d="M14.24,9.117h-1.377V0h1.377V9.117z"/>
	<path d="M19.34,9.234c-1.008,0-1.796-0.294-2.364-0.882s-0.853-1.397-0.853-2.429c0-1.059,0.264-1.891,0.791-2.496
		s1.252-0.908,2.174-0.908c0.855,0,1.531,0.26,2.027,0.779s0.744,1.234,0.744,2.145v0.744h-4.318c0.02,0.629,0.189,1.112,0.51,1.45
		s0.771,0.507,1.354,0.507c0.383,0,0.739-0.036,1.069-0.108s0.685-0.192,1.063-0.36v1.119c-0.336,0.16-0.676,0.273-1.02,0.34
		S19.781,9.234,19.34,9.234z M19.088,3.562c-0.438,0-0.788,0.139-1.052,0.416s-0.421,0.682-0.472,1.213h2.941
		c-0.008-0.535-0.137-0.94-0.387-1.216S19.525,3.562,19.088,3.562z"/>
	<path d="M27.011,2.52c0.277,0,0.506,0.02,0.686,0.059l-0.135,1.283c-0.195-0.047-0.398-0.07-0.609-0.07
		c-0.551,0-0.997,0.18-1.339,0.539s-0.513,0.826-0.513,1.4v3.387h-1.377v-6.48h1.078l0.182,1.143h0.07
		c0.215-0.387,0.495-0.693,0.841-0.92S26.612,2.52,27.011,2.52z"/>
	<path d="M34.67,2.637v0.756l-1.107,0.205c0.102,0.137,0.186,0.305,0.252,0.504s0.1,0.41,0.1,0.633c0,0.668-0.23,1.193-0.691,1.576
		s-1.096,0.574-1.904,0.574c-0.207,0-0.395-0.016-0.562-0.047c-0.297,0.184-0.445,0.398-0.445,0.645c0,0.148,0.069,0.26,0.208,0.334
		s0.394,0.111,0.765,0.111h1.131c0.715,0,1.258,0.152,1.629,0.457S34.6,9.129,34.6,9.703c0,0.734-0.303,1.301-0.908,1.699
		S32.211,12,31.066,12c-0.883,0-1.557-0.156-2.021-0.469s-0.697-0.758-0.697-1.336c0-0.398,0.126-0.733,0.378-1.005
		s0.604-0.46,1.058-0.565c-0.184-0.078-0.335-0.204-0.454-0.378S29.15,7.891,29.15,7.699c0-0.242,0.068-0.447,0.205-0.615
		s0.34-0.334,0.609-0.498c-0.336-0.145-0.608-0.38-0.817-0.706s-0.313-0.708-0.313-1.146c0-0.703,0.222-1.248,0.665-1.635
		s1.075-0.58,1.896-0.58c0.184,0,0.376,0.013,0.577,0.038s0.353,0.052,0.454,0.079H34.67z M29.578,10.125
		c0,0.297,0.134,0.525,0.401,0.686s0.644,0.24,1.128,0.24c0.75,0,1.309-0.107,1.676-0.322s0.551-0.5,0.551-0.855
		c0-0.281-0.101-0.481-0.302-0.601s-0.575-0.179-1.122-0.179h-1.043c-0.395,0-0.708,0.093-0.94,0.278S29.578,9.809,29.578,10.125z
		 M30.17,4.734c0,0.406,0.104,0.719,0.313,0.938S30.992,6,31.383,6c0.797,0,1.195-0.426,1.195-1.277
		c0-0.422-0.099-0.747-0.296-0.976s-0.497-0.343-0.899-0.343c-0.398,0-0.7,0.113-0.905,0.34S30.17,4.301,30.17,4.734z"/>
	<path d="M35.187,2.637h1.5l1.318,3.674c0.199,0.523,0.332,1.016,0.398,1.477h0.047c0.035-0.215,0.1-0.476,0.193-0.782
		s0.59-1.763,1.488-4.368h1.488l-2.771,7.342C38.345,11.326,37.505,12,36.329,12c-0.305,0-0.602-0.033-0.891-0.1v-1.09
		c0.207,0.047,0.443,0.07,0.709,0.07c0.664,0,1.131-0.385,1.4-1.154l0.24-0.609L35.187,2.637z"/>
	<path d="M50.377,9.117l-0.275-0.902h-0.047c-0.312,0.395-0.627,0.663-0.943,0.806s-0.723,0.214-1.219,0.214
		c-0.637,0-1.134-0.172-1.491-0.516s-0.536-0.83-0.536-1.459c0-0.668,0.248-1.172,0.744-1.512s1.252-0.525,2.268-0.557l1.119-0.035
		V4.811c0-0.414-0.097-0.724-0.29-0.929s-0.493-0.308-0.899-0.308c-0.332,0-0.65,0.049-0.955,0.146s-0.598,0.213-0.879,0.346
		l-0.445-0.984c0.352-0.184,0.736-0.323,1.154-0.419s0.812-0.144,1.184-0.144c0.824,0,1.446,0.18,1.866,0.539s0.63,0.924,0.63,1.693
		v4.365H50.377z M48.326,8.18c0.5,0,0.901-0.14,1.204-0.419s0.454-0.671,0.454-1.175V6.023l-0.832,0.035
		c-0.648,0.023-1.12,0.132-1.415,0.325s-0.442,0.489-0.442,0.888c0,0.289,0.086,0.513,0.258,0.671S47.982,8.18,48.326,8.18z"/>
	<path d="M55.769,9.234c-0.809,0-1.439-0.293-1.893-0.879s-0.68-1.408-0.68-2.467c0-1.062,0.229-1.89,0.688-2.481
		s1.095-0.888,1.907-0.888c0.852,0,1.5,0.314,1.945,0.943h0.07c-0.066-0.465-0.1-0.832-0.1-1.102V0h1.383v9.117h-1.078l-0.24-0.85
		h-0.064C57.267,8.912,56.62,9.234,55.769,9.234z M56.138,8.121c0.566,0,0.979-0.159,1.236-0.478s0.391-0.835,0.398-1.55V5.9
		c0-0.816-0.133-1.396-0.398-1.74s-0.682-0.516-1.248-0.516c-0.484,0-0.857,0.196-1.119,0.589s-0.393,0.952-0.393,1.679
		c0,0.719,0.127,1.267,0.381,1.644S55.63,8.121,56.138,8.121z"/>
	<path d="M62.836,9.117l-2.461-6.48h1.453l1.318,3.768c0.227,0.633,0.363,1.145,0.41,1.535h0.047
		c0.035-0.281,0.172-0.793,0.41-1.535l1.318-3.768h1.465l-2.473,6.48H62.836z"/>
	<path d="M67.999,0.92c0-0.246,0.067-0.436,0.202-0.568s0.327-0.199,0.577-0.199c0.242,0,0.431,0.066,0.565,0.199
		s0.202,0.322,0.202,0.568c0,0.234-0.067,0.419-0.202,0.554s-0.323,0.202-0.565,0.202c-0.25,0-0.442-0.067-0.577-0.202
		S67.999,1.154,67.999,0.92z M69.458,9.117h-1.377v-6.48h1.377V9.117z"/>
	<path d="M74.34,9.234c-0.98,0-1.726-0.286-2.235-0.858S71.34,6.982,71.34,5.912c0-1.09,0.267-1.928,0.8-2.514
		s1.304-0.879,2.312-0.879c0.684,0,1.299,0.127,1.846,0.381l-0.416,1.107c-0.582-0.227-1.062-0.34-1.441-0.34
		c-1.121,0-1.682,0.744-1.682,2.232c0,0.727,0.14,1.272,0.419,1.638s0.688,0.548,1.228,0.548c0.613,0,1.193-0.152,1.74-0.457V8.83
		c-0.246,0.145-0.509,0.248-0.788,0.311S74.738,9.234,74.34,9.234z"/>
	<path d="M80.799,9.234c-1.008,0-1.796-0.294-2.364-0.882s-0.853-1.397-0.853-2.429c0-1.059,0.264-1.891,0.791-2.496
		s1.252-0.908,2.174-0.908c0.855,0,1.531,0.26,2.027,0.779s0.744,1.234,0.744,2.145v0.744H79c0.02,0.629,0.189,1.112,0.51,1.45
		s0.771,0.507,1.354,0.507c0.383,0,0.739-0.036,1.069-0.108s0.685-0.192,1.063-0.36v1.119c-0.336,0.16-0.676,0.273-1.02,0.34
		S81.24,9.234,80.799,9.234z M80.547,3.562c-0.438,0-0.788,0.139-1.052,0.416s-0.421,0.682-0.472,1.213h2.941
		c-0.008-0.535-0.137-0.94-0.387-1.216S80.984,3.562,80.547,3.562z"/>
	<path d="M4.312,23.657c0,0.498-0.186,0.882-0.557,1.152s-0.892,0.405-1.562,0.405c-0.71,0-1.263-0.112-1.66-0.337v-0.752
		c0.257,0.13,0.533,0.232,0.827,0.308c0.295,0.075,0.579,0.112,0.853,0.112c0.423,0,0.749-0.067,0.977-0.202
		c0.228-0.136,0.342-0.342,0.342-0.618c0-0.208-0.091-0.387-0.271-0.534c-0.182-0.148-0.533-0.323-1.058-0.525
		C1.704,22.48,1.35,22.318,1.141,22.18c-0.211-0.138-0.367-0.295-0.469-0.471c-0.104-0.176-0.154-0.386-0.154-0.63
		c0-0.437,0.178-0.78,0.532-1.032c0.354-0.253,0.842-0.379,1.46-0.379c0.576,0,1.14,0.117,1.689,0.352l-0.288,0.659
		c-0.537-0.222-1.023-0.332-1.46-0.332c-0.384,0-0.674,0.061-0.869,0.181s-0.293,0.286-0.293,0.498c0,0.144,0.037,0.266,0.109,0.366
		c0.074,0.101,0.191,0.197,0.354,0.288s0.476,0.223,0.938,0.396c0.635,0.231,1.063,0.464,1.286,0.698
		C4.2,23.008,4.312,23.303,4.312,23.657z"/>
	<path d="M10.499,22.437c0,0.872-0.22,1.554-0.659,2.044C9.4,24.97,8.793,25.215,8.019,25.215c-0.479,0-0.903-0.112-1.274-0.337
		s-0.657-0.547-0.859-0.967S5.582,23,5.582,22.437c0-0.872,0.218-1.552,0.654-2.038c0.437-0.487,1.042-0.73,1.816-0.73
		c0.749,0,1.344,0.249,1.784,0.747C10.278,20.913,10.499,21.587,10.499,22.437z M6.422,22.437c0,0.684,0.137,1.204,0.41,1.562
		s0.676,0.537,1.206,0.537s0.934-0.179,1.209-0.534c0.274-0.357,0.412-0.879,0.412-1.565c0-0.681-0.138-1.197-0.412-1.55
		c-0.275-0.354-0.682-0.53-1.219-0.53c-0.53,0-0.931,0.174-1.201,0.522S6.422,21.746,6.422,22.437z"/>
	<path d="M18.991,25.117v-3.481c0-0.427-0.091-0.746-0.273-0.96c-0.183-0.213-0.466-0.319-0.85-0.319
		c-0.505,0-0.877,0.145-1.118,0.435s-0.361,0.735-0.361,1.338v2.988h-0.811v-3.481c0-0.427-0.091-0.746-0.273-0.96
		c-0.183-0.213-0.467-0.319-0.854-0.319c-0.508,0-0.88,0.152-1.116,0.456c-0.235,0.305-0.354,0.804-0.354,1.497v2.808H12.17v-5.352
		h0.659l0.132,0.732H13c0.153-0.261,0.369-0.464,0.646-0.61c0.279-0.146,0.591-0.22,0.936-0.22c0.837,0,1.384,0.303,1.641,0.908
		h0.039c0.159-0.28,0.391-0.501,0.693-0.664s0.647-0.244,1.035-0.244c0.605,0,1.059,0.155,1.359,0.467
		c0.302,0.311,0.452,0.808,0.452,1.491v3.491H18.991z"/>
	<path d="M23.982,25.215c-0.791,0-1.415-0.241-1.872-0.723c-0.458-0.481-0.687-1.15-0.687-2.007c0-0.862,0.212-1.548,0.638-2.056
		c0.424-0.508,0.995-0.762,1.711-0.762c0.671,0,1.201,0.221,1.592,0.662c0.391,0.44,0.586,1.022,0.586,1.745v0.513h-3.687
		c0.017,0.628,0.175,1.105,0.476,1.431c0.302,0.325,0.726,0.488,1.272,0.488c0.576,0,1.146-0.12,1.709-0.361v0.723
		c-0.286,0.124-0.558,0.212-0.813,0.267C24.652,25.188,24.344,25.215,23.982,25.215z M23.763,20.347c-0.43,0-0.772,0.14-1.027,0.42
		c-0.256,0.28-0.406,0.667-0.452,1.162h2.798c0-0.511-0.114-0.902-0.342-1.175C24.512,20.482,24.186,20.347,23.763,20.347z"/>
	<path d="M32.92,25.215c-0.349,0-0.666-0.064-0.955-0.193c-0.287-0.128-0.529-0.326-0.725-0.593h-0.059
		c0.039,0.312,0.059,0.608,0.059,0.889v2.202H30.43v-7.754h0.659l0.112,0.732h0.039c0.208-0.293,0.451-0.505,0.728-0.635
		s0.594-0.195,0.952-0.195c0.71,0,1.258,0.242,1.643,0.728c0.387,0.485,0.579,1.165,0.579,2.041c0,0.879-0.196,1.562-0.589,2.048
		C34.161,24.972,33.616,25.215,32.92,25.215z M32.803,20.356c-0.547,0-0.942,0.151-1.187,0.454s-0.369,0.784-0.376,1.445v0.181
		c0,0.752,0.125,1.29,0.376,1.614c0.251,0.323,0.652,0.485,1.206,0.485c0.462,0,0.824-0.188,1.086-0.562
		c0.263-0.374,0.394-0.891,0.394-1.548c0-0.667-0.131-1.179-0.394-1.536C33.646,20.535,33.278,20.356,32.803,20.356z"/>
	<path d="M39.249,19.668c0.237,0,0.451,0.02,0.64,0.059l-0.112,0.752c-0.222-0.049-0.417-0.073-0.586-0.073
		c-0.433,0-0.803,0.176-1.111,0.527c-0.307,0.352-0.461,0.789-0.461,1.313v2.871h-0.811v-5.352h0.669l0.093,0.991h0.039
		c0.198-0.349,0.438-0.617,0.718-0.806S38.914,19.668,39.249,19.668z"/>
	<path d="M45.759,22.437c0,0.872-0.22,1.554-0.659,2.044c-0.439,0.489-1.047,0.734-1.821,0.734c-0.479,0-0.903-0.112-1.274-0.337
		s-0.657-0.547-0.859-0.967S40.842,23,40.842,22.437c0-0.872,0.218-1.552,0.654-2.038c0.437-0.487,1.042-0.73,1.816-0.73
		c0.749,0,1.344,0.249,1.784,0.747C45.538,20.913,45.759,21.587,45.759,22.437z M41.682,22.437c0,0.684,0.137,1.204,0.41,1.562
		s0.676,0.537,1.206,0.537s0.934-0.179,1.209-0.534c0.274-0.357,0.412-0.879,0.412-1.565c0-0.681-0.138-1.197-0.412-1.55
		c-0.275-0.354-0.682-0.53-1.219-0.53c-0.53,0-0.931,0.174-1.201,0.522S41.682,21.746,41.682,22.437z"/>
	<path d="M51.072,24.399h-0.044c-0.374,0.544-0.935,0.815-1.68,0.815c-0.7,0-1.244-0.239-1.634-0.718
		c-0.389-0.479-0.583-1.159-0.583-2.041s0.195-1.567,0.586-2.056s0.935-0.732,1.631-0.732c0.726,0,1.282,0.264,1.67,0.791h0.063
		l-0.034-0.386l-0.02-0.376V17.52h0.811v7.598H51.18L51.072,24.399z M49.451,24.536c0.554,0,0.955-0.15,1.203-0.452
		c0.25-0.301,0.374-0.786,0.374-1.457v-0.171c0-0.759-0.126-1.3-0.378-1.624c-0.253-0.323-0.655-0.485-1.209-0.485
		c-0.476,0-0.839,0.185-1.092,0.554c-0.252,0.37-0.378,0.892-0.378,1.565c0,0.684,0.125,1.199,0.376,1.548
		S48.966,24.536,49.451,24.536z"/>
	<path d="M54.569,19.766v3.472c0,0.437,0.1,0.762,0.298,0.977s0.51,0.322,0.933,0.322c0.56,0,0.969-0.153,1.229-0.459
		c0.258-0.306,0.388-0.806,0.388-1.499v-2.812h0.811v5.352h-0.669l-0.117-0.718h-0.044c-0.166,0.264-0.396,0.466-0.69,0.605
		c-0.295,0.14-0.631,0.21-1.009,0.21c-0.651,0-1.139-0.154-1.462-0.464c-0.324-0.31-0.486-0.804-0.486-1.484v-3.501H54.569z"/>
	<path d="M62.334,25.215c-0.774,0-1.375-0.238-1.799-0.715c-0.426-0.478-0.638-1.152-0.638-2.024c0-0.896,0.216-1.587,0.647-2.075
		c0.431-0.488,1.045-0.732,1.843-0.732c0.257,0,0.515,0.027,0.771,0.083s0.459,0.12,0.605,0.195l-0.249,0.688
		c-0.179-0.071-0.374-0.131-0.586-0.178c-0.212-0.048-0.398-0.071-0.562-0.071c-1.087,0-1.631,0.693-1.631,2.08
		c0,0.657,0.133,1.162,0.397,1.514c0.266,0.352,0.659,0.527,1.18,0.527c0.446,0,0.903-0.096,1.372-0.288v0.718
		C63.328,25.122,62.878,25.215,62.334,25.215z"/>
	<path d="M66.935,24.546c0.144,0,0.281-0.011,0.415-0.032c0.134-0.021,0.239-0.043,0.317-0.065v0.62
		c-0.088,0.042-0.217,0.077-0.389,0.105c-0.17,0.027-0.324,0.041-0.461,0.041c-1.035,0-1.553-0.545-1.553-1.636v-3.184h-0.767
		v-0.391l0.767-0.337l0.342-1.143h0.469v1.24h1.553v0.63h-1.553v3.149c0,0.322,0.076,0.569,0.229,0.742S66.668,24.546,66.935,24.546
		z"/>
	<path d="M72.438,23.657c0,0.498-0.186,0.882-0.557,1.152s-0.892,0.405-1.562,0.405c-0.71,0-1.263-0.112-1.66-0.337v-0.752
		c0.257,0.13,0.533,0.232,0.827,0.308c0.295,0.075,0.579,0.112,0.853,0.112c0.423,0,0.749-0.067,0.977-0.202
		c0.228-0.136,0.342-0.342,0.342-0.618c0-0.208-0.091-0.387-0.271-0.534c-0.182-0.148-0.533-0.323-1.058-0.525
		c-0.498-0.186-0.853-0.348-1.062-0.486c-0.211-0.138-0.367-0.295-0.469-0.471c-0.104-0.176-0.154-0.386-0.154-0.63
		c0-0.437,0.178-0.78,0.532-1.032c0.354-0.253,0.842-0.379,1.46-0.379c0.576,0,1.14,0.117,1.689,0.352l-0.288,0.659
		c-0.537-0.222-1.023-0.332-1.46-0.332c-0.384,0-0.674,0.061-0.869,0.181s-0.293,0.286-0.293,0.498c0,0.144,0.037,0.266,0.109,0.366
		c0.074,0.101,0.191,0.197,0.354,0.288s0.476,0.223,0.938,0.396c0.635,0.231,1.063,0.464,1.286,0.698
		C72.327,23.008,72.438,23.303,72.438,23.657z"/>
	<path d="M78.993,25.215c-0.774,0-1.375-0.238-1.799-0.715c-0.426-0.478-0.638-1.152-0.638-2.024c0-0.896,0.216-1.587,0.647-2.075
		c0.431-0.488,1.045-0.732,1.843-0.732c0.257,0,0.515,0.027,0.771,0.083s0.459,0.12,0.605,0.195l-0.249,0.688
		c-0.179-0.071-0.374-0.131-0.586-0.178c-0.212-0.048-0.398-0.071-0.562-0.071c-1.087,0-1.631,0.693-1.631,2.08
		c0,0.657,0.133,1.162,0.397,1.514c0.266,0.352,0.659,0.527,1.18,0.527c0.446,0,0.903-0.096,1.372-0.288v0.718
		C79.987,25.122,79.537,25.215,78.993,25.215z"/>
	<path d="M86.484,22.437c0,0.872-0.22,1.554-0.659,2.044c-0.439,0.489-1.047,0.734-1.821,0.734c-0.479,0-0.903-0.112-1.274-0.337
		s-0.657-0.547-0.859-0.967S81.567,23,81.567,22.437c0-0.872,0.218-1.552,0.654-2.038c0.437-0.487,1.042-0.73,1.816-0.73
		c0.749,0,1.344,0.249,1.784,0.747C86.264,20.913,86.484,21.587,86.484,22.437z M82.407,22.437c0,0.684,0.137,1.204,0.41,1.562
		s0.676,0.537,1.206,0.537s0.934-0.179,1.209-0.534c0.274-0.357,0.412-0.879,0.412-1.565c0-0.681-0.138-1.197-0.412-1.55
		c-0.275-0.354-0.682-0.53-1.219-0.53c-0.53,0-0.931,0.174-1.201,0.522S82.407,21.746,82.407,22.437z"/>
	<path d="M91.817,25.117v-3.462c0-0.437-0.1-0.762-0.298-0.977s-0.51-0.322-0.933-0.322c-0.56,0-0.97,0.151-1.23,0.454
		s-0.391,0.803-0.391,1.499v2.808h-0.811v-5.352h0.659l0.132,0.732h0.039c0.166-0.264,0.398-0.468,0.698-0.613
		c0.3-0.145,0.633-0.217,1.001-0.217c0.645,0,1.13,0.155,1.455,0.467c0.325,0.311,0.488,0.808,0.488,1.491v3.491H91.817z"/>
	<path d="M96.271,24.546c0.144,0,0.281-0.011,0.415-0.032c0.134-0.021,0.239-0.043,0.317-0.065v0.62
		c-0.088,0.042-0.217,0.077-0.389,0.105c-0.17,0.027-0.324,0.041-0.461,0.041c-1.035,0-1.553-0.545-1.553-1.636v-3.184h-0.767
		v-0.391l0.767-0.337l0.342-1.143h0.469v1.24h1.553v0.63h-1.553v3.149c0,0.322,0.076,0.569,0.229,0.742S96.005,24.546,96.271,24.546
		z"/>
	<path d="M101.614,25.117l-0.161-0.762h-0.039c-0.267,0.335-0.533,0.562-0.798,0.682c-0.266,0.118-0.597,0.178-0.994,0.178
		c-0.53,0-0.946-0.137-1.248-0.41c-0.301-0.273-0.451-0.662-0.451-1.167c0-1.081,0.864-1.647,2.593-1.699l0.908-0.029v-0.332
		c0-0.42-0.091-0.729-0.271-0.931c-0.182-0.199-0.47-0.3-0.867-0.3c-0.446,0-0.95,0.137-1.514,0.41l-0.249-0.62
		c0.264-0.144,0.553-0.256,0.866-0.337c0.314-0.081,0.63-0.122,0.945-0.122c0.638,0,1.111,0.142,1.418,0.425
		c0.309,0.283,0.462,0.737,0.462,1.362v3.652H101.614z M99.783,24.546c0.505,0,0.901-0.139,1.188-0.415
		c0.289-0.276,0.433-0.664,0.433-1.162v-0.483l-0.811,0.034c-0.645,0.022-1.109,0.123-1.394,0.301
		c-0.285,0.177-0.428,0.453-0.428,0.827c0,0.293,0.089,0.516,0.266,0.669C99.216,24.47,99.464,24.546,99.783,24.546z"/>
	<path d="M104.066,18.315c0-0.186,0.046-0.321,0.137-0.407c0.091-0.087,0.205-0.13,0.342-0.13c0.13,0,0.242,0.044,0.337,0.132
		s0.142,0.223,0.142,0.405s-0.047,0.318-0.142,0.407c-0.095,0.09-0.207,0.135-0.337,0.135c-0.137,0-0.251-0.045-0.342-0.135
		C104.112,18.634,104.066,18.498,104.066,18.315z M104.945,25.117h-0.811v-5.352h0.811V25.117z"/>
	<path d="M110.576,25.117v-3.462c0-0.437-0.1-0.762-0.298-0.977s-0.51-0.322-0.933-0.322c-0.56,0-0.97,0.151-1.23,0.454
		s-0.391,0.803-0.391,1.499v2.808h-0.811v-5.352h0.659l0.132,0.732h0.039c0.166-0.264,0.398-0.468,0.698-0.613
		c0.3-0.145,0.633-0.217,1.001-0.217c0.645,0,1.13,0.155,1.455,0.467c0.325,0.311,0.488,0.808,0.488,1.491v3.491H110.576z"/>
	<path d="M3.35,41.215c-0.349,0-0.666-0.064-0.955-0.193c-0.287-0.128-0.529-0.326-0.725-0.593H1.611
		c0.039,0.312,0.059,0.608,0.059,0.889v2.202H0.859v-7.754h0.659l0.112,0.732H1.67c0.208-0.293,0.451-0.505,0.728-0.635
		s0.594-0.195,0.952-0.195c0.71,0,1.258,0.242,1.643,0.728c0.387,0.485,0.579,1.165,0.579,2.041c0,0.879-0.196,1.562-0.589,2.048
		C4.591,40.972,4.046,41.215,3.35,41.215z M3.232,36.356c-0.547,0-0.942,0.151-1.187,0.454s-0.369,0.784-0.376,1.445v0.181
		c0,0.752,0.125,1.29,0.376,1.614c0.251,0.323,0.652,0.485,1.206,0.485c0.462,0,0.824-0.188,1.086-0.562
		c0.263-0.374,0.394-0.891,0.394-1.548c0-0.667-0.131-1.179-0.394-1.536C4.076,36.535,3.708,36.356,3.232,36.356z"/>
	<path d="M9.498,41.215c-0.791,0-1.415-0.241-1.872-0.723c-0.458-0.481-0.687-1.15-0.687-2.007c0-0.862,0.212-1.548,0.638-2.056
		c0.424-0.508,0.995-0.762,1.711-0.762c0.671,0,1.201,0.221,1.592,0.662c0.391,0.44,0.586,1.022,0.586,1.745v0.513H7.779
		c0.017,0.628,0.175,1.105,0.476,1.431c0.302,0.325,0.726,0.488,1.272,0.488c0.576,0,1.146-0.12,1.709-0.361v0.723
		c-0.286,0.124-0.558,0.212-0.813,0.267C10.168,41.188,9.859,41.215,9.498,41.215z M9.278,36.347c-0.43,0-0.772,0.14-1.027,0.42
		c-0.256,0.28-0.406,0.667-0.452,1.162h2.798c0-0.511-0.114-0.902-0.342-1.175C10.027,36.482,9.701,36.347,9.278,36.347z"/>
	<path d="M16.389,41.117l-0.161-0.762h-0.039c-0.267,0.335-0.533,0.562-0.798,0.682c-0.266,0.118-0.597,0.178-0.994,0.178
		c-0.53,0-0.946-0.137-1.248-0.41c-0.301-0.273-0.451-0.662-0.451-1.167c0-1.081,0.864-1.647,2.593-1.699l0.908-0.029v-0.332
		c0-0.42-0.091-0.729-0.271-0.931c-0.182-0.199-0.47-0.3-0.867-0.3c-0.446,0-0.95,0.137-1.514,0.41l-0.249-0.62
		c0.264-0.144,0.553-0.256,0.866-0.337c0.314-0.081,0.63-0.122,0.945-0.122c0.638,0,1.111,0.142,1.418,0.425
		c0.309,0.283,0.462,0.737,0.462,1.362v3.652H16.389z M14.558,40.546c0.505,0,0.901-0.139,1.188-0.415
		c0.289-0.276,0.433-0.664,0.433-1.162v-0.483l-0.811,0.034c-0.645,0.022-1.109,0.123-1.394,0.301
		c-0.285,0.177-0.428,0.453-0.428,0.827c0,0.293,0.089,0.516,0.266,0.669C13.99,40.47,14.238,40.546,14.558,40.546z"/>
	<path d="M22.571,41.117v-3.462c0-0.437-0.1-0.762-0.298-0.977s-0.51-0.322-0.933-0.322c-0.56,0-0.97,0.151-1.23,0.454
		s-0.391,0.803-0.391,1.499v2.808h-0.811v-5.352h0.659l0.132,0.732h0.039c0.166-0.264,0.398-0.468,0.698-0.613
		c0.3-0.145,0.633-0.217,1.001-0.217c0.645,0,1.13,0.155,1.455,0.467c0.325,0.311,0.488,0.808,0.488,1.491v3.491H22.571z"/>
	<path d="M26.059,35.766v3.472c0,0.437,0.1,0.762,0.298,0.977s0.51,0.322,0.933,0.322c0.56,0,0.969-0.153,1.229-0.459
		c0.258-0.306,0.388-0.806,0.388-1.499v-2.812h0.811v5.352h-0.669l-0.117-0.718h-0.044c-0.166,0.264-0.396,0.466-0.69,0.605
		c-0.295,0.14-0.631,0.21-1.009,0.21c-0.651,0-1.139-0.154-1.462-0.464c-0.324-0.31-0.486-0.804-0.486-1.484v-3.501H26.059z"/>
	<path d="M33.413,40.546c0.144,0,0.281-0.011,0.415-0.032c0.134-0.021,0.239-0.043,0.317-0.065v0.62
		c-0.088,0.042-0.217,0.077-0.389,0.105c-0.17,0.027-0.324,0.041-0.461,0.041c-1.035,0-1.553-0.545-1.553-1.636v-3.184h-0.767
		v-0.391l0.767-0.337l0.342-1.143h0.469v1.24h1.553v0.63h-1.553v3.149c0,0.322,0.076,0.569,0.229,0.742S33.146,40.546,33.413,40.546
		z"/>
	<path d="M40.803,41.215c-0.349,0-0.666-0.064-0.955-0.193c-0.287-0.128-0.529-0.326-0.725-0.593h-0.059
		c0.039,0.312,0.059,0.608,0.059,0.889v2.202h-0.811v-7.754h0.659l0.112,0.732h0.039c0.208-0.293,0.451-0.505,0.728-0.635
		s0.594-0.195,0.952-0.195c0.71,0,1.258,0.242,1.643,0.728c0.387,0.485,0.579,1.165,0.579,2.041c0,0.879-0.196,1.562-0.589,2.048
		C42.044,40.972,41.499,41.215,40.803,41.215z M40.686,36.356c-0.547,0-0.942,0.151-1.187,0.454s-0.369,0.784-0.376,1.445v0.181
		c0,0.752,0.125,1.29,0.376,1.614c0.251,0.323,0.652,0.485,1.206,0.485c0.462,0,0.824-0.188,1.086-0.562
		c0.263-0.374,0.394-0.891,0.394-1.548c0-0.667-0.131-1.179-0.394-1.536C41.529,36.535,41.161,36.356,40.686,36.356z"/>
	<path d="M47.132,35.668c0.237,0,0.451,0.02,0.64,0.059l-0.112,0.752c-0.222-0.049-0.417-0.073-0.586-0.073
		c-0.433,0-0.803,0.176-1.111,0.527c-0.307,0.352-0.461,0.789-0.461,1.313v2.871H44.69v-5.352h0.669l0.093,0.991h0.039
		c0.198-0.349,0.438-0.617,0.718-0.806S46.797,35.668,47.132,35.668z"/>
	<path d="M53.642,38.437c0,0.872-0.22,1.554-0.659,2.044c-0.439,0.489-1.047,0.734-1.821,0.734c-0.479,0-0.903-0.112-1.274-0.337
		s-0.657-0.547-0.859-0.967S48.725,39,48.725,38.437c0-0.872,0.218-1.552,0.654-2.038c0.437-0.487,1.042-0.73,1.816-0.73
		c0.749,0,1.344,0.249,1.784,0.747C53.421,36.913,53.642,37.587,53.642,38.437z M49.564,38.437c0,0.684,0.137,1.204,0.41,1.562
		s0.676,0.537,1.206,0.537s0.934-0.179,1.209-0.534c0.274-0.357,0.412-0.879,0.412-1.565c0-0.681-0.138-1.197-0.412-1.55
		c-0.275-0.354-0.682-0.53-1.219-0.53c-0.53,0-0.931,0.174-1.201,0.522S49.564,37.746,49.564,38.437z"/>
	<path d="M58.955,40.399h-0.044c-0.374,0.544-0.935,0.815-1.68,0.815c-0.7,0-1.244-0.239-1.634-0.718
		c-0.389-0.479-0.583-1.159-0.583-2.041s0.195-1.567,0.586-2.056s0.935-0.732,1.631-0.732c0.726,0,1.282,0.264,1.67,0.791h0.063
		l-0.034-0.386l-0.02-0.376V33.52h0.811v7.598h-0.659L58.955,40.399z M57.334,40.536c0.554,0,0.955-0.15,1.203-0.452
		c0.25-0.301,0.374-0.786,0.374-1.457v-0.171c0-0.759-0.126-1.3-0.378-1.624c-0.253-0.323-0.655-0.485-1.209-0.485
		c-0.476,0-0.839,0.185-1.092,0.554c-0.252,0.37-0.378,0.892-0.378,1.565c0,0.684,0.125,1.199,0.376,1.548
		S56.849,40.536,57.334,40.536z"/>
	<path d="M62.452,35.766v3.472c0,0.437,0.1,0.762,0.298,0.977s0.51,0.322,0.933,0.322c0.56,0,0.969-0.153,1.229-0.459
		c0.258-0.306,0.388-0.806,0.388-1.499v-2.812h0.811v5.352H65.44l-0.117-0.718h-0.044c-0.166,0.264-0.396,0.466-0.69,0.605
		c-0.295,0.14-0.631,0.21-1.009,0.21c-0.651,0-1.139-0.154-1.462-0.464c-0.324-0.31-0.486-0.804-0.486-1.484v-3.501H62.452z"/>
	<path d="M70.217,41.215c-0.774,0-1.375-0.238-1.799-0.715c-0.426-0.478-0.638-1.152-0.638-2.024c0-0.896,0.216-1.587,0.647-2.075
		c0.431-0.488,1.045-0.732,1.843-0.732c0.257,0,0.515,0.027,0.771,0.083s0.459,0.12,0.605,0.195l-0.249,0.688
		c-0.179-0.071-0.374-0.131-0.586-0.178c-0.212-0.048-0.398-0.071-0.562-0.071c-1.087,0-1.631,0.693-1.631,2.08
		c0,0.657,0.133,1.162,0.397,1.514c0.266,0.352,0.659,0.527,1.18,0.527c0.446,0,0.903-0.096,1.372-0.288v0.718
		C71.211,41.122,70.761,41.215,70.217,41.215z"/>
	<path d="M74.817,40.546c0.144,0,0.281-0.011,0.415-0.032c0.134-0.021,0.239-0.043,0.317-0.065v0.62
		c-0.088,0.042-0.217,0.077-0.389,0.105c-0.17,0.027-0.324,0.041-0.461,0.041c-1.035,0-1.553-0.545-1.553-1.636v-3.184h-0.767
		v-0.391l0.767-0.337l0.342-1.143h0.469v1.24h1.553v0.63h-1.553v3.149c0,0.322,0.076,0.569,0.229,0.742S74.551,40.546,74.817,40.546
		z"/>
	<path d="M80.321,39.657c0,0.498-0.186,0.882-0.557,1.152s-0.892,0.405-1.562,0.405c-0.71,0-1.263-0.112-1.66-0.337v-0.752
		c0.257,0.13,0.533,0.232,0.827,0.308c0.295,0.075,0.579,0.112,0.853,0.112c0.423,0,0.749-0.067,0.977-0.202
		c0.228-0.136,0.342-0.342,0.342-0.618c0-0.208-0.091-0.387-0.271-0.534c-0.182-0.148-0.533-0.323-1.058-0.525
		c-0.498-0.186-0.853-0.348-1.062-0.486c-0.211-0.138-0.367-0.295-0.469-0.471c-0.104-0.176-0.154-0.386-0.154-0.63
		c0-0.437,0.178-0.78,0.532-1.032c0.354-0.253,0.842-0.379,1.46-0.379c0.576,0,1.14,0.117,1.689,0.352l-0.288,0.659
		c-0.537-0.222-1.023-0.332-1.46-0.332c-0.384,0-0.674,0.061-0.869,0.181s-0.293,0.286-0.293,0.498c0,0.144,0.037,0.266,0.109,0.366
		c0.074,0.101,0.191,0.197,0.354,0.288s0.476,0.223,0.938,0.396c0.635,0.231,1.063,0.464,1.286,0.698
		C80.21,39.008,80.321,39.303,80.321,39.657z"/>
	<path d="M81.772,40.6c0-0.218,0.05-0.383,0.148-0.496c0.1-0.111,0.242-0.168,0.428-0.168c0.188,0,0.336,0.057,0.441,0.168
		c0.106,0.113,0.159,0.278,0.159,0.496c0,0.212-0.054,0.374-0.161,0.488s-0.254,0.171-0.439,0.171c-0.166,0-0.304-0.052-0.412-0.153
		C81.827,41.002,81.772,40.834,81.772,40.6z"/>
	<path d="M5.508,52.059c0,0.723-0.246,1.278-0.74,1.668c-0.492,0.389-1.198,0.583-2.116,0.583h-0.84v2.808h-0.83v-7.139h1.851
		C4.616,49.979,5.508,50.672,5.508,52.059z M1.812,53.597h0.747c0.735,0,1.268-0.119,1.597-0.356s0.493-0.618,0.493-1.143
		c0-0.472-0.154-0.823-0.464-1.055s-0.791-0.347-1.445-0.347H1.812V53.597z"/>
	<path d="M7.94,57.117H7.13V49.52H7.94V57.117z"/>
	<path d="M12.17,57.215c-0.791,0-1.415-0.241-1.872-0.723c-0.458-0.481-0.687-1.15-0.687-2.007c0-0.862,0.212-1.548,0.638-2.056
		c0.424-0.508,0.995-0.762,1.711-0.762c0.671,0,1.201,0.221,1.592,0.662c0.391,0.44,0.586,1.022,0.586,1.745v0.513h-3.687
		c0.017,0.628,0.175,1.105,0.476,1.431c0.302,0.325,0.726,0.488,1.272,0.488c0.576,0,1.146-0.12,1.709-0.361v0.723
		c-0.286,0.124-0.558,0.212-0.813,0.267C12.84,57.188,12.531,57.215,12.17,57.215z M11.95,52.347c-0.43,0-0.772,0.14-1.027,0.42
		c-0.256,0.28-0.406,0.667-0.452,1.162h2.798c0-0.511-0.114-0.902-0.342-1.175C12.699,52.482,12.373,52.347,11.95,52.347z"/>
	<path d="M19.061,57.117l-0.161-0.762H18.86c-0.267,0.335-0.533,0.562-0.798,0.682c-0.266,0.118-0.597,0.178-0.994,0.178
		c-0.53,0-0.946-0.137-1.248-0.41c-0.301-0.273-0.451-0.662-0.451-1.167c0-1.081,0.864-1.647,2.593-1.699l0.908-0.029v-0.332
		c0-0.42-0.091-0.729-0.271-0.931c-0.182-0.199-0.47-0.3-0.867-0.3c-0.446,0-0.95,0.137-1.514,0.41l-0.249-0.62
		c0.264-0.144,0.553-0.256,0.866-0.337c0.314-0.081,0.63-0.122,0.945-0.122c0.638,0,1.111,0.142,1.418,0.425
		c0.309,0.283,0.462,0.737,0.462,1.362v3.652H19.061z M17.229,56.546c0.505,0,0.901-0.139,1.188-0.415
		c0.289-0.276,0.433-0.664,0.433-1.162v-0.483L18.04,54.52c-0.645,0.022-1.109,0.123-1.394,0.301
		c-0.285,0.177-0.428,0.453-0.428,0.827c0,0.293,0.089,0.516,0.266,0.669C16.662,56.47,16.91,56.546,17.229,56.546z"/>
	<path d="M25.033,55.657c0,0.498-0.186,0.882-0.557,1.152s-0.892,0.405-1.562,0.405c-0.71,0-1.263-0.112-1.66-0.337v-0.752
		c0.257,0.13,0.533,0.232,0.827,0.308c0.295,0.075,0.579,0.112,0.853,0.112c0.423,0,0.749-0.067,0.977-0.202
		c0.228-0.136,0.342-0.342,0.342-0.618c0-0.208-0.091-0.387-0.271-0.534c-0.182-0.148-0.533-0.323-1.058-0.525
		c-0.498-0.186-0.853-0.348-1.062-0.486c-0.211-0.138-0.367-0.295-0.469-0.471c-0.104-0.176-0.154-0.386-0.154-0.63
		c0-0.437,0.178-0.78,0.532-1.032c0.354-0.253,0.842-0.379,1.46-0.379c0.576,0,1.14,0.117,1.689,0.352l-0.288,0.659
		c-0.537-0.222-1.023-0.332-1.46-0.332c-0.384,0-0.674,0.061-0.869,0.181s-0.293,0.286-0.293,0.498c0,0.144,0.037,0.266,0.109,0.366
		c0.074,0.101,0.191,0.197,0.354,0.288s0.476,0.223,0.938,0.396c0.635,0.231,1.063,0.464,1.286,0.698
		C24.922,55.008,25.033,55.303,25.033,55.657z"/>
	<path d="M28.862,57.215c-0.791,0-1.415-0.241-1.872-0.723c-0.458-0.481-0.687-1.15-0.687-2.007c0-0.862,0.212-1.548,0.638-2.056
		c0.424-0.508,0.995-0.762,1.711-0.762c0.671,0,1.201,0.221,1.592,0.662c0.391,0.44,0.586,1.022,0.586,1.745v0.513h-3.687
		c0.017,0.628,0.175,1.105,0.476,1.431c0.302,0.325,0.726,0.488,1.272,0.488c0.576,0,1.146-0.12,1.709-0.361v0.723
		c-0.286,0.124-0.558,0.212-0.813,0.267C29.532,57.188,29.224,57.215,28.862,57.215z M28.643,52.347c-0.43,0-0.772,0.14-1.027,0.42
		c-0.256,0.28-0.406,0.667-0.452,1.162h2.798c0-0.511-0.114-0.902-0.342-1.175C29.392,52.482,29.065,52.347,28.643,52.347z"/>
	<path d="M38.601,57.117l-0.161-0.762H38.4c-0.267,0.335-0.533,0.562-0.798,0.682c-0.266,0.118-0.597,0.178-0.994,0.178
		c-0.53,0-0.946-0.137-1.248-0.41c-0.301-0.273-0.451-0.662-0.451-1.167c0-1.081,0.864-1.647,2.593-1.699l0.908-0.029v-0.332
		c0-0.42-0.091-0.729-0.271-0.931c-0.182-0.199-0.47-0.3-0.867-0.3c-0.446,0-0.95,0.137-1.514,0.41l-0.249-0.62
		c0.264-0.144,0.553-0.256,0.866-0.337c0.314-0.081,0.63-0.122,0.945-0.122c0.638,0,1.111,0.142,1.418,0.425
		c0.309,0.283,0.462,0.737,0.462,1.362v3.652H38.601z M36.77,56.546c0.505,0,0.901-0.139,1.188-0.415
		c0.289-0.276,0.433-0.664,0.433-1.162v-0.483L37.58,54.52c-0.645,0.022-1.109,0.123-1.394,0.301
		c-0.285,0.177-0.428,0.453-0.428,0.827c0,0.293,0.089,0.516,0.266,0.669C36.202,56.47,36.45,56.546,36.77,56.546z"/>
	<path d="M44.573,55.657c0,0.498-0.186,0.882-0.557,1.152s-0.892,0.405-1.562,0.405c-0.71,0-1.263-0.112-1.66-0.337v-0.752
		c0.257,0.13,0.533,0.232,0.827,0.308c0.295,0.075,0.579,0.112,0.853,0.112c0.423,0,0.749-0.067,0.977-0.202
		c0.228-0.136,0.342-0.342,0.342-0.618c0-0.208-0.091-0.387-0.271-0.534c-0.182-0.148-0.533-0.323-1.058-0.525
		c-0.498-0.186-0.853-0.348-1.062-0.486c-0.211-0.138-0.367-0.295-0.469-0.471c-0.104-0.176-0.154-0.386-0.154-0.63
		c0-0.437,0.178-0.78,0.532-1.032c0.354-0.253,0.842-0.379,1.46-0.379c0.576,0,1.14,0.117,1.689,0.352l-0.288,0.659
		c-0.537-0.222-1.023-0.332-1.46-0.332c-0.384,0-0.674,0.061-0.869,0.181s-0.293,0.286-0.293,0.498c0,0.144,0.037,0.266,0.109,0.366
		c0.074,0.101,0.191,0.197,0.354,0.288s0.476,0.223,0.938,0.396c0.635,0.231,1.063,0.464,1.286,0.698
		C44.462,55.008,44.573,55.303,44.573,55.657z"/>
	<path d="M46.942,54.378c0.14-0.198,0.354-0.459,0.64-0.781l1.729-1.831h0.962l-2.168,2.28l2.319,3.071h-0.981l-1.89-2.529
		l-0.61,0.527v2.002h-0.801V49.52h0.801v4.028c0,0.179-0.013,0.456-0.039,0.83H46.942z"/>
	<path d="M56.979,51.678c0.703,0,1.249,0.24,1.639,0.721c0.389,0.479,0.583,1.159,0.583,2.038s-0.196,1.562-0.589,2.048
		c-0.392,0.487-0.937,0.73-1.633,0.73c-0.349,0-0.666-0.064-0.955-0.193c-0.287-0.128-0.529-0.326-0.725-0.593H55.24l-0.171,0.688
		h-0.581V49.52h0.811v1.846c0,0.413-0.013,0.784-0.039,1.113h0.039C55.677,51.944,56.236,51.678,56.979,51.678z M56.861,52.356
		c-0.554,0-0.952,0.159-1.196,0.476c-0.244,0.318-0.366,0.853-0.366,1.604s0.125,1.29,0.376,1.614
		c0.251,0.323,0.652,0.485,1.206,0.485c0.498,0,0.869-0.182,1.113-0.544c0.244-0.363,0.366-0.885,0.366-1.565
		c0-0.696-0.122-1.216-0.366-1.558S57.372,52.356,56.861,52.356z"/>
	<path d="M63.127,57.215c-0.791,0-1.415-0.241-1.872-0.723c-0.458-0.481-0.687-1.15-0.687-2.007c0-0.862,0.212-1.548,0.638-2.056
		c0.424-0.508,0.995-0.762,1.711-0.762c0.671,0,1.201,0.221,1.592,0.662c0.391,0.44,0.586,1.022,0.586,1.745v0.513h-3.687
		c0.017,0.628,0.175,1.105,0.476,1.431c0.302,0.325,0.726,0.488,1.272,0.488c0.576,0,1.146-0.12,1.709-0.361v0.723
		c-0.286,0.124-0.558,0.212-0.813,0.267C63.797,57.188,63.488,57.215,63.127,57.215z M62.907,52.347c-0.43,0-0.772,0.14-1.027,0.42
		c-0.256,0.28-0.406,0.667-0.452,1.162h2.798c0-0.511-0.114-0.902-0.342-1.175C63.656,52.482,63.33,52.347,62.907,52.347z"/>
	<path d="M69.139,52.396h-1.362v4.722h-0.811v-4.722h-0.957v-0.366l0.957-0.293v-0.298c0-1.315,0.574-1.973,1.724-1.973
		c0.283,0,0.615,0.057,0.996,0.171l-0.21,0.649c-0.312-0.101-0.579-0.151-0.801-0.151c-0.306,0-0.532,0.102-0.679,0.305
		c-0.146,0.204-0.22,0.53-0.22,0.979v0.347h1.362V52.396z"/>
	<path d="M74.984,54.437c0,0.872-0.22,1.554-0.659,2.044c-0.439,0.489-1.047,0.734-1.821,0.734c-0.479,0-0.903-0.112-1.274-0.337
		s-0.657-0.547-0.859-0.967S70.067,55,70.067,54.437c0-0.872,0.218-1.552,0.654-2.038c0.437-0.487,1.042-0.73,1.816-0.73
		c0.749,0,1.344,0.249,1.784,0.747C74.764,52.913,74.984,53.587,74.984,54.437z M70.907,54.437c0,0.684,0.137,1.204,0.41,1.562
		s0.676,0.537,1.206,0.537s0.934-0.179,1.209-0.534c0.274-0.357,0.412-0.879,0.412-1.565c0-0.681-0.138-1.197-0.412-1.55
		c-0.275-0.354-0.682-0.53-1.219-0.53c-0.53,0-0.931,0.174-1.201,0.522S70.907,53.746,70.907,54.437z"/>
	<path d="M79.097,51.668c0.237,0,0.451,0.02,0.64,0.059l-0.112,0.752c-0.222-0.049-0.417-0.073-0.586-0.073
		c-0.433,0-0.803,0.176-1.111,0.527c-0.307,0.352-0.461,0.789-0.461,1.313v2.871h-0.811v-5.352h0.669l0.093,0.991h0.039
		c0.198-0.349,0.438-0.617,0.718-0.806S78.762,51.668,79.097,51.668z"/>
	<path d="M83.248,57.215c-0.791,0-1.415-0.241-1.872-0.723c-0.458-0.481-0.687-1.15-0.687-2.007c0-0.862,0.212-1.548,0.638-2.056
		c0.424-0.508,0.995-0.762,1.711-0.762c0.671,0,1.201,0.221,1.592,0.662c0.391,0.44,0.586,1.022,0.586,1.745v0.513h-3.687
		c0.017,0.628,0.175,1.105,0.476,1.431c0.302,0.325,0.726,0.488,1.272,0.488c0.576,0,1.146-0.12,1.709-0.361v0.723
		c-0.286,0.124-0.558,0.212-0.813,0.267C83.918,57.188,83.609,57.215,83.248,57.215z M83.028,52.347c-0.43,0-0.772,0.14-1.027,0.42
		c-0.256,0.28-0.406,0.667-0.452,1.162h2.798c0-0.511-0.114-0.902-0.342-1.175C83.777,52.482,83.451,52.347,83.028,52.347z"/>
	<path d="M94.314,54.437c0,0.872-0.22,1.554-0.659,2.044c-0.439,0.489-1.047,0.734-1.821,0.734c-0.479,0-0.903-0.112-1.274-0.337
		s-0.657-0.547-0.859-0.967S89.397,55,89.397,54.437c0-0.872,0.218-1.552,0.654-2.038c0.437-0.487,1.042-0.73,1.816-0.73
		c0.749,0,1.344,0.249,1.784,0.747C94.094,52.913,94.314,53.587,94.314,54.437z M90.237,54.437c0,0.684,0.137,1.204,0.41,1.562
		s0.676,0.537,1.206,0.537s0.934-0.179,1.209-0.534c0.274-0.357,0.412-0.879,0.412-1.565c0-0.681-0.138-1.197-0.412-1.55
		c-0.275-0.354-0.682-0.53-1.219-0.53c-0.53,0-0.931,0.174-1.201,0.522S90.237,53.746,90.237,54.437z"/>
	<path d="M98.427,51.668c0.237,0,0.451,0.02,0.64,0.059l-0.112,0.752c-0.222-0.049-0.417-0.073-0.586-0.073
		c-0.433,0-0.803,0.176-1.111,0.527c-0.307,0.352-0.461,0.789-0.461,1.313v2.871h-0.811v-5.352h0.669l0.093,0.991h0.039
		c0.198-0.349,0.438-0.617,0.718-0.806S98.092,51.668,98.427,51.668z"/>
	<path d="M103.96,56.399h-0.044c-0.374,0.544-0.935,0.815-1.68,0.815c-0.7,0-1.244-0.239-1.634-0.718
		c-0.389-0.479-0.583-1.159-0.583-2.041s0.195-1.567,0.586-2.056s0.935-0.732,1.631-0.732c0.726,0,1.282,0.264,1.67,0.791h0.063
		l-0.034-0.386l-0.02-0.376V49.52h0.811v7.598h-0.659L103.96,56.399z M102.339,56.536c0.554,0,0.955-0.15,1.203-0.452
		c0.25-0.301,0.374-0.786,0.374-1.457v-0.171c0-0.759-0.126-1.3-0.378-1.624c-0.253-0.323-0.655-0.485-1.209-0.485
		c-0.476,0-0.839,0.185-1.092,0.554c-0.252,0.37-0.378,0.892-0.378,1.565c0,0.684,0.125,1.199,0.376,1.548
		S101.854,56.536,102.339,56.536z"/>
	<path d="M108.956,57.215c-0.791,0-1.415-0.241-1.872-0.723c-0.458-0.481-0.687-1.15-0.687-2.007c0-0.862,0.212-1.548,0.638-2.056
		c0.424-0.508,0.995-0.762,1.711-0.762c0.671,0,1.201,0.221,1.592,0.662c0.391,0.44,0.586,1.022,0.586,1.745v0.513h-3.687
		c0.017,0.628,0.175,1.105,0.476,1.431c0.302,0.325,0.726,0.488,1.272,0.488c0.576,0,1.146-0.12,1.709-0.361v0.723
		c-0.286,0.124-0.558,0.212-0.813,0.267C109.626,57.188,109.317,57.215,108.956,57.215z M108.736,52.347
		c-0.43,0-0.772,0.14-1.027,0.42c-0.256,0.28-0.406,0.667-0.452,1.162h2.798c0-0.511-0.114-0.902-0.342-1.175
		C109.485,52.482,109.159,52.347,108.736,52.347z"/>
	<path d="M114.997,51.668c0.237,0,0.451,0.02,0.64,0.059l-0.112,0.752c-0.222-0.049-0.417-0.073-0.586-0.073
		c-0.433,0-0.803,0.176-1.111,0.527c-0.307,0.352-0.461,0.789-0.461,1.313v2.871h-0.811v-5.352h0.669l0.093,0.991h0.039
		c0.198-0.349,0.438-0.617,0.718-0.806S114.662,51.668,114.997,51.668z"/>
	<path d="M116.819,50.315c0-0.186,0.046-0.321,0.137-0.407c0.091-0.087,0.205-0.13,0.342-0.13c0.13,0,0.242,0.044,0.337,0.132
		s0.142,0.223,0.142,0.405s-0.047,0.318-0.142,0.407c-0.095,0.09-0.207,0.135-0.337,0.135c-0.137,0-0.251-0.045-0.342-0.135
		C116.865,50.634,116.819,50.498,116.819,50.315z M117.698,57.117h-0.811v-5.352h0.811V57.117z"/>
	<path d="M123.329,57.117v-3.462c0-0.437-0.1-0.762-0.298-0.977s-0.51-0.322-0.933-0.322c-0.56,0-0.97,0.151-1.23,0.454
		s-0.391,0.803-0.391,1.499v2.808h-0.811v-5.352h0.659l0.132,0.732h0.039c0.166-0.264,0.398-0.468,0.698-0.613
		c0.3-0.145,0.633-0.217,1.001-0.217c0.645,0,1.13,0.155,1.455,0.467c0.325,0.311,0.488,0.808,0.488,1.491v3.491H123.329z"/>
	<path d="M130.435,51.766v0.513l-0.991,0.117c0.091,0.114,0.173,0.263,0.244,0.446c0.071,0.185,0.107,0.392,0.107,0.623
		c0,0.524-0.179,0.942-0.537,1.255s-0.85,0.469-1.475,0.469c-0.159,0-0.31-0.013-0.449-0.039c-0.345,0.183-0.518,0.412-0.518,0.688
		c0,0.146,0.061,0.255,0.181,0.324c0.12,0.07,0.327,0.105,0.62,0.105h0.947c0.579,0,1.024,0.122,1.336,0.366
		c0.311,0.244,0.466,0.599,0.466,1.064c0,0.593-0.237,1.044-0.713,1.354c-0.476,0.312-1.169,0.467-2.08,0.467
		c-0.7,0-1.239-0.13-1.618-0.391c-0.38-0.261-0.569-0.628-0.569-1.104c0-0.325,0.104-0.607,0.312-0.845s0.501-0.398,0.879-0.483
		c-0.137-0.062-0.251-0.158-0.345-0.288c-0.092-0.13-0.139-0.281-0.139-0.454c0-0.195,0.052-0.366,0.156-0.513
		s0.269-0.288,0.493-0.425c-0.276-0.114-0.502-0.308-0.677-0.581c-0.174-0.273-0.261-0.586-0.261-0.938
		c0-0.586,0.176-1.038,0.527-1.354c0.352-0.318,0.85-0.477,1.494-0.477c0.28,0,0.532,0.032,0.757,0.098H130.435z M126.167,58.016
		c0,0.29,0.122,0.51,0.366,0.659s0.594,0.225,1.05,0.225c0.681,0,1.185-0.102,1.511-0.306c0.328-0.203,0.491-0.479,0.491-0.827
		c0-0.29-0.09-0.491-0.269-0.603c-0.179-0.113-0.516-0.169-1.011-0.169h-0.972c-0.368,0-0.654,0.088-0.859,0.264
		S126.167,57.687,126.167,58.016z M126.606,53.479c0,0.374,0.105,0.657,0.317,0.85s0.506,0.288,0.884,0.288
		c0.791,0,1.187-0.384,1.187-1.152c0-0.804-0.4-1.206-1.201-1.206c-0.381,0-0.674,0.103-0.879,0.308S126.606,53.076,126.606,53.479z
		"/>
	<path d="M131.666,56.6c0-0.218,0.05-0.383,0.148-0.496c0.1-0.111,0.242-0.168,0.428-0.168c0.188,0,0.336,0.057,0.441,0.168
		c0.106,0.113,0.159,0.278,0.159,0.496c0,0.212-0.054,0.374-0.161,0.488s-0.254,0.171-0.439,0.171c-0.166,0-0.304-0.052-0.412-0.153
		C131.721,57.002,131.666,56.834,131.666,56.6z"/>
</g>
</svg>