<!-- Generator: Adobe Illustrator 21.0.0, SVG Export Plug-In  -->
<svg version="1.1"
	 xmlns="http://www.w3.org/2000/svg" xmlns:xlink="http://www.w3.org/1999/xlink" xmlns:a="http://ns.adobe.com/AdobeSVGViewerExtensions/3.0/"
	 x="0px" y="0px" width="63.95px" height="7.695px" viewBox="0 0 63.95 7.695" style="enable-background:new 0 0 63.95 7.695;"
	 xml:space="preserve">
<style type="text/css">
	.st0{fill:#FFFFFF;}
</style>
<defs>
</defs>
<g>
	<path class="st0" d="M4.492,5.698c0,0.628-0.228,1.118-0.684,1.47S2.734,7.695,1.953,7.695C1.106,7.695,0.456,7.586,0,7.368V6.567
		C0.293,6.691,0.612,6.789,0.957,6.86s0.687,0.107,1.025,0.107c0.554,0,0.97-0.104,1.25-0.315c0.28-0.209,0.42-0.502,0.42-0.876
		c0-0.247-0.05-0.45-0.148-0.608c-0.1-0.157-0.266-0.303-0.498-0.437C2.772,4.598,2.419,4.446,1.943,4.277
		C1.279,4.04,0.805,3.758,0.52,3.433c-0.284-0.325-0.427-0.75-0.427-1.274c0-0.55,0.207-0.988,0.62-1.313s0.96-0.488,1.641-0.488
		c0.71,0,1.362,0.13,1.958,0.391L4.053,1.47C3.464,1.223,2.891,1.099,2.334,1.099c-0.439,0-0.783,0.095-1.03,0.283
		S0.933,1.833,0.933,2.168c0,0.247,0.046,0.45,0.137,0.607C1.16,2.934,1.314,3.078,1.531,3.211c0.216,0.131,0.547,0.277,0.993,0.437
		C3.273,3.914,3.788,4.201,4.07,4.507C4.352,4.812,4.492,5.21,4.492,5.698z"/>
	<path class="st0" d="M8.969,7.695c-0.774,0-1.375-0.238-1.799-0.715C6.744,6.503,6.532,5.828,6.532,4.956
		c0-0.896,0.216-1.587,0.647-2.075C7.61,2.393,8.225,2.148,9.022,2.148c0.257,0,0.515,0.027,0.771,0.083s0.459,0.12,0.605,0.195
		L10.15,3.115C9.972,3.044,9.776,2.984,9.564,2.938C9.353,2.89,9.166,2.866,9.003,2.866c-1.087,0-1.631,0.693-1.631,2.08
		c0,0.657,0.133,1.162,0.397,1.514c0.266,0.352,0.659,0.527,1.18,0.527c0.446,0,0.903-0.096,1.372-0.288v0.718
		C9.963,7.603,9.513,7.695,8.969,7.695z"/>
	<path class="st0" d="M15.032,2.148c0.237,0,0.451,0.02,0.64,0.059L15.56,2.959c-0.222-0.049-0.417-0.073-0.586-0.073
		c-0.433,0-0.803,0.176-1.111,0.527c-0.307,0.352-0.461,0.789-0.461,1.313v2.871h-0.811V2.246h0.669l0.093,0.991h0.039
		c0.198-0.349,0.438-0.617,0.718-0.806S14.697,2.148,15.032,2.148z"/>
	<path class="st0" d="M22.292,4.917c0,0.872-0.22,1.554-0.659,2.044c-0.439,0.489-1.047,0.734-1.821,0.734
		c-0.479,0-0.903-0.112-1.274-0.337s-0.657-0.547-0.859-0.967s-0.303-0.911-0.303-1.475c0-0.872,0.218-1.552,0.654-2.038
		c0.437-0.487,1.042-0.73,1.816-0.73c0.749,0,1.344,0.249,1.784,0.747C22.071,3.394,22.292,4.067,22.292,4.917z M18.215,4.917
		c0,0.684,0.137,1.204,0.41,1.562s0.676,0.537,1.206,0.537s0.934-0.179,1.209-0.534c0.274-0.357,0.412-0.879,0.412-1.565
		c0-0.681-0.138-1.197-0.412-1.55c-0.275-0.354-0.682-0.53-1.219-0.53c-0.53,0-0.931,0.174-1.201,0.522S18.215,4.227,18.215,4.917z"
		/>
	<path class="st0" d="M25.523,7.598h-0.811V0h0.811V7.598z"/>
	<path class="st0" d="M29.053,7.598h-0.811V0h0.811V7.598z"/>
	<path class="st0" d="M41.189,3.96c0,1.179-0.32,2.079-0.959,2.702c-0.641,0.624-1.561,0.936-2.762,0.936h-1.978V0.459h2.188
		c1.11,0,1.973,0.308,2.588,0.923S41.189,2.856,41.189,3.96z M40.311,3.989c0-0.931-0.233-1.633-0.701-2.104
		c-0.467-0.472-1.161-0.708-2.082-0.708h-1.206V6.88h1.011c0.989,0,1.733-0.243,2.231-0.729C40.062,5.663,40.311,4.943,40.311,3.989
		z"/>
	<path class="st0" d="M48.278,4.917c0,0.872-0.22,1.554-0.659,2.044c-0.439,0.489-1.047,0.734-1.821,0.734
		c-0.479,0-0.903-0.112-1.274-0.337s-0.657-0.547-0.859-0.967s-0.303-0.911-0.303-1.475c0-0.872,0.218-1.552,0.654-2.038
		c0.437-0.487,1.042-0.73,1.816-0.73c0.749,0,1.344,0.249,1.784,0.747C48.058,3.394,48.278,4.067,48.278,4.917z M44.201,4.917
		c0,0.684,0.137,1.204,0.41,1.562s0.676,0.537,1.206,0.537s0.934-0.179,1.209-0.534c0.274-0.357,0.412-0.879,0.412-1.565
		c0-0.681-0.138-1.197-0.412-1.55c-0.275-0.354-0.682-0.53-1.219-0.53c-0.53,0-0.931,0.174-1.201,0.522S44.201,4.227,44.201,4.917z"
		/>
	<path class="st0" d="M55.069,7.598l-0.981-3.14c-0.062-0.192-0.178-0.628-0.347-1.309h-0.039c-0.13,0.569-0.244,1.009-0.342,1.318
		l-1.011,3.13h-0.938l-1.46-5.352h0.85c0.345,1.345,0.608,2.368,0.788,3.071c0.182,0.703,0.284,1.177,0.311,1.421h0.039
		c0.036-0.186,0.094-0.426,0.174-0.721c0.079-0.294,0.148-0.527,0.207-0.7l0.981-3.071h0.879l0.957,3.071
		c0.183,0.56,0.306,1.03,0.371,1.411h0.039c0.013-0.117,0.048-0.298,0.104-0.542c0.058-0.244,0.396-1.558,1.019-3.94h0.84
		l-1.479,5.352H55.069z"/>
	<path class="st0" d="M63.14,7.598V4.136c0-0.437-0.1-0.762-0.298-0.977s-0.51-0.322-0.933-0.322c-0.56,0-0.97,0.151-1.23,0.454
		s-0.391,0.803-0.391,1.499v2.808h-0.811V2.246h0.659l0.132,0.732h0.039c0.166-0.264,0.398-0.468,0.698-0.613
		c0.3-0.145,0.633-0.217,1.001-0.217c0.645,0,1.13,0.155,1.455,0.467c0.325,0.311,0.488,0.808,0.488,1.491v3.491H63.14z"/>
</g>
</svg>