<!-- Generator: Adobe Illustrator 21.0.0, SVG Export Plug-In  -->
<svg version="1.1"
	 xmlns="http://www.w3.org/2000/svg" xmlns:xlink="http://www.w3.org/1999/xlink" xmlns:a="http://ns.adobe.com/AdobeSVGViewerExtensions/3.0/"
	 x="0px" y="0px" width="331.906px" height="212.455px" viewBox="0 0 331.906 212.455"
	 style="enable-background:new 0 0 331.906 212.455;" xml:space="preserve">
<style type="text/css">
	.st0{fill:#B9C83E;}
	.st1{fill:#FFFFFF;}
</style>
<defs>
</defs>
<g>
	<path class="st0" d="M72.266,13.219c0,4.254-1.055,7.523-3.164,9.809s-5.133,3.428-9.07,3.428s-6.961-1.143-9.07-3.428
		s-3.164-5.566-3.164-9.844s1.058-7.544,3.173-9.8S56.117,0,60.066,0s6.97,1.137,9.062,3.41S72.266,8.953,72.266,13.219z
		 M53.51,13.219c0,2.871,0.545,5.033,1.635,6.486s2.719,2.18,4.887,2.18c4.348,0,6.521-2.889,6.521-8.666
		c0-5.789-2.162-8.684-6.486-8.684c-2.168,0-3.803,0.729-4.904,2.188S53.51,10.348,53.51,13.219z"/>
	<path class="st0" d="M100.31,0.404v16.629c0,1.898-0.425,3.562-1.274,4.992s-2.077,2.525-3.683,3.287s-3.504,1.143-5.695,1.143
		c-3.305,0-5.871-0.847-7.699-2.54s-2.742-4.011-2.742-6.952V0.404h5.432v15.732c0,1.98,0.398,3.434,1.195,4.359
		s2.115,1.389,3.955,1.389c1.781,0,3.073-0.466,3.876-1.397s1.204-2.394,1.204-4.386V0.404H100.31z"/>
	<path class="st0" d="M113.852,16.242v9.861h-5.449V0.404h7.488c3.492,0,6.076,0.636,7.752,1.907s2.514,3.202,2.514,5.792
		c0,1.512-0.416,2.856-1.248,4.034s-2.01,2.101-3.533,2.769c3.867,5.777,6.387,9.51,7.559,11.197h-6.047l-6.135-9.861H113.852z
		 M113.852,11.812h1.758c1.723,0,2.994-0.287,3.814-0.861s1.23-1.477,1.23-2.707c0-1.219-0.419-2.086-1.257-2.602
		s-2.136-0.773-3.894-0.773h-1.652V11.812z"/>
	<path class="st0" d="M166.442,13.008c0,4.23-1.204,7.471-3.612,9.721s-5.886,3.375-10.433,3.375h-7.277V0.404h8.068
		c4.195,0,7.453,1.107,9.773,3.322S166.442,9.035,166.442,13.008z M160.782,13.148c0-5.52-2.438-8.279-7.312-8.279h-2.9v16.734
		h2.338C158.157,21.604,160.782,18.785,160.782,13.148z"/>
	<path class="st0" d="M179.018,16.242v9.861h-5.449V0.404h7.488c3.492,0,6.076,0.636,7.752,1.907s2.514,3.202,2.514,5.792
		c0,1.512-0.416,2.856-1.248,4.034s-2.01,2.101-3.533,2.769c3.867,5.777,6.387,9.51,7.559,11.197h-6.047l-6.135-9.861H179.018z
		 M179.018,11.812h1.758c1.723,0,2.994-0.287,3.814-0.861s1.23-1.477,1.23-2.707c0-1.219-0.419-2.086-1.257-2.602
		s-2.136-0.773-3.894-0.773h-1.652V11.812z"/>
	<path class="st0" d="M199.134,26.104V0.404h5.449v25.699H199.134z"/>
	<path class="st0" d="M235.65,26.104h-6.926l-11.18-19.441h-0.158c0.223,3.434,0.334,5.883,0.334,7.348v12.094h-4.869V0.404h6.873
		l11.162,19.248h0.123c-0.176-3.34-0.264-5.701-0.264-7.084V0.404h4.904V26.104z"/>
	<path class="st0" d="M264.592,26.104h-6.188l-6.732-10.828l-2.303,1.652v9.176h-5.449V0.404h5.449v11.76l2.145-3.023l6.961-8.736
		h6.047l-8.965,11.373L264.592,26.104z"/>
	<path class="st0" d="M284.796,18.967c0,2.32-0.835,4.148-2.505,5.484s-3.993,2.004-6.97,2.004c-2.742,0-5.168-0.516-7.277-1.547
		v-5.062c1.734,0.773,3.202,1.318,4.403,1.635s2.3,0.475,3.296,0.475c1.195,0,2.112-0.229,2.751-0.686s0.958-1.137,0.958-2.039
		c0-0.504-0.141-0.952-0.422-1.345s-0.694-0.771-1.239-1.134s-1.655-0.943-3.331-1.74c-1.57-0.738-2.748-1.447-3.533-2.127
		s-1.412-1.471-1.881-2.373s-0.703-1.957-0.703-3.164c0-2.273,0.771-4.061,2.312-5.361s3.671-1.951,6.39-1.951
		c1.336,0,2.61,0.158,3.823,0.475s2.481,0.762,3.806,1.336l-1.758,4.236c-1.371-0.562-2.505-0.955-3.401-1.178
		s-1.778-0.334-2.646-0.334c-1.031,0-1.822,0.24-2.373,0.721s-0.826,1.107-0.826,1.881c0,0.48,0.111,0.899,0.334,1.257
		s0.577,0.703,1.063,1.037s1.638,0.935,3.454,1.802c2.402,1.148,4.049,2.3,4.939,3.454S284.796,17.291,284.796,18.967z"/>
	<path class="st1" d="M50.284,88.104h-1.477l-5.643-19.828c-0.469-1.629-0.82-2.965-1.055-4.008c-0.188,1.02-0.454,2.191-0.8,3.516
		s-2.235,8.098-5.669,20.32H34.13l-7.066-25.699h1.881l4.5,16.559c0.176,0.668,0.34,1.286,0.492,1.854s0.29,1.102,0.413,1.6
		s0.234,0.979,0.334,1.441s0.19,0.929,0.272,1.397c0.281-1.594,0.879-4.014,1.793-7.26l4.395-15.592h1.986l5.15,17.895
		c0.598,2.062,1.025,3.727,1.283,4.992c0.152-0.844,0.349-1.74,0.589-2.689s2.048-7.682,5.423-20.197h1.811L50.284,88.104z"/>
	<path class="st1" d="M70.998,88.455c-2.777,0-4.942-0.855-6.495-2.566s-2.329-4.107-2.329-7.189c0-3.047,0.75-5.487,2.25-7.321
		s3.521-2.751,6.064-2.751c2.25,0,4.025,0.785,5.326,2.355s1.951,3.703,1.951,6.398v1.406H64.002
		c0.023,2.625,0.636,4.629,1.837,6.012s2.921,2.074,5.159,2.074c1.09,0,2.048-0.076,2.874-0.229s1.872-0.48,3.138-0.984v1.582
		c-1.078,0.469-2.074,0.788-2.988,0.958S72.1,88.455,70.998,88.455z M70.488,70.174c-1.84,0-3.316,0.606-4.43,1.819
		s-1.764,2.962-1.951,5.247H75.92c0-2.215-0.48-3.946-1.441-5.194S72.188,70.174,70.488,70.174z"/>
	<path class="st1" d="M109.315,88.104V75.711c0-1.922-0.404-3.319-1.213-4.192s-2.062-1.31-3.762-1.31
		c-2.285,0-3.958,0.577-5.019,1.731s-1.591,3.026-1.591,5.616v10.547h-1.74V60.752h1.74v8.701l-0.088,2.443h0.123
		c0.715-1.148,1.617-1.98,2.707-2.496s2.443-0.773,4.061-0.773c4.336,0,6.504,2.326,6.504,6.979v12.498H109.315z"/>
	<path class="st1" d="M130.627,88.104l-0.439-3.023h-0.141c-0.961,1.23-1.948,2.101-2.962,2.61s-2.212,0.765-3.595,0.765
		c-1.875,0-3.334-0.48-4.377-1.441s-1.564-2.291-1.564-3.99c0-1.863,0.776-3.311,2.329-4.342s3.8-1.576,6.741-1.635l3.639-0.105
		v-1.266c0-1.816-0.369-3.188-1.107-4.113s-1.928-1.389-3.568-1.389c-1.77,0-3.604,0.492-5.502,1.477l-0.65-1.512
		c2.098-0.984,4.172-1.477,6.223-1.477c2.098,0,3.665,0.545,4.702,1.635s1.556,2.789,1.556,5.098v12.709H130.627z M123.596,86.873
		c2.039,0,3.647-0.583,4.825-1.749s1.767-2.786,1.767-4.86v-1.881l-3.34,0.141c-2.684,0.129-4.597,0.548-5.739,1.257
		s-1.714,1.813-1.714,3.313c0,1.195,0.366,2.124,1.099,2.786S122.26,86.873,123.596,86.873z"/>
	<path class="st1" d="M144.081,88.104l-7.383-19.107h1.793l4.939,12.99c0.656,1.664,1.148,3.117,1.477,4.359h0.105
		c0.48-1.594,0.973-3.059,1.477-4.395l4.939-12.955h1.793l-7.383,19.107H144.081z"/>
	<path class="st1" d="M165.938,88.455c-2.777,0-4.942-0.855-6.495-2.566s-2.329-4.107-2.329-7.189c0-3.047,0.75-5.487,2.25-7.321
		s3.521-2.751,6.064-2.751c2.25,0,4.025,0.785,5.326,2.355s1.951,3.703,1.951,6.398v1.406h-13.764
		c0.023,2.625,0.636,4.629,1.837,6.012s2.921,2.074,5.159,2.074c1.09,0,2.048-0.076,2.874-0.229s1.872-0.48,3.138-0.984v1.582
		c-1.078,0.469-2.074,0.788-2.988,0.958S167.039,88.455,165.938,88.455z M165.428,70.174c-1.84,0-3.316,0.606-4.43,1.819
		s-1.764,2.962-1.951,5.247h11.812c0-2.215-0.48-3.946-1.441-5.194S167.127,70.174,165.428,70.174z"/>
	<path class="st1" d="M198.032,70.508h-4.5v17.596h-1.74V70.508h-3.551v-1.02l3.551-0.65v-1.477c0-2.344,0.431-4.063,1.292-5.159
		s2.271-1.644,4.228-1.644c1.055,0,2.109,0.158,3.164,0.475l-0.404,1.512c-0.938-0.293-1.869-0.439-2.795-0.439
		c-1.359,0-2.323,0.401-2.892,1.204s-0.853,2.106-0.853,3.911v1.775h4.5V70.508z"/>
	<path class="st1" d="M211.047,68.627c0.809,0,1.676,0.082,2.602,0.246l-0.334,1.67c-0.797-0.199-1.623-0.299-2.479-0.299
		c-1.629,0-2.965,0.691-4.008,2.074s-1.564,3.129-1.564,5.238v10.547h-1.74V68.996H205l0.176,3.445h0.123
		c0.785-1.406,1.623-2.394,2.514-2.962S209.781,68.627,211.047,68.627z"/>
	<path class="st1" d="M227.05,88.455c-2.777,0-4.942-0.855-6.495-2.566s-2.329-4.107-2.329-7.189c0-3.047,0.75-5.487,2.25-7.321
		s3.521-2.751,6.064-2.751c2.25,0,4.025,0.785,5.326,2.355s1.951,3.703,1.951,6.398v1.406h-13.764
		c0.023,2.625,0.636,4.629,1.837,6.012s2.921,2.074,5.159,2.074c1.09,0,2.048-0.076,2.874-0.229s1.872-0.48,3.138-0.984v1.582
		c-1.078,0.469-2.074,0.788-2.988,0.958S228.151,88.455,227.05,88.455z M226.54,70.174c-1.84,0-3.316,0.606-4.43,1.819
		s-1.764,2.962-1.951,5.247h11.812c0-2.215-0.48-3.946-1.441-5.194S228.239,70.174,226.54,70.174z"/>
	<path class="st1" d="M252.738,83.129c0,1.711-0.65,3.026-1.951,3.946s-3.146,1.38-5.537,1.38c-2.555,0-4.582-0.393-6.082-1.178
		v-1.881c1.922,0.961,3.949,1.441,6.082,1.441c1.887,0,3.319-0.313,4.298-0.94s1.468-1.462,1.468-2.505
		c0-0.961-0.39-1.77-1.169-2.426s-2.06-1.301-3.841-1.934c-1.91-0.691-3.252-1.286-4.025-1.784s-1.356-1.061-1.749-1.688
		s-0.589-1.392-0.589-2.294c0-1.43,0.601-2.561,1.802-3.393s2.88-1.248,5.036-1.248c2.062,0,4.02,0.387,5.871,1.16l-0.65,1.582
		c-1.875-0.773-3.615-1.16-5.221-1.16c-1.559,0-2.795,0.258-3.709,0.773s-1.371,1.23-1.371,2.145c0,0.996,0.354,1.793,1.063,2.391
		s2.095,1.266,4.157,2.004c1.723,0.621,2.977,1.181,3.762,1.679s1.374,1.063,1.767,1.696S252.738,82.273,252.738,83.129z"/>
	<path class="st1" d="M272.784,88.104V75.711c0-1.922-0.404-3.319-1.213-4.192s-2.062-1.31-3.762-1.31
		c-2.285,0-3.958,0.577-5.019,1.731s-1.591,3.026-1.591,5.616v10.547h-1.74V60.752h1.74v8.701l-0.088,2.443h0.123
		c0.715-1.148,1.617-1.98,2.707-2.496s2.443-0.773,4.061-0.773c4.336,0,6.504,2.326,6.504,6.979v12.498H272.784z"/>
	<path class="st1" d="M284.235,88.104h-1.74V60.752h1.74V88.104z"/>
	<path class="st1" d="M289.234,68.996h1.793l4.043,10.723c1.23,3.293,2.01,5.514,2.338,6.662h0.105
		c0.492-1.512,1.295-3.768,2.408-6.768l4.043-10.617h1.793l-8.561,22.201c-0.691,1.805-1.271,3.023-1.74,3.656
		s-1.017,1.107-1.644,1.424s-1.386,0.475-2.276,0.475c-0.668,0-1.412-0.123-2.232-0.369v-1.512c0.68,0.188,1.412,0.281,2.197,0.281
		c0.598,0,1.125-0.141,1.582-0.422s0.87-0.718,1.239-1.31s0.797-1.529,1.283-2.812s0.8-2.118,0.94-2.505L289.234,68.996z"/>
	<path class="st1" d="M8.068,130.627c2.672,0,4.685,0.841,6.038,2.522s2.03,4.14,2.03,7.374c0,3.176-0.712,5.625-2.136,7.348
		s-3.425,2.584-6.003,2.584c-1.359,0-2.584-0.281-3.674-0.844s-1.951-1.359-2.584-2.391H1.582l-0.492,2.883H0v-27.352h1.74v6.873
		c0,1.031-0.023,1.98-0.07,2.848l-0.053,1.494H1.74c0.727-1.148,1.603-1.992,2.628-2.531S6.627,130.627,8.068,130.627z
		 M8.033,132.209c-2.25,0-3.861,0.645-4.834,1.934s-1.459,3.416-1.459,6.381v0.299c0,2.883,0.507,4.951,1.521,6.205
		s2.593,1.881,4.737,1.881c2.086,0,3.656-0.729,4.711-2.188s1.582-3.536,1.582-6.231C14.291,134.969,12.205,132.209,8.033,132.209z"
		/>
	<path class="st1" d="M30.751,130.627c0.809,0,1.676,0.082,2.602,0.246l-0.334,1.67c-0.797-0.199-1.623-0.299-2.479-0.299
		c-1.629,0-2.965,0.691-4.008,2.074s-1.564,3.129-1.564,5.238v10.547h-1.74v-19.107h1.477l0.176,3.445h0.123
		c0.785-1.406,1.623-2.394,2.514-2.962S29.485,130.627,30.751,130.627z"/>
	<path class="st1" d="M46.754,150.455c-2.777,0-4.942-0.855-6.495-2.566s-2.329-4.107-2.329-7.189c0-3.047,0.75-5.487,2.25-7.321
		s3.521-2.751,6.064-2.751c2.25,0,4.025,0.785,5.326,2.355s1.951,3.703,1.951,6.398v1.406H39.758
		c0.023,2.625,0.636,4.629,1.837,6.012s2.921,2.074,5.159,2.074c1.09,0,2.048-0.076,2.874-0.229s1.872-0.48,3.138-0.984v1.582
		c-1.078,0.469-2.074,0.788-2.988,0.958S47.855,150.455,46.754,150.455z M46.244,132.174c-1.84,0-3.316,0.606-4.43,1.819
		s-1.764,2.962-1.951,5.247h11.812c0-2.215-0.48-3.946-1.441-5.194S47.943,132.174,46.244,132.174z"/>
	<path class="st1" d="M75.871,150.104l-4.184-12.779c-0.27-0.867-0.615-2.139-1.037-3.814h-0.105l-0.369,1.301l-0.791,2.549
		l-4.254,12.744h-1.723l-5.467-19.107h1.863l3.059,11.074c0.715,2.742,1.184,4.758,1.406,6.047h0.105
		c0.691-2.742,1.195-4.564,1.512-5.467l3.938-11.654h1.582l3.744,11.619c0.844,2.754,1.359,4.576,1.547,5.467h0.105
		c0.094-0.762,0.562-2.801,1.406-6.117l2.918-10.969h1.758l-5.186,19.107H75.871z"/>
	<path class="st1" d="M96.146,150.455c-2.777,0-4.942-0.855-6.495-2.566s-2.329-4.107-2.329-7.189c0-3.047,0.75-5.487,2.25-7.321
		s3.521-2.751,6.064-2.751c2.25,0,4.025,0.785,5.326,2.355s1.951,3.703,1.951,6.398v1.406H89.149
		c0.023,2.625,0.636,4.629,1.837,6.012s2.921,2.074,5.159,2.074c1.09,0,2.048-0.076,2.874-0.229s1.872-0.48,3.138-0.984v1.582
		c-1.078,0.469-2.074,0.788-2.988,0.958S97.247,150.455,96.146,150.455z M95.636,132.174c-1.84,0-3.316,0.606-4.43,1.819
		s-1.764,2.962-1.951,5.247h11.812c0-2.215-0.48-3.946-1.441-5.194S97.335,132.174,95.636,132.174z"/>
	<path class="st1" d="M116.982,130.627c1.383,0,2.578,0.252,3.586,0.756s1.91,1.365,2.707,2.584h0.105
		c-0.07-1.477-0.105-2.924-0.105-4.342v-6.873h1.723v27.352h-1.143l-0.439-2.918h-0.141c-1.453,2.18-3.539,3.27-6.258,3.27
		c-2.637,0-4.652-0.82-6.047-2.461s-2.092-4.031-2.092-7.172c0-3.305,0.691-5.83,2.074-7.576S114.346,130.627,116.982,130.627z
		 M116.982,132.209c-2.086,0-3.653,0.732-4.702,2.197s-1.573,3.592-1.573,6.381c0,5.414,2.104,8.121,6.311,8.121
		c2.156,0,3.738-0.627,4.746-1.881s1.512-3.322,1.512-6.205v-0.299c0-2.953-0.495-5.077-1.485-6.372
		S119.197,132.209,116.982,132.209z"/>
	<path class="st1" d="M157.689,150.104v-12.393c0-1.922-0.404-3.319-1.213-4.192s-2.062-1.31-3.762-1.31
		c-2.285,0-3.958,0.577-5.019,1.731s-1.591,3.026-1.591,5.616v10.547h-1.74v-27.352h1.74v8.701l-0.088,2.443h0.123
		c0.715-1.148,1.617-1.98,2.707-2.496s2.443-0.773,4.061-0.773c4.336,0,6.504,2.326,6.504,6.979v12.498H157.689z"/>
	<path class="st1" d="M183.203,140.523c0,3.117-0.756,5.552-2.268,7.304s-3.598,2.628-6.258,2.628c-1.676,0-3.152-0.404-4.43-1.213
		s-2.256-1.969-2.936-3.48s-1.02-3.258-1.02-5.238c0-3.117,0.756-5.546,2.268-7.286s3.586-2.61,6.223-2.61
		c2.625,0,4.685,0.882,6.179,2.646S183.203,137.453,183.203,140.523z M168.121,140.523c0,2.625,0.577,4.673,1.731,6.144
		s2.786,2.206,4.896,2.206s3.741-0.735,4.896-2.206s1.731-3.519,1.731-6.144c0-2.637-0.583-4.682-1.749-6.135
		s-2.804-2.18-4.913-2.18s-3.735,0.724-4.878,2.171S168.121,137.875,168.121,140.523z"/>
	<path class="st1" d="M195.339,148.908c1.102,0,2.062-0.094,2.883-0.281v1.406c-0.844,0.281-1.816,0.422-2.918,0.422
		c-1.688,0-2.933-0.451-3.735-1.354s-1.204-2.32-1.204-4.254v-12.34h-2.83v-1.02l2.83-0.791l0.879-4.324h0.896v4.623h5.607v1.512
		h-5.607v12.094c0,1.465,0.258,2.549,0.773,3.252S194.237,148.908,195.339,148.908z"/>
	<path class="st1" d="M231.106,140.523c0,3.117-0.756,5.552-2.268,7.304s-3.598,2.628-6.258,2.628c-1.676,0-3.152-0.404-4.43-1.213
		s-2.256-1.969-2.936-3.48s-1.02-3.258-1.02-5.238c0-3.117,0.756-5.546,2.268-7.286s3.586-2.61,6.223-2.61
		c2.625,0,4.685,0.882,6.179,2.646S231.106,137.453,231.106,140.523z M216.024,140.523c0,2.625,0.577,4.673,1.731,6.144
		s2.786,2.206,4.896,2.206s3.741-0.735,4.896-2.206s1.731-3.519,1.731-6.144c0-2.637-0.583-4.682-1.749-6.135
		s-2.804-2.18-4.913-2.18s-3.735,0.724-4.878,2.171S216.024,137.875,216.024,140.523z"/>
	<path class="st1" d="M245.721,130.627c0.809,0,1.676,0.082,2.602,0.246l-0.334,1.67c-0.797-0.199-1.623-0.299-2.479-0.299
		c-1.629,0-2.965,0.691-4.008,2.074s-1.564,3.129-1.564,5.238v10.547h-1.74v-19.107h1.477l0.176,3.445h0.123
		c0.785-1.406,1.623-2.394,2.514-2.962S244.455,130.627,245.721,130.627z"/>
	<path class="st1" d="M272.788,150.455c-2.73,0-4.869-0.861-6.416-2.584s-2.32-4.125-2.32-7.207c0-3.164,0.803-5.628,2.408-7.392
		s3.803-2.646,6.592-2.646c1.652,0,3.234,0.287,4.746,0.861l-0.475,1.547c-1.652-0.551-3.088-0.826-4.307-0.826
		c-2.344,0-4.119,0.724-5.326,2.171s-1.811,3.53-1.811,6.249c0,2.578,0.604,4.597,1.811,6.056s2.895,2.188,5.062,2.188
		c1.734,0,3.346-0.311,4.834-0.932v1.617C276.368,150.156,274.769,150.455,272.788,150.455z"/>
	<path class="st1" d="M299.865,140.523c0,3.117-0.756,5.552-2.268,7.304s-3.598,2.628-6.258,2.628c-1.676,0-3.152-0.404-4.43-1.213
		s-2.256-1.969-2.936-3.48s-1.02-3.258-1.02-5.238c0-3.117,0.756-5.546,2.268-7.286s3.586-2.61,6.223-2.61
		c2.625,0,4.685,0.882,6.179,2.646S299.865,137.453,299.865,140.523z M284.783,140.523c0,2.625,0.577,4.673,1.731,6.144
		s2.786,2.206,4.896,2.206s3.741-0.735,4.896-2.206s1.731-3.519,1.731-6.144c0-2.637-0.583-4.682-1.749-6.135
		s-2.804-2.18-4.913-2.18s-3.735,0.724-4.878,2.171S284.783,137.875,284.783,140.523z"/>
	<path class="st1" d="M308.696,150.104h-1.74v-27.352h1.74V150.104z"/>
	<path class="st1" d="M323.891,130.627c1.383,0,2.578,0.252,3.586,0.756s1.91,1.365,2.707,2.584h0.105
		c-0.07-1.477-0.105-2.924-0.105-4.342v-6.873h1.723v27.352h-1.143l-0.439-2.918h-0.141c-1.453,2.18-3.539,3.27-6.258,3.27
		c-2.637,0-4.652-0.82-6.047-2.461s-2.092-4.031-2.092-7.172c0-3.305,0.691-5.83,2.074-7.576S321.254,130.627,323.891,130.627z
		 M323.891,132.209c-2.086,0-3.653,0.732-4.702,2.197s-1.573,3.592-1.573,6.381c0,5.414,2.104,8.121,6.311,8.121
		c2.156,0,3.738-0.627,4.746-1.881s1.512-3.322,1.512-6.205v-0.299c0-2.953-0.495-5.077-1.485-6.372
		S326.105,132.209,323.891,132.209z"/>
	<path class="st1" d="M45.488,212.455c-2.73,0-4.869-0.861-6.416-2.584s-2.32-4.125-2.32-7.207c0-3.164,0.803-5.628,2.408-7.392
		s3.803-2.646,6.592-2.646c1.652,0,3.234,0.287,4.746,0.861l-0.475,1.547c-1.652-0.551-3.088-0.826-4.307-0.826
		c-2.344,0-4.119,0.724-5.326,2.171s-1.811,3.53-1.811,6.249c0,2.578,0.604,4.597,1.811,6.056s2.895,2.188,5.062,2.188
		c1.734,0,3.346-0.311,4.834-0.932v1.617C49.068,212.156,47.469,212.455,45.488,212.455z"/>
	<path class="st1" d="M72.565,202.523c0,3.117-0.756,5.552-2.268,7.304s-3.598,2.628-6.258,2.628c-1.676,0-3.152-0.404-4.43-1.213
		s-2.256-1.969-2.936-3.48s-1.02-3.258-1.02-5.238c0-3.117,0.756-5.546,2.268-7.286s3.586-2.61,6.223-2.61
		c2.625,0,4.685,0.882,6.179,2.646S72.565,199.453,72.565,202.523z M57.483,202.523c0,2.625,0.577,4.673,1.731,6.144
		s2.786,2.206,4.896,2.206s3.741-0.735,4.896-2.206s1.731-3.519,1.731-6.144c0-2.637-0.583-4.682-1.749-6.135
		s-2.804-2.18-4.913-2.18s-3.735,0.724-4.878,2.171S57.483,199.875,57.483,202.523z"/>
	<path class="st1" d="M86.758,194.508h-4.5v17.596h-1.74v-17.596h-3.551v-1.02l3.551-0.65v-1.477c0-2.344,0.431-4.063,1.292-5.159
		s2.271-1.644,4.228-1.644c1.055,0,2.109,0.158,3.164,0.475l-0.404,1.512c-0.938-0.293-1.869-0.439-2.795-0.439
		c-1.359,0-2.323,0.401-2.892,1.204s-0.853,2.106-0.853,3.911v1.775h4.5V194.508z M97.551,194.508h-4.5v17.596h-1.74v-17.596H87.76
		v-1.02l3.551-0.65v-1.477c0-2.344,0.431-4.063,1.292-5.159s2.271-1.644,4.228-1.644c1.055,0,2.109,0.158,3.164,0.475l-0.404,1.512
		c-0.938-0.293-1.869-0.439-2.795-0.439c-1.359,0-2.323,0.401-2.892,1.204s-0.853,2.106-0.853,3.911v1.775h4.5V194.508z"/>
	<path class="st1" d="M110.777,212.455c-2.777,0-4.942-0.855-6.495-2.566s-2.329-4.107-2.329-7.189c0-3.047,0.75-5.487,2.25-7.321
		s3.521-2.751,6.064-2.751c2.25,0,4.025,0.785,5.326,2.355s1.951,3.703,1.951,6.398v1.406h-13.764
		c0.023,2.625,0.636,4.629,1.837,6.012s2.921,2.074,5.159,2.074c1.09,0,2.048-0.076,2.874-0.229s1.872-0.48,3.138-0.984v1.582
		c-1.078,0.469-2.074,0.788-2.988,0.958S111.879,212.455,110.777,212.455z M110.268,194.174c-1.84,0-3.316,0.606-4.43,1.819
		s-1.764,2.962-1.951,5.247h11.812c0-2.215-0.48-3.946-1.441-5.194S111.967,194.174,110.268,194.174z"/>
	<path class="st1" d="M132.335,212.455c-2.777,0-4.942-0.855-6.495-2.566s-2.329-4.107-2.329-7.189c0-3.047,0.75-5.487,2.25-7.321
		s3.521-2.751,6.064-2.751c2.25,0,4.025,0.785,5.326,2.355s1.951,3.703,1.951,6.398v1.406h-13.764
		c0.023,2.625,0.636,4.629,1.837,6.012s2.921,2.074,5.159,2.074c1.09,0,2.048-0.076,2.874-0.229s1.872-0.48,3.138-0.984v1.582
		c-1.078,0.469-2.074,0.788-2.988,0.958S133.437,212.455,132.335,212.455z M131.825,194.174c-1.84,0-3.316,0.606-4.43,1.819
		s-1.764,2.962-1.951,5.247h11.812c0-2.215-0.48-3.946-1.441-5.194S133.524,194.174,131.825,194.174z"/>
	<path class="st1" d="M168.929,212.104l-0.439-3.023h-0.141c-0.961,1.23-1.948,2.101-2.962,2.61s-2.212,0.765-3.595,0.765
		c-1.875,0-3.334-0.48-4.377-1.441s-1.564-2.291-1.564-3.99c0-1.863,0.776-3.311,2.329-4.342s3.8-1.576,6.741-1.635l3.639-0.105
		v-1.266c0-1.816-0.369-3.188-1.107-4.113s-1.928-1.389-3.568-1.389c-1.77,0-3.604,0.492-5.502,1.477l-0.65-1.512
		c2.098-0.984,4.172-1.477,6.223-1.477c2.098,0,3.665,0.545,4.702,1.635s1.556,2.789,1.556,5.098v12.709H168.929z M161.897,210.873
		c2.039,0,3.647-0.583,4.825-1.749s1.767-2.786,1.767-4.86v-1.881l-3.34,0.141c-2.684,0.129-4.597,0.548-5.739,1.257
		s-1.714,1.813-1.714,3.313c0,1.195,0.366,2.124,1.099,2.786S160.562,210.873,161.897,210.873z"/>
	<path class="st1" d="M191.523,212.104v-12.393c0-1.922-0.404-3.319-1.213-4.192s-2.062-1.31-3.762-1.31
		c-2.285,0-3.958,0.577-5.019,1.731s-1.591,3.026-1.591,5.616v10.547h-1.74v-19.107h1.477l0.334,2.619h0.105
		c1.242-1.992,3.451-2.988,6.627-2.988c4.336,0,6.504,2.326,6.504,6.979v12.498H191.523z"/>
	<path class="st1" d="M208.23,192.627c1.383,0,2.578,0.252,3.586,0.756s1.91,1.365,2.707,2.584h0.105
		c-0.07-1.477-0.105-2.924-0.105-4.342v-6.873h1.723v27.352h-1.143l-0.439-2.918h-0.141c-1.453,2.18-3.539,3.27-6.258,3.27
		c-2.637,0-4.652-0.82-6.047-2.461s-2.092-4.031-2.092-7.172c0-3.305,0.691-5.83,2.074-7.576S205.594,192.627,208.23,192.627z
		 M208.23,194.209c-2.086,0-3.653,0.732-4.702,2.197s-1.573,3.592-1.573,6.381c0,5.414,2.104,8.121,6.311,8.121
		c2.156,0,3.738-0.627,4.746-1.881s1.512-3.322,1.512-6.205v-0.299c0-2.953-0.495-5.077-1.485-6.372S210.445,194.209,208.23,194.209
		z"/>
	<path class="st1" d="M240.658,210.908c1.102,0,2.062-0.094,2.883-0.281v1.406c-0.844,0.281-1.816,0.422-2.918,0.422
		c-1.688,0-2.933-0.451-3.735-1.354s-1.204-2.32-1.204-4.254v-12.34h-2.83v-1.02l2.83-0.791l0.879-4.324h0.896v4.623h5.607v1.512
		h-5.607v12.094c0,1.465,0.258,2.549,0.773,3.252S239.557,210.908,240.658,210.908z"/>
	<path class="st1" d="M257.188,212.455c-2.777,0-4.942-0.855-6.495-2.566s-2.329-4.107-2.329-7.189c0-3.047,0.75-5.487,2.25-7.321
		s3.521-2.751,6.064-2.751c2.25,0,4.025,0.785,5.326,2.355s1.951,3.703,1.951,6.398v1.406h-13.764
		c0.023,2.625,0.636,4.629,1.837,6.012s2.921,2.074,5.159,2.074c1.09,0,2.048-0.076,2.874-0.229s1.872-0.48,3.138-0.984v1.582
		c-1.078,0.469-2.074,0.788-2.988,0.958S258.29,212.455,257.188,212.455z M256.679,194.174c-1.84,0-3.316,0.606-4.43,1.819
		s-1.764,2.962-1.951,5.247h11.812c0-2.215-0.48-3.946-1.441-5.194S258.378,194.174,256.679,194.174z"/>
	<path class="st1" d="M282.631,212.104l-0.439-3.023h-0.141c-0.961,1.23-1.948,2.101-2.962,2.61s-2.212,0.765-3.595,0.765
		c-1.875,0-3.334-0.48-4.377-1.441s-1.564-2.291-1.564-3.99c0-1.863,0.776-3.311,2.329-4.342s3.8-1.576,6.741-1.635l3.639-0.105
		v-1.266c0-1.816-0.369-3.188-1.107-4.113s-1.928-1.389-3.568-1.389c-1.77,0-3.604,0.492-5.502,1.477l-0.65-1.512
		c2.098-0.984,4.172-1.477,6.223-1.477c2.098,0,3.665,0.545,4.702,1.635s1.556,2.789,1.556,5.098v12.709H282.631z M275.6,210.873
		c2.039,0,3.647-0.583,4.825-1.749s1.767-2.786,1.767-4.86v-1.881l-3.34,0.141c-2.684,0.129-4.597,0.548-5.739,1.257
		s-1.714,1.813-1.714,3.313c0,1.195,0.366,2.124,1.099,2.786S274.264,210.873,275.6,210.873z"/>
	<path class="st1" d="M291.551,210.732c0-1.148,0.469-1.723,1.406-1.723c0.961,0,1.441,0.574,1.441,1.723s-0.48,1.723-1.441,1.723
		C292.02,212.455,291.551,211.881,291.551,210.732z"/>
</g>
</svg>