<!-- Generator: Adobe Illustrator 21.0.0, SVG Export Plug-In  -->
<svg version="1.1"
	 xmlns="http://www.w3.org/2000/svg" xmlns:xlink="http://www.w3.org/1999/xlink" xmlns:a="http://ns.adobe.com/AdobeSVGViewerExtensions/3.0/"
	 x="0px" y="0px" width="483.257px" height="194.03px" viewBox="0 0 483.257 194.03"
	 style="enable-background:new 0 0 483.257 194.03;" xml:space="preserve">
<style type="text/css">
	.st0{fill:#B9C83E;}
	.st1{fill:#FFFFFF;}
	.st2{fill:#B3B3B3;}
</style>
<defs>
</defs>
<g>
	<g>
		<path class="st0" d="M29,32H16C7.163,32,0,24.837,0,16v0C0,7.163,7.163,0,16,0h13c8.837,0,16,7.163,16,16v0
			C45,24.837,37.837,32,29,32z"/>
	</g>
</g>
<g>
	<g>
		<path class="st1" d="M20.257,10.47c1.212,0,2.137,0.647,2.775,1.941c0.337,1.034,0.506,1.989,0.506,2.864v0.595
			c0,1.08-0.223,2.172-0.67,3.274c-0.674,1.039-1.527,1.559-2.557,1.559H20.23c-1.121,0-2-0.59-2.639-1.771
			c-0.392-1.003-0.588-2.11-0.588-3.322v-0.075c0-1.285,0.232-2.454,0.697-3.507C18.389,10.989,19.241,10.47,20.257,10.47z
			 M18.343,15.46v0.28c0,1.153,0.205,2.114,0.615,2.885c0.369,0.456,0.786,0.684,1.251,0.684h0.075c1.043,0,1.657-0.836,1.839-2.509
			c0.05-0.278,0.084-0.69,0.103-1.237c0-0.976-0.167-1.902-0.499-2.782c-0.383-0.61-0.864-0.916-1.442-0.916
			c-0.707,0-1.228,0.395-1.565,1.183C18.469,13.881,18.343,14.686,18.343,15.46z"/>
	</g>
	<g>
		<path class="st1" d="M26.377,10.47h0.13c0.433,0.096,0.649,0.312,0.649,0.649v8.907c-0.082,0.451-0.314,0.677-0.697,0.677h-0.048
			c-0.451-0.096-0.677-0.31-0.677-0.643v-7.902c-0.305,0.101-0.54,0.15-0.704,0.15c-0.324,0-0.538-0.217-0.643-0.649v-0.157
			c0-0.364,0.399-0.629,1.196-0.793L26.377,10.47z"/>
	</g>
</g>
<g>
	<path class="st2" d="M4.271,111.348c-0.941,0-1.686,0.313-2.23,0.94s-0.816,1.485-0.816,2.575c0,1.121,0.262,1.987,0.787,2.599
		s1.275,0.917,2.248,0.917c0.598,0,1.279-0.107,2.045-0.322v0.873c-0.594,0.223-1.326,0.334-2.197,0.334
		c-1.262,0-2.236-0.383-2.922-1.148s-1.027-1.854-1.027-3.264c0-0.883,0.164-1.656,0.494-2.32s0.807-1.176,1.43-1.535
		s1.357-0.539,2.201-0.539c0.898,0,1.684,0.164,2.355,0.492l-0.422,0.855C5.568,111.501,4.919,111.348,4.271,111.348z"/>
	<path class="st2" d="M13.175,119.147l-0.193-0.914h-0.047c-0.32,0.402-0.639,0.675-0.957,0.817s-0.717,0.214-1.193,0.214
		c-0.637,0-1.135-0.164-1.496-0.492s-0.543-0.795-0.543-1.4c0-1.297,1.037-1.977,3.111-2.039l1.09-0.035v-0.398
		c0-0.504-0.107-0.876-0.324-1.116s-0.564-0.36-1.041-0.36c-0.535,0-1.141,0.164-1.816,0.492l-0.299-0.744
		c0.316-0.172,0.664-0.307,1.041-0.404s0.754-0.146,1.133-0.146c0.766,0,1.334,0.17,1.703,0.51s0.553,0.885,0.553,1.635v4.383
		H13.175z M10.978,118.462c0.605,0,1.082-0.166,1.428-0.498s0.518-0.797,0.518-1.395v-0.58l-0.973,0.041
		c-0.773,0.027-1.33,0.147-1.672,0.36s-0.514,0.544-0.514,0.993c0,0.352,0.107,0.619,0.32,0.803S10.595,118.462,10.978,118.462z"/>
	<path class="st2" d="M20.031,112.608c0.285,0,0.541,0.023,0.768,0.07l-0.135,0.902c-0.266-0.059-0.5-0.088-0.703-0.088
		c-0.52,0-0.965,0.211-1.334,0.633s-0.553,0.947-0.553,1.576v3.445h-0.973v-6.422h0.803l0.111,1.189h0.047
		c0.238-0.418,0.525-0.74,0.861-0.967S19.628,112.608,20.031,112.608z"/>
	<path class="st2" d="M27.148,119.147l-0.193-0.914h-0.047c-0.32,0.402-0.641,0.675-0.959,0.817s-0.715,0.214-1.191,0.214
		c-0.637,0-1.137-0.164-1.498-0.492s-0.541-0.795-0.541-1.4c0-1.297,1.037-1.977,3.111-2.039l1.09-0.035v-0.398
		c0-0.504-0.109-0.876-0.326-1.116s-0.562-0.36-1.039-0.36c-0.535,0-1.141,0.164-1.816,0.492l-0.299-0.744
		c0.316-0.172,0.662-0.307,1.039-0.404s0.756-0.146,1.135-0.146c0.766,0,1.332,0.17,1.701,0.51s0.555,0.885,0.555,1.635v4.383
		H27.148z M24.951,118.462c0.605,0,1.08-0.166,1.426-0.498s0.52-0.797,0.52-1.395v-0.58l-0.973,0.041
		c-0.773,0.027-1.332,0.147-1.674,0.36s-0.512,0.544-0.512,0.993c0,0.352,0.105,0.619,0.318,0.803S24.568,118.462,24.951,118.462z"
		/>
	<path class="st2" d="M39.257,119.147v-4.178c0-0.512-0.109-0.896-0.328-1.151s-0.559-0.384-1.02-0.384
		c-0.605,0-1.053,0.174-1.342,0.521s-0.434,0.883-0.434,1.605v3.586h-0.973v-4.178c0-0.512-0.109-0.896-0.328-1.151
		s-0.561-0.384-1.025-0.384c-0.609,0-1.055,0.183-1.338,0.548s-0.426,0.964-0.426,1.796v3.369h-0.973v-6.422h0.791l0.158,0.879
		h0.047c0.184-0.312,0.443-0.557,0.777-0.732s0.707-0.264,1.121-0.264c1.004,0,1.66,0.363,1.969,1.09h0.047
		c0.191-0.336,0.469-0.602,0.832-0.797s0.777-0.293,1.242-0.293c0.727,0,1.271,0.187,1.633,0.56s0.541,0.97,0.541,1.79v4.189H39.257
		z"/>
	<path class="st2" d="M46.148,119.264c-0.949,0-1.699-0.289-2.248-0.867s-0.822-1.381-0.822-2.408c0-1.035,0.254-1.857,0.764-2.467
		s1.195-0.914,2.055-0.914c0.805,0,1.441,0.265,1.91,0.794s0.703,1.228,0.703,2.095v0.615h-4.424c0.02,0.754,0.209,1.326,0.57,1.717
		s0.871,0.586,1.527,0.586c0.691,0,1.375-0.145,2.051-0.434v0.867c-0.344,0.148-0.67,0.255-0.977,0.319
		S46.581,119.264,46.148,119.264z M45.884,113.422c-0.516,0-0.928,0.168-1.234,0.504s-0.486,0.801-0.541,1.395h3.357
		c0-0.613-0.137-1.083-0.41-1.409S46.392,113.422,45.884,113.422z"/>
	<path class="st2" d="M52.339,119.147h-0.973v-9.117h0.973V119.147z"/>
	<path class="st2" d="M63.857,119.147l-2.906-7.594h-0.047c0.055,0.602,0.082,1.316,0.082,2.145v5.449h-0.92v-8.566h1.5l2.713,7.066
		h0.047l2.736-7.066h1.488v8.566h-0.996v-5.52c0-0.633,0.027-1.32,0.082-2.062h-0.047l-2.93,7.582H63.857z"/>
	<path class="st2" d="M75.902,119.147l-0.193-0.914h-0.047c-0.32,0.402-0.639,0.675-0.957,0.817s-0.717,0.214-1.193,0.214
		c-0.637,0-1.135-0.164-1.496-0.492s-0.543-0.795-0.543-1.4c0-1.297,1.037-1.977,3.111-2.039l1.09-0.035v-0.398
		c0-0.504-0.107-0.876-0.324-1.116s-0.564-0.36-1.041-0.36c-0.535,0-1.141,0.164-1.816,0.492l-0.299-0.744
		c0.316-0.172,0.664-0.307,1.041-0.404s0.754-0.146,1.133-0.146c0.766,0,1.334,0.17,1.703,0.51s0.553,0.885,0.553,1.635v4.383
		H75.902z M73.705,118.462c0.605,0,1.082-0.166,1.428-0.498s0.518-0.797,0.518-1.395v-0.58l-0.973,0.041
		c-0.773,0.027-1.33,0.147-1.672,0.36s-0.514,0.544-0.514,0.993c0,0.352,0.107,0.619,0.32,0.803S73.322,118.462,73.705,118.462z"/>
	<path class="st2" d="M82.394,119.264c-0.93,0-1.65-0.286-2.16-0.858s-0.764-1.382-0.764-2.429c0-1.074,0.258-1.904,0.775-2.49
		s1.256-0.879,2.213-0.879c0.309,0,0.617,0.033,0.926,0.1s0.551,0.145,0.727,0.234l-0.299,0.826
		c-0.215-0.086-0.449-0.157-0.703-0.214s-0.479-0.085-0.674-0.085c-1.305,0-1.957,0.832-1.957,2.496
		c0,0.789,0.158,1.395,0.477,1.816s0.791,0.633,1.416,0.633c0.535,0,1.084-0.115,1.646-0.346v0.861
		C83.587,119.153,83.046,119.264,82.394,119.264z"/>
	<path class="st2" d="M89.306,119.264c-0.93,0-1.648-0.286-2.158-0.858s-0.766-1.382-0.766-2.429c0-1.074,0.26-1.904,0.777-2.49
		s1.254-0.879,2.211-0.879c0.309,0,0.617,0.033,0.926,0.1s0.551,0.145,0.727,0.234l-0.299,0.826
		c-0.215-0.086-0.449-0.157-0.703-0.214s-0.479-0.085-0.674-0.085c-1.305,0-1.957,0.832-1.957,2.496c0,0.789,0.16,1.395,0.479,1.816
		s0.789,0.633,1.414,0.633c0.535,0,1.084-0.115,1.646-0.346v0.861C90.499,119.153,89.958,119.264,89.306,119.264z"/>
	<path class="st2" d="M98.048,119.147v-4.154c0-0.523-0.119-0.914-0.357-1.172s-0.611-0.387-1.119-0.387
		c-0.676,0-1.17,0.184-1.48,0.551s-0.465,0.969-0.465,1.805v3.357h-0.973v-9.117h0.973v2.76c0,0.332-0.016,0.607-0.047,0.826h0.059
		c0.191-0.309,0.463-0.552,0.816-0.729s0.758-0.267,1.211-0.267c0.785,0,1.373,0.187,1.766,0.56s0.59,0.966,0.59,1.778v4.189H98.048
		z"/>
	<path class="st2" d="M102.136,110.985c0-0.223,0.055-0.386,0.164-0.489s0.246-0.155,0.41-0.155c0.156,0,0.291,0.053,0.404,0.158
		s0.17,0.268,0.17,0.486s-0.057,0.382-0.17,0.489s-0.248,0.161-0.404,0.161c-0.164,0-0.301-0.054-0.41-0.161
		S102.136,111.204,102.136,110.985z M103.191,119.147h-0.973v-6.422h0.973V119.147z"/>
	<path class="st2" d="M110.402,119.147l-0.193-0.914h-0.047c-0.32,0.402-0.639,0.675-0.957,0.817s-0.717,0.214-1.193,0.214
		c-0.637,0-1.135-0.164-1.496-0.492s-0.543-0.795-0.543-1.4c0-1.297,1.037-1.977,3.111-2.039l1.09-0.035v-0.398
		c0-0.504-0.107-0.876-0.324-1.116s-0.564-0.36-1.041-0.36c-0.535,0-1.141,0.164-1.816,0.492l-0.299-0.744
		c0.316-0.172,0.664-0.307,1.041-0.404s0.754-0.146,1.133-0.146c0.766,0,1.334,0.17,1.703,0.51s0.553,0.885,0.553,1.635v4.383
		H110.402z M108.205,118.462c0.605,0,1.082-0.166,1.428-0.498s0.518-0.797,0.518-1.395v-0.58l-0.973,0.041
		c-0.773,0.027-1.33,0.147-1.672,0.36s-0.514,0.544-0.514,0.993c0,0.352,0.107,0.619,0.32,0.803S107.822,118.462,108.205,118.462z"
		/>
	<path class="st2" d="M116.402,118.462c0.172,0,0.338-0.013,0.498-0.038s0.287-0.052,0.381-0.079v0.744
		c-0.105,0.051-0.262,0.093-0.467,0.126s-0.389,0.05-0.553,0.05c-1.242,0-1.863-0.654-1.863-1.963v-3.82h-0.92v-0.469l0.92-0.404
		l0.41-1.371h0.562v1.488h1.863v0.756h-1.863v3.779c0,0.387,0.092,0.684,0.275,0.891S116.081,118.462,116.402,118.462z"/>
	<path class="st2" d="M125.306,115.93c0,1.047-0.264,1.864-0.791,2.452s-1.256,0.882-2.186,0.882c-0.574,0-1.084-0.135-1.529-0.404
		s-0.789-0.656-1.031-1.16s-0.363-1.094-0.363-1.77c0-1.047,0.262-1.862,0.785-2.446s1.25-0.876,2.18-0.876
		c0.898,0,1.613,0.299,2.143,0.896S125.306,114.911,125.306,115.93z M120.413,115.93c0,0.82,0.164,1.445,0.492,1.875
		s0.811,0.645,1.447,0.645s1.121-0.214,1.451-0.642s0.494-1.054,0.494-1.878c0-0.816-0.164-1.437-0.494-1.86
		s-0.818-0.636-1.463-0.636c-0.637,0-1.117,0.209-1.441,0.627S120.413,115.102,120.413,115.93z"/>
	<path class="st2" d="M129.232,117.753l0.088,0.135c-0.102,0.391-0.248,0.845-0.439,1.362s-0.391,0.999-0.598,1.444h-0.732
		c0.105-0.406,0.221-0.908,0.348-1.506c0.127-0.598,0.217-1.076,0.268-1.436H129.232z"/>
	<path class="st2" d="M140.484,111.348c-0.941,0-1.684,0.313-2.229,0.94s-0.818,1.485-0.818,2.575c0,1.121,0.264,1.987,0.789,2.599
		s1.273,0.917,2.246,0.917c0.598,0,1.279-0.107,2.045-0.322v0.873c-0.594,0.223-1.326,0.334-2.197,0.334
		c-1.262,0-2.234-0.383-2.92-1.148s-1.029-1.854-1.029-3.264c0-0.883,0.166-1.656,0.496-2.32s0.807-1.176,1.43-1.535
		s1.355-0.539,2.199-0.539c0.898,0,1.684,0.164,2.355,0.492l-0.422,0.855C141.781,111.501,141.132,111.348,140.484,111.348z"/>
	<path class="st2" d="M149.39,119.147l-0.193-0.914h-0.047c-0.32,0.402-0.641,0.675-0.959,0.817s-0.715,0.214-1.191,0.214
		c-0.637,0-1.137-0.164-1.498-0.492s-0.541-0.795-0.541-1.4c0-1.297,1.037-1.977,3.111-2.039l1.09-0.035v-0.398
		c0-0.504-0.109-0.876-0.326-1.116s-0.562-0.36-1.039-0.36c-0.535,0-1.141,0.164-1.816,0.492l-0.299-0.744
		c0.316-0.172,0.662-0.307,1.039-0.404s0.756-0.146,1.135-0.146c0.766,0,1.332,0.17,1.701,0.51s0.555,0.885,0.555,1.635v4.383
		H149.39z M147.193,118.462c0.605,0,1.08-0.166,1.426-0.498s0.52-0.797,0.52-1.395v-0.58l-0.973,0.041
		c-0.773,0.027-1.332,0.147-1.674,0.36s-0.512,0.544-0.512,0.993c0,0.352,0.105,0.619,0.318,0.803S146.81,118.462,147.193,118.462z"
		/>
	<path class="st2" d="M156.208,113.481h-1.635v5.666h-0.973v-5.666h-1.148v-0.439l1.148-0.352v-0.357
		c0-1.578,0.689-2.367,2.068-2.367c0.34,0,0.738,0.068,1.195,0.205l-0.252,0.779c-0.375-0.121-0.695-0.182-0.961-0.182
		c-0.367,0-0.639,0.122-0.814,0.366s-0.264,0.636-0.264,1.175v0.416h1.635V113.481z"/>
	<path class="st2" d="M161.294,119.264c-0.949,0-1.699-0.289-2.248-0.867s-0.822-1.381-0.822-2.408c0-1.035,0.254-1.857,0.764-2.467
		s1.195-0.914,2.055-0.914c0.805,0,1.441,0.265,1.91,0.794s0.703,1.228,0.703,2.095v0.615h-4.424c0.02,0.754,0.209,1.326,0.57,1.717
		s0.871,0.586,1.527,0.586c0.691,0,1.375-0.145,2.051-0.434v0.867c-0.344,0.148-0.67,0.255-0.977,0.319
		S161.728,119.264,161.294,119.264z M161.031,113.422c-0.516,0-0.928,0.168-1.234,0.504s-0.486,0.801-0.541,1.395h3.357
		c0-0.613-0.137-1.083-0.41-1.409S161.538,113.422,161.031,113.422z"/>
	<path class="st2" d="M174.767,119.147l-2.906-7.594h-0.047c0.055,0.602,0.082,1.316,0.082,2.145v5.449h-0.92v-8.566h1.5
		l2.713,7.066h0.047l2.736-7.066h1.488v8.566h-0.996v-5.52c0-0.633,0.027-1.32,0.082-2.062h-0.047l-2.93,7.582H174.767z"/>
	<path class="st2" d="M188.408,115.93c0,1.047-0.264,1.864-0.791,2.452s-1.256,0.882-2.186,0.882c-0.574,0-1.084-0.135-1.529-0.404
		s-0.789-0.656-1.031-1.16s-0.363-1.094-0.363-1.77c0-1.047,0.262-1.862,0.785-2.446s1.25-0.876,2.18-0.876
		c0.898,0,1.611,0.299,2.141,0.896S188.408,114.911,188.408,115.93z M183.515,115.93c0,0.82,0.164,1.445,0.492,1.875
		s0.811,0.645,1.447,0.645s1.119-0.214,1.449-0.642s0.496-1.054,0.496-1.878c0-0.816-0.166-1.437-0.496-1.86
		s-0.816-0.636-1.461-0.636c-0.637,0-1.117,0.209-1.441,0.627S183.515,115.102,183.515,115.93z"/>
	<path class="st2" d="M193.878,119.264c-0.93,0-1.648-0.286-2.158-0.858s-0.766-1.382-0.766-2.429c0-1.074,0.26-1.904,0.777-2.49
		s1.254-0.879,2.211-0.879c0.309,0,0.617,0.033,0.926,0.1s0.551,0.145,0.727,0.234l-0.299,0.826
		c-0.215-0.086-0.449-0.157-0.703-0.214s-0.479-0.085-0.674-0.085c-1.305,0-1.957,0.832-1.957,2.496c0,0.789,0.16,1.395,0.479,1.816
		s0.789,0.633,1.414,0.633c0.535,0,1.084-0.115,1.646-0.346v0.861C195.072,119.153,194.531,119.264,193.878,119.264z"/>
	<path class="st2" d="M202.621,119.147v-4.154c0-0.523-0.119-0.914-0.357-1.172s-0.611-0.387-1.119-0.387
		c-0.676,0-1.17,0.184-1.48,0.551s-0.465,0.969-0.465,1.805v3.357h-0.973v-9.117h0.973v2.76c0,0.332-0.016,0.607-0.047,0.826h0.059
		c0.191-0.309,0.463-0.552,0.816-0.729s0.758-0.267,1.211-0.267c0.785,0,1.373,0.187,1.766,0.56s0.59,0.966,0.59,1.778v4.189
		H202.621z"/>
	<path class="st2" d="M210.74,119.147l-0.193-0.914h-0.047c-0.32,0.402-0.641,0.675-0.959,0.817s-0.715,0.214-1.191,0.214
		c-0.637,0-1.137-0.164-1.498-0.492s-0.541-0.795-0.541-1.4c0-1.297,1.037-1.977,3.111-2.039l1.09-0.035v-0.398
		c0-0.504-0.109-0.876-0.326-1.116s-0.562-0.36-1.039-0.36c-0.535,0-1.141,0.164-1.816,0.492l-0.299-0.744
		c0.316-0.172,0.662-0.307,1.039-0.404s0.756-0.146,1.135-0.146c0.766,0,1.332,0.17,1.701,0.51s0.555,0.885,0.555,1.635v4.383
		H210.74z M208.542,118.462c0.605,0,1.08-0.166,1.426-0.498s0.52-0.797,0.52-1.395v-0.58l-0.973,0.041
		c-0.773,0.027-1.332,0.147-1.674,0.36s-0.512,0.544-0.512,0.993c0,0.352,0.105,0.619,0.318,0.803S208.16,118.462,208.542,118.462z"
		/>
	<path class="st2" d="M215.683,117.753l0.088,0.135c-0.102,0.391-0.248,0.845-0.439,1.362s-0.391,0.999-0.598,1.444h-0.732
		c0.105-0.406,0.223-0.908,0.35-1.506s0.215-1.076,0.266-1.436H215.683z"/>
	<path class="st2" d="M226.937,111.348c-0.941,0-1.684,0.313-2.229,0.94s-0.818,1.485-0.818,2.575c0,1.121,0.264,1.987,0.789,2.599
		s1.273,0.917,2.246,0.917c0.598,0,1.279-0.107,2.045-0.322v0.873c-0.594,0.223-1.326,0.334-2.197,0.334
		c-1.262,0-2.234-0.383-2.92-1.148s-1.029-1.854-1.029-3.264c0-0.883,0.166-1.656,0.496-2.32s0.807-1.176,1.43-1.535
		s1.355-0.539,2.199-0.539c0.898,0,1.684,0.164,2.355,0.492l-0.422,0.855C228.234,111.501,227.585,111.348,226.937,111.348z"/>
	<path class="st2" d="M235.843,119.147l-0.193-0.914h-0.047c-0.32,0.402-0.641,0.675-0.959,0.817s-0.715,0.214-1.191,0.214
		c-0.637,0-1.137-0.164-1.498-0.492s-0.541-0.795-0.541-1.4c0-1.297,1.037-1.977,3.111-2.039l1.09-0.035v-0.398
		c0-0.504-0.109-0.876-0.326-1.116s-0.562-0.36-1.039-0.36c-0.535,0-1.141,0.164-1.816,0.492l-0.299-0.744
		c0.316-0.172,0.662-0.307,1.039-0.404s0.756-0.146,1.135-0.146c0.766,0,1.332,0.17,1.701,0.51s0.555,0.885,0.555,1.635v4.383
		H235.843z M233.646,118.462c0.605,0,1.08-0.166,1.426-0.498s0.52-0.797,0.52-1.395v-0.58l-0.973,0.041
		c-0.773,0.027-1.332,0.147-1.674,0.36s-0.512,0.544-0.512,0.993c0,0.352,0.105,0.619,0.318,0.803S233.263,118.462,233.646,118.462z
		"/>
	<path class="st2" d="M242.662,113.481h-1.635v5.666h-0.973v-5.666h-1.148v-0.439l1.148-0.352v-0.357
		c0-1.578,0.689-2.367,2.068-2.367c0.34,0,0.738,0.068,1.195,0.205l-0.252,0.779c-0.375-0.121-0.695-0.182-0.961-0.182
		c-0.367,0-0.639,0.122-0.814,0.366s-0.264,0.636-0.264,1.175v0.416h1.635V113.481z"/>
	<path class="st2" d="M247.746,119.264c-0.949,0-1.697-0.289-2.246-0.867s-0.824-1.381-0.824-2.408c0-1.035,0.256-1.857,0.766-2.467
		s1.193-0.914,2.053-0.914c0.805,0,1.441,0.265,1.91,0.794s0.703,1.228,0.703,2.095v0.615h-4.424
		c0.02,0.754,0.211,1.326,0.572,1.717s0.869,0.586,1.525,0.586c0.691,0,1.375-0.145,2.051-0.434v0.867
		c-0.344,0.148-0.668,0.255-0.975,0.319S248.179,119.264,247.746,119.264z M247.482,113.422c-0.516,0-0.926,0.168-1.232,0.504
		s-0.488,0.801-0.543,1.395h3.357c0-0.613-0.137-1.083-0.41-1.409S247.99,113.422,247.482,113.422z"/>
	<path class="st2" d="M257.429,119.147v-8.566h0.996v7.664h3.779v0.902H257.429z"/>
	<path class="st2" d="M268.662,119.147l-0.193-0.914h-0.047c-0.32,0.402-0.641,0.675-0.959,0.817s-0.715,0.214-1.191,0.214
		c-0.637,0-1.137-0.164-1.498-0.492s-0.541-0.795-0.541-1.4c0-1.297,1.037-1.977,3.111-2.039l1.09-0.035v-0.398
		c0-0.504-0.109-0.876-0.326-1.116s-0.562-0.36-1.039-0.36c-0.535,0-1.141,0.164-1.816,0.492l-0.299-0.744
		c0.316-0.172,0.662-0.307,1.039-0.404s0.756-0.146,1.135-0.146c0.766,0,1.332,0.17,1.701,0.51s0.555,0.885,0.555,1.635v4.383
		H268.662z M266.464,118.462c0.605,0,1.08-0.166,1.426-0.498s0.52-0.797,0.52-1.395v-0.58l-0.973,0.041
		c-0.773,0.027-1.332,0.147-1.674,0.36s-0.512,0.544-0.512,0.993c0,0.352,0.105,0.619,0.318,0.803S266.081,118.462,266.464,118.462z
		"/>
	<path class="st2" d="M274.66,118.462c0.172,0,0.338-0.013,0.498-0.038s0.287-0.052,0.381-0.079v0.744
		c-0.105,0.051-0.262,0.093-0.467,0.126s-0.389,0.05-0.553,0.05c-1.242,0-1.863-0.654-1.863-1.963v-3.82h-0.92v-0.469l0.92-0.404
		l0.41-1.371h0.562v1.488h1.863v0.756h-1.863v3.779c0,0.387,0.092,0.684,0.275,0.891S274.339,118.462,274.66,118.462z"/>
	<path class="st2" d="M280.095,118.462c0.172,0,0.338-0.013,0.498-0.038s0.287-0.052,0.381-0.079v0.744
		c-0.105,0.051-0.26,0.093-0.465,0.126s-0.391,0.05-0.555,0.05c-1.242,0-1.863-0.654-1.863-1.963v-3.82h-0.92v-0.469l0.92-0.404
		l0.41-1.371h0.562v1.488h1.863v0.756h-1.863v3.779c0,0.387,0.092,0.684,0.275,0.891S279.775,118.462,280.095,118.462z"/>
	<path class="st2" d="M286.171,119.264c-0.949,0-1.699-0.289-2.248-0.867s-0.822-1.381-0.822-2.408c0-1.035,0.254-1.857,0.764-2.467
		s1.195-0.914,2.055-0.914c0.805,0,1.441,0.265,1.91,0.794s0.703,1.228,0.703,2.095v0.615h-4.424c0.02,0.754,0.209,1.326,0.57,1.717
		s0.871,0.586,1.527,0.586c0.691,0,1.375-0.145,2.051-0.434v0.867c-0.344,0.148-0.67,0.255-0.977,0.319
		S286.605,119.264,286.171,119.264z M285.908,113.422c-0.516,0-0.928,0.168-1.234,0.504s-0.486,0.801-0.541,1.395h3.357
		c0-0.613-0.137-1.083-0.41-1.409S286.415,113.422,285.908,113.422z"/>
	<path class="st2" d="M292.41,117.753l0.088,0.135c-0.102,0.391-0.248,0.845-0.439,1.362s-0.391,0.999-0.598,1.444h-0.732
		c0.105-0.406,0.223-0.908,0.35-1.506s0.215-1.076,0.266-1.436H292.41z"/>
	<path class="st2" d="M303.663,111.348c-0.941,0-1.686,0.313-2.23,0.94s-0.816,1.485-0.816,2.575c0,1.121,0.262,1.987,0.787,2.599
		s1.275,0.917,2.248,0.917c0.598,0,1.279-0.107,2.045-0.322v0.873c-0.594,0.223-1.326,0.334-2.197,0.334
		c-1.262,0-2.236-0.383-2.922-1.148s-1.027-1.854-1.027-3.264c0-0.883,0.164-1.656,0.494-2.32s0.807-1.176,1.43-1.535
		s1.357-0.539,2.201-0.539c0.898,0,1.684,0.164,2.355,0.492l-0.422,0.855C304.96,111.501,304.312,111.348,303.663,111.348z"/>
	<path class="st2" d="M312.568,119.147l-0.193-0.914h-0.047c-0.32,0.402-0.639,0.675-0.957,0.817s-0.717,0.214-1.193,0.214
		c-0.637,0-1.135-0.164-1.496-0.492s-0.543-0.795-0.543-1.4c0-1.297,1.037-1.977,3.111-2.039l1.09-0.035v-0.398
		c0-0.504-0.107-0.876-0.324-1.116s-0.564-0.36-1.041-0.36c-0.535,0-1.141,0.164-1.816,0.492l-0.299-0.744
		c0.316-0.172,0.664-0.307,1.041-0.404s0.754-0.146,1.133-0.146c0.766,0,1.334,0.17,1.703,0.51s0.553,0.885,0.553,1.635v4.383
		H312.568z M310.371,118.462c0.605,0,1.082-0.166,1.428-0.498s0.518-0.797,0.518-1.395v-0.58l-0.973,0.041
		c-0.773,0.027-1.33,0.147-1.672,0.36s-0.514,0.544-0.514,0.993c0,0.352,0.107,0.619,0.32,0.803S309.988,118.462,310.371,118.462z"
		/>
	<path class="st2" d="M319.482,119.264c-0.418,0-0.801-0.077-1.146-0.231s-0.635-0.392-0.869-0.712h-0.07
		c0.047,0.375,0.07,0.73,0.07,1.066v2.643h-0.973v-9.305h0.791l0.135,0.879h0.047c0.25-0.352,0.541-0.605,0.873-0.762
		s0.713-0.234,1.143-0.234c0.852,0,1.508,0.291,1.971,0.873s0.695,1.398,0.695,2.449c0,1.055-0.236,1.874-0.707,2.458
		S320.318,119.264,319.482,119.264z M319.341,113.434c-0.656,0-1.131,0.182-1.424,0.545s-0.443,0.941-0.451,1.734v0.217
		c0,0.902,0.15,1.548,0.451,1.937s0.783,0.583,1.447,0.583c0.555,0,0.988-0.225,1.303-0.674s0.473-1.068,0.473-1.857
		c0-0.801-0.158-1.415-0.473-1.843S319.912,113.434,319.341,113.434z"/>
	<path class="st2" d="M328.035,119.264c-0.418,0-0.799-0.077-1.145-0.231s-0.637-0.392-0.871-0.712h-0.07
		c0.047,0.375,0.07,0.73,0.07,1.066v2.643h-0.973v-9.305h0.791l0.135,0.879h0.047c0.25-0.352,0.541-0.605,0.873-0.762
		s0.713-0.234,1.143-0.234c0.852,0,1.51,0.291,1.973,0.873s0.693,1.398,0.693,2.449c0,1.055-0.234,1.874-0.705,2.458
		S328.871,119.264,328.035,119.264z M327.894,113.434c-0.656,0-1.131,0.182-1.424,0.545s-0.443,0.941-0.451,1.734v0.217
		c0,0.902,0.15,1.548,0.451,1.937s0.783,0.583,1.447,0.583c0.555,0,0.99-0.225,1.305-0.674s0.471-1.068,0.471-1.857
		c0-0.801-0.156-1.415-0.471-1.843S328.464,113.434,327.894,113.434z"/>
	<path class="st2" d="M334.515,112.725v4.166c0,0.523,0.119,0.914,0.357,1.172s0.611,0.387,1.119,0.387
		c0.672,0,1.162-0.184,1.473-0.551s0.467-0.967,0.467-1.799v-3.375h0.973v6.422h-0.803l-0.141-0.861h-0.053
		c-0.199,0.316-0.477,0.559-0.83,0.727s-0.756,0.252-1.209,0.252c-0.781,0-1.367-0.186-1.756-0.557s-0.582-0.965-0.582-1.781v-4.201
		H334.515z"/>
	<path class="st2" d="M344.732,119.264c-0.93,0-1.65-0.286-2.16-0.858s-0.764-1.382-0.764-2.429c0-1.074,0.258-1.904,0.775-2.49
		s1.256-0.879,2.213-0.879c0.309,0,0.617,0.033,0.926,0.1s0.551,0.145,0.727,0.234l-0.299,0.826
		c-0.215-0.086-0.449-0.157-0.703-0.214s-0.479-0.085-0.674-0.085c-1.305,0-1.957,0.832-1.957,2.496
		c0,0.789,0.158,1.395,0.477,1.816s0.791,0.633,1.416,0.633c0.535,0,1.084-0.115,1.646-0.346v0.861
		C345.925,119.153,345.384,119.264,344.732,119.264z"/>
	<path class="st2" d="M351.644,119.264c-0.93,0-1.648-0.286-2.158-0.858s-0.766-1.382-0.766-2.429c0-1.074,0.26-1.904,0.777-2.49
		s1.254-0.879,2.211-0.879c0.309,0,0.617,0.033,0.926,0.1s0.551,0.145,0.727,0.234l-0.299,0.826
		c-0.215-0.086-0.449-0.157-0.703-0.214s-0.479-0.085-0.674-0.085c-1.305,0-1.957,0.832-1.957,2.496c0,0.789,0.16,1.395,0.479,1.816
		s0.789,0.633,1.414,0.633c0.535,0,1.084-0.115,1.646-0.346v0.861C352.837,119.153,352.296,119.264,351.644,119.264z"/>
	<path class="st2" d="M355.91,110.985c0-0.223,0.055-0.386,0.164-0.489s0.246-0.155,0.41-0.155c0.156,0,0.291,0.053,0.404,0.158
		s0.17,0.268,0.17,0.486s-0.057,0.382-0.17,0.489s-0.248,0.161-0.404,0.161c-0.164,0-0.301-0.054-0.41-0.161
		S355.91,111.204,355.91,110.985z M356.964,119.147h-0.973v-6.422h0.973V119.147z"/>
	<path class="st2" d="M364.621,119.147v-4.154c0-0.523-0.119-0.914-0.357-1.172s-0.611-0.387-1.119-0.387
		c-0.672,0-1.164,0.182-1.477,0.545s-0.469,0.963-0.469,1.799v3.369h-0.973v-6.422h0.791l0.158,0.879h0.047
		c0.199-0.316,0.479-0.562,0.838-0.735s0.76-0.261,1.201-0.261c0.773,0,1.355,0.187,1.746,0.56s0.586,0.97,0.586,1.79v4.189H364.621
		z"/>
	<path class="st2" d="M374.335,115.93c0,1.047-0.264,1.864-0.791,2.452s-1.256,0.882-2.186,0.882c-0.574,0-1.084-0.135-1.529-0.404
		s-0.789-0.656-1.031-1.16s-0.363-1.094-0.363-1.77c0-1.047,0.262-1.862,0.785-2.446s1.25-0.876,2.18-0.876
		c0.898,0,1.611,0.299,2.141,0.896S374.335,114.911,374.335,115.93z M369.443,115.93c0,0.82,0.164,1.445,0.492,1.875
		s0.811,0.645,1.447,0.645s1.119-0.214,1.449-0.642s0.496-1.054,0.496-1.878c0-0.816-0.166-1.437-0.496-1.86
		s-0.816-0.636-1.461-0.636c-0.637,0-1.117,0.209-1.441,0.627S369.443,115.102,369.443,115.93z"/>
	<path class="st2" d="M378.259,117.753l0.088,0.135c-0.102,0.391-0.248,0.845-0.439,1.362s-0.391,0.999-0.598,1.444h-0.732
		c0.105-0.406,0.221-0.908,0.348-1.506s0.217-1.076,0.268-1.436H378.259z"/>
	<path class="st2" d="M391.23,119.147l-1.066-2.725h-3.434l-1.055,2.725h-1.008l3.387-8.602h0.838l3.369,8.602H391.23z
		 M389.853,115.526l-0.996-2.654c-0.129-0.336-0.262-0.748-0.398-1.236c-0.086,0.375-0.209,0.787-0.369,1.236l-1.008,2.654H389.853z
		"/>
	<path class="st2" d="M402.677,119.147v-4.178c0-0.512-0.109-0.896-0.328-1.151s-0.559-0.384-1.02-0.384
		c-0.605,0-1.053,0.174-1.342,0.521s-0.434,0.883-0.434,1.605v3.586h-0.973v-4.178c0-0.512-0.109-0.896-0.328-1.151
		s-0.561-0.384-1.025-0.384c-0.609,0-1.055,0.183-1.338,0.548s-0.426,0.964-0.426,1.796v3.369h-0.973v-6.422h0.791l0.158,0.879
		h0.047c0.184-0.312,0.443-0.557,0.777-0.732s0.707-0.264,1.121-0.264c1.004,0,1.66,0.363,1.969,1.09h0.047
		c0.191-0.336,0.469-0.602,0.832-0.797s0.777-0.293,1.242-0.293c0.727,0,1.271,0.187,1.633,0.56s0.541,0.97,0.541,1.79v4.189
		H402.677z"/>
	<path class="st2" d="M409.568,119.264c-0.949,0-1.699-0.289-2.248-0.867s-0.822-1.381-0.822-2.408c0-1.035,0.254-1.857,0.764-2.467
		s1.195-0.914,2.055-0.914c0.805,0,1.441,0.265,1.91,0.794s0.703,1.228,0.703,2.095v0.615h-4.424c0.02,0.754,0.209,1.326,0.57,1.717
		s0.871,0.586,1.527,0.586c0.691,0,1.375-0.145,2.051-0.434v0.867c-0.344,0.148-0.67,0.255-0.977,0.319
		S410.001,119.264,409.568,119.264z M409.304,113.422c-0.516,0-0.928,0.168-1.234,0.504s-0.486,0.801-0.541,1.395h3.357
		c0-0.613-0.137-1.083-0.41-1.409S409.812,113.422,409.304,113.422z"/>
	<path class="st2" d="M417.716,112.608c0.285,0,0.541,0.023,0.768,0.07l-0.135,0.902c-0.266-0.059-0.5-0.088-0.703-0.088
		c-0.52,0-0.965,0.211-1.334,0.633s-0.553,0.947-0.553,1.576v3.445h-0.973v-6.422h0.803l0.111,1.189h0.047
		c0.238-0.418,0.525-0.74,0.861-0.967S417.314,112.608,417.716,112.608z"/>
	<path class="st2" d="M420.802,110.985c0-0.223,0.055-0.386,0.164-0.489s0.246-0.155,0.41-0.155c0.156,0,0.291,0.053,0.404,0.158
		s0.17,0.268,0.17,0.486s-0.057,0.382-0.17,0.489s-0.248,0.161-0.404,0.161c-0.164,0-0.301-0.054-0.41-0.161
		S420.802,111.204,420.802,110.985z M421.857,119.147h-0.973v-6.422h0.973V119.147z"/>
	<path class="st2" d="M427.687,119.264c-0.93,0-1.65-0.286-2.16-0.858s-0.764-1.382-0.764-2.429c0-1.074,0.258-1.904,0.775-2.49
		s1.256-0.879,2.213-0.879c0.309,0,0.617,0.033,0.926,0.1s0.551,0.145,0.727,0.234l-0.299,0.826
		c-0.215-0.086-0.449-0.157-0.703-0.214s-0.479-0.085-0.674-0.085c-1.305,0-1.957,0.832-1.957,2.496
		c0,0.789,0.158,1.395,0.477,1.816s0.791,0.633,1.416,0.633c0.535,0,1.084-0.115,1.646-0.346v0.861
		C428.88,119.153,428.339,119.264,427.687,119.264z"/>
	<path class="st2" d="M435.982,119.147l-0.193-0.914h-0.047c-0.32,0.402-0.639,0.675-0.957,0.817s-0.717,0.214-1.193,0.214
		c-0.637,0-1.135-0.164-1.496-0.492s-0.543-0.795-0.543-1.4c0-1.297,1.037-1.977,3.111-2.039l1.09-0.035v-0.398
		c0-0.504-0.107-0.876-0.324-1.116s-0.564-0.36-1.041-0.36c-0.535,0-1.141,0.164-1.816,0.492l-0.299-0.744
		c0.316-0.172,0.664-0.307,1.041-0.404s0.754-0.146,1.133-0.146c0.766,0,1.334,0.17,1.703,0.51s0.553,0.885,0.553,1.635v4.383
		H435.982z M433.785,118.462c0.605,0,1.082-0.166,1.428-0.498s0.518-0.797,0.518-1.395v-0.58l-0.973,0.041
		c-0.773,0.027-1.33,0.147-1.672,0.36s-0.514,0.544-0.514,0.993c0,0.352,0.107,0.619,0.32,0.803S433.402,118.462,433.785,118.462z"
		/>
	<path class="st2" d="M444.302,119.147v-4.154c0-0.523-0.119-0.914-0.357-1.172s-0.611-0.387-1.119-0.387
		c-0.672,0-1.164,0.182-1.477,0.545s-0.469,0.963-0.469,1.799v3.369h-0.973v-6.422h0.791l0.158,0.879h0.047
		c0.199-0.316,0.479-0.562,0.838-0.735s0.76-0.261,1.201-0.261c0.773,0,1.355,0.187,1.746,0.56s0.586,0.97,0.586,1.79v4.189H444.302
		z"/>
	<path class="st2" d="M454.015,115.93c0,1.047-0.264,1.864-0.791,2.452s-1.256,0.882-2.186,0.882c-0.574,0-1.084-0.135-1.529-0.404
		s-0.789-0.656-1.031-1.16s-0.363-1.094-0.363-1.77c0-1.047,0.262-1.862,0.785-2.446s1.25-0.876,2.18-0.876
		c0.898,0,1.611,0.299,2.141,0.896S454.015,114.911,454.015,115.93z M449.122,115.93c0,0.82,0.164,1.445,0.492,1.875
		s0.811,0.645,1.447,0.645s1.119-0.214,1.449-0.642s0.496-1.054,0.496-1.878c0-0.816-0.166-1.437-0.496-1.86
		s-0.816-0.636-1.461-0.636c-0.637,0-1.117,0.209-1.441,0.627S449.122,115.102,449.122,115.93z"/>
	<path class="st2" d="M457.939,117.753l0.088,0.135c-0.102,0.391-0.248,0.845-0.439,1.362s-0.391,0.999-0.598,1.444h-0.732
		c0.105-0.406,0.223-0.908,0.35-1.506s0.215-1.076,0.266-1.436H457.939z"/>
	<path class="st2" d="M5.378,143.147H0.603v-8.566h4.775v0.885H1.599v2.76H5.15v0.879H1.599v3.152h3.779V143.147z"/>
	<path class="st2" d="M12.472,141.395c0,0.598-0.223,1.059-0.668,1.383s-1.07,0.486-1.875,0.486c-0.852,0-1.516-0.135-1.992-0.404
		v-0.902c0.309,0.156,0.641,0.279,0.994,0.369s0.693,0.135,1.021,0.135c0.508,0,0.898-0.081,1.172-0.243s0.41-0.409,0.41-0.741
		c0-0.25-0.107-0.464-0.324-0.642s-0.641-0.388-1.27-0.63c-0.598-0.223-1.021-0.417-1.273-0.583s-0.439-0.354-0.562-0.565
		s-0.186-0.463-0.186-0.756c0-0.523,0.213-0.937,0.639-1.239s1.01-0.454,1.752-0.454c0.691,0,1.367,0.141,2.027,0.422l-0.346,0.791
		c-0.645-0.266-1.229-0.398-1.752-0.398c-0.461,0-0.809,0.072-1.043,0.217s-0.352,0.344-0.352,0.598
		c0,0.172,0.045,0.318,0.133,0.439s0.229,0.236,0.424,0.346s0.57,0.268,1.125,0.475c0.762,0.277,1.277,0.557,1.545,0.838
		S12.472,140.969,12.472,141.395z"/>
	<path class="st2" d="M18.244,143.264c-0.418,0-0.801-0.077-1.146-0.231s-0.635-0.392-0.869-0.712h-0.07
		c0.047,0.375,0.07,0.73,0.07,1.066v2.643h-0.973v-9.305h0.791l0.135,0.879h0.047c0.25-0.352,0.541-0.605,0.873-0.762
		s0.713-0.234,1.143-0.234c0.852,0,1.508,0.291,1.971,0.873s0.695,1.398,0.695,2.449c0,1.055-0.236,1.874-0.707,2.458
		S19.08,143.264,18.244,143.264z M18.103,137.434c-0.656,0-1.131,0.182-1.424,0.545s-0.443,0.941-0.451,1.734v0.217
		c0,0.902,0.15,1.548,0.451,1.937s0.783,0.583,1.447,0.583c0.555,0,0.988-0.225,1.303-0.674s0.473-1.068,0.473-1.857
		c0-0.801-0.158-1.415-0.473-1.843S18.673,137.434,18.103,137.434z"/>
	<path class="st2" d="M26.738,136.608c0.285,0,0.541,0.023,0.768,0.07l-0.135,0.902c-0.266-0.059-0.5-0.088-0.703-0.088
		c-0.52,0-0.965,0.211-1.334,0.633s-0.553,0.947-0.553,1.576v3.445h-0.973v-6.422h0.803l0.111,1.189h0.047
		c0.238-0.418,0.525-0.74,0.861-0.967S26.335,136.608,26.738,136.608z"/>
	<path class="st2" d="M32.619,143.264c-0.949,0-1.697-0.289-2.246-0.867s-0.824-1.381-0.824-2.408c0-1.035,0.256-1.857,0.766-2.467
		s1.193-0.914,2.053-0.914c0.805,0,1.441,0.265,1.91,0.794s0.703,1.228,0.703,2.095v0.615h-4.424
		c0.02,0.754,0.211,1.326,0.572,1.717s0.869,0.586,1.525,0.586c0.691,0,1.375-0.145,2.051-0.434v0.867
		c-0.344,0.148-0.668,0.255-0.975,0.319S33.052,143.264,32.619,143.264z M32.355,137.422c-0.516,0-0.926,0.168-1.232,0.504
		s-0.488,0.801-0.543,1.395h3.357c0-0.613-0.137-1.083-0.41-1.409S32.863,137.422,32.355,137.422z"/>
	<path class="st2" d="M41.982,141.395c0,0.598-0.223,1.059-0.668,1.383s-1.07,0.486-1.875,0.486c-0.852,0-1.516-0.135-1.992-0.404
		v-0.902c0.309,0.156,0.639,0.279,0.992,0.369s0.695,0.135,1.023,0.135c0.508,0,0.898-0.081,1.172-0.243s0.41-0.409,0.41-0.741
		c0-0.25-0.109-0.464-0.326-0.642s-0.639-0.388-1.268-0.63c-0.598-0.223-1.023-0.417-1.275-0.583s-0.439-0.354-0.562-0.565
		s-0.184-0.463-0.184-0.756c0-0.523,0.213-0.937,0.639-1.239s1.01-0.454,1.752-0.454c0.691,0,1.367,0.141,2.027,0.422l-0.346,0.791
		c-0.645-0.266-1.229-0.398-1.752-0.398c-0.461,0-0.809,0.072-1.043,0.217s-0.352,0.344-0.352,0.598
		c0,0.172,0.043,0.318,0.131,0.439s0.23,0.236,0.426,0.346s0.57,0.268,1.125,0.475c0.762,0.277,1.275,0.557,1.543,0.838
		S41.982,140.969,41.982,141.395z"/>
	<path class="st2" d="M48.906,141.395c0,0.598-0.223,1.059-0.668,1.383s-1.07,0.486-1.875,0.486c-0.852,0-1.516-0.135-1.992-0.404
		v-0.902c0.309,0.156,0.641,0.279,0.994,0.369s0.693,0.135,1.021,0.135c0.508,0,0.898-0.081,1.172-0.243s0.41-0.409,0.41-0.741
		c0-0.25-0.107-0.464-0.324-0.642s-0.641-0.388-1.27-0.63c-0.598-0.223-1.021-0.417-1.273-0.583s-0.439-0.354-0.562-0.565
		s-0.186-0.463-0.186-0.756c0-0.523,0.213-0.937,0.639-1.239s1.01-0.454,1.752-0.454c0.691,0,1.367,0.141,2.027,0.422l-0.346,0.791
		c-0.645-0.266-1.229-0.398-1.752-0.398c-0.461,0-0.809,0.072-1.043,0.217s-0.352,0.344-0.352,0.598
		c0,0.172,0.045,0.318,0.133,0.439s0.229,0.236,0.424,0.346s0.57,0.268,1.125,0.475c0.762,0.277,1.277,0.557,1.545,0.838
		S48.906,140.969,48.906,141.395z"/>
	<path class="st2" d="M57.232,139.93c0,1.047-0.264,1.864-0.791,2.452s-1.256,0.882-2.186,0.882c-0.574,0-1.084-0.135-1.529-0.404
		s-0.789-0.656-1.031-1.16s-0.363-1.094-0.363-1.77c0-1.047,0.262-1.862,0.785-2.446s1.25-0.876,2.18-0.876
		c0.898,0,1.611,0.299,2.141,0.896S57.232,138.911,57.232,139.93z M52.339,139.93c0,0.82,0.164,1.445,0.492,1.875
		s0.811,0.645,1.447,0.645s1.119-0.214,1.449-0.642s0.496-1.054,0.496-1.878c0-0.816-0.166-1.437-0.496-1.86
		s-0.816-0.636-1.461-0.636c-0.637,0-1.117,0.209-1.441,0.627S52.339,139.102,52.339,139.93z"/>
	<path class="st2" d="M61.156,141.753l0.088,0.135c-0.102,0.391-0.248,0.845-0.439,1.362s-0.391,0.999-0.598,1.444h-0.732
		c0.105-0.406,0.221-0.908,0.348-1.506s0.217-1.076,0.268-1.436H61.156z"/>
	<path class="st2" d="M74.126,143.147l-1.066-2.725h-3.434l-1.055,2.725h-1.008l3.387-8.602h0.838l3.369,8.602H74.126z
		 M72.749,139.526l-0.996-2.654c-0.129-0.336-0.262-0.748-0.398-1.236c-0.086,0.375-0.209,0.787-0.369,1.236l-1.008,2.654H72.749z"
		/>
	<path class="st2" d="M80.283,137.481h-1.635v5.666h-0.973v-5.666h-1.148v-0.439l1.148-0.352v-0.357
		c0-1.578,0.689-2.367,2.068-2.367c0.34,0,0.738,0.068,1.195,0.205l-0.252,0.779c-0.375-0.121-0.695-0.182-0.961-0.182
		c-0.367,0-0.639,0.122-0.814,0.366s-0.264,0.636-0.264,1.175v0.416h1.635V137.481z M84.349,137.481h-1.635v5.666h-0.973v-5.666
		h-1.148v-0.439l1.148-0.352v-0.357c0-1.578,0.689-2.367,2.068-2.367c0.34,0,0.738,0.068,1.195,0.205l-0.252,0.779
		c-0.375-0.121-0.695-0.182-0.961-0.182c-0.367,0-0.639,0.122-0.814,0.366s-0.264,0.636-0.264,1.175v0.416h1.635V137.481z"/>
	<path class="st2" d="M92.271,139.93c0,1.047-0.264,1.864-0.791,2.452s-1.256,0.882-2.186,0.882c-0.574,0-1.084-0.135-1.529-0.404
		s-0.789-0.656-1.031-1.16s-0.363-1.094-0.363-1.77c0-1.047,0.262-1.862,0.785-2.446s1.25-0.876,2.18-0.876
		c0.898,0,1.611,0.299,2.141,0.896S92.271,138.911,92.271,139.93z M87.378,139.93c0,0.82,0.164,1.445,0.492,1.875
		s0.811,0.645,1.447,0.645s1.119-0.214,1.449-0.642s0.496-1.054,0.496-1.878c0-0.816-0.166-1.437-0.496-1.86
		s-0.816-0.636-1.461-0.636c-0.637,0-1.117,0.209-1.441,0.627S87.378,139.102,87.378,139.93z"/>
	<path class="st2" d="M100.431,136.725v0.615l-1.189,0.141c0.109,0.137,0.207,0.315,0.293,0.536s0.129,0.47,0.129,0.747
		c0,0.629-0.215,1.131-0.645,1.506s-1.02,0.562-1.77,0.562c-0.191,0-0.371-0.016-0.539-0.047c-0.414,0.219-0.621,0.494-0.621,0.826
		c0,0.176,0.072,0.306,0.217,0.39s0.393,0.126,0.744,0.126h1.137c0.695,0,1.229,0.146,1.602,0.439s0.561,0.719,0.561,1.277
		c0,0.711-0.285,1.253-0.855,1.626s-1.402,0.56-2.496,0.56c-0.84,0-1.488-0.156-1.943-0.469s-0.682-0.754-0.682-1.324
		c0-0.391,0.125-0.729,0.375-1.014s0.602-0.479,1.055-0.58c-0.164-0.074-0.303-0.189-0.414-0.346s-0.166-0.338-0.166-0.545
		c0-0.234,0.062-0.439,0.188-0.615s0.322-0.346,0.592-0.51c-0.332-0.137-0.604-0.369-0.812-0.697s-0.312-0.703-0.312-1.125
		c0-0.703,0.211-1.245,0.633-1.626s1.02-0.571,1.793-0.571c0.336,0,0.639,0.039,0.908,0.117H100.431z M95.31,144.225
		c0,0.348,0.146,0.611,0.439,0.791s0.713,0.27,1.26,0.27c0.816,0,1.42-0.122,1.812-0.366s0.59-0.575,0.59-0.993
		c0-0.348-0.107-0.589-0.322-0.724s-0.619-0.202-1.213-0.202H96.71c-0.441,0-0.785,0.105-1.031,0.316S95.31,143.831,95.31,144.225z
		 M95.837,138.782c0,0.449,0.127,0.789,0.381,1.02s0.607,0.346,1.061,0.346c0.949,0,1.424-0.461,1.424-1.383
		c0-0.965-0.48-1.447-1.441-1.447c-0.457,0-0.809,0.123-1.055,0.369S95.837,138.297,95.837,138.782z"/>
	<path class="st2" d="M106.898,143.147l-0.193-0.914h-0.047c-0.32,0.402-0.639,0.675-0.957,0.817s-0.717,0.214-1.193,0.214
		c-0.637,0-1.135-0.164-1.496-0.492s-0.543-0.795-0.543-1.4c0-1.297,1.037-1.977,3.111-2.039l1.09-0.035v-0.398
		c0-0.504-0.107-0.876-0.324-1.116s-0.564-0.36-1.041-0.36c-0.535,0-1.141,0.164-1.816,0.492l-0.299-0.744
		c0.316-0.172,0.664-0.307,1.041-0.404s0.754-0.146,1.133-0.146c0.766,0,1.334,0.17,1.703,0.51s0.553,0.885,0.553,1.635v4.383
		H106.898z M104.701,142.462c0.605,0,1.082-0.166,1.428-0.498s0.518-0.797,0.518-1.395v-0.58l-0.973,0.041
		c-0.773,0.027-1.33,0.147-1.672,0.36s-0.514,0.544-0.514,0.993c0,0.352,0.107,0.619,0.32,0.803S104.318,142.462,104.701,142.462z"
		/>
	<path class="st2" d="M112.898,142.462c0.172,0,0.338-0.013,0.498-0.038s0.287-0.052,0.381-0.079v0.744
		c-0.105,0.051-0.262,0.093-0.467,0.126s-0.389,0.05-0.553,0.05c-1.242,0-1.863-0.654-1.863-1.963v-3.82h-0.92v-0.469l0.92-0.404
		l0.41-1.371h0.562v1.488h1.863v0.756h-1.863v3.779c0,0.387,0.092,0.684,0.275,0.891S112.578,142.462,112.898,142.462z"/>
	<path class="st2" d="M121.802,139.93c0,1.047-0.264,1.864-0.791,2.452s-1.256,0.882-2.186,0.882c-0.574,0-1.084-0.135-1.529-0.404
		s-0.789-0.656-1.031-1.16s-0.363-1.094-0.363-1.77c0-1.047,0.262-1.862,0.785-2.446s1.25-0.876,2.18-0.876
		c0.898,0,1.613,0.299,2.143,0.896S121.802,138.911,121.802,139.93z M116.91,139.93c0,0.82,0.164,1.445,0.492,1.875
		s0.811,0.645,1.447,0.645s1.121-0.214,1.451-0.642s0.494-1.054,0.494-1.878c0-0.816-0.164-1.437-0.494-1.86
		s-0.818-0.636-1.463-0.636c-0.637,0-1.117,0.209-1.441,0.627S116.91,139.102,116.91,139.93z"/>
	<path class="st2" d="M125.728,141.753l0.088,0.135c-0.102,0.391-0.248,0.845-0.439,1.362s-0.391,0.999-0.598,1.444h-0.732
		c0.105-0.406,0.221-0.908,0.348-1.506s0.217-1.076,0.268-1.436H125.728z"/>
	<path class="st2" d="M139.816,143.147h-0.996v-4.031h-4.512v4.031h-0.996v-8.566h0.996v3.645h4.512v-3.645h0.996V143.147z"/>
	<path class="st2" d="M148.763,139.93c0,1.047-0.264,1.864-0.791,2.452s-1.256,0.882-2.186,0.882c-0.574,0-1.084-0.135-1.529-0.404
		s-0.789-0.656-1.031-1.16s-0.363-1.094-0.363-1.77c0-1.047,0.262-1.862,0.785-2.446s1.25-0.876,2.18-0.876
		c0.898,0,1.611,0.299,2.141,0.896S148.763,138.911,148.763,139.93z M143.871,139.93c0,0.82,0.164,1.445,0.492,1.875
		s0.811,0.645,1.447,0.645s1.119-0.214,1.449-0.642s0.496-1.054,0.496-1.878c0-0.816-0.166-1.437-0.496-1.86
		s-0.816-0.636-1.461-0.636c-0.637,0-1.117,0.209-1.441,0.627S143.871,139.102,143.871,139.93z"/>
	<path class="st2" d="M153.742,142.462c0.172,0,0.338-0.013,0.498-0.038s0.287-0.052,0.381-0.079v0.744
		c-0.105,0.051-0.26,0.093-0.465,0.126s-0.391,0.05-0.555,0.05c-1.242,0-1.863-0.654-1.863-1.963v-3.82h-0.92v-0.469l0.92-0.404
		l0.41-1.371h0.562v1.488h1.863v0.756h-1.863v3.779c0,0.387,0.092,0.684,0.275,0.891S153.421,142.462,153.742,142.462z"/>
	<path class="st2" d="M165.236,135.348c-0.941,0-1.686,0.313-2.23,0.94s-0.816,1.485-0.816,2.575c0,1.121,0.262,1.987,0.787,2.599
		s1.275,0.917,2.248,0.917c0.598,0,1.279-0.107,2.045-0.322v0.873c-0.594,0.223-1.326,0.334-2.197,0.334
		c-1.262,0-2.236-0.383-2.922-1.148s-1.027-1.854-1.027-3.264c0-0.883,0.164-1.656,0.494-2.32s0.807-1.176,1.43-1.535
		s1.357-0.539,2.201-0.539c0.898,0,1.684,0.164,2.355,0.492l-0.422,0.855C166.533,135.501,165.884,135.348,165.236,135.348z"/>
	<path class="st2" d="M174.585,143.147v-4.154c0-0.523-0.119-0.914-0.357-1.172s-0.611-0.387-1.119-0.387
		c-0.676,0-1.168,0.184-1.479,0.551s-0.467,0.969-0.467,1.805v3.357h-0.973v-9.117h0.973v2.76c0,0.332-0.016,0.607-0.047,0.826
		h0.059c0.191-0.309,0.465-0.552,0.818-0.729s0.756-0.267,1.209-0.267c0.785,0,1.375,0.187,1.768,0.56s0.588,0.966,0.588,1.778
		v4.189H174.585z"/>
	<path class="st2" d="M184.3,139.93c0,1.047-0.264,1.864-0.791,2.452s-1.256,0.882-2.186,0.882c-0.574,0-1.084-0.135-1.529-0.404
		s-0.789-0.656-1.031-1.16s-0.363-1.094-0.363-1.77c0-1.047,0.262-1.862,0.785-2.446s1.25-0.876,2.18-0.876
		c0.898,0,1.611,0.299,2.141,0.896S184.3,138.911,184.3,139.93z M179.408,139.93c0,0.82,0.164,1.445,0.492,1.875
		s0.811,0.645,1.447,0.645s1.119-0.214,1.449-0.642s0.496-1.054,0.496-1.878c0-0.816-0.166-1.437-0.496-1.86
		s-0.816-0.636-1.461-0.636c-0.637,0-1.117,0.209-1.441,0.627S179.408,139.102,179.408,139.93z"/>
	<path class="st2" d="M189.771,143.264c-0.93,0-1.648-0.286-2.158-0.858s-0.766-1.382-0.766-2.429c0-1.074,0.26-1.904,0.777-2.49
		s1.254-0.879,2.211-0.879c0.309,0,0.617,0.033,0.926,0.1s0.551,0.145,0.727,0.234l-0.299,0.826
		c-0.215-0.086-0.449-0.157-0.703-0.214s-0.479-0.085-0.674-0.085c-1.305,0-1.957,0.832-1.957,2.496c0,0.789,0.16,1.395,0.479,1.816
		s0.789,0.633,1.414,0.633c0.535,0,1.084-0.115,1.646-0.346v0.861C190.964,143.153,190.423,143.264,189.771,143.264z"/>
	<path class="st2" d="M199.662,139.93c0,1.047-0.264,1.864-0.791,2.452s-1.256,0.882-2.186,0.882c-0.574,0-1.084-0.135-1.529-0.404
		s-0.789-0.656-1.031-1.16s-0.363-1.094-0.363-1.77c0-1.047,0.262-1.862,0.785-2.446s1.25-0.876,2.18-0.876
		c0.898,0,1.611,0.299,2.141,0.896S199.662,138.911,199.662,139.93z M194.769,139.93c0,0.82,0.164,1.445,0.492,1.875
		s0.811,0.645,1.447,0.645s1.119-0.214,1.449-0.642s0.496-1.054,0.496-1.878c0-0.816-0.166-1.437-0.496-1.86
		s-0.816-0.636-1.461-0.636c-0.637,0-1.117,0.209-1.441,0.627S194.769,139.102,194.769,139.93z"/>
	<path class="st2" d="M203.538,143.147h-0.973v-9.117h0.973V143.147z"/>
	<path class="st2" d="M210.749,143.147l-0.193-0.914h-0.047c-0.32,0.402-0.639,0.675-0.957,0.817s-0.717,0.214-1.193,0.214
		c-0.637,0-1.135-0.164-1.496-0.492s-0.543-0.795-0.543-1.4c0-1.297,1.037-1.977,3.111-2.039l1.09-0.035v-0.398
		c0-0.504-0.107-0.876-0.324-1.116s-0.564-0.36-1.041-0.36c-0.535,0-1.141,0.164-1.816,0.492l-0.299-0.744
		c0.316-0.172,0.664-0.307,1.041-0.404s0.754-0.146,1.133-0.146c0.766,0,1.334,0.17,1.703,0.51s0.553,0.885,0.553,1.635v4.383
		H210.749z M208.552,142.462c0.605,0,1.082-0.166,1.428-0.498s0.518-0.797,0.518-1.395v-0.58l-0.973,0.041
		c-0.773,0.027-1.33,0.147-1.672,0.36s-0.514,0.544-0.514,0.993c0,0.352,0.107,0.619,0.32,0.803S208.169,142.462,208.552,142.462z"
		/>
	<path class="st2" d="M216.749,142.462c0.172,0,0.338-0.013,0.498-0.038s0.287-0.052,0.381-0.079v0.744
		c-0.105,0.051-0.262,0.093-0.467,0.126s-0.389,0.05-0.553,0.05c-1.242,0-1.863-0.654-1.863-1.963v-3.82h-0.92v-0.469l0.92-0.404
		l0.41-1.371h0.562v1.488h1.863v0.756h-1.863v3.779c0,0.387,0.092,0.684,0.275,0.891S216.429,142.462,216.749,142.462z"/>
	<path class="st2" d="M222.824,143.264c-0.949,0-1.697-0.289-2.246-0.867s-0.824-1.381-0.824-2.408c0-1.035,0.256-1.857,0.766-2.467
		s1.193-0.914,2.053-0.914c0.805,0,1.441,0.265,1.91,0.794s0.703,1.228,0.703,2.095v0.615h-4.424
		c0.02,0.754,0.211,1.326,0.572,1.717s0.869,0.586,1.525,0.586c0.691,0,1.375-0.145,2.051-0.434v0.867
		c-0.344,0.148-0.668,0.255-0.975,0.319S223.257,143.264,222.824,143.264z M222.56,137.422c-0.516,0-0.926,0.168-1.232,0.504
		s-0.488,0.801-0.543,1.395h3.357c0-0.613-0.137-1.083-0.41-1.409S223.068,137.422,222.56,137.422z"/>
	<path class="st2" d="M229.064,141.753l0.088,0.135c-0.102,0.391-0.248,0.845-0.439,1.362s-0.391,0.999-0.598,1.444h-0.732
		c0.105-0.406,0.221-0.908,0.348-1.506s0.217-1.076,0.268-1.436H229.064z"/>
	<path class="st2" d="M240.415,138.659h2.912v4.166c-0.453,0.145-0.914,0.254-1.383,0.328s-1.012,0.111-1.629,0.111
		c-1.297,0-2.307-0.386-3.029-1.157s-1.084-1.853-1.084-3.243c0-0.891,0.18-1.671,0.537-2.341s0.871-1.182,1.543-1.535
		s1.459-0.53,2.361-0.53c0.914,0,1.766,0.168,2.555,0.504l-0.387,0.879c-0.773-0.328-1.518-0.492-2.232-0.492
		c-1.043,0-1.857,0.311-2.443,0.932s-0.879,1.482-0.879,2.584c0,1.156,0.283,2.033,0.848,2.631s1.393,0.896,2.486,0.896
		c0.594,0,1.174-0.068,1.74-0.205v-2.637h-1.916V138.659z"/>
	<path class="st2" d="M246.357,134.985c0-0.223,0.055-0.386,0.164-0.489s0.246-0.155,0.41-0.155c0.156,0,0.291,0.053,0.404,0.158
		s0.17,0.268,0.17,0.486s-0.057,0.382-0.17,0.489s-0.248,0.161-0.404,0.161c-0.164,0-0.301-0.054-0.41-0.161
		S246.357,135.204,246.357,134.985z M247.412,143.147h-0.973v-6.422h0.973V143.147z"/>
	<path class="st2" d="M255.068,143.147v-4.154c0-0.523-0.119-0.914-0.357-1.172s-0.611-0.387-1.119-0.387
		c-0.672,0-1.164,0.182-1.477,0.545s-0.469,0.963-0.469,1.799v3.369h-0.973v-6.422h0.791l0.158,0.879h0.047
		c0.199-0.316,0.479-0.562,0.838-0.735s0.76-0.261,1.201-0.261c0.773,0,1.355,0.187,1.746,0.56s0.586,0.97,0.586,1.79v4.189H255.068
		z"/>
	<path class="st2" d="M264.496,136.725v0.615l-1.189,0.141c0.109,0.137,0.207,0.315,0.293,0.536s0.129,0.47,0.129,0.747
		c0,0.629-0.215,1.131-0.645,1.506s-1.02,0.562-1.77,0.562c-0.191,0-0.371-0.016-0.539-0.047c-0.414,0.219-0.621,0.494-0.621,0.826
		c0,0.176,0.072,0.306,0.217,0.39s0.393,0.126,0.744,0.126h1.137c0.695,0,1.229,0.146,1.602,0.439s0.561,0.719,0.561,1.277
		c0,0.711-0.285,1.253-0.855,1.626s-1.402,0.56-2.496,0.56c-0.84,0-1.488-0.156-1.943-0.469s-0.682-0.754-0.682-1.324
		c0-0.391,0.125-0.729,0.375-1.014s0.602-0.479,1.055-0.58c-0.164-0.074-0.303-0.189-0.414-0.346s-0.166-0.338-0.166-0.545
		c0-0.234,0.062-0.439,0.188-0.615s0.322-0.346,0.592-0.51c-0.332-0.137-0.604-0.369-0.812-0.697s-0.312-0.703-0.312-1.125
		c0-0.703,0.211-1.245,0.633-1.626s1.02-0.571,1.793-0.571c0.336,0,0.639,0.039,0.908,0.117H264.496z M259.374,144.225
		c0,0.348,0.146,0.611,0.439,0.791s0.713,0.27,1.26,0.27c0.816,0,1.42-0.122,1.812-0.366s0.59-0.575,0.59-0.993
		c0-0.348-0.107-0.589-0.322-0.724s-0.619-0.202-1.213-0.202h-1.166c-0.441,0-0.785,0.105-1.031,0.316
		S259.374,143.831,259.374,144.225z M259.902,138.782c0,0.449,0.127,0.789,0.381,1.02s0.607,0.346,1.061,0.346
		c0.949,0,1.424-0.461,1.424-1.383c0-0.965-0.48-1.447-1.441-1.447c-0.457,0-0.809,0.123-1.055,0.369
		S259.902,138.297,259.902,138.782z"/>
	<path class="st2" d="M269.726,143.264c-0.949,0-1.699-0.289-2.248-0.867s-0.822-1.381-0.822-2.408c0-1.035,0.254-1.857,0.764-2.467
		s1.195-0.914,2.055-0.914c0.805,0,1.441,0.265,1.91,0.794s0.703,1.228,0.703,2.095v0.615h-4.424c0.02,0.754,0.209,1.326,0.57,1.717
		s0.871,0.586,1.527,0.586c0.691,0,1.375-0.145,2.051-0.434v0.867c-0.344,0.148-0.67,0.255-0.977,0.319
		S270.16,143.264,269.726,143.264z M269.462,137.422c-0.516,0-0.928,0.168-1.234,0.504s-0.486,0.801-0.541,1.395h3.357
		c0-0.613-0.137-1.083-0.41-1.409S269.97,137.422,269.462,137.422z"/>
	<path class="st2" d="M277.874,136.608c0.285,0,0.541,0.023,0.768,0.07l-0.135,0.902c-0.266-0.059-0.5-0.088-0.703-0.088
		c-0.52,0-0.963,0.211-1.332,0.633s-0.555,0.947-0.555,1.576v3.445h-0.973v-6.422h0.803l0.111,1.189h0.047
		c0.238-0.418,0.525-0.74,0.861-0.967S277.472,136.608,277.874,136.608z"/>
	<path class="st2" d="M285.507,143.147v-8.566h0.996v7.664h3.779v0.902H285.507z"/>
	<path class="st2" d="M295.503,143.264c-0.949,0-1.699-0.289-2.248-0.867s-0.822-1.381-0.822-2.408c0-1.035,0.254-1.857,0.764-2.467
		s1.195-0.914,2.055-0.914c0.805,0,1.441,0.265,1.91,0.794s0.703,1.228,0.703,2.095v0.615h-4.424c0.02,0.754,0.209,1.326,0.57,1.717
		s0.871,0.586,1.527,0.586c0.691,0,1.375-0.145,2.051-0.434v0.867c-0.344,0.148-0.67,0.255-0.977,0.319
		S295.937,143.264,295.503,143.264z M295.24,137.422c-0.516,0-0.928,0.168-1.234,0.504s-0.486,0.801-0.541,1.395h3.357
		c0-0.613-0.137-1.083-0.41-1.409S295.747,137.422,295.24,137.422z"/>
	<path class="st2" d="M308.908,143.147v-4.178c0-0.512-0.109-0.896-0.328-1.151s-0.559-0.384-1.02-0.384
		c-0.605,0-1.053,0.174-1.342,0.521s-0.434,0.883-0.434,1.605v3.586h-0.973v-4.178c0-0.512-0.109-0.896-0.328-1.151
		s-0.561-0.384-1.025-0.384c-0.609,0-1.057,0.183-1.34,0.548s-0.424,0.964-0.424,1.796v3.369h-0.973v-6.422h0.791l0.158,0.879h0.047
		c0.184-0.312,0.441-0.557,0.775-0.732s0.709-0.264,1.123-0.264c1.004,0,1.66,0.363,1.969,1.09h0.047
		c0.191-0.336,0.469-0.602,0.832-0.797s0.777-0.293,1.242-0.293c0.727,0,1.27,0.187,1.631,0.56s0.543,0.97,0.543,1.79v4.189H308.908
		z"/>
	<path class="st2" d="M318.626,139.93c0,1.047-0.264,1.864-0.791,2.452s-1.256,0.882-2.186,0.882c-0.574,0-1.084-0.135-1.529-0.404
		s-0.789-0.656-1.031-1.16s-0.363-1.094-0.363-1.77c0-1.047,0.262-1.862,0.785-2.446s1.25-0.876,2.18-0.876
		c0.898,0,1.613,0.299,2.143,0.896S318.626,138.911,318.626,139.93z M313.734,139.93c0,0.82,0.164,1.445,0.492,1.875
		s0.811,0.645,1.447,0.645s1.121-0.214,1.451-0.642s0.494-1.054,0.494-1.878c0-0.816-0.164-1.437-0.494-1.86
		s-0.818-0.636-1.463-0.636c-0.637,0-1.117,0.209-1.441,0.627S313.734,139.102,313.734,139.93z"/>
	<path class="st2" d="M325.927,143.147v-4.154c0-0.523-0.119-0.914-0.357-1.172s-0.611-0.387-1.119-0.387
		c-0.672,0-1.164,0.182-1.477,0.545s-0.469,0.963-0.469,1.799v3.369h-0.973v-6.422h0.791l0.158,0.879h0.047
		c0.199-0.316,0.479-0.562,0.838-0.735s0.76-0.261,1.201-0.261c0.773,0,1.355,0.187,1.746,0.56s0.586,0.97,0.586,1.79v4.189H325.927
		z"/>
	<path class="st2" d="M337.199,143.147h-0.996v-7.682h-2.713v-0.885h6.422v0.885h-2.713V143.147z"/>
	<path class="st2" d="M344.966,143.264c-0.949,0-1.699-0.289-2.248-0.867s-0.822-1.381-0.822-2.408c0-1.035,0.254-1.857,0.764-2.467
		s1.195-0.914,2.055-0.914c0.805,0,1.441,0.265,1.91,0.794s0.703,1.228,0.703,2.095v0.615h-4.424c0.02,0.754,0.209,1.326,0.57,1.717
		s0.871,0.586,1.527,0.586c0.691,0,1.375-0.145,2.051-0.434v0.867c-0.344,0.148-0.67,0.255-0.977,0.319
		S345.4,143.264,344.966,143.264z M344.703,137.422c-0.516,0-0.928,0.168-1.234,0.504s-0.486,0.801-0.541,1.395h3.357
		c0-0.613-0.137-1.083-0.41-1.409S345.21,137.422,344.703,137.422z"/>
	<path class="st2" d="M354.134,143.147l-0.193-0.914h-0.047c-0.32,0.402-0.639,0.675-0.957,0.817s-0.717,0.214-1.193,0.214
		c-0.637,0-1.135-0.164-1.496-0.492s-0.543-0.795-0.543-1.4c0-1.297,1.037-1.977,3.111-2.039l1.09-0.035v-0.398
		c0-0.504-0.107-0.876-0.324-1.116s-0.564-0.36-1.041-0.36c-0.535,0-1.141,0.164-1.816,0.492l-0.299-0.744
		c0.316-0.172,0.664-0.307,1.041-0.404s0.754-0.146,1.133-0.146c0.766,0,1.334,0.17,1.703,0.51s0.553,0.885,0.553,1.635v4.383
		H354.134z M351.937,142.462c0.605,0,1.082-0.166,1.428-0.498s0.518-0.797,0.518-1.395v-0.58l-0.973,0.041
		c-0.773,0.027-1.33,0.147-1.672,0.36s-0.514,0.544-0.514,0.993c0,0.352,0.107,0.619,0.32,0.803S351.554,142.462,351.937,142.462z"
		/>
	<path class="st2" d="M359.079,141.753l0.088,0.135c-0.102,0.391-0.248,0.845-0.439,1.362s-0.391,0.999-0.598,1.444h-0.732
		c0.105-0.406,0.221-0.908,0.348-1.506s0.217-1.076,0.268-1.436H359.079z"/>
	<path class="st2" d="M367.662,139.585v3.562h-0.996v-8.566h2.35c1.051,0,1.826,0.201,2.328,0.604s0.754,1.008,0.754,1.816
		c0,1.133-0.574,1.898-1.723,2.297l2.326,3.85h-1.178l-2.074-3.562H367.662z M367.662,138.729h1.365c0.703,0,1.219-0.14,1.547-0.419
		s0.492-0.698,0.492-1.257c0-0.566-0.168-0.975-0.502-1.225s-0.869-0.375-1.607-0.375h-1.295V138.729z"/>
	<path class="st2" d="M377.849,143.264c-0.949,0-1.699-0.289-2.248-0.867s-0.822-1.381-0.822-2.408c0-1.035,0.254-1.857,0.764-2.467
		s1.195-0.914,2.055-0.914c0.805,0,1.441,0.265,1.91,0.794s0.703,1.228,0.703,2.095v0.615h-4.424c0.02,0.754,0.209,1.326,0.57,1.717
		s0.871,0.586,1.527,0.586c0.691,0,1.375-0.145,2.051-0.434v0.867c-0.344,0.148-0.67,0.255-0.977,0.319
		S378.283,143.264,377.849,143.264z M377.585,137.422c-0.516,0-0.928,0.168-1.234,0.504s-0.486,0.801-0.541,1.395h3.357
		c0-0.613-0.137-1.083-0.41-1.409S378.093,137.422,377.585,137.422z"/>
	<path class="st2" d="M387.439,142.286h-0.053c-0.449,0.652-1.121,0.979-2.016,0.979c-0.84,0-1.492-0.287-1.959-0.861
		s-0.701-1.391-0.701-2.449s0.234-1.881,0.703-2.467s1.121-0.879,1.957-0.879c0.871,0,1.539,0.316,2.004,0.949h0.076l-0.041-0.463
		l-0.023-0.451v-2.613h0.973v9.117h-0.791L387.439,142.286z M385.494,142.45c0.664,0,1.146-0.181,1.445-0.542
		s0.447-0.944,0.447-1.749v-0.205c0-0.91-0.15-1.56-0.453-1.948s-0.787-0.583-1.451-0.583c-0.57,0-1.006,0.222-1.309,0.665
		s-0.455,1.069-0.455,1.878c0,0.82,0.15,1.439,0.451,1.857S384.912,142.45,385.494,142.45z"/>
	<path class="st2" d="M396.085,134.581h2.42c1.137,0,1.959,0.17,2.467,0.51s0.762,0.877,0.762,1.611
		c0,0.508-0.141,0.927-0.424,1.257s-0.697,0.544-1.24,0.642v0.059c1.301,0.223,1.951,0.906,1.951,2.051
		c0,0.766-0.258,1.363-0.775,1.793s-1.242,0.645-2.172,0.645h-2.988V134.581z M397.081,138.249h1.641
		c0.703,0,1.209-0.11,1.518-0.331s0.463-0.593,0.463-1.116c0-0.48-0.172-0.827-0.516-1.04s-0.891-0.319-1.641-0.319h-1.465V138.249z
		 M397.081,139.092v3.205h1.787c0.691,0,1.213-0.134,1.562-0.401s0.523-0.687,0.523-1.257c0-0.531-0.178-0.922-0.535-1.172
		s-0.902-0.375-1.633-0.375H397.081z"/>
	<path class="st2" d="M407.628,143.264c-0.949,0-1.699-0.289-2.248-0.867s-0.822-1.381-0.822-2.408c0-1.035,0.254-1.857,0.764-2.467
		s1.195-0.914,2.055-0.914c0.805,0,1.441,0.265,1.91,0.794s0.703,1.228,0.703,2.095v0.615h-4.424c0.02,0.754,0.209,1.326,0.57,1.717
		s0.871,0.586,1.527,0.586c0.691,0,1.375-0.145,2.051-0.434v0.867c-0.344,0.148-0.67,0.255-0.977,0.319
		S408.062,143.264,407.628,143.264z M407.365,137.422c-0.516,0-0.928,0.168-1.234,0.504s-0.486,0.801-0.541,1.395h3.357
		c0-0.613-0.137-1.083-0.41-1.409S407.872,137.422,407.365,137.422z"/>
	<path class="st2" d="M416.796,143.147l-0.193-0.914h-0.047c-0.32,0.402-0.641,0.675-0.959,0.817s-0.715,0.214-1.191,0.214
		c-0.637,0-1.137-0.164-1.498-0.492s-0.541-0.795-0.541-1.4c0-1.297,1.037-1.977,3.111-2.039l1.09-0.035v-0.398
		c0-0.504-0.109-0.876-0.326-1.116s-0.562-0.36-1.039-0.36c-0.535,0-1.141,0.164-1.816,0.492l-0.299-0.744
		c0.316-0.172,0.662-0.307,1.039-0.404s0.756-0.146,1.135-0.146c0.766,0,1.332,0.17,1.701,0.51s0.555,0.885,0.555,1.635v4.383
		H416.796z M414.599,142.462c0.605,0,1.08-0.166,1.426-0.498s0.52-0.797,0.52-1.395v-0.58l-0.973,0.041
		c-0.773,0.027-1.332,0.147-1.674,0.36s-0.512,0.544-0.512,0.993c0,0.352,0.105,0.619,0.318,0.803S414.216,142.462,414.599,142.462z
		"/>
	<path class="st2" d="M425.115,143.147v-4.154c0-0.523-0.119-0.914-0.357-1.172s-0.611-0.387-1.119-0.387
		c-0.672,0-1.164,0.182-1.477,0.545s-0.469,0.963-0.469,1.799v3.369h-0.973v-6.422h0.791l0.158,0.879h0.047
		c0.199-0.316,0.479-0.562,0.838-0.735s0.76-0.261,1.201-0.261c0.773,0,1.355,0.187,1.746,0.56s0.586,0.97,0.586,1.79v4.189H425.115
		z"/>
	<path class="st2" d="M433.749,143.147v-8.566h0.996v7.664h3.779v0.902H433.749z"/>
	<path class="st2" d="M444.982,143.147l-0.193-0.914h-0.047c-0.32,0.402-0.641,0.675-0.959,0.817s-0.715,0.214-1.191,0.214
		c-0.637,0-1.137-0.164-1.498-0.492s-0.541-0.795-0.541-1.4c0-1.297,1.037-1.977,3.111-2.039l1.09-0.035v-0.398
		c0-0.504-0.109-0.876-0.326-1.116s-0.562-0.36-1.039-0.36c-0.535,0-1.141,0.164-1.816,0.492l-0.299-0.744
		c0.316-0.172,0.662-0.307,1.039-0.404s0.756-0.146,1.135-0.146c0.766,0,1.332,0.17,1.701,0.51s0.555,0.885,0.555,1.635v4.383
		H444.982z M442.785,142.462c0.605,0,1.08-0.166,1.426-0.498s0.52-0.797,0.52-1.395v-0.58l-0.973,0.041
		c-0.773,0.027-1.332,0.147-1.674,0.36s-0.512,0.544-0.512,0.993c0,0.352,0.105,0.619,0.318,0.803S442.402,142.462,442.785,142.462z
		"/>
	<path class="st2" d="M450.98,142.462c0.172,0,0.338-0.013,0.498-0.038s0.287-0.052,0.381-0.079v0.744
		c-0.105,0.051-0.262,0.093-0.467,0.126s-0.389,0.05-0.553,0.05c-1.242,0-1.863-0.654-1.863-1.963v-3.82h-0.92v-0.469l0.92-0.404
		l0.41-1.371h0.562v1.488h1.863v0.756h-1.863v3.779c0,0.387,0.092,0.684,0.275,0.891S450.66,142.462,450.98,142.462z"/>
	<path class="st2" d="M456.415,142.462c0.172,0,0.338-0.013,0.498-0.038s0.287-0.052,0.381-0.079v0.744
		c-0.105,0.051-0.26,0.093-0.465,0.126s-0.391,0.05-0.555,0.05c-1.242,0-1.863-0.654-1.863-1.963v-3.82h-0.92v-0.469l0.92-0.404
		l0.41-1.371h0.562v1.488h1.863v0.756h-1.863v3.779c0,0.387,0.092,0.684,0.275,0.891S456.095,142.462,456.415,142.462z"/>
	<path class="st2" d="M462.492,143.264c-0.949,0-1.699-0.289-2.248-0.867s-0.822-1.381-0.822-2.408c0-1.035,0.254-1.857,0.764-2.467
		s1.195-0.914,2.055-0.914c0.805,0,1.441,0.265,1.91,0.794s0.703,1.228,0.703,2.095v0.615h-4.424c0.02,0.754,0.209,1.326,0.57,1.717
		s0.871,0.586,1.527,0.586c0.691,0,1.375-0.145,2.051-0.434v0.867c-0.344,0.148-0.67,0.255-0.977,0.319
		S462.925,143.264,462.492,143.264z M462.228,137.422c-0.516,0-0.928,0.168-1.234,0.504s-0.486,0.801-0.541,1.395h3.357
		c0-0.613-0.137-1.083-0.41-1.409S462.736,137.422,462.228,137.422z"/>
	<path class="st2" d="M468.73,141.753l0.088,0.135c-0.102,0.391-0.248,0.845-0.439,1.362s-0.391,0.999-0.598,1.444h-0.732
		c0.105-0.406,0.223-0.908,0.35-1.506s0.215-1.076,0.266-1.436H468.73z"/>
	<path class="st2" d="M4.371,162.659h2.912v4.166c-0.453,0.145-0.914,0.254-1.383,0.328s-1.012,0.111-1.629,0.111
		c-1.297,0-2.307-0.386-3.029-1.157s-1.084-1.853-1.084-3.243c0-0.891,0.178-1.671,0.535-2.341s0.873-1.182,1.545-1.535
		s1.459-0.53,2.361-0.53c0.914,0,1.766,0.168,2.555,0.504l-0.387,0.879c-0.773-0.328-1.518-0.492-2.232-0.492
		c-1.043,0-1.857,0.311-2.443,0.932s-0.879,1.482-0.879,2.584c0,1.156,0.281,2.033,0.846,2.631s1.395,0.896,2.488,0.896
		c0.594,0,1.174-0.068,1.74-0.205v-2.637H4.371V162.659z"/>
	<path class="st2" d="M13.322,160.608c0.285,0,0.541,0.023,0.768,0.07l-0.135,0.902c-0.266-0.059-0.5-0.088-0.703-0.088
		c-0.52,0-0.963,0.211-1.332,0.633s-0.555,0.947-0.555,1.576v3.445h-0.973v-6.422h0.803l0.111,1.189h0.047
		c0.238-0.418,0.525-0.74,0.861-0.967S12.919,160.608,13.322,160.608z"/>
	<path class="st2" d="M19.205,167.264c-0.949,0-1.699-0.289-2.248-0.867s-0.822-1.381-0.822-2.408c0-1.035,0.254-1.857,0.764-2.467
		s1.195-0.914,2.055-0.914c0.805,0,1.441,0.265,1.91,0.794s0.703,1.228,0.703,2.095v0.615h-4.424c0.02,0.754,0.209,1.326,0.57,1.717
		s0.871,0.586,1.527,0.586c0.691,0,1.375-0.145,2.051-0.434v0.867c-0.344,0.148-0.67,0.255-0.977,0.319
		S19.638,167.264,19.205,167.264z M18.941,161.422c-0.516,0-0.928,0.168-1.234,0.504s-0.486,0.801-0.541,1.395h3.357
		c0-0.613-0.137-1.083-0.41-1.409S19.449,161.422,18.941,161.422z"/>
	<path class="st2" d="M27.136,167.264c-0.949,0-1.699-0.289-2.248-0.867s-0.822-1.381-0.822-2.408c0-1.035,0.254-1.857,0.764-2.467
		s1.195-0.914,2.055-0.914c0.805,0,1.441,0.265,1.91,0.794s0.703,1.228,0.703,2.095v0.615h-4.424c0.02,0.754,0.209,1.326,0.57,1.717
		s0.871,0.586,1.527,0.586c0.691,0,1.375-0.145,2.051-0.434v0.867c-0.344,0.148-0.67,0.255-0.977,0.319
		S27.57,167.264,27.136,167.264z M26.872,161.422c-0.516,0-0.928,0.168-1.234,0.504s-0.486,0.801-0.541,1.395h3.357
		c0-0.613-0.137-1.083-0.41-1.409S27.38,161.422,26.872,161.422z"/>
	<path class="st2" d="M36.749,167.147v-4.154c0-0.523-0.119-0.914-0.357-1.172s-0.611-0.387-1.119-0.387
		c-0.672,0-1.164,0.182-1.477,0.545s-0.469,0.963-0.469,1.799v3.369h-0.973v-6.422h0.791l0.158,0.879h0.047
		c0.199-0.316,0.479-0.562,0.838-0.735s0.76-0.261,1.201-0.261c0.773,0,1.355,0.187,1.746,0.56s0.586,0.97,0.586,1.79v4.189H36.749z
		"/>
	<path class="st2" d="M48.021,167.147h-0.996v-7.682h-2.713v-0.885h6.422v0.885h-2.713V167.147z"/>
	<path class="st2" d="M55.79,167.264c-0.949,0-1.699-0.289-2.248-0.867s-0.822-1.381-0.822-2.408c0-1.035,0.254-1.857,0.764-2.467
		s1.195-0.914,2.055-0.914c0.805,0,1.441,0.265,1.91,0.794s0.703,1.228,0.703,2.095v0.615h-4.424c0.02,0.754,0.209,1.326,0.57,1.717
		s0.871,0.586,1.527,0.586c0.691,0,1.375-0.145,2.051-0.434v0.867c-0.344,0.148-0.67,0.255-0.977,0.319
		S56.224,167.264,55.79,167.264z M55.527,161.422c-0.516,0-0.928,0.168-1.234,0.504s-0.486,0.801-0.541,1.395h3.357
		c0-0.613-0.137-1.083-0.41-1.409S56.035,161.422,55.527,161.422z"/>
	<path class="st2" d="M64.958,167.147l-0.193-0.914h-0.047c-0.32,0.402-0.641,0.675-0.959,0.817
		c-0.318,0.143-0.715,0.214-1.191,0.214c-0.637,0-1.137-0.164-1.498-0.492s-0.541-0.795-0.541-1.4c0-1.297,1.037-1.977,3.111-2.039
		l1.09-0.035v-0.398c0-0.504-0.109-0.876-0.326-1.116s-0.563-0.36-1.039-0.36c-0.535,0-1.141,0.164-1.816,0.492l-0.299-0.744
		c0.316-0.172,0.662-0.307,1.039-0.404s0.756-0.146,1.135-0.146c0.766,0,1.332,0.17,1.701,0.51s0.555,0.885,0.555,1.635v4.383
		H64.958z M62.761,166.462c0.605,0,1.08-0.166,1.426-0.498c0.346-0.332,0.52-0.797,0.52-1.395v-0.58l-0.973,0.041
		c-0.773,0.027-1.332,0.147-1.674,0.36s-0.512,0.544-0.512,0.993c0,0.352,0.105,0.619,0.318,0.803S62.378,166.462,62.761,166.462z"
		/>
	<path class="st2" d="M73.347,167.147v-8.566h0.996v7.664h3.779v0.902H73.347z"/>
	<path class="st2" d="M84.578,167.147l-0.193-0.914h-0.047c-0.32,0.402-0.639,0.675-0.957,0.817s-0.717,0.214-1.193,0.214
		c-0.637,0-1.135-0.164-1.496-0.492s-0.543-0.795-0.543-1.4c0-1.297,1.037-1.977,3.111-2.039l1.09-0.035v-0.398
		c0-0.504-0.107-0.876-0.324-1.116s-0.564-0.36-1.041-0.36c-0.535,0-1.141,0.164-1.816,0.492l-0.299-0.744
		c0.316-0.172,0.664-0.307,1.041-0.404s0.754-0.146,1.133-0.146c0.766,0,1.334,0.17,1.703,0.51s0.553,0.885,0.553,1.635v4.383
		H84.578z M82.38,166.462c0.605,0,1.082-0.166,1.428-0.498s0.518-0.797,0.518-1.395v-0.58l-0.973,0.041
		c-0.773,0.027-1.33,0.147-1.672,0.36s-0.514,0.544-0.514,0.993c0,0.352,0.107,0.619,0.32,0.803S81.997,166.462,82.38,166.462z"/>
	<path class="st2" d="M90.578,166.462c0.172,0,0.338-0.013,0.498-0.038s0.287-0.052,0.381-0.079v0.744
		c-0.105,0.051-0.262,0.093-0.467,0.126s-0.389,0.05-0.553,0.05c-1.242,0-1.863-0.654-1.863-1.963v-3.82h-0.92v-0.469l0.92-0.404
		l0.41-1.371h0.562v1.488h1.863v0.756h-1.863v3.779c0,0.387,0.092,0.684,0.275,0.891S90.257,166.462,90.578,166.462z"/>
	<path class="st2" d="M96.013,166.462c0.172,0,0.338-0.013,0.498-0.038s0.287-0.052,0.381-0.079v0.744
		c-0.105,0.051-0.262,0.093-0.467,0.126s-0.389,0.05-0.553,0.05c-1.242,0-1.863-0.654-1.863-1.963v-3.82h-0.92v-0.469l0.92-0.404
		l0.41-1.371h0.562v1.488h1.863v0.756h-1.863v3.779c0,0.387,0.092,0.684,0.275,0.891S95.693,166.462,96.013,166.462z"/>
	<path class="st2" d="M102.087,167.264c-0.949,0-1.697-0.289-2.246-0.867s-0.824-1.381-0.824-2.408c0-1.035,0.256-1.857,0.766-2.467
		s1.193-0.914,2.053-0.914c0.805,0,1.441,0.265,1.91,0.794s0.703,1.228,0.703,2.095v0.615h-4.424
		c0.02,0.754,0.211,1.326,0.572,1.717s0.869,0.586,1.525,0.586c0.691,0,1.375-0.145,2.051-0.434v0.867
		c-0.344,0.148-0.668,0.255-0.975,0.319S102.521,167.264,102.087,167.264z M101.824,161.422c-0.516,0-0.926,0.168-1.232,0.504
		s-0.488,0.801-0.543,1.395h3.357c0-0.613-0.137-1.083-0.41-1.409S102.331,161.422,101.824,161.422z"/>
	<path class="st2" d="M108.328,165.753l0.088,0.135c-0.102,0.391-0.248,0.845-0.439,1.362s-0.391,0.999-0.598,1.444h-0.732
		c0.105-0.406,0.221-0.908,0.348-1.506s0.217-1.076,0.268-1.436H108.328z"/>
	<path class="st2" d="M119.681,162.659h2.912v4.166c-0.453,0.145-0.914,0.254-1.383,0.328s-1.012,0.111-1.629,0.111
		c-1.297,0-2.307-0.386-3.029-1.157s-1.084-1.853-1.084-3.243c0-0.891,0.178-1.671,0.535-2.341s0.873-1.182,1.545-1.535
		s1.459-0.53,2.361-0.53c0.914,0,1.766,0.168,2.555,0.504l-0.387,0.879c-0.773-0.328-1.518-0.492-2.232-0.492
		c-1.043,0-1.857,0.311-2.443,0.932s-0.879,1.482-0.879,2.584c0,1.156,0.281,2.033,0.846,2.631s1.395,0.896,2.488,0.896
		c0.594,0,1.174-0.068,1.74-0.205v-2.637h-1.916V162.659z"/>
	<path class="st2" d="M128.632,160.608c0.285,0,0.541,0.023,0.768,0.07l-0.135,0.902c-0.266-0.059-0.5-0.088-0.703-0.088
		c-0.52,0-0.965,0.211-1.334,0.633s-0.553,0.947-0.553,1.576v3.445h-0.973v-6.422h0.803l0.111,1.189h0.047
		c0.238-0.418,0.525-0.74,0.861-0.967S128.23,160.608,128.632,160.608z"/>
	<path class="st2" d="M134.513,167.264c-0.949,0-1.697-0.289-2.246-0.867s-0.824-1.381-0.824-2.408c0-1.035,0.256-1.857,0.766-2.467
		s1.193-0.914,2.053-0.914c0.805,0,1.441,0.265,1.91,0.794s0.703,1.228,0.703,2.095v0.615h-4.424
		c0.02,0.754,0.211,1.326,0.572,1.717s0.869,0.586,1.525,0.586c0.691,0,1.375-0.145,2.051-0.434v0.867
		c-0.344,0.148-0.668,0.255-0.975,0.319S134.947,167.264,134.513,167.264z M134.249,161.422c-0.516,0-0.926,0.168-1.232,0.504
		s-0.488,0.801-0.543,1.395h3.357c0-0.613-0.137-1.083-0.41-1.409S134.757,161.422,134.249,161.422z"/>
	<path class="st2" d="M142.447,167.264c-0.949,0-1.699-0.289-2.248-0.867s-0.822-1.381-0.822-2.408c0-1.035,0.254-1.857,0.764-2.467
		s1.195-0.914,2.055-0.914c0.805,0,1.441,0.265,1.91,0.794s0.703,1.228,0.703,2.095v0.615h-4.424c0.02,0.754,0.209,1.326,0.57,1.717
		s0.871,0.586,1.527,0.586c0.691,0,1.375-0.145,2.051-0.434v0.867c-0.344,0.148-0.67,0.255-0.977,0.319
		S142.88,167.264,142.447,167.264z M142.183,161.422c-0.516,0-0.928,0.168-1.234,0.504s-0.486,0.801-0.541,1.395h3.357
		c0-0.613-0.137-1.083-0.41-1.409S142.691,161.422,142.183,161.422z"/>
	<path class="st2" d="M152.06,167.147v-4.154c0-0.523-0.119-0.914-0.357-1.172s-0.611-0.387-1.119-0.387
		c-0.672,0-1.164,0.182-1.477,0.545s-0.469,0.963-0.469,1.799v3.369h-0.973v-6.422h0.791l0.158,0.879h0.047
		c0.199-0.316,0.479-0.562,0.838-0.735s0.76-0.261,1.201-0.261c0.773,0,1.355,0.187,1.746,0.56s0.586,0.97,0.586,1.79v4.189H152.06z
		"/>
	<path class="st2" d="M163.331,167.147h-0.996v-7.682h-2.713v-0.885h6.422v0.885h-2.713V167.147z"/>
	<path class="st2" d="M171.099,167.264c-0.949,0-1.697-0.289-2.246-0.867s-0.824-1.381-0.824-2.408c0-1.035,0.256-1.857,0.766-2.467
		s1.193-0.914,2.053-0.914c0.805,0,1.441,0.265,1.91,0.794s0.703,1.228,0.703,2.095v0.615h-4.424
		c0.02,0.754,0.211,1.326,0.572,1.717s0.869,0.586,1.525,0.586c0.691,0,1.375-0.145,2.051-0.434v0.867
		c-0.344,0.148-0.668,0.255-0.975,0.319S171.533,167.264,171.099,167.264z M170.835,161.422c-0.516,0-0.926,0.168-1.232,0.504
		s-0.488,0.801-0.543,1.395h3.357c0-0.613-0.137-1.083-0.41-1.409S171.343,161.422,170.835,161.422z"/>
	<path class="st2" d="M180.269,167.147l-0.193-0.914h-0.047c-0.32,0.402-0.641,0.675-0.959,0.817s-0.715,0.214-1.191,0.214
		c-0.637,0-1.137-0.164-1.498-0.492s-0.541-0.795-0.541-1.4c0-1.297,1.037-1.977,3.111-2.039l1.09-0.035v-0.398
		c0-0.504-0.109-0.876-0.326-1.116s-0.562-0.36-1.039-0.36c-0.535,0-1.141,0.164-1.816,0.492l-0.299-0.744
		c0.316-0.172,0.662-0.307,1.039-0.404s0.756-0.146,1.135-0.146c0.766,0,1.332,0.17,1.701,0.51s0.555,0.885,0.555,1.635v4.383
		H180.269z M178.072,166.462c0.605,0,1.08-0.166,1.426-0.498s0.52-0.797,0.52-1.395v-0.58l-0.973,0.041
		c-0.773,0.027-1.332,0.147-1.674,0.36s-0.512,0.544-0.512,0.993c0,0.352,0.105,0.619,0.318,0.803S177.689,166.462,178.072,166.462z
		"/>
	<path class="st2" d="M185.212,165.753l0.088,0.135c-0.102,0.391-0.248,0.845-0.439,1.362s-0.391,0.999-0.598,1.444h-0.732
		c0.105-0.406,0.223-0.908,0.35-1.506s0.215-1.076,0.266-1.436H185.212z"/>
	<path class="st2" d="M191.55,169.403c-0.367,0-0.656-0.053-0.867-0.158v-0.85c0.277,0.078,0.566,0.117,0.867,0.117
		c0.387,0,0.68-0.117,0.881-0.352s0.303-0.572,0.303-1.014v-8.566h0.996v8.484c0,0.742-0.188,1.317-0.562,1.726
		S192.253,169.403,191.55,169.403z"/>
	<path class="st2" d="M201.005,167.147l-0.193-0.914h-0.047c-0.32,0.402-0.639,0.675-0.957,0.817s-0.717,0.214-1.193,0.214
		c-0.637,0-1.135-0.164-1.496-0.492s-0.543-0.795-0.543-1.4c0-1.297,1.037-1.977,3.111-2.039l1.09-0.035v-0.398
		c0-0.504-0.107-0.876-0.324-1.116s-0.564-0.36-1.041-0.36c-0.535,0-1.141,0.164-1.816,0.492l-0.299-0.744
		c0.316-0.172,0.664-0.307,1.041-0.404s0.754-0.146,1.133-0.146c0.766,0,1.334,0.17,1.703,0.51s0.553,0.885,0.553,1.635v4.383
		H201.005z M198.808,166.462c0.605,0,1.082-0.166,1.428-0.498s0.518-0.797,0.518-1.395v-0.58l-0.973,0.041
		c-0.773,0.027-1.33,0.147-1.672,0.36s-0.514,0.544-0.514,0.993c0,0.352,0.107,0.619,0.32,0.803S198.425,166.462,198.808,166.462z"
		/>
	<path class="st2" d="M209.074,165.395c0,0.598-0.223,1.059-0.668,1.383s-1.07,0.486-1.875,0.486c-0.852,0-1.516-0.135-1.992-0.404
		v-0.902c0.309,0.156,0.639,0.279,0.992,0.369s0.695,0.135,1.023,0.135c0.508,0,0.898-0.081,1.172-0.243s0.41-0.409,0.41-0.741
		c0-0.25-0.109-0.464-0.326-0.642s-0.639-0.388-1.268-0.63c-0.598-0.223-1.023-0.417-1.275-0.583s-0.439-0.354-0.562-0.565
		s-0.184-0.463-0.184-0.756c0-0.523,0.213-0.937,0.639-1.239s1.01-0.454,1.752-0.454c0.691,0,1.367,0.141,2.027,0.422l-0.346,0.791
		c-0.645-0.266-1.229-0.398-1.752-0.398c-0.461,0-0.809,0.072-1.043,0.217s-0.352,0.344-0.352,0.598
		c0,0.172,0.043,0.318,0.131,0.439s0.23,0.236,0.426,0.346s0.57,0.268,1.125,0.475c0.762,0.277,1.275,0.557,1.543,0.838
		S209.074,164.969,209.074,165.395z"/>
	<path class="st2" d="M220.04,167.147v-4.178c0-0.512-0.109-0.896-0.328-1.151s-0.559-0.384-1.02-0.384
		c-0.605,0-1.053,0.174-1.342,0.521s-0.434,0.883-0.434,1.605v3.586h-0.973v-4.178c0-0.512-0.109-0.896-0.328-1.151
		s-0.561-0.384-1.025-0.384c-0.609,0-1.055,0.183-1.338,0.548s-0.426,0.964-0.426,1.796v3.369h-0.973v-6.422h0.791l0.158,0.879
		h0.047c0.184-0.312,0.443-0.557,0.777-0.732s0.707-0.264,1.121-0.264c1.004,0,1.66,0.363,1.969,1.09h0.047
		c0.191-0.336,0.469-0.602,0.832-0.797s0.777-0.293,1.242-0.293c0.727,0,1.271,0.187,1.633,0.56s0.541,0.97,0.541,1.79v4.189H220.04
		z"/>
	<path class="st2" d="M224.136,158.985c0-0.223,0.055-0.386,0.164-0.489s0.246-0.155,0.41-0.155c0.156,0,0.291,0.053,0.404,0.158
		s0.17,0.268,0.17,0.486s-0.057,0.382-0.17,0.489s-0.248,0.161-0.404,0.161c-0.164,0-0.301-0.054-0.41-0.161
		S224.136,159.204,224.136,158.985z M225.191,167.147h-0.973v-6.422h0.973V167.147z"/>
	<path class="st2" d="M232.847,167.147v-4.154c0-0.523-0.119-0.914-0.357-1.172s-0.611-0.387-1.119-0.387
		c-0.672,0-1.164,0.182-1.477,0.545s-0.469,0.963-0.469,1.799v3.369h-0.973v-6.422h0.791l0.158,0.879h0.047
		c0.199-0.316,0.479-0.562,0.838-0.735s0.76-0.261,1.201-0.261c0.773,0,1.355,0.187,1.746,0.56s0.586,0.97,0.586,1.79v4.189H232.847
		z"/>
	<path class="st2" d="M239.73,167.264c-0.949,0-1.697-0.289-2.246-0.867s-0.824-1.381-0.824-2.408c0-1.035,0.256-1.857,0.766-2.467
		s1.193-0.914,2.053-0.914c0.805,0,1.441,0.265,1.91,0.794s0.703,1.228,0.703,2.095v0.615h-4.424
		c0.02,0.754,0.211,1.326,0.572,1.717s0.869,0.586,1.525,0.586c0.691,0,1.375-0.145,2.051-0.434v0.867
		c-0.344,0.148-0.668,0.255-0.975,0.319S240.163,167.264,239.73,167.264z M239.466,161.422c-0.516,0-0.926,0.168-1.232,0.504
		s-0.488,0.801-0.543,1.395h3.357c0-0.613-0.137-1.083-0.41-1.409S239.974,161.422,239.466,161.422z"/>
	<path class="st2" d="M252.05,167.147h-0.996v-7.682h-2.713v-0.885h6.422v0.885h-2.713V167.147z"/>
	<path class="st2" d="M259.82,167.264c-0.949,0-1.699-0.289-2.248-0.867s-0.822-1.381-0.822-2.408c0-1.035,0.254-1.857,0.764-2.467
		s1.195-0.914,2.055-0.914c0.805,0,1.441,0.265,1.91,0.794s0.703,1.228,0.703,2.095v0.615h-4.424c0.02,0.754,0.209,1.326,0.57,1.717
		s0.871,0.586,1.527,0.586c0.691,0,1.375-0.145,2.051-0.434v0.867c-0.344,0.148-0.67,0.255-0.977,0.319
		S260.253,167.264,259.82,167.264z M259.556,161.422c-0.516,0-0.928,0.168-1.234,0.504s-0.486,0.801-0.541,1.395h3.357
		c0-0.613-0.137-1.083-0.41-1.409S260.064,161.422,259.556,161.422z"/>
	<path class="st2" d="M268.988,167.147l-0.193-0.914h-0.047c-0.32,0.402-0.641,0.675-0.959,0.817s-0.715,0.214-1.191,0.214
		c-0.637,0-1.137-0.164-1.498-0.492s-0.541-0.795-0.541-1.4c0-1.297,1.037-1.977,3.111-2.039l1.09-0.035v-0.398
		c0-0.504-0.109-0.876-0.326-1.116s-0.562-0.36-1.039-0.36c-0.535,0-1.141,0.164-1.816,0.492l-0.299-0.744
		c0.316-0.172,0.662-0.307,1.039-0.404s0.756-0.146,1.135-0.146c0.766,0,1.332,0.17,1.701,0.51s0.555,0.885,0.555,1.635v4.383
		H268.988z M266.79,166.462c0.605,0,1.08-0.166,1.426-0.498s0.52-0.797,0.52-1.395v-0.58l-0.973,0.041
		c-0.773,0.027-1.332,0.147-1.674,0.36s-0.512,0.544-0.512,0.993c0,0.352,0.105,0.619,0.318,0.803S266.408,166.462,266.79,166.462z"
		/>
	<path class="st2" d="M273.931,165.753l0.088,0.135c-0.102,0.391-0.248,0.845-0.439,1.362s-0.391,0.999-0.598,1.444h-0.732
		c0.105-0.406,0.223-0.908,0.35-1.506s0.215-1.076,0.266-1.436H273.931z"/>
	<path class="st2" d="M285.185,159.348c-0.941,0-1.684,0.313-2.229,0.94s-0.818,1.485-0.818,2.575c0,1.121,0.264,1.987,0.789,2.599
		s1.273,0.917,2.246,0.917c0.598,0,1.279-0.107,2.045-0.322v0.873c-0.594,0.223-1.326,0.334-2.197,0.334
		c-1.262,0-2.234-0.383-2.92-1.148s-1.029-1.854-1.029-3.264c0-0.883,0.166-1.656,0.496-2.32s0.807-1.176,1.43-1.535
		s1.355-0.539,2.199-0.539c0.898,0,1.684,0.164,2.355,0.492l-0.422,0.855C286.482,159.501,285.833,159.348,285.185,159.348z"/>
	<path class="st2" d="M294.537,167.147v-4.154c0-0.523-0.119-0.914-0.357-1.172s-0.611-0.387-1.119-0.387
		c-0.676,0-1.17,0.184-1.48,0.551s-0.465,0.969-0.465,1.805v3.357h-0.973v-9.117h0.973v2.76c0,0.332-0.016,0.607-0.047,0.826h0.059
		c0.191-0.309,0.463-0.552,0.816-0.729s0.758-0.267,1.211-0.267c0.785,0,1.373,0.187,1.766,0.56s0.59,0.966,0.59,1.778v4.189
		H294.537z"/>
	<path class="st2" d="M302.656,167.147l-0.193-0.914h-0.047c-0.32,0.402-0.641,0.675-0.959,0.817s-0.715,0.214-1.191,0.214
		c-0.637,0-1.137-0.164-1.498-0.492s-0.541-0.795-0.541-1.4c0-1.297,1.037-1.977,3.111-2.039l1.09-0.035v-0.398
		c0-0.504-0.109-0.876-0.326-1.116s-0.562-0.36-1.039-0.36c-0.535,0-1.141,0.164-1.816,0.492l-0.299-0.744
		c0.316-0.172,0.662-0.307,1.039-0.404s0.756-0.146,1.135-0.146c0.766,0,1.332,0.17,1.701,0.51s0.555,0.885,0.555,1.635v4.383
		H302.656z M300.458,166.462c0.605,0,1.08-0.166,1.426-0.498s0.52-0.797,0.52-1.395v-0.58l-0.973,0.041
		c-0.773,0.027-1.332,0.147-1.674,0.36s-0.512,0.544-0.512,0.993c0,0.352,0.105,0.619,0.318,0.803S300.076,166.462,300.458,166.462z
		"/>
	<path class="st2" d="M314.765,167.147v-4.178c0-0.512-0.109-0.896-0.328-1.151s-0.559-0.384-1.02-0.384
		c-0.605,0-1.053,0.174-1.342,0.521s-0.434,0.883-0.434,1.605v3.586h-0.973v-4.178c0-0.512-0.109-0.896-0.328-1.151
		s-0.561-0.384-1.025-0.384c-0.609,0-1.055,0.183-1.338,0.548s-0.426,0.964-0.426,1.796v3.369h-0.973v-6.422h0.791l0.158,0.879
		h0.047c0.184-0.312,0.443-0.557,0.777-0.732s0.707-0.264,1.121-0.264c1.004,0,1.66,0.363,1.969,1.09h0.047
		c0.191-0.336,0.469-0.602,0.832-0.797s0.777-0.293,1.242-0.293c0.727,0,1.271,0.187,1.633,0.56s0.541,0.97,0.541,1.79v4.189
		H314.765z"/>
	<path class="st2" d="M324.486,163.93c0,1.047-0.264,1.864-0.791,2.452s-1.256,0.882-2.186,0.882c-0.574,0-1.084-0.135-1.529-0.404
		s-0.789-0.656-1.031-1.16s-0.363-1.094-0.363-1.77c0-1.047,0.262-1.862,0.785-2.446s1.25-0.876,2.18-0.876
		c0.898,0,1.611,0.299,2.141,0.896S324.486,162.911,324.486,163.93z M319.593,163.93c0,0.82,0.164,1.445,0.492,1.875
		s0.811,0.645,1.447,0.645s1.119-0.214,1.449-0.642s0.496-1.054,0.496-1.878c0-0.816-0.166-1.437-0.496-1.86
		s-0.816-0.636-1.461-0.636c-0.637,0-1.117,0.209-1.441,0.627S319.593,163.102,319.593,163.93z"/>
	<path class="st2" d="M335.576,167.147v-4.178c0-0.512-0.109-0.896-0.328-1.151s-0.559-0.384-1.02-0.384
		c-0.605,0-1.053,0.174-1.342,0.521s-0.434,0.883-0.434,1.605v3.586h-0.973v-4.178c0-0.512-0.109-0.896-0.328-1.151
		s-0.561-0.384-1.025-0.384c-0.609,0-1.055,0.183-1.338,0.548s-0.426,0.964-0.426,1.796v3.369h-0.973v-6.422h0.791l0.158,0.879
		h0.047c0.184-0.312,0.443-0.557,0.777-0.732s0.707-0.264,1.121-0.264c1.004,0,1.66,0.363,1.969,1.09h0.047
		c0.191-0.336,0.469-0.602,0.832-0.797s0.777-0.293,1.242-0.293c0.727,0,1.271,0.187,1.633,0.56s0.541,0.97,0.541,1.79v4.189
		H335.576z"/>
	<path class="st2" d="M339.671,158.985c0-0.223,0.055-0.386,0.164-0.489s0.246-0.155,0.41-0.155c0.156,0,0.291,0.053,0.404,0.158
		s0.17,0.268,0.17,0.486s-0.057,0.382-0.17,0.489s-0.248,0.161-0.404,0.161c-0.164,0-0.301-0.054-0.41-0.161
		S339.671,159.204,339.671,158.985z M340.726,167.147h-0.973v-6.422h0.973V167.147z"/>
	<path class="st2" d="M344.96,167.147h-0.973v-9.117h0.973V167.147z"/>
	<path class="st2" d="M350.935,167.264c-0.949,0-1.697-0.289-2.246-0.867s-0.824-1.381-0.824-2.408c0-1.035,0.256-1.857,0.766-2.467
		s1.193-0.914,2.053-0.914c0.805,0,1.441,0.265,1.91,0.794s0.703,1.228,0.703,2.095v0.615h-4.424
		c0.02,0.754,0.211,1.326,0.572,1.717s0.869,0.586,1.525,0.586c0.691,0,1.375-0.145,2.051-0.434v0.867
		c-0.344,0.148-0.668,0.255-0.975,0.319S351.369,167.264,350.935,167.264z M350.671,161.422c-0.516,0-0.926,0.168-1.232,0.504
		s-0.488,0.801-0.543,1.395h3.357c0-0.613-0.137-1.083-0.41-1.409S351.179,161.422,350.671,161.422z"/>
	<path class="st2" d="M363.255,167.147h-0.996v-7.682h-2.713v-0.885h6.422v0.885h-2.713V167.147z"/>
	<path class="st2" d="M371.025,167.264c-0.949,0-1.699-0.289-2.248-0.867s-0.822-1.381-0.822-2.408c0-1.035,0.254-1.857,0.764-2.467
		s1.195-0.914,2.055-0.914c0.805,0,1.441,0.265,1.91,0.794s0.703,1.228,0.703,2.095v0.615h-4.424c0.02,0.754,0.209,1.326,0.57,1.717
		s0.871,0.586,1.527,0.586c0.691,0,1.375-0.145,2.051-0.434v0.867c-0.344,0.148-0.67,0.255-0.977,0.319
		S371.458,167.264,371.025,167.264z M370.761,161.422c-0.516,0-0.928,0.168-1.234,0.504s-0.486,0.801-0.541,1.395h3.357
		c0-0.613-0.137-1.083-0.41-1.409S371.269,161.422,370.761,161.422z"/>
	<path class="st2" d="M380.193,167.147l-0.193-0.914h-0.047c-0.32,0.402-0.641,0.675-0.959,0.817s-0.715,0.214-1.191,0.214
		c-0.637,0-1.137-0.164-1.498-0.492s-0.541-0.795-0.541-1.4c0-1.297,1.037-1.977,3.111-2.039l1.09-0.035v-0.398
		c0-0.504-0.109-0.876-0.326-1.116s-0.562-0.36-1.039-0.36c-0.535,0-1.141,0.164-1.816,0.492l-0.299-0.744
		c0.316-0.172,0.662-0.307,1.039-0.404s0.756-0.146,1.135-0.146c0.766,0,1.332,0.17,1.701,0.51s0.555,0.885,0.555,1.635v4.383
		H380.193z M377.996,166.462c0.605,0,1.08-0.166,1.426-0.498s0.52-0.797,0.52-1.395v-0.58l-0.973,0.041
		c-0.773,0.027-1.332,0.147-1.674,0.36s-0.512,0.544-0.512,0.993c0,0.352,0.105,0.619,0.318,0.803S377.613,166.462,377.996,166.462z
		"/>
	<path class="st2" d="M385.136,165.753l0.088,0.135c-0.102,0.391-0.248,0.845-0.439,1.362s-0.391,0.999-0.598,1.444h-0.732
		c0.105-0.406,0.223-0.908,0.35-1.506s0.215-1.076,0.266-1.436H385.136z"/>
	<path class="st2" d="M397.497,167.147h-4.775v-8.566h4.775v0.885h-3.779v2.76h3.551v0.879h-3.551v3.152h3.779V167.147z"/>
	<path class="st2" d="M404.4,167.147l-0.193-0.914h-0.047c-0.32,0.402-0.641,0.675-0.959,0.817s-0.715,0.214-1.191,0.214
		c-0.637,0-1.137-0.164-1.498-0.492s-0.541-0.795-0.541-1.4c0-1.297,1.037-1.977,3.111-2.039l1.09-0.035v-0.398
		c0-0.504-0.109-0.876-0.326-1.116s-0.562-0.36-1.039-0.36c-0.535,0-1.141,0.164-1.816,0.492l-0.299-0.744
		c0.316-0.172,0.662-0.307,1.039-0.404s0.756-0.146,1.135-0.146c0.766,0,1.332,0.17,1.701,0.51s0.555,0.885,0.555,1.635v4.383H404.4
		z M402.203,166.462c0.605,0,1.08-0.166,1.426-0.498s0.52-0.797,0.52-1.395v-0.58l-0.973,0.041c-0.773,0.027-1.332,0.147-1.674,0.36
		s-0.512,0.544-0.512,0.993c0,0.352,0.105,0.619,0.318,0.803S401.82,166.462,402.203,166.462z"/>
	<path class="st2" d="M411.253,160.608c0.285,0,0.541,0.023,0.768,0.07l-0.135,0.902c-0.266-0.059-0.5-0.088-0.703-0.088
		c-0.52,0-0.965,0.211-1.334,0.633s-0.553,0.947-0.553,1.576v3.445h-0.973v-6.422h0.803l0.111,1.189h0.047
		c0.238-0.418,0.525-0.74,0.861-0.967S410.851,160.608,411.253,160.608z"/>
	<path class="st2" d="M415.394,167.147h-0.973v-9.117h0.973V167.147z"/>
	<path class="st2" d="M426.888,162.659h2.912v4.166c-0.453,0.145-0.914,0.254-1.383,0.328s-1.012,0.111-1.629,0.111
		c-1.297,0-2.307-0.386-3.029-1.157s-1.084-1.853-1.084-3.243c0-0.891,0.18-1.671,0.537-2.341s0.871-1.182,1.543-1.535
		s1.459-0.53,2.361-0.53c0.914,0,1.766,0.168,2.555,0.504l-0.387,0.879c-0.773-0.328-1.518-0.492-2.232-0.492
		c-1.043,0-1.857,0.311-2.443,0.932s-0.879,1.482-0.879,2.584c0,1.156,0.283,2.033,0.848,2.631s1.393,0.896,2.486,0.896
		c0.594,0,1.174-0.068,1.74-0.205v-2.637h-1.916V162.659z"/>
	<path class="st2" d="M435.841,160.608c0.285,0,0.541,0.023,0.768,0.07l-0.135,0.902c-0.266-0.059-0.5-0.088-0.703-0.088
		c-0.52,0-0.965,0.211-1.334,0.633s-0.553,0.947-0.553,1.576v3.445h-0.973v-6.422h0.803l0.111,1.189h0.047
		c0.238-0.418,0.525-0.74,0.861-0.967S435.439,160.608,435.841,160.608z"/>
	<path class="st2" d="M441.722,167.264c-0.949,0-1.699-0.289-2.248-0.867s-0.822-1.381-0.822-2.408c0-1.035,0.254-1.857,0.764-2.467
		s1.195-0.914,2.055-0.914c0.805,0,1.441,0.265,1.91,0.794s0.703,1.228,0.703,2.095v0.615h-4.424c0.02,0.754,0.209,1.326,0.57,1.717
		s0.871,0.586,1.527,0.586c0.691,0,1.375-0.145,2.051-0.434v0.867c-0.344,0.148-0.67,0.255-0.977,0.319
		S442.156,167.264,441.722,167.264z M441.458,161.422c-0.516,0-0.928,0.168-1.234,0.504s-0.486,0.801-0.541,1.395h3.357
		c0-0.613-0.137-1.083-0.41-1.409S441.966,161.422,441.458,161.422z"/>
	<path class="st2" d="M445.921,160.725h1.043l1.406,3.662c0.309,0.836,0.5,1.439,0.574,1.811h0.047
		c0.051-0.199,0.158-0.54,0.32-1.022s0.691-1.966,1.59-4.45h1.043l-2.76,7.312c-0.273,0.723-0.592,1.235-0.957,1.538
		s-0.814,0.454-1.346,0.454c-0.297,0-0.59-0.033-0.879-0.1v-0.779c0.215,0.047,0.455,0.07,0.721,0.07
		c0.668,0,1.145-0.375,1.43-1.125l0.357-0.914L445.921,160.725z"/>
	<path class="st2" d="M461.288,167.147h-0.996v-7.682h-2.713v-0.885h6.422v0.885h-2.713V167.147z"/>
	<path class="st2" d="M469.058,167.264c-0.949,0-1.699-0.289-2.248-0.867s-0.822-1.381-0.822-2.408c0-1.035,0.254-1.857,0.764-2.467
		s1.195-0.914,2.055-0.914c0.805,0,1.441,0.265,1.91,0.794s0.703,1.228,0.703,2.095v0.615h-4.424c0.02,0.754,0.209,1.326,0.57,1.717
		s0.871,0.586,1.527,0.586c0.691,0,1.375-0.145,2.051-0.434v0.867c-0.344,0.148-0.67,0.255-0.977,0.319
		S469.492,167.264,469.058,167.264z M468.794,161.422c-0.516,0-0.928,0.168-1.234,0.504s-0.486,0.801-0.541,1.395h3.357
		c0-0.613-0.137-1.083-0.41-1.409S469.302,161.422,468.794,161.422z"/>
	<path class="st2" d="M478.226,167.147l-0.193-0.914h-0.047c-0.32,0.402-0.641,0.675-0.959,0.817s-0.715,0.214-1.191,0.214
		c-0.637,0-1.137-0.164-1.498-0.492s-0.541-0.795-0.541-1.4c0-1.297,1.037-1.977,3.111-2.039l1.09-0.035v-0.398
		c0-0.504-0.109-0.876-0.326-1.116s-0.562-0.36-1.039-0.36c-0.535,0-1.141,0.164-1.816,0.492l-0.299-0.744
		c0.316-0.172,0.662-0.307,1.039-0.404s0.756-0.146,1.135-0.146c0.766,0,1.332,0.17,1.701,0.51s0.555,0.885,0.555,1.635v4.383
		H478.226z M476.029,166.462c0.605,0,1.08-0.166,1.426-0.498s0.52-0.797,0.52-1.395v-0.58l-0.973,0.041
		c-0.773,0.027-1.332,0.147-1.674,0.36s-0.512,0.544-0.512,0.993c0,0.352,0.105,0.619,0.318,0.803S475.646,166.462,476.029,166.462z
		"/>
	<path class="st2" d="M483.169,165.753l0.088,0.135c-0.102,0.391-0.248,0.845-0.439,1.362s-0.391,0.999-0.598,1.444h-0.732
		c0.105-0.406,0.223-0.908,0.35-1.506s0.215-1.076,0.266-1.436H483.169z"/>
	<path class="st2" d="M0.603,182.581h2.42c1.137,0,1.959,0.17,2.467,0.51s0.762,0.877,0.762,1.611c0,0.508-0.143,0.927-0.426,1.257
		s-0.695,0.544-1.238,0.642v0.059c1.301,0.223,1.951,0.906,1.951,2.051c0,0.766-0.26,1.363-0.777,1.793s-1.24,0.645-2.17,0.645
		H0.603V182.581z M1.599,186.249H3.24c0.703,0,1.209-0.11,1.518-0.331s0.463-0.593,0.463-1.116c0-0.48-0.172-0.827-0.516-1.04
		s-0.891-0.319-1.641-0.319H1.599V186.249z M1.599,187.092v3.205h1.787c0.691,0,1.211-0.134,1.561-0.401s0.525-0.687,0.525-1.257
		c0-0.531-0.18-0.922-0.537-1.172s-0.9-0.375-1.631-0.375H1.599z"/>
	<path class="st2" d="M12.361,184.608c0.285,0,0.541,0.023,0.768,0.07l-0.135,0.902c-0.266-0.059-0.5-0.088-0.703-0.088
		c-0.52,0-0.963,0.211-1.332,0.633s-0.555,0.947-0.555,1.576v3.445H9.431v-6.422h0.803l0.111,1.189h0.047
		c0.238-0.418,0.525-0.74,0.861-0.967S11.958,184.608,12.361,184.608z"/>
	<path class="st2" d="M18.244,191.264c-0.949,0-1.699-0.289-2.248-0.867s-0.822-1.381-0.822-2.408c0-1.035,0.254-1.857,0.764-2.467
		s1.195-0.914,2.055-0.914c0.805,0,1.441,0.265,1.91,0.794s0.703,1.228,0.703,2.095v0.615h-4.424c0.02,0.754,0.209,1.326,0.57,1.717
		s0.871,0.586,1.527,0.586c0.691,0,1.375-0.145,2.051-0.434v0.867c-0.344,0.148-0.67,0.255-0.977,0.319
		S18.677,191.264,18.244,191.264z M17.98,185.422c-0.516,0-0.928,0.168-1.234,0.504s-0.486,0.801-0.541,1.395h3.357
		c0-0.613-0.137-1.083-0.41-1.409S18.488,185.422,17.98,185.422z"/>
	<path class="st2" d="M27.412,191.147l-0.193-0.914h-0.047c-0.32,0.402-0.641,0.675-0.959,0.817s-0.715,0.214-1.191,0.214
		c-0.637,0-1.137-0.164-1.498-0.492s-0.541-0.795-0.541-1.4c0-1.297,1.037-1.977,3.111-2.039l1.09-0.035v-0.398
		c0-0.504-0.109-0.876-0.326-1.116s-0.562-0.36-1.039-0.36c-0.535,0-1.141,0.164-1.816,0.492l-0.299-0.744
		c0.316-0.172,0.662-0.307,1.039-0.404s0.756-0.146,1.135-0.146c0.766,0,1.332,0.17,1.701,0.51s0.555,0.885,0.555,1.635v4.383
		H27.412z M25.214,190.462c0.605,0,1.08-0.166,1.426-0.498s0.52-0.797,0.52-1.395v-0.58l-0.973,0.041
		c-0.773,0.027-1.332,0.147-1.674,0.36s-0.512,0.544-0.512,0.993c0,0.352,0.105,0.619,0.318,0.803S24.831,190.462,25.214,190.462z"
		/>
	<path class="st2" d="M32.296,187.86c0.168-0.238,0.424-0.551,0.768-0.938l2.074-2.197h1.154l-2.602,2.736l2.783,3.686h-1.178
		l-2.268-3.035l-0.732,0.633v2.402h-0.961v-9.117h0.961v4.834c0,0.215-0.016,0.547-0.047,0.996H32.296z"/>
	<path class="st2" d="M41.73,185.481h-1.635v5.666h-0.973v-5.666h-1.148v-0.439l1.148-0.352v-0.357c0-1.578,0.689-2.367,2.068-2.367
		c0.34,0,0.738,0.068,1.195,0.205l-0.252,0.779c-0.375-0.121-0.695-0.182-0.961-0.182c-0.367,0-0.639,0.122-0.814,0.366
		s-0.264,0.636-0.264,1.175v0.416h1.635V185.481z"/>
	<path class="st2" d="M48.05,191.147l-0.193-0.914H47.81c-0.32,0.402-0.639,0.675-0.957,0.817s-0.717,0.214-1.193,0.214
		c-0.637,0-1.135-0.164-1.496-0.492s-0.543-0.795-0.543-1.4c0-1.297,1.037-1.977,3.111-2.039l1.09-0.035v-0.398
		c0-0.504-0.107-0.876-0.324-1.116s-0.564-0.36-1.041-0.36c-0.535,0-1.141,0.164-1.816,0.492l-0.299-0.744
		c0.316-0.172,0.664-0.307,1.041-0.404s0.754-0.146,1.133-0.146c0.766,0,1.334,0.17,1.703,0.51s0.553,0.885,0.553,1.635v4.383H48.05
		z M45.853,190.462c0.605,0,1.082-0.166,1.428-0.498s0.518-0.797,0.518-1.395v-0.58l-0.973,0.041
		c-0.773,0.027-1.33,0.147-1.672,0.36s-0.514,0.544-0.514,0.993c0,0.352,0.107,0.619,0.32,0.803S45.47,190.462,45.853,190.462z"/>
	<path class="st2" d="M56.119,189.395c0,0.598-0.223,1.059-0.668,1.383s-1.07,0.486-1.875,0.486c-0.852,0-1.516-0.135-1.992-0.404
		v-0.902c0.309,0.156,0.639,0.279,0.992,0.369s0.695,0.135,1.023,0.135c0.508,0,0.898-0.081,1.172-0.243s0.41-0.409,0.41-0.741
		c0-0.25-0.109-0.464-0.326-0.642s-0.639-0.388-1.268-0.63c-0.598-0.223-1.023-0.417-1.275-0.583s-0.439-0.354-0.562-0.565
		s-0.184-0.463-0.184-0.756c0-0.523,0.213-0.937,0.639-1.239s1.01-0.454,1.752-0.454c0.691,0,1.367,0.141,2.027,0.422l-0.346,0.791
		c-0.645-0.266-1.229-0.398-1.752-0.398c-0.461,0-0.809,0.072-1.043,0.217s-0.352,0.344-0.352,0.598
		c0,0.172,0.043,0.318,0.131,0.439s0.23,0.236,0.426,0.346s0.57,0.268,1.125,0.475c0.762,0.277,1.275,0.557,1.543,0.838
		S56.119,188.969,56.119,189.395z"/>
	<path class="st2" d="M60.974,190.462c0.172,0,0.338-0.013,0.498-0.038s0.287-0.052,0.381-0.079v0.744
		c-0.105,0.051-0.262,0.093-0.467,0.126s-0.389,0.05-0.553,0.05c-1.242,0-1.863-0.654-1.863-1.963v-3.82h-0.92v-0.469l0.92-0.404
		l0.41-1.371h0.562v1.488h1.863v0.756h-1.863v3.779c0,0.387,0.092,0.684,0.275,0.891S60.654,190.462,60.974,190.462z"/>
	<path class="st2" d="M71.437,191.147h-0.996v-7.682h-2.713v-0.885h6.422v0.885h-2.713V191.147z"/>
	<path class="st2" d="M79.205,191.264c-0.949,0-1.697-0.289-2.246-0.867s-0.824-1.381-0.824-2.408c0-1.035,0.256-1.857,0.766-2.467
		s1.193-0.914,2.053-0.914c0.805,0,1.441,0.265,1.91,0.794s0.703,1.228,0.703,2.095v0.615h-4.424
		c0.02,0.754,0.211,1.326,0.572,1.717s0.869,0.586,1.525,0.586c0.691,0,1.375-0.145,2.051-0.434v0.867
		c-0.344,0.148-0.668,0.255-0.975,0.319S79.638,191.264,79.205,191.264z M78.941,185.422c-0.516,0-0.926,0.168-1.232,0.504
		s-0.488,0.801-0.543,1.395h3.357c0-0.613-0.137-1.083-0.41-1.409S79.449,185.422,78.941,185.422z"/>
	<path class="st2" d="M88.374,191.147l-0.193-0.914h-0.047c-0.32,0.402-0.641,0.675-0.959,0.817s-0.715,0.214-1.191,0.214
		c-0.637,0-1.137-0.164-1.498-0.492s-0.541-0.795-0.541-1.4c0-1.297,1.037-1.977,3.111-2.039l1.09-0.035v-0.398
		c0-0.504-0.109-0.876-0.326-1.116s-0.562-0.36-1.039-0.36c-0.535,0-1.141,0.164-1.816,0.492l-0.299-0.744
		c0.316-0.172,0.662-0.307,1.039-0.404s0.756-0.146,1.135-0.146c0.766,0,1.332,0.17,1.701,0.51s0.555,0.885,0.555,1.635v4.383
		H88.374z M86.177,190.462c0.605,0,1.08-0.166,1.426-0.498s0.52-0.797,0.52-1.395v-0.58l-0.973,0.041
		c-0.773,0.027-1.332,0.147-1.674,0.36s-0.512,0.544-0.512,0.993c0,0.352,0.105,0.619,0.318,0.803S85.794,190.462,86.177,190.462z"
		/>
	<path class="st2" d="M93.318,189.753l0.088,0.135c-0.102,0.391-0.248,0.845-0.439,1.362s-0.391,0.999-0.598,1.444h-0.732
		c0.105-0.406,0.221-0.908,0.348-1.506s0.217-1.076,0.268-1.436H93.318z"/>
	<path class="st2" d="M100.904,191.147v-8.566h0.996v7.664h3.779v0.902H100.904z"/>
	<path class="st2" d="M113.728,187.93c0,1.047-0.264,1.864-0.791,2.452s-1.256,0.882-2.186,0.882c-0.574,0-1.084-0.135-1.529-0.404
		s-0.789-0.656-1.031-1.16s-0.363-1.094-0.363-1.77c0-1.047,0.262-1.862,0.785-2.446s1.25-0.876,2.18-0.876
		c0.898,0,1.613,0.299,2.143,0.896S113.728,186.911,113.728,187.93z M108.835,187.93c0,0.82,0.164,1.445,0.492,1.875
		s0.811,0.645,1.447,0.645s1.121-0.214,1.451-0.642s0.494-1.054,0.494-1.878c0-0.816-0.164-1.437-0.494-1.86
		s-0.818-0.636-1.463-0.636c-0.637,0-1.117,0.209-1.441,0.627S108.835,187.102,108.835,187.93z"/>
	<path class="st2" d="M121.029,191.147v-4.154c0-0.523-0.119-0.914-0.357-1.172s-0.611-0.387-1.119-0.387
		c-0.672,0-1.164,0.182-1.477,0.545s-0.469,0.963-0.469,1.799v3.369h-0.973v-6.422h0.791l0.158,0.879h0.047
		c0.199-0.316,0.479-0.562,0.838-0.735s0.76-0.261,1.201-0.261c0.773,0,1.355,0.187,1.746,0.56s0.586,0.97,0.586,1.79v4.189H121.029
		z"/>
	<path class="st2" d="M129.57,190.286h-0.053c-0.449,0.652-1.121,0.979-2.016,0.979c-0.84,0-1.494-0.287-1.961-0.861
		s-0.699-1.391-0.699-2.449s0.234-1.881,0.703-2.467s1.121-0.879,1.957-0.879c0.871,0,1.539,0.316,2.004,0.949h0.076l-0.041-0.463
		l-0.023-0.451v-2.613h0.973v9.117h-0.791L129.57,190.286z M127.624,190.45c0.664,0,1.145-0.181,1.443-0.542
		s0.449-0.944,0.449-1.749v-0.205c0-0.91-0.152-1.56-0.455-1.948s-0.785-0.583-1.449-0.583c-0.57,0-1.008,0.222-1.311,0.665
		s-0.453,1.069-0.453,1.878c0,0.82,0.15,1.439,0.451,1.857S127.042,190.45,127.624,190.45z"/>
	<path class="st2" d="M139.294,187.93c0,1.047-0.264,1.864-0.791,2.452s-1.256,0.882-2.186,0.882c-0.574,0-1.084-0.135-1.529-0.404
		s-0.789-0.656-1.031-1.16s-0.363-1.094-0.363-1.77c0-1.047,0.262-1.862,0.785-2.446s1.25-0.876,2.18-0.876
		c0.898,0,1.613,0.299,2.143,0.896S139.294,186.911,139.294,187.93z M134.402,187.93c0,0.82,0.164,1.445,0.492,1.875
		s0.811,0.645,1.447,0.645s1.121-0.214,1.451-0.642s0.494-1.054,0.494-1.878c0-0.816-0.164-1.437-0.494-1.86
		s-0.818-0.636-1.463-0.636c-0.637,0-1.117,0.209-1.441,0.627S134.402,187.102,134.402,187.93z"/>
	<path class="st2" d="M147.456,184.725v0.615l-1.189,0.141c0.109,0.137,0.207,0.315,0.293,0.536s0.129,0.47,0.129,0.747
		c0,0.629-0.215,1.131-0.645,1.506s-1.02,0.562-1.77,0.562c-0.191,0-0.371-0.016-0.539-0.047c-0.414,0.219-0.621,0.494-0.621,0.826
		c0,0.176,0.072,0.306,0.217,0.39s0.393,0.126,0.744,0.126h1.137c0.695,0,1.229,0.146,1.602,0.439s0.561,0.719,0.561,1.277
		c0,0.711-0.285,1.253-0.855,1.626s-1.402,0.56-2.496,0.56c-0.84,0-1.488-0.156-1.943-0.469s-0.682-0.754-0.682-1.324
		c0-0.391,0.125-0.729,0.375-1.014s0.602-0.479,1.055-0.58c-0.164-0.074-0.303-0.189-0.414-0.346s-0.166-0.338-0.166-0.545
		c0-0.234,0.062-0.439,0.188-0.615s0.322-0.346,0.592-0.51c-0.332-0.137-0.604-0.369-0.812-0.697s-0.312-0.703-0.312-1.125
		c0-0.703,0.211-1.245,0.633-1.626s1.02-0.571,1.793-0.571c0.336,0,0.639,0.039,0.908,0.117H147.456z M142.335,192.225
		c0,0.348,0.146,0.611,0.439,0.791s0.713,0.27,1.26,0.27c0.816,0,1.42-0.122,1.812-0.366s0.59-0.575,0.59-0.993
		c0-0.348-0.107-0.589-0.322-0.724s-0.619-0.202-1.213-0.202h-1.166c-0.441,0-0.785,0.105-1.031,0.316
		S142.335,191.831,142.335,192.225z M142.863,186.782c0,0.449,0.127,0.789,0.381,1.02s0.607,0.346,1.061,0.346
		c0.949,0,1.424-0.461,1.424-1.383c0-0.965-0.48-1.447-1.441-1.447c-0.457,0-0.809,0.123-1.055,0.369
		S142.863,186.297,142.863,186.782z"/>
	<path class="st2" d="M155.435,191.147h-0.996v-8.566h4.775v0.885h-3.779v3.135h3.551v0.885h-3.551V191.147z"/>
	<path class="st2" d="M167.228,187.93c0,1.047-0.264,1.864-0.791,2.452s-1.256,0.882-2.186,0.882c-0.574,0-1.084-0.135-1.529-0.404
		s-0.789-0.656-1.031-1.16s-0.363-1.094-0.363-1.77c0-1.047,0.262-1.862,0.785-2.446s1.25-0.876,2.18-0.876
		c0.898,0,1.611,0.299,2.141,0.896S167.228,186.911,167.228,187.93z M162.335,187.93c0,0.82,0.164,1.445,0.492,1.875
		s0.811,0.645,1.447,0.645s1.119-0.214,1.449-0.642s0.496-1.054,0.496-1.878c0-0.816-0.166-1.437-0.496-1.86
		s-0.816-0.636-1.461-0.636c-0.637,0-1.117,0.209-1.441,0.627S162.335,187.102,162.335,187.93z"/>
	<path class="st2" d="M175.388,184.725v0.615l-1.189,0.141c0.109,0.137,0.207,0.315,0.293,0.536s0.129,0.47,0.129,0.747
		c0,0.629-0.215,1.131-0.645,1.506s-1.02,0.562-1.77,0.562c-0.191,0-0.371-0.016-0.539-0.047c-0.414,0.219-0.621,0.494-0.621,0.826
		c0,0.176,0.072,0.306,0.217,0.39s0.393,0.126,0.744,0.126h1.137c0.695,0,1.23,0.146,1.604,0.439s0.559,0.719,0.559,1.277
		c0,0.711-0.285,1.253-0.855,1.626s-1.402,0.56-2.496,0.56c-0.84,0-1.486-0.156-1.941-0.469s-0.684-0.754-0.684-1.324
		c0-0.391,0.125-0.729,0.375-1.014s0.602-0.479,1.055-0.58c-0.164-0.074-0.301-0.189-0.412-0.346s-0.168-0.338-0.168-0.545
		c0-0.234,0.062-0.439,0.188-0.615s0.322-0.346,0.592-0.51c-0.332-0.137-0.602-0.369-0.811-0.697s-0.314-0.703-0.314-1.125
		c0-0.703,0.211-1.245,0.633-1.626s1.02-0.571,1.793-0.571c0.336,0,0.639,0.039,0.908,0.117H175.388z M170.267,192.225
		c0,0.348,0.146,0.611,0.439,0.791s0.713,0.27,1.26,0.27c0.816,0,1.422-0.122,1.814-0.366s0.588-0.575,0.588-0.993
		c0-0.348-0.107-0.589-0.322-0.724s-0.619-0.202-1.213-0.202h-1.166c-0.441,0-0.785,0.105-1.031,0.316
		S170.267,191.831,170.267,192.225z M170.794,186.782c0,0.449,0.127,0.789,0.381,1.02s0.607,0.346,1.061,0.346
		c0.949,0,1.424-0.461,1.424-1.383c0-0.965-0.48-1.447-1.441-1.447c-0.457,0-0.809,0.123-1.055,0.369
		S170.794,186.297,170.794,186.782z"/>
</g>
<g>
	<path class="st0" d="M14.261,70.873h-1.207v-8.426H3.046v8.426H1.851V53.74h1.195v7.605h10.008V53.74h1.207V70.873z"/>
	<path class="st0" d="M30.555,64.486c0,2.078-0.504,3.701-1.512,4.869s-2.398,1.752-4.172,1.752c-1.117,0-2.102-0.27-2.953-0.809
		s-1.504-1.312-1.957-2.32s-0.68-2.172-0.68-3.492c0-2.078,0.504-3.697,1.512-4.857s2.391-1.74,4.148-1.74
		c1.75,0,3.123,0.588,4.119,1.764S30.555,62.439,30.555,64.486z M20.5,64.486c0,1.75,0.385,3.115,1.154,4.096
		s1.857,1.471,3.264,1.471s2.494-0.49,3.264-1.471s1.154-2.346,1.154-4.096c0-1.758-0.389-3.121-1.166-4.09
		s-1.869-1.453-3.275-1.453s-2.49,0.482-3.252,1.447S20.5,62.72,20.5,64.486z"/>
	<path class="st0" d="M38.646,70.076c0.734,0,1.375-0.062,1.922-0.188v0.938c-0.562,0.188-1.211,0.281-1.945,0.281
		c-1.125,0-1.955-0.301-2.49-0.902s-0.803-1.547-0.803-2.836v-8.227h-1.887v-0.68l1.887-0.527l0.586-2.883h0.598v3.082h3.738v1.008
		h-3.738v8.062c0,0.977,0.172,1.699,0.516,2.168S37.912,70.076,38.646,70.076z"/>
	<path class="st0" d="M59.561,54.572c-2.148,0-3.84,0.688-5.074,2.062s-1.852,3.258-1.852,5.648c0,2.445,0.582,4.344,1.746,5.695
		s2.828,2.027,4.992,2.027c1.438,0,2.758-0.184,3.961-0.551v1.055c-1.133,0.398-2.547,0.598-4.242,0.598
		c-2.406,0-4.301-0.777-5.684-2.332s-2.074-3.727-2.074-6.516c0-1.742,0.33-3.277,0.99-4.605s1.609-2.354,2.848-3.076
		s2.678-1.084,4.318-1.084c1.672,0,3.168,0.312,4.488,0.938l-0.48,1.078C62.248,54.884,60.936,54.572,59.561,54.572z"/>
	<path class="st0" d="M78.597,64.486c0,2.078-0.504,3.701-1.512,4.869s-2.398,1.752-4.172,1.752c-1.117,0-2.102-0.27-2.953-0.809
		s-1.504-1.312-1.957-2.32s-0.68-2.172-0.68-3.492c0-2.078,0.504-3.697,1.512-4.857s2.391-1.74,4.148-1.74
		c1.75,0,3.123,0.588,4.119,1.764S78.597,62.439,78.597,64.486z M68.542,64.486c0,1.75,0.385,3.115,1.154,4.096
		s1.857,1.471,3.264,1.471s2.494-0.49,3.264-1.471s1.154-2.346,1.154-4.096c0-1.758-0.389-3.121-1.166-4.09
		s-1.869-1.453-3.275-1.453s-2.49,0.482-3.252,1.447S68.542,62.72,68.542,64.486z"/>
	<path class="st0" d="M88.059,59.142h-3v11.73h-1.16v-11.73h-2.367v-0.68l2.367-0.434v-0.984c0-1.562,0.287-2.709,0.861-3.439
		s1.514-1.096,2.818-1.096c0.703,0,1.406,0.105,2.109,0.316l-0.27,1.008c-0.625-0.195-1.246-0.293-1.863-0.293
		c-0.906,0-1.549,0.268-1.928,0.803s-0.568,1.404-0.568,2.607v1.184h3V59.142z M95.254,59.142h-3v11.73h-1.16v-11.73h-2.367v-0.68
		l2.367-0.434v-0.984c0-1.562,0.287-2.709,0.861-3.439s1.514-1.096,2.818-1.096c0.703,0,1.406,0.105,2.109,0.316l-0.27,1.008
		c-0.625-0.195-1.246-0.293-1.863-0.293c-0.906,0-1.549,0.268-1.928,0.803s-0.568,1.404-0.568,2.607v1.184h3V59.142z"/>
	<path class="st0" d="M104.072,71.107c-1.852,0-3.295-0.57-4.33-1.711s-1.553-2.738-1.553-4.793c0-2.031,0.5-3.658,1.5-4.881
		s2.348-1.834,4.043-1.834c1.5,0,2.684,0.523,3.551,1.57s1.301,2.469,1.301,4.266v0.937h-9.176c0.016,1.75,0.424,3.086,1.225,4.008
		s1.947,1.383,3.439,1.383c0.727,0,1.365-0.051,1.916-0.152s1.248-0.32,2.092-0.656v1.055c-0.719,0.312-1.383,0.525-1.992,0.639
		S104.806,71.107,104.072,71.107z M103.732,58.92c-1.227,0-2.211,0.404-2.953,1.213s-1.176,1.975-1.301,3.498h7.875
		c0-1.477-0.32-2.631-0.961-3.463S104.865,58.92,103.732,58.92z"/>
	<path class="st0" d="M118.443,71.107c-1.852,0-3.295-0.57-4.33-1.711s-1.553-2.738-1.553-4.793c0-2.031,0.5-3.658,1.5-4.881
		s2.348-1.834,4.043-1.834c1.5,0,2.684,0.523,3.551,1.57s1.301,2.469,1.301,4.266v0.937h-9.176c0.016,1.75,0.424,3.086,1.225,4.008
		s1.947,1.383,3.439,1.383c0.727,0,1.365-0.051,1.916-0.152s1.248-0.32,2.092-0.656v1.055c-0.719,0.312-1.383,0.525-1.992,0.639
		S119.177,71.107,118.443,71.107z M118.103,58.92c-1.227,0-2.211,0.404-2.953,1.213s-1.176,1.975-1.301,3.498h7.875
		c0-1.477-0.32-2.631-0.961-3.463S119.236,58.92,118.103,58.92z"/>
	<path class="st0" d="M134.413,66.525c0-1.078,0.287-1.996,0.861-2.754c0.574-0.758,1.646-1.559,3.217-2.402l-0.879-0.961
		c-0.516-0.555-0.898-1.098-1.148-1.629s-0.375-1.086-0.375-1.664c0-1.117,0.373-2.004,1.119-2.66s1.748-0.984,3.006-0.984
		c1.211,0,2.17,0.316,2.877,0.949s1.061,1.508,1.061,2.625c0,0.82-0.273,1.572-0.82,2.256s-1.535,1.443-2.965,2.279l5.297,5.355
		c0.477-0.562,0.883-1.176,1.219-1.84s0.629-1.449,0.879-2.355h1.125c-0.492,1.922-1.309,3.586-2.449,4.992l3.117,3.141h-1.582
		l-2.262-2.309c-0.719,0.703-1.359,1.217-1.922,1.541s-1.178,0.572-1.846,0.744s-1.428,0.258-2.279,0.258
		c-1.633,0-2.916-0.402-3.85-1.207S134.413,67.97,134.413,66.525z M139.746,70.052c1,0,1.916-0.17,2.748-0.51
		s1.65-0.912,2.455-1.717l-5.66-5.684c-1.062,0.562-1.83,1.041-2.303,1.436s-0.816,0.822-1.031,1.283s-0.322,1-0.322,1.617
		c0,1.117,0.363,1.992,1.09,2.625S138.456,70.052,139.746,70.052z M137.343,57.091c0,0.617,0.156,1.188,0.469,1.711
		s0.906,1.203,1.781,2.039c1.242-0.664,2.105-1.285,2.59-1.863s0.727-1.238,0.727-1.98c0-0.734-0.242-1.33-0.727-1.787
		s-1.141-0.686-1.969-0.686c-0.891,0-1.592,0.227-2.104,0.68S137.343,56.287,137.343,57.091z"/>
	<path class="st0" d="M165.607,70.873H164.4V54.865h-5.566V53.74h12.34v1.125h-5.566V70.873z"/>
	<path class="st0" d="M179.767,71.107c-1.852,0-3.295-0.57-4.33-1.711s-1.553-2.738-1.553-4.793c0-2.031,0.5-3.658,1.5-4.881
		s2.348-1.834,4.043-1.834c1.5,0,2.684,0.523,3.551,1.57s1.301,2.469,1.301,4.266v0.937h-9.176c0.016,1.75,0.424,3.086,1.225,4.008
		s1.947,1.383,3.439,1.383c0.727,0,1.365-0.051,1.916-0.152s1.248-0.32,2.092-0.656v1.055c-0.719,0.312-1.383,0.525-1.992,0.639
		S180.501,71.107,179.767,71.107z M179.427,58.92c-1.227,0-2.211,0.404-2.953,1.213s-1.176,1.975-1.301,3.498h7.875
		c0-1.477-0.32-2.631-0.961-3.463S180.56,58.92,179.427,58.92z"/>
	<path class="st0" d="M196.729,70.873l-0.293-2.016h-0.094c-0.641,0.82-1.299,1.4-1.975,1.74s-1.475,0.51-2.396,0.51
		c-1.25,0-2.223-0.32-2.918-0.961s-1.043-1.527-1.043-2.66c0-1.242,0.518-2.207,1.553-2.895c1.035-0.687,2.533-1.051,4.494-1.09
		l2.426-0.07v-0.844c0-1.211-0.246-2.125-0.738-2.742s-1.285-0.926-2.379-0.926c-1.18,0-2.402,0.328-3.668,0.984l-0.434-1.008
		c1.398-0.656,2.781-0.984,4.148-0.984c1.398,0,2.443,0.363,3.135,1.09s1.037,1.859,1.037,3.398v8.473H196.729z M192.041,70.052
		c1.359,0,2.432-0.389,3.217-1.166s1.178-1.857,1.178-3.24v-1.254l-2.227,0.094c-1.789,0.086-3.064,0.365-3.826,0.838
		s-1.143,1.209-1.143,2.209c0,0.797,0.244,1.416,0.732,1.857S191.151,70.052,192.041,70.052z"/>
</g>
</svg>