<!-- Generator: Adobe Illustrator 21.0.0, SVG Export Plug-In  -->
<svg version="1.1"
	 xmlns="http://www.w3.org/2000/svg" xmlns:xlink="http://www.w3.org/1999/xlink" xmlns:a="http://ns.adobe.com/AdobeSVGViewerExtensions/3.0/"
	 x="0px" y="0px" width="505.987px" height="145.873px" viewBox="0 0 505.987 145.873"
	 style="enable-background:new 0 0 505.987 145.873;" xml:space="preserve">
<style type="text/css">
	.st0{fill:#B9C83E;}
	.st1{fill:#FFFFFF;}
	.st2{fill:#B3B3B3;}
</style>
<defs>
</defs>
<g>
	<g>
		<path class="st0" d="M29,32H16C7.163,32,0,24.837,0,16v0C0,7.163,7.163,0,16,0h13c8.837,0,16,7.163,16,16v0
			C45,24.837,37.837,32,29,32z"/>
	</g>
</g>
<g>
	<g>
		<path class="st1" d="M18.863,10.47c1.212,0,2.137,0.647,2.775,1.941c0.337,1.034,0.506,1.989,0.506,2.864v0.595
			c0,1.08-0.223,2.172-0.67,3.274c-0.674,1.039-1.527,1.559-2.557,1.559h-0.082c-1.121,0-2-0.59-2.639-1.771
			c-0.392-1.003-0.588-2.11-0.588-3.322v-0.075c0-1.285,0.232-2.454,0.697-3.507C16.994,10.989,17.847,10.47,18.863,10.47z
			 M16.949,15.46v0.28c0,1.153,0.205,2.114,0.615,2.885c0.369,0.456,0.786,0.684,1.251,0.684h0.075c1.043,0,1.657-0.836,1.839-2.509
			c0.05-0.278,0.084-0.69,0.103-1.237c0-0.976-0.167-1.902-0.499-2.782c-0.383-0.61-0.864-0.916-1.442-0.916
			c-0.707,0-1.228,0.395-1.565,1.183C17.074,13.881,16.949,14.686,16.949,15.46z"/>
	</g>
	<g>
		<path class="st1" d="M25.871,10.477c0.994,0,1.857,0.442,2.591,1.326c0.387,0.588,0.581,1.196,0.581,1.825
			c0,0.957-0.458,1.866-1.374,2.728l-2.563,2.933h3.397c0.369,0,0.592,0.224,0.67,0.67v0.062c-0.068,0.456-0.301,0.684-0.697,0.684
			h-5.031c-0.447-0.082-0.67-0.314-0.67-0.697v-0.027c0-0.224,0.18-0.504,0.54-0.841l3.992-4.553
			c0.196-0.273,0.294-0.593,0.294-0.957c0-0.779-0.41-1.326-1.23-1.641c-0.127-0.041-0.278-0.062-0.451-0.062h-0.075
			c-0.748,0-1.288,0.401-1.62,1.203c-0.041,0.164-0.071,0.383-0.089,0.656c-0.168,0.342-0.392,0.513-0.67,0.513h-0.068
			c-0.451-0.082-0.677-0.306-0.677-0.67c0-1.103,0.524-2.005,1.572-2.707C24.853,10.625,25.379,10.477,25.871,10.477z"/>
	</g>
</g>
<g>
	<path class="st2" d="M1.223,118.99v-8.566h0.996v8.566H1.223z"/>
	<path class="st2" d="M8.188,119.107c-0.93,0-1.648-0.286-2.158-0.858s-0.766-1.382-0.766-2.429c0-1.074,0.26-1.904,0.777-2.49
		s1.254-0.879,2.211-0.879c0.309,0,0.617,0.033,0.926,0.1s0.551,0.145,0.727,0.234l-0.299,0.826
		c-0.215-0.086-0.449-0.157-0.703-0.214s-0.479-0.085-0.674-0.085c-1.305,0-1.957,0.832-1.957,2.496c0,0.789,0.16,1.395,0.479,1.816
		s0.789,0.633,1.414,0.633c0.535,0,1.084-0.115,1.646-0.346v0.861C9.381,118.996,8.84,119.107,8.188,119.107z"/>
	<path class="st2" d="M15.249,119.107c-0.949,0-1.699-0.289-2.248-0.867s-0.822-1.381-0.822-2.408c0-1.035,0.254-1.857,0.764-2.467
		s1.195-0.914,2.055-0.914c0.805,0,1.441,0.265,1.91,0.794s0.703,1.228,0.703,2.095v0.615h-4.424c0.02,0.754,0.209,1.326,0.57,1.717
		s0.871,0.586,1.527,0.586c0.691,0,1.375-0.145,2.051-0.434v0.867c-0.344,0.148-0.67,0.255-0.977,0.319
		S15.682,119.107,15.249,119.107z M14.985,113.265c-0.516,0-0.928,0.168-1.234,0.504s-0.486,0.801-0.541,1.395h3.357
		c0-0.613-0.137-1.083-0.41-1.409S15.493,113.265,14.985,113.265z"/>
	<path class="st2" d="M24.838,118.129h-0.053c-0.449,0.652-1.121,0.979-2.016,0.979c-0.84,0-1.494-0.287-1.961-0.861
		s-0.699-1.391-0.699-2.449s0.234-1.881,0.703-2.467s1.121-0.879,1.957-0.879c0.871,0,1.539,0.316,2.004,0.949h0.076l-0.041-0.463
		l-0.023-0.451v-2.613h0.973v9.117h-0.791L24.838,118.129z M22.893,118.293c0.664,0,1.145-0.181,1.443-0.542
		s0.449-0.944,0.449-1.749v-0.205c0-0.91-0.152-1.56-0.455-1.948s-0.785-0.583-1.449-0.583c-0.57,0-1.008,0.222-1.311,0.665
		s-0.453,1.069-0.453,1.878c0,0.82,0.15,1.439,0.451,1.857S22.311,118.293,22.893,118.293z"/>
	<path class="st2" d="M37.153,111.191c-0.941,0-1.686,0.313-2.23,0.94s-0.816,1.485-0.816,2.575c0,1.121,0.262,1.987,0.787,2.599
		s1.275,0.917,2.248,0.917c0.598,0,1.279-0.107,2.045-0.322v0.873c-0.594,0.223-1.326,0.334-2.197,0.334
		c-1.262,0-2.236-0.383-2.922-1.148s-1.027-1.854-1.027-3.264c0-0.883,0.164-1.656,0.494-2.32s0.807-1.176,1.43-1.535
		s1.357-0.539,2.201-0.539c0.898,0,1.684,0.164,2.355,0.492l-0.422,0.855C38.45,111.343,37.801,111.191,37.153,111.191z"/>
	<path class="st2" d="M46.057,118.99l-0.193-0.914h-0.047c-0.32,0.402-0.639,0.675-0.957,0.817s-0.717,0.214-1.193,0.214
		c-0.637,0-1.135-0.164-1.496-0.492s-0.543-0.795-0.543-1.4c0-1.297,1.037-1.977,3.111-2.039l1.09-0.035v-0.398
		c0-0.504-0.107-0.876-0.324-1.116s-0.564-0.36-1.041-0.36c-0.535,0-1.141,0.164-1.816,0.492l-0.299-0.744
		c0.316-0.172,0.664-0.307,1.041-0.404s0.754-0.146,1.133-0.146c0.766,0,1.334,0.17,1.703,0.51s0.553,0.885,0.553,1.635v4.383
		H46.057z M43.86,118.304c0.605,0,1.082-0.166,1.428-0.498s0.518-0.797,0.518-1.395v-0.58l-0.973,0.041
		c-0.773,0.027-1.33,0.147-1.672,0.36s-0.514,0.544-0.514,0.993c0,0.352,0.107,0.619,0.32,0.803S43.477,118.304,43.86,118.304z"/>
	<path class="st2" d="M52.913,112.451c0.285,0,0.541,0.023,0.768,0.07l-0.135,0.902c-0.266-0.059-0.5-0.088-0.703-0.088
		c-0.52,0-0.965,0.211-1.334,0.633s-0.553,0.947-0.553,1.576v3.445h-0.973v-6.422h0.803l0.111,1.189h0.047
		c0.238-0.418,0.525-0.74,0.861-0.967S52.51,112.451,52.913,112.451z"/>
	<path class="st2" d="M60.03,118.99l-0.193-0.914H59.79c-0.32,0.402-0.641,0.675-0.959,0.817s-0.715,0.214-1.191,0.214
		c-0.637,0-1.137-0.164-1.498-0.492s-0.541-0.795-0.541-1.4c0-1.297,1.037-1.977,3.111-2.039l1.09-0.035v-0.398
		c0-0.504-0.109-0.876-0.326-1.116s-0.562-0.36-1.039-0.36c-0.535,0-1.141,0.164-1.816,0.492l-0.299-0.744
		c0.316-0.172,0.662-0.307,1.039-0.404s0.756-0.146,1.135-0.146c0.766,0,1.332,0.17,1.701,0.51s0.555,0.885,0.555,1.635v4.383H60.03
		z M57.833,118.304c0.605,0,1.08-0.166,1.426-0.498s0.52-0.797,0.52-1.395v-0.58l-0.973,0.041c-0.773,0.027-1.332,0.147-1.674,0.36
		s-0.512,0.544-0.512,0.993c0,0.352,0.105,0.619,0.318,0.803S57.45,118.304,57.833,118.304z"/>
	<path class="st2" d="M72.139,118.99v-4.178c0-0.512-0.109-0.896-0.328-1.151s-0.559-0.384-1.02-0.384
		c-0.605,0-1.053,0.174-1.342,0.521s-0.434,0.883-0.434,1.605v3.586h-0.973v-4.178c0-0.512-0.109-0.896-0.328-1.151
		s-0.561-0.384-1.025-0.384c-0.609,0-1.055,0.183-1.338,0.548s-0.426,0.964-0.426,1.796v3.369h-0.973v-6.422h0.791l0.158,0.879
		h0.047c0.184-0.312,0.443-0.557,0.777-0.732s0.707-0.264,1.121-0.264c1.004,0,1.66,0.363,1.969,1.09h0.047
		c0.191-0.336,0.469-0.602,0.832-0.797s0.777-0.293,1.242-0.293c0.727,0,1.271,0.187,1.633,0.56s0.541,0.97,0.541,1.79v4.189H72.139
		z"/>
	<path class="st2" d="M79.03,119.107c-0.949,0-1.699-0.289-2.248-0.867s-0.822-1.381-0.822-2.408c0-1.035,0.254-1.857,0.764-2.467
		s1.195-0.914,2.055-0.914c0.805,0,1.441,0.265,1.91,0.794s0.703,1.228,0.703,2.095v0.615h-4.424c0.02,0.754,0.209,1.326,0.57,1.717
		s0.871,0.586,1.527,0.586c0.691,0,1.375-0.145,2.051-0.434v0.867c-0.344,0.148-0.67,0.255-0.977,0.319
		S79.463,119.107,79.03,119.107z M78.766,113.265c-0.516,0-0.928,0.168-1.234,0.504s-0.486,0.801-0.541,1.395h3.357
		c0-0.613-0.137-1.083-0.41-1.409S79.274,113.265,78.766,113.265z"/>
	<path class="st2" d="M85.221,118.99h-0.973v-9.117h0.973V118.99z"/>
	<path class="st2" d="M96.739,118.99l-2.906-7.594h-0.047c0.055,0.602,0.082,1.316,0.082,2.145v5.449h-0.92v-8.566h1.5l2.713,7.066
		h0.047l2.736-7.066h1.488v8.566h-0.996v-5.52c0-0.633,0.027-1.32,0.082-2.062h-0.047l-2.93,7.582H96.739z"/>
	<path class="st2" d="M108.784,118.99l-0.193-0.914h-0.047c-0.32,0.402-0.639,0.675-0.957,0.817s-0.717,0.214-1.193,0.214
		c-0.637,0-1.135-0.164-1.496-0.492s-0.543-0.795-0.543-1.4c0-1.297,1.037-1.977,3.111-2.039l1.09-0.035v-0.398
		c0-0.504-0.107-0.876-0.324-1.116s-0.564-0.36-1.041-0.36c-0.535,0-1.141,0.164-1.816,0.492l-0.299-0.744
		c0.316-0.172,0.664-0.307,1.041-0.404s0.754-0.146,1.133-0.146c0.766,0,1.334,0.17,1.703,0.51s0.553,0.885,0.553,1.635v4.383
		H108.784z M106.586,118.304c0.605,0,1.082-0.166,1.428-0.498s0.518-0.797,0.518-1.395v-0.58l-0.973,0.041
		c-0.773,0.027-1.33,0.147-1.672,0.36s-0.514,0.544-0.514,0.993c0,0.352,0.107,0.619,0.32,0.803S106.204,118.304,106.586,118.304z"
		/>
	<path class="st2" d="M115.276,119.107c-0.93,0-1.65-0.286-2.16-0.858s-0.764-1.382-0.764-2.429c0-1.074,0.258-1.904,0.775-2.49
		s1.256-0.879,2.213-0.879c0.309,0,0.617,0.033,0.926,0.1s0.551,0.145,0.727,0.234l-0.299,0.826
		c-0.215-0.086-0.449-0.157-0.703-0.214s-0.479-0.085-0.674-0.085c-1.305,0-1.957,0.832-1.957,2.496
		c0,0.789,0.158,1.395,0.477,1.816s0.791,0.633,1.416,0.633c0.535,0,1.084-0.115,1.646-0.346v0.861
		C116.469,118.996,115.928,119.107,115.276,119.107z"/>
	<path class="st2" d="M122.188,119.107c-0.93,0-1.648-0.286-2.158-0.858s-0.766-1.382-0.766-2.429c0-1.074,0.26-1.904,0.777-2.49
		s1.254-0.879,2.211-0.879c0.309,0,0.617,0.033,0.926,0.1s0.551,0.145,0.727,0.234l-0.299,0.826
		c-0.215-0.086-0.449-0.157-0.703-0.214s-0.479-0.085-0.674-0.085c-1.305,0-1.957,0.832-1.957,2.496c0,0.789,0.16,1.395,0.479,1.816
		s0.789,0.633,1.414,0.633c0.535,0,1.084-0.115,1.646-0.346v0.861C123.381,118.996,122.84,119.107,122.188,119.107z"/>
	<path class="st2" d="M130.93,118.99v-4.154c0-0.523-0.119-0.914-0.357-1.172s-0.611-0.387-1.119-0.387
		c-0.676,0-1.17,0.184-1.48,0.551c-0.311,0.367-0.465,0.969-0.465,1.805v3.357h-0.973v-9.117h0.973v2.76
		c0,0.332-0.016,0.607-0.047,0.826h0.059c0.191-0.309,0.463-0.552,0.816-0.729c0.354-0.178,0.758-0.267,1.211-0.267
		c0.785,0,1.373,0.187,1.766,0.56s0.59,0.966,0.59,1.778v4.189H130.93z"/>
	<path class="st2" d="M135.018,110.828c0-0.223,0.055-0.386,0.164-0.489s0.246-0.155,0.41-0.155c0.156,0,0.291,0.053,0.404,0.158
		s0.17,0.268,0.17,0.486s-0.057,0.382-0.17,0.489s-0.248,0.161-0.404,0.161c-0.164,0-0.301-0.054-0.41-0.161
		S135.018,111.046,135.018,110.828z M136.073,118.99H135.1v-6.422h0.973V118.99z"/>
	<path class="st2" d="M143.284,118.99l-0.193-0.914h-0.047c-0.32,0.402-0.639,0.675-0.957,0.817s-0.717,0.214-1.193,0.214
		c-0.637,0-1.135-0.164-1.496-0.492s-0.543-0.795-0.543-1.4c0-1.297,1.037-1.977,3.111-2.039l1.09-0.035v-0.398
		c0-0.504-0.107-0.876-0.324-1.116s-0.564-0.36-1.041-0.36c-0.535,0-1.141,0.164-1.816,0.492l-0.299-0.744
		c0.316-0.172,0.664-0.307,1.041-0.404s0.754-0.146,1.133-0.146c0.766,0,1.334,0.17,1.703,0.51s0.553,0.885,0.553,1.635v4.383
		H143.284z M141.087,118.304c0.605,0,1.082-0.166,1.428-0.498s0.518-0.797,0.518-1.395v-0.58l-0.973,0.041
		c-0.773,0.027-1.33,0.147-1.672,0.36s-0.514,0.544-0.514,0.993c0,0.352,0.107,0.619,0.32,0.803S140.704,118.304,141.087,118.304z"
		/>
	<path class="st2" d="M149.284,118.304c0.172,0,0.338-0.013,0.498-0.038s0.287-0.052,0.381-0.079v0.744
		c-0.105,0.051-0.262,0.093-0.467,0.126s-0.389,0.05-0.553,0.05c-1.242,0-1.863-0.654-1.863-1.963v-3.82h-0.92v-0.469l0.92-0.404
		l0.41-1.371h0.562v1.488h1.863v0.756h-1.863v3.779c0,0.387,0.092,0.684,0.275,0.891S148.963,118.304,149.284,118.304z"/>
	<path class="st2" d="M158.188,115.773c0,1.047-0.264,1.864-0.791,2.452s-1.256,0.882-2.186,0.882c-0.574,0-1.084-0.135-1.529-0.404
		s-0.789-0.656-1.031-1.16s-0.363-1.094-0.363-1.77c0-1.047,0.262-1.862,0.785-2.446s1.25-0.876,2.18-0.876
		c0.898,0,1.613,0.299,2.143,0.896S158.188,114.754,158.188,115.773z M153.295,115.773c0,0.82,0.164,1.445,0.492,1.875
		s0.811,0.645,1.447,0.645s1.121-0.214,1.451-0.642s0.494-1.054,0.494-1.878c0-0.816-0.164-1.437-0.494-1.86
		s-0.818-0.636-1.463-0.636c-0.637,0-1.117,0.209-1.441,0.627S153.295,114.945,153.295,115.773z"/>
	<path class="st2" d="M162.114,117.595l0.088,0.135c-0.102,0.391-0.248,0.845-0.439,1.362s-0.391,0.999-0.598,1.444h-0.732
		c0.105-0.406,0.221-0.908,0.348-1.506s0.217-1.076,0.268-1.436H162.114z"/>
	<path class="st2" d="M169.698,118.99v-8.566h0.996v8.566H169.698z"/>
	<path class="st2" d="M176.665,119.107c-0.93,0-1.65-0.286-2.16-0.858s-0.764-1.382-0.764-2.429c0-1.074,0.258-1.904,0.775-2.49
		s1.256-0.879,2.213-0.879c0.309,0,0.617,0.033,0.926,0.1s0.551,0.145,0.727,0.234l-0.299,0.826
		c-0.215-0.086-0.449-0.157-0.703-0.214s-0.479-0.085-0.674-0.085c-1.305,0-1.957,0.832-1.957,2.496
		c0,0.789,0.158,1.395,0.477,1.816s0.791,0.633,1.416,0.633c0.535,0,1.084-0.115,1.646-0.346v0.861
		C177.858,118.996,177.317,119.107,176.665,119.107z"/>
	<path class="st2" d="M183.723,119.107c-0.949,0-1.697-0.289-2.246-0.867s-0.824-1.381-0.824-2.408c0-1.035,0.256-1.857,0.766-2.467
		s1.193-0.914,2.053-0.914c0.805,0,1.441,0.265,1.91,0.794s0.703,1.228,0.703,2.095v0.615h-4.424
		c0.02,0.754,0.211,1.326,0.572,1.717s0.869,0.586,1.525,0.586c0.691,0,1.375-0.145,2.051-0.434v0.867
		c-0.344,0.148-0.668,0.255-0.975,0.319S184.157,119.107,183.723,119.107z M183.46,113.265c-0.516,0-0.926,0.168-1.232,0.504
		s-0.488,0.801-0.543,1.395h3.357c0-0.613-0.137-1.083-0.41-1.409S183.967,113.265,183.46,113.265z"/>
	<path class="st2" d="M193.315,118.129h-0.053c-0.449,0.652-1.121,0.979-2.016,0.979c-0.84,0-1.494-0.287-1.961-0.861
		s-0.699-1.391-0.699-2.449s0.234-1.881,0.703-2.467s1.121-0.879,1.957-0.879c0.871,0,1.539,0.316,2.004,0.949h0.076l-0.041-0.463
		l-0.023-0.451v-2.613h0.973v9.117h-0.791L193.315,118.129z M191.37,118.293c0.664,0,1.145-0.181,1.443-0.542
		s0.449-0.944,0.449-1.749v-0.205c0-0.91-0.152-1.56-0.455-1.948s-0.785-0.583-1.449-0.583c-0.57,0-1.008,0.222-1.311,0.665
		s-0.453,1.069-0.453,1.878c0,0.82,0.15,1.439,0.451,1.857S190.788,118.293,191.37,118.293z"/>
	<path class="st2" d="M205.628,111.191c-0.941,0-1.684,0.313-2.229,0.94s-0.818,1.485-0.818,2.575c0,1.121,0.264,1.987,0.789,2.599
		s1.273,0.917,2.246,0.917c0.598,0,1.279-0.107,2.045-0.322v0.873c-0.594,0.223-1.326,0.334-2.197,0.334
		c-1.262,0-2.234-0.383-2.92-1.148s-1.029-1.854-1.029-3.264c0-0.883,0.166-1.656,0.496-2.32s0.807-1.176,1.43-1.535
		s1.355-0.539,2.199-0.539c0.898,0,1.684,0.164,2.355,0.492l-0.422,0.855C206.924,111.343,206.276,111.191,205.628,111.191z"/>
	<path class="st2" d="M214.534,118.99l-0.193-0.914h-0.047c-0.32,0.402-0.641,0.675-0.959,0.817s-0.715,0.214-1.191,0.214
		c-0.637,0-1.137-0.164-1.498-0.492s-0.541-0.795-0.541-1.4c0-1.297,1.037-1.977,3.111-2.039l1.09-0.035v-0.398
		c0-0.504-0.109-0.876-0.326-1.116s-0.562-0.36-1.039-0.36c-0.535,0-1.141,0.164-1.816,0.492l-0.299-0.744
		c0.316-0.172,0.662-0.307,1.039-0.404s0.756-0.146,1.135-0.146c0.766,0,1.332,0.17,1.701,0.51s0.555,0.885,0.555,1.635v4.383
		H214.534z M212.337,118.304c0.605,0,1.08-0.166,1.426-0.498s0.52-0.797,0.52-1.395v-0.58l-0.973,0.041
		c-0.773,0.027-1.332,0.147-1.674,0.36s-0.512,0.544-0.512,0.993c0,0.352,0.105,0.619,0.318,0.803S211.954,118.304,212.337,118.304z
		"/>
	<path class="st2" d="M221.352,113.324h-1.635v5.666h-0.973v-5.666h-1.148v-0.439l1.148-0.352v-0.357
		c0-1.578,0.689-2.367,2.068-2.367c0.34,0,0.738,0.068,1.195,0.205l-0.252,0.779c-0.375-0.121-0.695-0.182-0.961-0.182
		c-0.367,0-0.639,0.122-0.814,0.366s-0.264,0.636-0.264,1.175v0.416h1.635V113.324z"/>
	<path class="st2" d="M226.438,119.107c-0.949,0-1.699-0.289-2.248-0.867s-0.822-1.381-0.822-2.408c0-1.035,0.254-1.857,0.764-2.467
		s1.195-0.914,2.055-0.914c0.805,0,1.441,0.265,1.91,0.794s0.703,1.228,0.703,2.095v0.615h-4.424c0.02,0.754,0.209,1.326,0.57,1.717
		s0.871,0.586,1.527,0.586c0.691,0,1.375-0.145,2.051-0.434v0.867c-0.344,0.148-0.67,0.255-0.977,0.319
		S226.872,119.107,226.438,119.107z M226.174,113.265c-0.516,0-0.928,0.168-1.234,0.504s-0.486,0.801-0.541,1.395h3.357
		c0-0.613-0.137-1.083-0.41-1.409S226.682,113.265,226.174,113.265z"/>
	<path class="st2" d="M232.676,117.595l0.088,0.135c-0.102,0.391-0.248,0.845-0.439,1.362s-0.391,0.999-0.598,1.444h-0.732
		c0.105-0.406,0.221-0.908,0.348-1.506s0.217-1.076,0.268-1.436H232.676z"/>
	<path class="st2" d="M244.053,118.99l-2.906-7.594H241.1c0.055,0.602,0.082,1.316,0.082,2.145v5.449h-0.92v-8.566h1.5l2.713,7.066
		h0.047l2.736-7.066h1.488v8.566h-0.996v-5.52c0-0.633,0.027-1.32,0.082-2.062h-0.047l-2.93,7.582H244.053z"/>
	<path class="st2" d="M257.692,115.773c0,1.047-0.264,1.864-0.791,2.452s-1.256,0.882-2.186,0.882c-0.574,0-1.084-0.135-1.529-0.404
		s-0.789-0.656-1.031-1.16s-0.363-1.094-0.363-1.77c0-1.047,0.262-1.862,0.785-2.446s1.25-0.876,2.18-0.876
		c0.898,0,1.613,0.299,2.143,0.896S257.692,114.754,257.692,115.773z M252.799,115.773c0,0.82,0.164,1.445,0.492,1.875
		s0.811,0.645,1.447,0.645s1.121-0.214,1.451-0.642c0.33-0.428,0.494-1.054,0.494-1.878c0-0.816-0.164-1.437-0.494-1.86
		c-0.33-0.424-0.818-0.636-1.463-0.636c-0.637,0-1.117,0.209-1.441,0.627S252.799,114.945,252.799,115.773z"/>
	<path class="st2" d="M263.165,119.107c-0.93,0-1.65-0.286-2.16-0.858s-0.764-1.382-0.764-2.429c0-1.074,0.258-1.904,0.775-2.49
		s1.256-0.879,2.213-0.879c0.309,0,0.617,0.033,0.926,0.1s0.551,0.145,0.727,0.234l-0.299,0.826
		c-0.215-0.086-0.449-0.157-0.703-0.214s-0.479-0.085-0.674-0.085c-1.305,0-1.957,0.832-1.957,2.496
		c0,0.789,0.158,1.395,0.477,1.816s0.791,0.633,1.416,0.633c0.535,0,1.084-0.115,1.646-0.346v0.861
		C264.358,118.996,263.817,119.107,263.165,119.107z"/>
	<path class="st2" d="M271.905,118.99v-4.154c0-0.523-0.119-0.914-0.357-1.172s-0.611-0.387-1.119-0.387
		c-0.676,0-1.17,0.184-1.48,0.551s-0.465,0.969-0.465,1.805v3.357h-0.973v-9.117h0.973v2.76c0,0.332-0.016,0.607-0.047,0.826h0.059
		c0.191-0.309,0.463-0.552,0.816-0.729s0.758-0.267,1.211-0.267c0.785,0,1.373,0.187,1.766,0.56s0.59,0.966,0.59,1.778v4.189
		H271.905z"/>
	<path class="st2" d="M280.024,118.99l-0.193-0.914h-0.047c-0.32,0.402-0.639,0.675-0.957,0.817s-0.717,0.214-1.193,0.214
		c-0.637,0-1.135-0.164-1.496-0.492s-0.543-0.795-0.543-1.4c0-1.297,1.037-1.977,3.111-2.039l1.09-0.035v-0.398
		c0-0.504-0.107-0.876-0.324-1.116s-0.564-0.36-1.041-0.36c-0.535,0-1.141,0.164-1.816,0.492l-0.299-0.744
		c0.316-0.172,0.664-0.307,1.041-0.404s0.754-0.146,1.133-0.146c0.766,0,1.334,0.17,1.703,0.51s0.553,0.885,0.553,1.635v4.383
		H280.024z M277.827,118.304c0.605,0,1.082-0.166,1.428-0.498s0.518-0.797,0.518-1.395v-0.58l-0.973,0.041
		c-0.773,0.027-1.33,0.147-1.672,0.36s-0.514,0.544-0.514,0.993c0,0.352,0.107,0.619,0.32,0.803S277.444,118.304,277.827,118.304z"
		/>
	<path class="st2" d="M284.969,117.595l0.088,0.135c-0.102,0.391-0.248,0.845-0.439,1.362s-0.391,0.999-0.598,1.444h-0.732
		c0.105-0.406,0.221-0.908,0.348-1.506s0.217-1.076,0.268-1.436H284.969z"/>
	<path class="st2" d="M292.555,118.99v-8.566h0.996v8.566H292.555z"/>
	<path class="st2" d="M299.52,119.107c-0.93,0-1.65-0.286-2.16-0.858s-0.764-1.382-0.764-2.429c0-1.074,0.258-1.904,0.775-2.49
		s1.256-0.879,2.213-0.879c0.309,0,0.617,0.033,0.926,0.1s0.551,0.145,0.727,0.234l-0.299,0.826
		c-0.215-0.086-0.449-0.157-0.703-0.214s-0.479-0.085-0.674-0.085c-1.305,0-1.957,0.832-1.957,2.496
		c0,0.789,0.158,1.395,0.477,1.816s0.791,0.633,1.416,0.633c0.535,0,1.084-0.115,1.646-0.346v0.861
		C300.713,118.996,300.172,119.107,299.52,119.107z"/>
	<path class="st2" d="M306.579,119.107c-0.949,0-1.697-0.289-2.246-0.867s-0.824-1.381-0.824-2.408c0-1.035,0.256-1.857,0.766-2.467
		s1.193-0.914,2.053-0.914c0.805,0,1.441,0.265,1.91,0.794s0.703,1.228,0.703,2.095v0.615h-4.424
		c0.02,0.754,0.211,1.326,0.572,1.717s0.869,0.586,1.525,0.586c0.691,0,1.375-0.145,2.051-0.434v0.867
		c-0.344,0.148-0.668,0.255-0.975,0.319S307.012,119.107,306.579,119.107z M306.315,113.265c-0.516,0-0.926,0.168-1.232,0.504
		s-0.488,0.801-0.543,1.395h3.357c0-0.613-0.137-1.083-0.41-1.409S306.823,113.265,306.315,113.265z"/>
	<path class="st2" d="M316.17,118.129h-0.053c-0.449,0.652-1.121,0.979-2.016,0.979c-0.84,0-1.494-0.287-1.961-0.861
		s-0.699-1.391-0.699-2.449s0.234-1.881,0.703-2.467s1.121-0.879,1.957-0.879c0.871,0,1.539,0.316,2.004,0.949h0.076l-0.041-0.463
		l-0.023-0.451v-2.613h0.973v9.117h-0.791L316.17,118.129z M314.225,118.293c0.664,0,1.145-0.181,1.443-0.542
		s0.449-0.944,0.449-1.749v-0.205c0-0.91-0.152-1.56-0.455-1.948s-0.785-0.583-1.449-0.583c-0.57,0-1.008,0.222-1.311,0.665
		s-0.453,1.069-0.453,1.878c0,0.82,0.15,1.439,0.451,1.857S313.643,118.293,314.225,118.293z"/>
	<path class="st2" d="M328.485,111.191c-0.941,0-1.686,0.313-2.23,0.94s-0.816,1.485-0.816,2.575c0,1.121,0.262,1.987,0.787,2.599
		s1.275,0.917,2.248,0.917c0.598,0,1.279-0.107,2.045-0.322v0.873c-0.594,0.223-1.326,0.334-2.197,0.334
		c-1.262,0-2.236-0.383-2.922-1.148s-1.027-1.854-1.027-3.264c0-0.883,0.164-1.656,0.494-2.32s0.807-1.176,1.43-1.535
		s1.357-0.539,2.201-0.539c0.898,0,1.684,0.164,2.355,0.492l-0.422,0.855C329.782,111.343,329.133,111.191,328.485,111.191z"/>
	<path class="st2" d="M337.389,118.99l-0.193-0.914h-0.047c-0.32,0.402-0.641,0.675-0.959,0.817s-0.715,0.214-1.191,0.214
		c-0.637,0-1.137-0.164-1.498-0.492s-0.541-0.795-0.541-1.4c0-1.297,1.037-1.977,3.111-2.039l1.09-0.035v-0.398
		c0-0.504-0.109-0.876-0.326-1.116s-0.562-0.36-1.039-0.36c-0.535,0-1.141,0.164-1.816,0.492l-0.299-0.744
		c0.316-0.172,0.662-0.307,1.039-0.404s0.756-0.146,1.135-0.146c0.766,0,1.332,0.17,1.701,0.51s0.555,0.885,0.555,1.635v4.383
		H337.389z M335.192,118.304c0.605,0,1.08-0.166,1.426-0.498s0.52-0.797,0.52-1.395v-0.58l-0.973,0.041
		c-0.773,0.027-1.332,0.147-1.674,0.36s-0.512,0.544-0.512,0.993c0,0.352,0.105,0.619,0.318,0.803S334.809,118.304,335.192,118.304z
		"/>
	<path class="st2" d="M344.208,113.324h-1.635v5.666H341.6v-5.666h-1.148v-0.439l1.148-0.352v-0.357
		c0-1.578,0.689-2.367,2.068-2.367c0.34,0,0.738,0.068,1.195,0.205l-0.252,0.779c-0.375-0.121-0.695-0.182-0.961-0.182
		c-0.367,0-0.639,0.122-0.814,0.366s-0.264,0.636-0.264,1.175v0.416h1.635V113.324z"/>
	<path class="st2" d="M349.294,119.107c-0.949,0-1.699-0.289-2.248-0.867s-0.822-1.381-0.822-2.408c0-1.035,0.254-1.857,0.764-2.467
		s1.195-0.914,2.055-0.914c0.805,0,1.441,0.265,1.91,0.794s0.703,1.228,0.703,2.095v0.615h-4.424c0.02,0.754,0.209,1.326,0.57,1.717
		s0.871,0.586,1.527,0.586c0.691,0,1.375-0.145,2.051-0.434v0.867c-0.344,0.148-0.67,0.255-0.977,0.319
		S349.727,119.107,349.294,119.107z M349.03,113.265c-0.516,0-0.928,0.168-1.234,0.504s-0.486,0.801-0.541,1.395h3.357
		c0-0.613-0.137-1.083-0.41-1.409S349.538,113.265,349.03,113.265z"/>
	<path class="st2" d="M358.977,118.99v-8.566h0.996v7.664h3.779v0.902H358.977z"/>
	<path class="st2" d="M370.208,118.99l-0.193-0.914h-0.047c-0.32,0.402-0.641,0.675-0.959,0.817s-0.715,0.214-1.191,0.214
		c-0.637,0-1.137-0.164-1.498-0.492s-0.541-0.795-0.541-1.4c0-1.297,1.037-1.977,3.111-2.039l1.09-0.035v-0.398
		c0-0.504-0.109-0.876-0.326-1.116s-0.562-0.36-1.039-0.36c-0.535,0-1.141,0.164-1.816,0.492l-0.299-0.744
		c0.316-0.172,0.662-0.307,1.039-0.404s0.756-0.146,1.135-0.146c0.766,0,1.332,0.17,1.701,0.51s0.555,0.885,0.555,1.635v4.383
		H370.208z M368.01,118.304c0.605,0,1.08-0.166,1.426-0.498s0.52-0.797,0.52-1.395v-0.58l-0.973,0.041
		c-0.773,0.027-1.332,0.147-1.674,0.36s-0.512,0.544-0.512,0.993c0,0.352,0.105,0.619,0.318,0.803S367.628,118.304,368.01,118.304z"
		/>
	<path class="st2" d="M376.206,118.304c0.172,0,0.338-0.013,0.498-0.038s0.287-0.052,0.381-0.079v0.744
		c-0.105,0.051-0.26,0.093-0.465,0.126s-0.391,0.05-0.555,0.05c-1.242,0-1.863-0.654-1.863-1.963v-3.82h-0.92v-0.469l0.92-0.404
		l0.41-1.371h0.562v1.488h1.863v0.756h-1.863v3.779c0,0.387,0.092,0.684,0.275,0.891S375.885,118.304,376.206,118.304z"/>
	<path class="st2" d="M381.643,118.304c0.172,0,0.338-0.013,0.498-0.038s0.287-0.052,0.381-0.079v0.744
		c-0.105,0.051-0.262,0.093-0.467,0.126s-0.389,0.05-0.553,0.05c-1.242,0-1.863-0.654-1.863-1.963v-3.82h-0.92v-0.469l0.92-0.404
		l0.41-1.371h0.562v1.488h1.863v0.756h-1.863v3.779c0,0.387,0.092,0.684,0.275,0.891S381.323,118.304,381.643,118.304z"/>
	<path class="st2" d="M387.717,119.107c-0.949,0-1.697-0.289-2.246-0.867s-0.824-1.381-0.824-2.408c0-1.035,0.256-1.857,0.766-2.467
		s1.193-0.914,2.053-0.914c0.805,0,1.441,0.265,1.91,0.794s0.703,1.228,0.703,2.095v0.615h-4.424
		c0.02,0.754,0.211,1.326,0.572,1.717s0.869,0.586,1.525,0.586c0.691,0,1.375-0.145,2.051-0.434v0.867
		c-0.344,0.148-0.668,0.255-0.975,0.319S388.151,119.107,387.717,119.107z M387.454,113.265c-0.516,0-0.926,0.168-1.232,0.504
		s-0.488,0.801-0.543,1.395h3.357c0-0.613-0.137-1.083-0.41-1.409S387.961,113.265,387.454,113.265z"/>
	<path class="st2" d="M393.958,117.595l0.088,0.135c-0.102,0.391-0.248,0.845-0.439,1.362s-0.391,0.999-0.598,1.444h-0.732
		c0.105-0.406,0.221-0.908,0.348-1.506s0.217-1.076,0.268-1.436H393.958z"/>
	<path class="st2" d="M401.542,118.99v-8.566h0.996v8.566H401.542z"/>
	<path class="st2" d="M408.508,119.107c-0.93,0-1.65-0.286-2.16-0.858s-0.764-1.382-0.764-2.429c0-1.074,0.258-1.904,0.775-2.49
		s1.256-0.879,2.213-0.879c0.309,0,0.617,0.033,0.926,0.1s0.551,0.145,0.727,0.234l-0.299,0.826
		c-0.215-0.086-0.449-0.157-0.703-0.214s-0.479-0.085-0.674-0.085c-1.305,0-1.957,0.832-1.957,2.496
		c0,0.789,0.158,1.395,0.477,1.816s0.791,0.633,1.416,0.633c0.535,0,1.084-0.115,1.646-0.346v0.861
		C409.702,118.996,409.161,119.107,408.508,119.107z"/>
	<path class="st2" d="M415.567,119.107c-0.949,0-1.697-0.289-2.246-0.867s-0.824-1.381-0.824-2.408c0-1.035,0.256-1.857,0.766-2.467
		s1.193-0.914,2.053-0.914c0.805,0,1.441,0.265,1.91,0.794s0.703,1.228,0.703,2.095v0.615h-4.424
		c0.02,0.754,0.211,1.326,0.572,1.717s0.869,0.586,1.525,0.586c0.691,0,1.375-0.145,2.051-0.434v0.867
		c-0.344,0.148-0.668,0.255-0.975,0.319S416.001,119.107,415.567,119.107z M415.303,113.265c-0.516,0-0.926,0.168-1.232,0.504
		s-0.488,0.801-0.543,1.395h3.357c0-0.613-0.137-1.083-0.41-1.409S415.811,113.265,415.303,113.265z"/>
	<path class="st2" d="M425.159,118.129h-0.053c-0.449,0.652-1.121,0.979-2.016,0.979c-0.84,0-1.494-0.287-1.961-0.861
		s-0.699-1.391-0.699-2.449s0.234-1.881,0.703-2.467s1.121-0.879,1.957-0.879c0.871,0,1.539,0.316,2.004,0.949h0.076l-0.041-0.463
		l-0.023-0.451v-2.613h0.973v9.117h-0.791L425.159,118.129z M423.213,118.293c0.664,0,1.145-0.181,1.443-0.542
		s0.449-0.944,0.449-1.749v-0.205c0-0.91-0.152-1.56-0.455-1.948s-0.785-0.583-1.449-0.583c-0.57,0-1.008,0.222-1.311,0.665
		s-0.453,1.069-0.453,1.878c0,0.82,0.15,1.439,0.451,1.857S422.631,118.293,423.213,118.293z"/>
	<path class="st2" d="M439.188,118.99l-1.066-2.725h-3.434l-1.055,2.725h-1.008l3.387-8.602h0.838l3.369,8.602H439.188z
		 M437.811,115.369l-0.996-2.654c-0.129-0.336-0.262-0.748-0.398-1.236c-0.086,0.375-0.209,0.787-0.369,1.236l-1.008,2.654H437.811z
		"/>
	<path class="st2" d="M450.637,118.99v-4.178c0-0.512-0.109-0.896-0.328-1.151s-0.559-0.384-1.02-0.384
		c-0.605,0-1.053,0.174-1.342,0.521s-0.434,0.883-0.434,1.605v3.586h-0.973v-4.178c0-0.512-0.109-0.896-0.328-1.151
		s-0.561-0.384-1.025-0.384c-0.609,0-1.057,0.183-1.34,0.548s-0.424,0.964-0.424,1.796v3.369h-0.973v-6.422h0.791l0.158,0.879h0.047
		c0.184-0.312,0.441-0.557,0.775-0.732s0.709-0.264,1.123-0.264c1.004,0,1.66,0.363,1.969,1.09h0.047
		c0.191-0.336,0.469-0.602,0.832-0.797s0.777-0.293,1.242-0.293c0.727,0,1.27,0.187,1.631,0.56s0.543,0.97,0.543,1.79v4.189H450.637
		z"/>
	<path class="st2" d="M457.526,119.107c-0.949,0-1.697-0.289-2.246-0.867s-0.824-1.381-0.824-2.408c0-1.035,0.256-1.857,0.766-2.467
		s1.193-0.914,2.053-0.914c0.805,0,1.441,0.265,1.91,0.794s0.703,1.228,0.703,2.095v0.615h-4.424
		c0.02,0.754,0.211,1.326,0.572,1.717s0.869,0.586,1.525,0.586c0.691,0,1.375-0.145,2.051-0.434v0.867
		c-0.344,0.148-0.668,0.255-0.975,0.319S457.96,119.107,457.526,119.107z M457.262,113.265c-0.516,0-0.926,0.168-1.232,0.504
		s-0.488,0.801-0.543,1.395h3.357c0-0.613-0.137-1.083-0.41-1.409S457.77,113.265,457.262,113.265z"/>
	<path class="st2" d="M465.676,112.451c0.285,0,0.541,0.023,0.768,0.07l-0.135,0.902c-0.266-0.059-0.5-0.088-0.703-0.088
		c-0.52,0-0.965,0.211-1.334,0.633s-0.553,0.947-0.553,1.576v3.445h-0.973v-6.422h0.803l0.111,1.189h0.047
		c0.238-0.418,0.525-0.74,0.861-0.967S465.274,112.451,465.676,112.451z"/>
	<path class="st2" d="M468.762,110.828c0-0.223,0.055-0.386,0.164-0.489s0.246-0.155,0.41-0.155c0.156,0,0.291,0.053,0.404,0.158
		s0.17,0.268,0.17,0.486s-0.057,0.382-0.17,0.489s-0.248,0.161-0.404,0.161c-0.164,0-0.301-0.054-0.41-0.161
		S468.762,111.046,468.762,110.828z M469.817,118.99h-0.973v-6.422h0.973V118.99z"/>
	<path class="st2" d="M475.645,119.107c-0.93,0-1.648-0.286-2.158-0.858s-0.766-1.382-0.766-2.429c0-1.074,0.26-1.904,0.777-2.49
		s1.254-0.879,2.211-0.879c0.309,0,0.617,0.033,0.926,0.1s0.551,0.145,0.727,0.234l-0.299,0.826
		c-0.215-0.086-0.449-0.157-0.703-0.214s-0.479-0.085-0.674-0.085c-1.305,0-1.957,0.832-1.957,2.496c0,0.789,0.16,1.395,0.479,1.816
		s0.789,0.633,1.414,0.633c0.535,0,1.084-0.115,1.646-0.346v0.861C476.838,118.996,476.297,119.107,475.645,119.107z"/>
	<path class="st2" d="M483.942,118.99l-0.193-0.914h-0.047c-0.32,0.402-0.641,0.675-0.959,0.817s-0.715,0.214-1.191,0.214
		c-0.637,0-1.137-0.164-1.498-0.492s-0.541-0.795-0.541-1.4c0-1.297,1.037-1.977,3.111-2.039l1.09-0.035v-0.398
		c0-0.504-0.109-0.876-0.326-1.116s-0.562-0.36-1.039-0.36c-0.535,0-1.141,0.164-1.816,0.492l-0.299-0.744
		c0.316-0.172,0.662-0.307,1.039-0.404s0.756-0.146,1.135-0.146c0.766,0,1.332,0.17,1.701,0.51s0.555,0.885,0.555,1.635v4.383
		H483.942z M481.745,118.304c0.605,0,1.08-0.166,1.426-0.498s0.52-0.797,0.52-1.395v-0.58l-0.973,0.041
		c-0.773,0.027-1.332,0.147-1.674,0.36s-0.512,0.544-0.512,0.993c0,0.352,0.105,0.619,0.318,0.803S481.362,118.304,481.745,118.304z
		"/>
	<path class="st2" d="M492.26,118.99v-4.154c0-0.523-0.119-0.914-0.357-1.172s-0.611-0.387-1.119-0.387
		c-0.672,0-1.164,0.182-1.477,0.545s-0.469,0.963-0.469,1.799v3.369h-0.973v-6.422h0.791l0.158,0.879h0.047
		c0.199-0.316,0.479-0.562,0.838-0.735s0.76-0.261,1.201-0.261c0.773,0,1.355,0.187,1.746,0.56s0.586,0.97,0.586,1.79v4.189H492.26z
		"/>
	<path class="st2" d="M501.975,115.773c0,1.047-0.264,1.864-0.791,2.452s-1.256,0.882-2.186,0.882c-0.574,0-1.084-0.135-1.529-0.404
		s-0.789-0.656-1.031-1.16s-0.363-1.094-0.363-1.77c0-1.047,0.262-1.862,0.785-2.446s1.25-0.876,2.18-0.876
		c0.898,0,1.611,0.299,2.141,0.896S501.975,114.754,501.975,115.773z M497.083,115.773c0,0.82,0.164,1.445,0.492,1.875
		s0.811,0.645,1.447,0.645s1.119-0.214,1.449-0.642s0.496-1.054,0.496-1.878c0-0.816-0.166-1.437-0.496-1.86
		s-0.816-0.636-1.461-0.636c-0.637,0-1.117,0.209-1.441,0.627S497.083,114.945,497.083,115.773z"/>
	<path class="st2" d="M505.899,117.595l0.088,0.135c-0.102,0.391-0.248,0.845-0.439,1.362s-0.391,0.999-0.598,1.444h-0.732
		c0.105-0.406,0.221-0.908,0.348-1.506s0.217-1.076,0.268-1.436H505.899z"/>
	<path class="st2" d="M1.223,142.99v-8.566h0.996v8.566H1.223z"/>
	<path class="st2" d="M8.188,143.107c-0.93,0-1.648-0.286-2.158-0.858s-0.766-1.382-0.766-2.429c0-1.074,0.26-1.904,0.777-2.49
		s1.254-0.879,2.211-0.879c0.309,0,0.617,0.033,0.926,0.1s0.551,0.145,0.727,0.234l-0.299,0.826
		c-0.215-0.086-0.449-0.157-0.703-0.214s-0.479-0.085-0.674-0.085c-1.305,0-1.957,0.832-1.957,2.496c0,0.789,0.16,1.395,0.479,1.816
		s0.789,0.633,1.414,0.633c0.535,0,1.084-0.115,1.646-0.346v0.861C9.381,142.996,8.84,143.107,8.188,143.107z"/>
	<path class="st2" d="M15.249,143.107c-0.949,0-1.699-0.289-2.248-0.867s-0.822-1.381-0.822-2.408c0-1.035,0.254-1.857,0.764-2.467
		s1.195-0.914,2.055-0.914c0.805,0,1.441,0.265,1.91,0.794s0.703,1.228,0.703,2.095v0.615h-4.424c0.02,0.754,0.209,1.326,0.57,1.717
		s0.871,0.586,1.527,0.586c0.691,0,1.375-0.145,2.051-0.434v0.867c-0.344,0.148-0.67,0.255-0.977,0.319
		S15.682,143.107,15.249,143.107z M14.985,137.265c-0.516,0-0.928,0.168-1.234,0.504s-0.486,0.801-0.541,1.395h3.357
		c0-0.613-0.137-1.083-0.41-1.409S15.493,137.265,14.985,137.265z"/>
	<path class="st2" d="M24.838,142.129h-0.053c-0.449,0.652-1.121,0.979-2.016,0.979c-0.84,0-1.494-0.287-1.961-0.861
		s-0.699-1.391-0.699-2.449s0.234-1.881,0.703-2.467s1.121-0.879,1.957-0.879c0.871,0,1.539,0.316,2.004,0.949h0.076l-0.041-0.463
		l-0.023-0.451v-2.613h0.973v9.117h-0.791L24.838,142.129z M22.893,142.293c0.664,0,1.145-0.181,1.443-0.542
		s0.449-0.944,0.449-1.749v-0.205c0-0.91-0.152-1.56-0.455-1.948s-0.785-0.583-1.449-0.583c-0.57,0-1.008,0.222-1.311,0.665
		s-0.453,1.069-0.453,1.878c0,0.82,0.15,1.439,0.451,1.857S22.311,142.293,22.893,142.293z"/>
	<path class="st2" d="M37.253,138.502h2.912v4.166c-0.453,0.145-0.914,0.254-1.383,0.328s-1.012,0.111-1.629,0.111
		c-1.297,0-2.307-0.386-3.029-1.157s-1.084-1.853-1.084-3.243c0-0.891,0.178-1.671,0.535-2.341s0.873-1.182,1.545-1.535
		s1.459-0.53,2.361-0.53c0.914,0,1.766,0.168,2.555,0.504l-0.387,0.879c-0.773-0.328-1.518-0.492-2.232-0.492
		c-1.043,0-1.857,0.311-2.443,0.932s-0.879,1.482-0.879,2.584c0,1.156,0.281,2.033,0.846,2.631s1.395,0.896,2.488,0.896
		c0.594,0,1.174-0.068,1.74-0.205v-2.637h-1.916V138.502z"/>
	<path class="st2" d="M43.192,134.828c0-0.223,0.055-0.386,0.164-0.489s0.246-0.155,0.41-0.155c0.156,0,0.291,0.053,0.404,0.158
		s0.17,0.268,0.17,0.486s-0.057,0.382-0.17,0.489s-0.248,0.161-0.404,0.161c-0.164,0-0.301-0.054-0.41-0.161
		S43.192,135.046,43.192,134.828z M44.247,142.99h-0.973v-6.422h0.973V142.99z"/>
	<path class="st2" d="M51.905,142.99v-4.154c0-0.523-0.119-0.914-0.357-1.172s-0.611-0.387-1.119-0.387
		c-0.672,0-1.164,0.182-1.477,0.545s-0.469,0.963-0.469,1.799v3.369H47.51v-6.422h0.791l0.158,0.879h0.047
		c0.199-0.316,0.479-0.562,0.838-0.735s0.76-0.261,1.201-0.261c0.773,0,1.355,0.187,1.746,0.56s0.586,0.97,0.586,1.79v4.189H51.905z
		"/>
	<path class="st2" d="M61.331,136.568v0.615l-1.189,0.141c0.109,0.137,0.207,0.315,0.293,0.536s0.129,0.47,0.129,0.747
		c0,0.629-0.215,1.131-0.645,1.506s-1.02,0.562-1.77,0.562c-0.191,0-0.371-0.016-0.539-0.047c-0.414,0.219-0.621,0.494-0.621,0.826
		c0,0.176,0.072,0.306,0.217,0.39s0.393,0.126,0.744,0.126h1.137c0.695,0,1.229,0.146,1.602,0.439s0.561,0.719,0.561,1.277
		c0,0.711-0.285,1.253-0.855,1.626s-1.402,0.56-2.496,0.56c-0.84,0-1.488-0.156-1.943-0.469s-0.682-0.754-0.682-1.324
		c0-0.391,0.125-0.729,0.375-1.014s0.602-0.479,1.055-0.58c-0.164-0.074-0.303-0.189-0.414-0.346s-0.166-0.338-0.166-0.545
		c0-0.234,0.062-0.439,0.188-0.615s0.322-0.346,0.592-0.51c-0.332-0.137-0.604-0.369-0.812-0.697s-0.312-0.703-0.312-1.125
		c0-0.703,0.211-1.245,0.633-1.626s1.02-0.571,1.793-0.571c0.336,0,0.639,0.039,0.908,0.117H61.331z M56.21,144.068
		c0,0.348,0.146,0.611,0.439,0.791s0.713,0.27,1.26,0.27c0.816,0,1.42-0.122,1.812-0.366s0.59-0.575,0.59-0.993
		c0-0.348-0.107-0.589-0.322-0.724s-0.619-0.202-1.213-0.202H57.61c-0.441,0-0.785,0.105-1.031,0.316S56.21,143.673,56.21,144.068z
		 M56.737,138.625c0,0.449,0.127,0.789,0.381,1.02s0.607,0.346,1.061,0.346c0.949,0,1.424-0.461,1.424-1.383
		c0-0.965-0.48-1.447-1.441-1.447c-0.457,0-0.809,0.123-1.055,0.369S56.737,138.14,56.737,138.625z"/>
	<path class="st2" d="M66.561,143.107c-0.949,0-1.697-0.289-2.246-0.867c-0.549-0.578-0.824-1.381-0.824-2.408
		c0-1.035,0.256-1.857,0.766-2.467c0.51-0.609,1.193-0.914,2.053-0.914c0.805,0,1.441,0.265,1.91,0.794s0.703,1.228,0.703,2.095
		v0.615h-4.424c0.02,0.754,0.211,1.326,0.572,1.717s0.869,0.586,1.525,0.586c0.691,0,1.375-0.145,2.051-0.434v0.867
		c-0.344,0.148-0.668,0.255-0.975,0.319S66.995,143.107,66.561,143.107z M66.297,137.265c-0.516,0-0.926,0.168-1.232,0.504
		s-0.488,0.801-0.543,1.395h3.357c0-0.613-0.137-1.083-0.41-1.409S66.805,137.265,66.297,137.265z"/>
	<path class="st2" d="M74.711,136.451c0.285,0,0.541,0.023,0.768,0.07l-0.135,0.902c-0.266-0.059-0.5-0.088-0.703-0.088
		c-0.52,0-0.965,0.211-1.334,0.633s-0.553,0.947-0.553,1.576v3.445h-0.973v-6.422h0.803l0.111,1.189h0.047
		c0.238-0.418,0.525-0.74,0.861-0.967S74.309,136.451,74.711,136.451z"/>
	<path class="st2" d="M82.344,142.99v-8.566h0.996v7.664h3.779v0.902H82.344z"/>
	<path class="st2" d="M92.338,143.107c-0.949,0-1.699-0.289-2.248-0.867s-0.822-1.381-0.822-2.408c0-1.035,0.254-1.857,0.764-2.467
		s1.195-0.914,2.055-0.914c0.805,0,1.441,0.265,1.91,0.794s0.703,1.228,0.703,2.095v0.615h-4.424c0.02,0.754,0.209,1.326,0.57,1.717
		s0.871,0.586,1.527,0.586c0.691,0,1.375-0.145,2.051-0.434v0.867c-0.344,0.148-0.67,0.255-0.977,0.319
		S92.772,143.107,92.338,143.107z M92.075,137.265c-0.516,0-0.928,0.168-1.234,0.504s-0.486,0.801-0.541,1.395h3.357
		c0-0.613-0.137-1.083-0.41-1.409S92.583,137.265,92.075,137.265z"/>
	<path class="st2" d="M105.743,142.99v-4.178c0-0.512-0.109-0.896-0.328-1.151s-0.559-0.384-1.02-0.384
		c-0.605,0-1.053,0.174-1.342,0.521s-0.434,0.883-0.434,1.605v3.586h-0.973v-4.178c0-0.512-0.109-0.896-0.328-1.151
		s-0.561-0.384-1.025-0.384c-0.609,0-1.055,0.183-1.338,0.548s-0.426,0.964-0.426,1.796v3.369h-0.973v-6.422h0.791l0.158,0.879
		h0.047c0.184-0.312,0.443-0.557,0.777-0.732s0.707-0.264,1.121-0.264c1.004,0,1.66,0.363,1.969,1.09h0.047
		c0.191-0.336,0.469-0.602,0.832-0.797s0.777-0.293,1.242-0.293c0.727,0,1.271,0.187,1.633,0.56s0.541,0.97,0.541,1.79v4.189
		H105.743z"/>
	<path class="st2" d="M115.463,139.773c0,1.047-0.264,1.864-0.791,2.452s-1.256,0.882-2.186,0.882c-0.574,0-1.084-0.135-1.529-0.404
		s-0.789-0.656-1.031-1.16s-0.363-1.094-0.363-1.77c0-1.047,0.262-1.862,0.785-2.446s1.25-0.876,2.18-0.876
		c0.898,0,1.611,0.299,2.141,0.896S115.463,138.754,115.463,139.773z M110.571,139.773c0,0.82,0.164,1.445,0.492,1.875
		s0.811,0.645,1.447,0.645s1.119-0.214,1.449-0.642s0.496-1.054,0.496-1.878c0-0.816-0.166-1.437-0.496-1.86
		s-0.816-0.636-1.461-0.636c-0.637,0-1.117,0.209-1.441,0.627S110.571,138.945,110.571,139.773z"/>
	<path class="st2" d="M122.762,142.99v-4.154c0-0.523-0.119-0.914-0.357-1.172s-0.611-0.387-1.119-0.387
		c-0.672,0-1.164,0.182-1.477,0.545s-0.469,0.963-0.469,1.799v3.369h-0.973v-6.422h0.791l0.158,0.879h0.047
		c0.199-0.316,0.479-0.562,0.838-0.735s0.76-0.261,1.201-0.261c0.773,0,1.355,0.187,1.746,0.56s0.586,0.97,0.586,1.79v4.189H122.762
		z"/>
	<path class="st2" d="M134.034,142.99h-0.996v-7.682h-2.713v-0.885h6.422v0.885h-2.713V142.99z"/>
	<path class="st2" d="M141.801,143.107c-0.949,0-1.697-0.289-2.246-0.867s-0.824-1.381-0.824-2.408c0-1.035,0.256-1.857,0.766-2.467
		s1.193-0.914,2.053-0.914c0.805,0,1.441,0.265,1.91,0.794s0.703,1.228,0.703,2.095v0.615h-4.424
		c0.02,0.754,0.211,1.326,0.572,1.717s0.869,0.586,1.525,0.586c0.691,0,1.375-0.145,2.051-0.434v0.867
		c-0.344,0.148-0.668,0.255-0.975,0.319S142.235,143.107,141.801,143.107z M141.538,137.265c-0.516,0-0.926,0.168-1.232,0.504
		s-0.488,0.801-0.543,1.395h3.357c0-0.613-0.137-1.083-0.41-1.409S142.045,137.265,141.538,137.265z"/>
	<path class="st2" d="M150.971,142.99l-0.193-0.914h-0.047c-0.32,0.402-0.641,0.675-0.959,0.817s-0.715,0.214-1.191,0.214
		c-0.637,0-1.137-0.164-1.498-0.492s-0.541-0.795-0.541-1.4c0-1.297,1.037-1.977,3.111-2.039l1.09-0.035v-0.398
		c0-0.504-0.109-0.876-0.326-1.116s-0.562-0.36-1.039-0.36c-0.535,0-1.141,0.164-1.816,0.492l-0.299-0.744
		c0.316-0.172,0.662-0.307,1.039-0.404s0.756-0.146,1.135-0.146c0.766,0,1.332,0.17,1.701,0.51s0.555,0.885,0.555,1.635v4.383
		H150.971z M148.774,142.304c0.605,0,1.08-0.166,1.426-0.498s0.52-0.797,0.52-1.395v-0.58l-0.973,0.041
		c-0.773,0.027-1.332,0.147-1.674,0.36s-0.512,0.544-0.512,0.993c0,0.352,0.105,0.619,0.318,0.803S148.391,142.304,148.774,142.304z
		"/>
	<path class="st2" d="M155.915,141.595l0.088,0.135c-0.102,0.391-0.248,0.845-0.439,1.362s-0.391,0.999-0.598,1.444h-0.732
		c0.105-0.406,0.223-0.908,0.35-1.506s0.215-1.076,0.266-1.436H155.915z"/>
	<path class="st2" d="M164.497,139.427v3.562h-0.996v-8.566h2.35c1.051,0,1.826,0.201,2.328,0.604s0.754,1.008,0.754,1.816
		c0,1.133-0.574,1.898-1.723,2.297l2.326,3.85h-1.178l-2.074-3.562H164.497z M164.497,138.572h1.365c0.703,0,1.219-0.14,1.547-0.419
		s0.492-0.698,0.492-1.257c0-0.566-0.168-0.975-0.502-1.225s-0.869-0.375-1.607-0.375h-1.295V138.572z"/>
	<path class="st2" d="M174.684,143.107c-0.949,0-1.697-0.289-2.246-0.867s-0.824-1.381-0.824-2.408c0-1.035,0.256-1.857,0.766-2.467
		s1.193-0.914,2.053-0.914c0.805,0,1.441,0.265,1.91,0.794s0.703,1.228,0.703,2.095v0.615h-4.424
		c0.02,0.754,0.211,1.326,0.572,1.717s0.869,0.586,1.525,0.586c0.691,0,1.375-0.145,2.051-0.434v0.867
		c-0.344,0.148-0.668,0.255-0.975,0.319S175.118,143.107,174.684,143.107z M174.42,137.265c-0.516,0-0.926,0.168-1.232,0.504
		s-0.488,0.801-0.543,1.395h3.357c0-0.613-0.137-1.083-0.41-1.409S174.928,137.265,174.42,137.265z"/>
	<path class="st2" d="M184.276,142.129h-0.053c-0.449,0.652-1.121,0.979-2.016,0.979c-0.84,0-1.494-0.287-1.961-0.861
		s-0.699-1.391-0.699-2.449s0.234-1.881,0.703-2.467s1.121-0.879,1.957-0.879c0.871,0,1.539,0.316,2.004,0.949h0.076l-0.041-0.463
		l-0.023-0.451v-2.613h0.973v9.117h-0.791L184.276,142.129z M182.331,142.293c0.664,0,1.145-0.181,1.443-0.542
		s0.449-0.944,0.449-1.749v-0.205c0-0.91-0.152-1.56-0.455-1.948s-0.785-0.583-1.449-0.583c-0.57,0-1.008,0.222-1.311,0.665
		s-0.453,1.069-0.453,1.878c0,0.82,0.15,1.439,0.451,1.857S181.749,142.293,182.331,142.293z"/>
	<path class="st2" d="M192.922,134.423h2.42c1.137,0,1.959,0.17,2.467,0.51s0.762,0.877,0.762,1.611
		c0,0.508-0.143,0.927-0.426,1.257s-0.695,0.544-1.238,0.642v0.059c1.301,0.223,1.951,0.906,1.951,2.051
		c0,0.766-0.26,1.363-0.777,1.793s-1.24,0.645-2.17,0.645h-2.988V134.423z M193.919,138.091h1.641c0.703,0,1.209-0.11,1.518-0.331
		s0.463-0.593,0.463-1.116c0-0.48-0.172-0.827-0.516-1.04s-0.891-0.319-1.641-0.319h-1.465V138.091z M193.919,138.935v3.205h1.787
		c0.691,0,1.211-0.134,1.561-0.401s0.525-0.687,0.525-1.257c0-0.531-0.18-0.922-0.537-1.172s-0.9-0.375-1.631-0.375H193.919z"/>
	<path class="st2" d="M204.463,143.107c-0.949,0-1.699-0.289-2.248-0.867s-0.822-1.381-0.822-2.408c0-1.035,0.254-1.857,0.764-2.467
		s1.195-0.914,2.055-0.914c0.805,0,1.441,0.265,1.91,0.794s0.703,1.228,0.703,2.095v0.615h-4.424c0.02,0.754,0.209,1.326,0.57,1.717
		s0.871,0.586,1.527,0.586c0.691,0,1.375-0.145,2.051-0.434v0.867c-0.344,0.148-0.67,0.255-0.977,0.319
		S204.897,143.107,204.463,143.107z M204.2,137.265c-0.516,0-0.928,0.168-1.234,0.504s-0.486,0.801-0.541,1.395h3.357
		c0-0.613-0.137-1.083-0.41-1.409S204.708,137.265,204.2,137.265z"/>
	<path class="st2" d="M213.631,142.99l-0.193-0.914h-0.047c-0.32,0.402-0.639,0.675-0.957,0.817s-0.717,0.214-1.193,0.214
		c-0.637,0-1.135-0.164-1.496-0.492s-0.543-0.795-0.543-1.4c0-1.297,1.037-1.977,3.111-2.039l1.09-0.035v-0.398
		c0-0.504-0.107-0.876-0.324-1.116s-0.564-0.36-1.041-0.36c-0.535,0-1.141,0.164-1.816,0.492l-0.299-0.744
		c0.316-0.172,0.664-0.307,1.041-0.404s0.754-0.146,1.133-0.146c0.766,0,1.334,0.17,1.703,0.51s0.553,0.885,0.553,1.635v4.383
		H213.631z M211.434,142.304c0.605,0,1.082-0.166,1.428-0.498s0.518-0.797,0.518-1.395v-0.58l-0.973,0.041
		c-0.773,0.027-1.33,0.147-1.672,0.36s-0.514,0.544-0.514,0.993c0,0.352,0.107,0.619,0.32,0.803S211.051,142.304,211.434,142.304z"
		/>
	<path class="st2" d="M221.952,142.99v-4.154c0-0.523-0.119-0.914-0.357-1.172s-0.611-0.387-1.119-0.387
		c-0.672,0-1.164,0.182-1.477,0.545s-0.469,0.963-0.469,1.799v3.369h-0.973v-6.422h0.791l0.158,0.879h0.047
		c0.199-0.316,0.479-0.562,0.838-0.735s0.76-0.261,1.201-0.261c0.773,0,1.355,0.187,1.746,0.56s0.586,0.97,0.586,1.79v4.189H221.952
		z"/>
	<path class="st2" d="M235.42,140.711c0,0.754-0.273,1.342-0.82,1.764s-1.289,0.633-2.227,0.633c-1.016,0-1.797-0.131-2.344-0.393
		v-0.961c0.352,0.148,0.734,0.266,1.148,0.352s0.824,0.129,1.23,0.129c0.664,0,1.164-0.126,1.5-0.378s0.504-0.603,0.504-1.052
		c0-0.297-0.061-0.54-0.18-0.729s-0.318-0.364-0.598-0.524s-0.703-0.342-1.273-0.545c-0.797-0.285-1.367-0.623-1.709-1.014
		s-0.512-0.9-0.512-1.529c0-0.66,0.248-1.186,0.744-1.576s1.152-0.586,1.969-0.586c0.852,0,1.635,0.156,2.35,0.469l-0.311,0.867
		c-0.707-0.297-1.395-0.445-2.062-0.445c-0.527,0-0.939,0.113-1.236,0.34s-0.445,0.541-0.445,0.943c0,0.297,0.055,0.54,0.164,0.729
		s0.293,0.363,0.553,0.521s0.658,0.333,1.193,0.524c0.898,0.32,1.516,0.664,1.854,1.031S235.42,140.125,235.42,140.711z"/>
	<path class="st2" d="M246.411,142.99v-4.178c0-0.512-0.109-0.896-0.328-1.151s-0.559-0.384-1.02-0.384
		c-0.605,0-1.053,0.174-1.342,0.521s-0.434,0.883-0.434,1.605v3.586h-0.973v-4.178c0-0.512-0.109-0.896-0.328-1.151
		s-0.561-0.384-1.025-0.384c-0.609,0-1.057,0.183-1.34,0.548s-0.424,0.964-0.424,1.796v3.369h-0.973v-6.422h0.791l0.158,0.879h0.047
		c0.184-0.312,0.441-0.557,0.775-0.732s0.709-0.264,1.123-0.264c1.004,0,1.66,0.363,1.969,1.09h0.047
		c0.191-0.336,0.469-0.602,0.832-0.797s0.777-0.293,1.242-0.293c0.727,0,1.27,0.187,1.631,0.56s0.543,0.97,0.543,1.79v4.189H246.411
		z"/>
	<path class="st2" d="M256.129,139.773c0,1.047-0.264,1.864-0.791,2.452s-1.256,0.882-2.186,0.882c-0.574,0-1.084-0.135-1.529-0.404
		s-0.789-0.656-1.031-1.16s-0.363-1.094-0.363-1.77c0-1.047,0.262-1.862,0.785-2.446s1.25-0.876,2.18-0.876
		c0.898,0,1.613,0.299,2.143,0.896S256.129,138.754,256.129,139.773z M251.237,139.773c0,0.82,0.164,1.445,0.492,1.875
		s0.811,0.645,1.447,0.645s1.121-0.214,1.451-0.642s0.494-1.054,0.494-1.878c0-0.816-0.164-1.437-0.494-1.86
		s-0.818-0.636-1.463-0.636c-0.637,0-1.117,0.209-1.441,0.627S251.237,138.945,251.237,139.773z"/>
	<path class="st2" d="M264.579,139.773c0,1.047-0.264,1.864-0.791,2.452s-1.256,0.882-2.186,0.882c-0.574,0-1.084-0.135-1.529-0.404
		s-0.789-0.656-1.031-1.16s-0.363-1.094-0.363-1.77c0-1.047,0.262-1.862,0.785-2.446s1.25-0.876,2.18-0.876
		c0.898,0,1.611,0.299,2.141,0.896S264.579,138.754,264.579,139.773z M259.686,139.773c0,0.82,0.164,1.445,0.492,1.875
		s0.811,0.645,1.447,0.645s1.119-0.214,1.449-0.642s0.496-1.054,0.496-1.878c0-0.816-0.166-1.437-0.496-1.86
		s-0.816-0.636-1.461-0.636c-0.637,0-1.117,0.209-1.441,0.627S259.686,138.945,259.686,139.773z"/>
	<path class="st2" d="M269.557,142.304c0.172,0,0.338-0.013,0.498-0.038s0.287-0.052,0.381-0.079v0.744
		c-0.105,0.051-0.26,0.093-0.465,0.126s-0.391,0.05-0.555,0.05c-1.242,0-1.863-0.654-1.863-1.963v-3.82h-0.92v-0.469l0.92-0.404
		l0.41-1.371h0.562v1.488h1.863v0.756h-1.863v3.779c0,0.387,0.092,0.684,0.275,0.891S269.237,142.304,269.557,142.304z"/>
	<path class="st2" d="M277.315,142.99v-4.154c0-0.523-0.119-0.914-0.357-1.172s-0.611-0.387-1.119-0.387
		c-0.676,0-1.17,0.184-1.48,0.551s-0.465,0.969-0.465,1.805v3.357h-0.973v-9.117h0.973v2.76c0,0.332-0.016,0.607-0.047,0.826h0.059
		c0.191-0.309,0.463-0.552,0.816-0.729s0.758-0.267,1.211-0.267c0.785,0,1.373,0.187,1.766,0.56s0.59,0.966,0.59,1.778v4.189
		H277.315z"/>
	<path class="st2" d="M281.403,134.828c0-0.223,0.055-0.386,0.164-0.489s0.246-0.155,0.41-0.155c0.156,0,0.291,0.053,0.404,0.158
		s0.17,0.268,0.17,0.486s-0.057,0.382-0.17,0.489s-0.248,0.161-0.404,0.161c-0.164,0-0.301-0.054-0.41-0.161
		S281.403,135.046,281.403,134.828z M282.458,142.99h-0.973v-6.422h0.973V142.99z"/>
	<path class="st2" d="M288.432,143.107c-0.949,0-1.697-0.289-2.246-0.867s-0.824-1.381-0.824-2.408c0-1.035,0.256-1.857,0.766-2.467
		s1.193-0.914,2.053-0.914c0.805,0,1.441,0.265,1.91,0.794s0.703,1.228,0.703,2.095v0.615h-4.424
		c0.02,0.754,0.211,1.326,0.572,1.717s0.869,0.586,1.525,0.586c0.691,0,1.375-0.145,2.051-0.434v0.867
		c-0.344,0.148-0.668,0.255-0.975,0.319S288.866,143.107,288.432,143.107z M288.169,137.265c-0.516,0-0.926,0.168-1.232,0.504
		s-0.488,0.801-0.543,1.395h3.357c0-0.613-0.137-1.083-0.41-1.409S288.676,137.265,288.169,137.265z"/>
</g>
<g>
	<path class="st0" d="M2.471,70.714V53.582h1.195v17.133H2.471z"/>
	<path class="st0" d="M14.511,70.949c-1.82,0-3.246-0.574-4.277-1.723s-1.547-2.75-1.547-4.805c0-2.109,0.535-3.752,1.605-4.928
		s2.535-1.764,4.395-1.764c1.102,0,2.156,0.191,3.164,0.574l-0.316,1.031c-1.102-0.367-2.059-0.551-2.871-0.551
		c-1.562,0-2.746,0.482-3.551,1.447s-1.207,2.354-1.207,4.166c0,1.719,0.402,3.064,1.207,4.037s1.93,1.459,3.375,1.459
		c1.156,0,2.23-0.207,3.223-0.621v1.078C16.898,70.75,15.832,70.949,14.511,70.949z"/>
	<path class="st0" d="M27.172,70.949c-1.852,0-3.295-0.57-4.33-1.711S21.29,66.5,21.29,64.445c0-2.031,0.5-3.658,1.5-4.881
		s2.348-1.834,4.043-1.834c1.5,0,2.684,0.523,3.551,1.57s1.301,2.469,1.301,4.266v0.937h-9.176c0.016,1.75,0.424,3.086,1.225,4.008
		s1.947,1.383,3.439,1.383c0.727,0,1.365-0.051,1.916-0.152s1.248-0.32,2.092-0.656v1.055c-0.719,0.312-1.383,0.525-1.992,0.639
		S27.907,70.949,27.172,70.949z M26.833,58.761c-1.227,0-2.211,0.404-2.953,1.213s-1.176,1.975-1.301,3.498h7.875
		c0-1.477-0.32-2.631-0.961-3.463S27.965,58.761,26.833,58.761z"/>
	<path class="st0" d="M41.063,57.73c0.922,0,1.719,0.168,2.391,0.504s1.273,0.91,1.805,1.723h0.07
		c-0.047-0.984-0.07-1.949-0.07-2.895V52.48h1.148v18.234h-0.762l-0.293-1.945h-0.094c-0.969,1.453-2.359,2.18-4.172,2.18
		c-1.758,0-3.102-0.547-4.031-1.641s-1.395-2.688-1.395-4.781c0-2.203,0.461-3.887,1.383-5.051S39.305,57.73,41.063,57.73z
		 M41.063,58.785c-1.391,0-2.436,0.488-3.135,1.465s-1.049,2.395-1.049,4.254c0,3.609,1.402,5.414,4.207,5.414
		c1.438,0,2.492-0.418,3.164-1.254s1.008-2.215,1.008-4.137v-0.199c0-1.969-0.33-3.385-0.99-4.248S42.54,58.785,41.063,58.785z"/>
	<path class="st0" d="M66.924,54.414c-2.148,0-3.84,0.688-5.074,2.062s-1.852,3.258-1.852,5.648c0,2.445,0.582,4.344,1.746,5.695
		s2.828,2.027,4.992,2.027c1.438,0,2.758-0.184,3.961-0.551v1.055c-1.133,0.398-2.547,0.598-4.242,0.598
		c-2.406,0-4.301-0.777-5.684-2.332s-2.074-3.727-2.074-6.516c0-1.742,0.33-3.277,0.99-4.605s1.609-2.354,2.848-3.076
		s2.678-1.084,4.318-1.084c1.672,0,3.168,0.312,4.488,0.938l-0.48,1.078C69.612,54.726,68.299,54.414,66.924,54.414z"/>
	<path class="st0" d="M85.961,64.328c0,2.078-0.504,3.701-1.512,4.869s-2.398,1.752-4.172,1.752c-1.117,0-2.102-0.27-2.953-0.809
		s-1.504-1.312-1.957-2.32s-0.68-2.172-0.68-3.492c0-2.078,0.504-3.697,1.512-4.857s2.391-1.74,4.148-1.74
		c1.75,0,3.123,0.588,4.119,1.764S85.961,62.281,85.961,64.328z M75.906,64.328c0,1.75,0.385,3.115,1.154,4.096
		s1.857,1.471,3.264,1.471s2.494-0.49,3.264-1.471s1.154-2.346,1.154-4.096c0-1.758-0.389-3.121-1.166-4.09
		s-1.869-1.453-3.275-1.453s-2.49,0.482-3.252,1.447S75.906,62.562,75.906,64.328z"/>
	<path class="st0" d="M95.422,58.984h-3v11.73h-1.16v-11.73h-2.367v-0.68l2.367-0.434v-0.984c0-1.562,0.287-2.709,0.861-3.439
		s1.514-1.096,2.818-1.096c0.703,0,1.406,0.105,2.109,0.316l-0.27,1.008c-0.625-0.195-1.246-0.293-1.863-0.293
		c-0.906,0-1.549,0.268-1.928,0.803s-0.568,1.404-0.568,2.607v1.184h3V58.984z M102.618,58.984h-3v11.73h-1.16v-11.73H96.09v-0.68
		l2.367-0.434v-0.984c0-1.562,0.287-2.709,0.861-3.439s1.514-1.096,2.818-1.096c0.703,0,1.406,0.105,2.109,0.316l-0.27,1.008
		c-0.625-0.195-1.246-0.293-1.863-0.293c-0.906,0-1.549,0.268-1.928,0.803s-0.568,1.404-0.568,2.607v1.184h3V58.984z"/>
	<path class="st0" d="M111.434,70.949c-1.852,0-3.295-0.57-4.33-1.711s-1.553-2.738-1.553-4.793c0-2.031,0.5-3.658,1.5-4.881
		s2.348-1.834,4.043-1.834c1.5,0,2.684,0.523,3.551,1.57s1.301,2.469,1.301,4.266v0.937h-9.176c0.016,1.75,0.424,3.086,1.225,4.008
		s1.947,1.383,3.439,1.383c0.727,0,1.365-0.051,1.916-0.152s1.248-0.32,2.092-0.656v1.055c-0.719,0.312-1.383,0.525-1.992,0.639
		S112.169,70.949,111.434,70.949z M111.094,58.761c-1.227,0-2.211,0.404-2.953,1.213s-1.176,1.975-1.301,3.498h7.875
		c0-1.477-0.32-2.631-0.961-3.463S112.227,58.761,111.094,58.761z"/>
	<path class="st0" d="M125.806,70.949c-1.852,0-3.295-0.57-4.33-1.711s-1.553-2.738-1.553-4.793c0-2.031,0.5-3.658,1.5-4.881
		s2.348-1.834,4.043-1.834c1.5,0,2.684,0.523,3.551,1.57s1.301,2.469,1.301,4.266v0.937h-9.176c0.016,1.75,0.424,3.086,1.225,4.008
		s1.947,1.383,3.439,1.383c0.727,0,1.365-0.051,1.916-0.152c0.551-0.102,1.248-0.32,2.092-0.656v1.055
		c-0.719,0.312-1.383,0.525-1.992,0.639C127.212,70.892,126.541,70.949,125.806,70.949z M125.466,58.761
		c-1.227,0-2.211,0.404-2.953,1.213s-1.176,1.975-1.301,3.498h7.875c0-1.477-0.32-2.631-0.961-3.463
		C127.486,59.177,126.599,58.761,125.466,58.761z"/>
	<path class="st0" d="M141.777,66.367c0-1.078,0.287-1.996,0.861-2.754c0.574-0.758,1.646-1.559,3.217-2.402l-0.879-0.961
		c-0.516-0.555-0.898-1.098-1.148-1.629s-0.375-1.086-0.375-1.664c0-1.117,0.373-2.004,1.119-2.66s1.748-0.984,3.006-0.984
		c1.211,0,2.17,0.316,2.877,0.949s1.061,1.508,1.061,2.625c0,0.82-0.273,1.572-0.82,2.256s-1.535,1.443-2.965,2.279l5.297,5.355
		c0.477-0.562,0.883-1.176,1.219-1.84s0.629-1.449,0.879-2.355h1.125c-0.492,1.922-1.309,3.586-2.449,4.992l3.117,3.141h-1.582
		l-2.262-2.309c-0.719,0.703-1.359,1.217-1.922,1.541s-1.178,0.572-1.846,0.744s-1.428,0.258-2.279,0.258
		c-1.633,0-2.916-0.402-3.85-1.207S141.777,67.812,141.777,66.367z M147.109,69.894c1,0,1.916-0.17,2.748-0.51
		s1.65-0.912,2.455-1.717l-5.66-5.684c-1.062,0.562-1.83,1.041-2.303,1.436s-0.816,0.822-1.031,1.283s-0.322,1-0.322,1.617
		c0,1.117,0.363,1.992,1.09,2.625S145.82,69.894,147.109,69.894z M144.707,56.933c0,0.617,0.156,1.188,0.469,1.711
		s0.906,1.203,1.781,2.039c1.242-0.664,2.105-1.285,2.59-1.863s0.727-1.238,0.727-1.98c0-0.734-0.242-1.33-0.727-1.787
		s-1.141-0.686-1.969-0.686c-0.891,0-1.592,0.227-2.104,0.68S144.707,56.129,144.707,56.933z"/>
	<path class="st0" d="M172.969,70.714h-1.207V54.707h-5.566v-1.125h12.34v1.125h-5.566V70.714z"/>
	<path class="st0" d="M187.13,70.949c-1.852,0-3.295-0.57-4.33-1.711s-1.553-2.738-1.553-4.793c0-2.031,0.5-3.658,1.5-4.881
		s2.348-1.834,4.043-1.834c1.5,0,2.684,0.523,3.551,1.57s1.301,2.469,1.301,4.266v0.937h-9.176c0.016,1.75,0.424,3.086,1.225,4.008
		s1.947,1.383,3.439,1.383c0.727,0,1.365-0.051,1.916-0.152s1.248-0.32,2.092-0.656v1.055c-0.719,0.312-1.383,0.525-1.992,0.639
		S187.865,70.949,187.13,70.949z M186.791,58.761c-1.227,0-2.211,0.404-2.953,1.213s-1.176,1.975-1.301,3.498h7.875
		c0-1.477-0.32-2.631-0.961-3.463S187.923,58.761,186.791,58.761z"/>
	<path class="st0" d="M204.092,70.714l-0.293-2.016h-0.094c-0.641,0.82-1.299,1.4-1.975,1.74s-1.475,0.51-2.396,0.51
		c-1.25,0-2.223-0.32-2.918-0.961s-1.043-1.527-1.043-2.66c0-1.242,0.518-2.207,1.553-2.895c1.035-0.687,2.533-1.051,4.494-1.09
		l2.426-0.07v-0.844c0-1.211-0.246-2.125-0.738-2.742s-1.285-0.926-2.379-0.926c-1.18,0-2.402,0.328-3.668,0.984l-0.434-1.008
		c1.398-0.656,2.781-0.984,4.148-0.984c1.398,0,2.443,0.363,3.135,1.09s1.037,1.859,1.037,3.398v8.473H204.092z M199.405,69.894
		c1.359,0,2.432-0.389,3.217-1.166s1.178-1.857,1.178-3.24v-1.254l-2.227,0.094c-1.789,0.086-3.064,0.365-3.826,0.838
		s-1.143,1.209-1.143,2.209c0,0.797,0.244,1.416,0.732,1.857S198.514,69.894,199.405,69.894z"/>
</g>
</svg>